  0
SECTION
  2
HEADER
  9
$ANGBASE
  50
0.0
  9
$ANGDIR
  70
1
  9
$MEASUREMENT
  70
0
  0
ENDSEC
  0
SECTION
  2
TABLES
  0
TABLE
  2
LTYPE
  70
4
  0
LTYPE
  5
40F
  2
CONTINUOUS
  70
0
  3
Solid line
  72
65
  73
0
  40
0.0
  0
LTYPE
  5
410
  2
DASHDOT
 70
0
  3
Dash Dot ____ _ ____ _
 72
65
 73
4
 40
2.0
 49
1.25
 49
-0.25
 49
0.25
 49
-0.25
  0
LTYPE
  5
411
  2
DASHED
 70
0
  3
Dashed __ __ __ __ __
 72
65
 73
2
 40
0.75
 49
0.5
 49
-0.25
  0
LTYPE
  5
43B
  2
DOTTED
 70
0
  3
Dotted .  .  .  .
 72
65
 73
2
 40
0.2
 49
0.0
 49
-0.2
  0
ENDTAB
  0
TABLE
  2
STYLE
  70
4
  0
STYLE
  2
KICAD
  70
0
  40
0
  41
1
  42
1
  50
0
  71
0
  3
isocp.shx
  0
STYLE
  2
KICADB
  70
0
  40
0
  41
1
  42
1
  50
0
  71
0
  3
isocp.shx
  0
STYLE
  2
KICADI
  70
0
  40
0
  41
1
  42
1
  50
15
  71
0
  3
isocp.shx
  0
STYLE
  2
KICADBI
  70
0
  40
0
  41
1
  42
1
  50
15
  71
0
  3
isocp.shx
  0
ENDTAB
  0
TABLE
  2
LAYER
  70
1
  0
LAYER
  2
BLACK
  70
0
  62
7
  6
CONTINUOUS
  0
ENDTAB
  0
ENDSEC
  0
SECTION
  2
ENTITIES
0
LINE
8
BLACK
6
CONTINUOUS
10
8.02362
20
-3.0315
11
8.02362
21
-3.11024
0
LINE
8
BLACK
6
CONTINUOUS
10
8.02362
20
-3.11024
11
8.02305
21
-3.11163
0
LINE
8
BLACK
6
CONTINUOUS
10
8.02305
20
-3.11163
11
8.02165
21
-3.1122
0
LINE
8
BLACK
6
CONTINUOUS
10
8.02165
20
-3.1122
11
7.88583
21
-3.1122
0
LINE
8
BLACK
6
CONTINUOUS
10
7.88583
20
-3.1122
11
7.88583
21
-3.26772
0
LINE
8
BLACK
6
CONTINUOUS
10
7.88583
20
-3.26772
11
7.88525
21
-3.26911
0
LINE
8
BLACK
6
CONTINUOUS
10
7.88525
20
-3.26911
11
7.88386
21
-3.26969
0
LINE
8
BLACK
6
CONTINUOUS
10
7.88386
20
-3.26969
11
7.68701
21
-3.26969
0
LINE
8
BLACK
6
CONTINUOUS
10
7.68701
20
-3.26969
11
7.68562
21
-3.26911
0
LINE
8
BLACK
6
CONTINUOUS
10
7.68562
20
-3.26911
11
7.68504
21
-3.26772
0
LINE
8
BLACK
6
CONTINUOUS
10
7.68504
20
-3.26772
11
7.68504
21
-3.1122
0
LINE
8
BLACK
6
CONTINUOUS
10
7.68504
20
-3.1122
11
7.62992
21
-3.1122
0
LINE
8
BLACK
6
CONTINUOUS
10
7.62992
20
-3.1122
11
7.62992
21
-3.26772
0
LINE
8
BLACK
6
CONTINUOUS
10
7.62992
20
-3.26772
11
7.62934
21
-3.26911
0
LINE
8
BLACK
6
CONTINUOUS
10
7.62934
20
-3.26911
11
7.62795
21
-3.26969
0
LINE
8
BLACK
6
CONTINUOUS
10
7.62795
20
-3.26969
11
6.72244
21
-3.26969
0
LINE
8
BLACK
6
CONTINUOUS
10
6.72244
20
-3.26969
11
6.72105
21
-3.26911
0
LINE
8
BLACK
6
CONTINUOUS
10
6.72105
20
-3.26911
11
6.72047
21
-3.26772
0
LINE
8
BLACK
6
CONTINUOUS
10
6.72047
20
-3.26772
11
6.72047
21
-3.24816
0
LINE
8
BLACK
6
CONTINUOUS
10
6.72047
20
-3.24816
11
6.43514
21
-3.24999
0
LINE
8
BLACK
6
CONTINUOUS
10
6.43514
20
-3.24999
11
6.42897
21
-3.27145
0
LINE
8
BLACK
6
CONTINUOUS
10
6.42897
20
-3.27145
11
6.42101
21
-3.29394
0
LINE
8
BLACK
6
CONTINUOUS
10
6.42101
20
-3.29394
11
6.41172
21
-3.31592
0
LINE
8
BLACK
6
CONTINUOUS
10
6.41172
20
-3.31592
11
6.40112
21
-3.3373
0
LINE
8
BLACK
6
CONTINUOUS
10
6.40112
20
-3.3373
11
6.38927
21
-3.35801
0
LINE
8
BLACK
6
CONTINUOUS
10
6.38927
20
-3.35801
11
6.37619
21
-3.37797
0
LINE
8
BLACK
6
CONTINUOUS
10
6.37619
20
-3.37797
11
6.36194
21
-3.39711
0
LINE
8
BLACK
6
CONTINUOUS
10
6.36194
20
-3.39711
11
6.34657
21
-3.41536
0
LINE
8
BLACK
6
CONTINUOUS
10
6.34657
20
-3.41536
11
6.33013
21
-3.43266
0
LINE
8
BLACK
6
CONTINUOUS
10
6.33013
20
-3.43266
11
6.31269
21
-3.44894
0
LINE
8
BLACK
6
CONTINUOUS
10
6.31269
20
-3.44894
11
6.2943
21
-3.46414
0
LINE
8
BLACK
6
CONTINUOUS
10
6.2943
20
-3.46414
11
6.27504
21
-3.47822
0
LINE
8
BLACK
6
CONTINUOUS
10
6.27504
20
-3.47822
11
6.25496
21
-3.49112
0
LINE
8
BLACK
6
CONTINUOUS
10
6.25496
20
-3.49112
11
6.23415
21
-3.50279
0
LINE
8
BLACK
6
CONTINUOUS
10
6.23415
20
-3.50279
11
6.21267
21
-3.51319
0
LINE
8
BLACK
6
CONTINUOUS
10
6.21267
20
-3.51319
11
6.19061
21
-3.52229
0
LINE
8
BLACK
6
CONTINUOUS
10
6.19061
20
-3.52229
11
6.16805
21
-3.53004
0
LINE
8
BLACK
6
CONTINUOUS
10
6.16805
20
-3.53004
11
6.14506
21
-3.53644
0
LINE
8
BLACK
6
CONTINUOUS
10
6.14506
20
-3.53644
11
6.12173
21
-3.54144
0
LINE
8
BLACK
6
CONTINUOUS
10
6.12173
20
-3.54144
11
6.09883
21
-3.54493
0
LINE
8
BLACK
6
CONTINUOUS
10
6.09883
20
-3.54493
11
6.0496
21
-3.6434
0
LINE
8
BLACK
6
CONTINUOUS
10
6.0496
20
-3.6434
11
6.04912
21
-3.64381
0
LINE
8
BLACK
6
CONTINUOUS
10
6.04912
20
-3.64381
11
6.04871
21
-3.64428
0
LINE
8
BLACK
6
CONTINUOUS
10
6.04871
20
-3.64428
11
6.04857
21
-3.64429
0
LINE
8
BLACK
6
CONTINUOUS
10
6.04857
20
-3.64429
11
6.04846
21
-3.64439
0
LINE
8
BLACK
6
CONTINUOUS
10
6.04846
20
-3.64439
11
6.04783
21
-3.64434
0
LINE
8
BLACK
6
CONTINUOUS
10
6.04783
20
-3.64434
11
6.04721
21
-3.64439
0
LINE
8
BLACK
6
CONTINUOUS
10
6.04721
20
-3.64439
11
6.0471
21
-3.64429
0
LINE
8
BLACK
6
CONTINUOUS
10
6.0471
20
-3.64429
11
6.04695
21
-3.64428
0
LINE
8
BLACK
6
CONTINUOUS
10
6.04695
20
-3.64428
11
6.04655
21
-3.64381
0
LINE
8
BLACK
6
CONTINUOUS
10
6.04655
20
-3.64381
11
6.04607
21
-3.6434
0
LINE
8
BLACK
6
CONTINUOUS
10
6.04607
20
-3.6434
11
5.99652
21
-3.5443
0
LINE
8
BLACK
6
CONTINUOUS
10
5.99652
20
-3.5443
11
5.97329
21
-3.54048
0
LINE
8
BLACK
6
CONTINUOUS
10
5.97329
20
-3.54048
11
5.9493
21
-3.53499
0
LINE
8
BLACK
6
CONTINUOUS
10
5.9493
20
-3.53499
11
5.92569
21
-3.52802
0
LINE
8
BLACK
6
CONTINUOUS
10
5.92569
20
-3.52802
11
5.90256
21
-3.51962
0
LINE
8
BLACK
6
CONTINUOUS
10
5.90256
20
-3.51962
11
5.87999
21
-3.50979
0
LINE
8
BLACK
6
CONTINUOUS
10
5.87999
20
-3.50979
11
5.85807
21
-3.4986
0
LINE
8
BLACK
6
CONTINUOUS
10
5.85807
20
-3.4986
11
5.83689
21
-3.48606
0
LINE
8
BLACK
6
CONTINUOUS
10
5.83689
20
-3.48606
11
5.81652
21
-3.47225
0
LINE
8
BLACK
6
CONTINUOUS
10
5.81652
20
-3.47225
11
5.79704
21
-3.45719
0
LINE
8
BLACK
6
CONTINUOUS
10
5.79704
20
-3.45719
11
5.77854
21
-3.44097
0
LINE
8
BLACK
6
CONTINUOUS
10
5.77854
20
-3.44097
11
5.76107
21
-3.42363
0
LINE
8
BLACK
6
CONTINUOUS
10
5.76107
20
-3.42363
11
5.7447
21
-3.40524
0
LINE
8
BLACK
6
CONTINUOUS
10
5.7447
20
-3.40524
11
5.72951
21
-3.38588
0
LINE
8
BLACK
6
CONTINUOUS
10
5.72951
20
-3.38588
11
5.71554
21
-3.36562
0
LINE
8
BLACK
6
CONTINUOUS
10
5.71554
20
-3.36562
11
5.70285
21
-3.34453
0
LINE
8
BLACK
6
CONTINUOUS
10
5.70285
20
-3.34453
11
5.69149
21
-3.32269
0
LINE
8
BLACK
6
CONTINUOUS
10
5.69149
20
-3.32269
11
5.6815
21
-3.3002
0
LINE
8
BLACK
6
CONTINUOUS
10
5.6815
20
-3.3002
11
5.67291
21
-3.27713
0
LINE
8
BLACK
6
CONTINUOUS
10
5.67291
20
-3.27713
11
5.66578
21
-3.25358
0
LINE
8
BLACK
6
CONTINUOUS
10
5.66578
20
-3.25358
11
5.66011
21
-3.22962
0
LINE
8
BLACK
6
CONTINUOUS
10
5.66011
20
-3.22962
11
5.65593
21
-3.20537
0
LINE
8
BLACK
6
CONTINUOUS
10
5.65593
20
-3.20537
11
5.65326
21
-3.1809
0
LINE
8
BLACK
6
CONTINUOUS
10
5.65326
20
-3.1809
11
5.65211
21
-3.15632
0
LINE
8
BLACK
6
CONTINUOUS
10
5.65211
20
-3.15632
11
5.65248
21
-3.1317
0
LINE
8
BLACK
6
CONTINUOUS
10
5.65248
20
-3.1317
11
5.65437
21
-3.10716
0
LINE
8
BLACK
6
CONTINUOUS
10
5.65437
20
-3.10716
11
5.65778
21
-3.08279
0
LINE
8
BLACK
6
CONTINUOUS
10
5.65778
20
-3.08279
11
5.66268
21
-3.05867
0
LINE
8
BLACK
6
CONTINUOUS
10
5.66268
20
-3.05867
11
5.66907
21
-3.0349
0
LINE
8
BLACK
6
CONTINUOUS
10
5.66907
20
-3.0349
11
5.67691
21
-3.01157
0
LINE
8
BLACK
6
CONTINUOUS
10
5.67691
20
-3.01157
11
5.68619
21
-2.98877
0
LINE
8
BLACK
6
CONTINUOUS
10
5.68619
20
-2.98877
11
5.69685
21
-2.96659
0
LINE
8
BLACK
6
CONTINUOUS
10
5.69685
20
-2.96659
11
5.70886
21
-2.94511
0
LINE
8
BLACK
6
CONTINUOUS
10
5.70886
20
-2.94511
11
5.72218
21
-2.92441
0
LINE
8
BLACK
6
CONTINUOUS
10
5.72218
20
-2.92441
11
5.73676
21
-2.90457
0
LINE
8
BLACK
6
CONTINUOUS
10
5.73676
20
-2.90457
11
5.75253
21
-2.88568
0
LINE
8
BLACK
6
CONTINUOUS
10
5.75253
20
-2.88568
11
5.76944
21
-2.86779
0
LINE
8
BLACK
6
CONTINUOUS
10
5.76944
20
-2.86779
11
5.78742
21
-2.85099
0
LINE
8
BLACK
6
CONTINUOUS
10
5.78742
20
-2.85099
11
5.80641
21
-2.83533
0
LINE
8
BLACK
6
CONTINUOUS
10
5.80641
20
-2.83533
11
5.82633
21
-2.82087
0
LINE
8
BLACK
6
CONTINUOUS
10
5.82633
20
-2.82087
11
5.8471
21
-2.80767
0
LINE
8
BLACK
6
CONTINUOUS
10
5.8471
20
-2.80767
11
5.86865
21
-2.79578
0
LINE
8
BLACK
6
CONTINUOUS
10
5.86865
20
-2.79578
11
5.8909
21
-2.78525
0
LINE
8
BLACK
6
CONTINUOUS
10
5.8909
20
-2.78525
11
5.91375
21
-2.77611
0
LINE
8
BLACK
6
CONTINUOUS
10
5.91375
20
-2.77611
11
5.93713
21
-2.7684
0
LINE
8
BLACK
6
CONTINUOUS
10
5.93713
20
-2.7684
11
5.96094
21
-2.76216
0
LINE
8
BLACK
6
CONTINUOUS
10
5.96094
20
-2.76216
11
5.98508
21
-2.75739
0
LINE
8
BLACK
6
CONTINUOUS
10
5.98508
20
-2.75739
11
6.00948
21
-2.75413
0
LINE
8
BLACK
6
CONTINUOUS
10
6.00948
20
-2.75413
11
6.03403
21
-2.75238
0
LINE
8
BLACK
6
CONTINUOUS
10
6.03403
20
-2.75238
11
6.05864
21
-2.75215
0
LINE
8
BLACK
6
CONTINUOUS
10
6.05864
20
-2.75215
11
6.08322
21
-2.75345
0
LINE
8
BLACK
6
CONTINUOUS
10
6.08322
20
-2.75345
11
6.10767
21
-2.75626
0
LINE
8
BLACK
6
CONTINUOUS
10
6.10767
20
-2.75626
11
6.1319
21
-2.76058
0
LINE
8
BLACK
6
CONTINUOUS
10
6.1319
20
-2.76058
11
6.15582
21
-2.76639
0
LINE
8
BLACK
6
CONTINUOUS
10
6.15582
20
-2.76639
11
6.17933
21
-2.77366
0
LINE
8
BLACK
6
CONTINUOUS
10
6.17933
20
-2.77366
11
6.20235
21
-2.78238
0
LINE
8
BLACK
6
CONTINUOUS
10
6.20235
20
-2.78238
11
6.22479
21
-2.7925
0
LINE
8
BLACK
6
CONTINUOUS
10
6.22479
20
-2.7925
11
6.24655
21
-2.80399
0
LINE
8
BLACK
6
CONTINUOUS
10
6.24655
20
-2.80399
11
6.26757
21
-2.8168
0
LINE
8
BLACK
6
CONTINUOUS
10
6.26757
20
-2.8168
11
6.28775
21
-2.83089
0
LINE
8
BLACK
6
CONTINUOUS
10
6.28775
20
-2.83089
11
6.30702
21
-2.8462
0
LINE
8
BLACK
6
CONTINUOUS
10
6.30702
20
-2.8462
11
6.32531
21
-2.86267
0
LINE
8
BLACK
6
CONTINUOUS
10
6.32531
20
-2.86267
11
6.34255
21
-2.88024
0
LINE
8
BLACK
6
CONTINUOUS
10
6.34255
20
-2.88024
11
6.35867
21
-2.89884
0
LINE
8
BLACK
6
CONTINUOUS
10
6.35867
20
-2.89884
11
6.3736
21
-2.91841
0
LINE
8
BLACK
6
CONTINUOUS
10
6.3736
20
-2.91841
11
6.3873
21
-2.93885
0
LINE
8
BLACK
6
CONTINUOUS
10
6.3873
20
-2.93885
11
6.39971
21
-2.96011
0
LINE
8
BLACK
6
CONTINUOUS
10
6.39971
20
-2.96011
11
6.41078
21
-2.98209
0
LINE
8
BLACK
6
CONTINUOUS
10
6.41078
20
-2.98209
11
6.42047
21
-3.00472
0
LINE
8
BLACK
6
CONTINUOUS
10
6.42047
20
-3.00472
11
6.42874
21
-3.0279
0
LINE
8
BLACK
6
CONTINUOUS
10
6.42874
20
-3.0279
11
6.43514
21
-3.05006
0
LINE
8
BLACK
6
CONTINUOUS
10
6.43514
20
-3.05006
11
6.73031
21
-3.04951
0
LINE
8
BLACK
6
CONTINUOUS
10
6.73031
20
-3.04951
11
6.73031
21
-3.0315
0
LINE
8
BLACK
6
CONTINUOUS
10
6.73031
20
-3.0315
11
6.73089
21
-3.0301
0
LINE
8
BLACK
6
CONTINUOUS
10
6.73089
20
-3.0301
11
6.73228
21
-3.02953
0
LINE
8
BLACK
6
CONTINUOUS
10
6.73228
20
-3.02953
11
8.02165
21
-3.02953
0
LINE
8
BLACK
6
CONTINUOUS
10
8.02165
20
-3.02953
11
8.02305
21
-3.0301
0
LINE
8
BLACK
6
CONTINUOUS
10
8.02305
20
-3.0301
11
8.02362
21
-3.0315
0
LINE
8
BLACK
6
CONTINUOUS
10
7.62598
20
-3.11024
11
7.62656
21
-3.10884
0
LINE
8
BLACK
6
CONTINUOUS
10
7.62656
20
-3.10884
11
7.62795
21
-3.10827
0
LINE
8
BLACK
6
CONTINUOUS
10
7.62795
20
-3.10827
11
7.68701
21
-3.10827
0
LINE
8
BLACK
6
CONTINUOUS
10
7.68701
20
-3.10827
11
7.6884
21
-3.10884
0
LINE
8
BLACK
6
CONTINUOUS
10
7.6884
20
-3.10884
11
7.68898
21
-3.11024
0
LINE
8
BLACK
6
CONTINUOUS
10
7.68898
20
-3.11024
11
7.68898
21
-3.26575
0
LINE
8
BLACK
6
CONTINUOUS
10
7.68898
20
-3.26575
11
7.88189
21
-3.26575
0
LINE
8
BLACK
6
CONTINUOUS
10
7.88189
20
-3.26575
11
7.88189
21
-3.11024
0
LINE
8
BLACK
6
CONTINUOUS
10
7.88189
20
-3.11024
11
7.88247
21
-3.10884
0
LINE
8
BLACK
6
CONTINUOUS
10
7.88247
20
-3.10884
11
7.88386
21
-3.10827
0
LINE
8
BLACK
6
CONTINUOUS
10
7.88386
20
-3.10827
11
8.01969
21
-3.10827
0
LINE
8
BLACK
6
CONTINUOUS
10
8.01969
20
-3.10827
11
8.01969
21
-3.03346
0
LINE
8
BLACK
6
CONTINUOUS
10
8.01969
20
-3.03346
11
6.73425
21
-3.03346
0
LINE
8
BLACK
6
CONTINUOUS
10
6.73425
20
-3.03346
11
6.73425
21
-3.05147
0
LINE
8
BLACK
6
CONTINUOUS
10
6.73425
20
-3.05147
11
6.73396
21
-3.05216
0
LINE
8
BLACK
6
CONTINUOUS
10
6.73396
20
-3.05216
11
6.73368
21
-3.05286
0
LINE
8
BLACK
6
CONTINUOUS
10
6.73368
20
-3.05286
11
6.73368
21
-3.05286
0
LINE
8
BLACK
6
CONTINUOUS
10
6.73368
20
-3.05286
11
6.73368
21
-3.05286
0
LINE
8
BLACK
6
CONTINUOUS
10
6.73368
20
-3.05286
11
6.73298
21
-3.05315
0
LINE
8
BLACK
6
CONTINUOUS
10
6.73298
20
-3.05315
11
6.73229
21
-3.05344
0
LINE
8
BLACK
6
CONTINUOUS
10
6.73229
20
-3.05344
11
6.43366
21
-3.054
0
LINE
8
BLACK
6
CONTINUOUS
10
6.43366
20
-3.054
11
6.43318
21
-3.0538
0
LINE
8
BLACK
6
CONTINUOUS
10
6.43318
20
-3.0538
11
6.43266
21
-3.05373
0
LINE
8
BLACK
6
CONTINUOUS
10
6.43266
20
-3.05373
11
6.43251
21
-3.05353
0
LINE
8
BLACK
6
CONTINUOUS
10
6.43251
20
-3.05353
11
6.43227
21
-3.05343
0
LINE
8
BLACK
6
CONTINUOUS
10
6.43227
20
-3.05343
11
6.43207
21
-3.05294
0
LINE
8
BLACK
6
CONTINUOUS
10
6.43207
20
-3.05294
11
6.43175
21
-3.05252
0
LINE
8
BLACK
6
CONTINUOUS
10
6.43175
20
-3.05252
11
6.43179
21
-3.05227
0
LINE
8
BLACK
6
CONTINUOUS
10
6.43179
20
-3.05227
11
6.43169
21
-3.05204
0
LINE
8
BLACK
6
CONTINUOUS
10
6.43169
20
-3.05204
11
6.43177
21
-3.05186
0
LINE
8
BLACK
6
CONTINUOUS
10
6.43177
20
-3.05186
11
6.42507
21
-3.02871
0
LINE
8
BLACK
6
CONTINUOUS
10
6.42507
20
-3.02871
11
6.41673
21
-3.00543
0
LINE
8
BLACK
6
CONTINUOUS
10
6.41673
20
-3.00543
11
6.40694
21
-2.98271
0
LINE
8
BLACK
6
CONTINUOUS
10
6.40694
20
-2.98271
11
6.39575
21
-2.96066
0
LINE
8
BLACK
6
CONTINUOUS
10
6.39575
20
-2.96066
11
6.38319
21
-2.93934
0
LINE
8
BLACK
6
CONTINUOUS
10
6.38319
20
-2.93934
11
6.36932
21
-2.91886
0
LINE
8
BLACK
6
CONTINUOUS
10
6.36932
20
-2.91886
11
6.3542
21
-2.89929
0
LINE
8
BLACK
6
CONTINUOUS
10
6.3542
20
-2.89929
11
6.33788
21
-2.88071
0
LINE
8
BLACK
6
CONTINUOUS
10
6.33788
20
-2.88071
11
6.32042
21
-2.86318
0
LINE
8
BLACK
6
CONTINUOUS
10
6.32042
20
-2.86318
11
6.3019
21
-2.84679
0
LINE
8
BLACK
6
CONTINUOUS
10
6.3019
20
-2.84679
11
6.28239
21
-2.83159
0
LINE
8
BLACK
6
CONTINUOUS
10
6.28239
20
-2.83159
11
6.26196
21
-2.81764
0
LINE
8
BLACK
6
CONTINUOUS
10
6.26196
20
-2.81764
11
6.2407
21
-2.805
0
LINE
8
BLACK
6
CONTINUOUS
10
6.2407
20
-2.805
11
6.21869
21
-2.79372
0
LINE
8
BLACK
6
CONTINUOUS
10
6.21869
20
-2.79372
11
6.19601
21
-2.78384
0
LINE
8
BLACK
6
CONTINUOUS
10
6.19601
20
-2.78384
11
6.17276
21
-2.7754
0
LINE
8
BLACK
6
CONTINUOUS
10
6.17276
20
-2.7754
11
6.14902
21
-2.76844
0
LINE
8
BLACK
6
CONTINUOUS
10
6.14902
20
-2.76844
11
6.1249
21
-2.76298
0
LINE
8
BLACK
6
CONTINUOUS
10
6.1249
20
-2.76298
11
6.10048
21
-2.75905
0
LINE
8
BLACK
6
CONTINUOUS
10
6.10048
20
-2.75905
11
6.07586
21
-2.75665
0
LINE
8
BLACK
6
CONTINUOUS
10
6.07586
20
-2.75665
11
6.05114
21
-2.7558
0
LINE
8
BLACK
6
CONTINUOUS
10
6.05114
20
-2.7558
11
6.02641
21
-2.75651
0
LINE
8
BLACK
6
CONTINUOUS
10
6.02641
20
-2.75651
11
6.00178
21
-2.75876
0
LINE
8
BLACK
6
CONTINUOUS
10
6.00178
20
-2.75876
11
5.97734
21
-2.76256
0
LINE
8
BLACK
6
CONTINUOUS
10
5.97734
20
-2.76256
11
5.95318
21
-2.76788
0
LINE
8
BLACK
6
CONTINUOUS
10
5.95318
20
-2.76788
11
5.92941
21
-2.7747
0
LINE
8
BLACK
6
CONTINUOUS
10
5.92941
20
-2.7747
11
5.90611
21
-2.783
0
LINE
8
BLACK
6
CONTINUOUS
10
5.90611
20
-2.783
11
5.88338
21
-2.79275
0
LINE
8
BLACK
6
CONTINUOUS
10
5.88338
20
-2.79275
11
5.8613
21
-2.8039
0
LINE
8
BLACK
6
CONTINUOUS
10
5.8613
20
-2.8039
11
5.83996
21
-2.81642
0
LINE
8
BLACK
6
CONTINUOUS
10
5.83996
20
-2.81642
11
5.81946
21
-2.83025
0
LINE
8
BLACK
6
CONTINUOUS
10
5.81946
20
-2.83025
11
5.79986
21
-2.84534
0
LINE
8
BLACK
6
CONTINUOUS
10
5.79986
20
-2.84534
11
5.78124
21
-2.86162
0
LINE
8
BLACK
6
CONTINUOUS
10
5.78124
20
-2.86162
11
5.76369
21
-2.87905
0
LINE
8
BLACK
6
CONTINUOUS
10
5.76369
20
-2.87905
11
5.74726
21
-2.89754
0
LINE
8
BLACK
6
CONTINUOUS
10
5.74726
20
-2.89754
11
5.73202
21
-2.91702
0
LINE
8
BLACK
6
CONTINUOUS
10
5.73202
20
-2.91702
11
5.71803
21
-2.93742
0
LINE
8
BLACK
6
CONTINUOUS
10
5.71803
20
-2.93742
11
5.70535
21
-2.95866
0
LINE
8
BLACK
6
CONTINUOUS
10
5.70535
20
-2.95866
11
5.69403
21
-2.98065
0
LINE
8
BLACK
6
CONTINUOUS
10
5.69403
20
-2.98065
11
5.68411
21
-3.00331
0
LINE
8
BLACK
6
CONTINUOUS
10
5.68411
20
-3.00331
11
5.67563
21
-3.02655
0
LINE
8
BLACK
6
CONTINUOUS
10
5.67563
20
-3.02655
11
5.66863
21
-3.05027
0
LINE
8
BLACK
6
CONTINUOUS
10
5.66863
20
-3.05027
11
5.66312
21
-3.07438
0
LINE
8
BLACK
6
CONTINUOUS
10
5.66312
20
-3.07438
11
5.65914
21
-3.0988
0
LINE
8
BLACK
6
CONTINUOUS
10
5.65914
20
-3.0988
11
5.6567
21
-3.12341
0
LINE
8
BLACK
6
CONTINUOUS
10
5.6567
20
-3.12341
11
5.65581
21
-3.14813
0
LINE
8
BLACK
6
CONTINUOUS
10
5.65581
20
-3.14813
11
5.65647
21
-3.17285
0
LINE
8
BLACK
6
CONTINUOUS
10
5.65647
20
-3.17285
11
5.65867
21
-3.19749
0
LINE
8
BLACK
6
CONTINUOUS
10
5.65867
20
-3.19749
11
5.66242
21
-3.22194
0
LINE
8
BLACK
6
CONTINUOUS
10
5.66242
20
-3.22194
11
5.6677
21
-3.2461
0
LINE
8
BLACK
6
CONTINUOUS
10
5.6677
20
-3.2461
11
5.67448
21
-3.26989
0
LINE
8
BLACK
6
CONTINUOUS
10
5.67448
20
-3.26989
11
5.68274
21
-3.29321
0
LINE
8
BLACK
6
CONTINUOUS
10
5.68274
20
-3.29321
11
5.69244
21
-3.31596
0
LINE
8
BLACK
6
CONTINUOUS
10
5.69244
20
-3.31596
11
5.70355
21
-3.33806
0
LINE
8
BLACK
6
CONTINUOUS
10
5.70355
20
-3.33806
11
5.71603
21
-3.35941
0
LINE
8
BLACK
6
CONTINUOUS
10
5.71603
20
-3.35941
11
5.72982
21
-3.37995
0
LINE
8
BLACK
6
CONTINUOUS
10
5.72982
20
-3.37995
11
5.74487
21
-3.39958
0
LINE
8
BLACK
6
CONTINUOUS
10
5.74487
20
-3.39958
11
5.76112
21
-3.41822
0
LINE
8
BLACK
6
CONTINUOUS
10
5.76112
20
-3.41822
11
5.77852
21
-3.43581
0
LINE
8
BLACK
6
CONTINUOUS
10
5.77852
20
-3.43581
11
5.79697
21
-3.45227
0
LINE
8
BLACK
6
CONTINUOUS
10
5.79697
20
-3.45227
11
5.81643
21
-3.46755
0
LINE
8
BLACK
6
CONTINUOUS
10
5.81643
20
-3.46755
11
5.83681
21
-3.48157
0
LINE
8
BLACK
6
CONTINUOUS
10
5.83681
20
-3.48157
11
5.85802
21
-3.49429
0
LINE
8
BLACK
6
CONTINUOUS
10
5.85802
20
-3.49429
11
5.87999
21
-3.50565
0
LINE
8
BLACK
6
CONTINUOUS
10
5.87999
20
-3.50565
11
5.90263
21
-3.51561
0
LINE
8
BLACK
6
CONTINUOUS
10
5.90263
20
-3.51561
11
5.92585
21
-3.52414
0
LINE
8
BLACK
6
CONTINUOUS
10
5.92585
20
-3.52414
11
5.94956
21
-3.53119
0
LINE
8
BLACK
6
CONTINUOUS
10
5.94956
20
-3.53119
11
5.97366
21
-3.53673
0
LINE
8
BLACK
6
CONTINUOUS
10
5.97366
20
-3.53673
11
5.99764
21
-3.54069
0
LINE
8
BLACK
6
CONTINUOUS
10
5.99764
20
-3.54069
11
5.99809
21
-3.54057
0
LINE
8
BLACK
6
CONTINUOUS
10
5.99809
20
-3.54057
11
5.99826
21
-3.54067
0
LINE
8
BLACK
6
CONTINUOUS
10
5.99826
20
-3.54067
11
5.99846
21
-3.54065
0
LINE
8
BLACK
6
CONTINUOUS
10
5.99846
20
-3.54065
11
5.9989
21
-3.54103
0
LINE
8
BLACK
6
CONTINUOUS
10
5.9989
20
-3.54103
11
5.9994
21
-3.54132
0
LINE
8
BLACK
6
CONTINUOUS
10
5.9994
20
-3.54132
11
5.99945
21
-3.54151
0
LINE
8
BLACK
6
CONTINUOUS
10
5.99945
20
-3.54151
11
5.9996
21
-3.54164
0
LINE
8
BLACK
6
CONTINUOUS
10
5.9996
20
-3.54164
11
6.04783
21
-3.63812
0
LINE
8
BLACK
6
CONTINUOUS
10
6.04783
20
-3.63812
11
6.09607
21
-3.54164
0
LINE
8
BLACK
6
CONTINUOUS
10
6.09607
20
-3.54164
11
6.09721
21
-3.54065
0
LINE
8
BLACK
6
CONTINUOUS
10
6.09721
20
-3.54065
11
6.09871
21
-3.54076
0
LINE
8
BLACK
6
CONTINUOUS
10
6.09871
20
-3.54076
11
6.09901
21
-3.5411
0
LINE
8
BLACK
6
CONTINUOUS
10
6.09901
20
-3.5411
11
6.12105
21
-3.53774
0
LINE
8
BLACK
6
CONTINUOUS
10
6.12105
20
-3.53774
11
6.14416
21
-3.53278
0
LINE
8
BLACK
6
CONTINUOUS
10
6.14416
20
-3.53278
11
6.16693
21
-3.52645
0
LINE
8
BLACK
6
CONTINUOUS
10
6.16693
20
-3.52645
11
6.18929
21
-3.51877
0
LINE
8
BLACK
6
CONTINUOUS
10
6.18929
20
-3.51877
11
6.21114
21
-3.50976
0
LINE
8
BLACK
6
CONTINUOUS
10
6.21114
20
-3.50976
11
6.23241
21
-3.49945
0
LINE
8
BLACK
6
CONTINUOUS
10
6.23241
20
-3.49945
11
6.25302
21
-3.48789
0
LINE
8
BLACK
6
CONTINUOUS
10
6.25302
20
-3.48789
11
6.27291
21
-3.47512
0
LINE
8
BLACK
6
CONTINUOUS
10
6.27291
20
-3.47512
11
6.29199
21
-3.46117
0
LINE
8
BLACK
6
CONTINUOUS
10
6.29199
20
-3.46117
11
6.31021
21
-3.44611
0
LINE
8
BLACK
6
CONTINUOUS
10
6.31021
20
-3.44611
11
6.32749
21
-3.42998
0
LINE
8
BLACK
6
CONTINUOUS
10
6.32749
20
-3.42998
11
6.34377
21
-3.41285
0
LINE
8
BLACK
6
CONTINUOUS
10
6.34377
20
-3.41285
11
6.35899
21
-3.39477
0
LINE
8
BLACK
6
CONTINUOUS
10
6.35899
20
-3.39477
11
6.37311
21
-3.37581
0
LINE
8
BLACK
6
CONTINUOUS
10
6.37311
20
-3.37581
11
6.38606
21
-3.35604
0
LINE
8
BLACK
6
CONTINUOUS
10
6.38606
20
-3.35604
11
6.3978
21
-3.33553
0
LINE
8
BLACK
6
CONTINUOUS
10
6.3978
20
-3.33553
11
6.4083
21
-3.31435
0
LINE
8
BLACK
6
CONTINUOUS
10
6.4083
20
-3.31435
11
6.4175
21
-3.29258
0
LINE
8
BLACK
6
CONTINUOUS
10
6.4175
20
-3.29258
11
6.42539
21
-3.2703
0
LINE
8
BLACK
6
CONTINUOUS
10
6.42539
20
-3.2703
11
6.43175
21
-3.24819
0
LINE
8
BLACK
6
CONTINUOUS
10
6.43175
20
-3.24819
11
6.43169
21
-3.24804
0
LINE
8
BLACK
6
CONTINUOUS
10
6.43169
20
-3.24804
11
6.43179
21
-3.2478
0
LINE
8
BLACK
6
CONTINUOUS
10
6.43179
20
-3.2478
11
6.43175
21
-3.24754
0
LINE
8
BLACK
6
CONTINUOUS
10
6.43175
20
-3.24754
11
6.43206
21
-3.24713
0
LINE
8
BLACK
6
CONTINUOUS
10
6.43206
20
-3.24713
11
6.43226
21
-3.24665
0
LINE
8
BLACK
6
CONTINUOUS
10
6.43226
20
-3.24665
11
6.4325
21
-3.24655
0
LINE
8
BLACK
6
CONTINUOUS
10
6.4325
20
-3.24655
11
6.43266
21
-3.24634
0
LINE
8
BLACK
6
CONTINUOUS
10
6.43266
20
-3.24634
11
6.43317
21
-3.24626
0
LINE
8
BLACK
6
CONTINUOUS
10
6.43317
20
-3.24626
11
6.43365
21
-3.24606
0
LINE
8
BLACK
6
CONTINUOUS
10
6.43365
20
-3.24606
11
6.72243
21
-3.24421
0
LINE
8
BLACK
6
CONTINUOUS
10
6.72243
20
-3.24421
11
6.72243
21
-3.24421
0
LINE
8
BLACK
6
CONTINUOUS
10
6.72243
20
-3.24421
11
6.72244
21
-3.24421
0
LINE
8
BLACK
6
CONTINUOUS
10
6.72244
20
-3.24421
11
6.72313
21
-3.24449
0
LINE
8
BLACK
6
CONTINUOUS
10
6.72313
20
-3.24449
11
6.72382
21
-3.24478
0
LINE
8
BLACK
6
CONTINUOUS
10
6.72382
20
-3.24478
11
6.72383
21
-3.24478
0
LINE
8
BLACK
6
CONTINUOUS
10
6.72383
20
-3.24478
11
6.72383
21
-3.24478
0
LINE
8
BLACK
6
CONTINUOUS
10
6.72383
20
-3.24478
11
6.72412
21
-3.24548
0
LINE
8
BLACK
6
CONTINUOUS
10
6.72412
20
-3.24548
11
6.72441
21
-3.24616
0
LINE
8
BLACK
6
CONTINUOUS
10
6.72441
20
-3.24616
11
6.72441
21
-3.24617
0
LINE
8
BLACK
6
CONTINUOUS
10
6.72441
20
-3.24617
11
6.72441
21
-3.24618
0
LINE
8
BLACK
6
CONTINUOUS
10
6.72441
20
-3.24618
11
6.72441
21
-3.26575
0
LINE
8
BLACK
6
CONTINUOUS
10
6.72441
20
-3.26575
11
7.62598
21
-3.26575
0
LINE
8
BLACK
6
CONTINUOUS
10
7.62598
20
-3.26575
11
7.62598
21
-3.11024
  0
ENDSEC
  0
EOF
