  0
SECTION
  2
HEADER
  9
$ANGBASE
  50
0.0
  9
$ANGDIR
  70
1
  9
$MEASUREMENT
  70
0
  0
ENDSEC
  0
SECTION
  2
TABLES
  0
TABLE
  2
LTYPE
  70
4
  0
LTYPE
  5
40F
  2
CONTINUOUS
  70
0
  3
Solid line
  72
65
  73
0
  40
0.0
  0
LTYPE
  5
410
  2
DASHDOT
 70
0
  3
Dash Dot ____ _ ____ _
 72
65
 73
4
 40
2.0
 49
1.25
 49
-0.25
 49
0.25
 49
-0.25
  0
LTYPE
  5
411
  2
DASHED
 70
0
  3
Dashed __ __ __ __ __
 72
65
 73
2
 40
0.75
 49
0.5
 49
-0.25
  0
LTYPE
  5
43B
  2
DOTTED
 70
0
  3
Dotted .  .  .  .
 72
65
 73
2
 40
0.2
 49
0.0
 49
-0.2
  0
ENDTAB
  0
TABLE
  2
STYLE
  70
4
  0
STYLE
  2
KICAD
  70
0
  40
0
  41
1
  42
1
  50
0
  71
0
  3
isocp.shx
  0
STYLE
  2
KICADB
  70
0
  40
0
  41
1
  42
1
  50
0
  71
0
  3
isocp.shx
  0
STYLE
  2
KICADI
  70
0
  40
0
  41
1
  42
1
  50
15
  71
0
  3
isocp.shx
  0
STYLE
  2
KICADBI
  70
0
  40
0
  41
1
  42
1
  50
15
  71
0
  3
isocp.shx
  0
ENDTAB
  0
TABLE
  2
LAYER
  70
1
  0
LAYER
  2
BLACK
  70
0
  62
7
  6
CONTINUOUS
  0
ENDTAB
  0
ENDSEC
  0
SECTION
  2
ENTITIES
0
LINE
8
BLACK
6
CONTINUOUS
10
7.90551
20
-3.0315
11
7.90551
21
-3.11024
0
LINE
8
BLACK
6
CONTINUOUS
10
7.90551
20
-3.11024
11
7.90494
21
-3.11163
0
LINE
8
BLACK
6
CONTINUOUS
10
7.90494
20
-3.11163
11
7.90354
21
-3.1122
0
LINE
8
BLACK
6
CONTINUOUS
10
7.90354
20
-3.1122
11
7.76772
21
-3.1122
0
LINE
8
BLACK
6
CONTINUOUS
10
7.76772
20
-3.1122
11
7.76772
21
-3.26772
0
LINE
8
BLACK
6
CONTINUOUS
10
7.76772
20
-3.26772
11
7.76714
21
-3.26911
0
LINE
8
BLACK
6
CONTINUOUS
10
7.76714
20
-3.26911
11
7.76575
21
-3.26969
0
LINE
8
BLACK
6
CONTINUOUS
10
7.76575
20
-3.26969
11
7.5689
21
-3.26969
0
LINE
8
BLACK
6
CONTINUOUS
10
7.5689
20
-3.26969
11
7.56751
21
-3.26911
0
LINE
8
BLACK
6
CONTINUOUS
10
7.56751
20
-3.26911
11
7.56693
21
-3.26772
0
LINE
8
BLACK
6
CONTINUOUS
10
7.56693
20
-3.26772
11
7.56693
21
-3.1122
0
LINE
8
BLACK
6
CONTINUOUS
10
7.56693
20
-3.1122
11
7.51181
21
-3.1122
0
LINE
8
BLACK
6
CONTINUOUS
10
7.51181
20
-3.1122
11
7.51181
21
-3.26772
0
LINE
8
BLACK
6
CONTINUOUS
10
7.51181
20
-3.26772
11
7.51123
21
-3.26911
0
LINE
8
BLACK
6
CONTINUOUS
10
7.51123
20
-3.26911
11
7.50984
21
-3.26969
0
LINE
8
BLACK
6
CONTINUOUS
10
7.50984
20
-3.26969
11
6.60433
21
-3.26969
0
LINE
8
BLACK
6
CONTINUOUS
10
6.60433
20
-3.26969
11
6.60294
21
-3.26911
0
LINE
8
BLACK
6
CONTINUOUS
10
6.60294
20
-3.26911
11
6.60236
21
-3.26772
0
LINE
8
BLACK
6
CONTINUOUS
10
6.60236
20
-3.26772
11
6.60236
21
-3.25
0
LINE
8
BLACK
6
CONTINUOUS
10
6.60236
20
-3.25
11
6.30719
21
-3.25
0
LINE
8
BLACK
6
CONTINUOUS
10
6.30719
20
-3.25
11
6.30102
21
-3.27145
0
LINE
8
BLACK
6
CONTINUOUS
10
6.30102
20
-3.27145
11
6.29306
21
-3.29394
0
LINE
8
BLACK
6
CONTINUOUS
10
6.29306
20
-3.29394
11
6.28376
21
-3.31592
0
LINE
8
BLACK
6
CONTINUOUS
10
6.28376
20
-3.31592
11
6.27317
21
-3.3373
0
LINE
8
BLACK
6
CONTINUOUS
10
6.27317
20
-3.3373
11
6.26131
21
-3.35801
0
LINE
8
BLACK
6
CONTINUOUS
10
6.26131
20
-3.35801
11
6.24824
21
-3.37797
0
LINE
8
BLACK
6
CONTINUOUS
10
6.24824
20
-3.37797
11
6.23399
21
-3.39711
0
LINE
8
BLACK
6
CONTINUOUS
10
6.23399
20
-3.39711
11
6.21862
21
-3.41536
0
LINE
8
BLACK
6
CONTINUOUS
10
6.21862
20
-3.41536
11
6.20218
21
-3.43266
0
LINE
8
BLACK
6
CONTINUOUS
10
6.20218
20
-3.43266
11
6.18474
21
-3.44894
0
LINE
8
BLACK
6
CONTINUOUS
10
6.18474
20
-3.44894
11
6.16635
21
-3.46414
0
LINE
8
BLACK
6
CONTINUOUS
10
6.16635
20
-3.46414
11
6.14708
21
-3.47822
0
LINE
8
BLACK
6
CONTINUOUS
10
6.14708
20
-3.47822
11
6.12701
21
-3.49112
0
LINE
8
BLACK
6
CONTINUOUS
10
6.12701
20
-3.49112
11
6.1062
21
-3.50279
0
LINE
8
BLACK
6
CONTINUOUS
10
6.1062
20
-3.50279
11
6.08472
21
-3.51319
0
LINE
8
BLACK
6
CONTINUOUS
10
6.08472
20
-3.51319
11
6.06266
21
-3.52229
0
LINE
8
BLACK
6
CONTINUOUS
10
6.06266
20
-3.52229
11
6.0401
21
-3.53004
0
LINE
8
BLACK
6
CONTINUOUS
10
6.0401
20
-3.53004
11
6.01711
21
-3.53644
0
LINE
8
BLACK
6
CONTINUOUS
10
6.01711
20
-3.53644
11
5.99378
21
-3.54144
0
LINE
8
BLACK
6
CONTINUOUS
10
5.99378
20
-3.54144
11
5.97125
21
-3.54487
0
LINE
8
BLACK
6
CONTINUOUS
10
5.97125
20
-3.54487
11
5.92164
21
-3.6434
0
LINE
8
BLACK
6
CONTINUOUS
10
5.92164
20
-3.6434
11
5.92117
21
-3.64381
0
LINE
8
BLACK
6
CONTINUOUS
10
5.92117
20
-3.64381
11
5.92076
21
-3.64428
0
LINE
8
BLACK
6
CONTINUOUS
10
5.92076
20
-3.64428
11
5.92061
21
-3.64429
0
LINE
8
BLACK
6
CONTINUOUS
10
5.92061
20
-3.64429
11
5.9205
21
-3.64439
0
LINE
8
BLACK
6
CONTINUOUS
10
5.9205
20
-3.64439
11
5.91988
21
-3.64434
0
LINE
8
BLACK
6
CONTINUOUS
10
5.91988
20
-3.64434
11
5.91926
21
-3.64439
0
LINE
8
BLACK
6
CONTINUOUS
10
5.91926
20
-3.64439
11
5.91915
21
-3.64429
0
LINE
8
BLACK
6
CONTINUOUS
10
5.91915
20
-3.64429
11
5.919
21
-3.64428
0
LINE
8
BLACK
6
CONTINUOUS
10
5.919
20
-3.64428
11
5.91859
21
-3.64381
0
LINE
8
BLACK
6
CONTINUOUS
10
5.91859
20
-3.64381
11
5.91812
21
-3.6434
0
LINE
8
BLACK
6
CONTINUOUS
10
5.91812
20
-3.6434
11
5.86857
21
-3.5443
0
LINE
8
BLACK
6
CONTINUOUS
10
5.86857
20
-3.5443
11
5.84534
21
-3.54048
0
LINE
8
BLACK
6
CONTINUOUS
10
5.84534
20
-3.54048
11
5.82134
21
-3.53499
0
LINE
8
BLACK
6
CONTINUOUS
10
5.82134
20
-3.53499
11
5.79774
21
-3.52802
0
LINE
8
BLACK
6
CONTINUOUS
10
5.79774
20
-3.52802
11
5.7746
21
-3.51962
0
LINE
8
BLACK
6
CONTINUOUS
10
5.7746
20
-3.51962
11
5.75203
21
-3.50979
0
LINE
8
BLACK
6
CONTINUOUS
10
5.75203
20
-3.50979
11
5.73012
21
-3.4986
0
LINE
8
BLACK
6
CONTINUOUS
10
5.73012
20
-3.4986
11
5.70893
21
-3.48606
0
LINE
8
BLACK
6
CONTINUOUS
10
5.70893
20
-3.48606
11
5.68857
21
-3.47225
0
LINE
8
BLACK
6
CONTINUOUS
10
5.68857
20
-3.47225
11
5.66909
21
-3.45719
0
LINE
8
BLACK
6
CONTINUOUS
10
5.66909
20
-3.45719
11
5.65058
21
-3.44097
0
LINE
8
BLACK
6
CONTINUOUS
10
5.65058
20
-3.44097
11
5.63311
21
-3.42363
0
LINE
8
BLACK
6
CONTINUOUS
10
5.63311
20
-3.42363
11
5.61675
21
-3.40524
0
LINE
8
BLACK
6
CONTINUOUS
10
5.61675
20
-3.40524
11
5.60155
21
-3.38588
0
LINE
8
BLACK
6
CONTINUOUS
10
5.60155
20
-3.38588
11
5.58759
21
-3.36562
0
LINE
8
BLACK
6
CONTINUOUS
10
5.58759
20
-3.36562
11
5.5749
21
-3.34453
0
LINE
8
BLACK
6
CONTINUOUS
10
5.5749
20
-3.34453
11
5.56353
21
-3.32269
0
LINE
8
BLACK
6
CONTINUOUS
10
5.56353
20
-3.32269
11
5.55354
21
-3.3002
0
LINE
8
BLACK
6
CONTINUOUS
10
5.55354
20
-3.3002
11
5.54496
21
-3.27713
0
LINE
8
BLACK
6
CONTINUOUS
10
5.54496
20
-3.27713
11
5.53782
21
-3.25358
0
LINE
8
BLACK
6
CONTINUOUS
10
5.53782
20
-3.25358
11
5.53216
21
-3.22962
0
LINE
8
BLACK
6
CONTINUOUS
10
5.53216
20
-3.22962
11
5.52798
21
-3.20537
0
LINE
8
BLACK
6
CONTINUOUS
10
5.52798
20
-3.20537
11
5.52531
21
-3.1809
0
LINE
8
BLACK
6
CONTINUOUS
10
5.52531
20
-3.1809
11
5.52416
21
-3.15632
0
LINE
8
BLACK
6
CONTINUOUS
10
5.52416
20
-3.15632
11
5.52453
21
-3.1317
0
LINE
8
BLACK
6
CONTINUOUS
10
5.52453
20
-3.1317
11
5.52642
21
-3.10716
0
LINE
8
BLACK
6
CONTINUOUS
10
5.52642
20
-3.10716
11
5.52982
21
-3.08279
0
LINE
8
BLACK
6
CONTINUOUS
10
5.52982
20
-3.08279
11
5.53473
21
-3.05867
0
LINE
8
BLACK
6
CONTINUOUS
10
5.53473
20
-3.05867
11
5.54112
21
-3.0349
0
LINE
8
BLACK
6
CONTINUOUS
10
5.54112
20
-3.0349
11
5.54896
21
-3.01157
0
LINE
8
BLACK
6
CONTINUOUS
10
5.54896
20
-3.01157
11
5.55823
21
-2.98877
0
LINE
8
BLACK
6
CONTINUOUS
10
5.55823
20
-2.98877
11
5.5689
21
-2.96659
0
LINE
8
BLACK
6
CONTINUOUS
10
5.5689
20
-2.96659
11
5.58091
21
-2.94511
0
LINE
8
BLACK
6
CONTINUOUS
10
5.58091
20
-2.94511
11
5.59423
21
-2.92441
0
LINE
8
BLACK
6
CONTINUOUS
10
5.59423
20
-2.92441
11
5.6088
21
-2.90457
0
LINE
8
BLACK
6
CONTINUOUS
10
5.6088
20
-2.90457
11
5.62458
21
-2.88568
0
LINE
8
BLACK
6
CONTINUOUS
10
5.62458
20
-2.88568
11
5.64149
21
-2.86779
0
LINE
8
BLACK
6
CONTINUOUS
10
5.64149
20
-2.86779
11
5.65947
21
-2.85099
0
LINE
8
BLACK
6
CONTINUOUS
10
5.65947
20
-2.85099
11
5.67846
21
-2.83533
0
LINE
8
BLACK
6
CONTINUOUS
10
5.67846
20
-2.83533
11
5.69838
21
-2.82087
0
LINE
8
BLACK
6
CONTINUOUS
10
5.69838
20
-2.82087
11
5.71915
21
-2.80767
0
LINE
8
BLACK
6
CONTINUOUS
10
5.71915
20
-2.80767
11
5.7407
21
-2.79578
0
LINE
8
BLACK
6
CONTINUOUS
10
5.7407
20
-2.79578
11
5.76295
21
-2.78525
0
LINE
8
BLACK
6
CONTINUOUS
10
5.76295
20
-2.78525
11
5.7858
21
-2.77611
0
LINE
8
BLACK
6
CONTINUOUS
10
5.7858
20
-2.77611
11
5.80918
21
-2.7684
0
LINE
8
BLACK
6
CONTINUOUS
10
5.80918
20
-2.7684
11
5.83298
21
-2.76216
0
LINE
8
BLACK
6
CONTINUOUS
10
5.83298
20
-2.76216
11
5.85713
21
-2.75739
0
LINE
8
BLACK
6
CONTINUOUS
10
5.85713
20
-2.75739
11
5.88153
21
-2.75413
0
LINE
8
BLACK
6
CONTINUOUS
10
5.88153
20
-2.75413
11
5.90608
21
-2.75238
0
LINE
8
BLACK
6
CONTINUOUS
10
5.90608
20
-2.75238
11
5.93069
21
-2.75215
0
LINE
8
BLACK
6
CONTINUOUS
10
5.93069
20
-2.75215
11
5.95527
21
-2.75345
0
LINE
8
BLACK
6
CONTINUOUS
10
5.95527
20
-2.75345
11
5.97972
21
-2.75626
0
LINE
8
BLACK
6
CONTINUOUS
10
5.97972
20
-2.75626
11
6.00395
21
-2.76058
0
LINE
8
BLACK
6
CONTINUOUS
10
6.00395
20
-2.76058
11
6.02787
21
-2.76639
0
LINE
8
BLACK
6
CONTINUOUS
10
6.02787
20
-2.76639
11
6.05138
21
-2.77366
0
LINE
8
BLACK
6
CONTINUOUS
10
6.05138
20
-2.77366
11
6.0744
21
-2.78238
0
LINE
8
BLACK
6
CONTINUOUS
10
6.0744
20
-2.78238
11
6.09684
21
-2.7925
0
LINE
8
BLACK
6
CONTINUOUS
10
6.09684
20
-2.7925
11
6.1186
21
-2.80399
0
LINE
8
BLACK
6
CONTINUOUS
10
6.1186
20
-2.80399
11
6.13962
21
-2.8168
0
LINE
8
BLACK
6
CONTINUOUS
10
6.13962
20
-2.8168
11
6.1598
21
-2.83089
0
LINE
8
BLACK
6
CONTINUOUS
10
6.1598
20
-2.83089
11
6.17907
21
-2.8462
0
LINE
8
BLACK
6
CONTINUOUS
10
6.17907
20
-2.8462
11
6.19736
21
-2.86267
0
LINE
8
BLACK
6
CONTINUOUS
10
6.19736
20
-2.86267
11
6.2146
21
-2.88024
0
LINE
8
BLACK
6
CONTINUOUS
10
6.2146
20
-2.88024
11
6.23072
21
-2.89884
0
LINE
8
BLACK
6
CONTINUOUS
10
6.23072
20
-2.89884
11
6.24565
21
-2.91841
0
LINE
8
BLACK
6
CONTINUOUS
10
6.24565
20
-2.91841
11
6.25935
21
-2.93885
0
LINE
8
BLACK
6
CONTINUOUS
10
6.25935
20
-2.93885
11
6.27176
21
-2.96011
0
LINE
8
BLACK
6
CONTINUOUS
10
6.27176
20
-2.96011
11
6.28283
21
-2.98209
0
LINE
8
BLACK
6
CONTINUOUS
10
6.28283
20
-2.98209
11
6.29252
21
-3.00472
0
LINE
8
BLACK
6
CONTINUOUS
10
6.29252
20
-3.00472
11
6.30079
21
-3.0279
0
LINE
8
BLACK
6
CONTINUOUS
10
6.30079
20
-3.0279
11
6.30719
21
-3.05006
0
LINE
8
BLACK
6
CONTINUOUS
10
6.30719
20
-3.05006
11
6.60236
21
-3.04951
0
LINE
8
BLACK
6
CONTINUOUS
10
6.60236
20
-3.04951
11
6.60236
21
-3.0315
0
LINE
8
BLACK
6
CONTINUOUS
10
6.60236
20
-3.0315
11
6.60294
21
-3.0301
0
LINE
8
BLACK
6
CONTINUOUS
10
6.60294
20
-3.0301
11
6.60433
21
-3.02953
0
LINE
8
BLACK
6
CONTINUOUS
10
6.60433
20
-3.02953
11
7.90354
21
-3.02953
0
LINE
8
BLACK
6
CONTINUOUS
10
7.90354
20
-3.02953
11
7.90494
21
-3.0301
0
LINE
8
BLACK
6
CONTINUOUS
10
7.90494
20
-3.0301
11
7.90551
21
-3.0315
0
LINE
8
BLACK
6
CONTINUOUS
10
6.6063
20
-3.24803
11
6.6063
21
-3.26575
0
LINE
8
BLACK
6
CONTINUOUS
10
6.6063
20
-3.26575
11
7.50787
21
-3.26575
0
LINE
8
BLACK
6
CONTINUOUS
10
7.50787
20
-3.26575
11
7.50787
21
-3.11024
0
LINE
8
BLACK
6
CONTINUOUS
10
7.50787
20
-3.11024
11
7.50845
21
-3.10884
0
LINE
8
BLACK
6
CONTINUOUS
10
7.50845
20
-3.10884
11
7.50984
21
-3.10827
0
LINE
8
BLACK
6
CONTINUOUS
10
7.50984
20
-3.10827
11
7.5689
21
-3.10827
0
LINE
8
BLACK
6
CONTINUOUS
10
7.5689
20
-3.10827
11
7.57029
21
-3.10884
0
LINE
8
BLACK
6
CONTINUOUS
10
7.57029
20
-3.10884
11
7.57087
21
-3.11024
0
LINE
8
BLACK
6
CONTINUOUS
10
7.57087
20
-3.11024
11
7.57087
21
-3.26575
0
LINE
8
BLACK
6
CONTINUOUS
10
7.57087
20
-3.26575
11
7.76378
21
-3.26575
0
LINE
8
BLACK
6
CONTINUOUS
10
7.76378
20
-3.26575
11
7.76378
21
-3.11024
0
LINE
8
BLACK
6
CONTINUOUS
10
7.76378
20
-3.11024
11
7.76436
21
-3.10884
0
LINE
8
BLACK
6
CONTINUOUS
10
7.76436
20
-3.10884
11
7.76575
21
-3.10827
0
LINE
8
BLACK
6
CONTINUOUS
10
7.76575
20
-3.10827
11
7.90157
21
-3.10827
0
LINE
8
BLACK
6
CONTINUOUS
10
7.90157
20
-3.10827
11
7.90157
21
-3.03346
0
LINE
8
BLACK
6
CONTINUOUS
10
7.90157
20
-3.03346
11
6.6063
21
-3.03346
0
LINE
8
BLACK
6
CONTINUOUS
10
6.6063
20
-3.03346
11
6.6063
21
-3.05147
0
LINE
8
BLACK
6
CONTINUOUS
10
6.6063
20
-3.05147
11
6.60601
21
-3.05216
0
LINE
8
BLACK
6
CONTINUOUS
10
6.60601
20
-3.05216
11
6.60573
21
-3.05286
0
LINE
8
BLACK
6
CONTINUOUS
10
6.60573
20
-3.05286
11
6.60572
21
-3.05286
0
LINE
8
BLACK
6
CONTINUOUS
10
6.60572
20
-3.05286
11
6.60572
21
-3.05286
0
LINE
8
BLACK
6
CONTINUOUS
10
6.60572
20
-3.05286
11
6.60503
21
-3.05315
0
LINE
8
BLACK
6
CONTINUOUS
10
6.60503
20
-3.05315
11
6.60433
21
-3.05344
0
LINE
8
BLACK
6
CONTINUOUS
10
6.60433
20
-3.05344
11
6.30571
21
-3.054
0
LINE
8
BLACK
6
CONTINUOUS
10
6.30571
20
-3.054
11
6.30523
21
-3.0538
0
LINE
8
BLACK
6
CONTINUOUS
10
6.30523
20
-3.0538
11
6.3047
21
-3.05373
0
LINE
8
BLACK
6
CONTINUOUS
10
6.3047
20
-3.05373
11
6.30455
21
-3.05353
0
LINE
8
BLACK
6
CONTINUOUS
10
6.30455
20
-3.05353
11
6.30432
21
-3.05343
0
LINE
8
BLACK
6
CONTINUOUS
10
6.30432
20
-3.05343
11
6.30412
21
-3.05294
0
LINE
8
BLACK
6
CONTINUOUS
10
6.30412
20
-3.05294
11
6.3038
21
-3.05252
0
LINE
8
BLACK
6
CONTINUOUS
10
6.3038
20
-3.05252
11
6.30384
21
-3.05227
0
LINE
8
BLACK
6
CONTINUOUS
10
6.30384
20
-3.05227
11
6.30374
21
-3.05204
0
LINE
8
BLACK
6
CONTINUOUS
10
6.30374
20
-3.05204
11
6.30381
21
-3.05186
0
LINE
8
BLACK
6
CONTINUOUS
10
6.30381
20
-3.05186
11
6.29712
21
-3.02871
0
LINE
8
BLACK
6
CONTINUOUS
10
6.29712
20
-3.02871
11
6.28878
21
-3.00543
0
LINE
8
BLACK
6
CONTINUOUS
10
6.28878
20
-3.00543
11
6.27899
21
-2.98271
0
LINE
8
BLACK
6
CONTINUOUS
10
6.27899
20
-2.98271
11
6.26779
21
-2.96066
0
LINE
8
BLACK
6
CONTINUOUS
10
6.26779
20
-2.96066
11
6.25524
21
-2.93934
0
LINE
8
BLACK
6
CONTINUOUS
10
6.25524
20
-2.93934
11
6.24137
21
-2.91886
0
LINE
8
BLACK
6
CONTINUOUS
10
6.24137
20
-2.91886
11
6.22625
21
-2.89929
0
LINE
8
BLACK
6
CONTINUOUS
10
6.22625
20
-2.89929
11
6.20992
21
-2.88071
0
LINE
8
BLACK
6
CONTINUOUS
10
6.20992
20
-2.88071
11
6.19247
21
-2.86318
0
LINE
8
BLACK
6
CONTINUOUS
10
6.19247
20
-2.86318
11
6.17395
21
-2.84679
0
LINE
8
BLACK
6
CONTINUOUS
10
6.17395
20
-2.84679
11
6.15443
21
-2.83159
0
LINE
8
BLACK
6
CONTINUOUS
10
6.15443
20
-2.83159
11
6.13401
21
-2.81764
0
LINE
8
BLACK
6
CONTINUOUS
10
6.13401
20
-2.81764
11
6.11275
21
-2.805
0
LINE
8
BLACK
6
CONTINUOUS
10
6.11275
20
-2.805
11
6.09073
21
-2.79372
0
LINE
8
BLACK
6
CONTINUOUS
10
6.09073
20
-2.79372
11
6.06806
21
-2.78384
0
LINE
8
BLACK
6
CONTINUOUS
10
6.06806
20
-2.78384
11
6.0448
21
-2.7754
0
LINE
8
BLACK
6
CONTINUOUS
10
6.0448
20
-2.7754
11
6.02107
21
-2.76844
0
LINE
8
BLACK
6
CONTINUOUS
10
6.02107
20
-2.76844
11
5.99694
21
-2.76298
0
LINE
8
BLACK
6
CONTINUOUS
10
5.99694
20
-2.76298
11
5.97253
21
-2.75905
0
LINE
8
BLACK
6
CONTINUOUS
10
5.97253
20
-2.75905
11
5.94791
21
-2.75665
0
LINE
8
BLACK
6
CONTINUOUS
10
5.94791
20
-2.75665
11
5.92319
21
-2.7558
0
LINE
8
BLACK
6
CONTINUOUS
10
5.92319
20
-2.7558
11
5.89846
21
-2.75651
0
LINE
8
BLACK
6
CONTINUOUS
10
5.89846
20
-2.75651
11
5.87383
21
-2.75876
0
LINE
8
BLACK
6
CONTINUOUS
10
5.87383
20
-2.75876
11
5.84939
21
-2.76256
0
LINE
8
BLACK
6
CONTINUOUS
10
5.84939
20
-2.76256
11
5.82523
21
-2.76788
0
LINE
8
BLACK
6
CONTINUOUS
10
5.82523
20
-2.76788
11
5.80146
21
-2.7747
0
LINE
8
BLACK
6
CONTINUOUS
10
5.80146
20
-2.7747
11
5.77816
21
-2.783
0
LINE
8
BLACK
6
CONTINUOUS
10
5.77816
20
-2.783
11
5.75542
21
-2.79275
0
LINE
8
BLACK
6
CONTINUOUS
10
5.75542
20
-2.79275
11
5.73335
21
-2.8039
0
LINE
8
BLACK
6
CONTINUOUS
10
5.73335
20
-2.8039
11
5.71201
21
-2.81642
0
LINE
8
BLACK
6
CONTINUOUS
10
5.71201
20
-2.81642
11
5.6915
21
-2.83025
0
LINE
8
BLACK
6
CONTINUOUS
10
5.6915
20
-2.83025
11
5.6719
21
-2.84534
0
LINE
8
BLACK
6
CONTINUOUS
10
5.6719
20
-2.84534
11
5.65329
21
-2.86162
0
LINE
8
BLACK
6
CONTINUOUS
10
5.65329
20
-2.86162
11
5.63573
21
-2.87905
0
LINE
8
BLACK
6
CONTINUOUS
10
5.63573
20
-2.87905
11
5.6193
21
-2.89754
0
LINE
8
BLACK
6
CONTINUOUS
10
5.6193
20
-2.89754
11
5.60407
21
-2.91702
0
LINE
8
BLACK
6
CONTINUOUS
10
5.60407
20
-2.91702
11
5.59008
21
-2.93742
0
LINE
8
BLACK
6
CONTINUOUS
10
5.59008
20
-2.93742
11
5.5774
21
-2.95866
0
LINE
8
BLACK
6
CONTINUOUS
10
5.5774
20
-2.95866
11
5.56608
21
-2.98065
0
LINE
8
BLACK
6
CONTINUOUS
10
5.56608
20
-2.98065
11
5.55616
21
-3.00331
0
LINE
8
BLACK
6
CONTINUOUS
10
5.55616
20
-3.00331
11
5.54768
21
-3.02655
0
LINE
8
BLACK
6
CONTINUOUS
10
5.54768
20
-3.02655
11
5.54068
21
-3.05027
0
LINE
8
BLACK
6
CONTINUOUS
10
5.54068
20
-3.05027
11
5.53517
21
-3.07438
0
LINE
8
BLACK
6
CONTINUOUS
10
5.53517
20
-3.07438
11
5.53119
21
-3.0988
0
LINE
8
BLACK
6
CONTINUOUS
10
5.53119
20
-3.0988
11
5.52875
21
-3.12341
0
LINE
8
BLACK
6
CONTINUOUS
10
5.52875
20
-3.12341
11
5.52785
21
-3.14813
0
LINE
8
BLACK
6
CONTINUOUS
10
5.52785
20
-3.14813
11
5.52851
21
-3.17285
0
LINE
8
BLACK
6
CONTINUOUS
10
5.52851
20
-3.17285
11
5.53072
21
-3.19749
0
LINE
8
BLACK
6
CONTINUOUS
10
5.53072
20
-3.19749
11
5.53447
21
-3.22194
0
LINE
8
BLACK
6
CONTINUOUS
10
5.53447
20
-3.22194
11
5.53974
21
-3.2461
0
LINE
8
BLACK
6
CONTINUOUS
10
5.53974
20
-3.2461
11
5.54652
21
-3.26989
0
LINE
8
BLACK
6
CONTINUOUS
10
5.54652
20
-3.26989
11
5.55478
21
-3.29321
0
LINE
8
BLACK
6
CONTINUOUS
10
5.55478
20
-3.29321
11
5.56449
21
-3.31596
0
LINE
8
BLACK
6
CONTINUOUS
10
5.56449
20
-3.31596
11
5.5756
21
-3.33806
0
LINE
8
BLACK
6
CONTINUOUS
10
5.5756
20
-3.33806
11
5.58808
21
-3.35941
0
LINE
8
BLACK
6
CONTINUOUS
10
5.58808
20
-3.35941
11
5.60187
21
-3.37995
0
LINE
8
BLACK
6
CONTINUOUS
10
5.60187
20
-3.37995
11
5.61692
21
-3.39958
0
LINE
8
BLACK
6
CONTINUOUS
10
5.61692
20
-3.39958
11
5.63317
21
-3.41822
0
LINE
8
BLACK
6
CONTINUOUS
10
5.63317
20
-3.41822
11
5.65056
21
-3.43581
0
LINE
8
BLACK
6
CONTINUOUS
10
5.65056
20
-3.43581
11
5.66902
21
-3.45227
0
LINE
8
BLACK
6
CONTINUOUS
10
5.66902
20
-3.45227
11
5.68848
21
-3.46755
0
LINE
8
BLACK
6
CONTINUOUS
10
5.68848
20
-3.46755
11
5.70885
21
-3.48157
0
LINE
8
BLACK
6
CONTINUOUS
10
5.70885
20
-3.48157
11
5.73007
21
-3.49429
0
LINE
8
BLACK
6
CONTINUOUS
10
5.73007
20
-3.49429
11
5.75204
21
-3.50565
0
LINE
8
BLACK
6
CONTINUOUS
10
5.75204
20
-3.50565
11
5.77468
21
-3.51561
0
LINE
8
BLACK
6
CONTINUOUS
10
5.77468
20
-3.51561
11
5.7979
21
-3.52414
0
LINE
8
BLACK
6
CONTINUOUS
10
5.7979
20
-3.52414
11
5.82161
21
-3.53119
0
LINE
8
BLACK
6
CONTINUOUS
10
5.82161
20
-3.53119
11
5.84571
21
-3.53673
0
LINE
8
BLACK
6
CONTINUOUS
10
5.84571
20
-3.53673
11
5.86968
21
-3.54069
0
LINE
8
BLACK
6
CONTINUOUS
10
5.86968
20
-3.54069
11
5.87014
21
-3.54057
0
LINE
8
BLACK
6
CONTINUOUS
10
5.87014
20
-3.54057
11
5.87031
21
-3.54067
0
LINE
8
BLACK
6
CONTINUOUS
10
5.87031
20
-3.54067
11
5.8705
21
-3.54065
0
LINE
8
BLACK
6
CONTINUOUS
10
5.8705
20
-3.54065
11
5.87094
21
-3.54103
0
LINE
8
BLACK
6
CONTINUOUS
10
5.87094
20
-3.54103
11
5.87145
21
-3.54132
0
LINE
8
BLACK
6
CONTINUOUS
10
5.87145
20
-3.54132
11
5.8715
21
-3.54151
0
LINE
8
BLACK
6
CONTINUOUS
10
5.8715
20
-3.54151
11
5.87164
21
-3.54164
0
LINE
8
BLACK
6
CONTINUOUS
10
5.87164
20
-3.54164
11
5.91989
21
-3.63813
0
LINE
8
BLACK
6
CONTINUOUS
10
5.91989
20
-3.63813
11
5.96819
21
-3.54219
0
LINE
8
BLACK
6
CONTINUOUS
10
5.96819
20
-3.54219
11
5.96835
21
-3.54206
0
LINE
8
BLACK
6
CONTINUOUS
10
5.96835
20
-3.54206
11
5.9684
21
-3.54187
0
LINE
8
BLACK
6
CONTINUOUS
10
5.9684
20
-3.54187
11
5.9689
21
-3.54158
0
LINE
8
BLACK
6
CONTINUOUS
10
5.9689
20
-3.54158
11
5.96933
21
-3.54121
0
LINE
8
BLACK
6
CONTINUOUS
10
5.96933
20
-3.54121
11
5.96954
21
-3.54123
0
LINE
8
BLACK
6
CONTINUOUS
10
5.96954
20
-3.54123
11
5.96971
21
-3.54113
0
LINE
8
BLACK
6
CONTINUOUS
10
5.96971
20
-3.54113
11
5.97013
21
-3.54124
0
LINE
8
BLACK
6
CONTINUOUS
10
5.97013
20
-3.54124
11
5.9931
21
-3.53774
0
LINE
8
BLACK
6
CONTINUOUS
10
5.9931
20
-3.53774
11
6.01621
21
-3.53278
0
LINE
8
BLACK
6
CONTINUOUS
10
6.01621
20
-3.53278
11
6.03898
21
-3.52645
0
LINE
8
BLACK
6
CONTINUOUS
10
6.03898
20
-3.52645
11
6.06133
21
-3.51877
0
LINE
8
BLACK
6
CONTINUOUS
10
6.06133
20
-3.51877
11
6.08318
21
-3.50976
0
LINE
8
BLACK
6
CONTINUOUS
10
6.08318
20
-3.50976
11
6.10445
21
-3.49945
0
LINE
8
BLACK
6
CONTINUOUS
10
6.10445
20
-3.49945
11
6.12507
21
-3.48789
0
LINE
8
BLACK
6
CONTINUOUS
10
6.12507
20
-3.48789
11
6.14496
21
-3.47512
0
LINE
8
BLACK
6
CONTINUOUS
10
6.14496
20
-3.47512
11
6.16404
21
-3.46117
0
LINE
8
BLACK
6
CONTINUOUS
10
6.16404
20
-3.46117
11
6.18226
21
-3.44611
0
LINE
8
BLACK
6
CONTINUOUS
10
6.18226
20
-3.44611
11
6.19953
21
-3.42998
0
LINE
8
BLACK
6
CONTINUOUS
10
6.19953
20
-3.42998
11
6.21582
21
-3.41285
0
LINE
8
BLACK
6
CONTINUOUS
10
6.21582
20
-3.41285
11
6.23104
21
-3.39477
0
LINE
8
BLACK
6
CONTINUOUS
10
6.23104
20
-3.39477
11
6.24515
21
-3.37581
0
LINE
8
BLACK
6
CONTINUOUS
10
6.24515
20
-3.37581
11
6.25811
21
-3.35604
0
LINE
8
BLACK
6
CONTINUOUS
10
6.25811
20
-3.35604
11
6.26985
21
-3.33553
0
LINE
8
BLACK
6
CONTINUOUS
10
6.26985
20
-3.33553
11
6.28035
21
-3.31435
0
LINE
8
BLACK
6
CONTINUOUS
10
6.28035
20
-3.31435
11
6.28955
21
-3.29258
0
LINE
8
BLACK
6
CONTINUOUS
10
6.28955
20
-3.29258
11
6.29744
21
-3.2703
0
LINE
8
BLACK
6
CONTINUOUS
10
6.29744
20
-3.2703
11
6.3038
21
-3.24818
0
LINE
8
BLACK
6
CONTINUOUS
10
6.3038
20
-3.24818
11
6.30374
21
-3.24803
0
LINE
8
BLACK
6
CONTINUOUS
10
6.30374
20
-3.24803
11
6.30384
21
-3.2478
0
LINE
8
BLACK
6
CONTINUOUS
10
6.30384
20
-3.2478
11
6.3038
21
-3.24754
0
LINE
8
BLACK
6
CONTINUOUS
10
6.3038
20
-3.24754
11
6.30412
21
-3.24712
0
LINE
8
BLACK
6
CONTINUOUS
10
6.30412
20
-3.24712
11
6.30432
21
-3.24664
0
LINE
8
BLACK
6
CONTINUOUS
10
6.30432
20
-3.24664
11
6.30455
21
-3.24654
0
LINE
8
BLACK
6
CONTINUOUS
10
6.30455
20
-3.24654
11
6.3047
21
-3.24634
0
LINE
8
BLACK
6
CONTINUOUS
10
6.3047
20
-3.24634
11
6.30522
21
-3.24626
0
LINE
8
BLACK
6
CONTINUOUS
10
6.30522
20
-3.24626
11
6.30571
21
-3.24606
0
LINE
8
BLACK
6
CONTINUOUS
10
6.30571
20
-3.24606
11
6.60433
21
-3.24606
0
LINE
8
BLACK
6
CONTINUOUS
10
6.60433
20
-3.24606
11
6.60572
21
-3.24664
0
LINE
8
BLACK
6
CONTINUOUS
10
6.60572
20
-3.24664
11
6.6063
21
-3.24803
  0
ENDSEC
  0
EOF
