<svg xmlns="http://www.w3.org/2000/svg" viewBox="0 0 66.95 24.74"><g id="Layer_2" data-name="Layer 2"><g id="Layer_1-2" data-name="Layer 1"><path d="M29.8,24.74A1.69,1.69,0,0,1,28.33,24a.91.91,0,0,1,.06-.95c.37-.57,2-1.85,9-1.28,23.4,1.91,27.75-.41,28.53-1.5a.66.66,0,0,0,.15-.6l0-.06s-.23-2.33-.26-3.53a72,72,0,0,1,.73-11.84A3.85,3.85,0,0,0,66.26,2a.56.56,0,0,0-.37-.24C46.74-1,37.93,1,29.42,3.05c-2.7.63-5.25,1.24-8.11,1.68C4.56,7.35.87,5.27.15,3.8A1.49,1.49,0,0,1,.46,2.07C3.34,0,7.09.88,10.73,1.73c2.85.67,5.54,1.3,7.71.55a.53.53,0,0,0-.2-.56,1.59,1.59,0,0,0-1.51-.26.32.32,0,0,0-.19.3l.15.11a.53.53,0,0,1,.21-.29.64.64,0,0,1,.77,0,.39.39,0,0,1,.19.38.57.57,0,0,1-.36.43A1.24,1.24,0,0,1,16.22,2l0-.05,0-.07a.73.73,0,0,1,.39-.79,1.94,1.94,0,0,1,2,.31.92.92,0,0,1,.27,1.09l0,.09-.09,0c-2.29.83-5.07.18-8-.51C7.09,1.29,3.42.43.71,2.38a1.07,1.07,0,0,0-.2,1.24c.54,1.11,3.63,3.4,20.74.72,2.84-.45,5.38-1,8.08-1.68C37.88.63,46.72-1.46,66,1.39a.93.93,0,0,1,.63.39,4.33,4.33,0,0,1,.3,2.55,71.72,71.72,0,0,0-.72,11.76c0,1.12.23,3.22.26,3.48a1.06,1.06,0,0,1-.18.93c-1,1.43-6.06,3.55-28.92,1.68-5.51-.45-8.06.28-8.6,1.11a.51.51,0,0,0,0,.54,1.28,1.28,0,0,0,1.11.51h0c1,0,1.08-.22,1.08-.22s0,0,0-.05a.58.58,0,0,1-.36.2.61.61,0,0,1-.66-.24c0-.07-.08-.27.17-.46a.85.85,0,0,1,1,.07.56.56,0,0,1,.28.6C31.16,24.58,30.68,24.74,29.8,24.74Zm.48-.86a.42.42,0,0,0,.22,0h0A.34.34,0,0,0,30.28,23.88ZM17.09,2a.72.72,0,0,0,.27,0c.08,0,.1-.08.1-.09a.26.26,0,0,0-.26,0,.33.33,0,0,0-.12.09Z"/><path d="M6.83,22.64c-3.95,0-5.6-.7-6.28-1.27A1.32,1.32,0,0,1,0,20.49v-.07a28.5,28.5,0,0,0,0-17l.38-.14a28.94,28.94,0,0,1,0,17.27,1.21,1.21,0,0,0,.45.59c1.07.84,4.53,2,15.73.22,7.21-1.14,12.56-2.19,16.87-3,9.63-1.88,14.46-2.83,24.48-1.86,7.94.76,8.46,2.74,8.49,3l-.39.06s-.5-1.9-8.14-2.63c-10-1-14.77,0-24.37,1.85-4.3.85-9.66,1.89-16.88,3A64.94,64.94,0,0,1,6.83,22.64Z"/><polygon points="16.26 2.84 16.15 1.89 16.55 1.84 16.66 2.79 16.26 2.84"/><polygon points="17.71 2.71 17.32 2.63 17.47 1.87 17.86 1.95 17.71 2.71"/><rect x="29.24" y="22.84" width="1.76" height="0.4" transform="translate(3.71 50.26) rotate(-83.27)"/><rect x="30.88" y="21.98" width="0.4" height="2.1"/><polygon points="28.64 23.44 28.26 23.31 29.54 19.34 29.92 19.46 28.64 23.44"/><rect x="17.03" y="3.5" width="2.58" height="0.4" transform="translate(10.9 20.86) rotate(-78.03)"/><path d="M5.88,11.28l1.9-.1,1.68,3.38L10.78,11l1.9-.1-2.89,7.6H9.56Zm6.2,0-.95.05L9.61,15.43H9.42l-2-3.91-1,.05L9.63,17.7Zm-5.37.41.67,0,0,.06-.66,0Zm.11.24.67,0,0,.06-.66,0Zm.12.23.68,0,0,.06-.66,0Zm.12.23.67,0,0,.06-.66,0Zm.12.24.67,0,0,.06-.66,0Zm.13.23.65,0,0,.06-.64,0Zm.11.24.67,0,0,.06-.66,0Zm.12.23.66,0,0,0-.65,0Zm.13.23.66,0,0,.06-.64,0Zm.11.24.66,0,0,.06-.65,0ZM7.9,14l.66,0,0,.06-.65,0Zm.12.24.65,0,0,.06-.64,0Zm.12.23.66,0,0,.06-.65,0Zm.11.23.66,0,0,.06-.65,0Zm.13.24.64,0,0,.06-.63,0Zm.12.23.64,0,0,.06-.62,0Zm.11.24.65,0,0,.06-.64,0Zm.13.23.63,0,0,0-.62,0Zm.11.23.65,0,0,.06-.64,0Zm.13.24.63,0,0,.06L9,16.2Zm.12.23.62,0,0,.06-.61,0Zm.73.2,0,.06-.61,0,0-.06Zm0,.24,0,.06-.42,0,0-.06Zm-.1.25,0,.06H9.5l0-.06Zm-.08.24,0,.05,0-.05Z"/><path d="M16.76,10.14a3.84,3.84,0,1,1,1,7.61,3.84,3.84,0,1,1-1-7.61Zm1,7.25a3.49,3.49,0,1,0-.94-6.92,3.49,3.49,0,1,0,.94,6.92Zm-3.9-3.49.67-.09v.06l-.67.09Zm0-.24.69-.1,0,.07-.67.09Zm0,.48.67-.09v.06l-.66.09Zm0,.24.67-.09v.06l-.67.09Zm0-1,.7-.09v.06l-.69.09Zm0,1.21.66-.09,0,.06-.66.09Zm0-1.46.74-.1,0,.07-.71.1Zm0,1.69.67-.09,0,.06-.68.09Zm0-1.94.77-.1,0,.06L14,13Zm0,2.18.68-.1,0,.06-.68.09Zm.05-2.43.84-.12,0,.07-.83.11Zm.13-.26.91-.12-.07.06-.89.13Zm.14-.26,1-.14-.08.07-1,.13Zm.2-.27,1.29-.18-.15.08-1.2.17Zm2.39-.41a2.53,2.53,0,1,1,.68,5,2.53,2.53,0,1,1-.68-5Zm-2.14.13L19.05,11l.07.05-1.7.24-.5,0-.45.1-1.76.23Zm.32-.28,3.53-.48.08,0-3.7.51Zm2.45,4.78a2.07,2.07,0,0,0,1.85-2.44,2.16,2.16,0,1,0-4.29.58A2.08,2.08,0,0,0,17.57,16.09ZM15.6,11l2.51-.34.17,0-2.83.39Zm1.22-.4.66,0-1.25.17Zm2.54.61h0l.09.06-1.2.17-.14,0Zm.24.21.07.05-1,.14-.09,0Zm.22.22.05,0-.87.12-.08-.05Zm.18.21,0,.06-.8.11-.07,0Zm-.61.33.76-.11,0,.06-.75.1Zm.17.22.72-.1,0,0-.72.1Zm.14.22.7-.1,0,.06-.69.09Zm.1.23.7-.1,0,.06-.69.09Zm.1.23.68-.1,0,.06-.68.09Zm.07.23.66-.09v.06l-.66.09Zm.05,1,.68-.09v.06l-.69.09Zm0-.72.67-.09v0l-.67.1Zm0,.23.67-.09v.06l-.68.1ZM20,14l.68-.1,0,.07-.66.09Z"/><path d="M21.87,9.58l1.79-.38,1.17,5.57L28,14.1l.31,1.48-5,1Zm5.93,5.76-.18-.82-3.17.67L23.27,9.63l-.88.18,1.34,6.39ZM23.91,16l3.72-.78,0,.06L23.86,16Zm.2-.29,3.47-.73,0,.06-3.53.75Zm.21-.28,3.22-.68v.06l-3.29.69Z"/><path d="M28.29,9.74l-1.63.42-.38-1.51,5-1.29.39,1.51-1.64.42,1.41,5.46-1.77.46Zm2.65,4.8L29.53,9.08l1.64-.42L31,7.8,26.81,8.86l.22.86,1.62-.42,1.41,5.47ZM27,9l3.91-1v.06l-3.9,1Zm.06.23,3.91-1v.06l-3.9,1Zm.06.23,3.91-1v.06l-3.9,1Z"/><path d="M34.44,6.42l.32-.06,5.05,6.57-1.93.39-.51-.66-2.89.59-.21.8-1.92.38Zm-.56,7.36,1.19-4.67.17,0,2.88,3.85,1-.2L34.73,7l-1.82,7Zm-.44-1.36.67-.14,0,.07-.67.13Zm.06-.26.67-.14,0,.07-.65.13Zm.07-.26.66-.13,0,.06-.66.13Zm.07-.26.65-.13,0,.06-.65.13Zm.07-.26.66-.13,0,.06-.65.14Zm.06-.26.66-.13,0,.07-.65.13Zm.07-.25.65-.14,0,.07-.65.13Zm.07-.26.66-.14,0,.07-.65.13Zm.06-.26.66-.13,0,.06-.65.13Zm.08-.26.66-.13,0,.06-.66.14Zm.06-.26.66-.13,0,.07-.64.13Zm.07-.26.66-.13,0,.07-.66.13Zm.07-.26.65-.13,0,.07-.65.13Zm.07-.25,1.55-.32.05,0-1.62.33Zm.06-.26,1.33-.27,0,.05-1.38.28Zm.07-.26,1.09-.22.05,0-1.16.23Zm.07-.26.87-.17,0,.05-.92.19Zm2.64,4.1-.4-.54-2.06.42-.15.64ZM34.58,8l.64-.12.05,0-.7.14Zm.08-.26.4-.08,0,.06-.47.09Zm.06-.25.17,0,0,0-.23.05Zm.06-.22,0,0h-.05Zm0,5.34,2-.4,0,.06-2,.4Zm1.7-1.09L35.31,9.93h0l-.49,1.94Zm-1.64.83L36.63,12l0,.05-1.83.37Zm.54-3.29L36,9l0,.06-.62.12Zm.16.21.64-.12,0,.05-.63.13Zm.16.22.64-.13,0,0-.63.13Zm.16.21.64-.13,0,.05-.65.13Zm.15.21.66-.13,0,.06-.65.13Zm.16.22.66-.14,0,.06-.66.13Zm.16.21.67-.13,0,0-.65.13Zm.15.21.67-.13,0,.05-.67.14Zm.84.08,0,0-.67.14-.05-.05Zm.16.21,0,.05-.7.14,0-.05Zm.17.21,0,.06-.7.14,0,0Zm.16.22.05.05-.71.14-.05-.05Zm.17.21,0,.05-.72.15-.05-.06Z"/><path d="M37.87,6l1.89-.23L41.68,9l1.07-3.63,1.89-.24-2.37,7.8-.22,0Zm6.19-.43-.94.12L41.88,9.85l-.18,0L39.47,6.11l-.94.12,3.53,5.89Zm-5.33.8.67-.09,0,.06-.65.08Zm.13.22.67-.08,0,.06-.65.08Zm.14.23.67-.09,0,.06-.65.08Zm.13.22.67-.08,0,.06-.66.08Zm.14.23.67-.09,0,.06-.66.08Zm.14.22.65-.08,0,.06-.65.08Zm.13.23.67-.08,0,0-.66.08Zm.14.22.65-.08,0,.06L39.72,8Zm.14.23.65-.08,0,0-.65.08Zm.13.22.65-.08,0,.06L40,8.42Zm.14.23.65-.08,0,.05-.64.08Zm.13.22.65-.08,0,.06-.64.08Zm.14.23L41,9l0,0-.64.08Zm.12.22.66-.08,0,.06-.64.08Zm.14.23.65-.08,0,.06-.63.07Zm.14.22.63-.07,0,0-.62.08Zm.13.23.64-.08,0,.06-.63.07Zm.14.22.63-.07,0,.05-.61.08Zm.13.23.64-.08,0,.06-.63.08Zm.14.23.63-.08,0,.05-.61.08Zm.14.22.62-.08,0,.06-.6.07Zm.75.15,0,.06-.61.07,0,0Zm0,.24,0,.06-.42.06,0-.06Zm-.08.25,0,.07-.19,0,0-.05Zm-.07.25,0,0,0,0Z"/><path d="M49.48,4.71a3.84,3.84,0,1,1-3.93,3.93A3.84,3.84,0,0,1,49.48,4.71ZM49.65,12a3.42,3.42,0,0,0,3.47-3.56A3.56,3.56,0,0,0,46,8.63,3.43,3.43,0,0,0,49.65,12ZM46.14,8.36h.67v.06h-.67Zm0,.24h.67v.06h-.68Zm0,.24h.67v.06h-.67Zm0-.72h.68l0,.06h-.67Zm0,1h.67l0,.06h-.69Zm0-1.2h.7l0,.06h-.68Zm0,1.44h.69l0,.06h-.68Zm0-1.68H47l0,.06h-.69Zm.07-.24.74,0,0,.06-.72,0Zm.09-.24.78,0,0,.06-.76,0Zm.12-.24.85,0L47.33,7l-.84,0Zm.16-.25.92,0-.08.06-.89,0Zm.16-.24,1,0-.09.06-1,0Zm2.66-.38A2.47,2.47,0,0,1,52.2,8.49a2.64,2.64,0,0,1-5.27.12A2.47,2.47,0,0,1,49.51,6.05Zm-2.43.13,1.31,0-.16.07L47,6.24Zm.29-.24,4.29-.1.06.06L50,5.94l-.5,0-.45,0L47.27,6Zm2.25,4.78A2.08,2.08,0,0,0,51.73,8.5a2.17,2.17,0,1,0-4.33.1A2.08,2.08,0,0,0,49.62,10.72Zm-1.9-5,3.56-.08.07.06-3.73.08Zm.51-.25,2.53-.06.16.06-2.86.06Zm1.26-.26.66,0-1.27,0Zm2.45.9,0,0,.08.08-1.21,0-.14-.06Zm.21.23.07.06-1,0-.09-.06Zm.19.24.06.06-.89,0-.07-.06Zm.16.23,0,.06-.81,0-.06-.06ZM51.86,7l.77,0,0,.06-.75,0Zm.14.23h.73l0,.06H52Zm.12.24h.71l0,.06h-.69Zm.08.24h.69l0,0-.7,0Zm0,1.44.69,0v.06l-.7,0Zm0-1.2L53,8V8l-.68,0Zm0,1,.68,0L53,9l-.67,0Zm0-.72.67,0v.06l-.67,0Zm0,.48.67,0v.06l-.68,0Zm0-.24.67,0v.06l-.67,0Z"/><path d="M56.61,8.61l-2-3.71,2.11.25,1.16,2.29,1.56-2,2.09.25L58.72,9l2.12,3.9-2.07-.24L57.49,10.2l-1.73,2.08L53.69,12Zm-1.09,3.31,2-2.31.15,0,1.44,2.7,1.06.12L58.22,8.92l2.57-3-1.1-.13L57.87,8.11l-.12,0L56.41,5.45l-1.09-.13,1.8,3.34-2.68,3.13Zm-.77-.29.76.09,0,.06-.77-.09Zm.19-.22.76.09-.05.06-.77-.09Zm.17-.21.77.09-.06.06-.77-.09ZM55.3,11l.76.09-.05.06L55.24,11Zm.19-.22.76.09,0,.06-.77-.09Zm.07-5.28.75.09,0,.06-.75-.08Zm.11,5.07.77.08-.06.06-.76-.09Zm0-4.81.74.09,0,.06-.75-.09Zm.17,4.59.77.08-.06.06-.76-.09Zm0-4.33.73.08,0,.07-.72-.09Zm.14.26.72.08,0,.06L56,6.32Zm.08,3.85.77.08-.06.06L56,10.16ZM56.1,6.5l.71.08,0,.07-.72-.09Zm.14,3.39L57,10,57,10l-.77-.09Zm0-3.13.7.08,0,.07-.71-.09Zm.19,2.91.76.09,0,.05-.77-.09Zm0-2.65.69.08,0,.06-.71-.08Zm.13.25.7.08,0,.07-.7-.08Zm.11,2.18.76.09-.05.05-.77-.09Zm0-1.92.67.08,0,.06-.68-.07Zm.14,1.7.77.09-.06,0-.76-.09Zm0-1.44.67.08,0,.06-.68-.08Zm.14.26.66.07,0,.07L57,8.11Zm0,1,.78.09,0,0L57,9.06Zm.09-.72.66.08,0,.07-.67-.08Zm.11.5.76.09,0,0-.77-.09Zm0-.24.65.08,0,.06-.65-.08Z"/><polygon points="45.48 17.03 45.48 16.93 53.34 16.74 53.34 16.84 45.48 17.03"/><polygon points="42.84 17.38 42.84 17.28 56.47 16.94 56.47 17.04 42.84 17.38"/><polygon points="40.77 17.7 40.76 17.6 58.72 17.15 58.72 17.25 40.77 17.7"/><polygon points="38.8 18.04 38.8 17.94 60.33 17.41 60.33 17.51 38.8 18.04"/><polygon points="37.16 18.36 37.16 18.27 61.75 17.65 61.75 17.75 37.16 18.36"/><polygon points="35.48 18.67 35.47 18.57 62.75 17.89 62.75 17.99 35.48 18.67"/><polygon points="49.38 19.67 49.38 19.57 55.99 19.4 55.99 19.5 49.38 19.67"/><polygon points="46.74 19.46 46.74 19.36 58.21 19.07 58.22 19.17 46.74 19.46"/><polygon points="44.84 19.25 44.84 19.15 59.96 18.77 59.97 18.87 44.84 19.25"/><polygon points="42.62 19.02 42.62 18.92 61.61 18.44 61.62 18.54 42.62 19.02"/><polygon points="40.15 18.8 40.14 18.7 63.34 18.13 63.35 18.23 40.15 18.8"/><rect x="7.88" y="1.68" width="0.1" height="7.16" transform="translate(2.52 13.09) rotate(-88.93)"/><rect x="6.86" y="0.92" width="0.1" height="8.09" transform="translate(1.81 11.79) rotate(-88.93)"/><rect x="6.01" y="0.51" width="0.1" height="8.36" transform="translate(1.25 10.66) rotate(-88.93)"/><rect x="5.39" y="0.36" width="0.1" height="8.07" transform="translate(0.94 9.75) rotate(-88.93)"/><rect x="4.86" y="0.44" width="0.1" height="7.26" transform="translate(0.74 8.9) rotate(-88.93)"/><rect x="4.62" y="0.93" width="0.1" height="5.75" transform="translate(0.77 8.41) rotate(-88.93)"/><rect x="4.26" y="1.83" width="0.1" height="3.37" transform="matrix(0.02, -1, 1, 0.02, 0.71, 7.76)"/></g></g></svg>