%TF.GenerationSoftware,KiCad,Pcbnew,(6.0.6)*%
%TF.CreationDate,2022-09-17T20:01:25-04:00*%
%TF.ProjectId,Volta_Needle,566f6c74-615f-44e6-9565-646c652e6b69,rev?*%
%TF.SameCoordinates,Original*%
%TF.FileFunction,Legend,Top*%
%TF.FilePolarity,Positive*%
%FSLAX46Y46*%
G04 Gerber Fmt 4.6, Leading zero omitted, Abs format (unit mm)*
G04 Created by KiCad (PCBNEW (6.0.6)) date 2022-09-17 20:01:25*
%MOMM*%
%LPD*%
G01*
G04 APERTURE LIST*
%ADD10C,0.200000*%
%ADD11C,0.120000*%
%ADD12C,0.010000*%
G04 APERTURE END LIST*
D10*
G36*
X151047400Y-71735611D02*
G01*
X151081683Y-71739368D01*
X151114042Y-71744701D01*
X151144418Y-71751640D01*
X151172747Y-71760209D01*
X151198968Y-71770438D01*
X151211268Y-71776183D01*
X151223018Y-71782353D01*
X151234210Y-71788951D01*
X151244836Y-71795981D01*
X151254888Y-71803445D01*
X151264359Y-71811348D01*
X151273241Y-71819693D01*
X151281526Y-71828484D01*
X151289206Y-71837723D01*
X151296274Y-71847413D01*
X151302722Y-71857560D01*
X151308542Y-71868165D01*
X151313727Y-71879232D01*
X151318268Y-71890765D01*
X151322158Y-71902767D01*
X151325389Y-71915241D01*
X151327953Y-71928191D01*
X151329843Y-71941620D01*
X151331051Y-71955531D01*
X151331570Y-71969929D01*
X151331390Y-71984815D01*
X151330505Y-72000195D01*
X151328306Y-72021155D01*
X151325189Y-72041372D01*
X151321167Y-72060847D01*
X151316253Y-72079580D01*
X151310459Y-72097573D01*
X151303797Y-72114827D01*
X151296281Y-72131343D01*
X151287924Y-72147121D01*
X151278736Y-72162163D01*
X151268732Y-72176470D01*
X151257924Y-72190042D01*
X151246324Y-72202880D01*
X151233945Y-72214986D01*
X151220800Y-72226361D01*
X151206900Y-72237004D01*
X151192260Y-72246919D01*
X151176891Y-72256104D01*
X151160806Y-72264562D01*
X151144017Y-72272294D01*
X151126538Y-72279299D01*
X151108380Y-72285580D01*
X151089557Y-72291137D01*
X151070081Y-72295971D01*
X151049964Y-72300083D01*
X151029219Y-72303475D01*
X151007859Y-72306146D01*
X150985896Y-72308099D01*
X150963344Y-72309334D01*
X150940213Y-72309851D01*
X150916518Y-72309653D01*
X150892271Y-72308739D01*
X150867484Y-72307111D01*
X150663754Y-72291236D01*
X150552630Y-72754257D01*
X150505005Y-72754257D01*
X150640730Y-72246257D01*
X150679630Y-72246257D01*
X150862192Y-72262132D01*
X150910374Y-72264800D01*
X150955695Y-72264871D01*
X150998149Y-72262353D01*
X151037727Y-72257254D01*
X151074421Y-72249581D01*
X151091684Y-72244782D01*
X151108224Y-72239343D01*
X151124039Y-72233264D01*
X151139128Y-72226547D01*
X151153490Y-72219192D01*
X151167125Y-72211200D01*
X151180031Y-72202573D01*
X151192207Y-72193311D01*
X151203653Y-72183415D01*
X151214367Y-72172887D01*
X151224349Y-72161727D01*
X151233597Y-72149936D01*
X151242111Y-72137516D01*
X151249890Y-72124466D01*
X151256932Y-72110789D01*
X151263236Y-72096485D01*
X151268803Y-72081555D01*
X151273630Y-72066000D01*
X151277716Y-72049820D01*
X151281062Y-72033018D01*
X151285525Y-71997549D01*
X151285284Y-71984378D01*
X151284559Y-71971653D01*
X151283347Y-71959369D01*
X151281644Y-71947521D01*
X151279447Y-71936105D01*
X151276752Y-71925117D01*
X151273557Y-71914553D01*
X151269857Y-71904407D01*
X151265649Y-71894677D01*
X151260930Y-71885356D01*
X151255697Y-71876442D01*
X151249946Y-71867929D01*
X151243673Y-71859813D01*
X151236876Y-71852091D01*
X151229551Y-71844757D01*
X151221694Y-71837807D01*
X151213303Y-71831237D01*
X151204373Y-71825042D01*
X151194902Y-71819219D01*
X151184885Y-71813762D01*
X151174320Y-71808667D01*
X151163204Y-71803931D01*
X151151532Y-71799548D01*
X151139301Y-71795515D01*
X151126509Y-71791826D01*
X151113151Y-71788478D01*
X151099225Y-71785467D01*
X151084726Y-71782787D01*
X151053998Y-71778405D01*
X151020942Y-71775299D01*
X150817214Y-71759424D01*
X150679630Y-72246257D01*
X150640730Y-72246257D01*
X150782818Y-71714445D01*
X151047400Y-71735611D01*
G37*
X151047400Y-71735611D02*
X151081683Y-71739368D01*
X151114042Y-71744701D01*
X151144418Y-71751640D01*
X151172747Y-71760209D01*
X151198968Y-71770438D01*
X151211268Y-71776183D01*
X151223018Y-71782353D01*
X151234210Y-71788951D01*
X151244836Y-71795981D01*
X151254888Y-71803445D01*
X151264359Y-71811348D01*
X151273241Y-71819693D01*
X151281526Y-71828484D01*
X151289206Y-71837723D01*
X151296274Y-71847413D01*
X151302722Y-71857560D01*
X151308542Y-71868165D01*
X151313727Y-71879232D01*
X151318268Y-71890765D01*
X151322158Y-71902767D01*
X151325389Y-71915241D01*
X151327953Y-71928191D01*
X151329843Y-71941620D01*
X151331051Y-71955531D01*
X151331570Y-71969929D01*
X151331390Y-71984815D01*
X151330505Y-72000195D01*
X151328306Y-72021155D01*
X151325189Y-72041372D01*
X151321167Y-72060847D01*
X151316253Y-72079580D01*
X151310459Y-72097573D01*
X151303797Y-72114827D01*
X151296281Y-72131343D01*
X151287924Y-72147121D01*
X151278736Y-72162163D01*
X151268732Y-72176470D01*
X151257924Y-72190042D01*
X151246324Y-72202880D01*
X151233945Y-72214986D01*
X151220800Y-72226361D01*
X151206900Y-72237004D01*
X151192260Y-72246919D01*
X151176891Y-72256104D01*
X151160806Y-72264562D01*
X151144017Y-72272294D01*
X151126538Y-72279299D01*
X151108380Y-72285580D01*
X151089557Y-72291137D01*
X151070081Y-72295971D01*
X151049964Y-72300083D01*
X151029219Y-72303475D01*
X151007859Y-72306146D01*
X150985896Y-72308099D01*
X150963344Y-72309334D01*
X150940213Y-72309851D01*
X150916518Y-72309653D01*
X150892271Y-72308739D01*
X150867484Y-72307111D01*
X150663754Y-72291236D01*
X150552630Y-72754257D01*
X150505005Y-72754257D01*
X150640730Y-72246257D01*
X150679630Y-72246257D01*
X150862192Y-72262132D01*
X150910374Y-72264800D01*
X150955695Y-72264871D01*
X150998149Y-72262353D01*
X151037727Y-72257254D01*
X151074421Y-72249581D01*
X151091684Y-72244782D01*
X151108224Y-72239343D01*
X151124039Y-72233264D01*
X151139128Y-72226547D01*
X151153490Y-72219192D01*
X151167125Y-72211200D01*
X151180031Y-72202573D01*
X151192207Y-72193311D01*
X151203653Y-72183415D01*
X151214367Y-72172887D01*
X151224349Y-72161727D01*
X151233597Y-72149936D01*
X151242111Y-72137516D01*
X151249890Y-72124466D01*
X151256932Y-72110789D01*
X151263236Y-72096485D01*
X151268803Y-72081555D01*
X151273630Y-72066000D01*
X151277716Y-72049820D01*
X151281062Y-72033018D01*
X151285525Y-71997549D01*
X151285284Y-71984378D01*
X151284559Y-71971653D01*
X151283347Y-71959369D01*
X151281644Y-71947521D01*
X151279447Y-71936105D01*
X151276752Y-71925117D01*
X151273557Y-71914553D01*
X151269857Y-71904407D01*
X151265649Y-71894677D01*
X151260930Y-71885356D01*
X151255697Y-71876442D01*
X151249946Y-71867929D01*
X151243673Y-71859813D01*
X151236876Y-71852091D01*
X151229551Y-71844757D01*
X151221694Y-71837807D01*
X151213303Y-71831237D01*
X151204373Y-71825042D01*
X151194902Y-71819219D01*
X151184885Y-71813762D01*
X151174320Y-71808667D01*
X151163204Y-71803931D01*
X151151532Y-71799548D01*
X151139301Y-71795515D01*
X151126509Y-71791826D01*
X151113151Y-71788478D01*
X151099225Y-71785467D01*
X151084726Y-71782787D01*
X151053998Y-71778405D01*
X151020942Y-71775299D01*
X150817214Y-71759424D01*
X150679630Y-72246257D01*
X150640730Y-72246257D01*
X150782818Y-71714445D01*
X151047400Y-71735611D01*
G36*
X149534645Y-72225222D02*
G01*
X149545270Y-72165105D01*
X149559756Y-72105933D01*
X149578090Y-72048331D01*
X149600261Y-71992923D01*
X149626258Y-71940333D01*
X149656068Y-71891184D01*
X149672399Y-71868095D01*
X149689680Y-71846101D01*
X149707908Y-71825279D01*
X149727083Y-71805707D01*
X149747202Y-71787464D01*
X149768264Y-71770627D01*
X149790269Y-71755275D01*
X149813213Y-71741485D01*
X149837097Y-71729336D01*
X149861918Y-71718905D01*
X149887674Y-71710270D01*
X149914366Y-71703509D01*
X149941990Y-71698702D01*
X149970547Y-71695924D01*
X149989901Y-71696364D01*
X150008769Y-71697675D01*
X150027145Y-71699844D01*
X150045023Y-71702859D01*
X150062397Y-71706707D01*
X150079261Y-71711377D01*
X150095610Y-71716854D01*
X150111438Y-71723126D01*
X150126738Y-71730182D01*
X150141506Y-71738008D01*
X150155734Y-71746592D01*
X150169419Y-71755920D01*
X150182552Y-71765982D01*
X150195130Y-71776763D01*
X150207146Y-71788251D01*
X150218594Y-71800434D01*
X150229468Y-71813300D01*
X150239763Y-71826835D01*
X150249473Y-71841026D01*
X150258591Y-71855863D01*
X150267113Y-71871330D01*
X150275032Y-71887417D01*
X150282343Y-71904111D01*
X150289039Y-71921399D01*
X150295115Y-71939268D01*
X150300565Y-71957705D01*
X150305384Y-71976699D01*
X150309565Y-71996236D01*
X150313102Y-72016305D01*
X150315991Y-72036892D01*
X150318224Y-72057984D01*
X150319796Y-72079570D01*
X150320821Y-72138780D01*
X150317951Y-72198917D01*
X150311198Y-72259355D01*
X150300573Y-72319472D01*
X150286087Y-72378644D01*
X150267753Y-72436246D01*
X150245582Y-72491654D01*
X150219585Y-72544244D01*
X150189775Y-72593393D01*
X150173444Y-72616482D01*
X150156163Y-72638476D01*
X150137935Y-72659298D01*
X150118760Y-72678870D01*
X150098641Y-72697113D01*
X150077579Y-72713950D01*
X150055574Y-72729302D01*
X150032630Y-72743092D01*
X150008746Y-72755241D01*
X149983925Y-72765673D01*
X149958169Y-72774307D01*
X149931477Y-72781068D01*
X149903853Y-72785876D01*
X149875296Y-72788653D01*
X149855942Y-72789145D01*
X149837074Y-72788647D01*
X149818698Y-72787178D01*
X149800820Y-72784757D01*
X149783446Y-72781401D01*
X149766582Y-72777131D01*
X149750233Y-72771962D01*
X149734406Y-72765915D01*
X149719106Y-72759008D01*
X149704338Y-72751259D01*
X149690109Y-72742686D01*
X149676425Y-72733308D01*
X149663291Y-72723143D01*
X149650713Y-72712209D01*
X149638698Y-72700526D01*
X149627250Y-72688111D01*
X149616375Y-72674984D01*
X149606081Y-72661161D01*
X149596371Y-72646662D01*
X149587252Y-72631505D01*
X149578731Y-72615709D01*
X149570812Y-72599291D01*
X149563501Y-72582271D01*
X149556805Y-72564667D01*
X149550729Y-72546497D01*
X149545278Y-72527779D01*
X149540460Y-72508532D01*
X149536279Y-72488775D01*
X149532741Y-72468525D01*
X149529853Y-72447802D01*
X149527620Y-72426623D01*
X149526047Y-72405007D01*
X149525022Y-72345797D01*
X149525209Y-72341883D01*
X149572431Y-72341883D01*
X149572617Y-72368377D01*
X149573672Y-72394424D01*
X149577175Y-72434246D01*
X149582725Y-72472269D01*
X149590322Y-72508371D01*
X149599964Y-72542425D01*
X149611654Y-72574310D01*
X149625389Y-72603900D01*
X149633024Y-72617795D01*
X149641171Y-72631071D01*
X149649830Y-72643711D01*
X149659000Y-72655700D01*
X149668681Y-72667022D01*
X149678874Y-72677663D01*
X149689579Y-72687605D01*
X149700796Y-72696834D01*
X149712524Y-72705335D01*
X149724763Y-72713092D01*
X149737514Y-72720089D01*
X149750777Y-72726311D01*
X149764551Y-72731742D01*
X149778837Y-72736367D01*
X149793635Y-72740170D01*
X149808944Y-72743137D01*
X149824765Y-72745250D01*
X149841097Y-72746496D01*
X149857941Y-72746857D01*
X149875296Y-72746320D01*
X149901155Y-72743822D01*
X149926146Y-72739358D01*
X149950269Y-72733008D01*
X149973523Y-72724853D01*
X149995909Y-72714974D01*
X150017427Y-72703450D01*
X150038077Y-72690363D01*
X150057859Y-72675792D01*
X150076773Y-72659818D01*
X150094818Y-72642521D01*
X150111995Y-72623982D01*
X150128304Y-72604282D01*
X150143745Y-72583500D01*
X150158318Y-72561717D01*
X150172023Y-72539014D01*
X150184859Y-72515471D01*
X150196827Y-72491168D01*
X150207927Y-72466186D01*
X150218159Y-72440605D01*
X150227523Y-72414505D01*
X150236019Y-72387968D01*
X150243646Y-72361073D01*
X150250406Y-72333901D01*
X150256297Y-72306533D01*
X150261320Y-72279048D01*
X150265474Y-72251527D01*
X150268761Y-72224051D01*
X150271180Y-72196700D01*
X150272730Y-72169554D01*
X150273412Y-72142694D01*
X150273226Y-72116200D01*
X150272172Y-72090153D01*
X150268668Y-72050331D01*
X150263118Y-72012308D01*
X150255522Y-71976207D01*
X150245879Y-71942152D01*
X150234190Y-71910267D01*
X150220454Y-71880678D01*
X150212819Y-71866782D01*
X150204672Y-71853506D01*
X150196014Y-71840866D01*
X150186844Y-71828877D01*
X150177162Y-71817555D01*
X150166969Y-71806915D01*
X150156264Y-71796972D01*
X150145048Y-71787743D01*
X150133320Y-71779242D01*
X150121080Y-71771485D01*
X150108329Y-71764488D01*
X150095066Y-71758266D01*
X150081292Y-71752835D01*
X150067006Y-71748210D01*
X150052208Y-71744407D01*
X150036899Y-71741441D01*
X150021078Y-71739327D01*
X150004746Y-71738082D01*
X149987902Y-71737720D01*
X149970547Y-71738257D01*
X149944688Y-71740755D01*
X149919697Y-71745219D01*
X149895574Y-71751569D01*
X149872320Y-71759724D01*
X149849934Y-71769603D01*
X149828416Y-71781127D01*
X149807766Y-71794214D01*
X149787984Y-71808785D01*
X149769071Y-71824759D01*
X149751025Y-71842056D01*
X149733848Y-71860595D01*
X149717539Y-71880295D01*
X149702098Y-71901077D01*
X149687525Y-71922860D01*
X149673821Y-71945563D01*
X149660984Y-71969106D01*
X149649016Y-71993409D01*
X149637916Y-72018391D01*
X149627684Y-72043972D01*
X149618320Y-72070072D01*
X149609825Y-72096609D01*
X149602197Y-72123504D01*
X149595438Y-72150676D01*
X149589547Y-72178044D01*
X149584524Y-72205529D01*
X149580369Y-72233050D01*
X149577082Y-72260526D01*
X149574664Y-72287878D01*
X149573114Y-72315023D01*
X149572431Y-72341883D01*
X149525209Y-72341883D01*
X149527892Y-72285661D01*
X149534645Y-72225222D01*
G37*
X149534645Y-72225222D02*
X149545270Y-72165105D01*
X149559756Y-72105933D01*
X149578090Y-72048331D01*
X149600261Y-71992923D01*
X149626258Y-71940333D01*
X149656068Y-71891184D01*
X149672399Y-71868095D01*
X149689680Y-71846101D01*
X149707908Y-71825279D01*
X149727083Y-71805707D01*
X149747202Y-71787464D01*
X149768264Y-71770627D01*
X149790269Y-71755275D01*
X149813213Y-71741485D01*
X149837097Y-71729336D01*
X149861918Y-71718905D01*
X149887674Y-71710270D01*
X149914366Y-71703509D01*
X149941990Y-71698702D01*
X149970547Y-71695924D01*
X149989901Y-71696364D01*
X150008769Y-71697675D01*
X150027145Y-71699844D01*
X150045023Y-71702859D01*
X150062397Y-71706707D01*
X150079261Y-71711377D01*
X150095610Y-71716854D01*
X150111438Y-71723126D01*
X150126738Y-71730182D01*
X150141506Y-71738008D01*
X150155734Y-71746592D01*
X150169419Y-71755920D01*
X150182552Y-71765982D01*
X150195130Y-71776763D01*
X150207146Y-71788251D01*
X150218594Y-71800434D01*
X150229468Y-71813300D01*
X150239763Y-71826835D01*
X150249473Y-71841026D01*
X150258591Y-71855863D01*
X150267113Y-71871330D01*
X150275032Y-71887417D01*
X150282343Y-71904111D01*
X150289039Y-71921399D01*
X150295115Y-71939268D01*
X150300565Y-71957705D01*
X150305384Y-71976699D01*
X150309565Y-71996236D01*
X150313102Y-72016305D01*
X150315991Y-72036892D01*
X150318224Y-72057984D01*
X150319796Y-72079570D01*
X150320821Y-72138780D01*
X150317951Y-72198917D01*
X150311198Y-72259355D01*
X150300573Y-72319472D01*
X150286087Y-72378644D01*
X150267753Y-72436246D01*
X150245582Y-72491654D01*
X150219585Y-72544244D01*
X150189775Y-72593393D01*
X150173444Y-72616482D01*
X150156163Y-72638476D01*
X150137935Y-72659298D01*
X150118760Y-72678870D01*
X150098641Y-72697113D01*
X150077579Y-72713950D01*
X150055574Y-72729302D01*
X150032630Y-72743092D01*
X150008746Y-72755241D01*
X149983925Y-72765673D01*
X149958169Y-72774307D01*
X149931477Y-72781068D01*
X149903853Y-72785876D01*
X149875296Y-72788653D01*
X149855942Y-72789145D01*
X149837074Y-72788647D01*
X149818698Y-72787178D01*
X149800820Y-72784757D01*
X149783446Y-72781401D01*
X149766582Y-72777131D01*
X149750233Y-72771962D01*
X149734406Y-72765915D01*
X149719106Y-72759008D01*
X149704338Y-72751259D01*
X149690109Y-72742686D01*
X149676425Y-72733308D01*
X149663291Y-72723143D01*
X149650713Y-72712209D01*
X149638698Y-72700526D01*
X149627250Y-72688111D01*
X149616375Y-72674984D01*
X149606081Y-72661161D01*
X149596371Y-72646662D01*
X149587252Y-72631505D01*
X149578731Y-72615709D01*
X149570812Y-72599291D01*
X149563501Y-72582271D01*
X149556805Y-72564667D01*
X149550729Y-72546497D01*
X149545278Y-72527779D01*
X149540460Y-72508532D01*
X149536279Y-72488775D01*
X149532741Y-72468525D01*
X149529853Y-72447802D01*
X149527620Y-72426623D01*
X149526047Y-72405007D01*
X149525022Y-72345797D01*
X149525209Y-72341883D01*
X149572431Y-72341883D01*
X149572617Y-72368377D01*
X149573672Y-72394424D01*
X149577175Y-72434246D01*
X149582725Y-72472269D01*
X149590322Y-72508371D01*
X149599964Y-72542425D01*
X149611654Y-72574310D01*
X149625389Y-72603900D01*
X149633024Y-72617795D01*
X149641171Y-72631071D01*
X149649830Y-72643711D01*
X149659000Y-72655700D01*
X149668681Y-72667022D01*
X149678874Y-72677663D01*
X149689579Y-72687605D01*
X149700796Y-72696834D01*
X149712524Y-72705335D01*
X149724763Y-72713092D01*
X149737514Y-72720089D01*
X149750777Y-72726311D01*
X149764551Y-72731742D01*
X149778837Y-72736367D01*
X149793635Y-72740170D01*
X149808944Y-72743137D01*
X149824765Y-72745250D01*
X149841097Y-72746496D01*
X149857941Y-72746857D01*
X149875296Y-72746320D01*
X149901155Y-72743822D01*
X149926146Y-72739358D01*
X149950269Y-72733008D01*
X149973523Y-72724853D01*
X149995909Y-72714974D01*
X150017427Y-72703450D01*
X150038077Y-72690363D01*
X150057859Y-72675792D01*
X150076773Y-72659818D01*
X150094818Y-72642521D01*
X150111995Y-72623982D01*
X150128304Y-72604282D01*
X150143745Y-72583500D01*
X150158318Y-72561717D01*
X150172023Y-72539014D01*
X150184859Y-72515471D01*
X150196827Y-72491168D01*
X150207927Y-72466186D01*
X150218159Y-72440605D01*
X150227523Y-72414505D01*
X150236019Y-72387968D01*
X150243646Y-72361073D01*
X150250406Y-72333901D01*
X150256297Y-72306533D01*
X150261320Y-72279048D01*
X150265474Y-72251527D01*
X150268761Y-72224051D01*
X150271180Y-72196700D01*
X150272730Y-72169554D01*
X150273412Y-72142694D01*
X150273226Y-72116200D01*
X150272172Y-72090153D01*
X150268668Y-72050331D01*
X150263118Y-72012308D01*
X150255522Y-71976207D01*
X150245879Y-71942152D01*
X150234190Y-71910267D01*
X150220454Y-71880678D01*
X150212819Y-71866782D01*
X150204672Y-71853506D01*
X150196014Y-71840866D01*
X150186844Y-71828877D01*
X150177162Y-71817555D01*
X150166969Y-71806915D01*
X150156264Y-71796972D01*
X150145048Y-71787743D01*
X150133320Y-71779242D01*
X150121080Y-71771485D01*
X150108329Y-71764488D01*
X150095066Y-71758266D01*
X150081292Y-71752835D01*
X150067006Y-71748210D01*
X150052208Y-71744407D01*
X150036899Y-71741441D01*
X150021078Y-71739327D01*
X150004746Y-71738082D01*
X149987902Y-71737720D01*
X149970547Y-71738257D01*
X149944688Y-71740755D01*
X149919697Y-71745219D01*
X149895574Y-71751569D01*
X149872320Y-71759724D01*
X149849934Y-71769603D01*
X149828416Y-71781127D01*
X149807766Y-71794214D01*
X149787984Y-71808785D01*
X149769071Y-71824759D01*
X149751025Y-71842056D01*
X149733848Y-71860595D01*
X149717539Y-71880295D01*
X149702098Y-71901077D01*
X149687525Y-71922860D01*
X149673821Y-71945563D01*
X149660984Y-71969106D01*
X149649016Y-71993409D01*
X149637916Y-72018391D01*
X149627684Y-72043972D01*
X149618320Y-72070072D01*
X149609825Y-72096609D01*
X149602197Y-72123504D01*
X149595438Y-72150676D01*
X149589547Y-72178044D01*
X149584524Y-72205529D01*
X149580369Y-72233050D01*
X149577082Y-72260526D01*
X149574664Y-72287878D01*
X149573114Y-72315023D01*
X149572431Y-72341883D01*
X149525209Y-72341883D01*
X149527892Y-72285661D01*
X149534645Y-72225222D01*
G36*
X152431171Y-71960507D02*
G01*
X152404713Y-71994903D01*
X151859671Y-71883778D01*
X151692983Y-72288591D01*
X152156005Y-72381195D01*
X152140130Y-72418236D01*
X151677110Y-72328278D01*
X151481317Y-72793945D01*
X152052817Y-72905070D01*
X152034297Y-72944757D01*
X151420463Y-72823049D01*
X151830568Y-71836153D01*
X152431171Y-71960507D01*
G37*
X152431171Y-71960507D02*
X152404713Y-71994903D01*
X151859671Y-71883778D01*
X151692983Y-72288591D01*
X152156005Y-72381195D01*
X152140130Y-72418236D01*
X151677110Y-72328278D01*
X151481317Y-72793945D01*
X152052817Y-72905070D01*
X152034297Y-72944757D01*
X151420463Y-72823049D01*
X151830568Y-71836153D01*
X152431171Y-71960507D01*
G36*
X152841276Y-72087507D02*
G01*
X152862444Y-72910361D01*
X152862444Y-73129966D01*
X152896260Y-73063696D01*
X152930573Y-72998666D01*
X153002672Y-72865382D01*
X153351922Y-72251549D01*
X153396901Y-72251549D01*
X152867735Y-73180236D01*
X152820109Y-73161716D01*
X152798942Y-72338861D01*
X152798942Y-72143070D01*
X152661359Y-72407653D01*
X152306818Y-73018841D01*
X152261840Y-73018841D01*
X152793651Y-72068986D01*
X152841276Y-72087507D01*
G37*
X152841276Y-72087507D02*
X152862444Y-72910361D01*
X152862444Y-73129966D01*
X152896260Y-73063696D01*
X152930573Y-72998666D01*
X153002672Y-72865382D01*
X153351922Y-72251549D01*
X153396901Y-72251549D01*
X152867735Y-73180236D01*
X152820109Y-73161716D01*
X152798942Y-72338861D01*
X152798942Y-72143070D01*
X152661359Y-72407653D01*
X152306818Y-73018841D01*
X152261840Y-73018841D01*
X152793651Y-72068986D01*
X152841276Y-72087507D01*
G36*
X147787734Y-72111320D02*
G01*
X147807517Y-72103021D01*
X147827621Y-72095886D01*
X147847997Y-72089912D01*
X147868596Y-72085100D01*
X147889368Y-72081449D01*
X147910265Y-72078957D01*
X147931238Y-72077623D01*
X147952238Y-72077448D01*
X147973216Y-72078428D01*
X147994123Y-72080565D01*
X148014909Y-72083856D01*
X148035526Y-72088301D01*
X148055925Y-72093899D01*
X148076057Y-72100649D01*
X148095873Y-72108550D01*
X148115323Y-72117601D01*
X148134234Y-72127730D01*
X148152444Y-72138842D01*
X148169923Y-72150898D01*
X148186641Y-72163858D01*
X148202567Y-72177685D01*
X148217672Y-72192339D01*
X148231925Y-72207783D01*
X148245297Y-72223977D01*
X148257756Y-72240882D01*
X148269273Y-72258461D01*
X148279818Y-72276674D01*
X148289360Y-72295483D01*
X148297870Y-72314849D01*
X148305316Y-72334733D01*
X148311670Y-72355097D01*
X148316901Y-72375903D01*
X148329217Y-72404515D01*
X148339919Y-72433598D01*
X148349007Y-72463086D01*
X148356481Y-72492912D01*
X148362340Y-72523013D01*
X148366584Y-72553321D01*
X148369212Y-72583771D01*
X148370224Y-72614298D01*
X148369620Y-72644835D01*
X148367398Y-72675318D01*
X148363560Y-72705680D01*
X148358103Y-72735856D01*
X148351028Y-72765780D01*
X148342334Y-72795386D01*
X148332021Y-72824609D01*
X148320089Y-72853383D01*
X148306622Y-72881472D01*
X148291741Y-72908655D01*
X148275493Y-72934887D01*
X148257929Y-72960125D01*
X148239097Y-72984327D01*
X148219047Y-73007448D01*
X148197827Y-73029445D01*
X148175488Y-73050274D01*
X148152078Y-73069892D01*
X148127646Y-73088255D01*
X148102242Y-73105321D01*
X148075915Y-73121044D01*
X148048714Y-73135383D01*
X148020688Y-73148293D01*
X147991887Y-73159731D01*
X147962359Y-73169653D01*
X147726880Y-73243736D01*
X147613331Y-72195986D01*
X147658088Y-72195986D01*
X147771859Y-73174945D01*
X147959714Y-73114091D01*
X147986636Y-73104692D01*
X148012879Y-73093916D01*
X148038398Y-73081803D01*
X148063150Y-73068395D01*
X148087088Y-73053729D01*
X148110170Y-73037848D01*
X148132351Y-73020791D01*
X148153585Y-73002597D01*
X148173830Y-72983308D01*
X148193040Y-72962964D01*
X148211171Y-72941603D01*
X148228178Y-72919268D01*
X148244018Y-72895997D01*
X148258645Y-72871831D01*
X148272016Y-72846811D01*
X148284086Y-72820975D01*
X148294748Y-72794528D01*
X148303927Y-72767684D01*
X148311623Y-72740505D01*
X148317838Y-72713050D01*
X148322573Y-72685378D01*
X148325828Y-72657550D01*
X148327605Y-72629626D01*
X148327904Y-72601665D01*
X148326726Y-72573727D01*
X148324073Y-72545872D01*
X148319944Y-72518161D01*
X148314342Y-72490651D01*
X148307267Y-72463405D01*
X148298720Y-72436481D01*
X148288702Y-72409940D01*
X148277213Y-72383841D01*
X148272393Y-72365103D01*
X148266556Y-72346772D01*
X148259730Y-72328884D01*
X148251942Y-72311472D01*
X148243220Y-72294573D01*
X148233593Y-72278222D01*
X148223088Y-72262452D01*
X148211732Y-72247301D01*
X148199555Y-72232802D01*
X148186583Y-72218990D01*
X148172844Y-72205902D01*
X148158367Y-72193571D01*
X148143179Y-72182033D01*
X148127307Y-72171323D01*
X148110781Y-72161476D01*
X148093627Y-72152527D01*
X148075994Y-72144563D01*
X148058043Y-72137647D01*
X148039817Y-72131780D01*
X148021362Y-72126961D01*
X148002723Y-72123191D01*
X147983944Y-72120470D01*
X147965070Y-72118798D01*
X147946146Y-72118175D01*
X147927216Y-72118603D01*
X147908325Y-72120080D01*
X147889519Y-72122608D01*
X147870842Y-72126186D01*
X147852338Y-72130815D01*
X147834053Y-72136494D01*
X147816032Y-72143225D01*
X147798318Y-72151007D01*
X147658088Y-72195986D01*
X147613331Y-72195986D01*
X147610463Y-72169528D01*
X147787734Y-72111320D01*
G37*
X147787734Y-72111320D02*
X147807517Y-72103021D01*
X147827621Y-72095886D01*
X147847997Y-72089912D01*
X147868596Y-72085100D01*
X147889368Y-72081449D01*
X147910265Y-72078957D01*
X147931238Y-72077623D01*
X147952238Y-72077448D01*
X147973216Y-72078428D01*
X147994123Y-72080565D01*
X148014909Y-72083856D01*
X148035526Y-72088301D01*
X148055925Y-72093899D01*
X148076057Y-72100649D01*
X148095873Y-72108550D01*
X148115323Y-72117601D01*
X148134234Y-72127730D01*
X148152444Y-72138842D01*
X148169923Y-72150898D01*
X148186641Y-72163858D01*
X148202567Y-72177685D01*
X148217672Y-72192339D01*
X148231925Y-72207783D01*
X148245297Y-72223977D01*
X148257756Y-72240882D01*
X148269273Y-72258461D01*
X148279818Y-72276674D01*
X148289360Y-72295483D01*
X148297870Y-72314849D01*
X148305316Y-72334733D01*
X148311670Y-72355097D01*
X148316901Y-72375903D01*
X148329217Y-72404515D01*
X148339919Y-72433598D01*
X148349007Y-72463086D01*
X148356481Y-72492912D01*
X148362340Y-72523013D01*
X148366584Y-72553321D01*
X148369212Y-72583771D01*
X148370224Y-72614298D01*
X148369620Y-72644835D01*
X148367398Y-72675318D01*
X148363560Y-72705680D01*
X148358103Y-72735856D01*
X148351028Y-72765780D01*
X148342334Y-72795386D01*
X148332021Y-72824609D01*
X148320089Y-72853383D01*
X148306622Y-72881472D01*
X148291741Y-72908655D01*
X148275493Y-72934887D01*
X148257929Y-72960125D01*
X148239097Y-72984327D01*
X148219047Y-73007448D01*
X148197827Y-73029445D01*
X148175488Y-73050274D01*
X148152078Y-73069892D01*
X148127646Y-73088255D01*
X148102242Y-73105321D01*
X148075915Y-73121044D01*
X148048714Y-73135383D01*
X148020688Y-73148293D01*
X147991887Y-73159731D01*
X147962359Y-73169653D01*
X147726880Y-73243736D01*
X147613331Y-72195986D01*
X147658088Y-72195986D01*
X147771859Y-73174945D01*
X147959714Y-73114091D01*
X147986636Y-73104692D01*
X148012879Y-73093916D01*
X148038398Y-73081803D01*
X148063150Y-73068395D01*
X148087088Y-73053729D01*
X148110170Y-73037848D01*
X148132351Y-73020791D01*
X148153585Y-73002597D01*
X148173830Y-72983308D01*
X148193040Y-72962964D01*
X148211171Y-72941603D01*
X148228178Y-72919268D01*
X148244018Y-72895997D01*
X148258645Y-72871831D01*
X148272016Y-72846811D01*
X148284086Y-72820975D01*
X148294748Y-72794528D01*
X148303927Y-72767684D01*
X148311623Y-72740505D01*
X148317838Y-72713050D01*
X148322573Y-72685378D01*
X148325828Y-72657550D01*
X148327605Y-72629626D01*
X148327904Y-72601665D01*
X148326726Y-72573727D01*
X148324073Y-72545872D01*
X148319944Y-72518161D01*
X148314342Y-72490651D01*
X148307267Y-72463405D01*
X148298720Y-72436481D01*
X148288702Y-72409940D01*
X148277213Y-72383841D01*
X148272393Y-72365103D01*
X148266556Y-72346772D01*
X148259730Y-72328884D01*
X148251942Y-72311472D01*
X148243220Y-72294573D01*
X148233593Y-72278222D01*
X148223088Y-72262452D01*
X148211732Y-72247301D01*
X148199555Y-72232802D01*
X148186583Y-72218990D01*
X148172844Y-72205902D01*
X148158367Y-72193571D01*
X148143179Y-72182033D01*
X148127307Y-72171323D01*
X148110781Y-72161476D01*
X148093627Y-72152527D01*
X148075994Y-72144563D01*
X148058043Y-72137647D01*
X148039817Y-72131780D01*
X148021362Y-72126961D01*
X148002723Y-72123191D01*
X147983944Y-72120470D01*
X147965070Y-72118798D01*
X147946146Y-72118175D01*
X147927216Y-72118603D01*
X147908325Y-72120080D01*
X147889519Y-72122608D01*
X147870842Y-72126186D01*
X147852338Y-72130815D01*
X147834053Y-72136494D01*
X147816032Y-72143225D01*
X147798318Y-72151007D01*
X147658088Y-72195986D01*
X147613331Y-72195986D01*
X147610463Y-72169528D01*
X147787734Y-72111320D01*
G36*
X147269151Y-72322986D02*
G01*
X146758506Y-72563757D01*
X146864339Y-72989737D01*
X147290318Y-72786007D01*
X147290318Y-72828341D01*
X146864339Y-73029424D01*
X146983401Y-73518903D01*
X147512568Y-73272841D01*
X147512568Y-73312528D01*
X146946360Y-73577111D01*
X146713526Y-72547882D01*
X147269151Y-72283299D01*
X147269151Y-72322986D01*
G37*
X147269151Y-72322986D02*
X146758506Y-72563757D01*
X146864339Y-72989737D01*
X147290318Y-72786007D01*
X147290318Y-72828341D01*
X146864339Y-73029424D01*
X146983401Y-73518903D01*
X147512568Y-73272841D01*
X147512568Y-73312528D01*
X146946360Y-73577111D01*
X146713526Y-72547882D01*
X147269151Y-72283299D01*
X147269151Y-72322986D01*
G36*
X153949880Y-72526716D02*
G01*
X153330755Y-73344278D01*
X153833463Y-73590341D01*
X153807006Y-73622091D01*
X153261964Y-73357507D01*
X153907547Y-72505549D01*
X153949880Y-72526716D01*
G37*
X153949880Y-72526716D02*
X153330755Y-73344278D01*
X153833463Y-73590341D01*
X153807006Y-73622091D01*
X153261964Y-73357507D01*
X153907547Y-72505549D01*
X153949880Y-72526716D01*
G36*
X154690713Y-72928882D02*
G01*
X154600755Y-73299299D01*
X154592367Y-73334651D01*
X154583267Y-73370778D01*
X154564044Y-73442505D01*
X154545316Y-73508775D01*
X154529318Y-73563882D01*
X154556050Y-73552038D01*
X154587898Y-73538582D01*
X154662601Y-73508320D01*
X154744746Y-73476074D01*
X154825650Y-73444820D01*
X155246338Y-73291362D01*
X155288671Y-73320466D01*
X154521380Y-73611507D01*
X154256797Y-73891966D01*
X154217109Y-73865507D01*
X154486984Y-73582403D01*
X154651026Y-72905070D01*
X154690713Y-72928882D01*
G37*
X154690713Y-72928882D02*
X154600755Y-73299299D01*
X154592367Y-73334651D01*
X154583267Y-73370778D01*
X154564044Y-73442505D01*
X154545316Y-73508775D01*
X154529318Y-73563882D01*
X154556050Y-73552038D01*
X154587898Y-73538582D01*
X154662601Y-73508320D01*
X154744746Y-73476074D01*
X154825650Y-73444820D01*
X155246338Y-73291362D01*
X155288671Y-73320466D01*
X154521380Y-73611507D01*
X154256797Y-73891966D01*
X154217109Y-73865507D01*
X154486984Y-73582403D01*
X154651026Y-72905070D01*
X154690713Y-72928882D01*
G36*
X145972693Y-72963278D02*
G01*
X146002143Y-72945553D01*
X146030943Y-72930123D01*
X146059060Y-72917048D01*
X146086464Y-72906393D01*
X146113124Y-72898217D01*
X146126165Y-72895079D01*
X146139009Y-72892585D01*
X146151651Y-72890741D01*
X146164087Y-72889556D01*
X146176315Y-72889038D01*
X146188329Y-72889195D01*
X146200126Y-72890033D01*
X146211702Y-72891562D01*
X146223053Y-72893787D01*
X146234176Y-72896719D01*
X146245066Y-72900363D01*
X146255720Y-72904729D01*
X146266133Y-72909823D01*
X146276303Y-72915653D01*
X146286224Y-72922228D01*
X146295893Y-72929554D01*
X146305307Y-72937640D01*
X146314460Y-72946494D01*
X146323351Y-72956122D01*
X146331973Y-72966534D01*
X146340325Y-72977736D01*
X146348401Y-72989736D01*
X146357203Y-73005735D01*
X146365113Y-73022093D01*
X146372127Y-73038774D01*
X146378242Y-73055741D01*
X146383453Y-73072958D01*
X146387756Y-73090389D01*
X146391148Y-73107997D01*
X146393623Y-73125746D01*
X146395178Y-73143599D01*
X146395809Y-73161519D01*
X146395511Y-73179471D01*
X146394280Y-73197418D01*
X146392113Y-73215322D01*
X146389005Y-73233149D01*
X146384952Y-73250861D01*
X146379950Y-73268422D01*
X146374031Y-73285696D01*
X146367246Y-73302552D01*
X146359621Y-73318962D01*
X146351178Y-73334900D01*
X146341942Y-73350336D01*
X146331938Y-73365245D01*
X146321189Y-73379598D01*
X146309720Y-73393368D01*
X146297555Y-73406526D01*
X146284718Y-73419047D01*
X146271233Y-73430901D01*
X146257125Y-73442061D01*
X146242418Y-73452501D01*
X146239672Y-73454242D01*
X146673839Y-73759674D01*
X146626214Y-73788778D01*
X146192159Y-73480994D01*
X146004443Y-73600924D01*
X146187005Y-74077174D01*
X146144672Y-74103632D01*
X145769103Y-73119382D01*
X145813943Y-73119382D01*
X145991214Y-73566528D01*
X146121118Y-73479215D01*
X146189651Y-73479215D01*
X146192159Y-73480994D01*
X146194943Y-73479215D01*
X146211303Y-73471105D01*
X146227136Y-73462191D01*
X146239672Y-73454242D01*
X146218756Y-73439528D01*
X146189651Y-73479215D01*
X146121118Y-73479215D01*
X146152610Y-73458049D01*
X146170824Y-73446043D01*
X146188257Y-73433844D01*
X146204899Y-73421460D01*
X146220745Y-73408900D01*
X146235787Y-73396170D01*
X146250017Y-73383280D01*
X146263428Y-73370238D01*
X146276013Y-73357053D01*
X146287765Y-73343731D01*
X146298676Y-73330282D01*
X146308740Y-73316714D01*
X146317949Y-73303035D01*
X146326295Y-73289254D01*
X146333771Y-73275377D01*
X146340371Y-73261415D01*
X146346086Y-73247375D01*
X146350911Y-73233264D01*
X146354836Y-73219093D01*
X146357855Y-73204868D01*
X146359962Y-73190598D01*
X146361147Y-73176291D01*
X146361405Y-73161955D01*
X146360728Y-73147600D01*
X146359109Y-73133232D01*
X146356540Y-73118860D01*
X146353014Y-73104492D01*
X146348525Y-73090138D01*
X146343064Y-73075804D01*
X146336624Y-73061499D01*
X146329198Y-73047231D01*
X146320779Y-73033009D01*
X146311360Y-73018841D01*
X146301520Y-73005272D01*
X146291831Y-72992825D01*
X146282272Y-72981476D01*
X146272825Y-72971200D01*
X146263469Y-72961973D01*
X146254183Y-72953769D01*
X146244949Y-72946564D01*
X146235747Y-72940334D01*
X146226556Y-72935053D01*
X146217357Y-72930697D01*
X146208130Y-72927241D01*
X146198855Y-72924660D01*
X146189512Y-72922931D01*
X146180082Y-72922027D01*
X146170544Y-72921924D01*
X146160878Y-72922599D01*
X146151065Y-72924025D01*
X146141085Y-72926178D01*
X146130918Y-72929033D01*
X146120545Y-72932567D01*
X146109944Y-72936753D01*
X146099097Y-72941568D01*
X146087983Y-72946987D01*
X146076584Y-72952984D01*
X146052845Y-72966617D01*
X146027723Y-72982269D01*
X146001059Y-72999743D01*
X145972693Y-73018841D01*
X145813943Y-73119382D01*
X145769103Y-73119382D01*
X145761026Y-73098216D01*
X145972693Y-72963278D01*
G37*
X145972693Y-72963278D02*
X146002143Y-72945553D01*
X146030943Y-72930123D01*
X146059060Y-72917048D01*
X146086464Y-72906393D01*
X146113124Y-72898217D01*
X146126165Y-72895079D01*
X146139009Y-72892585D01*
X146151651Y-72890741D01*
X146164087Y-72889556D01*
X146176315Y-72889038D01*
X146188329Y-72889195D01*
X146200126Y-72890033D01*
X146211702Y-72891562D01*
X146223053Y-72893787D01*
X146234176Y-72896719D01*
X146245066Y-72900363D01*
X146255720Y-72904729D01*
X146266133Y-72909823D01*
X146276303Y-72915653D01*
X146286224Y-72922228D01*
X146295893Y-72929554D01*
X146305307Y-72937640D01*
X146314460Y-72946494D01*
X146323351Y-72956122D01*
X146331973Y-72966534D01*
X146340325Y-72977736D01*
X146348401Y-72989736D01*
X146357203Y-73005735D01*
X146365113Y-73022093D01*
X146372127Y-73038774D01*
X146378242Y-73055741D01*
X146383453Y-73072958D01*
X146387756Y-73090389D01*
X146391148Y-73107997D01*
X146393623Y-73125746D01*
X146395178Y-73143599D01*
X146395809Y-73161519D01*
X146395511Y-73179471D01*
X146394280Y-73197418D01*
X146392113Y-73215322D01*
X146389005Y-73233149D01*
X146384952Y-73250861D01*
X146379950Y-73268422D01*
X146374031Y-73285696D01*
X146367246Y-73302552D01*
X146359621Y-73318962D01*
X146351178Y-73334900D01*
X146341942Y-73350336D01*
X146331938Y-73365245D01*
X146321189Y-73379598D01*
X146309720Y-73393368D01*
X146297555Y-73406526D01*
X146284718Y-73419047D01*
X146271233Y-73430901D01*
X146257125Y-73442061D01*
X146242418Y-73452501D01*
X146239672Y-73454242D01*
X146673839Y-73759674D01*
X146626214Y-73788778D01*
X146192159Y-73480994D01*
X146004443Y-73600924D01*
X146187005Y-74077174D01*
X146144672Y-74103632D01*
X145769103Y-73119382D01*
X145813943Y-73119382D01*
X145991214Y-73566528D01*
X146121118Y-73479215D01*
X146189651Y-73479215D01*
X146192159Y-73480994D01*
X146194943Y-73479215D01*
X146211303Y-73471105D01*
X146227136Y-73462191D01*
X146239672Y-73454242D01*
X146218756Y-73439528D01*
X146189651Y-73479215D01*
X146121118Y-73479215D01*
X146152610Y-73458049D01*
X146170824Y-73446043D01*
X146188257Y-73433844D01*
X146204899Y-73421460D01*
X146220745Y-73408900D01*
X146235787Y-73396170D01*
X146250017Y-73383280D01*
X146263428Y-73370238D01*
X146276013Y-73357053D01*
X146287765Y-73343731D01*
X146298676Y-73330282D01*
X146308740Y-73316714D01*
X146317949Y-73303035D01*
X146326295Y-73289254D01*
X146333771Y-73275377D01*
X146340371Y-73261415D01*
X146346086Y-73247375D01*
X146350911Y-73233264D01*
X146354836Y-73219093D01*
X146357855Y-73204868D01*
X146359962Y-73190598D01*
X146361147Y-73176291D01*
X146361405Y-73161955D01*
X146360728Y-73147600D01*
X146359109Y-73133232D01*
X146356540Y-73118860D01*
X146353014Y-73104492D01*
X146348525Y-73090138D01*
X146343064Y-73075804D01*
X146336624Y-73061499D01*
X146329198Y-73047231D01*
X146320779Y-73033009D01*
X146311360Y-73018841D01*
X146301520Y-73005272D01*
X146291831Y-72992825D01*
X146282272Y-72981476D01*
X146272825Y-72971200D01*
X146263469Y-72961973D01*
X146254183Y-72953769D01*
X146244949Y-72946564D01*
X146235747Y-72940334D01*
X146226556Y-72935053D01*
X146217357Y-72930697D01*
X146208130Y-72927241D01*
X146198855Y-72924660D01*
X146189512Y-72922931D01*
X146180082Y-72922027D01*
X146170544Y-72921924D01*
X146160878Y-72922599D01*
X146151065Y-72924025D01*
X146141085Y-72926178D01*
X146130918Y-72929033D01*
X146120545Y-72932567D01*
X146109944Y-72936753D01*
X146099097Y-72941568D01*
X146087983Y-72946987D01*
X146076584Y-72952984D01*
X146052845Y-72966617D01*
X146027723Y-72982269D01*
X146001059Y-72999743D01*
X145972693Y-73018841D01*
X145813943Y-73119382D01*
X145769103Y-73119382D01*
X145761026Y-73098216D01*
X145972693Y-72963278D01*
G36*
X145737214Y-73950174D02*
G01*
X145760808Y-73998614D01*
X145780116Y-74044752D01*
X145795315Y-74088642D01*
X145806584Y-74130339D01*
X145814102Y-74169896D01*
X145818046Y-74207368D01*
X145818595Y-74242809D01*
X145815927Y-74276273D01*
X145810221Y-74307815D01*
X145801654Y-74337489D01*
X145790406Y-74365349D01*
X145776653Y-74391449D01*
X145760575Y-74415845D01*
X145742350Y-74438589D01*
X145722157Y-74459736D01*
X145700172Y-74479341D01*
X145689238Y-74490391D01*
X145677747Y-74500719D01*
X145665735Y-74510310D01*
X145653237Y-74519153D01*
X145640292Y-74527233D01*
X145626933Y-74534537D01*
X145613198Y-74541051D01*
X145599122Y-74546761D01*
X145584742Y-74551656D01*
X145570094Y-74555720D01*
X145555214Y-74558941D01*
X145540138Y-74561304D01*
X145524901Y-74562798D01*
X145509542Y-74563407D01*
X145494094Y-74563119D01*
X145478595Y-74561921D01*
X145463193Y-74559815D01*
X145448033Y-74556831D01*
X145433149Y-74552988D01*
X145418573Y-74548307D01*
X145404338Y-74542809D01*
X145390475Y-74536515D01*
X145377017Y-74529446D01*
X145363997Y-74521622D01*
X145351446Y-74513065D01*
X145339399Y-74503794D01*
X145327886Y-74493831D01*
X145316941Y-74483197D01*
X145306596Y-74471912D01*
X145296883Y-74459997D01*
X145287835Y-74447473D01*
X145279485Y-74434361D01*
X145269221Y-74421510D01*
X145259238Y-74408447D01*
X145249538Y-74395177D01*
X145240125Y-74381705D01*
X145231002Y-74368035D01*
X145222171Y-74354171D01*
X145213637Y-74340119D01*
X145205402Y-74325883D01*
X144898485Y-73759674D01*
X144935526Y-73730570D01*
X145237152Y-74283549D01*
X145240515Y-74291147D01*
X145244031Y-74298669D01*
X145247700Y-74306112D01*
X145251520Y-74313474D01*
X145255489Y-74320752D01*
X145259605Y-74327945D01*
X145263868Y-74335050D01*
X145268276Y-74342065D01*
X145272828Y-74348987D01*
X145277522Y-74355815D01*
X145282356Y-74362547D01*
X145287330Y-74369179D01*
X145292442Y-74375710D01*
X145297690Y-74382138D01*
X145303073Y-74388460D01*
X145308589Y-74394674D01*
X145315964Y-74406046D01*
X145323919Y-74416926D01*
X145332430Y-74427295D01*
X145341470Y-74437138D01*
X145351014Y-74446437D01*
X145361036Y-74455176D01*
X145371510Y-74463336D01*
X145382409Y-74470903D01*
X145393709Y-74477857D01*
X145405382Y-74484183D01*
X145417404Y-74489864D01*
X145429748Y-74494882D01*
X145442389Y-74499222D01*
X145455300Y-74502864D01*
X145468455Y-74505794D01*
X145481830Y-74507993D01*
X145495306Y-74509438D01*
X145508767Y-74510121D01*
X145522182Y-74510051D01*
X145535522Y-74509237D01*
X145548757Y-74507690D01*
X145561858Y-74505419D01*
X145574795Y-74502433D01*
X145587539Y-74498742D01*
X145600061Y-74494354D01*
X145612331Y-74489280D01*
X145624319Y-74483529D01*
X145635996Y-74477110D01*
X145647333Y-74470032D01*
X145658300Y-74462306D01*
X145668867Y-74453941D01*
X145679006Y-74444945D01*
X145688483Y-74436550D01*
X145697555Y-74427737D01*
X145706205Y-74418505D01*
X145714414Y-74408854D01*
X145722167Y-74398785D01*
X145729444Y-74388297D01*
X145736230Y-74377391D01*
X145742506Y-74366066D01*
X145748254Y-74354322D01*
X145753459Y-74342160D01*
X145758101Y-74329580D01*
X145762163Y-74316580D01*
X145765629Y-74303163D01*
X145768481Y-74289326D01*
X145770701Y-74275071D01*
X145772271Y-74260398D01*
X145773175Y-74245306D01*
X145773395Y-74229795D01*
X145772914Y-74213866D01*
X145771713Y-74197518D01*
X145769776Y-74180751D01*
X145767086Y-74163566D01*
X145763624Y-74145963D01*
X145759373Y-74127941D01*
X145754316Y-74109500D01*
X145748436Y-74090641D01*
X145741714Y-74071363D01*
X145734134Y-74051666D01*
X145725678Y-74031551D01*
X145716329Y-74011017D01*
X145706069Y-73990065D01*
X145694881Y-73968694D01*
X145369443Y-73368091D01*
X145406485Y-73338986D01*
X145737214Y-73950174D01*
G37*
X145737214Y-73950174D02*
X145760808Y-73998614D01*
X145780116Y-74044752D01*
X145795315Y-74088642D01*
X145806584Y-74130339D01*
X145814102Y-74169896D01*
X145818046Y-74207368D01*
X145818595Y-74242809D01*
X145815927Y-74276273D01*
X145810221Y-74307815D01*
X145801654Y-74337489D01*
X145790406Y-74365349D01*
X145776653Y-74391449D01*
X145760575Y-74415845D01*
X145742350Y-74438589D01*
X145722157Y-74459736D01*
X145700172Y-74479341D01*
X145689238Y-74490391D01*
X145677747Y-74500719D01*
X145665735Y-74510310D01*
X145653237Y-74519153D01*
X145640292Y-74527233D01*
X145626933Y-74534537D01*
X145613198Y-74541051D01*
X145599122Y-74546761D01*
X145584742Y-74551656D01*
X145570094Y-74555720D01*
X145555214Y-74558941D01*
X145540138Y-74561304D01*
X145524901Y-74562798D01*
X145509542Y-74563407D01*
X145494094Y-74563119D01*
X145478595Y-74561921D01*
X145463193Y-74559815D01*
X145448033Y-74556831D01*
X145433149Y-74552988D01*
X145418573Y-74548307D01*
X145404338Y-74542809D01*
X145390475Y-74536515D01*
X145377017Y-74529446D01*
X145363997Y-74521622D01*
X145351446Y-74513065D01*
X145339399Y-74503794D01*
X145327886Y-74493831D01*
X145316941Y-74483197D01*
X145306596Y-74471912D01*
X145296883Y-74459997D01*
X145287835Y-74447473D01*
X145279485Y-74434361D01*
X145269221Y-74421510D01*
X145259238Y-74408447D01*
X145249538Y-74395177D01*
X145240125Y-74381705D01*
X145231002Y-74368035D01*
X145222171Y-74354171D01*
X145213637Y-74340119D01*
X145205402Y-74325883D01*
X144898485Y-73759674D01*
X144935526Y-73730570D01*
X145237152Y-74283549D01*
X145240515Y-74291147D01*
X145244031Y-74298669D01*
X145247700Y-74306112D01*
X145251520Y-74313474D01*
X145255489Y-74320752D01*
X145259605Y-74327945D01*
X145263868Y-74335050D01*
X145268276Y-74342065D01*
X145272828Y-74348987D01*
X145277522Y-74355815D01*
X145282356Y-74362547D01*
X145287330Y-74369179D01*
X145292442Y-74375710D01*
X145297690Y-74382138D01*
X145303073Y-74388460D01*
X145308589Y-74394674D01*
X145315964Y-74406046D01*
X145323919Y-74416926D01*
X145332430Y-74427295D01*
X145341470Y-74437138D01*
X145351014Y-74446437D01*
X145361036Y-74455176D01*
X145371510Y-74463336D01*
X145382409Y-74470903D01*
X145393709Y-74477857D01*
X145405382Y-74484183D01*
X145417404Y-74489864D01*
X145429748Y-74494882D01*
X145442389Y-74499222D01*
X145455300Y-74502864D01*
X145468455Y-74505794D01*
X145481830Y-74507993D01*
X145495306Y-74509438D01*
X145508767Y-74510121D01*
X145522182Y-74510051D01*
X145535522Y-74509237D01*
X145548757Y-74507690D01*
X145561858Y-74505419D01*
X145574795Y-74502433D01*
X145587539Y-74498742D01*
X145600061Y-74494354D01*
X145612331Y-74489280D01*
X145624319Y-74483529D01*
X145635996Y-74477110D01*
X145647333Y-74470032D01*
X145658300Y-74462306D01*
X145668867Y-74453941D01*
X145679006Y-74444945D01*
X145688483Y-74436550D01*
X145697555Y-74427737D01*
X145706205Y-74418505D01*
X145714414Y-74408854D01*
X145722167Y-74398785D01*
X145729444Y-74388297D01*
X145736230Y-74377391D01*
X145742506Y-74366066D01*
X145748254Y-74354322D01*
X145753459Y-74342160D01*
X145758101Y-74329580D01*
X145762163Y-74316580D01*
X145765629Y-74303163D01*
X145768481Y-74289326D01*
X145770701Y-74275071D01*
X145772271Y-74260398D01*
X145773175Y-74245306D01*
X145773395Y-74229795D01*
X145772914Y-74213866D01*
X145771713Y-74197518D01*
X145769776Y-74180751D01*
X145767086Y-74163566D01*
X145763624Y-74145963D01*
X145759373Y-74127941D01*
X145754316Y-74109500D01*
X145748436Y-74090641D01*
X145741714Y-74071363D01*
X145734134Y-74051666D01*
X145725678Y-74031551D01*
X145716329Y-74011017D01*
X145706069Y-73990065D01*
X145694881Y-73968694D01*
X145369443Y-73368091D01*
X145406485Y-73338986D01*
X145737214Y-73950174D01*
G36*
X144655068Y-74000445D02*
G01*
X144403714Y-74265028D01*
X144999027Y-75093174D01*
X144996381Y-75135507D01*
X144390485Y-74312653D01*
X144125901Y-74577236D01*
X144099443Y-74540195D01*
X144628610Y-73963403D01*
X144655068Y-74000445D01*
G37*
X144655068Y-74000445D02*
X144403714Y-74265028D01*
X144999027Y-75093174D01*
X144996381Y-75135507D01*
X144390485Y-74312653D01*
X144125901Y-74577236D01*
X144099443Y-74540195D01*
X144628610Y-73963403D01*
X144655068Y-74000445D01*
G36*
X155867217Y-74566653D02*
G01*
X155971297Y-74566653D01*
X156108880Y-74698945D01*
X156139534Y-74730800D01*
X156169935Y-74758946D01*
X156185021Y-74771652D01*
X156200020Y-74783457D01*
X156214922Y-74794372D01*
X156229720Y-74804406D01*
X156244406Y-74813568D01*
X156258971Y-74821867D01*
X156273407Y-74829312D01*
X156287706Y-74835913D01*
X156301860Y-74841679D01*
X156315860Y-74846619D01*
X156329698Y-74850742D01*
X156343367Y-74854057D01*
X156356857Y-74856574D01*
X156370160Y-74858301D01*
X156383269Y-74859249D01*
X156396175Y-74859426D01*
X156408869Y-74858841D01*
X156421344Y-74857504D01*
X156433592Y-74855424D01*
X156445603Y-74852610D01*
X156457371Y-74849071D01*
X156468885Y-74844816D01*
X156480140Y-74839855D01*
X156491125Y-74834197D01*
X156501833Y-74827852D01*
X156512256Y-74820827D01*
X156522386Y-74813133D01*
X156532213Y-74804778D01*
X156541545Y-74796110D01*
X156550194Y-74787459D01*
X156558156Y-74778814D01*
X156565431Y-74770160D01*
X156572015Y-74761485D01*
X156577908Y-74752775D01*
X156583107Y-74744018D01*
X156587610Y-74735201D01*
X156591416Y-74726310D01*
X156594522Y-74717332D01*
X156596926Y-74708254D01*
X156598628Y-74699063D01*
X156599623Y-74689747D01*
X156599912Y-74680291D01*
X156599491Y-74670684D01*
X156598359Y-74660911D01*
X156596514Y-74650960D01*
X156593953Y-74640817D01*
X156590676Y-74630470D01*
X156586680Y-74619905D01*
X156581963Y-74609110D01*
X156576523Y-74598072D01*
X156570358Y-74586776D01*
X156563467Y-74575211D01*
X156555847Y-74563362D01*
X156547496Y-74551218D01*
X156538413Y-74538764D01*
X156528595Y-74525989D01*
X156506749Y-74499419D01*
X156481942Y-74471403D01*
X156347006Y-74341757D01*
X155971297Y-74566653D01*
X155867217Y-74566653D01*
X156352296Y-74280903D01*
X156518984Y-74463466D01*
X156543206Y-74491491D01*
X156564309Y-74518997D01*
X156582335Y-74545961D01*
X156590207Y-74559232D01*
X156597325Y-74572358D01*
X156603696Y-74585338D01*
X156609324Y-74598167D01*
X156614215Y-74610843D01*
X156618373Y-74623363D01*
X156621805Y-74635724D01*
X156624515Y-74647923D01*
X156626510Y-74659958D01*
X156627794Y-74671825D01*
X156628372Y-74683521D01*
X156628250Y-74695044D01*
X156627434Y-74706391D01*
X156625928Y-74717559D01*
X156623738Y-74728544D01*
X156620870Y-74739344D01*
X156617328Y-74749956D01*
X156613118Y-74760378D01*
X156608245Y-74770605D01*
X156602714Y-74780636D01*
X156596532Y-74790467D01*
X156589703Y-74800096D01*
X156582232Y-74809519D01*
X156574126Y-74818735D01*
X156565388Y-74827738D01*
X156556025Y-74836528D01*
X156546254Y-74844267D01*
X156536229Y-74851507D01*
X156525968Y-74858247D01*
X156515487Y-74864488D01*
X156504804Y-74870230D01*
X156493936Y-74875472D01*
X156482898Y-74880216D01*
X156471709Y-74884459D01*
X156460385Y-74888204D01*
X156448943Y-74891449D01*
X156437399Y-74894196D01*
X156425772Y-74896442D01*
X156402330Y-74899438D01*
X156378754Y-74900437D01*
X156355178Y-74899438D01*
X156331737Y-74896442D01*
X156320109Y-74894196D01*
X156308565Y-74891449D01*
X156297123Y-74888204D01*
X156285799Y-74884459D01*
X156274610Y-74880216D01*
X156263573Y-74875472D01*
X156252704Y-74870230D01*
X156242021Y-74864488D01*
X156231541Y-74858247D01*
X156221280Y-74851507D01*
X156211255Y-74844267D01*
X156201484Y-74836528D01*
X156207112Y-74845551D01*
X156212285Y-74854742D01*
X156217003Y-74864087D01*
X156221269Y-74873570D01*
X156225084Y-74883177D01*
X156228451Y-74892894D01*
X156231371Y-74902705D01*
X156233845Y-74912595D01*
X156237466Y-74932556D01*
X156239328Y-74952658D01*
X156239446Y-74972784D01*
X156237835Y-74992816D01*
X156234509Y-75012635D01*
X156229482Y-75032124D01*
X156222771Y-75051164D01*
X156214388Y-75069638D01*
X156209575Y-75078625D01*
X156204350Y-75087427D01*
X156198714Y-75096028D01*
X156192669Y-75104413D01*
X156186218Y-75112569D01*
X156179362Y-75120479D01*
X156172102Y-75128130D01*
X156164442Y-75135507D01*
X156148987Y-75148811D01*
X156133384Y-75160949D01*
X156117642Y-75171934D01*
X156101769Y-75181778D01*
X156085771Y-75190495D01*
X156069657Y-75198096D01*
X156053434Y-75204595D01*
X156037111Y-75210004D01*
X156020695Y-75214335D01*
X156004193Y-75217602D01*
X155987614Y-75219816D01*
X155970965Y-75220990D01*
X155954254Y-75221138D01*
X155937489Y-75220271D01*
X155920678Y-75218402D01*
X155903827Y-75215544D01*
X155886946Y-75211709D01*
X155870041Y-75206910D01*
X155853121Y-75201159D01*
X155836193Y-75194470D01*
X155819265Y-75186854D01*
X155802345Y-75178325D01*
X155785441Y-75168894D01*
X155768559Y-75158575D01*
X155751709Y-75147381D01*
X155734897Y-75135322D01*
X155701421Y-75108666D01*
X155668193Y-75078708D01*
X155635276Y-75045549D01*
X155455800Y-74849757D01*
X155502984Y-74849757D01*
X155651150Y-75003216D01*
X155681439Y-75035159D01*
X155711767Y-75064416D01*
X155742110Y-75090844D01*
X155772446Y-75114299D01*
X155787603Y-75124867D01*
X155802750Y-75134638D01*
X155817883Y-75143595D01*
X155833000Y-75151718D01*
X155848097Y-75158991D01*
X155863173Y-75165395D01*
X155878223Y-75170912D01*
X155893244Y-75175525D01*
X155908235Y-75179216D01*
X155923192Y-75181966D01*
X155938112Y-75183758D01*
X155952993Y-75184574D01*
X155967831Y-75184396D01*
X155982623Y-75183205D01*
X155997367Y-75180985D01*
X156012059Y-75177716D01*
X156026697Y-75173382D01*
X156041278Y-75167964D01*
X156055799Y-75161445D01*
X156070257Y-75153806D01*
X156084649Y-75145029D01*
X156098973Y-75135097D01*
X156113224Y-75123991D01*
X156127401Y-75111695D01*
X156135562Y-75103829D01*
X156143175Y-75095619D01*
X156150234Y-75087076D01*
X156156733Y-75078213D01*
X156162665Y-75069043D01*
X156168027Y-75059576D01*
X156172810Y-75049825D01*
X156177010Y-75039802D01*
X156180622Y-75029520D01*
X156183638Y-75018990D01*
X156186054Y-75008225D01*
X156187863Y-74997236D01*
X156189059Y-74986037D01*
X156189638Y-74974638D01*
X156189592Y-74963052D01*
X156188917Y-74951291D01*
X156187606Y-74939367D01*
X156185653Y-74927293D01*
X156183054Y-74915080D01*
X156179801Y-74902741D01*
X156175889Y-74890287D01*
X156171313Y-74877731D01*
X156166066Y-74865086D01*
X156160143Y-74852362D01*
X156153538Y-74839572D01*
X156146245Y-74826728D01*
X156138258Y-74813843D01*
X156129571Y-74800928D01*
X156120179Y-74787996D01*
X156110076Y-74775058D01*
X156099256Y-74762127D01*
X156087713Y-74749216D01*
X155936900Y-74585174D01*
X155502984Y-74849757D01*
X155455800Y-74849757D01*
X155431546Y-74823299D01*
X155867217Y-74566653D01*
G37*
X155867217Y-74566653D02*
X155971297Y-74566653D01*
X156108880Y-74698945D01*
X156139534Y-74730800D01*
X156169935Y-74758946D01*
X156185021Y-74771652D01*
X156200020Y-74783457D01*
X156214922Y-74794372D01*
X156229720Y-74804406D01*
X156244406Y-74813568D01*
X156258971Y-74821867D01*
X156273407Y-74829312D01*
X156287706Y-74835913D01*
X156301860Y-74841679D01*
X156315860Y-74846619D01*
X156329698Y-74850742D01*
X156343367Y-74854057D01*
X156356857Y-74856574D01*
X156370160Y-74858301D01*
X156383269Y-74859249D01*
X156396175Y-74859426D01*
X156408869Y-74858841D01*
X156421344Y-74857504D01*
X156433592Y-74855424D01*
X156445603Y-74852610D01*
X156457371Y-74849071D01*
X156468885Y-74844816D01*
X156480140Y-74839855D01*
X156491125Y-74834197D01*
X156501833Y-74827852D01*
X156512256Y-74820827D01*
X156522386Y-74813133D01*
X156532213Y-74804778D01*
X156541545Y-74796110D01*
X156550194Y-74787459D01*
X156558156Y-74778814D01*
X156565431Y-74770160D01*
X156572015Y-74761485D01*
X156577908Y-74752775D01*
X156583107Y-74744018D01*
X156587610Y-74735201D01*
X156591416Y-74726310D01*
X156594522Y-74717332D01*
X156596926Y-74708254D01*
X156598628Y-74699063D01*
X156599623Y-74689747D01*
X156599912Y-74680291D01*
X156599491Y-74670684D01*
X156598359Y-74660911D01*
X156596514Y-74650960D01*
X156593953Y-74640817D01*
X156590676Y-74630470D01*
X156586680Y-74619905D01*
X156581963Y-74609110D01*
X156576523Y-74598072D01*
X156570358Y-74586776D01*
X156563467Y-74575211D01*
X156555847Y-74563362D01*
X156547496Y-74551218D01*
X156538413Y-74538764D01*
X156528595Y-74525989D01*
X156506749Y-74499419D01*
X156481942Y-74471403D01*
X156347006Y-74341757D01*
X155971297Y-74566653D01*
X155867217Y-74566653D01*
X156352296Y-74280903D01*
X156518984Y-74463466D01*
X156543206Y-74491491D01*
X156564309Y-74518997D01*
X156582335Y-74545961D01*
X156590207Y-74559232D01*
X156597325Y-74572358D01*
X156603696Y-74585338D01*
X156609324Y-74598167D01*
X156614215Y-74610843D01*
X156618373Y-74623363D01*
X156621805Y-74635724D01*
X156624515Y-74647923D01*
X156626510Y-74659958D01*
X156627794Y-74671825D01*
X156628372Y-74683521D01*
X156628250Y-74695044D01*
X156627434Y-74706391D01*
X156625928Y-74717559D01*
X156623738Y-74728544D01*
X156620870Y-74739344D01*
X156617328Y-74749956D01*
X156613118Y-74760378D01*
X156608245Y-74770605D01*
X156602714Y-74780636D01*
X156596532Y-74790467D01*
X156589703Y-74800096D01*
X156582232Y-74809519D01*
X156574126Y-74818735D01*
X156565388Y-74827738D01*
X156556025Y-74836528D01*
X156546254Y-74844267D01*
X156536229Y-74851507D01*
X156525968Y-74858247D01*
X156515487Y-74864488D01*
X156504804Y-74870230D01*
X156493936Y-74875472D01*
X156482898Y-74880216D01*
X156471709Y-74884459D01*
X156460385Y-74888204D01*
X156448943Y-74891449D01*
X156437399Y-74894196D01*
X156425772Y-74896442D01*
X156402330Y-74899438D01*
X156378754Y-74900437D01*
X156355178Y-74899438D01*
X156331737Y-74896442D01*
X156320109Y-74894196D01*
X156308565Y-74891449D01*
X156297123Y-74888204D01*
X156285799Y-74884459D01*
X156274610Y-74880216D01*
X156263573Y-74875472D01*
X156252704Y-74870230D01*
X156242021Y-74864488D01*
X156231541Y-74858247D01*
X156221280Y-74851507D01*
X156211255Y-74844267D01*
X156201484Y-74836528D01*
X156207112Y-74845551D01*
X156212285Y-74854742D01*
X156217003Y-74864087D01*
X156221269Y-74873570D01*
X156225084Y-74883177D01*
X156228451Y-74892894D01*
X156231371Y-74902705D01*
X156233845Y-74912595D01*
X156237466Y-74932556D01*
X156239328Y-74952658D01*
X156239446Y-74972784D01*
X156237835Y-74992816D01*
X156234509Y-75012635D01*
X156229482Y-75032124D01*
X156222771Y-75051164D01*
X156214388Y-75069638D01*
X156209575Y-75078625D01*
X156204350Y-75087427D01*
X156198714Y-75096028D01*
X156192669Y-75104413D01*
X156186218Y-75112569D01*
X156179362Y-75120479D01*
X156172102Y-75128130D01*
X156164442Y-75135507D01*
X156148987Y-75148811D01*
X156133384Y-75160949D01*
X156117642Y-75171934D01*
X156101769Y-75181778D01*
X156085771Y-75190495D01*
X156069657Y-75198096D01*
X156053434Y-75204595D01*
X156037111Y-75210004D01*
X156020695Y-75214335D01*
X156004193Y-75217602D01*
X155987614Y-75219816D01*
X155970965Y-75220990D01*
X155954254Y-75221138D01*
X155937489Y-75220271D01*
X155920678Y-75218402D01*
X155903827Y-75215544D01*
X155886946Y-75211709D01*
X155870041Y-75206910D01*
X155853121Y-75201159D01*
X155836193Y-75194470D01*
X155819265Y-75186854D01*
X155802345Y-75178325D01*
X155785441Y-75168894D01*
X155768559Y-75158575D01*
X155751709Y-75147381D01*
X155734897Y-75135322D01*
X155701421Y-75108666D01*
X155668193Y-75078708D01*
X155635276Y-75045549D01*
X155455800Y-74849757D01*
X155502984Y-74849757D01*
X155651150Y-75003216D01*
X155681439Y-75035159D01*
X155711767Y-75064416D01*
X155742110Y-75090844D01*
X155772446Y-75114299D01*
X155787603Y-75124867D01*
X155802750Y-75134638D01*
X155817883Y-75143595D01*
X155833000Y-75151718D01*
X155848097Y-75158991D01*
X155863173Y-75165395D01*
X155878223Y-75170912D01*
X155893244Y-75175525D01*
X155908235Y-75179216D01*
X155923192Y-75181966D01*
X155938112Y-75183758D01*
X155952993Y-75184574D01*
X155967831Y-75184396D01*
X155982623Y-75183205D01*
X155997367Y-75180985D01*
X156012059Y-75177716D01*
X156026697Y-75173382D01*
X156041278Y-75167964D01*
X156055799Y-75161445D01*
X156070257Y-75153806D01*
X156084649Y-75145029D01*
X156098973Y-75135097D01*
X156113224Y-75123991D01*
X156127401Y-75111695D01*
X156135562Y-75103829D01*
X156143175Y-75095619D01*
X156150234Y-75087076D01*
X156156733Y-75078213D01*
X156162665Y-75069043D01*
X156168027Y-75059576D01*
X156172810Y-75049825D01*
X156177010Y-75039802D01*
X156180622Y-75029520D01*
X156183638Y-75018990D01*
X156186054Y-75008225D01*
X156187863Y-74997236D01*
X156189059Y-74986037D01*
X156189638Y-74974638D01*
X156189592Y-74963052D01*
X156188917Y-74951291D01*
X156187606Y-74939367D01*
X156185653Y-74927293D01*
X156183054Y-74915080D01*
X156179801Y-74902741D01*
X156175889Y-74890287D01*
X156171313Y-74877731D01*
X156166066Y-74865086D01*
X156160143Y-74852362D01*
X156153538Y-74839572D01*
X156146245Y-74826728D01*
X156138258Y-74813843D01*
X156129571Y-74800928D01*
X156120179Y-74787996D01*
X156110076Y-74775058D01*
X156099256Y-74762127D01*
X156087713Y-74749216D01*
X155936900Y-74585174D01*
X155502984Y-74849757D01*
X155455800Y-74849757D01*
X155431546Y-74823299D01*
X155867217Y-74566653D01*
G36*
X157000525Y-75050841D02*
G01*
X156780921Y-75360403D01*
X156737389Y-75419686D01*
X156692616Y-75479466D01*
X156614233Y-75582653D01*
X156939670Y-75582653D01*
X157386816Y-75595882D01*
X157415920Y-75638215D01*
X156590421Y-75617049D01*
X156230587Y-75775799D01*
X156204129Y-75736112D01*
X156569256Y-75580007D01*
X156974067Y-75011153D01*
X157000525Y-75050841D01*
G37*
X157000525Y-75050841D02*
X156780921Y-75360403D01*
X156737389Y-75419686D01*
X156692616Y-75479466D01*
X156614233Y-75582653D01*
X156939670Y-75582653D01*
X157386816Y-75595882D01*
X157415920Y-75638215D01*
X156590421Y-75617049D01*
X156230587Y-75775799D01*
X156204129Y-75736112D01*
X156569256Y-75580007D01*
X156974067Y-75011153D01*
X157000525Y-75050841D01*
G36*
X143960550Y-74872258D02*
G01*
X143970118Y-74872718D01*
X143979705Y-74873529D01*
X143989302Y-74874693D01*
X143998901Y-74876216D01*
X143998901Y-74923841D01*
X143982734Y-74921246D01*
X143966577Y-74919856D01*
X143950491Y-74919645D01*
X143934531Y-74920592D01*
X143918756Y-74922673D01*
X143903225Y-74925866D01*
X143887994Y-74930146D01*
X143873122Y-74935490D01*
X143858666Y-74941877D01*
X143844685Y-74949281D01*
X143831237Y-74957681D01*
X143818378Y-74967053D01*
X143806168Y-74977374D01*
X143794664Y-74988621D01*
X143783924Y-75000770D01*
X143774006Y-75013799D01*
X143758183Y-75037161D01*
X143744412Y-75061073D01*
X143732635Y-75085481D01*
X143722794Y-75110331D01*
X143714834Y-75135568D01*
X143708696Y-75161139D01*
X143704323Y-75186989D01*
X143701659Y-75213063D01*
X143700645Y-75239309D01*
X143701226Y-75265670D01*
X143703343Y-75292093D01*
X143706940Y-75318525D01*
X143711959Y-75344909D01*
X143718344Y-75371193D01*
X143726036Y-75397322D01*
X143734980Y-75423242D01*
X143756390Y-75474236D01*
X143782119Y-75523742D01*
X143811707Y-75571326D01*
X143844699Y-75616553D01*
X143880636Y-75658990D01*
X143919061Y-75698202D01*
X143959518Y-75733755D01*
X144001547Y-75765216D01*
X144033960Y-75787330D01*
X144066629Y-75806944D01*
X144099437Y-75823916D01*
X144132268Y-75838100D01*
X144165006Y-75849355D01*
X144181304Y-75853838D01*
X144197535Y-75857536D01*
X144213685Y-75860429D01*
X144229739Y-75862500D01*
X144245682Y-75863731D01*
X144261500Y-75864104D01*
X144277179Y-75863601D01*
X144292704Y-75862204D01*
X144308060Y-75859896D01*
X144323233Y-75856657D01*
X144338208Y-75852471D01*
X144352972Y-75847320D01*
X144367508Y-75841185D01*
X144381803Y-75834049D01*
X144395843Y-75825893D01*
X144409612Y-75816700D01*
X144423096Y-75806452D01*
X144436281Y-75795131D01*
X144449151Y-75782719D01*
X144461694Y-75769198D01*
X144473893Y-75754550D01*
X144485735Y-75738757D01*
X144495533Y-75724138D01*
X144504607Y-75709137D01*
X144512951Y-75693782D01*
X144520557Y-75678099D01*
X144527420Y-75662116D01*
X144533532Y-75645859D01*
X144538886Y-75629356D01*
X144543476Y-75612633D01*
X144547296Y-75595717D01*
X144550338Y-75578635D01*
X144552595Y-75561415D01*
X144554061Y-75544083D01*
X144554730Y-75526665D01*
X144554594Y-75509190D01*
X144553646Y-75491684D01*
X144551881Y-75474174D01*
X144594214Y-75474174D01*
X144596413Y-75494032D01*
X144597639Y-75513889D01*
X144597901Y-75533713D01*
X144597208Y-75553470D01*
X144595567Y-75573126D01*
X144592989Y-75592649D01*
X144589481Y-75612004D01*
X144585051Y-75631158D01*
X144579709Y-75650078D01*
X144573464Y-75668731D01*
X144566322Y-75687082D01*
X144558294Y-75705099D01*
X144549388Y-75722748D01*
X144539612Y-75739996D01*
X144528975Y-75756809D01*
X144517485Y-75773154D01*
X144505614Y-75788840D01*
X144492959Y-75803758D01*
X144479557Y-75817886D01*
X144465448Y-75831202D01*
X144450670Y-75843684D01*
X144435262Y-75855312D01*
X144419262Y-75866062D01*
X144402710Y-75875915D01*
X144385643Y-75884847D01*
X144368102Y-75892838D01*
X144350124Y-75899866D01*
X144331747Y-75905909D01*
X144313012Y-75910945D01*
X144293956Y-75914954D01*
X144274618Y-75917912D01*
X144255037Y-75919800D01*
X144235381Y-75920592D01*
X144215820Y-75920290D01*
X144196396Y-75918909D01*
X144177150Y-75916467D01*
X144158123Y-75912978D01*
X144139356Y-75908460D01*
X144120891Y-75902928D01*
X144102769Y-75896398D01*
X144085031Y-75888888D01*
X144067718Y-75880412D01*
X144050872Y-75870987D01*
X144034534Y-75860630D01*
X144018746Y-75849356D01*
X144003548Y-75837181D01*
X143988982Y-75824122D01*
X143975089Y-75810195D01*
X143951961Y-75793003D01*
X143929248Y-75774705D01*
X143885306Y-75735011D01*
X143843736Y-75691557D01*
X143805011Y-75644789D01*
X143786863Y-75620301D01*
X143769604Y-75595153D01*
X143753292Y-75569399D01*
X143737987Y-75543095D01*
X143723748Y-75516296D01*
X143710633Y-75489060D01*
X143698703Y-75461441D01*
X143688016Y-75433494D01*
X143678631Y-75405276D01*
X143670607Y-75376843D01*
X143664004Y-75348250D01*
X143658881Y-75319553D01*
X143655296Y-75290807D01*
X143653309Y-75262069D01*
X143652979Y-75233393D01*
X143654364Y-75204836D01*
X143657525Y-75176454D01*
X143662520Y-75148302D01*
X143669408Y-75120435D01*
X143678249Y-75092910D01*
X143689101Y-75065783D01*
X143702024Y-75039108D01*
X143717077Y-75012942D01*
X143734318Y-74987341D01*
X143739951Y-74979421D01*
X143745839Y-74971753D01*
X143751972Y-74964339D01*
X143758342Y-74957185D01*
X143764941Y-74950293D01*
X143771761Y-74943666D01*
X143778793Y-74937309D01*
X143786029Y-74931224D01*
X143793459Y-74925416D01*
X143801077Y-74919887D01*
X143808873Y-74914642D01*
X143816839Y-74909684D01*
X143824967Y-74905016D01*
X143833248Y-74900642D01*
X143841673Y-74896566D01*
X143850235Y-74892791D01*
X143858925Y-74889320D01*
X143867734Y-74886158D01*
X143876655Y-74883307D01*
X143885678Y-74880772D01*
X143894795Y-74878555D01*
X143903999Y-74876660D01*
X143913279Y-74875091D01*
X143922629Y-74873852D01*
X143932039Y-74872945D01*
X143941502Y-74872375D01*
X143951008Y-74872145D01*
X143960550Y-74872258D01*
G37*
X143960550Y-74872258D02*
X143970118Y-74872718D01*
X143979705Y-74873529D01*
X143989302Y-74874693D01*
X143998901Y-74876216D01*
X143998901Y-74923841D01*
X143982734Y-74921246D01*
X143966577Y-74919856D01*
X143950491Y-74919645D01*
X143934531Y-74920592D01*
X143918756Y-74922673D01*
X143903225Y-74925866D01*
X143887994Y-74930146D01*
X143873122Y-74935490D01*
X143858666Y-74941877D01*
X143844685Y-74949281D01*
X143831237Y-74957681D01*
X143818378Y-74967053D01*
X143806168Y-74977374D01*
X143794664Y-74988621D01*
X143783924Y-75000770D01*
X143774006Y-75013799D01*
X143758183Y-75037161D01*
X143744412Y-75061073D01*
X143732635Y-75085481D01*
X143722794Y-75110331D01*
X143714834Y-75135568D01*
X143708696Y-75161139D01*
X143704323Y-75186989D01*
X143701659Y-75213063D01*
X143700645Y-75239309D01*
X143701226Y-75265670D01*
X143703343Y-75292093D01*
X143706940Y-75318525D01*
X143711959Y-75344909D01*
X143718344Y-75371193D01*
X143726036Y-75397322D01*
X143734980Y-75423242D01*
X143756390Y-75474236D01*
X143782119Y-75523742D01*
X143811707Y-75571326D01*
X143844699Y-75616553D01*
X143880636Y-75658990D01*
X143919061Y-75698202D01*
X143959518Y-75733755D01*
X144001547Y-75765216D01*
X144033960Y-75787330D01*
X144066629Y-75806944D01*
X144099437Y-75823916D01*
X144132268Y-75838100D01*
X144165006Y-75849355D01*
X144181304Y-75853838D01*
X144197535Y-75857536D01*
X144213685Y-75860429D01*
X144229739Y-75862500D01*
X144245682Y-75863731D01*
X144261500Y-75864104D01*
X144277179Y-75863601D01*
X144292704Y-75862204D01*
X144308060Y-75859896D01*
X144323233Y-75856657D01*
X144338208Y-75852471D01*
X144352972Y-75847320D01*
X144367508Y-75841185D01*
X144381803Y-75834049D01*
X144395843Y-75825893D01*
X144409612Y-75816700D01*
X144423096Y-75806452D01*
X144436281Y-75795131D01*
X144449151Y-75782719D01*
X144461694Y-75769198D01*
X144473893Y-75754550D01*
X144485735Y-75738757D01*
X144495533Y-75724138D01*
X144504607Y-75709137D01*
X144512951Y-75693782D01*
X144520557Y-75678099D01*
X144527420Y-75662116D01*
X144533532Y-75645859D01*
X144538886Y-75629356D01*
X144543476Y-75612633D01*
X144547296Y-75595717D01*
X144550338Y-75578635D01*
X144552595Y-75561415D01*
X144554061Y-75544083D01*
X144554730Y-75526665D01*
X144554594Y-75509190D01*
X144553646Y-75491684D01*
X144551881Y-75474174D01*
X144594214Y-75474174D01*
X144596413Y-75494032D01*
X144597639Y-75513889D01*
X144597901Y-75533713D01*
X144597208Y-75553470D01*
X144595567Y-75573126D01*
X144592989Y-75592649D01*
X144589481Y-75612004D01*
X144585051Y-75631158D01*
X144579709Y-75650078D01*
X144573464Y-75668731D01*
X144566322Y-75687082D01*
X144558294Y-75705099D01*
X144549388Y-75722748D01*
X144539612Y-75739996D01*
X144528975Y-75756809D01*
X144517485Y-75773154D01*
X144505614Y-75788840D01*
X144492959Y-75803758D01*
X144479557Y-75817886D01*
X144465448Y-75831202D01*
X144450670Y-75843684D01*
X144435262Y-75855312D01*
X144419262Y-75866062D01*
X144402710Y-75875915D01*
X144385643Y-75884847D01*
X144368102Y-75892838D01*
X144350124Y-75899866D01*
X144331747Y-75905909D01*
X144313012Y-75910945D01*
X144293956Y-75914954D01*
X144274618Y-75917912D01*
X144255037Y-75919800D01*
X144235381Y-75920592D01*
X144215820Y-75920290D01*
X144196396Y-75918909D01*
X144177150Y-75916467D01*
X144158123Y-75912978D01*
X144139356Y-75908460D01*
X144120891Y-75902928D01*
X144102769Y-75896398D01*
X144085031Y-75888888D01*
X144067718Y-75880412D01*
X144050872Y-75870987D01*
X144034534Y-75860630D01*
X144018746Y-75849356D01*
X144003548Y-75837181D01*
X143988982Y-75824122D01*
X143975089Y-75810195D01*
X143951961Y-75793003D01*
X143929248Y-75774705D01*
X143885306Y-75735011D01*
X143843736Y-75691557D01*
X143805011Y-75644789D01*
X143786863Y-75620301D01*
X143769604Y-75595153D01*
X143753292Y-75569399D01*
X143737987Y-75543095D01*
X143723748Y-75516296D01*
X143710633Y-75489060D01*
X143698703Y-75461441D01*
X143688016Y-75433494D01*
X143678631Y-75405276D01*
X143670607Y-75376843D01*
X143664004Y-75348250D01*
X143658881Y-75319553D01*
X143655296Y-75290807D01*
X143653309Y-75262069D01*
X143652979Y-75233393D01*
X143654364Y-75204836D01*
X143657525Y-75176454D01*
X143662520Y-75148302D01*
X143669408Y-75120435D01*
X143678249Y-75092910D01*
X143689101Y-75065783D01*
X143702024Y-75039108D01*
X143717077Y-75012942D01*
X143734318Y-74987341D01*
X143739951Y-74979421D01*
X143745839Y-74971753D01*
X143751972Y-74964339D01*
X143758342Y-74957185D01*
X143764941Y-74950293D01*
X143771761Y-74943666D01*
X143778793Y-74937309D01*
X143786029Y-74931224D01*
X143793459Y-74925416D01*
X143801077Y-74919887D01*
X143808873Y-74914642D01*
X143816839Y-74909684D01*
X143824967Y-74905016D01*
X143833248Y-74900642D01*
X143841673Y-74896566D01*
X143850235Y-74892791D01*
X143858925Y-74889320D01*
X143867734Y-74886158D01*
X143876655Y-74883307D01*
X143885678Y-74880772D01*
X143894795Y-74878555D01*
X143903999Y-74876660D01*
X143913279Y-74875091D01*
X143922629Y-74873852D01*
X143932039Y-74872945D01*
X143941502Y-74872375D01*
X143951008Y-74872145D01*
X143960550Y-74872258D01*
G36*
X143144297Y-75945132D02*
G01*
X143144297Y-75902799D01*
X144136485Y-76273215D01*
X144112672Y-76315549D01*
X143776139Y-76183995D01*
X143566798Y-76547333D01*
X143797818Y-76913507D01*
X143774006Y-76958486D01*
X143510942Y-76535153D01*
X143538526Y-76535153D01*
X143557047Y-76564257D01*
X143566798Y-76547333D01*
X143548026Y-76517578D01*
X143538526Y-76535153D01*
X143510942Y-76535153D01*
X143149230Y-75953070D01*
X143186631Y-75953070D01*
X143242937Y-76041788D01*
X143297756Y-76127033D01*
X143408881Y-76297028D01*
X143548026Y-76517578D01*
X143736679Y-76168570D01*
X143776139Y-76183995D01*
X143787235Y-76164736D01*
X143750193Y-76143570D01*
X143736679Y-76168570D01*
X143530589Y-76088007D01*
X143186631Y-75953070D01*
X143149230Y-75953070D01*
X143144297Y-75945132D01*
G37*
X143144297Y-75945132D02*
X143144297Y-75902799D01*
X144136485Y-76273215D01*
X144112672Y-76315549D01*
X143776139Y-76183995D01*
X143566798Y-76547333D01*
X143797818Y-76913507D01*
X143774006Y-76958486D01*
X143510942Y-76535153D01*
X143538526Y-76535153D01*
X143557047Y-76564257D01*
X143566798Y-76547333D01*
X143548026Y-76517578D01*
X143538526Y-76535153D01*
X143510942Y-76535153D01*
X143149230Y-75953070D01*
X143186631Y-75953070D01*
X143242937Y-76041788D01*
X143297756Y-76127033D01*
X143408881Y-76297028D01*
X143548026Y-76517578D01*
X143736679Y-76168570D01*
X143776139Y-76183995D01*
X143787235Y-76164736D01*
X143750193Y-76143570D01*
X143736679Y-76168570D01*
X143530589Y-76088007D01*
X143186631Y-75953070D01*
X143149230Y-75953070D01*
X143144297Y-75945132D01*
G36*
X142866485Y-76558966D02*
G01*
X142668047Y-77088132D01*
X143051693Y-77331549D01*
X143221026Y-76900278D01*
X143255422Y-76924091D01*
X143088735Y-77352716D01*
X143533235Y-77635820D01*
X143517360Y-77680799D01*
X142615131Y-77096070D01*
X142832089Y-76535153D01*
X142866485Y-76558966D01*
G37*
X142866485Y-76558966D02*
X142668047Y-77088132D01*
X143051693Y-77331549D01*
X143221026Y-76900278D01*
X143255422Y-76924091D01*
X143088735Y-77352716D01*
X143533235Y-77635820D01*
X143517360Y-77680799D01*
X142615131Y-77096070D01*
X142832089Y-76535153D01*
X142866485Y-76558966D01*
G36*
X157722461Y-76938524D02*
G01*
X157782361Y-76945896D01*
X157840908Y-76958156D01*
X157897502Y-76975469D01*
X157924879Y-76986073D01*
X157951542Y-76998003D01*
X157977416Y-77011280D01*
X158002427Y-77025925D01*
X158026499Y-77041958D01*
X158049556Y-77059400D01*
X158071525Y-77078272D01*
X158092329Y-77098596D01*
X158111895Y-77120391D01*
X158130145Y-77143679D01*
X158147007Y-77168480D01*
X158162403Y-77194816D01*
X158176261Y-77222707D01*
X158188503Y-77252174D01*
X158194853Y-77270138D01*
X158199854Y-77288341D01*
X158203520Y-77306714D01*
X158205864Y-77325189D01*
X158206899Y-77343698D01*
X158206637Y-77362172D01*
X158205092Y-77380543D01*
X158202277Y-77398743D01*
X158198204Y-77416704D01*
X158192888Y-77434356D01*
X158186340Y-77451633D01*
X158178573Y-77468465D01*
X158169602Y-77484785D01*
X158159438Y-77500524D01*
X158148095Y-77515614D01*
X158135586Y-77529986D01*
X158098545Y-77503527D01*
X158109559Y-77491378D01*
X158119581Y-77478590D01*
X158128599Y-77465224D01*
X158136601Y-77451336D01*
X158143573Y-77436986D01*
X158149504Y-77422233D01*
X158154381Y-77407135D01*
X158158193Y-77391751D01*
X158160925Y-77376139D01*
X158162567Y-77360357D01*
X158163106Y-77344466D01*
X158162529Y-77328522D01*
X158160824Y-77312586D01*
X158157978Y-77296714D01*
X158153980Y-77280967D01*
X158148817Y-77265403D01*
X158137823Y-77238129D01*
X158125232Y-77212352D01*
X158111124Y-77188047D01*
X158095574Y-77165192D01*
X158078663Y-77143763D01*
X158060467Y-77123737D01*
X158041065Y-77105091D01*
X158020535Y-77087801D01*
X157998954Y-77071845D01*
X157976401Y-77057198D01*
X157952954Y-77043839D01*
X157928690Y-77031743D01*
X157903688Y-77020887D01*
X157878026Y-77011248D01*
X157851781Y-77002802D01*
X157825032Y-76995528D01*
X157797857Y-76989400D01*
X157770333Y-76984397D01*
X157742540Y-76980494D01*
X157714553Y-76977668D01*
X157686453Y-76975897D01*
X157658316Y-76975157D01*
X157602245Y-76976676D01*
X157546965Y-76982040D01*
X157493099Y-76991063D01*
X157441272Y-77003558D01*
X157392108Y-77019340D01*
X157356673Y-77033573D01*
X157322944Y-77049488D01*
X157291137Y-77067093D01*
X157276022Y-77076532D01*
X157261470Y-77086395D01*
X157247506Y-77096686D01*
X157234159Y-77107403D01*
X157221455Y-77118549D01*
X157209421Y-77130124D01*
X157198085Y-77142129D01*
X157187474Y-77154566D01*
X157177615Y-77167434D01*
X157168535Y-77180736D01*
X157160261Y-77194472D01*
X157152820Y-77208642D01*
X157146239Y-77223249D01*
X157140547Y-77238293D01*
X157135768Y-77253775D01*
X157131932Y-77269696D01*
X157129065Y-77286056D01*
X157127193Y-77302858D01*
X157126345Y-77320101D01*
X157126547Y-77337787D01*
X157127827Y-77355917D01*
X157130211Y-77374491D01*
X157133727Y-77393512D01*
X157138402Y-77412979D01*
X157144263Y-77432894D01*
X157151336Y-77453257D01*
X157156521Y-77468093D01*
X157162429Y-77482578D01*
X157169040Y-77496688D01*
X157176336Y-77510402D01*
X157184295Y-77523697D01*
X157192900Y-77536550D01*
X157202129Y-77548939D01*
X157211964Y-77560840D01*
X157222385Y-77572233D01*
X157233372Y-77583093D01*
X157244905Y-77593399D01*
X157256966Y-77603127D01*
X157269534Y-77612256D01*
X157282590Y-77620763D01*
X157296114Y-77628625D01*
X157310086Y-77635820D01*
X157664628Y-77580257D01*
X157577315Y-77344778D01*
X157619649Y-77344778D01*
X157722835Y-77625236D01*
X157302149Y-77688736D01*
X157285752Y-77679466D01*
X157269846Y-77669504D01*
X157254449Y-77658870D01*
X157239580Y-77647587D01*
X157225256Y-77635675D01*
X157211497Y-77623155D01*
X157198320Y-77610048D01*
X157185745Y-77596375D01*
X157173789Y-77582157D01*
X157162472Y-77567415D01*
X157151811Y-77552170D01*
X157141826Y-77536442D01*
X157132533Y-77520254D01*
X157123953Y-77503626D01*
X157116104Y-77486578D01*
X157109003Y-77469132D01*
X157102234Y-77450613D01*
X157096525Y-77431851D01*
X157091873Y-77412890D01*
X157088276Y-77393773D01*
X157085731Y-77374543D01*
X157084237Y-77355244D01*
X157083789Y-77335919D01*
X157084387Y-77316611D01*
X157086027Y-77297364D01*
X157088707Y-77278220D01*
X157092424Y-77259224D01*
X157097176Y-77240418D01*
X157102960Y-77221845D01*
X157109774Y-77203549D01*
X157117616Y-77185574D01*
X157126482Y-77167962D01*
X157136305Y-77150866D01*
X157146995Y-77134425D01*
X157158519Y-77118665D01*
X157170840Y-77103613D01*
X157183925Y-77089293D01*
X157197739Y-77075733D01*
X157212246Y-77062958D01*
X157227412Y-77050995D01*
X157243203Y-77039868D01*
X157259583Y-77029603D01*
X157276518Y-77020228D01*
X157293973Y-77011767D01*
X157311913Y-77004247D01*
X157330304Y-76997694D01*
X157349110Y-76992133D01*
X157368297Y-76987591D01*
X157368296Y-76987591D01*
X157423697Y-76969139D01*
X157481349Y-76954574D01*
X157540652Y-76944064D01*
X157601006Y-76937774D01*
X157661809Y-76935872D01*
X157722461Y-76938524D01*
G37*
X157722461Y-76938524D02*
X157782361Y-76945896D01*
X157840908Y-76958156D01*
X157897502Y-76975469D01*
X157924879Y-76986073D01*
X157951542Y-76998003D01*
X157977416Y-77011280D01*
X158002427Y-77025925D01*
X158026499Y-77041958D01*
X158049556Y-77059400D01*
X158071525Y-77078272D01*
X158092329Y-77098596D01*
X158111895Y-77120391D01*
X158130145Y-77143679D01*
X158147007Y-77168480D01*
X158162403Y-77194816D01*
X158176261Y-77222707D01*
X158188503Y-77252174D01*
X158194853Y-77270138D01*
X158199854Y-77288341D01*
X158203520Y-77306714D01*
X158205864Y-77325189D01*
X158206899Y-77343698D01*
X158206637Y-77362172D01*
X158205092Y-77380543D01*
X158202277Y-77398743D01*
X158198204Y-77416704D01*
X158192888Y-77434356D01*
X158186340Y-77451633D01*
X158178573Y-77468465D01*
X158169602Y-77484785D01*
X158159438Y-77500524D01*
X158148095Y-77515614D01*
X158135586Y-77529986D01*
X158098545Y-77503527D01*
X158109559Y-77491378D01*
X158119581Y-77478590D01*
X158128599Y-77465224D01*
X158136601Y-77451336D01*
X158143573Y-77436986D01*
X158149504Y-77422233D01*
X158154381Y-77407135D01*
X158158193Y-77391751D01*
X158160925Y-77376139D01*
X158162567Y-77360357D01*
X158163106Y-77344466D01*
X158162529Y-77328522D01*
X158160824Y-77312586D01*
X158157978Y-77296714D01*
X158153980Y-77280967D01*
X158148817Y-77265403D01*
X158137823Y-77238129D01*
X158125232Y-77212352D01*
X158111124Y-77188047D01*
X158095574Y-77165192D01*
X158078663Y-77143763D01*
X158060467Y-77123737D01*
X158041065Y-77105091D01*
X158020535Y-77087801D01*
X157998954Y-77071845D01*
X157976401Y-77057198D01*
X157952954Y-77043839D01*
X157928690Y-77031743D01*
X157903688Y-77020887D01*
X157878026Y-77011248D01*
X157851781Y-77002802D01*
X157825032Y-76995528D01*
X157797857Y-76989400D01*
X157770333Y-76984397D01*
X157742540Y-76980494D01*
X157714553Y-76977668D01*
X157686453Y-76975897D01*
X157658316Y-76975157D01*
X157602245Y-76976676D01*
X157546965Y-76982040D01*
X157493099Y-76991063D01*
X157441272Y-77003558D01*
X157392108Y-77019340D01*
X157356673Y-77033573D01*
X157322944Y-77049488D01*
X157291137Y-77067093D01*
X157276022Y-77076532D01*
X157261470Y-77086395D01*
X157247506Y-77096686D01*
X157234159Y-77107403D01*
X157221455Y-77118549D01*
X157209421Y-77130124D01*
X157198085Y-77142129D01*
X157187474Y-77154566D01*
X157177615Y-77167434D01*
X157168535Y-77180736D01*
X157160261Y-77194472D01*
X157152820Y-77208642D01*
X157146239Y-77223249D01*
X157140547Y-77238293D01*
X157135768Y-77253775D01*
X157131932Y-77269696D01*
X157129065Y-77286056D01*
X157127193Y-77302858D01*
X157126345Y-77320101D01*
X157126547Y-77337787D01*
X157127827Y-77355917D01*
X157130211Y-77374491D01*
X157133727Y-77393512D01*
X157138402Y-77412979D01*
X157144263Y-77432894D01*
X157151336Y-77453257D01*
X157156521Y-77468093D01*
X157162429Y-77482578D01*
X157169040Y-77496688D01*
X157176336Y-77510402D01*
X157184295Y-77523697D01*
X157192900Y-77536550D01*
X157202129Y-77548939D01*
X157211964Y-77560840D01*
X157222385Y-77572233D01*
X157233372Y-77583093D01*
X157244905Y-77593399D01*
X157256966Y-77603127D01*
X157269534Y-77612256D01*
X157282590Y-77620763D01*
X157296114Y-77628625D01*
X157310086Y-77635820D01*
X157664628Y-77580257D01*
X157577315Y-77344778D01*
X157619649Y-77344778D01*
X157722835Y-77625236D01*
X157302149Y-77688736D01*
X157285752Y-77679466D01*
X157269846Y-77669504D01*
X157254449Y-77658870D01*
X157239580Y-77647587D01*
X157225256Y-77635675D01*
X157211497Y-77623155D01*
X157198320Y-77610048D01*
X157185745Y-77596375D01*
X157173789Y-77582157D01*
X157162472Y-77567415D01*
X157151811Y-77552170D01*
X157141826Y-77536442D01*
X157132533Y-77520254D01*
X157123953Y-77503626D01*
X157116104Y-77486578D01*
X157109003Y-77469132D01*
X157102234Y-77450613D01*
X157096525Y-77431851D01*
X157091873Y-77412890D01*
X157088276Y-77393773D01*
X157085731Y-77374543D01*
X157084237Y-77355244D01*
X157083789Y-77335919D01*
X157084387Y-77316611D01*
X157086027Y-77297364D01*
X157088707Y-77278220D01*
X157092424Y-77259224D01*
X157097176Y-77240418D01*
X157102960Y-77221845D01*
X157109774Y-77203549D01*
X157117616Y-77185574D01*
X157126482Y-77167962D01*
X157136305Y-77150866D01*
X157146995Y-77134425D01*
X157158519Y-77118665D01*
X157170840Y-77103613D01*
X157183925Y-77089293D01*
X157197739Y-77075733D01*
X157212246Y-77062958D01*
X157227412Y-77050995D01*
X157243203Y-77039868D01*
X157259583Y-77029603D01*
X157276518Y-77020228D01*
X157293973Y-77011767D01*
X157311913Y-77004247D01*
X157330304Y-76997694D01*
X157349110Y-76992133D01*
X157368297Y-76987591D01*
X157368296Y-76987591D01*
X157423697Y-76969139D01*
X157481349Y-76954574D01*
X157540652Y-76944064D01*
X157601006Y-76937774D01*
X157661809Y-76935872D01*
X157722461Y-76938524D01*
G36*
X158503359Y-78506299D02*
G01*
X158461025Y-78506299D01*
X158397526Y-78241715D01*
X157413275Y-78268174D01*
X157476775Y-78532757D01*
X157431797Y-78532757D01*
X157296860Y-77953319D01*
X157341839Y-77953319D01*
X157402693Y-78217903D01*
X158386942Y-78188799D01*
X158326088Y-77924215D01*
X158368421Y-77924215D01*
X158503359Y-78506299D01*
G37*
X158503359Y-78506299D02*
X158461025Y-78506299D01*
X158397526Y-78241715D01*
X157413275Y-78268174D01*
X157476775Y-78532757D01*
X157431797Y-78532757D01*
X157296860Y-77953319D01*
X157341839Y-77953319D01*
X157402693Y-78217903D01*
X158386942Y-78188799D01*
X158326088Y-77924215D01*
X158368421Y-77924215D01*
X158503359Y-78506299D01*
G36*
X143049047Y-77868653D02*
G01*
X143073258Y-77880449D01*
X143096294Y-77892511D01*
X143118175Y-77904829D01*
X143138918Y-77917389D01*
X143158543Y-77930180D01*
X143177069Y-77943189D01*
X143194514Y-77956405D01*
X143210898Y-77969815D01*
X143226239Y-77983407D01*
X143240557Y-77997169D01*
X143253870Y-78011089D01*
X143266197Y-78025155D01*
X143277557Y-78039355D01*
X143287969Y-78053676D01*
X143297451Y-78068107D01*
X143306024Y-78082635D01*
X143313705Y-78097248D01*
X143320513Y-78111935D01*
X143326468Y-78126682D01*
X143331588Y-78141479D01*
X143335892Y-78156312D01*
X143339400Y-78171170D01*
X143342129Y-78186041D01*
X143344099Y-78200912D01*
X143345329Y-78215771D01*
X143345837Y-78230607D01*
X143345643Y-78245407D01*
X143344766Y-78260159D01*
X143341035Y-78289470D01*
X143334797Y-78318444D01*
X143332451Y-78333337D01*
X143329282Y-78347988D01*
X143325309Y-78362367D01*
X143320551Y-78376445D01*
X143315028Y-78390193D01*
X143308758Y-78403580D01*
X143301761Y-78416578D01*
X143294056Y-78429157D01*
X143285663Y-78441288D01*
X143276600Y-78452940D01*
X143266887Y-78464084D01*
X143256543Y-78474691D01*
X143245587Y-78484732D01*
X143234039Y-78494176D01*
X143221918Y-78502994D01*
X143209243Y-78511157D01*
X143196124Y-78518586D01*
X143182683Y-78525220D01*
X143168953Y-78531055D01*
X143154971Y-78536089D01*
X143140772Y-78540318D01*
X143126390Y-78543738D01*
X143111861Y-78546347D01*
X143097219Y-78548141D01*
X143082501Y-78549116D01*
X143067740Y-78549271D01*
X143052972Y-78548600D01*
X143038232Y-78547101D01*
X143023556Y-78544770D01*
X143008977Y-78541605D01*
X142994532Y-78537602D01*
X142980256Y-78532757D01*
X142964319Y-78528276D01*
X142948484Y-78523466D01*
X142932756Y-78518327D01*
X142917140Y-78512862D01*
X142901642Y-78507073D01*
X142886266Y-78500961D01*
X142871018Y-78494529D01*
X142855902Y-78487778D01*
X142273818Y-78223194D01*
X142273818Y-78175569D01*
X142845318Y-78440153D01*
X142859844Y-78447503D01*
X142874592Y-78454369D01*
X142889547Y-78460746D01*
X142904699Y-78466628D01*
X142920035Y-78472013D01*
X142935544Y-78476895D01*
X142951211Y-78481270D01*
X142967026Y-78485132D01*
X142979870Y-78490851D01*
X142992944Y-78495782D01*
X143006216Y-78499928D01*
X143019650Y-78503288D01*
X143033212Y-78505862D01*
X143046867Y-78507652D01*
X143060582Y-78508657D01*
X143074321Y-78508878D01*
X143088051Y-78508315D01*
X143101737Y-78506969D01*
X143115343Y-78504840D01*
X143128837Y-78501929D01*
X143142183Y-78498237D01*
X143155348Y-78493762D01*
X143168296Y-78488507D01*
X143180993Y-78482471D01*
X143193317Y-78475705D01*
X143205154Y-78468280D01*
X143216485Y-78460222D01*
X143227289Y-78451559D01*
X143237544Y-78442319D01*
X143247232Y-78432530D01*
X143256330Y-78422219D01*
X143264819Y-78411413D01*
X143272679Y-78400142D01*
X143279888Y-78388432D01*
X143286426Y-78376310D01*
X143292273Y-78363806D01*
X143297409Y-78350945D01*
X143301812Y-78337757D01*
X143305462Y-78324268D01*
X143308339Y-78310507D01*
X143311034Y-78298052D01*
X143313158Y-78285499D01*
X143314696Y-78272860D01*
X143315636Y-78260143D01*
X143315963Y-78247361D01*
X143315664Y-78234523D01*
X143314726Y-78221641D01*
X143313134Y-78208725D01*
X143310877Y-78195786D01*
X143307938Y-78182834D01*
X143304307Y-78169880D01*
X143299967Y-78156935D01*
X143294907Y-78144009D01*
X143289113Y-78131114D01*
X143282570Y-78118259D01*
X143275266Y-78105455D01*
X143267187Y-78092713D01*
X143258319Y-78080044D01*
X143248648Y-78067459D01*
X143238162Y-78054967D01*
X143226847Y-78042580D01*
X143214688Y-78030309D01*
X143201673Y-78018163D01*
X143187788Y-78006154D01*
X143173019Y-77994292D01*
X143157353Y-77982588D01*
X143140776Y-77971053D01*
X143123275Y-77959697D01*
X143104836Y-77948530D01*
X143085446Y-77937565D01*
X143065090Y-77926811D01*
X143043756Y-77916278D01*
X142419339Y-77619944D01*
X142419339Y-77572319D01*
X143049047Y-77868653D01*
G37*
X143049047Y-77868653D02*
X143073258Y-77880449D01*
X143096294Y-77892511D01*
X143118175Y-77904829D01*
X143138918Y-77917389D01*
X143158543Y-77930180D01*
X143177069Y-77943189D01*
X143194514Y-77956405D01*
X143210898Y-77969815D01*
X143226239Y-77983407D01*
X143240557Y-77997169D01*
X143253870Y-78011089D01*
X143266197Y-78025155D01*
X143277557Y-78039355D01*
X143287969Y-78053676D01*
X143297451Y-78068107D01*
X143306024Y-78082635D01*
X143313705Y-78097248D01*
X143320513Y-78111935D01*
X143326468Y-78126682D01*
X143331588Y-78141479D01*
X143335892Y-78156312D01*
X143339400Y-78171170D01*
X143342129Y-78186041D01*
X143344099Y-78200912D01*
X143345329Y-78215771D01*
X143345837Y-78230607D01*
X143345643Y-78245407D01*
X143344766Y-78260159D01*
X143341035Y-78289470D01*
X143334797Y-78318444D01*
X143332451Y-78333337D01*
X143329282Y-78347988D01*
X143325309Y-78362367D01*
X143320551Y-78376445D01*
X143315028Y-78390193D01*
X143308758Y-78403580D01*
X143301761Y-78416578D01*
X143294056Y-78429157D01*
X143285663Y-78441288D01*
X143276600Y-78452940D01*
X143266887Y-78464084D01*
X143256543Y-78474691D01*
X143245587Y-78484732D01*
X143234039Y-78494176D01*
X143221918Y-78502994D01*
X143209243Y-78511157D01*
X143196124Y-78518586D01*
X143182683Y-78525220D01*
X143168953Y-78531055D01*
X143154971Y-78536089D01*
X143140772Y-78540318D01*
X143126390Y-78543738D01*
X143111861Y-78546347D01*
X143097219Y-78548141D01*
X143082501Y-78549116D01*
X143067740Y-78549271D01*
X143052972Y-78548600D01*
X143038232Y-78547101D01*
X143023556Y-78544770D01*
X143008977Y-78541605D01*
X142994532Y-78537602D01*
X142980256Y-78532757D01*
X142964319Y-78528276D01*
X142948484Y-78523466D01*
X142932756Y-78518327D01*
X142917140Y-78512862D01*
X142901642Y-78507073D01*
X142886266Y-78500961D01*
X142871018Y-78494529D01*
X142855902Y-78487778D01*
X142273818Y-78223194D01*
X142273818Y-78175569D01*
X142845318Y-78440153D01*
X142859844Y-78447503D01*
X142874592Y-78454369D01*
X142889547Y-78460746D01*
X142904699Y-78466628D01*
X142920035Y-78472013D01*
X142935544Y-78476895D01*
X142951211Y-78481270D01*
X142967026Y-78485132D01*
X142979870Y-78490851D01*
X142992944Y-78495782D01*
X143006216Y-78499928D01*
X143019650Y-78503288D01*
X143033212Y-78505862D01*
X143046867Y-78507652D01*
X143060582Y-78508657D01*
X143074321Y-78508878D01*
X143088051Y-78508315D01*
X143101737Y-78506969D01*
X143115343Y-78504840D01*
X143128837Y-78501929D01*
X143142183Y-78498237D01*
X143155348Y-78493762D01*
X143168296Y-78488507D01*
X143180993Y-78482471D01*
X143193317Y-78475705D01*
X143205154Y-78468280D01*
X143216485Y-78460222D01*
X143227289Y-78451559D01*
X143237544Y-78442319D01*
X143247232Y-78432530D01*
X143256330Y-78422219D01*
X143264819Y-78411413D01*
X143272679Y-78400142D01*
X143279888Y-78388432D01*
X143286426Y-78376310D01*
X143292273Y-78363806D01*
X143297409Y-78350945D01*
X143301812Y-78337757D01*
X143305462Y-78324268D01*
X143308339Y-78310507D01*
X143311034Y-78298052D01*
X143313158Y-78285499D01*
X143314696Y-78272860D01*
X143315636Y-78260143D01*
X143315963Y-78247361D01*
X143315664Y-78234523D01*
X143314726Y-78221641D01*
X143313134Y-78208725D01*
X143310877Y-78195786D01*
X143307938Y-78182834D01*
X143304307Y-78169880D01*
X143299967Y-78156935D01*
X143294907Y-78144009D01*
X143289113Y-78131114D01*
X143282570Y-78118259D01*
X143275266Y-78105455D01*
X143267187Y-78092713D01*
X143258319Y-78080044D01*
X143248648Y-78067459D01*
X143238162Y-78054967D01*
X143226847Y-78042580D01*
X143214688Y-78030309D01*
X143201673Y-78018163D01*
X143187788Y-78006154D01*
X143173019Y-77994292D01*
X143157353Y-77982588D01*
X143140776Y-77971053D01*
X143123275Y-77959697D01*
X143104836Y-77948530D01*
X143085446Y-77937565D01*
X143065090Y-77926811D01*
X143043756Y-77916278D01*
X142419339Y-77619944D01*
X142419339Y-77572319D01*
X143049047Y-77868653D01*
G36*
X157521754Y-78805278D02*
G01*
X158576381Y-79498909D01*
X158580087Y-79535528D01*
X158603899Y-79517007D01*
X158576381Y-79498909D01*
X158513941Y-78882007D01*
X158556274Y-78882007D01*
X158625067Y-79564632D01*
X158595962Y-79564632D01*
X157542175Y-78858595D01*
X157609067Y-79524945D01*
X157566733Y-79524945D01*
X157500286Y-78855549D01*
X157537628Y-78855549D01*
X157542175Y-78858595D01*
X157540275Y-78839674D01*
X157537628Y-78855549D01*
X157500286Y-78855549D01*
X157495296Y-78805278D01*
X157521754Y-78805278D01*
G37*
X157521754Y-78805278D02*
X158576381Y-79498909D01*
X158580087Y-79535528D01*
X158603899Y-79517007D01*
X158576381Y-79498909D01*
X158513941Y-78882007D01*
X158556274Y-78882007D01*
X158625067Y-79564632D01*
X158595962Y-79564632D01*
X157542175Y-78858595D01*
X157609067Y-79524945D01*
X157566733Y-79524945D01*
X157500286Y-78855549D01*
X157537628Y-78855549D01*
X157542175Y-78858595D01*
X157540275Y-78839674D01*
X157537628Y-78855549D01*
X157500286Y-78855549D01*
X157495296Y-78805278D01*
X157521754Y-78805278D01*
G36*
X143202505Y-78921694D02*
G01*
X143202505Y-78971966D01*
X142408756Y-79167757D01*
X142197089Y-79215382D01*
X142477547Y-79297403D01*
X143144297Y-79519653D01*
X143144297Y-79567278D01*
X142115068Y-79239195D01*
X142115068Y-79188924D01*
X142908818Y-78995778D01*
X143144297Y-78945507D01*
X142863839Y-78863486D01*
X142183860Y-78643882D01*
X142183860Y-78596257D01*
X143202505Y-78921694D01*
G37*
X143202505Y-78921694D02*
X143202505Y-78971966D01*
X142408756Y-79167757D01*
X142197089Y-79215382D01*
X142477547Y-79297403D01*
X143144297Y-79519653D01*
X143144297Y-79567278D01*
X142115068Y-79239195D01*
X142115068Y-79188924D01*
X142908818Y-78995778D01*
X143144297Y-78945507D01*
X142863839Y-78863486D01*
X142183860Y-78643882D01*
X142183860Y-78596257D01*
X143202505Y-78921694D01*
G36*
X143144297Y-79771007D02*
G01*
X143144297Y-79818631D01*
X142760651Y-79875288D01*
X142760651Y-80297637D01*
X143144297Y-80509195D01*
X143144297Y-80559466D01*
X142085964Y-79977382D01*
X142085964Y-79961507D01*
X142138881Y-79961507D01*
X142321112Y-80060064D01*
X142410120Y-80107358D01*
X142501360Y-80154653D01*
X142718318Y-80274292D01*
X142718318Y-80300174D01*
X142760651Y-80310757D01*
X142760651Y-80297637D01*
X142718318Y-80274292D01*
X142718318Y-79881540D01*
X142760651Y-79875288D01*
X142760651Y-79855674D01*
X142718318Y-79855674D01*
X142718318Y-79881540D01*
X142517235Y-79911236D01*
X142138881Y-79961507D01*
X142085964Y-79961507D01*
X142085964Y-79929756D01*
X143144297Y-79771007D01*
G37*
X143144297Y-79771007D02*
X143144297Y-79818631D01*
X142760651Y-79875288D01*
X142760651Y-80297637D01*
X143144297Y-80509195D01*
X143144297Y-80559466D01*
X142085964Y-79977382D01*
X142085964Y-79961507D01*
X142138881Y-79961507D01*
X142321112Y-80060064D01*
X142410120Y-80107358D01*
X142501360Y-80154653D01*
X142718318Y-80274292D01*
X142718318Y-80300174D01*
X142760651Y-80310757D01*
X142760651Y-80297637D01*
X142718318Y-80274292D01*
X142718318Y-79881540D01*
X142760651Y-79875288D01*
X142760651Y-79855674D01*
X142718318Y-79855674D01*
X142718318Y-79881540D01*
X142517235Y-79911236D01*
X142138881Y-79961507D01*
X142085964Y-79961507D01*
X142085964Y-79929756D01*
X143144297Y-79771007D01*
G36*
X158625067Y-79969444D02*
G01*
X158625067Y-80038236D01*
X158069443Y-80120257D01*
X157921275Y-80136131D01*
X158069443Y-80218152D01*
X158598610Y-80554174D01*
X158598610Y-80620320D01*
X157556151Y-80384840D01*
X157556151Y-80337216D01*
X158349901Y-80517132D01*
X158545692Y-80570049D01*
X158525063Y-80559987D01*
X158504682Y-80549585D01*
X158484301Y-80538748D01*
X158463672Y-80527385D01*
X158442547Y-80515401D01*
X158420677Y-80502704D01*
X158373714Y-80474798D01*
X157844547Y-80152007D01*
X157844547Y-80104382D01*
X158373714Y-80030298D01*
X158545692Y-80006486D01*
X158533261Y-80006215D01*
X158520779Y-80005432D01*
X158508259Y-80004184D01*
X158495711Y-80002517D01*
X158483148Y-80000479D01*
X158470582Y-79998115D01*
X158445483Y-79992596D01*
X158420507Y-79986332D01*
X158395749Y-79979697D01*
X158347256Y-79966799D01*
X157553506Y-79786882D01*
X157553506Y-79739257D01*
X158625067Y-79969444D01*
G37*
X158625067Y-79969444D02*
X158625067Y-80038236D01*
X158069443Y-80120257D01*
X157921275Y-80136131D01*
X158069443Y-80218152D01*
X158598610Y-80554174D01*
X158598610Y-80620320D01*
X157556151Y-80384840D01*
X157556151Y-80337216D01*
X158349901Y-80517132D01*
X158545692Y-80570049D01*
X158525063Y-80559987D01*
X158504682Y-80549585D01*
X158484301Y-80538748D01*
X158463672Y-80527385D01*
X158442547Y-80515401D01*
X158420677Y-80502704D01*
X158373714Y-80474798D01*
X157844547Y-80152007D01*
X157844547Y-80104382D01*
X158373714Y-80030298D01*
X158545692Y-80006486D01*
X158533261Y-80006215D01*
X158520779Y-80005432D01*
X158508259Y-80004184D01*
X158495711Y-80002517D01*
X158483148Y-80000479D01*
X158470582Y-79998115D01*
X158445483Y-79992596D01*
X158420507Y-79986332D01*
X158395749Y-79979697D01*
X158347256Y-79966799D01*
X157553506Y-79786882D01*
X157553506Y-79739257D01*
X158625067Y-79969444D01*
G36*
X143173402Y-80752612D02*
G01*
X143173402Y-80800237D01*
X142363777Y-80749967D01*
X142313754Y-80749677D01*
X142288525Y-80748990D01*
X142263235Y-80747652D01*
X142237944Y-80745445D01*
X142225319Y-80743948D01*
X142212716Y-80742153D01*
X142200144Y-80740032D01*
X142187612Y-80737559D01*
X142175125Y-80734706D01*
X142162693Y-80731446D01*
X142184433Y-80738525D01*
X142206143Y-80745915D01*
X142228038Y-80753677D01*
X142250336Y-80761873D01*
X142297011Y-80779815D01*
X142347902Y-80800237D01*
X142916756Y-81033071D01*
X142916756Y-81080695D01*
X142400818Y-81239445D01*
X142231485Y-81292362D01*
X142429922Y-81292362D01*
X143242193Y-81339987D01*
X143242193Y-81387613D01*
X142197089Y-81342632D01*
X142197089Y-81273840D01*
X142726256Y-81101861D01*
X142869131Y-81062173D01*
X142710381Y-81003965D01*
X142115068Y-80755257D01*
X142115068Y-80689112D01*
X143173402Y-80752612D01*
G37*
X143173402Y-80752612D02*
X143173402Y-80800237D01*
X142363777Y-80749967D01*
X142313754Y-80749677D01*
X142288525Y-80748990D01*
X142263235Y-80747652D01*
X142237944Y-80745445D01*
X142225319Y-80743948D01*
X142212716Y-80742153D01*
X142200144Y-80740032D01*
X142187612Y-80737559D01*
X142175125Y-80734706D01*
X142162693Y-80731446D01*
X142184433Y-80738525D01*
X142206143Y-80745915D01*
X142228038Y-80753677D01*
X142250336Y-80761873D01*
X142297011Y-80779815D01*
X142347902Y-80800237D01*
X142916756Y-81033071D01*
X142916756Y-81080695D01*
X142400818Y-81239445D01*
X142231485Y-81292362D01*
X142429922Y-81292362D01*
X143242193Y-81339987D01*
X143242193Y-81387613D01*
X142197089Y-81342632D01*
X142197089Y-81273840D01*
X142726256Y-81101861D01*
X142869131Y-81062173D01*
X142710381Y-81003965D01*
X142115068Y-80755257D01*
X142115068Y-80689112D01*
X143173402Y-80752612D01*
G36*
X157482068Y-81009258D02*
G01*
X157485483Y-80989770D01*
X157489764Y-80970997D01*
X157494893Y-80952937D01*
X157500852Y-80935593D01*
X157507623Y-80918963D01*
X157515188Y-80903049D01*
X157523529Y-80887851D01*
X157532628Y-80873369D01*
X157542467Y-80859604D01*
X157553029Y-80846557D01*
X157564295Y-80834228D01*
X157576248Y-80822617D01*
X157588869Y-80811726D01*
X157602141Y-80801553D01*
X157616045Y-80792101D01*
X157630565Y-80783369D01*
X157645681Y-80775358D01*
X157661376Y-80768068D01*
X157677632Y-80761501D01*
X157694432Y-80755655D01*
X157711756Y-80750532D01*
X157729588Y-80746133D01*
X157747909Y-80742457D01*
X157766701Y-80739506D01*
X157785947Y-80737279D01*
X157805628Y-80735778D01*
X157825727Y-80735003D01*
X157846226Y-80734953D01*
X157867106Y-80735630D01*
X157888350Y-80737035D01*
X157909941Y-80739167D01*
X157931859Y-80742027D01*
X157989705Y-80752925D01*
X158047738Y-80767690D01*
X158105336Y-80786222D01*
X158161881Y-80808421D01*
X158216751Y-80834186D01*
X158269326Y-80863415D01*
X158318987Y-80896009D01*
X158365114Y-80931866D01*
X158386658Y-80950987D01*
X158407085Y-80970886D01*
X158426319Y-80991550D01*
X158444282Y-81012967D01*
X158460896Y-81035125D01*
X158476084Y-81058010D01*
X158489768Y-81081610D01*
X158501870Y-81105912D01*
X158512314Y-81130905D01*
X158521022Y-81156575D01*
X158527915Y-81182909D01*
X158532917Y-81209896D01*
X158535951Y-81237522D01*
X158536938Y-81265775D01*
X158535801Y-81294642D01*
X158532463Y-81324111D01*
X158529048Y-81343118D01*
X158524767Y-81361441D01*
X158519640Y-81379080D01*
X158513684Y-81396034D01*
X158506918Y-81412302D01*
X158499360Y-81427884D01*
X158491030Y-81442777D01*
X158481944Y-81456981D01*
X158472122Y-81470496D01*
X158461582Y-81483319D01*
X158450343Y-81495451D01*
X158438422Y-81506890D01*
X158425839Y-81517635D01*
X158412611Y-81527686D01*
X158398757Y-81537041D01*
X158384296Y-81545699D01*
X158369246Y-81553660D01*
X158353625Y-81560922D01*
X158337451Y-81567484D01*
X158320744Y-81573346D01*
X158303522Y-81578506D01*
X158285802Y-81582964D01*
X158267604Y-81586719D01*
X158248945Y-81589769D01*
X158229845Y-81592113D01*
X158210321Y-81593752D01*
X158190392Y-81594683D01*
X158170077Y-81594905D01*
X158149393Y-81594419D01*
X158128360Y-81593222D01*
X158106995Y-81591314D01*
X158085317Y-81588694D01*
X158027441Y-81577797D01*
X157969325Y-81563037D01*
X157911596Y-81544517D01*
X157854882Y-81522342D01*
X157799812Y-81496616D01*
X157747013Y-81467446D01*
X157697113Y-81434934D01*
X157650740Y-81399187D01*
X157629072Y-81380132D01*
X157608522Y-81360307D01*
X157589167Y-81339726D01*
X157571086Y-81318401D01*
X157554358Y-81296345D01*
X157539061Y-81273572D01*
X157525273Y-81250095D01*
X157513074Y-81225926D01*
X157502541Y-81201079D01*
X157493753Y-81175567D01*
X157486789Y-81149403D01*
X157481727Y-81122599D01*
X157478645Y-81095170D01*
X157477622Y-81067128D01*
X157478020Y-81056913D01*
X157518114Y-81056913D01*
X157519395Y-81082528D01*
X157522639Y-81107561D01*
X157527764Y-81132003D01*
X157534690Y-81155846D01*
X157543339Y-81179081D01*
X157553629Y-81201700D01*
X157565481Y-81223696D01*
X157578815Y-81245059D01*
X157593552Y-81265781D01*
X157609610Y-81285855D01*
X157626910Y-81305272D01*
X157645373Y-81324024D01*
X157664918Y-81342103D01*
X157685466Y-81359499D01*
X157706936Y-81376206D01*
X157729248Y-81392215D01*
X157752323Y-81407518D01*
X157776080Y-81422105D01*
X157825323Y-81449104D01*
X157876338Y-81473146D01*
X157928484Y-81494165D01*
X157981122Y-81512095D01*
X158033613Y-81526870D01*
X158085317Y-81538424D01*
X158085317Y-81535777D01*
X158124891Y-81540548D01*
X158163163Y-81542934D01*
X158200009Y-81542910D01*
X158235304Y-81540449D01*
X158268924Y-81535522D01*
X158300747Y-81528103D01*
X158315945Y-81523451D01*
X158330647Y-81518165D01*
X158344837Y-81512243D01*
X158358501Y-81505681D01*
X158371621Y-81498475D01*
X158384184Y-81490623D01*
X158396173Y-81482121D01*
X158407573Y-81472965D01*
X158418368Y-81463152D01*
X158428543Y-81452678D01*
X158438082Y-81441541D01*
X158446971Y-81429737D01*
X158455192Y-81417263D01*
X158462732Y-81404114D01*
X158469574Y-81390289D01*
X158475703Y-81375782D01*
X158481103Y-81360592D01*
X158485759Y-81344714D01*
X158489655Y-81328145D01*
X158492777Y-81310882D01*
X158495658Y-81286220D01*
X158496418Y-81261860D01*
X158495136Y-81237824D01*
X158491893Y-81214133D01*
X158486768Y-81190811D01*
X158479841Y-81167879D01*
X158471193Y-81145360D01*
X158460903Y-81123276D01*
X158449050Y-81101649D01*
X158435716Y-81080502D01*
X158420980Y-81059857D01*
X158404921Y-81039735D01*
X158387621Y-81020161D01*
X158369158Y-81001155D01*
X158349613Y-80982740D01*
X158329065Y-80964939D01*
X158307596Y-80947773D01*
X158285283Y-80931265D01*
X158238451Y-80900313D01*
X158189207Y-80872259D01*
X158138193Y-80847282D01*
X158086047Y-80825562D01*
X158033409Y-80807275D01*
X157980918Y-80792600D01*
X157929213Y-80781716D01*
X157889639Y-80776479D01*
X157851368Y-80773685D01*
X157814523Y-80773356D01*
X157779228Y-80775514D01*
X157745607Y-80780185D01*
X157713785Y-80787390D01*
X157698587Y-80791950D01*
X157683885Y-80797153D01*
X157669694Y-80803001D01*
X157656031Y-80809497D01*
X157642910Y-80816644D01*
X157630348Y-80824446D01*
X157618359Y-80832904D01*
X157606959Y-80842022D01*
X157596164Y-80851803D01*
X157585989Y-80862250D01*
X157576449Y-80873365D01*
X157567561Y-80885151D01*
X157559339Y-80897612D01*
X157551800Y-80910750D01*
X157544958Y-80924569D01*
X157538829Y-80939070D01*
X157533429Y-80954258D01*
X157528773Y-80970134D01*
X157524876Y-80986703D01*
X157521755Y-81003966D01*
X157518874Y-81030722D01*
X157518114Y-81056913D01*
X157478020Y-81056913D01*
X157478737Y-81038486D01*
X157482068Y-81009258D01*
G37*
X157482068Y-81009258D02*
X157485483Y-80989770D01*
X157489764Y-80970997D01*
X157494893Y-80952937D01*
X157500852Y-80935593D01*
X157507623Y-80918963D01*
X157515188Y-80903049D01*
X157523529Y-80887851D01*
X157532628Y-80873369D01*
X157542467Y-80859604D01*
X157553029Y-80846557D01*
X157564295Y-80834228D01*
X157576248Y-80822617D01*
X157588869Y-80811726D01*
X157602141Y-80801553D01*
X157616045Y-80792101D01*
X157630565Y-80783369D01*
X157645681Y-80775358D01*
X157661376Y-80768068D01*
X157677632Y-80761501D01*
X157694432Y-80755655D01*
X157711756Y-80750532D01*
X157729588Y-80746133D01*
X157747909Y-80742457D01*
X157766701Y-80739506D01*
X157785947Y-80737279D01*
X157805628Y-80735778D01*
X157825727Y-80735003D01*
X157846226Y-80734953D01*
X157867106Y-80735630D01*
X157888350Y-80737035D01*
X157909941Y-80739167D01*
X157931859Y-80742027D01*
X157989705Y-80752925D01*
X158047738Y-80767690D01*
X158105336Y-80786222D01*
X158161881Y-80808421D01*
X158216751Y-80834186D01*
X158269326Y-80863415D01*
X158318987Y-80896009D01*
X158365114Y-80931866D01*
X158386658Y-80950987D01*
X158407085Y-80970886D01*
X158426319Y-80991550D01*
X158444282Y-81012967D01*
X158460896Y-81035125D01*
X158476084Y-81058010D01*
X158489768Y-81081610D01*
X158501870Y-81105912D01*
X158512314Y-81130905D01*
X158521022Y-81156575D01*
X158527915Y-81182909D01*
X158532917Y-81209896D01*
X158535951Y-81237522D01*
X158536938Y-81265775D01*
X158535801Y-81294642D01*
X158532463Y-81324111D01*
X158529048Y-81343118D01*
X158524767Y-81361441D01*
X158519640Y-81379080D01*
X158513684Y-81396034D01*
X158506918Y-81412302D01*
X158499360Y-81427884D01*
X158491030Y-81442777D01*
X158481944Y-81456981D01*
X158472122Y-81470496D01*
X158461582Y-81483319D01*
X158450343Y-81495451D01*
X158438422Y-81506890D01*
X158425839Y-81517635D01*
X158412611Y-81527686D01*
X158398757Y-81537041D01*
X158384296Y-81545699D01*
X158369246Y-81553660D01*
X158353625Y-81560922D01*
X158337451Y-81567484D01*
X158320744Y-81573346D01*
X158303522Y-81578506D01*
X158285802Y-81582964D01*
X158267604Y-81586719D01*
X158248945Y-81589769D01*
X158229845Y-81592113D01*
X158210321Y-81593752D01*
X158190392Y-81594683D01*
X158170077Y-81594905D01*
X158149393Y-81594419D01*
X158128360Y-81593222D01*
X158106995Y-81591314D01*
X158085317Y-81588694D01*
X158027441Y-81577797D01*
X157969325Y-81563037D01*
X157911596Y-81544517D01*
X157854882Y-81522342D01*
X157799812Y-81496616D01*
X157747013Y-81467446D01*
X157697113Y-81434934D01*
X157650740Y-81399187D01*
X157629072Y-81380132D01*
X157608522Y-81360307D01*
X157589167Y-81339726D01*
X157571086Y-81318401D01*
X157554358Y-81296345D01*
X157539061Y-81273572D01*
X157525273Y-81250095D01*
X157513074Y-81225926D01*
X157502541Y-81201079D01*
X157493753Y-81175567D01*
X157486789Y-81149403D01*
X157481727Y-81122599D01*
X157478645Y-81095170D01*
X157477622Y-81067128D01*
X157478020Y-81056913D01*
X157518114Y-81056913D01*
X157519395Y-81082528D01*
X157522639Y-81107561D01*
X157527764Y-81132003D01*
X157534690Y-81155846D01*
X157543339Y-81179081D01*
X157553629Y-81201700D01*
X157565481Y-81223696D01*
X157578815Y-81245059D01*
X157593552Y-81265781D01*
X157609610Y-81285855D01*
X157626910Y-81305272D01*
X157645373Y-81324024D01*
X157664918Y-81342103D01*
X157685466Y-81359499D01*
X157706936Y-81376206D01*
X157729248Y-81392215D01*
X157752323Y-81407518D01*
X157776080Y-81422105D01*
X157825323Y-81449104D01*
X157876338Y-81473146D01*
X157928484Y-81494165D01*
X157981122Y-81512095D01*
X158033613Y-81526870D01*
X158085317Y-81538424D01*
X158085317Y-81535777D01*
X158124891Y-81540548D01*
X158163163Y-81542934D01*
X158200009Y-81542910D01*
X158235304Y-81540449D01*
X158268924Y-81535522D01*
X158300747Y-81528103D01*
X158315945Y-81523451D01*
X158330647Y-81518165D01*
X158344837Y-81512243D01*
X158358501Y-81505681D01*
X158371621Y-81498475D01*
X158384184Y-81490623D01*
X158396173Y-81482121D01*
X158407573Y-81472965D01*
X158418368Y-81463152D01*
X158428543Y-81452678D01*
X158438082Y-81441541D01*
X158446971Y-81429737D01*
X158455192Y-81417263D01*
X158462732Y-81404114D01*
X158469574Y-81390289D01*
X158475703Y-81375782D01*
X158481103Y-81360592D01*
X158485759Y-81344714D01*
X158489655Y-81328145D01*
X158492777Y-81310882D01*
X158495658Y-81286220D01*
X158496418Y-81261860D01*
X158495136Y-81237824D01*
X158491893Y-81214133D01*
X158486768Y-81190811D01*
X158479841Y-81167879D01*
X158471193Y-81145360D01*
X158460903Y-81123276D01*
X158449050Y-81101649D01*
X158435716Y-81080502D01*
X158420980Y-81059857D01*
X158404921Y-81039735D01*
X158387621Y-81020161D01*
X158369158Y-81001155D01*
X158349613Y-80982740D01*
X158329065Y-80964939D01*
X158307596Y-80947773D01*
X158285283Y-80931265D01*
X158238451Y-80900313D01*
X158189207Y-80872259D01*
X158138193Y-80847282D01*
X158086047Y-80825562D01*
X158033409Y-80807275D01*
X157980918Y-80792600D01*
X157929213Y-80781716D01*
X157889639Y-80776479D01*
X157851368Y-80773685D01*
X157814523Y-80773356D01*
X157779228Y-80775514D01*
X157745607Y-80780185D01*
X157713785Y-80787390D01*
X157698587Y-80791950D01*
X157683885Y-80797153D01*
X157669694Y-80803001D01*
X157656031Y-80809497D01*
X157642910Y-80816644D01*
X157630348Y-80824446D01*
X157618359Y-80832904D01*
X157606959Y-80842022D01*
X157596164Y-80851803D01*
X157585989Y-80862250D01*
X157576449Y-80873365D01*
X157567561Y-80885151D01*
X157559339Y-80897612D01*
X157551800Y-80910750D01*
X157544958Y-80924569D01*
X157538829Y-80939070D01*
X157533429Y-80954258D01*
X157528773Y-80970134D01*
X157524876Y-80986703D01*
X157521755Y-81003966D01*
X157518874Y-81030722D01*
X157518114Y-81056913D01*
X157478020Y-81056913D01*
X157478737Y-81038486D01*
X157482068Y-81009258D01*
G36*
X157021302Y-83005914D02*
G01*
X157029629Y-83028025D01*
X157036622Y-83044403D01*
X157024010Y-83049893D01*
X157010429Y-83056214D01*
X156997017Y-83062871D01*
X156983779Y-83069859D01*
X156970723Y-83077176D01*
X156957854Y-83084816D01*
X156945178Y-83092778D01*
X156932702Y-83101057D01*
X156920431Y-83109650D01*
X156908372Y-83118553D01*
X156896530Y-83127764D01*
X156884913Y-83137277D01*
X156873525Y-83147090D01*
X156847068Y-83110049D01*
X156859036Y-83099883D01*
X156871248Y-83090041D01*
X156883697Y-83080525D01*
X156896376Y-83071341D01*
X156909279Y-83062492D01*
X156922399Y-83053981D01*
X156935728Y-83045813D01*
X156949261Y-83037991D01*
X156962991Y-83030519D01*
X156976910Y-83023402D01*
X156991011Y-83016642D01*
X157005289Y-83010243D01*
X157019736Y-83004210D01*
X157020641Y-83003860D01*
X157021302Y-83005914D01*
G37*
X157021302Y-83005914D02*
X157029629Y-83028025D01*
X157036622Y-83044403D01*
X157024010Y-83049893D01*
X157010429Y-83056214D01*
X156997017Y-83062871D01*
X156983779Y-83069859D01*
X156970723Y-83077176D01*
X156957854Y-83084816D01*
X156945178Y-83092778D01*
X156932702Y-83101057D01*
X156920431Y-83109650D01*
X156908372Y-83118553D01*
X156896530Y-83127764D01*
X156884913Y-83137277D01*
X156873525Y-83147090D01*
X156847068Y-83110049D01*
X156859036Y-83099883D01*
X156871248Y-83090041D01*
X156883697Y-83080525D01*
X156896376Y-83071341D01*
X156909279Y-83062492D01*
X156922399Y-83053981D01*
X156935728Y-83045813D01*
X156949261Y-83037991D01*
X156962991Y-83030519D01*
X156976910Y-83023402D01*
X156991011Y-83016642D01*
X157005289Y-83010243D01*
X157019736Y-83004210D01*
X157020641Y-83003860D01*
X157021302Y-83005914D01*
G36*
X143607318Y-82570298D02*
G01*
X143342735Y-82834881D01*
X143331206Y-82847165D01*
X143316979Y-82861712D01*
X143300830Y-82877809D01*
X143283534Y-82894743D01*
X143248601Y-82928271D01*
X143218381Y-82956590D01*
X143416818Y-83006860D01*
X143829568Y-83120630D01*
X143850735Y-83173548D01*
X143191922Y-82980403D01*
X142813568Y-83369340D01*
X142792401Y-83321715D01*
X143041110Y-83057131D01*
X143152235Y-82951298D01*
X142980256Y-82906319D01*
X142572797Y-82808423D01*
X142551631Y-82755507D01*
X143176047Y-82938069D01*
X143588797Y-82522673D01*
X143607318Y-82570298D01*
G37*
X143607318Y-82570298D02*
X143342735Y-82834881D01*
X143331206Y-82847165D01*
X143316979Y-82861712D01*
X143300830Y-82877809D01*
X143283534Y-82894743D01*
X143248601Y-82928271D01*
X143218381Y-82956590D01*
X143416818Y-83006860D01*
X143829568Y-83120630D01*
X143850735Y-83173548D01*
X143191922Y-82980403D01*
X142813568Y-83369340D01*
X142792401Y-83321715D01*
X143041110Y-83057131D01*
X143152235Y-82951298D01*
X142980256Y-82906319D01*
X142572797Y-82808423D01*
X142551631Y-82755507D01*
X143176047Y-82938069D01*
X143588797Y-82522673D01*
X143607318Y-82570298D01*
G36*
X156994658Y-82822217D02*
G01*
X156996324Y-82799012D01*
X156999099Y-82775888D01*
X157002985Y-82752885D01*
X157007981Y-82730044D01*
X157014087Y-82707406D01*
X157021303Y-82685011D01*
X157029630Y-82662900D01*
X157033190Y-82650918D01*
X157037401Y-82639225D01*
X157042242Y-82627842D01*
X157047694Y-82616793D01*
X157053738Y-82606098D01*
X157060356Y-82595781D01*
X157067529Y-82585863D01*
X157075237Y-82576367D01*
X157083461Y-82567314D01*
X157092183Y-82558726D01*
X157101383Y-82550627D01*
X157111042Y-82543037D01*
X157121142Y-82535980D01*
X157131664Y-82529477D01*
X157142588Y-82523550D01*
X157153895Y-82518221D01*
X157165487Y-82513543D01*
X157177258Y-82509554D01*
X157189178Y-82506251D01*
X157201218Y-82503634D01*
X157213350Y-82501701D01*
X157225543Y-82500452D01*
X157237770Y-82499885D01*
X157250000Y-82500000D01*
X157262205Y-82500796D01*
X157274356Y-82502270D01*
X157286423Y-82504422D01*
X157298377Y-82507252D01*
X157310189Y-82510758D01*
X157321830Y-82514938D01*
X157333271Y-82519792D01*
X157344483Y-82525319D01*
X157373782Y-82539943D01*
X157400278Y-82556916D01*
X157424147Y-82576077D01*
X157445563Y-82597263D01*
X157464699Y-82620315D01*
X157481731Y-82645068D01*
X157496833Y-82671362D01*
X157510179Y-82699035D01*
X157521944Y-82727925D01*
X157532302Y-82757870D01*
X157549494Y-82820278D01*
X157563153Y-82884966D01*
X157573591Y-82944480D01*
X157583685Y-82945919D01*
X157626873Y-82953873D01*
X157669789Y-82963595D01*
X157712379Y-82975085D01*
X157754589Y-82988342D01*
X157768025Y-82992276D01*
X157781170Y-82996890D01*
X157794001Y-83002168D01*
X157806496Y-83008089D01*
X157818633Y-83014638D01*
X157830390Y-83021796D01*
X157841745Y-83029546D01*
X157852675Y-83037869D01*
X157863159Y-83046747D01*
X157873174Y-83056165D01*
X157882698Y-83066102D01*
X157891709Y-83076542D01*
X157900185Y-83087467D01*
X157908105Y-83098858D01*
X157915444Y-83110699D01*
X157922183Y-83122972D01*
X157928263Y-83135583D01*
X157933644Y-83148433D01*
X157938322Y-83161495D01*
X157942296Y-83174738D01*
X157945565Y-83188136D01*
X157948127Y-83201660D01*
X157949980Y-83215282D01*
X157951124Y-83228973D01*
X157951555Y-83242704D01*
X157951273Y-83256448D01*
X157950275Y-83270177D01*
X157948561Y-83283861D01*
X157946129Y-83297473D01*
X157942976Y-83310984D01*
X157939102Y-83324366D01*
X157934505Y-83337590D01*
X157932080Y-83344244D01*
X157929311Y-83350722D01*
X157926208Y-83357012D01*
X157922782Y-83363103D01*
X157919044Y-83368985D01*
X157915003Y-83374646D01*
X157910671Y-83380076D01*
X157906058Y-83385262D01*
X157901174Y-83390194D01*
X157896029Y-83394860D01*
X157890635Y-83399250D01*
X157885001Y-83403353D01*
X157879138Y-83407157D01*
X157873057Y-83410651D01*
X157866767Y-83413824D01*
X157860280Y-83416665D01*
X157853647Y-83419148D01*
X157846925Y-83421255D01*
X157840128Y-83422987D01*
X157833273Y-83424344D01*
X157826373Y-83425328D01*
X157819445Y-83425938D01*
X157812503Y-83426176D01*
X157805564Y-83426042D01*
X157798641Y-83425537D01*
X157791751Y-83424662D01*
X157784908Y-83423417D01*
X157778128Y-83421803D01*
X157771426Y-83419821D01*
X157764818Y-83417472D01*
X157758318Y-83414755D01*
X157751942Y-83411673D01*
X157725264Y-83398476D01*
X157701175Y-83382810D01*
X157679503Y-83364838D01*
X157660077Y-83344726D01*
X157642727Y-83322640D01*
X157627282Y-83298744D01*
X157613569Y-83273203D01*
X157601420Y-83246184D01*
X157590661Y-83217851D01*
X157581123Y-83188369D01*
X157565024Y-83126620D01*
X157551754Y-83062259D01*
X157539946Y-82996608D01*
X157536737Y-82978635D01*
X157536267Y-82978564D01*
X157494485Y-82974067D01*
X157452587Y-82971369D01*
X157410629Y-82970470D01*
X157368672Y-82971369D01*
X157326773Y-82974067D01*
X157284992Y-82978564D01*
X157243387Y-82984859D01*
X157202016Y-82992953D01*
X157160939Y-83002846D01*
X157120215Y-83014538D01*
X157079901Y-83028028D01*
X157075342Y-83029616D01*
X157069318Y-83014799D01*
X157062396Y-82995009D01*
X157060723Y-82989430D01*
X157049111Y-82993256D01*
X157034346Y-82998546D01*
X157020641Y-83003860D01*
X157014086Y-82983519D01*
X157007980Y-82960881D01*
X157002985Y-82938040D01*
X156999099Y-82915037D01*
X156996324Y-82891913D01*
X156994658Y-82868708D01*
X156994261Y-82852080D01*
X157039784Y-82852080D01*
X157040245Y-82872750D01*
X157041630Y-82893388D01*
X157043937Y-82913964D01*
X157047167Y-82934445D01*
X157051321Y-82954801D01*
X157056397Y-82974999D01*
X157060723Y-82989430D01*
X157064026Y-82988342D01*
X157106236Y-82975085D01*
X157148826Y-82963595D01*
X157191742Y-82953873D01*
X157234929Y-82945919D01*
X157278334Y-82939733D01*
X157321901Y-82935314D01*
X157365577Y-82932662D01*
X157409307Y-82931778D01*
X157453038Y-82932662D01*
X157496714Y-82935314D01*
X157529598Y-82938649D01*
X157536737Y-82978635D01*
X157577872Y-82984859D01*
X157580649Y-82985402D01*
X157596872Y-83079756D01*
X157610344Y-83140614D01*
X157627257Y-83197279D01*
X157637441Y-83223634D01*
X157649008Y-83248455D01*
X157662133Y-83271581D01*
X157676990Y-83292849D01*
X157693755Y-83312098D01*
X157712601Y-83329166D01*
X157733702Y-83343890D01*
X157757233Y-83356111D01*
X157761825Y-83358704D01*
X157766525Y-83361034D01*
X157771322Y-83363101D01*
X157776206Y-83364903D01*
X157781165Y-83366439D01*
X157786188Y-83367708D01*
X157791265Y-83368708D01*
X157796384Y-83369438D01*
X157801535Y-83369897D01*
X157806706Y-83370084D01*
X157811886Y-83369997D01*
X157817065Y-83369635D01*
X157822231Y-83368996D01*
X157827374Y-83368080D01*
X157832482Y-83366886D01*
X157837544Y-83365411D01*
X157842520Y-83363666D01*
X157847370Y-83361667D01*
X157852086Y-83359420D01*
X157856660Y-83356935D01*
X157861083Y-83354217D01*
X157865348Y-83351275D01*
X157869446Y-83348115D01*
X157873368Y-83344746D01*
X157877108Y-83341174D01*
X157880655Y-83337408D01*
X157884004Y-83333454D01*
X157887144Y-83329320D01*
X157890068Y-83325013D01*
X157892768Y-83320541D01*
X157895236Y-83315912D01*
X157897463Y-83311132D01*
X157900395Y-83300162D01*
X157902767Y-83289109D01*
X157904582Y-83277992D01*
X157905840Y-83266833D01*
X157906546Y-83255652D01*
X157906701Y-83244469D01*
X157906306Y-83233305D01*
X157905366Y-83222179D01*
X157903880Y-83211114D01*
X157901853Y-83200128D01*
X157899286Y-83189242D01*
X157896181Y-83178478D01*
X157892541Y-83167855D01*
X157888367Y-83157393D01*
X157883662Y-83147113D01*
X157878429Y-83137037D01*
X157872700Y-83127233D01*
X157866518Y-83117768D01*
X157859898Y-83108655D01*
X157852857Y-83099907D01*
X157845410Y-83091536D01*
X157837575Y-83083556D01*
X157829366Y-83075978D01*
X157820801Y-83068816D01*
X157811895Y-83062083D01*
X157802664Y-83055792D01*
X157793124Y-83049954D01*
X157783292Y-83044584D01*
X157773183Y-83039693D01*
X157762813Y-83035295D01*
X157752200Y-83031402D01*
X157741358Y-83028028D01*
X157701044Y-83014538D01*
X157660319Y-83002846D01*
X157619242Y-82992953D01*
X157580649Y-82985402D01*
X157574671Y-82950637D01*
X157573591Y-82944480D01*
X157540281Y-82939733D01*
X157529598Y-82938649D01*
X157528230Y-82930987D01*
X157515239Y-82866719D01*
X157499605Y-82805125D01*
X157490369Y-82775744D01*
X157479960Y-82747527D01*
X157468205Y-82720640D01*
X157454935Y-82695247D01*
X157439977Y-82671514D01*
X157423162Y-82649606D01*
X157404318Y-82629688D01*
X157383274Y-82611925D01*
X157359858Y-82596483D01*
X157333901Y-82583527D01*
X157324776Y-82578488D01*
X157315432Y-82574011D01*
X157305893Y-82570098D01*
X157296184Y-82566750D01*
X157286331Y-82563970D01*
X157276359Y-82561759D01*
X157266292Y-82560120D01*
X157256156Y-82559054D01*
X157245976Y-82558563D01*
X157235777Y-82558650D01*
X157225584Y-82559315D01*
X157215423Y-82560562D01*
X157205317Y-82562391D01*
X157195293Y-82564805D01*
X157185376Y-82567806D01*
X157175589Y-82571396D01*
X157166027Y-82575546D01*
X157156776Y-82580212D01*
X157147852Y-82585377D01*
X157139272Y-82591022D01*
X157131054Y-82597127D01*
X157123215Y-82603675D01*
X157115770Y-82610646D01*
X157108737Y-82618022D01*
X157102132Y-82625784D01*
X157095973Y-82633913D01*
X157090277Y-82642392D01*
X157085059Y-82651200D01*
X157080338Y-82660320D01*
X157076129Y-82669732D01*
X157072450Y-82679419D01*
X157069318Y-82689361D01*
X157062396Y-82709151D01*
X157056397Y-82729161D01*
X157051321Y-82749360D01*
X157047167Y-82769716D01*
X157043937Y-82790197D01*
X157041630Y-82810772D01*
X157040245Y-82831411D01*
X157039784Y-82852080D01*
X156994261Y-82852080D01*
X156994103Y-82845463D01*
X156994658Y-82822217D01*
G37*
X156994658Y-82822217D02*
X156996324Y-82799012D01*
X156999099Y-82775888D01*
X157002985Y-82752885D01*
X157007981Y-82730044D01*
X157014087Y-82707406D01*
X157021303Y-82685011D01*
X157029630Y-82662900D01*
X157033190Y-82650918D01*
X157037401Y-82639225D01*
X157042242Y-82627842D01*
X157047694Y-82616793D01*
X157053738Y-82606098D01*
X157060356Y-82595781D01*
X157067529Y-82585863D01*
X157075237Y-82576367D01*
X157083461Y-82567314D01*
X157092183Y-82558726D01*
X157101383Y-82550627D01*
X157111042Y-82543037D01*
X157121142Y-82535980D01*
X157131664Y-82529477D01*
X157142588Y-82523550D01*
X157153895Y-82518221D01*
X157165487Y-82513543D01*
X157177258Y-82509554D01*
X157189178Y-82506251D01*
X157201218Y-82503634D01*
X157213350Y-82501701D01*
X157225543Y-82500452D01*
X157237770Y-82499885D01*
X157250000Y-82500000D01*
X157262205Y-82500796D01*
X157274356Y-82502270D01*
X157286423Y-82504422D01*
X157298377Y-82507252D01*
X157310189Y-82510758D01*
X157321830Y-82514938D01*
X157333271Y-82519792D01*
X157344483Y-82525319D01*
X157373782Y-82539943D01*
X157400278Y-82556916D01*
X157424147Y-82576077D01*
X157445563Y-82597263D01*
X157464699Y-82620315D01*
X157481731Y-82645068D01*
X157496833Y-82671362D01*
X157510179Y-82699035D01*
X157521944Y-82727925D01*
X157532302Y-82757870D01*
X157549494Y-82820278D01*
X157563153Y-82884966D01*
X157573591Y-82944480D01*
X157583685Y-82945919D01*
X157626873Y-82953873D01*
X157669789Y-82963595D01*
X157712379Y-82975085D01*
X157754589Y-82988342D01*
X157768025Y-82992276D01*
X157781170Y-82996890D01*
X157794001Y-83002168D01*
X157806496Y-83008089D01*
X157818633Y-83014638D01*
X157830390Y-83021796D01*
X157841745Y-83029546D01*
X157852675Y-83037869D01*
X157863159Y-83046747D01*
X157873174Y-83056165D01*
X157882698Y-83066102D01*
X157891709Y-83076542D01*
X157900185Y-83087467D01*
X157908105Y-83098858D01*
X157915444Y-83110699D01*
X157922183Y-83122972D01*
X157928263Y-83135583D01*
X157933644Y-83148433D01*
X157938322Y-83161495D01*
X157942296Y-83174738D01*
X157945565Y-83188136D01*
X157948127Y-83201660D01*
X157949980Y-83215282D01*
X157951124Y-83228973D01*
X157951555Y-83242704D01*
X157951273Y-83256448D01*
X157950275Y-83270177D01*
X157948561Y-83283861D01*
X157946129Y-83297473D01*
X157942976Y-83310984D01*
X157939102Y-83324366D01*
X157934505Y-83337590D01*
X157932080Y-83344244D01*
X157929311Y-83350722D01*
X157926208Y-83357012D01*
X157922782Y-83363103D01*
X157919044Y-83368985D01*
X157915003Y-83374646D01*
X157910671Y-83380076D01*
X157906058Y-83385262D01*
X157901174Y-83390194D01*
X157896029Y-83394860D01*
X157890635Y-83399250D01*
X157885001Y-83403353D01*
X157879138Y-83407157D01*
X157873057Y-83410651D01*
X157866767Y-83413824D01*
X157860280Y-83416665D01*
X157853647Y-83419148D01*
X157846925Y-83421255D01*
X157840128Y-83422987D01*
X157833273Y-83424344D01*
X157826373Y-83425328D01*
X157819445Y-83425938D01*
X157812503Y-83426176D01*
X157805564Y-83426042D01*
X157798641Y-83425537D01*
X157791751Y-83424662D01*
X157784908Y-83423417D01*
X157778128Y-83421803D01*
X157771426Y-83419821D01*
X157764818Y-83417472D01*
X157758318Y-83414755D01*
X157751942Y-83411673D01*
X157725264Y-83398476D01*
X157701175Y-83382810D01*
X157679503Y-83364838D01*
X157660077Y-83344726D01*
X157642727Y-83322640D01*
X157627282Y-83298744D01*
X157613569Y-83273203D01*
X157601420Y-83246184D01*
X157590661Y-83217851D01*
X157581123Y-83188369D01*
X157565024Y-83126620D01*
X157551754Y-83062259D01*
X157539946Y-82996608D01*
X157536737Y-82978635D01*
X157536267Y-82978564D01*
X157494485Y-82974067D01*
X157452587Y-82971369D01*
X157410629Y-82970470D01*
X157368672Y-82971369D01*
X157326773Y-82974067D01*
X157284992Y-82978564D01*
X157243387Y-82984859D01*
X157202016Y-82992953D01*
X157160939Y-83002846D01*
X157120215Y-83014538D01*
X157079901Y-83028028D01*
X157075342Y-83029616D01*
X157069318Y-83014799D01*
X157062396Y-82995009D01*
X157060723Y-82989430D01*
X157049111Y-82993256D01*
X157034346Y-82998546D01*
X157020641Y-83003860D01*
X157014086Y-82983519D01*
X157007980Y-82960881D01*
X157002985Y-82938040D01*
X156999099Y-82915037D01*
X156996324Y-82891913D01*
X156994658Y-82868708D01*
X156994261Y-82852080D01*
X157039784Y-82852080D01*
X157040245Y-82872750D01*
X157041630Y-82893388D01*
X157043937Y-82913964D01*
X157047167Y-82934445D01*
X157051321Y-82954801D01*
X157056397Y-82974999D01*
X157060723Y-82989430D01*
X157064026Y-82988342D01*
X157106236Y-82975085D01*
X157148826Y-82963595D01*
X157191742Y-82953873D01*
X157234929Y-82945919D01*
X157278334Y-82939733D01*
X157321901Y-82935314D01*
X157365577Y-82932662D01*
X157409307Y-82931778D01*
X157453038Y-82932662D01*
X157496714Y-82935314D01*
X157529598Y-82938649D01*
X157536737Y-82978635D01*
X157577872Y-82984859D01*
X157580649Y-82985402D01*
X157596872Y-83079756D01*
X157610344Y-83140614D01*
X157627257Y-83197279D01*
X157637441Y-83223634D01*
X157649008Y-83248455D01*
X157662133Y-83271581D01*
X157676990Y-83292849D01*
X157693755Y-83312098D01*
X157712601Y-83329166D01*
X157733702Y-83343890D01*
X157757233Y-83356111D01*
X157761825Y-83358704D01*
X157766525Y-83361034D01*
X157771322Y-83363101D01*
X157776206Y-83364903D01*
X157781165Y-83366439D01*
X157786188Y-83367708D01*
X157791265Y-83368708D01*
X157796384Y-83369438D01*
X157801535Y-83369897D01*
X157806706Y-83370084D01*
X157811886Y-83369997D01*
X157817065Y-83369635D01*
X157822231Y-83368996D01*
X157827374Y-83368080D01*
X157832482Y-83366886D01*
X157837544Y-83365411D01*
X157842520Y-83363666D01*
X157847370Y-83361667D01*
X157852086Y-83359420D01*
X157856660Y-83356935D01*
X157861083Y-83354217D01*
X157865348Y-83351275D01*
X157869446Y-83348115D01*
X157873368Y-83344746D01*
X157877108Y-83341174D01*
X157880655Y-83337408D01*
X157884004Y-83333454D01*
X157887144Y-83329320D01*
X157890068Y-83325013D01*
X157892768Y-83320541D01*
X157895236Y-83315912D01*
X157897463Y-83311132D01*
X157900395Y-83300162D01*
X157902767Y-83289109D01*
X157904582Y-83277992D01*
X157905840Y-83266833D01*
X157906546Y-83255652D01*
X157906701Y-83244469D01*
X157906306Y-83233305D01*
X157905366Y-83222179D01*
X157903880Y-83211114D01*
X157901853Y-83200128D01*
X157899286Y-83189242D01*
X157896181Y-83178478D01*
X157892541Y-83167855D01*
X157888367Y-83157393D01*
X157883662Y-83147113D01*
X157878429Y-83137037D01*
X157872700Y-83127233D01*
X157866518Y-83117768D01*
X157859898Y-83108655D01*
X157852857Y-83099907D01*
X157845410Y-83091536D01*
X157837575Y-83083556D01*
X157829366Y-83075978D01*
X157820801Y-83068816D01*
X157811895Y-83062083D01*
X157802664Y-83055792D01*
X157793124Y-83049954D01*
X157783292Y-83044584D01*
X157773183Y-83039693D01*
X157762813Y-83035295D01*
X157752200Y-83031402D01*
X157741358Y-83028028D01*
X157701044Y-83014538D01*
X157660319Y-83002846D01*
X157619242Y-82992953D01*
X157580649Y-82985402D01*
X157574671Y-82950637D01*
X157573591Y-82944480D01*
X157540281Y-82939733D01*
X157529598Y-82938649D01*
X157528230Y-82930987D01*
X157515239Y-82866719D01*
X157499605Y-82805125D01*
X157490369Y-82775744D01*
X157479960Y-82747527D01*
X157468205Y-82720640D01*
X157454935Y-82695247D01*
X157439977Y-82671514D01*
X157423162Y-82649606D01*
X157404318Y-82629688D01*
X157383274Y-82611925D01*
X157359858Y-82596483D01*
X157333901Y-82583527D01*
X157324776Y-82578488D01*
X157315432Y-82574011D01*
X157305893Y-82570098D01*
X157296184Y-82566750D01*
X157286331Y-82563970D01*
X157276359Y-82561759D01*
X157266292Y-82560120D01*
X157256156Y-82559054D01*
X157245976Y-82558563D01*
X157235777Y-82558650D01*
X157225584Y-82559315D01*
X157215423Y-82560562D01*
X157205317Y-82562391D01*
X157195293Y-82564805D01*
X157185376Y-82567806D01*
X157175589Y-82571396D01*
X157166027Y-82575546D01*
X157156776Y-82580212D01*
X157147852Y-82585377D01*
X157139272Y-82591022D01*
X157131054Y-82597127D01*
X157123215Y-82603675D01*
X157115770Y-82610646D01*
X157108737Y-82618022D01*
X157102132Y-82625784D01*
X157095973Y-82633913D01*
X157090277Y-82642392D01*
X157085059Y-82651200D01*
X157080338Y-82660320D01*
X157076129Y-82669732D01*
X157072450Y-82679419D01*
X157069318Y-82689361D01*
X157062396Y-82709151D01*
X157056397Y-82729161D01*
X157051321Y-82749360D01*
X157047167Y-82769716D01*
X157043937Y-82790197D01*
X157041630Y-82810772D01*
X157040245Y-82831411D01*
X157039784Y-82852080D01*
X156994261Y-82852080D01*
X156994103Y-82845463D01*
X156994658Y-82822217D01*
G36*
X157080194Y-83041549D02*
G01*
X157091701Y-83068001D01*
X157103835Y-83094145D01*
X157116586Y-83119969D01*
X157129949Y-83145463D01*
X157143918Y-83170617D01*
X157158484Y-83195420D01*
X157173642Y-83219860D01*
X157189384Y-83243929D01*
X157205704Y-83267614D01*
X157222595Y-83290906D01*
X157240051Y-83313794D01*
X157258064Y-83336267D01*
X157276627Y-83358314D01*
X157295735Y-83379925D01*
X157315380Y-83401090D01*
X157294213Y-83446068D01*
X157273567Y-83422763D01*
X157253442Y-83399040D01*
X157233844Y-83374907D01*
X157214778Y-83350373D01*
X157196252Y-83325448D01*
X157178269Y-83300141D01*
X157160836Y-83274460D01*
X157143959Y-83248415D01*
X157127643Y-83222014D01*
X157111894Y-83195268D01*
X157096718Y-83168184D01*
X157082120Y-83140772D01*
X157068106Y-83113041D01*
X157054683Y-83085000D01*
X157041855Y-83056659D01*
X157036622Y-83044403D01*
X157037754Y-83043910D01*
X157051655Y-83038269D01*
X157065705Y-83032974D01*
X157075342Y-83029616D01*
X157080194Y-83041549D01*
G37*
X157080194Y-83041549D02*
X157091701Y-83068001D01*
X157103835Y-83094145D01*
X157116586Y-83119969D01*
X157129949Y-83145463D01*
X157143918Y-83170617D01*
X157158484Y-83195420D01*
X157173642Y-83219860D01*
X157189384Y-83243929D01*
X157205704Y-83267614D01*
X157222595Y-83290906D01*
X157240051Y-83313794D01*
X157258064Y-83336267D01*
X157276627Y-83358314D01*
X157295735Y-83379925D01*
X157315380Y-83401090D01*
X157294213Y-83446068D01*
X157273567Y-83422763D01*
X157253442Y-83399040D01*
X157233844Y-83374907D01*
X157214778Y-83350373D01*
X157196252Y-83325448D01*
X157178269Y-83300141D01*
X157160836Y-83274460D01*
X157143959Y-83248415D01*
X157127643Y-83222014D01*
X157111894Y-83195268D01*
X157096718Y-83168184D01*
X157082120Y-83140772D01*
X157068106Y-83113041D01*
X157054683Y-83085000D01*
X157041855Y-83056659D01*
X157036622Y-83044403D01*
X157037754Y-83043910D01*
X157051655Y-83038269D01*
X157065705Y-83032974D01*
X157075342Y-83029616D01*
X157080194Y-83041549D01*
G36*
X143086424Y-83847140D02*
G01*
X143088657Y-83830712D01*
X143091838Y-83814425D01*
X143095952Y-83798293D01*
X143100986Y-83782329D01*
X143106925Y-83766545D01*
X143113756Y-83750955D01*
X143121463Y-83735572D01*
X143130035Y-83720409D01*
X143139455Y-83705479D01*
X143149711Y-83690795D01*
X143160788Y-83676370D01*
X143172672Y-83662218D01*
X143185349Y-83648351D01*
X143198805Y-83634782D01*
X143213026Y-83621525D01*
X143243707Y-83595997D01*
X143277279Y-83571872D01*
X143313631Y-83549256D01*
X143364877Y-83521427D01*
X143419004Y-83496664D01*
X143475417Y-83475243D01*
X143533524Y-83457437D01*
X143592732Y-83443522D01*
X143652447Y-83433774D01*
X143712077Y-83428468D01*
X143771029Y-83427878D01*
X143828710Y-83432280D01*
X143856888Y-83436439D01*
X143884526Y-83441950D01*
X143911550Y-83448845D01*
X143937885Y-83457161D01*
X143963458Y-83466931D01*
X143988194Y-83478190D01*
X144012019Y-83490973D01*
X144034860Y-83505312D01*
X144056641Y-83521244D01*
X144077289Y-83538802D01*
X144096730Y-83558021D01*
X144114890Y-83578935D01*
X144131694Y-83601578D01*
X144147068Y-83625985D01*
X144155171Y-83642642D01*
X144162338Y-83659620D01*
X144168568Y-83676881D01*
X144173859Y-83694388D01*
X144178208Y-83712103D01*
X144181613Y-83729986D01*
X144184072Y-83747999D01*
X144185583Y-83766105D01*
X144186144Y-83784266D01*
X144185752Y-83802443D01*
X144184405Y-83820597D01*
X144182101Y-83838691D01*
X144178838Y-83856687D01*
X144174614Y-83874545D01*
X144169426Y-83892229D01*
X144163272Y-83909700D01*
X144156195Y-83926817D01*
X144148257Y-83943449D01*
X144139484Y-83959568D01*
X144129905Y-83975147D01*
X144119545Y-83990159D01*
X144108432Y-84004578D01*
X144096593Y-84018376D01*
X144084056Y-84031527D01*
X144070847Y-84044002D01*
X144056994Y-84055776D01*
X144042523Y-84066822D01*
X144027463Y-84077111D01*
X144011839Y-84086618D01*
X143995679Y-84095315D01*
X143979010Y-84103176D01*
X143961860Y-84110172D01*
X143910613Y-84138001D01*
X143856486Y-84162764D01*
X143800073Y-84184186D01*
X143741966Y-84201992D01*
X143682759Y-84215906D01*
X143623043Y-84225654D01*
X143563413Y-84230961D01*
X143504461Y-84231550D01*
X143446781Y-84227148D01*
X143418603Y-84222989D01*
X143390964Y-84217479D01*
X143363941Y-84210583D01*
X143337605Y-84202267D01*
X143312032Y-84192497D01*
X143287296Y-84181238D01*
X143263471Y-84168456D01*
X143240631Y-84154116D01*
X143218849Y-84138185D01*
X143198201Y-84120627D01*
X143178760Y-84101408D01*
X143160601Y-84080494D01*
X143143797Y-84057851D01*
X143128422Y-84033444D01*
X143119304Y-84016323D01*
X143111288Y-83999200D01*
X143104361Y-83982087D01*
X143098507Y-83964998D01*
X143093713Y-83947946D01*
X143089965Y-83930944D01*
X143087250Y-83914005D01*
X143085552Y-83897142D01*
X143084857Y-83880368D01*
X143084971Y-83873988D01*
X143129996Y-83873988D01*
X143130283Y-83888709D01*
X143131457Y-83903534D01*
X143133530Y-83918457D01*
X143136513Y-83933470D01*
X143140416Y-83948565D01*
X143145252Y-83963737D01*
X143151031Y-83978976D01*
X143157765Y-83994277D01*
X143165464Y-84009631D01*
X143179327Y-84031605D01*
X143194574Y-84051910D01*
X143211132Y-84070584D01*
X143228928Y-84087663D01*
X143247888Y-84103183D01*
X143267940Y-84117183D01*
X143289011Y-84129698D01*
X143311026Y-84140765D01*
X143333914Y-84150422D01*
X143357600Y-84158704D01*
X143382012Y-84165650D01*
X143407077Y-84171295D01*
X143432721Y-84175677D01*
X143458872Y-84178832D01*
X143485455Y-84180798D01*
X143512399Y-84181610D01*
X143539629Y-84181306D01*
X143567073Y-84179923D01*
X143622309Y-84174065D01*
X143677522Y-84164332D01*
X143732127Y-84151018D01*
X143785538Y-84134417D01*
X143837170Y-84114824D01*
X143886437Y-84092533D01*
X143932756Y-84067840D01*
X143949807Y-84057532D01*
X143966227Y-84046952D01*
X143982005Y-84036107D01*
X143997129Y-84025005D01*
X144011588Y-84013653D01*
X144025372Y-84002059D01*
X144038469Y-83990229D01*
X144050867Y-83978171D01*
X144062556Y-83965892D01*
X144073525Y-83953399D01*
X144083763Y-83940700D01*
X144093257Y-83927802D01*
X144101998Y-83914712D01*
X144109974Y-83901437D01*
X144117174Y-83887985D01*
X144123586Y-83874363D01*
X144129200Y-83860578D01*
X144134005Y-83846638D01*
X144137989Y-83832549D01*
X144141141Y-83818320D01*
X144143450Y-83803957D01*
X144144905Y-83789467D01*
X144145494Y-83774858D01*
X144145208Y-83760137D01*
X144144033Y-83745312D01*
X144141960Y-83730389D01*
X144138978Y-83715376D01*
X144135074Y-83700281D01*
X144130238Y-83685109D01*
X144124459Y-83669870D01*
X144117725Y-83654569D01*
X144110026Y-83639215D01*
X144096171Y-83617722D01*
X144080945Y-83597867D01*
X144064422Y-83579615D01*
X144046671Y-83562930D01*
X144027766Y-83547776D01*
X144007777Y-83534117D01*
X143986776Y-83521917D01*
X143964836Y-83511140D01*
X143942028Y-83501751D01*
X143918423Y-83493714D01*
X143894093Y-83486992D01*
X143869111Y-83481550D01*
X143843547Y-83477353D01*
X143817473Y-83474363D01*
X143790962Y-83472546D01*
X143764084Y-83471866D01*
X143736911Y-83472286D01*
X143709516Y-83473772D01*
X143654344Y-83479793D01*
X143599140Y-83489644D01*
X143544480Y-83503037D01*
X143490935Y-83519686D01*
X143439080Y-83539304D01*
X143389489Y-83561603D01*
X143342735Y-83586298D01*
X143342735Y-83581006D01*
X143325683Y-83591315D01*
X143309263Y-83601895D01*
X143293486Y-83612739D01*
X143278361Y-83623841D01*
X143263902Y-83635193D01*
X143250118Y-83646787D01*
X143237022Y-83658617D01*
X143224623Y-83670675D01*
X143212934Y-83682954D01*
X143201965Y-83695447D01*
X143191728Y-83708146D01*
X143182233Y-83721044D01*
X143173492Y-83734134D01*
X143165516Y-83747409D01*
X143158317Y-83760861D01*
X143151904Y-83774483D01*
X143146290Y-83788268D01*
X143141485Y-83802208D01*
X143137502Y-83816297D01*
X143134350Y-83830526D01*
X143132041Y-83844889D01*
X143130586Y-83859379D01*
X143129996Y-83873988D01*
X143084971Y-83873988D01*
X143085153Y-83863696D01*
X143086424Y-83847140D01*
G37*
X143086424Y-83847140D02*
X143088657Y-83830712D01*
X143091838Y-83814425D01*
X143095952Y-83798293D01*
X143100986Y-83782329D01*
X143106925Y-83766545D01*
X143113756Y-83750955D01*
X143121463Y-83735572D01*
X143130035Y-83720409D01*
X143139455Y-83705479D01*
X143149711Y-83690795D01*
X143160788Y-83676370D01*
X143172672Y-83662218D01*
X143185349Y-83648351D01*
X143198805Y-83634782D01*
X143213026Y-83621525D01*
X143243707Y-83595997D01*
X143277279Y-83571872D01*
X143313631Y-83549256D01*
X143364877Y-83521427D01*
X143419004Y-83496664D01*
X143475417Y-83475243D01*
X143533524Y-83457437D01*
X143592732Y-83443522D01*
X143652447Y-83433774D01*
X143712077Y-83428468D01*
X143771029Y-83427878D01*
X143828710Y-83432280D01*
X143856888Y-83436439D01*
X143884526Y-83441950D01*
X143911550Y-83448845D01*
X143937885Y-83457161D01*
X143963458Y-83466931D01*
X143988194Y-83478190D01*
X144012019Y-83490973D01*
X144034860Y-83505312D01*
X144056641Y-83521244D01*
X144077289Y-83538802D01*
X144096730Y-83558021D01*
X144114890Y-83578935D01*
X144131694Y-83601578D01*
X144147068Y-83625985D01*
X144155171Y-83642642D01*
X144162338Y-83659620D01*
X144168568Y-83676881D01*
X144173859Y-83694388D01*
X144178208Y-83712103D01*
X144181613Y-83729986D01*
X144184072Y-83747999D01*
X144185583Y-83766105D01*
X144186144Y-83784266D01*
X144185752Y-83802443D01*
X144184405Y-83820597D01*
X144182101Y-83838691D01*
X144178838Y-83856687D01*
X144174614Y-83874545D01*
X144169426Y-83892229D01*
X144163272Y-83909700D01*
X144156195Y-83926817D01*
X144148257Y-83943449D01*
X144139484Y-83959568D01*
X144129905Y-83975147D01*
X144119545Y-83990159D01*
X144108432Y-84004578D01*
X144096593Y-84018376D01*
X144084056Y-84031527D01*
X144070847Y-84044002D01*
X144056994Y-84055776D01*
X144042523Y-84066822D01*
X144027463Y-84077111D01*
X144011839Y-84086618D01*
X143995679Y-84095315D01*
X143979010Y-84103176D01*
X143961860Y-84110172D01*
X143910613Y-84138001D01*
X143856486Y-84162764D01*
X143800073Y-84184186D01*
X143741966Y-84201992D01*
X143682759Y-84215906D01*
X143623043Y-84225654D01*
X143563413Y-84230961D01*
X143504461Y-84231550D01*
X143446781Y-84227148D01*
X143418603Y-84222989D01*
X143390964Y-84217479D01*
X143363941Y-84210583D01*
X143337605Y-84202267D01*
X143312032Y-84192497D01*
X143287296Y-84181238D01*
X143263471Y-84168456D01*
X143240631Y-84154116D01*
X143218849Y-84138185D01*
X143198201Y-84120627D01*
X143178760Y-84101408D01*
X143160601Y-84080494D01*
X143143797Y-84057851D01*
X143128422Y-84033444D01*
X143119304Y-84016323D01*
X143111288Y-83999200D01*
X143104361Y-83982087D01*
X143098507Y-83964998D01*
X143093713Y-83947946D01*
X143089965Y-83930944D01*
X143087250Y-83914005D01*
X143085552Y-83897142D01*
X143084857Y-83880368D01*
X143084971Y-83873988D01*
X143129996Y-83873988D01*
X143130283Y-83888709D01*
X143131457Y-83903534D01*
X143133530Y-83918457D01*
X143136513Y-83933470D01*
X143140416Y-83948565D01*
X143145252Y-83963737D01*
X143151031Y-83978976D01*
X143157765Y-83994277D01*
X143165464Y-84009631D01*
X143179327Y-84031605D01*
X143194574Y-84051910D01*
X143211132Y-84070584D01*
X143228928Y-84087663D01*
X143247888Y-84103183D01*
X143267940Y-84117183D01*
X143289011Y-84129698D01*
X143311026Y-84140765D01*
X143333914Y-84150422D01*
X143357600Y-84158704D01*
X143382012Y-84165650D01*
X143407077Y-84171295D01*
X143432721Y-84175677D01*
X143458872Y-84178832D01*
X143485455Y-84180798D01*
X143512399Y-84181610D01*
X143539629Y-84181306D01*
X143567073Y-84179923D01*
X143622309Y-84174065D01*
X143677522Y-84164332D01*
X143732127Y-84151018D01*
X143785538Y-84134417D01*
X143837170Y-84114824D01*
X143886437Y-84092533D01*
X143932756Y-84067840D01*
X143949807Y-84057532D01*
X143966227Y-84046952D01*
X143982005Y-84036107D01*
X143997129Y-84025005D01*
X144011588Y-84013653D01*
X144025372Y-84002059D01*
X144038469Y-83990229D01*
X144050867Y-83978171D01*
X144062556Y-83965892D01*
X144073525Y-83953399D01*
X144083763Y-83940700D01*
X144093257Y-83927802D01*
X144101998Y-83914712D01*
X144109974Y-83901437D01*
X144117174Y-83887985D01*
X144123586Y-83874363D01*
X144129200Y-83860578D01*
X144134005Y-83846638D01*
X144137989Y-83832549D01*
X144141141Y-83818320D01*
X144143450Y-83803957D01*
X144144905Y-83789467D01*
X144145494Y-83774858D01*
X144145208Y-83760137D01*
X144144033Y-83745312D01*
X144141960Y-83730389D01*
X144138978Y-83715376D01*
X144135074Y-83700281D01*
X144130238Y-83685109D01*
X144124459Y-83669870D01*
X144117725Y-83654569D01*
X144110026Y-83639215D01*
X144096171Y-83617722D01*
X144080945Y-83597867D01*
X144064422Y-83579615D01*
X144046671Y-83562930D01*
X144027766Y-83547776D01*
X144007777Y-83534117D01*
X143986776Y-83521917D01*
X143964836Y-83511140D01*
X143942028Y-83501751D01*
X143918423Y-83493714D01*
X143894093Y-83486992D01*
X143869111Y-83481550D01*
X143843547Y-83477353D01*
X143817473Y-83474363D01*
X143790962Y-83472546D01*
X143764084Y-83471866D01*
X143736911Y-83472286D01*
X143709516Y-83473772D01*
X143654344Y-83479793D01*
X143599140Y-83489644D01*
X143544480Y-83503037D01*
X143490935Y-83519686D01*
X143439080Y-83539304D01*
X143389489Y-83561603D01*
X143342735Y-83586298D01*
X143342735Y-83581006D01*
X143325683Y-83591315D01*
X143309263Y-83601895D01*
X143293486Y-83612739D01*
X143278361Y-83623841D01*
X143263902Y-83635193D01*
X143250118Y-83646787D01*
X143237022Y-83658617D01*
X143224623Y-83670675D01*
X143212934Y-83682954D01*
X143201965Y-83695447D01*
X143191728Y-83708146D01*
X143182233Y-83721044D01*
X143173492Y-83734134D01*
X143165516Y-83747409D01*
X143158317Y-83760861D01*
X143151904Y-83774483D01*
X143146290Y-83788268D01*
X143141485Y-83802208D01*
X143137502Y-83816297D01*
X143134350Y-83830526D01*
X143132041Y-83844889D01*
X143130586Y-83859379D01*
X143129996Y-83873988D01*
X143084971Y-83873988D01*
X143085153Y-83863696D01*
X143086424Y-83847140D01*
G36*
X144676235Y-84438256D02*
G01*
X143911589Y-85160569D01*
X143885131Y-85123528D01*
X144350797Y-84689611D01*
X144615381Y-84443548D01*
X144202631Y-84501757D01*
X143490901Y-84607591D01*
X143459151Y-84570549D01*
X144644485Y-84395923D01*
X144676235Y-84438256D01*
G37*
X144676235Y-84438256D02*
X143911589Y-85160569D01*
X143885131Y-85123528D01*
X144350797Y-84689611D01*
X144615381Y-84443548D01*
X144202631Y-84501757D01*
X143490901Y-84607591D01*
X143459151Y-84570549D01*
X144644485Y-84395923D01*
X144676235Y-84438256D01*
G36*
X156337172Y-84257870D02*
G01*
X156356621Y-84259684D01*
X156375874Y-84262539D01*
X156394891Y-84266420D01*
X156413632Y-84271309D01*
X156432059Y-84277191D01*
X156450131Y-84284050D01*
X156467809Y-84291868D01*
X156485053Y-84300630D01*
X156501824Y-84310320D01*
X156518082Y-84320920D01*
X156533787Y-84332416D01*
X156548900Y-84344791D01*
X156563382Y-84358028D01*
X156577192Y-84372112D01*
X156577192Y-84372111D01*
X156621918Y-84409931D01*
X156664505Y-84451677D01*
X156704487Y-84496934D01*
X156741399Y-84545289D01*
X156774777Y-84596325D01*
X156789995Y-84622719D01*
X156804155Y-84649629D01*
X156817199Y-84677001D01*
X156829068Y-84704785D01*
X156839705Y-84732928D01*
X156849052Y-84761379D01*
X156857049Y-84790086D01*
X156863640Y-84818996D01*
X156868765Y-84848059D01*
X156872368Y-84877222D01*
X156874389Y-84906434D01*
X156874771Y-84935642D01*
X156873455Y-84964795D01*
X156870384Y-84993840D01*
X156865498Y-85022727D01*
X156858741Y-85051403D01*
X156850053Y-85079817D01*
X156839378Y-85107916D01*
X156826656Y-85135649D01*
X156811829Y-85162964D01*
X156794840Y-85189808D01*
X156775630Y-85216131D01*
X156763336Y-85230518D01*
X156750206Y-85243928D01*
X156736297Y-85256338D01*
X156721667Y-85267726D01*
X156706375Y-85278071D01*
X156690478Y-85287351D01*
X156674034Y-85295542D01*
X156657103Y-85302624D01*
X156639741Y-85308573D01*
X156622007Y-85313369D01*
X156603960Y-85316989D01*
X156585656Y-85319410D01*
X156567155Y-85320612D01*
X156548515Y-85320571D01*
X156529793Y-85319265D01*
X156511047Y-85316673D01*
X156511047Y-85271694D01*
X156527210Y-85274552D01*
X156543389Y-85276255D01*
X156559530Y-85276823D01*
X156575579Y-85276275D01*
X156591481Y-85274630D01*
X156607182Y-85271908D01*
X156622628Y-85268127D01*
X156637765Y-85263308D01*
X156652539Y-85257469D01*
X156666896Y-85250630D01*
X156680781Y-85242810D01*
X156694140Y-85234028D01*
X156706919Y-85224305D01*
X156719064Y-85213658D01*
X156730520Y-85202107D01*
X156741234Y-85189673D01*
X156758514Y-85164643D01*
X156773685Y-85139196D01*
X156786808Y-85113377D01*
X156797944Y-85087235D01*
X156807153Y-85060815D01*
X156814497Y-85034165D01*
X156820037Y-85007332D01*
X156823834Y-84980363D01*
X156825948Y-84953305D01*
X156826442Y-84926204D01*
X156825376Y-84899109D01*
X156822811Y-84872065D01*
X156818807Y-84845120D01*
X156813427Y-84818321D01*
X156806732Y-84791714D01*
X156798781Y-84765348D01*
X156779360Y-84713522D01*
X156755652Y-84663220D01*
X156728146Y-84614816D01*
X156697330Y-84568688D01*
X156663692Y-84525211D01*
X156627721Y-84484760D01*
X156589906Y-84447713D01*
X156550733Y-84414444D01*
X156538335Y-84401578D01*
X156525317Y-84389481D01*
X156511715Y-84378169D01*
X156497566Y-84367657D01*
X156482907Y-84357959D01*
X156467775Y-84349092D01*
X156452204Y-84341071D01*
X156436233Y-84333910D01*
X156419897Y-84327625D01*
X156403233Y-84322230D01*
X156386278Y-84317742D01*
X156369067Y-84314175D01*
X156351638Y-84311545D01*
X156334027Y-84309866D01*
X156316270Y-84309154D01*
X156298404Y-84309424D01*
X156280579Y-84310680D01*
X156262948Y-84312906D01*
X156245544Y-84316083D01*
X156228404Y-84320192D01*
X156211561Y-84325216D01*
X156195050Y-84331136D01*
X156178908Y-84337934D01*
X156163169Y-84345591D01*
X156147867Y-84354090D01*
X156133039Y-84363412D01*
X156118719Y-84373539D01*
X156104942Y-84384453D01*
X156091742Y-84396136D01*
X156079157Y-84408568D01*
X156067219Y-84421733D01*
X156055964Y-84435611D01*
X156046206Y-84448041D01*
X156037094Y-84460873D01*
X156028635Y-84474082D01*
X156020839Y-84487640D01*
X156013713Y-84501525D01*
X156007266Y-84515709D01*
X156001505Y-84530168D01*
X155996438Y-84544875D01*
X155992075Y-84559806D01*
X155988421Y-84574935D01*
X155985487Y-84590237D01*
X155983279Y-84605686D01*
X155981807Y-84621257D01*
X155981077Y-84636924D01*
X155981099Y-84652662D01*
X155981880Y-84668446D01*
X156217359Y-84933028D01*
X156370818Y-84734591D01*
X156397276Y-84768987D01*
X156214714Y-85004465D01*
X155950130Y-84679029D01*
X155948710Y-84660099D01*
X155948180Y-84641197D01*
X155948530Y-84622352D01*
X155949753Y-84603594D01*
X155951840Y-84584952D01*
X155954783Y-84566455D01*
X155958575Y-84548133D01*
X155963206Y-84530015D01*
X155968669Y-84512129D01*
X155974956Y-84494506D01*
X155982057Y-84477175D01*
X155989966Y-84460165D01*
X155998673Y-84443506D01*
X156008171Y-84427226D01*
X156018451Y-84411355D01*
X156029506Y-84395923D01*
X156042041Y-84380694D01*
X156055319Y-84366250D01*
X156069302Y-84352610D01*
X156083950Y-84339795D01*
X156099226Y-84327823D01*
X156115093Y-84316715D01*
X156131512Y-84306489D01*
X156148444Y-84297166D01*
X156165853Y-84288765D01*
X156183699Y-84281307D01*
X156201946Y-84274809D01*
X156220554Y-84269293D01*
X156239486Y-84264777D01*
X156258704Y-84261282D01*
X156278169Y-84258826D01*
X156297845Y-84257430D01*
X156317567Y-84257113D01*
X156337172Y-84257870D01*
G37*
X156337172Y-84257870D02*
X156356621Y-84259684D01*
X156375874Y-84262539D01*
X156394891Y-84266420D01*
X156413632Y-84271309D01*
X156432059Y-84277191D01*
X156450131Y-84284050D01*
X156467809Y-84291868D01*
X156485053Y-84300630D01*
X156501824Y-84310320D01*
X156518082Y-84320920D01*
X156533787Y-84332416D01*
X156548900Y-84344791D01*
X156563382Y-84358028D01*
X156577192Y-84372112D01*
X156577192Y-84372111D01*
X156621918Y-84409931D01*
X156664505Y-84451677D01*
X156704487Y-84496934D01*
X156741399Y-84545289D01*
X156774777Y-84596325D01*
X156789995Y-84622719D01*
X156804155Y-84649629D01*
X156817199Y-84677001D01*
X156829068Y-84704785D01*
X156839705Y-84732928D01*
X156849052Y-84761379D01*
X156857049Y-84790086D01*
X156863640Y-84818996D01*
X156868765Y-84848059D01*
X156872368Y-84877222D01*
X156874389Y-84906434D01*
X156874771Y-84935642D01*
X156873455Y-84964795D01*
X156870384Y-84993840D01*
X156865498Y-85022727D01*
X156858741Y-85051403D01*
X156850053Y-85079817D01*
X156839378Y-85107916D01*
X156826656Y-85135649D01*
X156811829Y-85162964D01*
X156794840Y-85189808D01*
X156775630Y-85216131D01*
X156763336Y-85230518D01*
X156750206Y-85243928D01*
X156736297Y-85256338D01*
X156721667Y-85267726D01*
X156706375Y-85278071D01*
X156690478Y-85287351D01*
X156674034Y-85295542D01*
X156657103Y-85302624D01*
X156639741Y-85308573D01*
X156622007Y-85313369D01*
X156603960Y-85316989D01*
X156585656Y-85319410D01*
X156567155Y-85320612D01*
X156548515Y-85320571D01*
X156529793Y-85319265D01*
X156511047Y-85316673D01*
X156511047Y-85271694D01*
X156527210Y-85274552D01*
X156543389Y-85276255D01*
X156559530Y-85276823D01*
X156575579Y-85276275D01*
X156591481Y-85274630D01*
X156607182Y-85271908D01*
X156622628Y-85268127D01*
X156637765Y-85263308D01*
X156652539Y-85257469D01*
X156666896Y-85250630D01*
X156680781Y-85242810D01*
X156694140Y-85234028D01*
X156706919Y-85224305D01*
X156719064Y-85213658D01*
X156730520Y-85202107D01*
X156741234Y-85189673D01*
X156758514Y-85164643D01*
X156773685Y-85139196D01*
X156786808Y-85113377D01*
X156797944Y-85087235D01*
X156807153Y-85060815D01*
X156814497Y-85034165D01*
X156820037Y-85007332D01*
X156823834Y-84980363D01*
X156825948Y-84953305D01*
X156826442Y-84926204D01*
X156825376Y-84899109D01*
X156822811Y-84872065D01*
X156818807Y-84845120D01*
X156813427Y-84818321D01*
X156806732Y-84791714D01*
X156798781Y-84765348D01*
X156779360Y-84713522D01*
X156755652Y-84663220D01*
X156728146Y-84614816D01*
X156697330Y-84568688D01*
X156663692Y-84525211D01*
X156627721Y-84484760D01*
X156589906Y-84447713D01*
X156550733Y-84414444D01*
X156538335Y-84401578D01*
X156525317Y-84389481D01*
X156511715Y-84378169D01*
X156497566Y-84367657D01*
X156482907Y-84357959D01*
X156467775Y-84349092D01*
X156452204Y-84341071D01*
X156436233Y-84333910D01*
X156419897Y-84327625D01*
X156403233Y-84322230D01*
X156386278Y-84317742D01*
X156369067Y-84314175D01*
X156351638Y-84311545D01*
X156334027Y-84309866D01*
X156316270Y-84309154D01*
X156298404Y-84309424D01*
X156280579Y-84310680D01*
X156262948Y-84312906D01*
X156245544Y-84316083D01*
X156228404Y-84320192D01*
X156211561Y-84325216D01*
X156195050Y-84331136D01*
X156178908Y-84337934D01*
X156163169Y-84345591D01*
X156147867Y-84354090D01*
X156133039Y-84363412D01*
X156118719Y-84373539D01*
X156104942Y-84384453D01*
X156091742Y-84396136D01*
X156079157Y-84408568D01*
X156067219Y-84421733D01*
X156055964Y-84435611D01*
X156046206Y-84448041D01*
X156037094Y-84460873D01*
X156028635Y-84474082D01*
X156020839Y-84487640D01*
X156013713Y-84501525D01*
X156007266Y-84515709D01*
X156001505Y-84530168D01*
X155996438Y-84544875D01*
X155992075Y-84559806D01*
X155988421Y-84574935D01*
X155985487Y-84590237D01*
X155983279Y-84605686D01*
X155981807Y-84621257D01*
X155981077Y-84636924D01*
X155981099Y-84652662D01*
X155981880Y-84668446D01*
X156217359Y-84933028D01*
X156370818Y-84734591D01*
X156397276Y-84768987D01*
X156214714Y-85004465D01*
X155950130Y-84679029D01*
X155948710Y-84660099D01*
X155948180Y-84641197D01*
X155948530Y-84622352D01*
X155949753Y-84603594D01*
X155951840Y-84584952D01*
X155954783Y-84566455D01*
X155958575Y-84548133D01*
X155963206Y-84530015D01*
X155968669Y-84512129D01*
X155974956Y-84494506D01*
X155982057Y-84477175D01*
X155989966Y-84460165D01*
X155998673Y-84443506D01*
X156008171Y-84427226D01*
X156018451Y-84411355D01*
X156029506Y-84395923D01*
X156042041Y-84380694D01*
X156055319Y-84366250D01*
X156069302Y-84352610D01*
X156083950Y-84339795D01*
X156099226Y-84327823D01*
X156115093Y-84316715D01*
X156131512Y-84306489D01*
X156148444Y-84297166D01*
X156165853Y-84288765D01*
X156183699Y-84281307D01*
X156201946Y-84274809D01*
X156220554Y-84269293D01*
X156239486Y-84264777D01*
X156258704Y-84261282D01*
X156278169Y-84258826D01*
X156297845Y-84257430D01*
X156317567Y-84257113D01*
X156337172Y-84257870D01*
G36*
X144996381Y-84821902D02*
G01*
X145030776Y-84853652D01*
X144793919Y-85154095D01*
X145088448Y-85453493D01*
X145504380Y-85340485D01*
X145541422Y-85377526D01*
X144382547Y-85692382D01*
X144350797Y-85657986D01*
X144361013Y-85644756D01*
X144409006Y-85644756D01*
X144803235Y-85530985D01*
X145040708Y-85466464D01*
X145062526Y-85488652D01*
X145102214Y-85467486D01*
X145088448Y-85453493D01*
X145040708Y-85466464D01*
X144767054Y-85188172D01*
X144636547Y-85353715D01*
X144521784Y-85499236D01*
X144464279Y-85572492D01*
X144409006Y-85644756D01*
X144361013Y-85644756D01*
X144726707Y-85171152D01*
X144750318Y-85171152D01*
X144767054Y-85188172D01*
X144793919Y-85154095D01*
X144782068Y-85142048D01*
X144750318Y-85171152D01*
X144726707Y-85171152D01*
X144996381Y-84821902D01*
G37*
X144996381Y-84821902D02*
X145030776Y-84853652D01*
X144793919Y-85154095D01*
X145088448Y-85453493D01*
X145504380Y-85340485D01*
X145541422Y-85377526D01*
X144382547Y-85692382D01*
X144350797Y-85657986D01*
X144361013Y-85644756D01*
X144409006Y-85644756D01*
X144803235Y-85530985D01*
X145040708Y-85466464D01*
X145062526Y-85488652D01*
X145102214Y-85467486D01*
X145088448Y-85453493D01*
X145040708Y-85466464D01*
X144767054Y-85188172D01*
X144636547Y-85353715D01*
X144521784Y-85499236D01*
X144464279Y-85572492D01*
X144409006Y-85644756D01*
X144361013Y-85644756D01*
X144726707Y-85171152D01*
X144750318Y-85171152D01*
X144767054Y-85188172D01*
X144793919Y-85154095D01*
X144782068Y-85142048D01*
X144750318Y-85171152D01*
X144726707Y-85171152D01*
X144996381Y-84821902D01*
G36*
X155270151Y-85279632D02*
G01*
X155564897Y-85508878D01*
X155867138Y-85209114D01*
X155881816Y-85262600D01*
X155902506Y-85242589D01*
X155873400Y-85202903D01*
X155867138Y-85209114D01*
X155754338Y-84798090D01*
X155788734Y-84763694D01*
X156108880Y-85919923D01*
X156077130Y-85954319D01*
X155512751Y-85523049D01*
X155550609Y-85523049D01*
X155579714Y-85554798D01*
X155599425Y-85535734D01*
X155770214Y-85668570D01*
X155842478Y-85723843D01*
X155915735Y-85781348D01*
X156061255Y-85896112D01*
X156004370Y-85695028D01*
X155976423Y-85598455D01*
X155947484Y-85501882D01*
X155881816Y-85262600D01*
X155599425Y-85535734D01*
X155564897Y-85508878D01*
X155550609Y-85523049D01*
X155512751Y-85523049D01*
X155235755Y-85311382D01*
X155270151Y-85279632D01*
G37*
X155270151Y-85279632D02*
X155564897Y-85508878D01*
X155867138Y-85209114D01*
X155881816Y-85262600D01*
X155902506Y-85242589D01*
X155873400Y-85202903D01*
X155867138Y-85209114D01*
X155754338Y-84798090D01*
X155788734Y-84763694D01*
X156108880Y-85919923D01*
X156077130Y-85954319D01*
X155512751Y-85523049D01*
X155550609Y-85523049D01*
X155579714Y-85554798D01*
X155599425Y-85535734D01*
X155770214Y-85668570D01*
X155842478Y-85723843D01*
X155915735Y-85781348D01*
X156061255Y-85896112D01*
X156004370Y-85695028D01*
X155976423Y-85598455D01*
X155947484Y-85501882D01*
X155881816Y-85262600D01*
X155599425Y-85535734D01*
X155564897Y-85508878D01*
X155550609Y-85523049D01*
X155512751Y-85523049D01*
X155235755Y-85311382D01*
X155270151Y-85279632D01*
G36*
X154657561Y-86012012D02*
G01*
X154660764Y-85981260D01*
X154665596Y-85950884D01*
X154672024Y-85920942D01*
X154680017Y-85891489D01*
X154689543Y-85862583D01*
X154700572Y-85834283D01*
X154713070Y-85806644D01*
X154727008Y-85779724D01*
X154742352Y-85753581D01*
X154759071Y-85728272D01*
X154777135Y-85703854D01*
X154796511Y-85680384D01*
X154817167Y-85657919D01*
X154839072Y-85636517D01*
X154862195Y-85616235D01*
X154886504Y-85597131D01*
X155084942Y-85446319D01*
X155555900Y-86406757D01*
X155407734Y-86520527D01*
X155392166Y-86535318D01*
X155375880Y-86549126D01*
X155358924Y-86561935D01*
X155341343Y-86573727D01*
X155323185Y-86584485D01*
X155304497Y-86594194D01*
X155285325Y-86602837D01*
X155265718Y-86610397D01*
X155245721Y-86616857D01*
X155225382Y-86622201D01*
X155204747Y-86626413D01*
X155183865Y-86629474D01*
X155162780Y-86631370D01*
X155141542Y-86632083D01*
X155120196Y-86631597D01*
X155098789Y-86629894D01*
X155077513Y-86626982D01*
X155056557Y-86622895D01*
X155035961Y-86617660D01*
X155015770Y-86611302D01*
X154996024Y-86603848D01*
X154976766Y-86595324D01*
X154958039Y-86585756D01*
X154939885Y-86575171D01*
X154922347Y-86563596D01*
X154905466Y-86551055D01*
X154889284Y-86537576D01*
X154873845Y-86523185D01*
X154859191Y-86507908D01*
X154845363Y-86491772D01*
X154832405Y-86474802D01*
X154820358Y-86457026D01*
X154799257Y-86434428D01*
X154779508Y-86410849D01*
X154761134Y-86386348D01*
X154744156Y-86360989D01*
X154728598Y-86334832D01*
X154714482Y-86307938D01*
X154701829Y-86280369D01*
X154690664Y-86252187D01*
X154681008Y-86223453D01*
X154672884Y-86194228D01*
X154666313Y-86164573D01*
X154661320Y-86134551D01*
X154657925Y-86104222D01*
X154656152Y-86073649D01*
X154656029Y-86044275D01*
X154701492Y-86044275D01*
X154701795Y-86072614D01*
X154703604Y-86100776D01*
X154706898Y-86128704D01*
X154711658Y-86156343D01*
X154717862Y-86183637D01*
X154725489Y-86210529D01*
X154734519Y-86236965D01*
X154744930Y-86262887D01*
X154756703Y-86288240D01*
X154769816Y-86312969D01*
X154784248Y-86337016D01*
X154799979Y-86360326D01*
X154816987Y-86382844D01*
X154835253Y-86404513D01*
X154854755Y-86425277D01*
X154865516Y-86441366D01*
X154877101Y-86456734D01*
X154889475Y-86471356D01*
X154902598Y-86485208D01*
X154916432Y-86498268D01*
X154930940Y-86510510D01*
X154946085Y-86521910D01*
X154961827Y-86532446D01*
X154978128Y-86542093D01*
X154994952Y-86550827D01*
X155012260Y-86558624D01*
X155030014Y-86565461D01*
X155048176Y-86571313D01*
X155066709Y-86576156D01*
X155085573Y-86579967D01*
X155104732Y-86582722D01*
X155124016Y-86584388D01*
X155143254Y-86584958D01*
X155162402Y-86584448D01*
X155181418Y-86582872D01*
X155200260Y-86580244D01*
X155218886Y-86576579D01*
X155237253Y-86571892D01*
X155255319Y-86566198D01*
X155273042Y-86559510D01*
X155290379Y-86551845D01*
X155307287Y-86543216D01*
X155323725Y-86533638D01*
X155339650Y-86523126D01*
X155355019Y-86511694D01*
X155369791Y-86499357D01*
X155383922Y-86486130D01*
X155500338Y-86396173D01*
X155066422Y-85512465D01*
X154910318Y-85631527D01*
X154888113Y-85649372D01*
X154867007Y-85668284D01*
X154847027Y-85688213D01*
X154828201Y-85709104D01*
X154810560Y-85730907D01*
X154794130Y-85753567D01*
X154778940Y-85777033D01*
X154765019Y-85801252D01*
X154752394Y-85826172D01*
X154741095Y-85851740D01*
X154731149Y-85877903D01*
X154722585Y-85904609D01*
X154715432Y-85931806D01*
X154709717Y-85959441D01*
X154705469Y-85987462D01*
X154702717Y-86015815D01*
X154701492Y-86044275D01*
X154656029Y-86044275D01*
X154656023Y-86042891D01*
X154657561Y-86012012D01*
G37*
X154657561Y-86012012D02*
X154660764Y-85981260D01*
X154665596Y-85950884D01*
X154672024Y-85920942D01*
X154680017Y-85891489D01*
X154689543Y-85862583D01*
X154700572Y-85834283D01*
X154713070Y-85806644D01*
X154727008Y-85779724D01*
X154742352Y-85753581D01*
X154759071Y-85728272D01*
X154777135Y-85703854D01*
X154796511Y-85680384D01*
X154817167Y-85657919D01*
X154839072Y-85636517D01*
X154862195Y-85616235D01*
X154886504Y-85597131D01*
X155084942Y-85446319D01*
X155555900Y-86406757D01*
X155407734Y-86520527D01*
X155392166Y-86535318D01*
X155375880Y-86549126D01*
X155358924Y-86561935D01*
X155341343Y-86573727D01*
X155323185Y-86584485D01*
X155304497Y-86594194D01*
X155285325Y-86602837D01*
X155265718Y-86610397D01*
X155245721Y-86616857D01*
X155225382Y-86622201D01*
X155204747Y-86626413D01*
X155183865Y-86629474D01*
X155162780Y-86631370D01*
X155141542Y-86632083D01*
X155120196Y-86631597D01*
X155098789Y-86629894D01*
X155077513Y-86626982D01*
X155056557Y-86622895D01*
X155035961Y-86617660D01*
X155015770Y-86611302D01*
X154996024Y-86603848D01*
X154976766Y-86595324D01*
X154958039Y-86585756D01*
X154939885Y-86575171D01*
X154922347Y-86563596D01*
X154905466Y-86551055D01*
X154889284Y-86537576D01*
X154873845Y-86523185D01*
X154859191Y-86507908D01*
X154845363Y-86491772D01*
X154832405Y-86474802D01*
X154820358Y-86457026D01*
X154799257Y-86434428D01*
X154779508Y-86410849D01*
X154761134Y-86386348D01*
X154744156Y-86360989D01*
X154728598Y-86334832D01*
X154714482Y-86307938D01*
X154701829Y-86280369D01*
X154690664Y-86252187D01*
X154681008Y-86223453D01*
X154672884Y-86194228D01*
X154666313Y-86164573D01*
X154661320Y-86134551D01*
X154657925Y-86104222D01*
X154656152Y-86073649D01*
X154656029Y-86044275D01*
X154701492Y-86044275D01*
X154701795Y-86072614D01*
X154703604Y-86100776D01*
X154706898Y-86128704D01*
X154711658Y-86156343D01*
X154717862Y-86183637D01*
X154725489Y-86210529D01*
X154734519Y-86236965D01*
X154744930Y-86262887D01*
X154756703Y-86288240D01*
X154769816Y-86312969D01*
X154784248Y-86337016D01*
X154799979Y-86360326D01*
X154816987Y-86382844D01*
X154835253Y-86404513D01*
X154854755Y-86425277D01*
X154865516Y-86441366D01*
X154877101Y-86456734D01*
X154889475Y-86471356D01*
X154902598Y-86485208D01*
X154916432Y-86498268D01*
X154930940Y-86510510D01*
X154946085Y-86521910D01*
X154961827Y-86532446D01*
X154978128Y-86542093D01*
X154994952Y-86550827D01*
X155012260Y-86558624D01*
X155030014Y-86565461D01*
X155048176Y-86571313D01*
X155066709Y-86576156D01*
X155085573Y-86579967D01*
X155104732Y-86582722D01*
X155124016Y-86584388D01*
X155143254Y-86584958D01*
X155162402Y-86584448D01*
X155181418Y-86582872D01*
X155200260Y-86580244D01*
X155218886Y-86576579D01*
X155237253Y-86571892D01*
X155255319Y-86566198D01*
X155273042Y-86559510D01*
X155290379Y-86551845D01*
X155307287Y-86543216D01*
X155323725Y-86533638D01*
X155339650Y-86523126D01*
X155355019Y-86511694D01*
X155369791Y-86499357D01*
X155383922Y-86486130D01*
X155500338Y-86396173D01*
X155066422Y-85512465D01*
X154910318Y-85631527D01*
X154888113Y-85649372D01*
X154867007Y-85668284D01*
X154847027Y-85688213D01*
X154828201Y-85709104D01*
X154810560Y-85730907D01*
X154794130Y-85753567D01*
X154778940Y-85777033D01*
X154765019Y-85801252D01*
X154752394Y-85826172D01*
X154741095Y-85851740D01*
X154731149Y-85877903D01*
X154722585Y-85904609D01*
X154715432Y-85931806D01*
X154709717Y-85959441D01*
X154705469Y-85987462D01*
X154702717Y-86015815D01*
X154701492Y-86044275D01*
X154656029Y-86044275D01*
X154656023Y-86042891D01*
X154657561Y-86012012D01*
G36*
X145985922Y-85724132D02*
G01*
X145208047Y-86388235D01*
X145499089Y-86618423D01*
X145464693Y-86647527D01*
X144842922Y-86158048D01*
X144879964Y-86128944D01*
X145171006Y-86359131D01*
X145948880Y-85695028D01*
X145985922Y-85724132D01*
G37*
X145985922Y-85724132D02*
X145208047Y-86388235D01*
X145499089Y-86618423D01*
X145464693Y-86647527D01*
X144842922Y-86158048D01*
X144879964Y-86128944D01*
X145171006Y-86359131D01*
X145948880Y-85695028D01*
X145985922Y-85724132D01*
G36*
X146877568Y-86308860D02*
G01*
X146160547Y-87099965D01*
X146120859Y-87076153D01*
X146808776Y-86316798D01*
X146319297Y-86028402D01*
X146348401Y-85999297D01*
X146877568Y-86308860D01*
G37*
X146877568Y-86308860D02*
X146160547Y-87099965D01*
X146120859Y-87076153D01*
X146808776Y-86316798D01*
X146319297Y-86028402D01*
X146348401Y-85999297D01*
X146877568Y-86308860D01*
G36*
X154178964Y-86145584D02*
G01*
X154199148Y-86147413D01*
X154219276Y-86150399D01*
X154239297Y-86154549D01*
X154259164Y-86159873D01*
X154278692Y-86166329D01*
X154297705Y-86173851D01*
X154316167Y-86182404D01*
X154334043Y-86191956D01*
X154351295Y-86202473D01*
X154367888Y-86213922D01*
X154383786Y-86226270D01*
X154398953Y-86239484D01*
X154413352Y-86253530D01*
X154426948Y-86268374D01*
X154439704Y-86283985D01*
X154451585Y-86300328D01*
X154462554Y-86317371D01*
X154472575Y-86335079D01*
X154481613Y-86353421D01*
X154489630Y-86372361D01*
X154517242Y-86423643D01*
X154541359Y-86477890D01*
X154561707Y-86534531D01*
X154578018Y-86592999D01*
X154590018Y-86652722D01*
X154597438Y-86713131D01*
X154600005Y-86773656D01*
X154597448Y-86833728D01*
X154594163Y-86863416D01*
X154589496Y-86892777D01*
X154583412Y-86921739D01*
X154575878Y-86950233D01*
X154566859Y-86978185D01*
X154556322Y-87005526D01*
X154544233Y-87032183D01*
X154530558Y-87058087D01*
X154515262Y-87083164D01*
X154498313Y-87107345D01*
X154479676Y-87130558D01*
X154459317Y-87152732D01*
X154437202Y-87173796D01*
X154413297Y-87193678D01*
X154387570Y-87212307D01*
X154359984Y-87229612D01*
X154343511Y-87238515D01*
X154326615Y-87246231D01*
X154309358Y-87252761D01*
X154291799Y-87258103D01*
X154273999Y-87262257D01*
X154256018Y-87265225D01*
X154237917Y-87267006D01*
X154219755Y-87267600D01*
X154201593Y-87267006D01*
X154183492Y-87265225D01*
X154165511Y-87262257D01*
X154147711Y-87258103D01*
X154130153Y-87252761D01*
X154112895Y-87246231D01*
X154096000Y-87238515D01*
X154079527Y-87229612D01*
X154098046Y-87189923D01*
X154112239Y-87198081D01*
X154126840Y-87205152D01*
X154141791Y-87211134D01*
X154157034Y-87216029D01*
X154172509Y-87219836D01*
X154188160Y-87222555D01*
X154203928Y-87224187D01*
X154219754Y-87224731D01*
X154235580Y-87224187D01*
X154251348Y-87222555D01*
X154266999Y-87219836D01*
X154282475Y-87216029D01*
X154297717Y-87211134D01*
X154312668Y-87205152D01*
X154327269Y-87198081D01*
X154341462Y-87189923D01*
X154365442Y-87174363D01*
X154387794Y-87157493D01*
X154408549Y-87139387D01*
X154427736Y-87120114D01*
X154445386Y-87099746D01*
X154461530Y-87078355D01*
X154476199Y-87056011D01*
X154489422Y-87032786D01*
X154501231Y-87008751D01*
X154511655Y-86983977D01*
X154520726Y-86958535D01*
X154528474Y-86932497D01*
X154534929Y-86905934D01*
X154540123Y-86878917D01*
X154544084Y-86851518D01*
X154546845Y-86823806D01*
X154548435Y-86795855D01*
X154548886Y-86767734D01*
X154546489Y-86711271D01*
X154539898Y-86654985D01*
X154529358Y-86599448D01*
X154515112Y-86545228D01*
X154497406Y-86492896D01*
X154476483Y-86443022D01*
X154452587Y-86396174D01*
X154432562Y-86363373D01*
X154422046Y-86347713D01*
X154411199Y-86332581D01*
X154400025Y-86318003D01*
X154388527Y-86304005D01*
X154376708Y-86290614D01*
X154364572Y-86277855D01*
X154352121Y-86265756D01*
X154339361Y-86254341D01*
X154326293Y-86243638D01*
X154312921Y-86233672D01*
X154299249Y-86224470D01*
X154285280Y-86216057D01*
X154271017Y-86208460D01*
X154256464Y-86201705D01*
X154241625Y-86195818D01*
X154226502Y-86190826D01*
X154211099Y-86186754D01*
X154195419Y-86183629D01*
X154179466Y-86181476D01*
X154163243Y-86180323D01*
X154146754Y-86180194D01*
X154130002Y-86181117D01*
X154112990Y-86183117D01*
X154095722Y-86186221D01*
X154078200Y-86190455D01*
X154060430Y-86195845D01*
X154042413Y-86202416D01*
X154024154Y-86210196D01*
X154005655Y-86219211D01*
X153986920Y-86229486D01*
X153973137Y-86237357D01*
X153959828Y-86245873D01*
X153947009Y-86255010D01*
X153934701Y-86264746D01*
X153922921Y-86275059D01*
X153911687Y-86285924D01*
X153901019Y-86297320D01*
X153890934Y-86309223D01*
X153881451Y-86321612D01*
X153872588Y-86334462D01*
X153864363Y-86347751D01*
X153856795Y-86361457D01*
X153849903Y-86375556D01*
X153843704Y-86390025D01*
X153838218Y-86404843D01*
X153833462Y-86419986D01*
X153949880Y-86777173D01*
X154166838Y-86650173D01*
X154166838Y-86689861D01*
X153902255Y-86840674D01*
X153767318Y-86438507D01*
X153773547Y-86420769D01*
X153780551Y-86403395D01*
X153788311Y-86386409D01*
X153796809Y-86369833D01*
X153806027Y-86353689D01*
X153815948Y-86337998D01*
X153826554Y-86322785D01*
X153837827Y-86308069D01*
X153849749Y-86293875D01*
X153862302Y-86280224D01*
X153875469Y-86267138D01*
X153889231Y-86254639D01*
X153903572Y-86242751D01*
X153918472Y-86231494D01*
X153933915Y-86220891D01*
X153949881Y-86210965D01*
X153966981Y-86199535D01*
X153984603Y-86189166D01*
X154002701Y-86179865D01*
X154021225Y-86171642D01*
X154040127Y-86164504D01*
X154059359Y-86158458D01*
X154078872Y-86153513D01*
X154098618Y-86149678D01*
X154118549Y-86146959D01*
X154138615Y-86145365D01*
X154158770Y-86144904D01*
X154178964Y-86145584D01*
G37*
X154178964Y-86145584D02*
X154199148Y-86147413D01*
X154219276Y-86150399D01*
X154239297Y-86154549D01*
X154259164Y-86159873D01*
X154278692Y-86166329D01*
X154297705Y-86173851D01*
X154316167Y-86182404D01*
X154334043Y-86191956D01*
X154351295Y-86202473D01*
X154367888Y-86213922D01*
X154383786Y-86226270D01*
X154398953Y-86239484D01*
X154413352Y-86253530D01*
X154426948Y-86268374D01*
X154439704Y-86283985D01*
X154451585Y-86300328D01*
X154462554Y-86317371D01*
X154472575Y-86335079D01*
X154481613Y-86353421D01*
X154489630Y-86372361D01*
X154517242Y-86423643D01*
X154541359Y-86477890D01*
X154561707Y-86534531D01*
X154578018Y-86592999D01*
X154590018Y-86652722D01*
X154597438Y-86713131D01*
X154600005Y-86773656D01*
X154597448Y-86833728D01*
X154594163Y-86863416D01*
X154589496Y-86892777D01*
X154583412Y-86921739D01*
X154575878Y-86950233D01*
X154566859Y-86978185D01*
X154556322Y-87005526D01*
X154544233Y-87032183D01*
X154530558Y-87058087D01*
X154515262Y-87083164D01*
X154498313Y-87107345D01*
X154479676Y-87130558D01*
X154459317Y-87152732D01*
X154437202Y-87173796D01*
X154413297Y-87193678D01*
X154387570Y-87212307D01*
X154359984Y-87229612D01*
X154343511Y-87238515D01*
X154326615Y-87246231D01*
X154309358Y-87252761D01*
X154291799Y-87258103D01*
X154273999Y-87262257D01*
X154256018Y-87265225D01*
X154237917Y-87267006D01*
X154219755Y-87267600D01*
X154201593Y-87267006D01*
X154183492Y-87265225D01*
X154165511Y-87262257D01*
X154147711Y-87258103D01*
X154130153Y-87252761D01*
X154112895Y-87246231D01*
X154096000Y-87238515D01*
X154079527Y-87229612D01*
X154098046Y-87189923D01*
X154112239Y-87198081D01*
X154126840Y-87205152D01*
X154141791Y-87211134D01*
X154157034Y-87216029D01*
X154172509Y-87219836D01*
X154188160Y-87222555D01*
X154203928Y-87224187D01*
X154219754Y-87224731D01*
X154235580Y-87224187D01*
X154251348Y-87222555D01*
X154266999Y-87219836D01*
X154282475Y-87216029D01*
X154297717Y-87211134D01*
X154312668Y-87205152D01*
X154327269Y-87198081D01*
X154341462Y-87189923D01*
X154365442Y-87174363D01*
X154387794Y-87157493D01*
X154408549Y-87139387D01*
X154427736Y-87120114D01*
X154445386Y-87099746D01*
X154461530Y-87078355D01*
X154476199Y-87056011D01*
X154489422Y-87032786D01*
X154501231Y-87008751D01*
X154511655Y-86983977D01*
X154520726Y-86958535D01*
X154528474Y-86932497D01*
X154534929Y-86905934D01*
X154540123Y-86878917D01*
X154544084Y-86851518D01*
X154546845Y-86823806D01*
X154548435Y-86795855D01*
X154548886Y-86767734D01*
X154546489Y-86711271D01*
X154539898Y-86654985D01*
X154529358Y-86599448D01*
X154515112Y-86545228D01*
X154497406Y-86492896D01*
X154476483Y-86443022D01*
X154452587Y-86396174D01*
X154432562Y-86363373D01*
X154422046Y-86347713D01*
X154411199Y-86332581D01*
X154400025Y-86318003D01*
X154388527Y-86304005D01*
X154376708Y-86290614D01*
X154364572Y-86277855D01*
X154352121Y-86265756D01*
X154339361Y-86254341D01*
X154326293Y-86243638D01*
X154312921Y-86233672D01*
X154299249Y-86224470D01*
X154285280Y-86216057D01*
X154271017Y-86208460D01*
X154256464Y-86201705D01*
X154241625Y-86195818D01*
X154226502Y-86190826D01*
X154211099Y-86186754D01*
X154195419Y-86183629D01*
X154179466Y-86181476D01*
X154163243Y-86180323D01*
X154146754Y-86180194D01*
X154130002Y-86181117D01*
X154112990Y-86183117D01*
X154095722Y-86186221D01*
X154078200Y-86190455D01*
X154060430Y-86195845D01*
X154042413Y-86202416D01*
X154024154Y-86210196D01*
X154005655Y-86219211D01*
X153986920Y-86229486D01*
X153973137Y-86237357D01*
X153959828Y-86245873D01*
X153947009Y-86255010D01*
X153934701Y-86264746D01*
X153922921Y-86275059D01*
X153911687Y-86285924D01*
X153901019Y-86297320D01*
X153890934Y-86309223D01*
X153881451Y-86321612D01*
X153872588Y-86334462D01*
X153864363Y-86347751D01*
X153856795Y-86361457D01*
X153849903Y-86375556D01*
X153843704Y-86390025D01*
X153838218Y-86404843D01*
X153833462Y-86419986D01*
X153949880Y-86777173D01*
X154166838Y-86650173D01*
X154166838Y-86689861D01*
X153902255Y-86840674D01*
X153767318Y-86438507D01*
X153773547Y-86420769D01*
X153780551Y-86403395D01*
X153788311Y-86386409D01*
X153796809Y-86369833D01*
X153806027Y-86353689D01*
X153815948Y-86337998D01*
X153826554Y-86322785D01*
X153837827Y-86308069D01*
X153849749Y-86293875D01*
X153862302Y-86280224D01*
X153875469Y-86267138D01*
X153889231Y-86254639D01*
X153903572Y-86242751D01*
X153918472Y-86231494D01*
X153933915Y-86220891D01*
X153949881Y-86210965D01*
X153966981Y-86199535D01*
X153984603Y-86189166D01*
X154002701Y-86179865D01*
X154021225Y-86171642D01*
X154040127Y-86164504D01*
X154059359Y-86158458D01*
X154078872Y-86153513D01*
X154098618Y-86149678D01*
X154118549Y-86146959D01*
X154138615Y-86145365D01*
X154158770Y-86144904D01*
X154178964Y-86145584D01*
G36*
X146767515Y-87228245D02*
G01*
X146768780Y-87209661D01*
X146770866Y-87190833D01*
X146773771Y-87171779D01*
X146777489Y-87152521D01*
X146782019Y-87133079D01*
X146787356Y-87113473D01*
X146793498Y-87093724D01*
X146800440Y-87073852D01*
X146808180Y-87053877D01*
X146816714Y-87033819D01*
X146842090Y-86980491D01*
X146871392Y-86928038D01*
X146904330Y-86877026D01*
X146940613Y-86828023D01*
X146979950Y-86781593D01*
X147022050Y-86738302D01*
X147044045Y-86718011D01*
X147066623Y-86698717D01*
X147089746Y-86680490D01*
X147113378Y-86663402D01*
X147137482Y-86647524D01*
X147162024Y-86632925D01*
X147186965Y-86619677D01*
X147212271Y-86607850D01*
X147237904Y-86597516D01*
X147263828Y-86588744D01*
X147290007Y-86581606D01*
X147316404Y-86576172D01*
X147342984Y-86572514D01*
X147369709Y-86570701D01*
X147396544Y-86570805D01*
X147423452Y-86572896D01*
X147450397Y-86577045D01*
X147477342Y-86583323D01*
X147504251Y-86591800D01*
X147531089Y-86602548D01*
X147548747Y-86610583D01*
X147565510Y-86619297D01*
X147581380Y-86628671D01*
X147596361Y-86638685D01*
X147610457Y-86649322D01*
X147623670Y-86660562D01*
X147636005Y-86672386D01*
X147647464Y-86684776D01*
X147658051Y-86697712D01*
X147667770Y-86711175D01*
X147676623Y-86725148D01*
X147684614Y-86739610D01*
X147691747Y-86754543D01*
X147698025Y-86769928D01*
X147703451Y-86785746D01*
X147708029Y-86801978D01*
X147711762Y-86818606D01*
X147714653Y-86835610D01*
X147716706Y-86852971D01*
X147717925Y-86870672D01*
X147718312Y-86888692D01*
X147717871Y-86907012D01*
X147716606Y-86925615D01*
X147714519Y-86944481D01*
X147711615Y-86963591D01*
X147707897Y-86982926D01*
X147703367Y-87002468D01*
X147698030Y-87022197D01*
X147691888Y-87042095D01*
X147684946Y-87062142D01*
X147677206Y-87082321D01*
X147668672Y-87102611D01*
X147643296Y-87155911D01*
X147613993Y-87208284D01*
X147581055Y-87259177D01*
X147544773Y-87308035D01*
X147505436Y-87354304D01*
X147463336Y-87397430D01*
X147441340Y-87417641D01*
X147418763Y-87436858D01*
X147395640Y-87455013D01*
X147372008Y-87472035D01*
X147347903Y-87487856D01*
X147323362Y-87502406D01*
X147298420Y-87515616D01*
X147273115Y-87527416D01*
X147247482Y-87537739D01*
X147221558Y-87546513D01*
X147195379Y-87553670D01*
X147168981Y-87559141D01*
X147142402Y-87562856D01*
X147115677Y-87564746D01*
X147088842Y-87564741D01*
X147061934Y-87562773D01*
X147034989Y-87558773D01*
X147008044Y-87552670D01*
X146981134Y-87544396D01*
X146954297Y-87533881D01*
X146936638Y-87525839D01*
X146919876Y-87517103D01*
X146904006Y-87507695D01*
X146889024Y-87497636D01*
X146874929Y-87486944D01*
X146861715Y-87475641D01*
X146849381Y-87463747D01*
X146837922Y-87451282D01*
X146827335Y-87438267D01*
X146817616Y-87424721D01*
X146808763Y-87410666D01*
X146800772Y-87396122D01*
X146793639Y-87381109D01*
X146787361Y-87365647D01*
X146781935Y-87349757D01*
X146777357Y-87333459D01*
X146773624Y-87316774D01*
X146770733Y-87299721D01*
X146768679Y-87282322D01*
X146767461Y-87264595D01*
X146767185Y-87251743D01*
X146812440Y-87251743D01*
X146812961Y-87267623D01*
X146814228Y-87283183D01*
X146816248Y-87298409D01*
X146819029Y-87313285D01*
X146822576Y-87327797D01*
X146826898Y-87341930D01*
X146832002Y-87355668D01*
X146837896Y-87368997D01*
X146844585Y-87381902D01*
X146852079Y-87394367D01*
X146860383Y-87406378D01*
X146869506Y-87417920D01*
X146879454Y-87428977D01*
X146890236Y-87439534D01*
X146901857Y-87449577D01*
X146914325Y-87459090D01*
X146927648Y-87468059D01*
X146941833Y-87476469D01*
X146956887Y-87484304D01*
X146972818Y-87491549D01*
X146997618Y-87501111D01*
X147022392Y-87508512D01*
X147047114Y-87513826D01*
X147071757Y-87517123D01*
X147096296Y-87518477D01*
X147120704Y-87517960D01*
X147144955Y-87515643D01*
X147169023Y-87511599D01*
X147192881Y-87505900D01*
X147216504Y-87498618D01*
X147239866Y-87489826D01*
X147262940Y-87479595D01*
X147285699Y-87467999D01*
X147308119Y-87455108D01*
X147330172Y-87440995D01*
X147351833Y-87425733D01*
X147373076Y-87409393D01*
X147393873Y-87392048D01*
X147434030Y-87354631D01*
X147472094Y-87314059D01*
X147507855Y-87270910D01*
X147541105Y-87225761D01*
X147571634Y-87179190D01*
X147599233Y-87131773D01*
X147623693Y-87084089D01*
X147638752Y-87047150D01*
X147651149Y-87010823D01*
X147660824Y-86975224D01*
X147667721Y-86940471D01*
X147671781Y-86906678D01*
X147672946Y-86873963D01*
X147672424Y-86858046D01*
X147671157Y-86842442D01*
X147669137Y-86827165D01*
X147666357Y-86812231D01*
X147662809Y-86797653D01*
X147658487Y-86783446D01*
X147653383Y-86769624D01*
X147647490Y-86756203D01*
X147640800Y-86743197D01*
X147633307Y-86730620D01*
X147625002Y-86718486D01*
X147615879Y-86706811D01*
X147605931Y-86695609D01*
X147595150Y-86684894D01*
X147583529Y-86674681D01*
X147571060Y-86664984D01*
X147557737Y-86655819D01*
X147543552Y-86647199D01*
X147528498Y-86639138D01*
X147512568Y-86631653D01*
X147488436Y-86622812D01*
X147464185Y-86616085D01*
X147439852Y-86611401D01*
X147415473Y-86608688D01*
X147391084Y-86607874D01*
X147366722Y-86608887D01*
X147342423Y-86611656D01*
X147318223Y-86616108D01*
X147294159Y-86622174D01*
X147270267Y-86629779D01*
X147246583Y-86638854D01*
X147223144Y-86649326D01*
X147199985Y-86661123D01*
X147177144Y-86674174D01*
X147154657Y-86688408D01*
X147132560Y-86703751D01*
X147089681Y-86737483D01*
X147048798Y-86774796D01*
X147010201Y-86815117D01*
X146974182Y-86857871D01*
X146941031Y-86902486D01*
X146911039Y-86948388D01*
X146884496Y-86995003D01*
X146861693Y-87041757D01*
X146846634Y-87078696D01*
X146834237Y-87115018D01*
X146824561Y-87150604D01*
X146817664Y-87185334D01*
X146813604Y-87219087D01*
X146812440Y-87251743D01*
X146767185Y-87251743D01*
X146767074Y-87246563D01*
X146767515Y-87228245D01*
G37*
X146767515Y-87228245D02*
X146768780Y-87209661D01*
X146770866Y-87190833D01*
X146773771Y-87171779D01*
X146777489Y-87152521D01*
X146782019Y-87133079D01*
X146787356Y-87113473D01*
X146793498Y-87093724D01*
X146800440Y-87073852D01*
X146808180Y-87053877D01*
X146816714Y-87033819D01*
X146842090Y-86980491D01*
X146871392Y-86928038D01*
X146904330Y-86877026D01*
X146940613Y-86828023D01*
X146979950Y-86781593D01*
X147022050Y-86738302D01*
X147044045Y-86718011D01*
X147066623Y-86698717D01*
X147089746Y-86680490D01*
X147113378Y-86663402D01*
X147137482Y-86647524D01*
X147162024Y-86632925D01*
X147186965Y-86619677D01*
X147212271Y-86607850D01*
X147237904Y-86597516D01*
X147263828Y-86588744D01*
X147290007Y-86581606D01*
X147316404Y-86576172D01*
X147342984Y-86572514D01*
X147369709Y-86570701D01*
X147396544Y-86570805D01*
X147423452Y-86572896D01*
X147450397Y-86577045D01*
X147477342Y-86583323D01*
X147504251Y-86591800D01*
X147531089Y-86602548D01*
X147548747Y-86610583D01*
X147565510Y-86619297D01*
X147581380Y-86628671D01*
X147596361Y-86638685D01*
X147610457Y-86649322D01*
X147623670Y-86660562D01*
X147636005Y-86672386D01*
X147647464Y-86684776D01*
X147658051Y-86697712D01*
X147667770Y-86711175D01*
X147676623Y-86725148D01*
X147684614Y-86739610D01*
X147691747Y-86754543D01*
X147698025Y-86769928D01*
X147703451Y-86785746D01*
X147708029Y-86801978D01*
X147711762Y-86818606D01*
X147714653Y-86835610D01*
X147716706Y-86852971D01*
X147717925Y-86870672D01*
X147718312Y-86888692D01*
X147717871Y-86907012D01*
X147716606Y-86925615D01*
X147714519Y-86944481D01*
X147711615Y-86963591D01*
X147707897Y-86982926D01*
X147703367Y-87002468D01*
X147698030Y-87022197D01*
X147691888Y-87042095D01*
X147684946Y-87062142D01*
X147677206Y-87082321D01*
X147668672Y-87102611D01*
X147643296Y-87155911D01*
X147613993Y-87208284D01*
X147581055Y-87259177D01*
X147544773Y-87308035D01*
X147505436Y-87354304D01*
X147463336Y-87397430D01*
X147441340Y-87417641D01*
X147418763Y-87436858D01*
X147395640Y-87455013D01*
X147372008Y-87472035D01*
X147347903Y-87487856D01*
X147323362Y-87502406D01*
X147298420Y-87515616D01*
X147273115Y-87527416D01*
X147247482Y-87537739D01*
X147221558Y-87546513D01*
X147195379Y-87553670D01*
X147168981Y-87559141D01*
X147142402Y-87562856D01*
X147115677Y-87564746D01*
X147088842Y-87564741D01*
X147061934Y-87562773D01*
X147034989Y-87558773D01*
X147008044Y-87552670D01*
X146981134Y-87544396D01*
X146954297Y-87533881D01*
X146936638Y-87525839D01*
X146919876Y-87517103D01*
X146904006Y-87507695D01*
X146889024Y-87497636D01*
X146874929Y-87486944D01*
X146861715Y-87475641D01*
X146849381Y-87463747D01*
X146837922Y-87451282D01*
X146827335Y-87438267D01*
X146817616Y-87424721D01*
X146808763Y-87410666D01*
X146800772Y-87396122D01*
X146793639Y-87381109D01*
X146787361Y-87365647D01*
X146781935Y-87349757D01*
X146777357Y-87333459D01*
X146773624Y-87316774D01*
X146770733Y-87299721D01*
X146768679Y-87282322D01*
X146767461Y-87264595D01*
X146767185Y-87251743D01*
X146812440Y-87251743D01*
X146812961Y-87267623D01*
X146814228Y-87283183D01*
X146816248Y-87298409D01*
X146819029Y-87313285D01*
X146822576Y-87327797D01*
X146826898Y-87341930D01*
X146832002Y-87355668D01*
X146837896Y-87368997D01*
X146844585Y-87381902D01*
X146852079Y-87394367D01*
X146860383Y-87406378D01*
X146869506Y-87417920D01*
X146879454Y-87428977D01*
X146890236Y-87439534D01*
X146901857Y-87449577D01*
X146914325Y-87459090D01*
X146927648Y-87468059D01*
X146941833Y-87476469D01*
X146956887Y-87484304D01*
X146972818Y-87491549D01*
X146997618Y-87501111D01*
X147022392Y-87508512D01*
X147047114Y-87513826D01*
X147071757Y-87517123D01*
X147096296Y-87518477D01*
X147120704Y-87517960D01*
X147144955Y-87515643D01*
X147169023Y-87511599D01*
X147192881Y-87505900D01*
X147216504Y-87498618D01*
X147239866Y-87489826D01*
X147262940Y-87479595D01*
X147285699Y-87467999D01*
X147308119Y-87455108D01*
X147330172Y-87440995D01*
X147351833Y-87425733D01*
X147373076Y-87409393D01*
X147393873Y-87392048D01*
X147434030Y-87354631D01*
X147472094Y-87314059D01*
X147507855Y-87270910D01*
X147541105Y-87225761D01*
X147571634Y-87179190D01*
X147599233Y-87131773D01*
X147623693Y-87084089D01*
X147638752Y-87047150D01*
X147651149Y-87010823D01*
X147660824Y-86975224D01*
X147667721Y-86940471D01*
X147671781Y-86906678D01*
X147672946Y-86873963D01*
X147672424Y-86858046D01*
X147671157Y-86842442D01*
X147669137Y-86827165D01*
X147666357Y-86812231D01*
X147662809Y-86797653D01*
X147658487Y-86783446D01*
X147653383Y-86769624D01*
X147647490Y-86756203D01*
X147640800Y-86743197D01*
X147633307Y-86730620D01*
X147625002Y-86718486D01*
X147615879Y-86706811D01*
X147605931Y-86695609D01*
X147595150Y-86684894D01*
X147583529Y-86674681D01*
X147571060Y-86664984D01*
X147557737Y-86655819D01*
X147543552Y-86647199D01*
X147528498Y-86639138D01*
X147512568Y-86631653D01*
X147488436Y-86622812D01*
X147464185Y-86616085D01*
X147439852Y-86611401D01*
X147415473Y-86608688D01*
X147391084Y-86607874D01*
X147366722Y-86608887D01*
X147342423Y-86611656D01*
X147318223Y-86616108D01*
X147294159Y-86622174D01*
X147270267Y-86629779D01*
X147246583Y-86638854D01*
X147223144Y-86649326D01*
X147199985Y-86661123D01*
X147177144Y-86674174D01*
X147154657Y-86688408D01*
X147132560Y-86703751D01*
X147089681Y-86737483D01*
X147048798Y-86774796D01*
X147010201Y-86815117D01*
X146974182Y-86857871D01*
X146941031Y-86902486D01*
X146911039Y-86948388D01*
X146884496Y-86995003D01*
X146861693Y-87041757D01*
X146846634Y-87078696D01*
X146834237Y-87115018D01*
X146824561Y-87150604D01*
X146817664Y-87185334D01*
X146813604Y-87219087D01*
X146812440Y-87251743D01*
X146767185Y-87251743D01*
X146767074Y-87246563D01*
X146767515Y-87228245D01*
G36*
X153698526Y-87539173D02*
G01*
X153134963Y-87777299D01*
X153134963Y-87734966D01*
X153664130Y-87515361D01*
X153576816Y-87086736D01*
X153140254Y-87271945D01*
X153140254Y-87229612D01*
X153550360Y-87041757D01*
X153463047Y-86549631D01*
X152933880Y-86777173D01*
X152933880Y-86734840D01*
X153510671Y-86491424D01*
X153698526Y-87539173D01*
G37*
X153698526Y-87539173D02*
X153134963Y-87777299D01*
X153134963Y-87734966D01*
X153664130Y-87515361D01*
X153576816Y-87086736D01*
X153140254Y-87271945D01*
X153140254Y-87229612D01*
X153550360Y-87041757D01*
X153463047Y-86549631D01*
X152933880Y-86777173D01*
X152933880Y-86734840D01*
X153510671Y-86491424D01*
X153698526Y-87539173D01*
G36*
X148441255Y-86951799D02*
G01*
X148256047Y-87975736D01*
X148213713Y-87975736D01*
X148327484Y-87348673D01*
X148390984Y-86996777D01*
X148107880Y-87282527D01*
X147591943Y-87782590D01*
X147544318Y-87782590D01*
X148388338Y-86935923D01*
X148441255Y-86951799D01*
G37*
X148441255Y-86951799D02*
X148256047Y-87975736D01*
X148213713Y-87975736D01*
X148327484Y-87348673D01*
X148390984Y-86996777D01*
X148107880Y-87282527D01*
X147591943Y-87782590D01*
X147544318Y-87782590D01*
X148388338Y-86935923D01*
X148441255Y-86951799D01*
G36*
X152494672Y-87914882D02*
G01*
X152854505Y-87814340D01*
X152854505Y-87861964D01*
X152092505Y-88073631D01*
X152092505Y-88028651D01*
X152449693Y-87928109D01*
X152372963Y-86909465D01*
X152417942Y-86909465D01*
X152494672Y-87914882D01*
G37*
X152494672Y-87914882D02*
X152854505Y-87814340D01*
X152854505Y-87861964D01*
X152092505Y-88073631D01*
X152092505Y-88028651D01*
X152449693Y-87928109D01*
X152372963Y-86909465D01*
X152417942Y-86909465D01*
X152494672Y-87914882D01*
D11*
%TO.C,J1*%
X209552049Y-78702299D02*
X209552049Y-77302299D01*
X209552049Y-77302299D02*
X210952049Y-77302299D01*
X210952049Y-77302299D02*
X210952049Y-78702299D01*
X210952049Y-78702299D02*
X209552049Y-78702299D01*
X209550000Y-78700000D02*
X209550000Y-77300000D01*
X209550000Y-77300000D02*
X210950000Y-77300000D01*
X210950000Y-77300000D02*
X210950000Y-78700000D01*
X210950000Y-78700000D02*
X209550000Y-78700000D01*
%TO.C,REF\u002A\u002A*%
G36*
X150975814Y-77218931D02*
G01*
X151059635Y-77663555D01*
X151368920Y-77791053D01*
X151678206Y-77918551D01*
X152049246Y-77666246D01*
X152153157Y-77595996D01*
X152247087Y-77533272D01*
X152326652Y-77480938D01*
X152387470Y-77441857D01*
X152425157Y-77418893D01*
X152435421Y-77413942D01*
X152453910Y-77426676D01*
X152493420Y-77461882D01*
X152549522Y-77515062D01*
X152617787Y-77581718D01*
X152693786Y-77657354D01*
X152773092Y-77737472D01*
X152851275Y-77817574D01*
X152923907Y-77893164D01*
X152986559Y-77959745D01*
X153034803Y-78012818D01*
X153064210Y-78047887D01*
X153071241Y-78059623D01*
X153061123Y-78081260D01*
X153032759Y-78128662D01*
X152989129Y-78197193D01*
X152933218Y-78282215D01*
X152868006Y-78379093D01*
X152830219Y-78434350D01*
X152761343Y-78535248D01*
X152700140Y-78626299D01*
X152649578Y-78702970D01*
X152612628Y-78760728D01*
X152592258Y-78795043D01*
X152589197Y-78802254D01*
X152596136Y-78822748D01*
X152615051Y-78870513D01*
X152643087Y-78938832D01*
X152677391Y-79020989D01*
X152715109Y-79110270D01*
X152753387Y-79199958D01*
X152789370Y-79283338D01*
X152820206Y-79353694D01*
X152843039Y-79404310D01*
X152855017Y-79428471D01*
X152855724Y-79429422D01*
X152874531Y-79434036D01*
X152924618Y-79444328D01*
X153000793Y-79459287D01*
X153097865Y-79477901D01*
X153210643Y-79499159D01*
X153276442Y-79511418D01*
X153396950Y-79534362D01*
X153505797Y-79556195D01*
X153597476Y-79575722D01*
X153666481Y-79591748D01*
X153707304Y-79603079D01*
X153715511Y-79606674D01*
X153723548Y-79631006D01*
X153730033Y-79685959D01*
X153734970Y-79765108D01*
X153738364Y-79862026D01*
X153740218Y-79970287D01*
X153740538Y-80083465D01*
X153739327Y-80195135D01*
X153736590Y-80298868D01*
X153732331Y-80388241D01*
X153726555Y-80456826D01*
X153719267Y-80498197D01*
X153714895Y-80506810D01*
X153688764Y-80517133D01*
X153633393Y-80531892D01*
X153556107Y-80549352D01*
X153464230Y-80567780D01*
X153432158Y-80573741D01*
X153277524Y-80602066D01*
X153155375Y-80624876D01*
X153061673Y-80643080D01*
X152992384Y-80657583D01*
X152943471Y-80669292D01*
X152910897Y-80679115D01*
X152890628Y-80687956D01*
X152878626Y-80696724D01*
X152876947Y-80698457D01*
X152860184Y-80726371D01*
X152834614Y-80780695D01*
X152802788Y-80854777D01*
X152767260Y-80941965D01*
X152730583Y-81035608D01*
X152695311Y-81129052D01*
X152663996Y-81215647D01*
X152639193Y-81288740D01*
X152623454Y-81341678D01*
X152619332Y-81367811D01*
X152619676Y-81368726D01*
X152633641Y-81390086D01*
X152665322Y-81437084D01*
X152711391Y-81504827D01*
X152768518Y-81588423D01*
X152833373Y-81682982D01*
X152851843Y-81709854D01*
X152917699Y-81807275D01*
X152975650Y-81896163D01*
X153022538Y-81971412D01*
X153055207Y-82027920D01*
X153070500Y-82060581D01*
X153071241Y-82064593D01*
X153058392Y-82085684D01*
X153022888Y-82127464D01*
X152969293Y-82185445D01*
X152902171Y-82255135D01*
X152826087Y-82332045D01*
X152745604Y-82411683D01*
X152665287Y-82489561D01*
X152589699Y-82561186D01*
X152523405Y-82622070D01*
X152470969Y-82667721D01*
X152436955Y-82693650D01*
X152427545Y-82697883D01*
X152405643Y-82687912D01*
X152360800Y-82661020D01*
X152300321Y-82621736D01*
X152253789Y-82590117D01*
X152169475Y-82532098D01*
X152069626Y-82463784D01*
X151969473Y-82395579D01*
X151915627Y-82359075D01*
X151733371Y-82235800D01*
X151580381Y-82318520D01*
X151510682Y-82354759D01*
X151451414Y-82382926D01*
X151411311Y-82398991D01*
X151401103Y-82401226D01*
X151388829Y-82384722D01*
X151364613Y-82338082D01*
X151330263Y-82265609D01*
X151287588Y-82171606D01*
X151238394Y-82060374D01*
X151184490Y-81936215D01*
X151127684Y-81803432D01*
X151069782Y-81666327D01*
X151012593Y-81529202D01*
X150957924Y-81396358D01*
X150907584Y-81272098D01*
X150863380Y-81160725D01*
X150827119Y-81066539D01*
X150800609Y-80993844D01*
X150785658Y-80946941D01*
X150783254Y-80930833D01*
X150802311Y-80910286D01*
X150844036Y-80876933D01*
X150899706Y-80837702D01*
X150904378Y-80834599D01*
X151048264Y-80719423D01*
X151164283Y-80585053D01*
X151251430Y-80435784D01*
X151308699Y-80275913D01*
X151335086Y-80109737D01*
X151329585Y-79941552D01*
X151291190Y-79775655D01*
X151218895Y-79616342D01*
X151197626Y-79581487D01*
X151086996Y-79440737D01*
X150956302Y-79327714D01*
X150810064Y-79243003D01*
X150652808Y-79187194D01*
X150489057Y-79160874D01*
X150323333Y-79164630D01*
X150160162Y-79199050D01*
X150004065Y-79264723D01*
X149859567Y-79362235D01*
X149814869Y-79401813D01*
X149701112Y-79525703D01*
X149618218Y-79656124D01*
X149561356Y-79802315D01*
X149529687Y-79947088D01*
X149521869Y-80109860D01*
X149547938Y-80273440D01*
X149605245Y-80432298D01*
X149691144Y-80580906D01*
X149802986Y-80713735D01*
X149938123Y-80825256D01*
X149955883Y-80837011D01*
X150012150Y-80875508D01*
X150054923Y-80908863D01*
X150075372Y-80930160D01*
X150075669Y-80930833D01*
X150071279Y-80953871D01*
X150053876Y-81006157D01*
X150025268Y-81083390D01*
X149987265Y-81181268D01*
X149941674Y-81295491D01*
X149890303Y-81421758D01*
X149834962Y-81555767D01*
X149777458Y-81693218D01*
X149719601Y-81829808D01*
X149663198Y-81961237D01*
X149610058Y-82083205D01*
X149561990Y-82191409D01*
X149520801Y-82281549D01*
X149488301Y-82349323D01*
X149466297Y-82390430D01*
X149457436Y-82401226D01*
X149430360Y-82392819D01*
X149379697Y-82370272D01*
X149314183Y-82337613D01*
X149278159Y-82318520D01*
X149125168Y-82235800D01*
X148942912Y-82359075D01*
X148849875Y-82422228D01*
X148748015Y-82491727D01*
X148652562Y-82557165D01*
X148604750Y-82590117D01*
X148537505Y-82635273D01*
X148480564Y-82671057D01*
X148441354Y-82692938D01*
X148428619Y-82697563D01*
X148410083Y-82685085D01*
X148369059Y-82650252D01*
X148309525Y-82596678D01*
X148235458Y-82527983D01*
X148150835Y-82447781D01*
X148097315Y-82396286D01*
X148003681Y-82304286D01*
X147922759Y-82221999D01*
X147857823Y-82152945D01*
X147812142Y-82100644D01*
X147788989Y-82068616D01*
X147786768Y-82062116D01*
X147797076Y-82037394D01*
X147825561Y-81987405D01*
X147869063Y-81917212D01*
X147924423Y-81831875D01*
X147988480Y-81736456D01*
X148006697Y-81709854D01*
X148073073Y-81613167D01*
X148132622Y-81526117D01*
X148182016Y-81453595D01*
X148217925Y-81400493D01*
X148237019Y-81371703D01*
X148238864Y-81368726D01*
X148236105Y-81345782D01*
X148221462Y-81295336D01*
X148197487Y-81224041D01*
X148166734Y-81138547D01*
X148131756Y-81045507D01*
X148095107Y-80951574D01*
X148059339Y-80863399D01*
X148027006Y-80787634D01*
X148000662Y-80730931D01*
X147982858Y-80699943D01*
X147981593Y-80698457D01*
X147970706Y-80689601D01*
X147952318Y-80680843D01*
X147922394Y-80671277D01*
X147876897Y-80659996D01*
X147811791Y-80646093D01*
X147723039Y-80628663D01*
X147606607Y-80606798D01*
X147458458Y-80579591D01*
X147426382Y-80573741D01*
X147331314Y-80555374D01*
X147248435Y-80537405D01*
X147185070Y-80521569D01*
X147148542Y-80509600D01*
X147143644Y-80506810D01*
X147135573Y-80482072D01*
X147129013Y-80426790D01*
X147123967Y-80347389D01*
X147120441Y-80250296D01*
X147118439Y-80141938D01*
X147117964Y-80028740D01*
X147119023Y-79917128D01*
X147121618Y-79813529D01*
X147125754Y-79724368D01*
X147131437Y-79656072D01*
X147138669Y-79615066D01*
X147143029Y-79606674D01*
X147167302Y-79598208D01*
X147222574Y-79584435D01*
X147303338Y-79566550D01*
X147404088Y-79545748D01*
X147519317Y-79523223D01*
X147582098Y-79511418D01*
X147701213Y-79489151D01*
X147807435Y-79468979D01*
X147895573Y-79451915D01*
X147960434Y-79438969D01*
X147996826Y-79431155D01*
X148002816Y-79429422D01*
X148012939Y-79409890D01*
X148034338Y-79362843D01*
X148064161Y-79295003D01*
X148099555Y-79213091D01*
X148137668Y-79123828D01*
X148175647Y-79033935D01*
X148210640Y-78950135D01*
X148239794Y-78879147D01*
X148260257Y-78827694D01*
X148269177Y-78802497D01*
X148269343Y-78801396D01*
X148259231Y-78781519D01*
X148230883Y-78735777D01*
X148187277Y-78668717D01*
X148131394Y-78584884D01*
X148066213Y-78488826D01*
X148028321Y-78433650D01*
X147959275Y-78332481D01*
X147897950Y-78240630D01*
X147847337Y-78162744D01*
X147810429Y-78103469D01*
X147790218Y-78067451D01*
X147787299Y-78059377D01*
X147799847Y-78040584D01*
X147834537Y-78000457D01*
X147886937Y-77943493D01*
X147952616Y-77874185D01*
X148027144Y-77797031D01*
X148106087Y-77716525D01*
X148185017Y-77637163D01*
X148259500Y-77563440D01*
X148325106Y-77499852D01*
X148377404Y-77450894D01*
X148411961Y-77421061D01*
X148423522Y-77413942D01*
X148442346Y-77423953D01*
X148487369Y-77452078D01*
X148554213Y-77495454D01*
X148638501Y-77551218D01*
X148735856Y-77616506D01*
X148809293Y-77666246D01*
X149180333Y-77918551D01*
X149798905Y-77663555D01*
X149882725Y-77218931D01*
X149966546Y-76774307D01*
X150891994Y-76774307D01*
X150975814Y-77218931D01*
G37*
D12*
X150975814Y-77218931D02*
X151059635Y-77663555D01*
X151368920Y-77791053D01*
X151678206Y-77918551D01*
X152049246Y-77666246D01*
X152153157Y-77595996D01*
X152247087Y-77533272D01*
X152326652Y-77480938D01*
X152387470Y-77441857D01*
X152425157Y-77418893D01*
X152435421Y-77413942D01*
X152453910Y-77426676D01*
X152493420Y-77461882D01*
X152549522Y-77515062D01*
X152617787Y-77581718D01*
X152693786Y-77657354D01*
X152773092Y-77737472D01*
X152851275Y-77817574D01*
X152923907Y-77893164D01*
X152986559Y-77959745D01*
X153034803Y-78012818D01*
X153064210Y-78047887D01*
X153071241Y-78059623D01*
X153061123Y-78081260D01*
X153032759Y-78128662D01*
X152989129Y-78197193D01*
X152933218Y-78282215D01*
X152868006Y-78379093D01*
X152830219Y-78434350D01*
X152761343Y-78535248D01*
X152700140Y-78626299D01*
X152649578Y-78702970D01*
X152612628Y-78760728D01*
X152592258Y-78795043D01*
X152589197Y-78802254D01*
X152596136Y-78822748D01*
X152615051Y-78870513D01*
X152643087Y-78938832D01*
X152677391Y-79020989D01*
X152715109Y-79110270D01*
X152753387Y-79199958D01*
X152789370Y-79283338D01*
X152820206Y-79353694D01*
X152843039Y-79404310D01*
X152855017Y-79428471D01*
X152855724Y-79429422D01*
X152874531Y-79434036D01*
X152924618Y-79444328D01*
X153000793Y-79459287D01*
X153097865Y-79477901D01*
X153210643Y-79499159D01*
X153276442Y-79511418D01*
X153396950Y-79534362D01*
X153505797Y-79556195D01*
X153597476Y-79575722D01*
X153666481Y-79591748D01*
X153707304Y-79603079D01*
X153715511Y-79606674D01*
X153723548Y-79631006D01*
X153730033Y-79685959D01*
X153734970Y-79765108D01*
X153738364Y-79862026D01*
X153740218Y-79970287D01*
X153740538Y-80083465D01*
X153739327Y-80195135D01*
X153736590Y-80298868D01*
X153732331Y-80388241D01*
X153726555Y-80456826D01*
X153719267Y-80498197D01*
X153714895Y-80506810D01*
X153688764Y-80517133D01*
X153633393Y-80531892D01*
X153556107Y-80549352D01*
X153464230Y-80567780D01*
X153432158Y-80573741D01*
X153277524Y-80602066D01*
X153155375Y-80624876D01*
X153061673Y-80643080D01*
X152992384Y-80657583D01*
X152943471Y-80669292D01*
X152910897Y-80679115D01*
X152890628Y-80687956D01*
X152878626Y-80696724D01*
X152876947Y-80698457D01*
X152860184Y-80726371D01*
X152834614Y-80780695D01*
X152802788Y-80854777D01*
X152767260Y-80941965D01*
X152730583Y-81035608D01*
X152695311Y-81129052D01*
X152663996Y-81215647D01*
X152639193Y-81288740D01*
X152623454Y-81341678D01*
X152619332Y-81367811D01*
X152619676Y-81368726D01*
X152633641Y-81390086D01*
X152665322Y-81437084D01*
X152711391Y-81504827D01*
X152768518Y-81588423D01*
X152833373Y-81682982D01*
X152851843Y-81709854D01*
X152917699Y-81807275D01*
X152975650Y-81896163D01*
X153022538Y-81971412D01*
X153055207Y-82027920D01*
X153070500Y-82060581D01*
X153071241Y-82064593D01*
X153058392Y-82085684D01*
X153022888Y-82127464D01*
X152969293Y-82185445D01*
X152902171Y-82255135D01*
X152826087Y-82332045D01*
X152745604Y-82411683D01*
X152665287Y-82489561D01*
X152589699Y-82561186D01*
X152523405Y-82622070D01*
X152470969Y-82667721D01*
X152436955Y-82693650D01*
X152427545Y-82697883D01*
X152405643Y-82687912D01*
X152360800Y-82661020D01*
X152300321Y-82621736D01*
X152253789Y-82590117D01*
X152169475Y-82532098D01*
X152069626Y-82463784D01*
X151969473Y-82395579D01*
X151915627Y-82359075D01*
X151733371Y-82235800D01*
X151580381Y-82318520D01*
X151510682Y-82354759D01*
X151451414Y-82382926D01*
X151411311Y-82398991D01*
X151401103Y-82401226D01*
X151388829Y-82384722D01*
X151364613Y-82338082D01*
X151330263Y-82265609D01*
X151287588Y-82171606D01*
X151238394Y-82060374D01*
X151184490Y-81936215D01*
X151127684Y-81803432D01*
X151069782Y-81666327D01*
X151012593Y-81529202D01*
X150957924Y-81396358D01*
X150907584Y-81272098D01*
X150863380Y-81160725D01*
X150827119Y-81066539D01*
X150800609Y-80993844D01*
X150785658Y-80946941D01*
X150783254Y-80930833D01*
X150802311Y-80910286D01*
X150844036Y-80876933D01*
X150899706Y-80837702D01*
X150904378Y-80834599D01*
X151048264Y-80719423D01*
X151164283Y-80585053D01*
X151251430Y-80435784D01*
X151308699Y-80275913D01*
X151335086Y-80109737D01*
X151329585Y-79941552D01*
X151291190Y-79775655D01*
X151218895Y-79616342D01*
X151197626Y-79581487D01*
X151086996Y-79440737D01*
X150956302Y-79327714D01*
X150810064Y-79243003D01*
X150652808Y-79187194D01*
X150489057Y-79160874D01*
X150323333Y-79164630D01*
X150160162Y-79199050D01*
X150004065Y-79264723D01*
X149859567Y-79362235D01*
X149814869Y-79401813D01*
X149701112Y-79525703D01*
X149618218Y-79656124D01*
X149561356Y-79802315D01*
X149529687Y-79947088D01*
X149521869Y-80109860D01*
X149547938Y-80273440D01*
X149605245Y-80432298D01*
X149691144Y-80580906D01*
X149802986Y-80713735D01*
X149938123Y-80825256D01*
X149955883Y-80837011D01*
X150012150Y-80875508D01*
X150054923Y-80908863D01*
X150075372Y-80930160D01*
X150075669Y-80930833D01*
X150071279Y-80953871D01*
X150053876Y-81006157D01*
X150025268Y-81083390D01*
X149987265Y-81181268D01*
X149941674Y-81295491D01*
X149890303Y-81421758D01*
X149834962Y-81555767D01*
X149777458Y-81693218D01*
X149719601Y-81829808D01*
X149663198Y-81961237D01*
X149610058Y-82083205D01*
X149561990Y-82191409D01*
X149520801Y-82281549D01*
X149488301Y-82349323D01*
X149466297Y-82390430D01*
X149457436Y-82401226D01*
X149430360Y-82392819D01*
X149379697Y-82370272D01*
X149314183Y-82337613D01*
X149278159Y-82318520D01*
X149125168Y-82235800D01*
X148942912Y-82359075D01*
X148849875Y-82422228D01*
X148748015Y-82491727D01*
X148652562Y-82557165D01*
X148604750Y-82590117D01*
X148537505Y-82635273D01*
X148480564Y-82671057D01*
X148441354Y-82692938D01*
X148428619Y-82697563D01*
X148410083Y-82685085D01*
X148369059Y-82650252D01*
X148309525Y-82596678D01*
X148235458Y-82527983D01*
X148150835Y-82447781D01*
X148097315Y-82396286D01*
X148003681Y-82304286D01*
X147922759Y-82221999D01*
X147857823Y-82152945D01*
X147812142Y-82100644D01*
X147788989Y-82068616D01*
X147786768Y-82062116D01*
X147797076Y-82037394D01*
X147825561Y-81987405D01*
X147869063Y-81917212D01*
X147924423Y-81831875D01*
X147988480Y-81736456D01*
X148006697Y-81709854D01*
X148073073Y-81613167D01*
X148132622Y-81526117D01*
X148182016Y-81453595D01*
X148217925Y-81400493D01*
X148237019Y-81371703D01*
X148238864Y-81368726D01*
X148236105Y-81345782D01*
X148221462Y-81295336D01*
X148197487Y-81224041D01*
X148166734Y-81138547D01*
X148131756Y-81045507D01*
X148095107Y-80951574D01*
X148059339Y-80863399D01*
X148027006Y-80787634D01*
X148000662Y-80730931D01*
X147982858Y-80699943D01*
X147981593Y-80698457D01*
X147970706Y-80689601D01*
X147952318Y-80680843D01*
X147922394Y-80671277D01*
X147876897Y-80659996D01*
X147811791Y-80646093D01*
X147723039Y-80628663D01*
X147606607Y-80606798D01*
X147458458Y-80579591D01*
X147426382Y-80573741D01*
X147331314Y-80555374D01*
X147248435Y-80537405D01*
X147185070Y-80521569D01*
X147148542Y-80509600D01*
X147143644Y-80506810D01*
X147135573Y-80482072D01*
X147129013Y-80426790D01*
X147123967Y-80347389D01*
X147120441Y-80250296D01*
X147118439Y-80141938D01*
X147117964Y-80028740D01*
X147119023Y-79917128D01*
X147121618Y-79813529D01*
X147125754Y-79724368D01*
X147131437Y-79656072D01*
X147138669Y-79615066D01*
X147143029Y-79606674D01*
X147167302Y-79598208D01*
X147222574Y-79584435D01*
X147303338Y-79566550D01*
X147404088Y-79545748D01*
X147519317Y-79523223D01*
X147582098Y-79511418D01*
X147701213Y-79489151D01*
X147807435Y-79468979D01*
X147895573Y-79451915D01*
X147960434Y-79438969D01*
X147996826Y-79431155D01*
X148002816Y-79429422D01*
X148012939Y-79409890D01*
X148034338Y-79362843D01*
X148064161Y-79295003D01*
X148099555Y-79213091D01*
X148137668Y-79123828D01*
X148175647Y-79033935D01*
X148210640Y-78950135D01*
X148239794Y-78879147D01*
X148260257Y-78827694D01*
X148269177Y-78802497D01*
X148269343Y-78801396D01*
X148259231Y-78781519D01*
X148230883Y-78735777D01*
X148187277Y-78668717D01*
X148131394Y-78584884D01*
X148066213Y-78488826D01*
X148028321Y-78433650D01*
X147959275Y-78332481D01*
X147897950Y-78240630D01*
X147847337Y-78162744D01*
X147810429Y-78103469D01*
X147790218Y-78067451D01*
X147787299Y-78059377D01*
X147799847Y-78040584D01*
X147834537Y-78000457D01*
X147886937Y-77943493D01*
X147952616Y-77874185D01*
X148027144Y-77797031D01*
X148106087Y-77716525D01*
X148185017Y-77637163D01*
X148259500Y-77563440D01*
X148325106Y-77499852D01*
X148377404Y-77450894D01*
X148411961Y-77421061D01*
X148423522Y-77413942D01*
X148442346Y-77423953D01*
X148487369Y-77452078D01*
X148554213Y-77495454D01*
X148638501Y-77551218D01*
X148735856Y-77616506D01*
X148809293Y-77666246D01*
X149180333Y-77918551D01*
X149798905Y-77663555D01*
X149882725Y-77218931D01*
X149966546Y-76774307D01*
X150891994Y-76774307D01*
X150975814Y-77218931D01*
%TD*%
M02*
