%TF.GenerationSoftware,KiCad,Pcbnew,(6.0.6)*%
%TF.CreationDate,2022-09-17T20:01:25-04:00*%
%TF.ProjectId,Volta_Needle,566f6c74-615f-44e6-9565-646c652e6b69,rev?*%
%TF.SameCoordinates,Original*%
%TF.FileFunction,Legend,Bot*%
%TF.FilePolarity,Positive*%
%FSLAX46Y46*%
G04 Gerber Fmt 4.6, Leading zero omitted, Abs format (unit mm)*
G04 Created by KiCad (PCBNEW (6.0.6)) date 2022-09-17 20:01:25*
%MOMM*%
%LPD*%
G01*
G04 APERTURE LIST*
%ADD10C,0.200000*%
%ADD11C,0.010000*%
G04 APERTURE END LIST*
D10*
G36*
X157696786Y-84014842D02*
G01*
X157695088Y-84031705D01*
X157692373Y-84048644D01*
X157688625Y-84065646D01*
X157683831Y-84082698D01*
X157677977Y-84099787D01*
X157671050Y-84116900D01*
X157663034Y-84134023D01*
X157653916Y-84151144D01*
X157638541Y-84175551D01*
X157621737Y-84198194D01*
X157603578Y-84219108D01*
X157584137Y-84238327D01*
X157563489Y-84255885D01*
X157541707Y-84271816D01*
X157518867Y-84286156D01*
X157495042Y-84298938D01*
X157470306Y-84310197D01*
X157444733Y-84319967D01*
X157418397Y-84328283D01*
X157391374Y-84335179D01*
X157363735Y-84340689D01*
X157335557Y-84344848D01*
X157277877Y-84349250D01*
X157218925Y-84348661D01*
X157159295Y-84343354D01*
X157099579Y-84333606D01*
X157040372Y-84319692D01*
X156982265Y-84301886D01*
X156925852Y-84280464D01*
X156871725Y-84255701D01*
X156820478Y-84227872D01*
X156803328Y-84220876D01*
X156786659Y-84213015D01*
X156770499Y-84204318D01*
X156754875Y-84194811D01*
X156739815Y-84184522D01*
X156725344Y-84173476D01*
X156711491Y-84161702D01*
X156698282Y-84149227D01*
X156685745Y-84136076D01*
X156673906Y-84122278D01*
X156662793Y-84107859D01*
X156652433Y-84092847D01*
X156642854Y-84077268D01*
X156634081Y-84061149D01*
X156626143Y-84044517D01*
X156619066Y-84027400D01*
X156612912Y-84009929D01*
X156607724Y-83992245D01*
X156603500Y-83974387D01*
X156600237Y-83956391D01*
X156597933Y-83938297D01*
X156596586Y-83920143D01*
X156596194Y-83901966D01*
X156596485Y-83892558D01*
X156636844Y-83892558D01*
X156637433Y-83907167D01*
X156638888Y-83921657D01*
X156641197Y-83936020D01*
X156644349Y-83950249D01*
X156648333Y-83964338D01*
X156653138Y-83978278D01*
X156658752Y-83992063D01*
X156665164Y-84005685D01*
X156672364Y-84019137D01*
X156680340Y-84032412D01*
X156689081Y-84045502D01*
X156698575Y-84058400D01*
X156708813Y-84071099D01*
X156719782Y-84083592D01*
X156731471Y-84095871D01*
X156743869Y-84107929D01*
X156756966Y-84119759D01*
X156770750Y-84131353D01*
X156785209Y-84142705D01*
X156800333Y-84153807D01*
X156816111Y-84164652D01*
X156832531Y-84175232D01*
X156849582Y-84185540D01*
X156895901Y-84210233D01*
X156945168Y-84232524D01*
X156996800Y-84252117D01*
X157050211Y-84268718D01*
X157104816Y-84282032D01*
X157160029Y-84291765D01*
X157215265Y-84297623D01*
X157242709Y-84299006D01*
X157269939Y-84299310D01*
X157296883Y-84298498D01*
X157323466Y-84296532D01*
X157349617Y-84293377D01*
X157375261Y-84288995D01*
X157400326Y-84283350D01*
X157424738Y-84276404D01*
X157448424Y-84268122D01*
X157471312Y-84258465D01*
X157493327Y-84247398D01*
X157514398Y-84234883D01*
X157534450Y-84220883D01*
X157553410Y-84205363D01*
X157571206Y-84188284D01*
X157587764Y-84169610D01*
X157603011Y-84149305D01*
X157616874Y-84127331D01*
X157624573Y-84111977D01*
X157631307Y-84096676D01*
X157637086Y-84081437D01*
X157641922Y-84066265D01*
X157645825Y-84051170D01*
X157648808Y-84036157D01*
X157650881Y-84021234D01*
X157652055Y-84006409D01*
X157652342Y-83991688D01*
X157651752Y-83977079D01*
X157650297Y-83962589D01*
X157647988Y-83948226D01*
X157644836Y-83933997D01*
X157640853Y-83919908D01*
X157636048Y-83905968D01*
X157630434Y-83892183D01*
X157624021Y-83878561D01*
X157616822Y-83865109D01*
X157608846Y-83851834D01*
X157600105Y-83838744D01*
X157590610Y-83825846D01*
X157580373Y-83813147D01*
X157569404Y-83800654D01*
X157557715Y-83788375D01*
X157545316Y-83776317D01*
X157532220Y-83764487D01*
X157518436Y-83752893D01*
X157503977Y-83741541D01*
X157488852Y-83730439D01*
X157473075Y-83719595D01*
X157456655Y-83709015D01*
X157439603Y-83698706D01*
X157439603Y-83703998D01*
X157392849Y-83679303D01*
X157343258Y-83657004D01*
X157291403Y-83637386D01*
X157237858Y-83620737D01*
X157183198Y-83607344D01*
X157127994Y-83597493D01*
X157072822Y-83591472D01*
X157045427Y-83589986D01*
X157018254Y-83589566D01*
X156991376Y-83590246D01*
X156964865Y-83592063D01*
X156938791Y-83595053D01*
X156913227Y-83599250D01*
X156888245Y-83604692D01*
X156863915Y-83611414D01*
X156840310Y-83619451D01*
X156817502Y-83628840D01*
X156795562Y-83639617D01*
X156774561Y-83651817D01*
X156754572Y-83665476D01*
X156735667Y-83680630D01*
X156717916Y-83697315D01*
X156701393Y-83715567D01*
X156686167Y-83735422D01*
X156672312Y-83756915D01*
X156664613Y-83772269D01*
X156657879Y-83787570D01*
X156652100Y-83802809D01*
X156647264Y-83817981D01*
X156643360Y-83833076D01*
X156640378Y-83848089D01*
X156638305Y-83863012D01*
X156637130Y-83877837D01*
X156636844Y-83892558D01*
X156596485Y-83892558D01*
X156596755Y-83883805D01*
X156598266Y-83865699D01*
X156600725Y-83847686D01*
X156604130Y-83829803D01*
X156608479Y-83812088D01*
X156613770Y-83794581D01*
X156620000Y-83777320D01*
X156627167Y-83760342D01*
X156635270Y-83743685D01*
X156650644Y-83719278D01*
X156667448Y-83696635D01*
X156685608Y-83675721D01*
X156705049Y-83656502D01*
X156725697Y-83638944D01*
X156747478Y-83623012D01*
X156770319Y-83608673D01*
X156794144Y-83595890D01*
X156818880Y-83584631D01*
X156844453Y-83574861D01*
X156870788Y-83566545D01*
X156897812Y-83559650D01*
X156925450Y-83554139D01*
X156953628Y-83549980D01*
X157011309Y-83545578D01*
X157070261Y-83546168D01*
X157129891Y-83551474D01*
X157189606Y-83561222D01*
X157248814Y-83575137D01*
X157306921Y-83592943D01*
X157363334Y-83614364D01*
X157417461Y-83639127D01*
X157468707Y-83666956D01*
X157505059Y-83689572D01*
X157538631Y-83713697D01*
X157569312Y-83739225D01*
X157583533Y-83752482D01*
X157596989Y-83766051D01*
X157609666Y-83779918D01*
X157621550Y-83794070D01*
X157632627Y-83808495D01*
X157642883Y-83823179D01*
X157652303Y-83838109D01*
X157660875Y-83853272D01*
X157668582Y-83868655D01*
X157675413Y-83884245D01*
X157681352Y-83900029D01*
X157686386Y-83915993D01*
X157690500Y-83932125D01*
X157693681Y-83948412D01*
X157695914Y-83964840D01*
X157697185Y-83981396D01*
X157697367Y-83991688D01*
X157697481Y-83998068D01*
X157696786Y-84014842D01*
G37*
X157696786Y-84014842D02*
X157695088Y-84031705D01*
X157692373Y-84048644D01*
X157688625Y-84065646D01*
X157683831Y-84082698D01*
X157677977Y-84099787D01*
X157671050Y-84116900D01*
X157663034Y-84134023D01*
X157653916Y-84151144D01*
X157638541Y-84175551D01*
X157621737Y-84198194D01*
X157603578Y-84219108D01*
X157584137Y-84238327D01*
X157563489Y-84255885D01*
X157541707Y-84271816D01*
X157518867Y-84286156D01*
X157495042Y-84298938D01*
X157470306Y-84310197D01*
X157444733Y-84319967D01*
X157418397Y-84328283D01*
X157391374Y-84335179D01*
X157363735Y-84340689D01*
X157335557Y-84344848D01*
X157277877Y-84349250D01*
X157218925Y-84348661D01*
X157159295Y-84343354D01*
X157099579Y-84333606D01*
X157040372Y-84319692D01*
X156982265Y-84301886D01*
X156925852Y-84280464D01*
X156871725Y-84255701D01*
X156820478Y-84227872D01*
X156803328Y-84220876D01*
X156786659Y-84213015D01*
X156770499Y-84204318D01*
X156754875Y-84194811D01*
X156739815Y-84184522D01*
X156725344Y-84173476D01*
X156711491Y-84161702D01*
X156698282Y-84149227D01*
X156685745Y-84136076D01*
X156673906Y-84122278D01*
X156662793Y-84107859D01*
X156652433Y-84092847D01*
X156642854Y-84077268D01*
X156634081Y-84061149D01*
X156626143Y-84044517D01*
X156619066Y-84027400D01*
X156612912Y-84009929D01*
X156607724Y-83992245D01*
X156603500Y-83974387D01*
X156600237Y-83956391D01*
X156597933Y-83938297D01*
X156596586Y-83920143D01*
X156596194Y-83901966D01*
X156596485Y-83892558D01*
X156636844Y-83892558D01*
X156637433Y-83907167D01*
X156638888Y-83921657D01*
X156641197Y-83936020D01*
X156644349Y-83950249D01*
X156648333Y-83964338D01*
X156653138Y-83978278D01*
X156658752Y-83992063D01*
X156665164Y-84005685D01*
X156672364Y-84019137D01*
X156680340Y-84032412D01*
X156689081Y-84045502D01*
X156698575Y-84058400D01*
X156708813Y-84071099D01*
X156719782Y-84083592D01*
X156731471Y-84095871D01*
X156743869Y-84107929D01*
X156756966Y-84119759D01*
X156770750Y-84131353D01*
X156785209Y-84142705D01*
X156800333Y-84153807D01*
X156816111Y-84164652D01*
X156832531Y-84175232D01*
X156849582Y-84185540D01*
X156895901Y-84210233D01*
X156945168Y-84232524D01*
X156996800Y-84252117D01*
X157050211Y-84268718D01*
X157104816Y-84282032D01*
X157160029Y-84291765D01*
X157215265Y-84297623D01*
X157242709Y-84299006D01*
X157269939Y-84299310D01*
X157296883Y-84298498D01*
X157323466Y-84296532D01*
X157349617Y-84293377D01*
X157375261Y-84288995D01*
X157400326Y-84283350D01*
X157424738Y-84276404D01*
X157448424Y-84268122D01*
X157471312Y-84258465D01*
X157493327Y-84247398D01*
X157514398Y-84234883D01*
X157534450Y-84220883D01*
X157553410Y-84205363D01*
X157571206Y-84188284D01*
X157587764Y-84169610D01*
X157603011Y-84149305D01*
X157616874Y-84127331D01*
X157624573Y-84111977D01*
X157631307Y-84096676D01*
X157637086Y-84081437D01*
X157641922Y-84066265D01*
X157645825Y-84051170D01*
X157648808Y-84036157D01*
X157650881Y-84021234D01*
X157652055Y-84006409D01*
X157652342Y-83991688D01*
X157651752Y-83977079D01*
X157650297Y-83962589D01*
X157647988Y-83948226D01*
X157644836Y-83933997D01*
X157640853Y-83919908D01*
X157636048Y-83905968D01*
X157630434Y-83892183D01*
X157624021Y-83878561D01*
X157616822Y-83865109D01*
X157608846Y-83851834D01*
X157600105Y-83838744D01*
X157590610Y-83825846D01*
X157580373Y-83813147D01*
X157569404Y-83800654D01*
X157557715Y-83788375D01*
X157545316Y-83776317D01*
X157532220Y-83764487D01*
X157518436Y-83752893D01*
X157503977Y-83741541D01*
X157488852Y-83730439D01*
X157473075Y-83719595D01*
X157456655Y-83709015D01*
X157439603Y-83698706D01*
X157439603Y-83703998D01*
X157392849Y-83679303D01*
X157343258Y-83657004D01*
X157291403Y-83637386D01*
X157237858Y-83620737D01*
X157183198Y-83607344D01*
X157127994Y-83597493D01*
X157072822Y-83591472D01*
X157045427Y-83589986D01*
X157018254Y-83589566D01*
X156991376Y-83590246D01*
X156964865Y-83592063D01*
X156938791Y-83595053D01*
X156913227Y-83599250D01*
X156888245Y-83604692D01*
X156863915Y-83611414D01*
X156840310Y-83619451D01*
X156817502Y-83628840D01*
X156795562Y-83639617D01*
X156774561Y-83651817D01*
X156754572Y-83665476D01*
X156735667Y-83680630D01*
X156717916Y-83697315D01*
X156701393Y-83715567D01*
X156686167Y-83735422D01*
X156672312Y-83756915D01*
X156664613Y-83772269D01*
X156657879Y-83787570D01*
X156652100Y-83802809D01*
X156647264Y-83817981D01*
X156643360Y-83833076D01*
X156640378Y-83848089D01*
X156638305Y-83863012D01*
X156637130Y-83877837D01*
X156636844Y-83892558D01*
X156596485Y-83892558D01*
X156596755Y-83883805D01*
X156598266Y-83865699D01*
X156600725Y-83847686D01*
X156604130Y-83829803D01*
X156608479Y-83812088D01*
X156613770Y-83794581D01*
X156620000Y-83777320D01*
X156627167Y-83760342D01*
X156635270Y-83743685D01*
X156650644Y-83719278D01*
X156667448Y-83696635D01*
X156685608Y-83675721D01*
X156705049Y-83656502D01*
X156725697Y-83638944D01*
X156747478Y-83623012D01*
X156770319Y-83608673D01*
X156794144Y-83595890D01*
X156818880Y-83584631D01*
X156844453Y-83574861D01*
X156870788Y-83566545D01*
X156897812Y-83559650D01*
X156925450Y-83554139D01*
X156953628Y-83549980D01*
X157011309Y-83545578D01*
X157070261Y-83546168D01*
X157129891Y-83551474D01*
X157189606Y-83561222D01*
X157248814Y-83575137D01*
X157306921Y-83592943D01*
X157363334Y-83614364D01*
X157417461Y-83639127D01*
X157468707Y-83666956D01*
X157505059Y-83689572D01*
X157538631Y-83713697D01*
X157569312Y-83739225D01*
X157583533Y-83752482D01*
X157596989Y-83766051D01*
X157609666Y-83779918D01*
X157621550Y-83794070D01*
X157632627Y-83808495D01*
X157642883Y-83823179D01*
X157652303Y-83838109D01*
X157660875Y-83853272D01*
X157668582Y-83868655D01*
X157675413Y-83884245D01*
X157681352Y-83900029D01*
X157686386Y-83915993D01*
X157690500Y-83932125D01*
X157693681Y-83948412D01*
X157695914Y-83964840D01*
X157697185Y-83981396D01*
X157697367Y-83991688D01*
X157697481Y-83998068D01*
X157696786Y-84014842D01*
G36*
X143303693Y-81212870D02*
G01*
X143300611Y-81240299D01*
X143295549Y-81267103D01*
X143288585Y-81293267D01*
X143279797Y-81318779D01*
X143269264Y-81343626D01*
X143257065Y-81367795D01*
X143243277Y-81391272D01*
X143227980Y-81414045D01*
X143211252Y-81436101D01*
X143193171Y-81457426D01*
X143173816Y-81478007D01*
X143153266Y-81497832D01*
X143131598Y-81516887D01*
X143085225Y-81552634D01*
X143035325Y-81585146D01*
X142982526Y-81614316D01*
X142927456Y-81640042D01*
X142870742Y-81662217D01*
X142813013Y-81680737D01*
X142754897Y-81695497D01*
X142697021Y-81706394D01*
X142675343Y-81709014D01*
X142653978Y-81710922D01*
X142632945Y-81712119D01*
X142612261Y-81712605D01*
X142591946Y-81712383D01*
X142572017Y-81711452D01*
X142552493Y-81709813D01*
X142533393Y-81707469D01*
X142514734Y-81704419D01*
X142496536Y-81700664D01*
X142478816Y-81696206D01*
X142461594Y-81691046D01*
X142444887Y-81685184D01*
X142428713Y-81678622D01*
X142413092Y-81671360D01*
X142398042Y-81663399D01*
X142383581Y-81654741D01*
X142369727Y-81645386D01*
X142356499Y-81635335D01*
X142343916Y-81624590D01*
X142331995Y-81613151D01*
X142320756Y-81601019D01*
X142310216Y-81588196D01*
X142300394Y-81574681D01*
X142291308Y-81560477D01*
X142282978Y-81545584D01*
X142275420Y-81530002D01*
X142268654Y-81513734D01*
X142262698Y-81496780D01*
X142257571Y-81479141D01*
X142253290Y-81460818D01*
X142249875Y-81441811D01*
X142246537Y-81412342D01*
X142245400Y-81383475D01*
X142245537Y-81379560D01*
X142285920Y-81379560D01*
X142286680Y-81403920D01*
X142289561Y-81428582D01*
X142292683Y-81445845D01*
X142296579Y-81462414D01*
X142301235Y-81478292D01*
X142306635Y-81493482D01*
X142312764Y-81507989D01*
X142319606Y-81521814D01*
X142327146Y-81534963D01*
X142335367Y-81547437D01*
X142344256Y-81559241D01*
X142353795Y-81570378D01*
X142363970Y-81580852D01*
X142374765Y-81590665D01*
X142386165Y-81599821D01*
X142398154Y-81608323D01*
X142410717Y-81616175D01*
X142423837Y-81623381D01*
X142437501Y-81629943D01*
X142451691Y-81635865D01*
X142466393Y-81641151D01*
X142481591Y-81645803D01*
X142513414Y-81653222D01*
X142547034Y-81658149D01*
X142582329Y-81660610D01*
X142619175Y-81660634D01*
X142657447Y-81658248D01*
X142697021Y-81653477D01*
X142697021Y-81656124D01*
X142748725Y-81644570D01*
X142801216Y-81629795D01*
X142853854Y-81611865D01*
X142906000Y-81590846D01*
X142957015Y-81566804D01*
X143006258Y-81539805D01*
X143030015Y-81525218D01*
X143053090Y-81509915D01*
X143075402Y-81493906D01*
X143096872Y-81477199D01*
X143117420Y-81459803D01*
X143136965Y-81441724D01*
X143155428Y-81422972D01*
X143172728Y-81403555D01*
X143188786Y-81383481D01*
X143203523Y-81362759D01*
X143216857Y-81341396D01*
X143228709Y-81319400D01*
X143238999Y-81296781D01*
X143247648Y-81273546D01*
X143254574Y-81249703D01*
X143259699Y-81225261D01*
X143262943Y-81200228D01*
X143264224Y-81174613D01*
X143263464Y-81148422D01*
X143260583Y-81121666D01*
X143257462Y-81104403D01*
X143253565Y-81087834D01*
X143248909Y-81071958D01*
X143243509Y-81056770D01*
X143237380Y-81042269D01*
X143230538Y-81028450D01*
X143222999Y-81015312D01*
X143214777Y-81002851D01*
X143205889Y-80991065D01*
X143196349Y-80979950D01*
X143186174Y-80969503D01*
X143175379Y-80959722D01*
X143163979Y-80950604D01*
X143151990Y-80942146D01*
X143139428Y-80934344D01*
X143126307Y-80927197D01*
X143112644Y-80920701D01*
X143098453Y-80914853D01*
X143083751Y-80909650D01*
X143068553Y-80905090D01*
X143036731Y-80897885D01*
X143003110Y-80893214D01*
X142967815Y-80891056D01*
X142930970Y-80891385D01*
X142892699Y-80894179D01*
X142853125Y-80899416D01*
X142801420Y-80910300D01*
X142748929Y-80924975D01*
X142696291Y-80943262D01*
X142644145Y-80964982D01*
X142593131Y-80989959D01*
X142543887Y-81018013D01*
X142497055Y-81048965D01*
X142474742Y-81065473D01*
X142453273Y-81082639D01*
X142432725Y-81100440D01*
X142413180Y-81118855D01*
X142394717Y-81137861D01*
X142377417Y-81157435D01*
X142361358Y-81177557D01*
X142346622Y-81198202D01*
X142333288Y-81219349D01*
X142321435Y-81240976D01*
X142311145Y-81263060D01*
X142302497Y-81285579D01*
X142295570Y-81308511D01*
X142290445Y-81331833D01*
X142287202Y-81355524D01*
X142285920Y-81379560D01*
X142245537Y-81379560D01*
X142246387Y-81355222D01*
X142249421Y-81327596D01*
X142254423Y-81300609D01*
X142261316Y-81274275D01*
X142270024Y-81248605D01*
X142280468Y-81223612D01*
X142292570Y-81199310D01*
X142306254Y-81175710D01*
X142321442Y-81152825D01*
X142338056Y-81130667D01*
X142356019Y-81109250D01*
X142375253Y-81088586D01*
X142395680Y-81068687D01*
X142417224Y-81049566D01*
X142463351Y-81013709D01*
X142513012Y-80981115D01*
X142565587Y-80951886D01*
X142620457Y-80926121D01*
X142677002Y-80903922D01*
X142734600Y-80885390D01*
X142792633Y-80870625D01*
X142850479Y-80859727D01*
X142872397Y-80856867D01*
X142893988Y-80854735D01*
X142915232Y-80853330D01*
X142936112Y-80852653D01*
X142956611Y-80852703D01*
X142976710Y-80853478D01*
X142996391Y-80854979D01*
X143015637Y-80857206D01*
X143034429Y-80860157D01*
X143052750Y-80863833D01*
X143070582Y-80868232D01*
X143087906Y-80873355D01*
X143104706Y-80879201D01*
X143120962Y-80885768D01*
X143136657Y-80893058D01*
X143151773Y-80901069D01*
X143166293Y-80909801D01*
X143180197Y-80919253D01*
X143193469Y-80929426D01*
X143206090Y-80940317D01*
X143218043Y-80951928D01*
X143229309Y-80964257D01*
X143239871Y-80977304D01*
X143249710Y-80991069D01*
X143258809Y-81005551D01*
X143267150Y-81020749D01*
X143274715Y-81036663D01*
X143281486Y-81053293D01*
X143287445Y-81070637D01*
X143292574Y-81088697D01*
X143296855Y-81107470D01*
X143300270Y-81126958D01*
X143303601Y-81156186D01*
X143304318Y-81174613D01*
X143304716Y-81184828D01*
X143303693Y-81212870D01*
G37*
X143303693Y-81212870D02*
X143300611Y-81240299D01*
X143295549Y-81267103D01*
X143288585Y-81293267D01*
X143279797Y-81318779D01*
X143269264Y-81343626D01*
X143257065Y-81367795D01*
X143243277Y-81391272D01*
X143227980Y-81414045D01*
X143211252Y-81436101D01*
X143193171Y-81457426D01*
X143173816Y-81478007D01*
X143153266Y-81497832D01*
X143131598Y-81516887D01*
X143085225Y-81552634D01*
X143035325Y-81585146D01*
X142982526Y-81614316D01*
X142927456Y-81640042D01*
X142870742Y-81662217D01*
X142813013Y-81680737D01*
X142754897Y-81695497D01*
X142697021Y-81706394D01*
X142675343Y-81709014D01*
X142653978Y-81710922D01*
X142632945Y-81712119D01*
X142612261Y-81712605D01*
X142591946Y-81712383D01*
X142572017Y-81711452D01*
X142552493Y-81709813D01*
X142533393Y-81707469D01*
X142514734Y-81704419D01*
X142496536Y-81700664D01*
X142478816Y-81696206D01*
X142461594Y-81691046D01*
X142444887Y-81685184D01*
X142428713Y-81678622D01*
X142413092Y-81671360D01*
X142398042Y-81663399D01*
X142383581Y-81654741D01*
X142369727Y-81645386D01*
X142356499Y-81635335D01*
X142343916Y-81624590D01*
X142331995Y-81613151D01*
X142320756Y-81601019D01*
X142310216Y-81588196D01*
X142300394Y-81574681D01*
X142291308Y-81560477D01*
X142282978Y-81545584D01*
X142275420Y-81530002D01*
X142268654Y-81513734D01*
X142262698Y-81496780D01*
X142257571Y-81479141D01*
X142253290Y-81460818D01*
X142249875Y-81441811D01*
X142246537Y-81412342D01*
X142245400Y-81383475D01*
X142245537Y-81379560D01*
X142285920Y-81379560D01*
X142286680Y-81403920D01*
X142289561Y-81428582D01*
X142292683Y-81445845D01*
X142296579Y-81462414D01*
X142301235Y-81478292D01*
X142306635Y-81493482D01*
X142312764Y-81507989D01*
X142319606Y-81521814D01*
X142327146Y-81534963D01*
X142335367Y-81547437D01*
X142344256Y-81559241D01*
X142353795Y-81570378D01*
X142363970Y-81580852D01*
X142374765Y-81590665D01*
X142386165Y-81599821D01*
X142398154Y-81608323D01*
X142410717Y-81616175D01*
X142423837Y-81623381D01*
X142437501Y-81629943D01*
X142451691Y-81635865D01*
X142466393Y-81641151D01*
X142481591Y-81645803D01*
X142513414Y-81653222D01*
X142547034Y-81658149D01*
X142582329Y-81660610D01*
X142619175Y-81660634D01*
X142657447Y-81658248D01*
X142697021Y-81653477D01*
X142697021Y-81656124D01*
X142748725Y-81644570D01*
X142801216Y-81629795D01*
X142853854Y-81611865D01*
X142906000Y-81590846D01*
X142957015Y-81566804D01*
X143006258Y-81539805D01*
X143030015Y-81525218D01*
X143053090Y-81509915D01*
X143075402Y-81493906D01*
X143096872Y-81477199D01*
X143117420Y-81459803D01*
X143136965Y-81441724D01*
X143155428Y-81422972D01*
X143172728Y-81403555D01*
X143188786Y-81383481D01*
X143203523Y-81362759D01*
X143216857Y-81341396D01*
X143228709Y-81319400D01*
X143238999Y-81296781D01*
X143247648Y-81273546D01*
X143254574Y-81249703D01*
X143259699Y-81225261D01*
X143262943Y-81200228D01*
X143264224Y-81174613D01*
X143263464Y-81148422D01*
X143260583Y-81121666D01*
X143257462Y-81104403D01*
X143253565Y-81087834D01*
X143248909Y-81071958D01*
X143243509Y-81056770D01*
X143237380Y-81042269D01*
X143230538Y-81028450D01*
X143222999Y-81015312D01*
X143214777Y-81002851D01*
X143205889Y-80991065D01*
X143196349Y-80979950D01*
X143186174Y-80969503D01*
X143175379Y-80959722D01*
X143163979Y-80950604D01*
X143151990Y-80942146D01*
X143139428Y-80934344D01*
X143126307Y-80927197D01*
X143112644Y-80920701D01*
X143098453Y-80914853D01*
X143083751Y-80909650D01*
X143068553Y-80905090D01*
X143036731Y-80897885D01*
X143003110Y-80893214D01*
X142967815Y-80891056D01*
X142930970Y-80891385D01*
X142892699Y-80894179D01*
X142853125Y-80899416D01*
X142801420Y-80910300D01*
X142748929Y-80924975D01*
X142696291Y-80943262D01*
X142644145Y-80964982D01*
X142593131Y-80989959D01*
X142543887Y-81018013D01*
X142497055Y-81048965D01*
X142474742Y-81065473D01*
X142453273Y-81082639D01*
X142432725Y-81100440D01*
X142413180Y-81118855D01*
X142394717Y-81137861D01*
X142377417Y-81157435D01*
X142361358Y-81177557D01*
X142346622Y-81198202D01*
X142333288Y-81219349D01*
X142321435Y-81240976D01*
X142311145Y-81263060D01*
X142302497Y-81285579D01*
X142295570Y-81308511D01*
X142290445Y-81331833D01*
X142287202Y-81355524D01*
X142285920Y-81379560D01*
X142245537Y-81379560D01*
X142246387Y-81355222D01*
X142249421Y-81327596D01*
X142254423Y-81300609D01*
X142261316Y-81274275D01*
X142270024Y-81248605D01*
X142280468Y-81223612D01*
X142292570Y-81199310D01*
X142306254Y-81175710D01*
X142321442Y-81152825D01*
X142338056Y-81130667D01*
X142356019Y-81109250D01*
X142375253Y-81088586D01*
X142395680Y-81068687D01*
X142417224Y-81049566D01*
X142463351Y-81013709D01*
X142513012Y-80981115D01*
X142565587Y-80951886D01*
X142620457Y-80926121D01*
X142677002Y-80903922D01*
X142734600Y-80885390D01*
X142792633Y-80870625D01*
X142850479Y-80859727D01*
X142872397Y-80856867D01*
X142893988Y-80854735D01*
X142915232Y-80853330D01*
X142936112Y-80852653D01*
X142956611Y-80852703D01*
X142976710Y-80853478D01*
X142996391Y-80854979D01*
X143015637Y-80857206D01*
X143034429Y-80860157D01*
X143052750Y-80863833D01*
X143070582Y-80868232D01*
X143087906Y-80873355D01*
X143104706Y-80879201D01*
X143120962Y-80885768D01*
X143136657Y-80893058D01*
X143151773Y-80901069D01*
X143166293Y-80909801D01*
X143180197Y-80919253D01*
X143193469Y-80929426D01*
X143206090Y-80940317D01*
X143218043Y-80951928D01*
X143229309Y-80964257D01*
X143239871Y-80977304D01*
X143249710Y-80991069D01*
X143258809Y-81005551D01*
X143267150Y-81020749D01*
X143274715Y-81036663D01*
X143281486Y-81053293D01*
X143287445Y-81070637D01*
X143292574Y-81088697D01*
X143296855Y-81107470D01*
X143300270Y-81126958D01*
X143303601Y-81156186D01*
X143304318Y-81174613D01*
X143304716Y-81184828D01*
X143303693Y-81212870D01*
G36*
X153238020Y-87900290D02*
G01*
X153190395Y-87900290D01*
X152674458Y-87400227D01*
X152391354Y-87114477D01*
X152454854Y-87466373D01*
X152568625Y-88093436D01*
X152526291Y-88093436D01*
X152341083Y-87069499D01*
X152394000Y-87053623D01*
X153238020Y-87900290D01*
G37*
X153238020Y-87900290D02*
X153190395Y-87900290D01*
X152674458Y-87400227D01*
X152391354Y-87114477D01*
X152454854Y-87466373D01*
X152568625Y-88093436D01*
X152526291Y-88093436D01*
X152341083Y-87069499D01*
X152394000Y-87053623D01*
X153238020Y-87900290D01*
G36*
X144213082Y-75697707D02*
G01*
X144578209Y-75853812D01*
X144551751Y-75893499D01*
X144191917Y-75734749D01*
X143366418Y-75755915D01*
X143395522Y-75713582D01*
X143842668Y-75700353D01*
X144168105Y-75700353D01*
X144089722Y-75597166D01*
X144044949Y-75537386D01*
X144001417Y-75478103D01*
X143781813Y-75168541D01*
X143808271Y-75128853D01*
X144213082Y-75697707D01*
G37*
X144213082Y-75697707D02*
X144578209Y-75853812D01*
X144551751Y-75893499D01*
X144191917Y-75734749D01*
X143366418Y-75755915D01*
X143395522Y-75713582D01*
X143842668Y-75700353D01*
X144168105Y-75700353D01*
X144089722Y-75597166D01*
X144044949Y-75537386D01*
X144001417Y-75478103D01*
X143781813Y-75168541D01*
X143808271Y-75128853D01*
X144213082Y-75697707D01*
G36*
X155412895Y-73485791D02*
G01*
X155087457Y-74086394D01*
X155076269Y-74107765D01*
X155066009Y-74128717D01*
X155056660Y-74149251D01*
X155048204Y-74169366D01*
X155040624Y-74189063D01*
X155033902Y-74208341D01*
X155028022Y-74227200D01*
X155022965Y-74245641D01*
X155018714Y-74263663D01*
X155015252Y-74281266D01*
X155012562Y-74298451D01*
X155010625Y-74315218D01*
X155009424Y-74331566D01*
X155008943Y-74347495D01*
X155009163Y-74363006D01*
X155010067Y-74378098D01*
X155011637Y-74392771D01*
X155013857Y-74407026D01*
X155016709Y-74420863D01*
X155020175Y-74434280D01*
X155024237Y-74447280D01*
X155028879Y-74459860D01*
X155034084Y-74472022D01*
X155039832Y-74483766D01*
X155046108Y-74495091D01*
X155052894Y-74505997D01*
X155060171Y-74516485D01*
X155067924Y-74526554D01*
X155076133Y-74536205D01*
X155084783Y-74545437D01*
X155093855Y-74554250D01*
X155103332Y-74562645D01*
X155113471Y-74571641D01*
X155124038Y-74580006D01*
X155135005Y-74587732D01*
X155146342Y-74594810D01*
X155158019Y-74601229D01*
X155170007Y-74606980D01*
X155182277Y-74612054D01*
X155194799Y-74616442D01*
X155207543Y-74620133D01*
X155220480Y-74623119D01*
X155233581Y-74625390D01*
X155246816Y-74626937D01*
X155260156Y-74627751D01*
X155273571Y-74627821D01*
X155287032Y-74627138D01*
X155300508Y-74625693D01*
X155313883Y-74623494D01*
X155327038Y-74620564D01*
X155339949Y-74616922D01*
X155352590Y-74612582D01*
X155364934Y-74607564D01*
X155376956Y-74601883D01*
X155388629Y-74595557D01*
X155399929Y-74588603D01*
X155410828Y-74581036D01*
X155421302Y-74572876D01*
X155431324Y-74564137D01*
X155440868Y-74554838D01*
X155449908Y-74544995D01*
X155458419Y-74534626D01*
X155466374Y-74523746D01*
X155473749Y-74512374D01*
X155479265Y-74506160D01*
X155484648Y-74499838D01*
X155489896Y-74493410D01*
X155495008Y-74486879D01*
X155499982Y-74480247D01*
X155504816Y-74473515D01*
X155509510Y-74466687D01*
X155514062Y-74459765D01*
X155518470Y-74452750D01*
X155522733Y-74445645D01*
X155526849Y-74438452D01*
X155530818Y-74431174D01*
X155534638Y-74423812D01*
X155538307Y-74416369D01*
X155541823Y-74408847D01*
X155545186Y-74401249D01*
X155846812Y-73848270D01*
X155883853Y-73877374D01*
X155576936Y-74443583D01*
X155568701Y-74457819D01*
X155560167Y-74471871D01*
X155551336Y-74485735D01*
X155542213Y-74499405D01*
X155532800Y-74512877D01*
X155523100Y-74526147D01*
X155513117Y-74539210D01*
X155502853Y-74552061D01*
X155494503Y-74565173D01*
X155485455Y-74577697D01*
X155475742Y-74589612D01*
X155465397Y-74600897D01*
X155454452Y-74611531D01*
X155442939Y-74621494D01*
X155430892Y-74630765D01*
X155418341Y-74639322D01*
X155405321Y-74647146D01*
X155391863Y-74654215D01*
X155378000Y-74660509D01*
X155363765Y-74666007D01*
X155349189Y-74670688D01*
X155334305Y-74674531D01*
X155319145Y-74677515D01*
X155303743Y-74679621D01*
X155288244Y-74680819D01*
X155272796Y-74681107D01*
X155257437Y-74680498D01*
X155242200Y-74679004D01*
X155227124Y-74676641D01*
X155212244Y-74673420D01*
X155197596Y-74669356D01*
X155183216Y-74664461D01*
X155169140Y-74658751D01*
X155155405Y-74652237D01*
X155142046Y-74644933D01*
X155129101Y-74636853D01*
X155116603Y-74628010D01*
X155104591Y-74618419D01*
X155093100Y-74608091D01*
X155082166Y-74597041D01*
X155060181Y-74577436D01*
X155039988Y-74556289D01*
X155021763Y-74533545D01*
X155005685Y-74509149D01*
X154991932Y-74483049D01*
X154980684Y-74455189D01*
X154972117Y-74425515D01*
X154966411Y-74393973D01*
X154963743Y-74360509D01*
X154964292Y-74325068D01*
X154968236Y-74287596D01*
X154975754Y-74248039D01*
X154987023Y-74206342D01*
X155002222Y-74162452D01*
X155021530Y-74116314D01*
X155045124Y-74067874D01*
X155375853Y-73456686D01*
X155412895Y-73485791D01*
G37*
X155412895Y-73485791D02*
X155087457Y-74086394D01*
X155076269Y-74107765D01*
X155066009Y-74128717D01*
X155056660Y-74149251D01*
X155048204Y-74169366D01*
X155040624Y-74189063D01*
X155033902Y-74208341D01*
X155028022Y-74227200D01*
X155022965Y-74245641D01*
X155018714Y-74263663D01*
X155015252Y-74281266D01*
X155012562Y-74298451D01*
X155010625Y-74315218D01*
X155009424Y-74331566D01*
X155008943Y-74347495D01*
X155009163Y-74363006D01*
X155010067Y-74378098D01*
X155011637Y-74392771D01*
X155013857Y-74407026D01*
X155016709Y-74420863D01*
X155020175Y-74434280D01*
X155024237Y-74447280D01*
X155028879Y-74459860D01*
X155034084Y-74472022D01*
X155039832Y-74483766D01*
X155046108Y-74495091D01*
X155052894Y-74505997D01*
X155060171Y-74516485D01*
X155067924Y-74526554D01*
X155076133Y-74536205D01*
X155084783Y-74545437D01*
X155093855Y-74554250D01*
X155103332Y-74562645D01*
X155113471Y-74571641D01*
X155124038Y-74580006D01*
X155135005Y-74587732D01*
X155146342Y-74594810D01*
X155158019Y-74601229D01*
X155170007Y-74606980D01*
X155182277Y-74612054D01*
X155194799Y-74616442D01*
X155207543Y-74620133D01*
X155220480Y-74623119D01*
X155233581Y-74625390D01*
X155246816Y-74626937D01*
X155260156Y-74627751D01*
X155273571Y-74627821D01*
X155287032Y-74627138D01*
X155300508Y-74625693D01*
X155313883Y-74623494D01*
X155327038Y-74620564D01*
X155339949Y-74616922D01*
X155352590Y-74612582D01*
X155364934Y-74607564D01*
X155376956Y-74601883D01*
X155388629Y-74595557D01*
X155399929Y-74588603D01*
X155410828Y-74581036D01*
X155421302Y-74572876D01*
X155431324Y-74564137D01*
X155440868Y-74554838D01*
X155449908Y-74544995D01*
X155458419Y-74534626D01*
X155466374Y-74523746D01*
X155473749Y-74512374D01*
X155479265Y-74506160D01*
X155484648Y-74499838D01*
X155489896Y-74493410D01*
X155495008Y-74486879D01*
X155499982Y-74480247D01*
X155504816Y-74473515D01*
X155509510Y-74466687D01*
X155514062Y-74459765D01*
X155518470Y-74452750D01*
X155522733Y-74445645D01*
X155526849Y-74438452D01*
X155530818Y-74431174D01*
X155534638Y-74423812D01*
X155538307Y-74416369D01*
X155541823Y-74408847D01*
X155545186Y-74401249D01*
X155846812Y-73848270D01*
X155883853Y-73877374D01*
X155576936Y-74443583D01*
X155568701Y-74457819D01*
X155560167Y-74471871D01*
X155551336Y-74485735D01*
X155542213Y-74499405D01*
X155532800Y-74512877D01*
X155523100Y-74526147D01*
X155513117Y-74539210D01*
X155502853Y-74552061D01*
X155494503Y-74565173D01*
X155485455Y-74577697D01*
X155475742Y-74589612D01*
X155465397Y-74600897D01*
X155454452Y-74611531D01*
X155442939Y-74621494D01*
X155430892Y-74630765D01*
X155418341Y-74639322D01*
X155405321Y-74647146D01*
X155391863Y-74654215D01*
X155378000Y-74660509D01*
X155363765Y-74666007D01*
X155349189Y-74670688D01*
X155334305Y-74674531D01*
X155319145Y-74677515D01*
X155303743Y-74679621D01*
X155288244Y-74680819D01*
X155272796Y-74681107D01*
X155257437Y-74680498D01*
X155242200Y-74679004D01*
X155227124Y-74676641D01*
X155212244Y-74673420D01*
X155197596Y-74669356D01*
X155183216Y-74664461D01*
X155169140Y-74658751D01*
X155155405Y-74652237D01*
X155142046Y-74644933D01*
X155129101Y-74636853D01*
X155116603Y-74628010D01*
X155104591Y-74618419D01*
X155093100Y-74608091D01*
X155082166Y-74597041D01*
X155060181Y-74577436D01*
X155039988Y-74556289D01*
X155021763Y-74533545D01*
X155005685Y-74509149D01*
X154991932Y-74483049D01*
X154980684Y-74455189D01*
X154972117Y-74425515D01*
X154966411Y-74393973D01*
X154963743Y-74360509D01*
X154964292Y-74325068D01*
X154968236Y-74287596D01*
X154975754Y-74248039D01*
X154987023Y-74206342D01*
X155002222Y-74162452D01*
X155021530Y-74116314D01*
X155045124Y-74067874D01*
X155375853Y-73456686D01*
X155412895Y-73485791D01*
G36*
X157008332Y-77076186D02*
G01*
X156984520Y-77031207D01*
X157215540Y-76665033D01*
X157225291Y-76681957D01*
X157243812Y-76652853D01*
X157234312Y-76635278D01*
X157215540Y-76665033D01*
X157006199Y-76301695D01*
X156669666Y-76433249D01*
X156645853Y-76390915D01*
X156936422Y-76282436D01*
X156995103Y-76282436D01*
X157006199Y-76301695D01*
X157045659Y-76286270D01*
X157234312Y-76635278D01*
X157373457Y-76414728D01*
X157484582Y-76244733D01*
X157539401Y-76159488D01*
X157595707Y-76070770D01*
X157251749Y-76205707D01*
X157045659Y-76286270D01*
X157032145Y-76261270D01*
X156995103Y-76282436D01*
X156936422Y-76282436D01*
X157638041Y-76020499D01*
X157638041Y-76062832D01*
X157633108Y-76070770D01*
X157271396Y-76652853D01*
X157008332Y-77076186D01*
G37*
X157008332Y-77076186D02*
X156984520Y-77031207D01*
X157215540Y-76665033D01*
X157225291Y-76681957D01*
X157243812Y-76652853D01*
X157234312Y-76635278D01*
X157215540Y-76665033D01*
X157006199Y-76301695D01*
X156669666Y-76433249D01*
X156645853Y-76390915D01*
X156936422Y-76282436D01*
X156995103Y-76282436D01*
X157006199Y-76301695D01*
X157045659Y-76286270D01*
X157234312Y-76635278D01*
X157373457Y-76414728D01*
X157484582Y-76244733D01*
X157539401Y-76159488D01*
X157595707Y-76070770D01*
X157251749Y-76205707D01*
X157045659Y-76286270D01*
X157032145Y-76261270D01*
X156995103Y-76282436D01*
X156936422Y-76282436D01*
X157638041Y-76020499D01*
X157638041Y-76062832D01*
X157633108Y-76070770D01*
X157271396Y-76652853D01*
X157008332Y-77076186D01*
G36*
X154463041Y-86146102D02*
G01*
X153973562Y-86434498D01*
X154661479Y-87193853D01*
X154621791Y-87217665D01*
X153904770Y-86426560D01*
X154433937Y-86116997D01*
X154463041Y-86146102D01*
G37*
X154463041Y-86146102D02*
X153973562Y-86434498D01*
X154661479Y-87193853D01*
X154621791Y-87217665D01*
X153904770Y-86426560D01*
X154433937Y-86116997D01*
X154463041Y-86146102D01*
G36*
X157323187Y-84688249D02*
G01*
X157291437Y-84725291D01*
X156579707Y-84619457D01*
X156166957Y-84561248D01*
X156431541Y-84807311D01*
X156897207Y-85241228D01*
X156870749Y-85278269D01*
X156106103Y-84555956D01*
X156137853Y-84513623D01*
X157323187Y-84688249D01*
G37*
X157323187Y-84688249D02*
X157291437Y-84725291D01*
X156579707Y-84619457D01*
X156166957Y-84561248D01*
X156431541Y-84807311D01*
X156897207Y-85241228D01*
X156870749Y-85278269D01*
X156106103Y-84555956D01*
X156137853Y-84513623D01*
X157323187Y-84688249D01*
G36*
X144673458Y-86037623D02*
G01*
X144680051Y-86013812D01*
X144721083Y-86013812D01*
X144866603Y-85899048D01*
X144939860Y-85841543D01*
X145012124Y-85786270D01*
X145182913Y-85653434D01*
X145202624Y-85672498D01*
X145231729Y-85640749D01*
X145217441Y-85626578D01*
X145182913Y-85653434D01*
X144900522Y-85380300D01*
X144834854Y-85619582D01*
X144805915Y-85716155D01*
X144777968Y-85812728D01*
X144721083Y-86013812D01*
X144680051Y-86013812D01*
X144993604Y-84881394D01*
X145028000Y-84915790D01*
X144915200Y-85326814D01*
X144908938Y-85320603D01*
X144879832Y-85360289D01*
X144900522Y-85380300D01*
X144915200Y-85326814D01*
X145217441Y-85626578D01*
X145512187Y-85397332D01*
X145546583Y-85429082D01*
X145269587Y-85640749D01*
X144705208Y-86072019D01*
X144673458Y-86037623D01*
G37*
X144673458Y-86037623D02*
X144680051Y-86013812D01*
X144721083Y-86013812D01*
X144866603Y-85899048D01*
X144939860Y-85841543D01*
X145012124Y-85786270D01*
X145182913Y-85653434D01*
X145202624Y-85672498D01*
X145231729Y-85640749D01*
X145217441Y-85626578D01*
X145182913Y-85653434D01*
X144900522Y-85380300D01*
X144834854Y-85619582D01*
X144805915Y-85716155D01*
X144777968Y-85812728D01*
X144721083Y-86013812D01*
X144680051Y-86013812D01*
X144993604Y-84881394D01*
X145028000Y-84915790D01*
X144915200Y-85326814D01*
X144908938Y-85320603D01*
X144879832Y-85360289D01*
X144900522Y-85380300D01*
X144915200Y-85326814D01*
X145217441Y-85626578D01*
X145512187Y-85397332D01*
X145546583Y-85429082D01*
X145269587Y-85640749D01*
X144705208Y-86072019D01*
X144673458Y-86037623D01*
G36*
X156840836Y-74990075D02*
G01*
X156850299Y-74990645D01*
X156859709Y-74991552D01*
X156869059Y-74992791D01*
X156878339Y-74994360D01*
X156887543Y-74996255D01*
X156896660Y-74998472D01*
X156905683Y-75001007D01*
X156914604Y-75003858D01*
X156923413Y-75007020D01*
X156932103Y-75010491D01*
X156940665Y-75014266D01*
X156949090Y-75018342D01*
X156957371Y-75022716D01*
X156965499Y-75027384D01*
X156973465Y-75032342D01*
X156981261Y-75037587D01*
X156988879Y-75043116D01*
X156996309Y-75048924D01*
X157003545Y-75055009D01*
X157010577Y-75061366D01*
X157017397Y-75067993D01*
X157023996Y-75074885D01*
X157030366Y-75082039D01*
X157036499Y-75089453D01*
X157042387Y-75097121D01*
X157048020Y-75105041D01*
X157065261Y-75130642D01*
X157080314Y-75156808D01*
X157093237Y-75183483D01*
X157104089Y-75210610D01*
X157112930Y-75238135D01*
X157119818Y-75266002D01*
X157124813Y-75294154D01*
X157127974Y-75322536D01*
X157129359Y-75351093D01*
X157129029Y-75379769D01*
X157127042Y-75408507D01*
X157123457Y-75437253D01*
X157118334Y-75465950D01*
X157111731Y-75494543D01*
X157103707Y-75522976D01*
X157094322Y-75551194D01*
X157083635Y-75579141D01*
X157071705Y-75606760D01*
X157058590Y-75633996D01*
X157044351Y-75660795D01*
X157029046Y-75687099D01*
X157012734Y-75712853D01*
X156995475Y-75738001D01*
X156977327Y-75762489D01*
X156938602Y-75809257D01*
X156897032Y-75852711D01*
X156853090Y-75892405D01*
X156830377Y-75910703D01*
X156807249Y-75927895D01*
X156793356Y-75941822D01*
X156778790Y-75954881D01*
X156763592Y-75967056D01*
X156747804Y-75978330D01*
X156731466Y-75988687D01*
X156714620Y-75998112D01*
X156697307Y-76006588D01*
X156679569Y-76014098D01*
X156661447Y-76020628D01*
X156642982Y-76026160D01*
X156624215Y-76030678D01*
X156605188Y-76034167D01*
X156585942Y-76036609D01*
X156566518Y-76037990D01*
X156546957Y-76038292D01*
X156527301Y-76037500D01*
X156507720Y-76035612D01*
X156488382Y-76032654D01*
X156469326Y-76028645D01*
X156450591Y-76023609D01*
X156432214Y-76017566D01*
X156414236Y-76010538D01*
X156396695Y-76002547D01*
X156379628Y-75993615D01*
X156363076Y-75983762D01*
X156347076Y-75973012D01*
X156331668Y-75961384D01*
X156316890Y-75948902D01*
X156302781Y-75935586D01*
X156289379Y-75921458D01*
X156276724Y-75906540D01*
X156264853Y-75890854D01*
X156253363Y-75874509D01*
X156242726Y-75857696D01*
X156232950Y-75840448D01*
X156224044Y-75822799D01*
X156216016Y-75804782D01*
X156208874Y-75786431D01*
X156202629Y-75767778D01*
X156197287Y-75748858D01*
X156192857Y-75729704D01*
X156189349Y-75710349D01*
X156186771Y-75690826D01*
X156185130Y-75671170D01*
X156184437Y-75651413D01*
X156184699Y-75631589D01*
X156185925Y-75611732D01*
X156188124Y-75591874D01*
X156230457Y-75591874D01*
X156228692Y-75609384D01*
X156227744Y-75626890D01*
X156227608Y-75644365D01*
X156228277Y-75661783D01*
X156229743Y-75679115D01*
X156232000Y-75696335D01*
X156235042Y-75713417D01*
X156238862Y-75730333D01*
X156243452Y-75747056D01*
X156248806Y-75763559D01*
X156254918Y-75779816D01*
X156261781Y-75795799D01*
X156269387Y-75811482D01*
X156277731Y-75826837D01*
X156286805Y-75841838D01*
X156296603Y-75856457D01*
X156308445Y-75872250D01*
X156320644Y-75886898D01*
X156333187Y-75900419D01*
X156346057Y-75912831D01*
X156359242Y-75924152D01*
X156372726Y-75934400D01*
X156386495Y-75943593D01*
X156400535Y-75951749D01*
X156414830Y-75958885D01*
X156429366Y-75965020D01*
X156444130Y-75970171D01*
X156459105Y-75974357D01*
X156474278Y-75977596D01*
X156489634Y-75979904D01*
X156505159Y-75981301D01*
X156520838Y-75981804D01*
X156536656Y-75981431D01*
X156552599Y-75980200D01*
X156568653Y-75978129D01*
X156584803Y-75975236D01*
X156601034Y-75971538D01*
X156617332Y-75967055D01*
X156650070Y-75955800D01*
X156682901Y-75941616D01*
X156715709Y-75924644D01*
X156748378Y-75905030D01*
X156780791Y-75882916D01*
X156822820Y-75851455D01*
X156863277Y-75815902D01*
X156901702Y-75776690D01*
X156937639Y-75734253D01*
X156970631Y-75689026D01*
X157000219Y-75641442D01*
X157025948Y-75591936D01*
X157047358Y-75540942D01*
X157056302Y-75515022D01*
X157063994Y-75488893D01*
X157070379Y-75462609D01*
X157075398Y-75436225D01*
X157078995Y-75409793D01*
X157081112Y-75383370D01*
X157081693Y-75357009D01*
X157080679Y-75330763D01*
X157078015Y-75304689D01*
X157073642Y-75278839D01*
X157067504Y-75253268D01*
X157059544Y-75228031D01*
X157049703Y-75203181D01*
X157037926Y-75178773D01*
X157024155Y-75154861D01*
X157008332Y-75131499D01*
X156998414Y-75118470D01*
X156987674Y-75106321D01*
X156976170Y-75095074D01*
X156963960Y-75084753D01*
X156951101Y-75075381D01*
X156937653Y-75066981D01*
X156923672Y-75059577D01*
X156909216Y-75053190D01*
X156894344Y-75047846D01*
X156879113Y-75043566D01*
X156863582Y-75040373D01*
X156847807Y-75038292D01*
X156831847Y-75037345D01*
X156815761Y-75037556D01*
X156799604Y-75038946D01*
X156783437Y-75041541D01*
X156783437Y-74993916D01*
X156793036Y-74992393D01*
X156802633Y-74991229D01*
X156812220Y-74990418D01*
X156821788Y-74989958D01*
X156831330Y-74989845D01*
X156840836Y-74990075D01*
G37*
X156840836Y-74990075D02*
X156850299Y-74990645D01*
X156859709Y-74991552D01*
X156869059Y-74992791D01*
X156878339Y-74994360D01*
X156887543Y-74996255D01*
X156896660Y-74998472D01*
X156905683Y-75001007D01*
X156914604Y-75003858D01*
X156923413Y-75007020D01*
X156932103Y-75010491D01*
X156940665Y-75014266D01*
X156949090Y-75018342D01*
X156957371Y-75022716D01*
X156965499Y-75027384D01*
X156973465Y-75032342D01*
X156981261Y-75037587D01*
X156988879Y-75043116D01*
X156996309Y-75048924D01*
X157003545Y-75055009D01*
X157010577Y-75061366D01*
X157017397Y-75067993D01*
X157023996Y-75074885D01*
X157030366Y-75082039D01*
X157036499Y-75089453D01*
X157042387Y-75097121D01*
X157048020Y-75105041D01*
X157065261Y-75130642D01*
X157080314Y-75156808D01*
X157093237Y-75183483D01*
X157104089Y-75210610D01*
X157112930Y-75238135D01*
X157119818Y-75266002D01*
X157124813Y-75294154D01*
X157127974Y-75322536D01*
X157129359Y-75351093D01*
X157129029Y-75379769D01*
X157127042Y-75408507D01*
X157123457Y-75437253D01*
X157118334Y-75465950D01*
X157111731Y-75494543D01*
X157103707Y-75522976D01*
X157094322Y-75551194D01*
X157083635Y-75579141D01*
X157071705Y-75606760D01*
X157058590Y-75633996D01*
X157044351Y-75660795D01*
X157029046Y-75687099D01*
X157012734Y-75712853D01*
X156995475Y-75738001D01*
X156977327Y-75762489D01*
X156938602Y-75809257D01*
X156897032Y-75852711D01*
X156853090Y-75892405D01*
X156830377Y-75910703D01*
X156807249Y-75927895D01*
X156793356Y-75941822D01*
X156778790Y-75954881D01*
X156763592Y-75967056D01*
X156747804Y-75978330D01*
X156731466Y-75988687D01*
X156714620Y-75998112D01*
X156697307Y-76006588D01*
X156679569Y-76014098D01*
X156661447Y-76020628D01*
X156642982Y-76026160D01*
X156624215Y-76030678D01*
X156605188Y-76034167D01*
X156585942Y-76036609D01*
X156566518Y-76037990D01*
X156546957Y-76038292D01*
X156527301Y-76037500D01*
X156507720Y-76035612D01*
X156488382Y-76032654D01*
X156469326Y-76028645D01*
X156450591Y-76023609D01*
X156432214Y-76017566D01*
X156414236Y-76010538D01*
X156396695Y-76002547D01*
X156379628Y-75993615D01*
X156363076Y-75983762D01*
X156347076Y-75973012D01*
X156331668Y-75961384D01*
X156316890Y-75948902D01*
X156302781Y-75935586D01*
X156289379Y-75921458D01*
X156276724Y-75906540D01*
X156264853Y-75890854D01*
X156253363Y-75874509D01*
X156242726Y-75857696D01*
X156232950Y-75840448D01*
X156224044Y-75822799D01*
X156216016Y-75804782D01*
X156208874Y-75786431D01*
X156202629Y-75767778D01*
X156197287Y-75748858D01*
X156192857Y-75729704D01*
X156189349Y-75710349D01*
X156186771Y-75690826D01*
X156185130Y-75671170D01*
X156184437Y-75651413D01*
X156184699Y-75631589D01*
X156185925Y-75611732D01*
X156188124Y-75591874D01*
X156230457Y-75591874D01*
X156228692Y-75609384D01*
X156227744Y-75626890D01*
X156227608Y-75644365D01*
X156228277Y-75661783D01*
X156229743Y-75679115D01*
X156232000Y-75696335D01*
X156235042Y-75713417D01*
X156238862Y-75730333D01*
X156243452Y-75747056D01*
X156248806Y-75763559D01*
X156254918Y-75779816D01*
X156261781Y-75795799D01*
X156269387Y-75811482D01*
X156277731Y-75826837D01*
X156286805Y-75841838D01*
X156296603Y-75856457D01*
X156308445Y-75872250D01*
X156320644Y-75886898D01*
X156333187Y-75900419D01*
X156346057Y-75912831D01*
X156359242Y-75924152D01*
X156372726Y-75934400D01*
X156386495Y-75943593D01*
X156400535Y-75951749D01*
X156414830Y-75958885D01*
X156429366Y-75965020D01*
X156444130Y-75970171D01*
X156459105Y-75974357D01*
X156474278Y-75977596D01*
X156489634Y-75979904D01*
X156505159Y-75981301D01*
X156520838Y-75981804D01*
X156536656Y-75981431D01*
X156552599Y-75980200D01*
X156568653Y-75978129D01*
X156584803Y-75975236D01*
X156601034Y-75971538D01*
X156617332Y-75967055D01*
X156650070Y-75955800D01*
X156682901Y-75941616D01*
X156715709Y-75924644D01*
X156748378Y-75905030D01*
X156780791Y-75882916D01*
X156822820Y-75851455D01*
X156863277Y-75815902D01*
X156901702Y-75776690D01*
X156937639Y-75734253D01*
X156970631Y-75689026D01*
X157000219Y-75641442D01*
X157025948Y-75591936D01*
X157047358Y-75540942D01*
X157056302Y-75515022D01*
X157063994Y-75488893D01*
X157070379Y-75462609D01*
X157075398Y-75436225D01*
X157078995Y-75409793D01*
X157081112Y-75383370D01*
X157081693Y-75357009D01*
X157080679Y-75330763D01*
X157078015Y-75304689D01*
X157073642Y-75278839D01*
X157067504Y-75253268D01*
X157059544Y-75228031D01*
X157049703Y-75203181D01*
X157037926Y-75178773D01*
X157024155Y-75154861D01*
X157008332Y-75131499D01*
X156998414Y-75118470D01*
X156987674Y-75106321D01*
X156976170Y-75095074D01*
X156963960Y-75084753D01*
X156951101Y-75075381D01*
X156937653Y-75066981D01*
X156923672Y-75059577D01*
X156909216Y-75053190D01*
X156894344Y-75047846D01*
X156879113Y-75043566D01*
X156863582Y-75040373D01*
X156847807Y-75038292D01*
X156831847Y-75037345D01*
X156815761Y-75037556D01*
X156799604Y-75038946D01*
X156783437Y-75041541D01*
X156783437Y-74993916D01*
X156793036Y-74992393D01*
X156802633Y-74991229D01*
X156812220Y-74990418D01*
X156821788Y-74989958D01*
X156831330Y-74989845D01*
X156840836Y-74990075D01*
G36*
X143181332Y-77055474D02*
G01*
X143241686Y-77061764D01*
X143300989Y-77072274D01*
X143358641Y-77086839D01*
X143414042Y-77105291D01*
X143414041Y-77105291D01*
X143433228Y-77109833D01*
X143452034Y-77115394D01*
X143470425Y-77121947D01*
X143488365Y-77129467D01*
X143505820Y-77137928D01*
X143522755Y-77147303D01*
X143539135Y-77157568D01*
X143554926Y-77168695D01*
X143570092Y-77180658D01*
X143584599Y-77193433D01*
X143598413Y-77206993D01*
X143611498Y-77221313D01*
X143623819Y-77236365D01*
X143635343Y-77252125D01*
X143646033Y-77268566D01*
X143655856Y-77285662D01*
X143664722Y-77303274D01*
X143672564Y-77321249D01*
X143679378Y-77339545D01*
X143685162Y-77358118D01*
X143689914Y-77376924D01*
X143693631Y-77395920D01*
X143696311Y-77415064D01*
X143697951Y-77434311D01*
X143698549Y-77453619D01*
X143698101Y-77472944D01*
X143696607Y-77492243D01*
X143694062Y-77511473D01*
X143690465Y-77530590D01*
X143685813Y-77549551D01*
X143680104Y-77568313D01*
X143673335Y-77586832D01*
X143666234Y-77604278D01*
X143658385Y-77621326D01*
X143649805Y-77637954D01*
X143640512Y-77654142D01*
X143630527Y-77669870D01*
X143619866Y-77685115D01*
X143608549Y-77699857D01*
X143596593Y-77714075D01*
X143584018Y-77727748D01*
X143570841Y-77740855D01*
X143557082Y-77753375D01*
X143542758Y-77765287D01*
X143527889Y-77776570D01*
X143512492Y-77787204D01*
X143496586Y-77797166D01*
X143480189Y-77806436D01*
X143059503Y-77742936D01*
X143162689Y-77462478D01*
X143205023Y-77462478D01*
X143117710Y-77697957D01*
X143472252Y-77753520D01*
X143486224Y-77746325D01*
X143499748Y-77738463D01*
X143512804Y-77729956D01*
X143525372Y-77720827D01*
X143537433Y-77711099D01*
X143548966Y-77700793D01*
X143559953Y-77689933D01*
X143570374Y-77678540D01*
X143580209Y-77666639D01*
X143589438Y-77654250D01*
X143598043Y-77641397D01*
X143606002Y-77628102D01*
X143613298Y-77614388D01*
X143619909Y-77600278D01*
X143625817Y-77585793D01*
X143631002Y-77570957D01*
X143638075Y-77550594D01*
X143643936Y-77530679D01*
X143648611Y-77511212D01*
X143652127Y-77492191D01*
X143654511Y-77473617D01*
X143655791Y-77455487D01*
X143655993Y-77437801D01*
X143655145Y-77420558D01*
X143653273Y-77403756D01*
X143650406Y-77387396D01*
X143646570Y-77371475D01*
X143641791Y-77355993D01*
X143636099Y-77340949D01*
X143629518Y-77326342D01*
X143622077Y-77312172D01*
X143613803Y-77298436D01*
X143604723Y-77285134D01*
X143594864Y-77272266D01*
X143584253Y-77259829D01*
X143572917Y-77247824D01*
X143560883Y-77236249D01*
X143548179Y-77225103D01*
X143534832Y-77214386D01*
X143520868Y-77204095D01*
X143506316Y-77194232D01*
X143491201Y-77184793D01*
X143459394Y-77167188D01*
X143425665Y-77151273D01*
X143390230Y-77137040D01*
X143341066Y-77121258D01*
X143289239Y-77108763D01*
X143235373Y-77099740D01*
X143180093Y-77094376D01*
X143124022Y-77092857D01*
X143095885Y-77093597D01*
X143067785Y-77095368D01*
X143039798Y-77098194D01*
X143012005Y-77102097D01*
X142984481Y-77107100D01*
X142957306Y-77113228D01*
X142930557Y-77120502D01*
X142904312Y-77128948D01*
X142878650Y-77138587D01*
X142853648Y-77149443D01*
X142829384Y-77161539D01*
X142805937Y-77174898D01*
X142783384Y-77189545D01*
X142761803Y-77205501D01*
X142741273Y-77222791D01*
X142721871Y-77241437D01*
X142703675Y-77261463D01*
X142686764Y-77282892D01*
X142671214Y-77305747D01*
X142657106Y-77330052D01*
X142644515Y-77355829D01*
X142633521Y-77383103D01*
X142628358Y-77398667D01*
X142624360Y-77414414D01*
X142621514Y-77430286D01*
X142619809Y-77446222D01*
X142619232Y-77462166D01*
X142619771Y-77478057D01*
X142621413Y-77493839D01*
X142624145Y-77509451D01*
X142627957Y-77524835D01*
X142632834Y-77539933D01*
X142638765Y-77554686D01*
X142645737Y-77569036D01*
X142653739Y-77582924D01*
X142662757Y-77596290D01*
X142672779Y-77609078D01*
X142683793Y-77621227D01*
X142646752Y-77647686D01*
X142634243Y-77633314D01*
X142622900Y-77618224D01*
X142612736Y-77602485D01*
X142603765Y-77586165D01*
X142595998Y-77569333D01*
X142589450Y-77552056D01*
X142584134Y-77534404D01*
X142580061Y-77516443D01*
X142577246Y-77498243D01*
X142575701Y-77479872D01*
X142575439Y-77461398D01*
X142576474Y-77442889D01*
X142578818Y-77424414D01*
X142582484Y-77406041D01*
X142587485Y-77387838D01*
X142593835Y-77369874D01*
X142606077Y-77340407D01*
X142619935Y-77312516D01*
X142635331Y-77286180D01*
X142652193Y-77261379D01*
X142670443Y-77238091D01*
X142690009Y-77216296D01*
X142710813Y-77195972D01*
X142732782Y-77177100D01*
X142755839Y-77159658D01*
X142779911Y-77143625D01*
X142804922Y-77128980D01*
X142830796Y-77115703D01*
X142857459Y-77103773D01*
X142884836Y-77093169D01*
X142941430Y-77075856D01*
X142999977Y-77063596D01*
X143059877Y-77056224D01*
X143120529Y-77053572D01*
X143181332Y-77055474D01*
G37*
X143181332Y-77055474D02*
X143241686Y-77061764D01*
X143300989Y-77072274D01*
X143358641Y-77086839D01*
X143414042Y-77105291D01*
X143414041Y-77105291D01*
X143433228Y-77109833D01*
X143452034Y-77115394D01*
X143470425Y-77121947D01*
X143488365Y-77129467D01*
X143505820Y-77137928D01*
X143522755Y-77147303D01*
X143539135Y-77157568D01*
X143554926Y-77168695D01*
X143570092Y-77180658D01*
X143584599Y-77193433D01*
X143598413Y-77206993D01*
X143611498Y-77221313D01*
X143623819Y-77236365D01*
X143635343Y-77252125D01*
X143646033Y-77268566D01*
X143655856Y-77285662D01*
X143664722Y-77303274D01*
X143672564Y-77321249D01*
X143679378Y-77339545D01*
X143685162Y-77358118D01*
X143689914Y-77376924D01*
X143693631Y-77395920D01*
X143696311Y-77415064D01*
X143697951Y-77434311D01*
X143698549Y-77453619D01*
X143698101Y-77472944D01*
X143696607Y-77492243D01*
X143694062Y-77511473D01*
X143690465Y-77530590D01*
X143685813Y-77549551D01*
X143680104Y-77568313D01*
X143673335Y-77586832D01*
X143666234Y-77604278D01*
X143658385Y-77621326D01*
X143649805Y-77637954D01*
X143640512Y-77654142D01*
X143630527Y-77669870D01*
X143619866Y-77685115D01*
X143608549Y-77699857D01*
X143596593Y-77714075D01*
X143584018Y-77727748D01*
X143570841Y-77740855D01*
X143557082Y-77753375D01*
X143542758Y-77765287D01*
X143527889Y-77776570D01*
X143512492Y-77787204D01*
X143496586Y-77797166D01*
X143480189Y-77806436D01*
X143059503Y-77742936D01*
X143162689Y-77462478D01*
X143205023Y-77462478D01*
X143117710Y-77697957D01*
X143472252Y-77753520D01*
X143486224Y-77746325D01*
X143499748Y-77738463D01*
X143512804Y-77729956D01*
X143525372Y-77720827D01*
X143537433Y-77711099D01*
X143548966Y-77700793D01*
X143559953Y-77689933D01*
X143570374Y-77678540D01*
X143580209Y-77666639D01*
X143589438Y-77654250D01*
X143598043Y-77641397D01*
X143606002Y-77628102D01*
X143613298Y-77614388D01*
X143619909Y-77600278D01*
X143625817Y-77585793D01*
X143631002Y-77570957D01*
X143638075Y-77550594D01*
X143643936Y-77530679D01*
X143648611Y-77511212D01*
X143652127Y-77492191D01*
X143654511Y-77473617D01*
X143655791Y-77455487D01*
X143655993Y-77437801D01*
X143655145Y-77420558D01*
X143653273Y-77403756D01*
X143650406Y-77387396D01*
X143646570Y-77371475D01*
X143641791Y-77355993D01*
X143636099Y-77340949D01*
X143629518Y-77326342D01*
X143622077Y-77312172D01*
X143613803Y-77298436D01*
X143604723Y-77285134D01*
X143594864Y-77272266D01*
X143584253Y-77259829D01*
X143572917Y-77247824D01*
X143560883Y-77236249D01*
X143548179Y-77225103D01*
X143534832Y-77214386D01*
X143520868Y-77204095D01*
X143506316Y-77194232D01*
X143491201Y-77184793D01*
X143459394Y-77167188D01*
X143425665Y-77151273D01*
X143390230Y-77137040D01*
X143341066Y-77121258D01*
X143289239Y-77108763D01*
X143235373Y-77099740D01*
X143180093Y-77094376D01*
X143124022Y-77092857D01*
X143095885Y-77093597D01*
X143067785Y-77095368D01*
X143039798Y-77098194D01*
X143012005Y-77102097D01*
X142984481Y-77107100D01*
X142957306Y-77113228D01*
X142930557Y-77120502D01*
X142904312Y-77128948D01*
X142878650Y-77138587D01*
X142853648Y-77149443D01*
X142829384Y-77161539D01*
X142805937Y-77174898D01*
X142783384Y-77189545D01*
X142761803Y-77205501D01*
X142741273Y-77222791D01*
X142721871Y-77241437D01*
X142703675Y-77261463D01*
X142686764Y-77282892D01*
X142671214Y-77305747D01*
X142657106Y-77330052D01*
X142644515Y-77355829D01*
X142633521Y-77383103D01*
X142628358Y-77398667D01*
X142624360Y-77414414D01*
X142621514Y-77430286D01*
X142619809Y-77446222D01*
X142619232Y-77462166D01*
X142619771Y-77478057D01*
X142621413Y-77493839D01*
X142624145Y-77509451D01*
X142627957Y-77524835D01*
X142632834Y-77539933D01*
X142638765Y-77554686D01*
X142645737Y-77569036D01*
X142653739Y-77582924D01*
X142662757Y-77596290D01*
X142672779Y-77609078D01*
X142683793Y-77621227D01*
X142646752Y-77647686D01*
X142634243Y-77633314D01*
X142622900Y-77618224D01*
X142612736Y-77602485D01*
X142603765Y-77586165D01*
X142595998Y-77569333D01*
X142589450Y-77552056D01*
X142584134Y-77534404D01*
X142580061Y-77516443D01*
X142577246Y-77498243D01*
X142575701Y-77479872D01*
X142575439Y-77461398D01*
X142576474Y-77442889D01*
X142578818Y-77424414D01*
X142582484Y-77406041D01*
X142587485Y-77387838D01*
X142593835Y-77369874D01*
X142606077Y-77340407D01*
X142619935Y-77312516D01*
X142635331Y-77286180D01*
X142652193Y-77261379D01*
X142670443Y-77238091D01*
X142690009Y-77216296D01*
X142710813Y-77195972D01*
X142732782Y-77177100D01*
X142755839Y-77159658D01*
X142779911Y-77143625D01*
X142804922Y-77128980D01*
X142830796Y-77115703D01*
X142857459Y-77103773D01*
X142884836Y-77093169D01*
X142941430Y-77075856D01*
X142999977Y-77063596D01*
X143059877Y-77056224D01*
X143120529Y-77053572D01*
X143181332Y-77055474D01*
G36*
X146124413Y-86221922D02*
G01*
X146121018Y-86252251D01*
X146116025Y-86282273D01*
X146109454Y-86311928D01*
X146101330Y-86341153D01*
X146091674Y-86369887D01*
X146080509Y-86398069D01*
X146067856Y-86425638D01*
X146053740Y-86452532D01*
X146038182Y-86478689D01*
X146021204Y-86504048D01*
X146002830Y-86528549D01*
X145983081Y-86552128D01*
X145961980Y-86574726D01*
X145949933Y-86592502D01*
X145936975Y-86609472D01*
X145923147Y-86625608D01*
X145908493Y-86640885D01*
X145893054Y-86655276D01*
X145876872Y-86668755D01*
X145859991Y-86681296D01*
X145842453Y-86692871D01*
X145824299Y-86703456D01*
X145805572Y-86713024D01*
X145786314Y-86721548D01*
X145766568Y-86729002D01*
X145746377Y-86735360D01*
X145725781Y-86740595D01*
X145704825Y-86744682D01*
X145683549Y-86747594D01*
X145662142Y-86749297D01*
X145640796Y-86749783D01*
X145619558Y-86749070D01*
X145598473Y-86747174D01*
X145577591Y-86744113D01*
X145556956Y-86739901D01*
X145536617Y-86734557D01*
X145516620Y-86728097D01*
X145497013Y-86720537D01*
X145477841Y-86711894D01*
X145459153Y-86702185D01*
X145440995Y-86691427D01*
X145423414Y-86679635D01*
X145406458Y-86666826D01*
X145390172Y-86653018D01*
X145374604Y-86638227D01*
X145226438Y-86524457D01*
X145231628Y-86513873D01*
X145282000Y-86513873D01*
X145398416Y-86603830D01*
X145412547Y-86617057D01*
X145427319Y-86629394D01*
X145442688Y-86640826D01*
X145458613Y-86651338D01*
X145475051Y-86660916D01*
X145491959Y-86669545D01*
X145509296Y-86677210D01*
X145527019Y-86683898D01*
X145545085Y-86689592D01*
X145563452Y-86694279D01*
X145582078Y-86697944D01*
X145600920Y-86700572D01*
X145619936Y-86702148D01*
X145639084Y-86702658D01*
X145658322Y-86702088D01*
X145677606Y-86700422D01*
X145696765Y-86697667D01*
X145715629Y-86693856D01*
X145734162Y-86689013D01*
X145752324Y-86683161D01*
X145770078Y-86676324D01*
X145787386Y-86668527D01*
X145804210Y-86659793D01*
X145820511Y-86650146D01*
X145836253Y-86639610D01*
X145851398Y-86628210D01*
X145865906Y-86615968D01*
X145879740Y-86602908D01*
X145892863Y-86589056D01*
X145905237Y-86574434D01*
X145916822Y-86559066D01*
X145927583Y-86542977D01*
X145947085Y-86522213D01*
X145965351Y-86500544D01*
X145982359Y-86478026D01*
X145998090Y-86454716D01*
X146012522Y-86430669D01*
X146025635Y-86405940D01*
X146037408Y-86380587D01*
X146047819Y-86354665D01*
X146056849Y-86328229D01*
X146064476Y-86301337D01*
X146070680Y-86274043D01*
X146075440Y-86246404D01*
X146078734Y-86218476D01*
X146080543Y-86190314D01*
X146080846Y-86161975D01*
X146079621Y-86133515D01*
X146076869Y-86105162D01*
X146072621Y-86077141D01*
X146066906Y-86049506D01*
X146059753Y-86022309D01*
X146051189Y-85995603D01*
X146041243Y-85969440D01*
X146029944Y-85943872D01*
X146017319Y-85918952D01*
X146003398Y-85894733D01*
X145988208Y-85871267D01*
X145971778Y-85848607D01*
X145954137Y-85826804D01*
X145935311Y-85805913D01*
X145915331Y-85785984D01*
X145894225Y-85767072D01*
X145872020Y-85749227D01*
X145715916Y-85630165D01*
X145282000Y-86513873D01*
X145231628Y-86513873D01*
X145697396Y-85564019D01*
X145895834Y-85714831D01*
X145920143Y-85733935D01*
X145943266Y-85754217D01*
X145965171Y-85775619D01*
X145985827Y-85798084D01*
X146005203Y-85821554D01*
X146023267Y-85845972D01*
X146039986Y-85871281D01*
X146055330Y-85897424D01*
X146069268Y-85924344D01*
X146081766Y-85951983D01*
X146092795Y-85980283D01*
X146102321Y-86009189D01*
X146110314Y-86038642D01*
X146116742Y-86068584D01*
X146121574Y-86098960D01*
X146124777Y-86129712D01*
X146126315Y-86160591D01*
X146126309Y-86161975D01*
X146126186Y-86191349D01*
X146124413Y-86221922D01*
G37*
X146124413Y-86221922D02*
X146121018Y-86252251D01*
X146116025Y-86282273D01*
X146109454Y-86311928D01*
X146101330Y-86341153D01*
X146091674Y-86369887D01*
X146080509Y-86398069D01*
X146067856Y-86425638D01*
X146053740Y-86452532D01*
X146038182Y-86478689D01*
X146021204Y-86504048D01*
X146002830Y-86528549D01*
X145983081Y-86552128D01*
X145961980Y-86574726D01*
X145949933Y-86592502D01*
X145936975Y-86609472D01*
X145923147Y-86625608D01*
X145908493Y-86640885D01*
X145893054Y-86655276D01*
X145876872Y-86668755D01*
X145859991Y-86681296D01*
X145842453Y-86692871D01*
X145824299Y-86703456D01*
X145805572Y-86713024D01*
X145786314Y-86721548D01*
X145766568Y-86729002D01*
X145746377Y-86735360D01*
X145725781Y-86740595D01*
X145704825Y-86744682D01*
X145683549Y-86747594D01*
X145662142Y-86749297D01*
X145640796Y-86749783D01*
X145619558Y-86749070D01*
X145598473Y-86747174D01*
X145577591Y-86744113D01*
X145556956Y-86739901D01*
X145536617Y-86734557D01*
X145516620Y-86728097D01*
X145497013Y-86720537D01*
X145477841Y-86711894D01*
X145459153Y-86702185D01*
X145440995Y-86691427D01*
X145423414Y-86679635D01*
X145406458Y-86666826D01*
X145390172Y-86653018D01*
X145374604Y-86638227D01*
X145226438Y-86524457D01*
X145231628Y-86513873D01*
X145282000Y-86513873D01*
X145398416Y-86603830D01*
X145412547Y-86617057D01*
X145427319Y-86629394D01*
X145442688Y-86640826D01*
X145458613Y-86651338D01*
X145475051Y-86660916D01*
X145491959Y-86669545D01*
X145509296Y-86677210D01*
X145527019Y-86683898D01*
X145545085Y-86689592D01*
X145563452Y-86694279D01*
X145582078Y-86697944D01*
X145600920Y-86700572D01*
X145619936Y-86702148D01*
X145639084Y-86702658D01*
X145658322Y-86702088D01*
X145677606Y-86700422D01*
X145696765Y-86697667D01*
X145715629Y-86693856D01*
X145734162Y-86689013D01*
X145752324Y-86683161D01*
X145770078Y-86676324D01*
X145787386Y-86668527D01*
X145804210Y-86659793D01*
X145820511Y-86650146D01*
X145836253Y-86639610D01*
X145851398Y-86628210D01*
X145865906Y-86615968D01*
X145879740Y-86602908D01*
X145892863Y-86589056D01*
X145905237Y-86574434D01*
X145916822Y-86559066D01*
X145927583Y-86542977D01*
X145947085Y-86522213D01*
X145965351Y-86500544D01*
X145982359Y-86478026D01*
X145998090Y-86454716D01*
X146012522Y-86430669D01*
X146025635Y-86405940D01*
X146037408Y-86380587D01*
X146047819Y-86354665D01*
X146056849Y-86328229D01*
X146064476Y-86301337D01*
X146070680Y-86274043D01*
X146075440Y-86246404D01*
X146078734Y-86218476D01*
X146080543Y-86190314D01*
X146080846Y-86161975D01*
X146079621Y-86133515D01*
X146076869Y-86105162D01*
X146072621Y-86077141D01*
X146066906Y-86049506D01*
X146059753Y-86022309D01*
X146051189Y-85995603D01*
X146041243Y-85969440D01*
X146029944Y-85943872D01*
X146017319Y-85918952D01*
X146003398Y-85894733D01*
X145988208Y-85871267D01*
X145971778Y-85848607D01*
X145954137Y-85826804D01*
X145935311Y-85805913D01*
X145915331Y-85785984D01*
X145894225Y-85767072D01*
X145872020Y-85749227D01*
X145715916Y-85630165D01*
X145282000Y-86513873D01*
X145231628Y-86513873D01*
X145697396Y-85564019D01*
X145895834Y-85714831D01*
X145920143Y-85733935D01*
X145943266Y-85754217D01*
X145965171Y-85775619D01*
X145985827Y-85798084D01*
X146005203Y-85821554D01*
X146023267Y-85845972D01*
X146039986Y-85871281D01*
X146055330Y-85897424D01*
X146069268Y-85924344D01*
X146081766Y-85951983D01*
X146092795Y-85980283D01*
X146102321Y-86009189D01*
X146110314Y-86038642D01*
X146116742Y-86068584D01*
X146121574Y-86098960D01*
X146124777Y-86129712D01*
X146126315Y-86160591D01*
X146126309Y-86161975D01*
X146126186Y-86191349D01*
X146124413Y-86221922D01*
G36*
X156431541Y-85775686D02*
G01*
X156399791Y-85810082D01*
X155572027Y-85585186D01*
X155680124Y-85585186D01*
X155719812Y-85606352D01*
X155741630Y-85584164D01*
X155979103Y-85648685D01*
X156373332Y-85762456D01*
X156318059Y-85690192D01*
X156260554Y-85616936D01*
X156145791Y-85471415D01*
X156015284Y-85305872D01*
X155741630Y-85584164D01*
X155693890Y-85571193D01*
X155680124Y-85585186D01*
X155572027Y-85585186D01*
X155240916Y-85495226D01*
X155277958Y-85458185D01*
X155693890Y-85571193D01*
X155988419Y-85271795D01*
X156015284Y-85305872D01*
X156032020Y-85288852D01*
X156000270Y-85259748D01*
X155988419Y-85271795D01*
X155751562Y-84971352D01*
X155785957Y-84939602D01*
X156055631Y-85288852D01*
X156421325Y-85762456D01*
X156431541Y-85775686D01*
G37*
X156431541Y-85775686D02*
X156399791Y-85810082D01*
X155572027Y-85585186D01*
X155680124Y-85585186D01*
X155719812Y-85606352D01*
X155741630Y-85584164D01*
X155979103Y-85648685D01*
X156373332Y-85762456D01*
X156318059Y-85690192D01*
X156260554Y-85616936D01*
X156145791Y-85471415D01*
X156015284Y-85305872D01*
X155741630Y-85584164D01*
X155693890Y-85571193D01*
X155680124Y-85585186D01*
X155572027Y-85585186D01*
X155240916Y-85495226D01*
X155277958Y-85458185D01*
X155693890Y-85571193D01*
X155988419Y-85271795D01*
X156015284Y-85305872D01*
X156032020Y-85288852D01*
X156000270Y-85259748D01*
X155988419Y-85271795D01*
X155751562Y-84971352D01*
X155785957Y-84939602D01*
X156055631Y-85288852D01*
X156421325Y-85762456D01*
X156431541Y-85775686D01*
G36*
X158167207Y-77213770D02*
G01*
X157264978Y-77798499D01*
X157249103Y-77753520D01*
X157693603Y-77470416D01*
X157526916Y-77041791D01*
X157561312Y-77017978D01*
X157730645Y-77449249D01*
X158114291Y-77205832D01*
X157915853Y-76676666D01*
X157950249Y-76652853D01*
X158167207Y-77213770D01*
G37*
X158167207Y-77213770D02*
X157264978Y-77798499D01*
X157249103Y-77753520D01*
X157693603Y-77470416D01*
X157526916Y-77041791D01*
X157561312Y-77017978D01*
X157730645Y-77449249D01*
X158114291Y-77205832D01*
X157915853Y-76676666D01*
X157950249Y-76652853D01*
X158167207Y-77213770D01*
G36*
X149361875Y-72940749D02*
G01*
X148748041Y-73062457D01*
X148729521Y-73022770D01*
X149301021Y-72911645D01*
X149105228Y-72445978D01*
X148642208Y-72535936D01*
X148626333Y-72498895D01*
X149089355Y-72406291D01*
X148922667Y-72001478D01*
X148377625Y-72112603D01*
X148351167Y-72078207D01*
X148951770Y-71953853D01*
X149361875Y-72940749D01*
G37*
X149361875Y-72940749D02*
X148748041Y-73062457D01*
X148729521Y-73022770D01*
X149301021Y-72911645D01*
X149105228Y-72445978D01*
X148642208Y-72535936D01*
X148626333Y-72498895D01*
X149089355Y-72406291D01*
X148922667Y-72001478D01*
X148377625Y-72112603D01*
X148351167Y-72078207D01*
X148951770Y-71953853D01*
X149361875Y-72940749D01*
G36*
X154068812Y-72665582D02*
G01*
X153835978Y-73694811D01*
X153269770Y-73430228D01*
X153269770Y-73390541D01*
X153798937Y-73636603D01*
X153917999Y-73147124D01*
X153492020Y-72946041D01*
X153492020Y-72903707D01*
X153917999Y-73107437D01*
X154023832Y-72681457D01*
X153513187Y-72440686D01*
X153513187Y-72400999D01*
X154068812Y-72665582D01*
G37*
X154068812Y-72665582D02*
X153835978Y-73694811D01*
X153269770Y-73430228D01*
X153269770Y-73390541D01*
X153798937Y-73636603D01*
X153917999Y-73147124D01*
X153492020Y-72946041D01*
X153492020Y-72903707D01*
X153917999Y-73107437D01*
X154023832Y-72681457D01*
X153513187Y-72440686D01*
X153513187Y-72400999D01*
X154068812Y-72665582D01*
G36*
X152819979Y-73287353D02*
G01*
X152790451Y-73277431D01*
X152761650Y-73265993D01*
X152733624Y-73253083D01*
X152706423Y-73238744D01*
X152680096Y-73223021D01*
X152654692Y-73205955D01*
X152630260Y-73187592D01*
X152606850Y-73167974D01*
X152584511Y-73147145D01*
X152563291Y-73125148D01*
X152543241Y-73102027D01*
X152524409Y-73077825D01*
X152506845Y-73052587D01*
X152490597Y-73026355D01*
X152475716Y-72999172D01*
X152462249Y-72971083D01*
X152450317Y-72942309D01*
X152440004Y-72913086D01*
X152431310Y-72883480D01*
X152424235Y-72853556D01*
X152418778Y-72823380D01*
X152414940Y-72793018D01*
X152412718Y-72762535D01*
X152412114Y-72731998D01*
X152412533Y-72719365D01*
X152454434Y-72719365D01*
X152454733Y-72747326D01*
X152456510Y-72775250D01*
X152459765Y-72803078D01*
X152464500Y-72830750D01*
X152470715Y-72858205D01*
X152478411Y-72885384D01*
X152487590Y-72912228D01*
X152498252Y-72938675D01*
X152510322Y-72964511D01*
X152523693Y-72989531D01*
X152538320Y-73013697D01*
X152554160Y-73036968D01*
X152571167Y-73059303D01*
X152589298Y-73080664D01*
X152608508Y-73101008D01*
X152628753Y-73120297D01*
X152649987Y-73138491D01*
X152672168Y-73155548D01*
X152695250Y-73171429D01*
X152719188Y-73186095D01*
X152743940Y-73199503D01*
X152769459Y-73211616D01*
X152795702Y-73222392D01*
X152822624Y-73231791D01*
X153010479Y-73292645D01*
X153124250Y-72313686D01*
X152984020Y-72268707D01*
X152966306Y-72260925D01*
X152948285Y-72254194D01*
X152930000Y-72248515D01*
X152911496Y-72243886D01*
X152892819Y-72240308D01*
X152874013Y-72237780D01*
X152855122Y-72236303D01*
X152836192Y-72235875D01*
X152817268Y-72236498D01*
X152798394Y-72238170D01*
X152779615Y-72240891D01*
X152760976Y-72244661D01*
X152742521Y-72249480D01*
X152724295Y-72255347D01*
X152706344Y-72262263D01*
X152688711Y-72270227D01*
X152671557Y-72279176D01*
X152655031Y-72289023D01*
X152639159Y-72299733D01*
X152623971Y-72311271D01*
X152609494Y-72323602D01*
X152595755Y-72336690D01*
X152582783Y-72350502D01*
X152570606Y-72365001D01*
X152559250Y-72380152D01*
X152548745Y-72395922D01*
X152539118Y-72412273D01*
X152530396Y-72429172D01*
X152522608Y-72446584D01*
X152515782Y-72464472D01*
X152509945Y-72482803D01*
X152505125Y-72501541D01*
X152493636Y-72527640D01*
X152483618Y-72554181D01*
X152475071Y-72581105D01*
X152467996Y-72608351D01*
X152462394Y-72635861D01*
X152458265Y-72663572D01*
X152455612Y-72691427D01*
X152454434Y-72719365D01*
X152412533Y-72719365D01*
X152413126Y-72701471D01*
X152415754Y-72671021D01*
X152419998Y-72640713D01*
X152425857Y-72610612D01*
X152433331Y-72580786D01*
X152442419Y-72551298D01*
X152453121Y-72522215D01*
X152465437Y-72493603D01*
X152470668Y-72472797D01*
X152477022Y-72452433D01*
X152484468Y-72432549D01*
X152492978Y-72413183D01*
X152502520Y-72394374D01*
X152513065Y-72376161D01*
X152524582Y-72358582D01*
X152537041Y-72341677D01*
X152550413Y-72325483D01*
X152564666Y-72310039D01*
X152579771Y-72295385D01*
X152595697Y-72281558D01*
X152612415Y-72268598D01*
X152629894Y-72256542D01*
X152648104Y-72245430D01*
X152667015Y-72235301D01*
X152686465Y-72226250D01*
X152706281Y-72218349D01*
X152726413Y-72211599D01*
X152746812Y-72206001D01*
X152767429Y-72201556D01*
X152788215Y-72198265D01*
X152809122Y-72196128D01*
X152830100Y-72195148D01*
X152851100Y-72195323D01*
X152872073Y-72196657D01*
X152892970Y-72199149D01*
X152913742Y-72202800D01*
X152934341Y-72207612D01*
X152954717Y-72213586D01*
X152974821Y-72220721D01*
X152994604Y-72229020D01*
X153171875Y-72287228D01*
X153169007Y-72313686D01*
X153055458Y-73361436D01*
X152819979Y-73287353D01*
G37*
X152819979Y-73287353D02*
X152790451Y-73277431D01*
X152761650Y-73265993D01*
X152733624Y-73253083D01*
X152706423Y-73238744D01*
X152680096Y-73223021D01*
X152654692Y-73205955D01*
X152630260Y-73187592D01*
X152606850Y-73167974D01*
X152584511Y-73147145D01*
X152563291Y-73125148D01*
X152543241Y-73102027D01*
X152524409Y-73077825D01*
X152506845Y-73052587D01*
X152490597Y-73026355D01*
X152475716Y-72999172D01*
X152462249Y-72971083D01*
X152450317Y-72942309D01*
X152440004Y-72913086D01*
X152431310Y-72883480D01*
X152424235Y-72853556D01*
X152418778Y-72823380D01*
X152414940Y-72793018D01*
X152412718Y-72762535D01*
X152412114Y-72731998D01*
X152412533Y-72719365D01*
X152454434Y-72719365D01*
X152454733Y-72747326D01*
X152456510Y-72775250D01*
X152459765Y-72803078D01*
X152464500Y-72830750D01*
X152470715Y-72858205D01*
X152478411Y-72885384D01*
X152487590Y-72912228D01*
X152498252Y-72938675D01*
X152510322Y-72964511D01*
X152523693Y-72989531D01*
X152538320Y-73013697D01*
X152554160Y-73036968D01*
X152571167Y-73059303D01*
X152589298Y-73080664D01*
X152608508Y-73101008D01*
X152628753Y-73120297D01*
X152649987Y-73138491D01*
X152672168Y-73155548D01*
X152695250Y-73171429D01*
X152719188Y-73186095D01*
X152743940Y-73199503D01*
X152769459Y-73211616D01*
X152795702Y-73222392D01*
X152822624Y-73231791D01*
X153010479Y-73292645D01*
X153124250Y-72313686D01*
X152984020Y-72268707D01*
X152966306Y-72260925D01*
X152948285Y-72254194D01*
X152930000Y-72248515D01*
X152911496Y-72243886D01*
X152892819Y-72240308D01*
X152874013Y-72237780D01*
X152855122Y-72236303D01*
X152836192Y-72235875D01*
X152817268Y-72236498D01*
X152798394Y-72238170D01*
X152779615Y-72240891D01*
X152760976Y-72244661D01*
X152742521Y-72249480D01*
X152724295Y-72255347D01*
X152706344Y-72262263D01*
X152688711Y-72270227D01*
X152671557Y-72279176D01*
X152655031Y-72289023D01*
X152639159Y-72299733D01*
X152623971Y-72311271D01*
X152609494Y-72323602D01*
X152595755Y-72336690D01*
X152582783Y-72350502D01*
X152570606Y-72365001D01*
X152559250Y-72380152D01*
X152548745Y-72395922D01*
X152539118Y-72412273D01*
X152530396Y-72429172D01*
X152522608Y-72446584D01*
X152515782Y-72464472D01*
X152509945Y-72482803D01*
X152505125Y-72501541D01*
X152493636Y-72527640D01*
X152483618Y-72554181D01*
X152475071Y-72581105D01*
X152467996Y-72608351D01*
X152462394Y-72635861D01*
X152458265Y-72663572D01*
X152455612Y-72691427D01*
X152454434Y-72719365D01*
X152412533Y-72719365D01*
X152413126Y-72701471D01*
X152415754Y-72671021D01*
X152419998Y-72640713D01*
X152425857Y-72610612D01*
X152433331Y-72580786D01*
X152442419Y-72551298D01*
X152453121Y-72522215D01*
X152465437Y-72493603D01*
X152470668Y-72472797D01*
X152477022Y-72452433D01*
X152484468Y-72432549D01*
X152492978Y-72413183D01*
X152502520Y-72394374D01*
X152513065Y-72376161D01*
X152524582Y-72358582D01*
X152537041Y-72341677D01*
X152550413Y-72325483D01*
X152564666Y-72310039D01*
X152579771Y-72295385D01*
X152595697Y-72281558D01*
X152612415Y-72268598D01*
X152629894Y-72256542D01*
X152648104Y-72245430D01*
X152667015Y-72235301D01*
X152686465Y-72226250D01*
X152706281Y-72218349D01*
X152726413Y-72211599D01*
X152746812Y-72206001D01*
X152767429Y-72201556D01*
X152788215Y-72198265D01*
X152809122Y-72196128D01*
X152830100Y-72195148D01*
X152851100Y-72195323D01*
X152872073Y-72196657D01*
X152892970Y-72199149D01*
X152913742Y-72202800D01*
X152934341Y-72207612D01*
X152954717Y-72213586D01*
X152974821Y-72220721D01*
X152994604Y-72229020D01*
X153171875Y-72287228D01*
X153169007Y-72313686D01*
X153055458Y-73361436D01*
X152819979Y-73287353D01*
G36*
X158667270Y-80872957D02*
G01*
X158071957Y-81121665D01*
X157913207Y-81179873D01*
X158056082Y-81219561D01*
X158585249Y-81391540D01*
X158585249Y-81460332D01*
X157540145Y-81505313D01*
X157540145Y-81457687D01*
X158352416Y-81410062D01*
X158550853Y-81410062D01*
X158381520Y-81357145D01*
X157865582Y-81198395D01*
X157865582Y-81150771D01*
X158434436Y-80917937D01*
X158485327Y-80897515D01*
X158532002Y-80879573D01*
X158554300Y-80871377D01*
X158576195Y-80863615D01*
X158597905Y-80856225D01*
X158619645Y-80849146D01*
X158607213Y-80852406D01*
X158594726Y-80855259D01*
X158582194Y-80857732D01*
X158569622Y-80859853D01*
X158557019Y-80861648D01*
X158544394Y-80863145D01*
X158519103Y-80865352D01*
X158493813Y-80866690D01*
X158468584Y-80867377D01*
X158418561Y-80867667D01*
X157608936Y-80917937D01*
X157608936Y-80870312D01*
X158667270Y-80806812D01*
X158667270Y-80872957D01*
G37*
X158667270Y-80872957D02*
X158071957Y-81121665D01*
X157913207Y-81179873D01*
X158056082Y-81219561D01*
X158585249Y-81391540D01*
X158585249Y-81460332D01*
X157540145Y-81505313D01*
X157540145Y-81457687D01*
X158352416Y-81410062D01*
X158550853Y-81410062D01*
X158381520Y-81357145D01*
X157865582Y-81198395D01*
X157865582Y-81150771D01*
X158434436Y-80917937D01*
X158485327Y-80897515D01*
X158532002Y-80879573D01*
X158554300Y-80871377D01*
X158576195Y-80863615D01*
X158597905Y-80856225D01*
X158619645Y-80849146D01*
X158607213Y-80852406D01*
X158594726Y-80855259D01*
X158582194Y-80857732D01*
X158569622Y-80859853D01*
X158557019Y-80861648D01*
X158544394Y-80863145D01*
X158519103Y-80865352D01*
X158493813Y-80866690D01*
X158468584Y-80867377D01*
X158418561Y-80867667D01*
X157608936Y-80917937D01*
X157608936Y-80870312D01*
X158667270Y-80806812D01*
X158667270Y-80872957D01*
G36*
X154013659Y-87400022D02*
G01*
X154011605Y-87417421D01*
X154008714Y-87434474D01*
X154004981Y-87451159D01*
X154000403Y-87467457D01*
X153994977Y-87483347D01*
X153988699Y-87498809D01*
X153981566Y-87513822D01*
X153973575Y-87528366D01*
X153964722Y-87542421D01*
X153955003Y-87555967D01*
X153944416Y-87568982D01*
X153932957Y-87581447D01*
X153920623Y-87593341D01*
X153907409Y-87604644D01*
X153893314Y-87615336D01*
X153878332Y-87625395D01*
X153862462Y-87634803D01*
X153845700Y-87643539D01*
X153828041Y-87651581D01*
X153801204Y-87662096D01*
X153774294Y-87670370D01*
X153747349Y-87676473D01*
X153720404Y-87680473D01*
X153693496Y-87682441D01*
X153666661Y-87682446D01*
X153639936Y-87680556D01*
X153613357Y-87676841D01*
X153586959Y-87671370D01*
X153560780Y-87664213D01*
X153534856Y-87655439D01*
X153509223Y-87645116D01*
X153483918Y-87633316D01*
X153458976Y-87620106D01*
X153434435Y-87605556D01*
X153410330Y-87589735D01*
X153386698Y-87572713D01*
X153363575Y-87554558D01*
X153340998Y-87535341D01*
X153319002Y-87515130D01*
X153276902Y-87472004D01*
X153237565Y-87425735D01*
X153201283Y-87376877D01*
X153168345Y-87325984D01*
X153139042Y-87273611D01*
X153113666Y-87220311D01*
X153105132Y-87200021D01*
X153097392Y-87179842D01*
X153090450Y-87159795D01*
X153084308Y-87139897D01*
X153078971Y-87120168D01*
X153074441Y-87100626D01*
X153070723Y-87081291D01*
X153067819Y-87062181D01*
X153065732Y-87043315D01*
X153064467Y-87024712D01*
X153064026Y-87006392D01*
X153064342Y-86991663D01*
X153109392Y-86991663D01*
X153110557Y-87024378D01*
X153114617Y-87058171D01*
X153121514Y-87092924D01*
X153131189Y-87128523D01*
X153143586Y-87164850D01*
X153158645Y-87201789D01*
X153183105Y-87249473D01*
X153210704Y-87296890D01*
X153241233Y-87343461D01*
X153274483Y-87388610D01*
X153310244Y-87431759D01*
X153348308Y-87472331D01*
X153388465Y-87509748D01*
X153409262Y-87527093D01*
X153430505Y-87543433D01*
X153452166Y-87558695D01*
X153474219Y-87572808D01*
X153496639Y-87585699D01*
X153519398Y-87597295D01*
X153542472Y-87607526D01*
X153565834Y-87616318D01*
X153589457Y-87623600D01*
X153613315Y-87629299D01*
X153637383Y-87633343D01*
X153661634Y-87635660D01*
X153686042Y-87636177D01*
X153710581Y-87634823D01*
X153735224Y-87631526D01*
X153759946Y-87626212D01*
X153784720Y-87618811D01*
X153809520Y-87609249D01*
X153825451Y-87602004D01*
X153840505Y-87594169D01*
X153854690Y-87585759D01*
X153868013Y-87576790D01*
X153880481Y-87567277D01*
X153892102Y-87557234D01*
X153902884Y-87546677D01*
X153912832Y-87535620D01*
X153921955Y-87524078D01*
X153930259Y-87512067D01*
X153937753Y-87499602D01*
X153944442Y-87486697D01*
X153950336Y-87473368D01*
X153955440Y-87459630D01*
X153959762Y-87445497D01*
X153963309Y-87430985D01*
X153966090Y-87416109D01*
X153968110Y-87400883D01*
X153969377Y-87385323D01*
X153969898Y-87369443D01*
X153968734Y-87336787D01*
X153964674Y-87303034D01*
X153957777Y-87268304D01*
X153948101Y-87232718D01*
X153935704Y-87196396D01*
X153920645Y-87159457D01*
X153897842Y-87112703D01*
X153871299Y-87066088D01*
X153841307Y-87020186D01*
X153808156Y-86975571D01*
X153772137Y-86932817D01*
X153733540Y-86892496D01*
X153692657Y-86855183D01*
X153649778Y-86821451D01*
X153627681Y-86806108D01*
X153605194Y-86791874D01*
X153582353Y-86778823D01*
X153559194Y-86767026D01*
X153535755Y-86756554D01*
X153512071Y-86747479D01*
X153488179Y-86739874D01*
X153464115Y-86733808D01*
X153439915Y-86729356D01*
X153415616Y-86726587D01*
X153391254Y-86725574D01*
X153366865Y-86726388D01*
X153342486Y-86729101D01*
X153318153Y-86733785D01*
X153293902Y-86740512D01*
X153269770Y-86749353D01*
X153253840Y-86756838D01*
X153238786Y-86764899D01*
X153224601Y-86773519D01*
X153211278Y-86782684D01*
X153198809Y-86792381D01*
X153187188Y-86802594D01*
X153176407Y-86813309D01*
X153166459Y-86824511D01*
X153157336Y-86836186D01*
X153149031Y-86848320D01*
X153141538Y-86860897D01*
X153134848Y-86873903D01*
X153128955Y-86887324D01*
X153123851Y-86901146D01*
X153119529Y-86915353D01*
X153115981Y-86929931D01*
X153113201Y-86944865D01*
X153111181Y-86960142D01*
X153109914Y-86975746D01*
X153109392Y-86991663D01*
X153064342Y-86991663D01*
X153064413Y-86988372D01*
X153065632Y-86970671D01*
X153067685Y-86953310D01*
X153070576Y-86936306D01*
X153074309Y-86919678D01*
X153078887Y-86903446D01*
X153084313Y-86887628D01*
X153090591Y-86872243D01*
X153097724Y-86857310D01*
X153105715Y-86842848D01*
X153114568Y-86828875D01*
X153124287Y-86815412D01*
X153134874Y-86802476D01*
X153146333Y-86790086D01*
X153158668Y-86778262D01*
X153171881Y-86767022D01*
X153185977Y-86756385D01*
X153200958Y-86746371D01*
X153216828Y-86736997D01*
X153233591Y-86728283D01*
X153251249Y-86720248D01*
X153278087Y-86709500D01*
X153304996Y-86701023D01*
X153331941Y-86694745D01*
X153358886Y-86690596D01*
X153385794Y-86688505D01*
X153412629Y-86688401D01*
X153439354Y-86690214D01*
X153465934Y-86693872D01*
X153492331Y-86699306D01*
X153518510Y-86706444D01*
X153544434Y-86715216D01*
X153570067Y-86725550D01*
X153595373Y-86737377D01*
X153620314Y-86750625D01*
X153644856Y-86765224D01*
X153668960Y-86781102D01*
X153692592Y-86798190D01*
X153715715Y-86816417D01*
X153738293Y-86835711D01*
X153760288Y-86856002D01*
X153802388Y-86899293D01*
X153841725Y-86945723D01*
X153878008Y-86994726D01*
X153910946Y-87045738D01*
X153940248Y-87098191D01*
X153965624Y-87151519D01*
X153974158Y-87171577D01*
X153981898Y-87191552D01*
X153988840Y-87211424D01*
X153994982Y-87231173D01*
X154000319Y-87250779D01*
X154004849Y-87270221D01*
X154008567Y-87289479D01*
X154011472Y-87308533D01*
X154013558Y-87327361D01*
X154014823Y-87345945D01*
X154015264Y-87364263D01*
X154015153Y-87369443D01*
X154014877Y-87382295D01*
X154013659Y-87400022D01*
G37*
X154013659Y-87400022D02*
X154011605Y-87417421D01*
X154008714Y-87434474D01*
X154004981Y-87451159D01*
X154000403Y-87467457D01*
X153994977Y-87483347D01*
X153988699Y-87498809D01*
X153981566Y-87513822D01*
X153973575Y-87528366D01*
X153964722Y-87542421D01*
X153955003Y-87555967D01*
X153944416Y-87568982D01*
X153932957Y-87581447D01*
X153920623Y-87593341D01*
X153907409Y-87604644D01*
X153893314Y-87615336D01*
X153878332Y-87625395D01*
X153862462Y-87634803D01*
X153845700Y-87643539D01*
X153828041Y-87651581D01*
X153801204Y-87662096D01*
X153774294Y-87670370D01*
X153747349Y-87676473D01*
X153720404Y-87680473D01*
X153693496Y-87682441D01*
X153666661Y-87682446D01*
X153639936Y-87680556D01*
X153613357Y-87676841D01*
X153586959Y-87671370D01*
X153560780Y-87664213D01*
X153534856Y-87655439D01*
X153509223Y-87645116D01*
X153483918Y-87633316D01*
X153458976Y-87620106D01*
X153434435Y-87605556D01*
X153410330Y-87589735D01*
X153386698Y-87572713D01*
X153363575Y-87554558D01*
X153340998Y-87535341D01*
X153319002Y-87515130D01*
X153276902Y-87472004D01*
X153237565Y-87425735D01*
X153201283Y-87376877D01*
X153168345Y-87325984D01*
X153139042Y-87273611D01*
X153113666Y-87220311D01*
X153105132Y-87200021D01*
X153097392Y-87179842D01*
X153090450Y-87159795D01*
X153084308Y-87139897D01*
X153078971Y-87120168D01*
X153074441Y-87100626D01*
X153070723Y-87081291D01*
X153067819Y-87062181D01*
X153065732Y-87043315D01*
X153064467Y-87024712D01*
X153064026Y-87006392D01*
X153064342Y-86991663D01*
X153109392Y-86991663D01*
X153110557Y-87024378D01*
X153114617Y-87058171D01*
X153121514Y-87092924D01*
X153131189Y-87128523D01*
X153143586Y-87164850D01*
X153158645Y-87201789D01*
X153183105Y-87249473D01*
X153210704Y-87296890D01*
X153241233Y-87343461D01*
X153274483Y-87388610D01*
X153310244Y-87431759D01*
X153348308Y-87472331D01*
X153388465Y-87509748D01*
X153409262Y-87527093D01*
X153430505Y-87543433D01*
X153452166Y-87558695D01*
X153474219Y-87572808D01*
X153496639Y-87585699D01*
X153519398Y-87597295D01*
X153542472Y-87607526D01*
X153565834Y-87616318D01*
X153589457Y-87623600D01*
X153613315Y-87629299D01*
X153637383Y-87633343D01*
X153661634Y-87635660D01*
X153686042Y-87636177D01*
X153710581Y-87634823D01*
X153735224Y-87631526D01*
X153759946Y-87626212D01*
X153784720Y-87618811D01*
X153809520Y-87609249D01*
X153825451Y-87602004D01*
X153840505Y-87594169D01*
X153854690Y-87585759D01*
X153868013Y-87576790D01*
X153880481Y-87567277D01*
X153892102Y-87557234D01*
X153902884Y-87546677D01*
X153912832Y-87535620D01*
X153921955Y-87524078D01*
X153930259Y-87512067D01*
X153937753Y-87499602D01*
X153944442Y-87486697D01*
X153950336Y-87473368D01*
X153955440Y-87459630D01*
X153959762Y-87445497D01*
X153963309Y-87430985D01*
X153966090Y-87416109D01*
X153968110Y-87400883D01*
X153969377Y-87385323D01*
X153969898Y-87369443D01*
X153968734Y-87336787D01*
X153964674Y-87303034D01*
X153957777Y-87268304D01*
X153948101Y-87232718D01*
X153935704Y-87196396D01*
X153920645Y-87159457D01*
X153897842Y-87112703D01*
X153871299Y-87066088D01*
X153841307Y-87020186D01*
X153808156Y-86975571D01*
X153772137Y-86932817D01*
X153733540Y-86892496D01*
X153692657Y-86855183D01*
X153649778Y-86821451D01*
X153627681Y-86806108D01*
X153605194Y-86791874D01*
X153582353Y-86778823D01*
X153559194Y-86767026D01*
X153535755Y-86756554D01*
X153512071Y-86747479D01*
X153488179Y-86739874D01*
X153464115Y-86733808D01*
X153439915Y-86729356D01*
X153415616Y-86726587D01*
X153391254Y-86725574D01*
X153366865Y-86726388D01*
X153342486Y-86729101D01*
X153318153Y-86733785D01*
X153293902Y-86740512D01*
X153269770Y-86749353D01*
X153253840Y-86756838D01*
X153238786Y-86764899D01*
X153224601Y-86773519D01*
X153211278Y-86782684D01*
X153198809Y-86792381D01*
X153187188Y-86802594D01*
X153176407Y-86813309D01*
X153166459Y-86824511D01*
X153157336Y-86836186D01*
X153149031Y-86848320D01*
X153141538Y-86860897D01*
X153134848Y-86873903D01*
X153128955Y-86887324D01*
X153123851Y-86901146D01*
X153119529Y-86915353D01*
X153115981Y-86929931D01*
X153113201Y-86944865D01*
X153111181Y-86960142D01*
X153109914Y-86975746D01*
X153109392Y-86991663D01*
X153064342Y-86991663D01*
X153064413Y-86988372D01*
X153065632Y-86970671D01*
X153067685Y-86953310D01*
X153070576Y-86936306D01*
X153074309Y-86919678D01*
X153078887Y-86903446D01*
X153084313Y-86887628D01*
X153090591Y-86872243D01*
X153097724Y-86857310D01*
X153105715Y-86842848D01*
X153114568Y-86828875D01*
X153124287Y-86815412D01*
X153134874Y-86802476D01*
X153146333Y-86790086D01*
X153158668Y-86778262D01*
X153171881Y-86767022D01*
X153185977Y-86756385D01*
X153200958Y-86746371D01*
X153216828Y-86736997D01*
X153233591Y-86728283D01*
X153251249Y-86720248D01*
X153278087Y-86709500D01*
X153304996Y-86701023D01*
X153331941Y-86694745D01*
X153358886Y-86690596D01*
X153385794Y-86688505D01*
X153412629Y-86688401D01*
X153439354Y-86690214D01*
X153465934Y-86693872D01*
X153492331Y-86699306D01*
X153518510Y-86706444D01*
X153544434Y-86715216D01*
X153570067Y-86725550D01*
X153595373Y-86737377D01*
X153620314Y-86750625D01*
X153644856Y-86765224D01*
X153668960Y-86781102D01*
X153692592Y-86798190D01*
X153715715Y-86816417D01*
X153738293Y-86835711D01*
X153760288Y-86856002D01*
X153802388Y-86899293D01*
X153841725Y-86945723D01*
X153878008Y-86994726D01*
X153910946Y-87045738D01*
X153940248Y-87098191D01*
X153965624Y-87151519D01*
X153974158Y-87171577D01*
X153981898Y-87191552D01*
X153988840Y-87211424D01*
X153994982Y-87231173D01*
X154000319Y-87250779D01*
X154004849Y-87270221D01*
X154008567Y-87289479D01*
X154011472Y-87308533D01*
X154013558Y-87327361D01*
X154014823Y-87345945D01*
X154015264Y-87364263D01*
X154015153Y-87369443D01*
X154014877Y-87382295D01*
X154013659Y-87400022D01*
G36*
X143716633Y-83150674D02*
G01*
X143730683Y-83155969D01*
X143744584Y-83161610D01*
X143745716Y-83162103D01*
X143740483Y-83174359D01*
X143727655Y-83202700D01*
X143714232Y-83230741D01*
X143700218Y-83258472D01*
X143685620Y-83285884D01*
X143670444Y-83312968D01*
X143654695Y-83339714D01*
X143638379Y-83366115D01*
X143621502Y-83392160D01*
X143604069Y-83417841D01*
X143586086Y-83443148D01*
X143567560Y-83468073D01*
X143548494Y-83492607D01*
X143528896Y-83516740D01*
X143508771Y-83540463D01*
X143488125Y-83563768D01*
X143466958Y-83518790D01*
X143486603Y-83497625D01*
X143505711Y-83476014D01*
X143524274Y-83453967D01*
X143542287Y-83431494D01*
X143559743Y-83408606D01*
X143576634Y-83385314D01*
X143592954Y-83361629D01*
X143608696Y-83337560D01*
X143623854Y-83313120D01*
X143638420Y-83288317D01*
X143652389Y-83263163D01*
X143665752Y-83237669D01*
X143678503Y-83211845D01*
X143690637Y-83185701D01*
X143702144Y-83159249D01*
X143706996Y-83147316D01*
X143716633Y-83150674D01*
G37*
X143716633Y-83150674D02*
X143730683Y-83155969D01*
X143744584Y-83161610D01*
X143745716Y-83162103D01*
X143740483Y-83174359D01*
X143727655Y-83202700D01*
X143714232Y-83230741D01*
X143700218Y-83258472D01*
X143685620Y-83285884D01*
X143670444Y-83312968D01*
X143654695Y-83339714D01*
X143638379Y-83366115D01*
X143621502Y-83392160D01*
X143604069Y-83417841D01*
X143586086Y-83443148D01*
X143567560Y-83468073D01*
X143548494Y-83492607D01*
X143528896Y-83516740D01*
X143508771Y-83540463D01*
X143488125Y-83563768D01*
X143466958Y-83518790D01*
X143486603Y-83497625D01*
X143505711Y-83476014D01*
X143524274Y-83453967D01*
X143542287Y-83431494D01*
X143559743Y-83408606D01*
X143576634Y-83385314D01*
X143592954Y-83361629D01*
X143608696Y-83337560D01*
X143623854Y-83313120D01*
X143638420Y-83288317D01*
X143652389Y-83263163D01*
X143665752Y-83237669D01*
X143678503Y-83211845D01*
X143690637Y-83185701D01*
X143702144Y-83159249D01*
X143706996Y-83147316D01*
X143716633Y-83150674D01*
G36*
X151256291Y-72522707D02*
G01*
X151254718Y-72544323D01*
X151252485Y-72565502D01*
X151249597Y-72586225D01*
X151246059Y-72606475D01*
X151241878Y-72626232D01*
X151237060Y-72645479D01*
X151231609Y-72664197D01*
X151225533Y-72682367D01*
X151218837Y-72699971D01*
X151211526Y-72716991D01*
X151203607Y-72733409D01*
X151195086Y-72749205D01*
X151185967Y-72764362D01*
X151176257Y-72778861D01*
X151165963Y-72792684D01*
X151155088Y-72805811D01*
X151143640Y-72818226D01*
X151131625Y-72829909D01*
X151119047Y-72840843D01*
X151105913Y-72851008D01*
X151092229Y-72860386D01*
X151078000Y-72868959D01*
X151063232Y-72876708D01*
X151047932Y-72883615D01*
X151032105Y-72889662D01*
X151015756Y-72894831D01*
X150998892Y-72899101D01*
X150981518Y-72902457D01*
X150963640Y-72904878D01*
X150945264Y-72906347D01*
X150926396Y-72906845D01*
X150907042Y-72906353D01*
X150878485Y-72903576D01*
X150850861Y-72898768D01*
X150824169Y-72892007D01*
X150798413Y-72883373D01*
X150773592Y-72872941D01*
X150749708Y-72860792D01*
X150726764Y-72847002D01*
X150704759Y-72831650D01*
X150683697Y-72814813D01*
X150663578Y-72796570D01*
X150644403Y-72776998D01*
X150626175Y-72756176D01*
X150608894Y-72734182D01*
X150592563Y-72711093D01*
X150562753Y-72661944D01*
X150536756Y-72609354D01*
X150514585Y-72553946D01*
X150496251Y-72496344D01*
X150481765Y-72437172D01*
X150471140Y-72377055D01*
X150464387Y-72316617D01*
X150461704Y-72260394D01*
X150508926Y-72260394D01*
X150509608Y-72287254D01*
X150511158Y-72314400D01*
X150513577Y-72341751D01*
X150516864Y-72369227D01*
X150521018Y-72396748D01*
X150526041Y-72424233D01*
X150531932Y-72451601D01*
X150538692Y-72478773D01*
X150546319Y-72505668D01*
X150554815Y-72532205D01*
X150564179Y-72558305D01*
X150574411Y-72583886D01*
X150585511Y-72608868D01*
X150597479Y-72633171D01*
X150610315Y-72656714D01*
X150624020Y-72679417D01*
X150638593Y-72701200D01*
X150654034Y-72721982D01*
X150670343Y-72741682D01*
X150687520Y-72760221D01*
X150705565Y-72777518D01*
X150724479Y-72793492D01*
X150744261Y-72808063D01*
X150764911Y-72821150D01*
X150786429Y-72832674D01*
X150808815Y-72842553D01*
X150832069Y-72850708D01*
X150856192Y-72857058D01*
X150881183Y-72861522D01*
X150907042Y-72864020D01*
X150924397Y-72864557D01*
X150941241Y-72864196D01*
X150957573Y-72862950D01*
X150973394Y-72860837D01*
X150988703Y-72857870D01*
X151003501Y-72854067D01*
X151017787Y-72849442D01*
X151031561Y-72844011D01*
X151044824Y-72837789D01*
X151057575Y-72830792D01*
X151069814Y-72823035D01*
X151081542Y-72814534D01*
X151092759Y-72805305D01*
X151103464Y-72795363D01*
X151113657Y-72784722D01*
X151123338Y-72773400D01*
X151132508Y-72761411D01*
X151141167Y-72748771D01*
X151149314Y-72735495D01*
X151156949Y-72721600D01*
X151170684Y-72692010D01*
X151182374Y-72660125D01*
X151192016Y-72626071D01*
X151199613Y-72589969D01*
X151205163Y-72551946D01*
X151208666Y-72512124D01*
X151209721Y-72486077D01*
X151209907Y-72459583D01*
X151209224Y-72432723D01*
X151207674Y-72405578D01*
X151205256Y-72378226D01*
X151201969Y-72350750D01*
X151197814Y-72323229D01*
X151192791Y-72295744D01*
X151186900Y-72268376D01*
X151180141Y-72241204D01*
X151172513Y-72214309D01*
X151164018Y-72187772D01*
X151154654Y-72161672D01*
X151144422Y-72136091D01*
X151133322Y-72111109D01*
X151121354Y-72086806D01*
X151108517Y-72063263D01*
X151094813Y-72040560D01*
X151080240Y-72018777D01*
X151064799Y-71997995D01*
X151048490Y-71978295D01*
X151031313Y-71959756D01*
X151013267Y-71942459D01*
X150994354Y-71926485D01*
X150974572Y-71911914D01*
X150953922Y-71898827D01*
X150932404Y-71887303D01*
X150910018Y-71877424D01*
X150886764Y-71869269D01*
X150862641Y-71862919D01*
X150837650Y-71858455D01*
X150811791Y-71855957D01*
X150794436Y-71855420D01*
X150777592Y-71855782D01*
X150761260Y-71857027D01*
X150745439Y-71859141D01*
X150730130Y-71862107D01*
X150715332Y-71865910D01*
X150701046Y-71870535D01*
X150687272Y-71875966D01*
X150674009Y-71882188D01*
X150661258Y-71889185D01*
X150649018Y-71896942D01*
X150637290Y-71905443D01*
X150626074Y-71914672D01*
X150615369Y-71924615D01*
X150605176Y-71935255D01*
X150595494Y-71946577D01*
X150586324Y-71958566D01*
X150577666Y-71971206D01*
X150569519Y-71984482D01*
X150561884Y-71998378D01*
X150548148Y-72027967D01*
X150536459Y-72059852D01*
X150526816Y-72093907D01*
X150519220Y-72130008D01*
X150513670Y-72168031D01*
X150510166Y-72207853D01*
X150509112Y-72233900D01*
X150508926Y-72260394D01*
X150461704Y-72260394D01*
X150461517Y-72256480D01*
X150462542Y-72197270D01*
X150464114Y-72175684D01*
X150466347Y-72154592D01*
X150469236Y-72134005D01*
X150472773Y-72113936D01*
X150476954Y-72094399D01*
X150481773Y-72075405D01*
X150487223Y-72056968D01*
X150493299Y-72039099D01*
X150499995Y-72021811D01*
X150507306Y-72005117D01*
X150515225Y-71989030D01*
X150523747Y-71973563D01*
X150532865Y-71958726D01*
X150542575Y-71944535D01*
X150552870Y-71931000D01*
X150563744Y-71918134D01*
X150575192Y-71905951D01*
X150587208Y-71894463D01*
X150599786Y-71883682D01*
X150612919Y-71873620D01*
X150626604Y-71864292D01*
X150640832Y-71855708D01*
X150655600Y-71847882D01*
X150670900Y-71840826D01*
X150686728Y-71834554D01*
X150703077Y-71829077D01*
X150719941Y-71824407D01*
X150737315Y-71820559D01*
X150755193Y-71817544D01*
X150773569Y-71815375D01*
X150792437Y-71814064D01*
X150811791Y-71813624D01*
X150840348Y-71816402D01*
X150867972Y-71821209D01*
X150894664Y-71827970D01*
X150920420Y-71836605D01*
X150945241Y-71847036D01*
X150969125Y-71859185D01*
X150992069Y-71872975D01*
X151014074Y-71888327D01*
X151035136Y-71905164D01*
X151055255Y-71923407D01*
X151074430Y-71942979D01*
X151092658Y-71963801D01*
X151109939Y-71985795D01*
X151126270Y-72008884D01*
X151156080Y-72058033D01*
X151182077Y-72110623D01*
X151204248Y-72166031D01*
X151222582Y-72223633D01*
X151237068Y-72282805D01*
X151247693Y-72342922D01*
X151254446Y-72403361D01*
X151257129Y-72459583D01*
X151257316Y-72463497D01*
X151256291Y-72522707D01*
G37*
X151256291Y-72522707D02*
X151254718Y-72544323D01*
X151252485Y-72565502D01*
X151249597Y-72586225D01*
X151246059Y-72606475D01*
X151241878Y-72626232D01*
X151237060Y-72645479D01*
X151231609Y-72664197D01*
X151225533Y-72682367D01*
X151218837Y-72699971D01*
X151211526Y-72716991D01*
X151203607Y-72733409D01*
X151195086Y-72749205D01*
X151185967Y-72764362D01*
X151176257Y-72778861D01*
X151165963Y-72792684D01*
X151155088Y-72805811D01*
X151143640Y-72818226D01*
X151131625Y-72829909D01*
X151119047Y-72840843D01*
X151105913Y-72851008D01*
X151092229Y-72860386D01*
X151078000Y-72868959D01*
X151063232Y-72876708D01*
X151047932Y-72883615D01*
X151032105Y-72889662D01*
X151015756Y-72894831D01*
X150998892Y-72899101D01*
X150981518Y-72902457D01*
X150963640Y-72904878D01*
X150945264Y-72906347D01*
X150926396Y-72906845D01*
X150907042Y-72906353D01*
X150878485Y-72903576D01*
X150850861Y-72898768D01*
X150824169Y-72892007D01*
X150798413Y-72883373D01*
X150773592Y-72872941D01*
X150749708Y-72860792D01*
X150726764Y-72847002D01*
X150704759Y-72831650D01*
X150683697Y-72814813D01*
X150663578Y-72796570D01*
X150644403Y-72776998D01*
X150626175Y-72756176D01*
X150608894Y-72734182D01*
X150592563Y-72711093D01*
X150562753Y-72661944D01*
X150536756Y-72609354D01*
X150514585Y-72553946D01*
X150496251Y-72496344D01*
X150481765Y-72437172D01*
X150471140Y-72377055D01*
X150464387Y-72316617D01*
X150461704Y-72260394D01*
X150508926Y-72260394D01*
X150509608Y-72287254D01*
X150511158Y-72314400D01*
X150513577Y-72341751D01*
X150516864Y-72369227D01*
X150521018Y-72396748D01*
X150526041Y-72424233D01*
X150531932Y-72451601D01*
X150538692Y-72478773D01*
X150546319Y-72505668D01*
X150554815Y-72532205D01*
X150564179Y-72558305D01*
X150574411Y-72583886D01*
X150585511Y-72608868D01*
X150597479Y-72633171D01*
X150610315Y-72656714D01*
X150624020Y-72679417D01*
X150638593Y-72701200D01*
X150654034Y-72721982D01*
X150670343Y-72741682D01*
X150687520Y-72760221D01*
X150705565Y-72777518D01*
X150724479Y-72793492D01*
X150744261Y-72808063D01*
X150764911Y-72821150D01*
X150786429Y-72832674D01*
X150808815Y-72842553D01*
X150832069Y-72850708D01*
X150856192Y-72857058D01*
X150881183Y-72861522D01*
X150907042Y-72864020D01*
X150924397Y-72864557D01*
X150941241Y-72864196D01*
X150957573Y-72862950D01*
X150973394Y-72860837D01*
X150988703Y-72857870D01*
X151003501Y-72854067D01*
X151017787Y-72849442D01*
X151031561Y-72844011D01*
X151044824Y-72837789D01*
X151057575Y-72830792D01*
X151069814Y-72823035D01*
X151081542Y-72814534D01*
X151092759Y-72805305D01*
X151103464Y-72795363D01*
X151113657Y-72784722D01*
X151123338Y-72773400D01*
X151132508Y-72761411D01*
X151141167Y-72748771D01*
X151149314Y-72735495D01*
X151156949Y-72721600D01*
X151170684Y-72692010D01*
X151182374Y-72660125D01*
X151192016Y-72626071D01*
X151199613Y-72589969D01*
X151205163Y-72551946D01*
X151208666Y-72512124D01*
X151209721Y-72486077D01*
X151209907Y-72459583D01*
X151209224Y-72432723D01*
X151207674Y-72405578D01*
X151205256Y-72378226D01*
X151201969Y-72350750D01*
X151197814Y-72323229D01*
X151192791Y-72295744D01*
X151186900Y-72268376D01*
X151180141Y-72241204D01*
X151172513Y-72214309D01*
X151164018Y-72187772D01*
X151154654Y-72161672D01*
X151144422Y-72136091D01*
X151133322Y-72111109D01*
X151121354Y-72086806D01*
X151108517Y-72063263D01*
X151094813Y-72040560D01*
X151080240Y-72018777D01*
X151064799Y-71997995D01*
X151048490Y-71978295D01*
X151031313Y-71959756D01*
X151013267Y-71942459D01*
X150994354Y-71926485D01*
X150974572Y-71911914D01*
X150953922Y-71898827D01*
X150932404Y-71887303D01*
X150910018Y-71877424D01*
X150886764Y-71869269D01*
X150862641Y-71862919D01*
X150837650Y-71858455D01*
X150811791Y-71855957D01*
X150794436Y-71855420D01*
X150777592Y-71855782D01*
X150761260Y-71857027D01*
X150745439Y-71859141D01*
X150730130Y-71862107D01*
X150715332Y-71865910D01*
X150701046Y-71870535D01*
X150687272Y-71875966D01*
X150674009Y-71882188D01*
X150661258Y-71889185D01*
X150649018Y-71896942D01*
X150637290Y-71905443D01*
X150626074Y-71914672D01*
X150615369Y-71924615D01*
X150605176Y-71935255D01*
X150595494Y-71946577D01*
X150586324Y-71958566D01*
X150577666Y-71971206D01*
X150569519Y-71984482D01*
X150561884Y-71998378D01*
X150548148Y-72027967D01*
X150536459Y-72059852D01*
X150526816Y-72093907D01*
X150519220Y-72130008D01*
X150513670Y-72168031D01*
X150510166Y-72207853D01*
X150509112Y-72233900D01*
X150508926Y-72260394D01*
X150461704Y-72260394D01*
X150461517Y-72256480D01*
X150462542Y-72197270D01*
X150464114Y-72175684D01*
X150466347Y-72154592D01*
X150469236Y-72134005D01*
X150472773Y-72113936D01*
X150476954Y-72094399D01*
X150481773Y-72075405D01*
X150487223Y-72056968D01*
X150493299Y-72039099D01*
X150499995Y-72021811D01*
X150507306Y-72005117D01*
X150515225Y-71989030D01*
X150523747Y-71973563D01*
X150532865Y-71958726D01*
X150542575Y-71944535D01*
X150552870Y-71931000D01*
X150563744Y-71918134D01*
X150575192Y-71905951D01*
X150587208Y-71894463D01*
X150599786Y-71883682D01*
X150612919Y-71873620D01*
X150626604Y-71864292D01*
X150640832Y-71855708D01*
X150655600Y-71847882D01*
X150670900Y-71840826D01*
X150686728Y-71834554D01*
X150703077Y-71829077D01*
X150719941Y-71824407D01*
X150737315Y-71820559D01*
X150755193Y-71817544D01*
X150773569Y-71815375D01*
X150792437Y-71814064D01*
X150811791Y-71813624D01*
X150840348Y-71816402D01*
X150867972Y-71821209D01*
X150894664Y-71827970D01*
X150920420Y-71836605D01*
X150945241Y-71847036D01*
X150969125Y-71859185D01*
X150992069Y-71872975D01*
X151014074Y-71888327D01*
X151035136Y-71905164D01*
X151055255Y-71923407D01*
X151074430Y-71942979D01*
X151092658Y-71963801D01*
X151109939Y-71985795D01*
X151126270Y-72008884D01*
X151156080Y-72058033D01*
X151182077Y-72110623D01*
X151204248Y-72166031D01*
X151222582Y-72223633D01*
X151237068Y-72282805D01*
X151247693Y-72342922D01*
X151254446Y-72403361D01*
X151257129Y-72459583D01*
X151257316Y-72463497D01*
X151256291Y-72522707D01*
G36*
X144484493Y-84375130D02*
G01*
X144504169Y-84376526D01*
X144523634Y-84378982D01*
X144542852Y-84382477D01*
X144561784Y-84386993D01*
X144580392Y-84392509D01*
X144598639Y-84399007D01*
X144616485Y-84406465D01*
X144633894Y-84414866D01*
X144650826Y-84424189D01*
X144667245Y-84434415D01*
X144683112Y-84445523D01*
X144698388Y-84457495D01*
X144713036Y-84470310D01*
X144727019Y-84483950D01*
X144740297Y-84498394D01*
X144752832Y-84513623D01*
X144763887Y-84529055D01*
X144774167Y-84544926D01*
X144783665Y-84561206D01*
X144792372Y-84577865D01*
X144800281Y-84594875D01*
X144807382Y-84612206D01*
X144813669Y-84629829D01*
X144819132Y-84647715D01*
X144823763Y-84665833D01*
X144827555Y-84684155D01*
X144830498Y-84702652D01*
X144832585Y-84721294D01*
X144833808Y-84740052D01*
X144834158Y-84758897D01*
X144833628Y-84777799D01*
X144832208Y-84796729D01*
X144567624Y-85122165D01*
X144385062Y-84886687D01*
X144411520Y-84852291D01*
X144564979Y-85050728D01*
X144800458Y-84786146D01*
X144801239Y-84770362D01*
X144801261Y-84754624D01*
X144800531Y-84738957D01*
X144799059Y-84723386D01*
X144796851Y-84707937D01*
X144793917Y-84692635D01*
X144790263Y-84677506D01*
X144785900Y-84662575D01*
X144780833Y-84647868D01*
X144775072Y-84633409D01*
X144768625Y-84619225D01*
X144761499Y-84605340D01*
X144753703Y-84591782D01*
X144745244Y-84578573D01*
X144736132Y-84565741D01*
X144726374Y-84553311D01*
X144715119Y-84539433D01*
X144703181Y-84526268D01*
X144690596Y-84513836D01*
X144677396Y-84502153D01*
X144663619Y-84491239D01*
X144649299Y-84481112D01*
X144634471Y-84471790D01*
X144619169Y-84463291D01*
X144603430Y-84455634D01*
X144587288Y-84448836D01*
X144570777Y-84442916D01*
X144553934Y-84437892D01*
X144536794Y-84433783D01*
X144519390Y-84430606D01*
X144501759Y-84428380D01*
X144483934Y-84427124D01*
X144466068Y-84426854D01*
X144448311Y-84427566D01*
X144430700Y-84429245D01*
X144413271Y-84431875D01*
X144396060Y-84435442D01*
X144379105Y-84439930D01*
X144362441Y-84445325D01*
X144346105Y-84451610D01*
X144330134Y-84458771D01*
X144314563Y-84466792D01*
X144299431Y-84475659D01*
X144284772Y-84485357D01*
X144270623Y-84495869D01*
X144257021Y-84507181D01*
X144244003Y-84519278D01*
X144231605Y-84532144D01*
X144192432Y-84565413D01*
X144154617Y-84602460D01*
X144118646Y-84642911D01*
X144085008Y-84686388D01*
X144054192Y-84732516D01*
X144026686Y-84780920D01*
X144002978Y-84831222D01*
X143983557Y-84883048D01*
X143975606Y-84909414D01*
X143968911Y-84936021D01*
X143963531Y-84962820D01*
X143959527Y-84989765D01*
X143956962Y-85016809D01*
X143955896Y-85043904D01*
X143956390Y-85071005D01*
X143958504Y-85098063D01*
X143962301Y-85125032D01*
X143967841Y-85151865D01*
X143975185Y-85178515D01*
X143984394Y-85204935D01*
X143995530Y-85231077D01*
X144008653Y-85256896D01*
X144023824Y-85282343D01*
X144041104Y-85307373D01*
X144051818Y-85319807D01*
X144063274Y-85331358D01*
X144075419Y-85342005D01*
X144088198Y-85351728D01*
X144101557Y-85360510D01*
X144115442Y-85368330D01*
X144129799Y-85375169D01*
X144144573Y-85381008D01*
X144159710Y-85385827D01*
X144175156Y-85389608D01*
X144190857Y-85392330D01*
X144206759Y-85393975D01*
X144222808Y-85394523D01*
X144238949Y-85393955D01*
X144255128Y-85392252D01*
X144271291Y-85389394D01*
X144271291Y-85434373D01*
X144252545Y-85436965D01*
X144233823Y-85438271D01*
X144215183Y-85438312D01*
X144196682Y-85437110D01*
X144178378Y-85434689D01*
X144160331Y-85431069D01*
X144142597Y-85426273D01*
X144125235Y-85420324D01*
X144108304Y-85413242D01*
X144091860Y-85405051D01*
X144075963Y-85395771D01*
X144060671Y-85385426D01*
X144046041Y-85374038D01*
X144032132Y-85361628D01*
X144019002Y-85348218D01*
X144006708Y-85333831D01*
X143987498Y-85307508D01*
X143970509Y-85280664D01*
X143955682Y-85253349D01*
X143942960Y-85225616D01*
X143932285Y-85197517D01*
X143923597Y-85169103D01*
X143916840Y-85140427D01*
X143911954Y-85111540D01*
X143908883Y-85082495D01*
X143907567Y-85053342D01*
X143907949Y-85024134D01*
X143909970Y-84994922D01*
X143913573Y-84965759D01*
X143918698Y-84936696D01*
X143925289Y-84907786D01*
X143933286Y-84879079D01*
X143942633Y-84850628D01*
X143953270Y-84822485D01*
X143965139Y-84794701D01*
X143978183Y-84767329D01*
X143992343Y-84740419D01*
X144007561Y-84714025D01*
X144040939Y-84662989D01*
X144077851Y-84614634D01*
X144117833Y-84569377D01*
X144160420Y-84527631D01*
X144205146Y-84489811D01*
X144205146Y-84489812D01*
X144218956Y-84475728D01*
X144233438Y-84462491D01*
X144248551Y-84450116D01*
X144264256Y-84438620D01*
X144280514Y-84428020D01*
X144297285Y-84418330D01*
X144314529Y-84409568D01*
X144332207Y-84401750D01*
X144350279Y-84394891D01*
X144368706Y-84389009D01*
X144387447Y-84384120D01*
X144406464Y-84380239D01*
X144425717Y-84377384D01*
X144445166Y-84375570D01*
X144464771Y-84374813D01*
X144484493Y-84375130D01*
G37*
X144484493Y-84375130D02*
X144504169Y-84376526D01*
X144523634Y-84378982D01*
X144542852Y-84382477D01*
X144561784Y-84386993D01*
X144580392Y-84392509D01*
X144598639Y-84399007D01*
X144616485Y-84406465D01*
X144633894Y-84414866D01*
X144650826Y-84424189D01*
X144667245Y-84434415D01*
X144683112Y-84445523D01*
X144698388Y-84457495D01*
X144713036Y-84470310D01*
X144727019Y-84483950D01*
X144740297Y-84498394D01*
X144752832Y-84513623D01*
X144763887Y-84529055D01*
X144774167Y-84544926D01*
X144783665Y-84561206D01*
X144792372Y-84577865D01*
X144800281Y-84594875D01*
X144807382Y-84612206D01*
X144813669Y-84629829D01*
X144819132Y-84647715D01*
X144823763Y-84665833D01*
X144827555Y-84684155D01*
X144830498Y-84702652D01*
X144832585Y-84721294D01*
X144833808Y-84740052D01*
X144834158Y-84758897D01*
X144833628Y-84777799D01*
X144832208Y-84796729D01*
X144567624Y-85122165D01*
X144385062Y-84886687D01*
X144411520Y-84852291D01*
X144564979Y-85050728D01*
X144800458Y-84786146D01*
X144801239Y-84770362D01*
X144801261Y-84754624D01*
X144800531Y-84738957D01*
X144799059Y-84723386D01*
X144796851Y-84707937D01*
X144793917Y-84692635D01*
X144790263Y-84677506D01*
X144785900Y-84662575D01*
X144780833Y-84647868D01*
X144775072Y-84633409D01*
X144768625Y-84619225D01*
X144761499Y-84605340D01*
X144753703Y-84591782D01*
X144745244Y-84578573D01*
X144736132Y-84565741D01*
X144726374Y-84553311D01*
X144715119Y-84539433D01*
X144703181Y-84526268D01*
X144690596Y-84513836D01*
X144677396Y-84502153D01*
X144663619Y-84491239D01*
X144649299Y-84481112D01*
X144634471Y-84471790D01*
X144619169Y-84463291D01*
X144603430Y-84455634D01*
X144587288Y-84448836D01*
X144570777Y-84442916D01*
X144553934Y-84437892D01*
X144536794Y-84433783D01*
X144519390Y-84430606D01*
X144501759Y-84428380D01*
X144483934Y-84427124D01*
X144466068Y-84426854D01*
X144448311Y-84427566D01*
X144430700Y-84429245D01*
X144413271Y-84431875D01*
X144396060Y-84435442D01*
X144379105Y-84439930D01*
X144362441Y-84445325D01*
X144346105Y-84451610D01*
X144330134Y-84458771D01*
X144314563Y-84466792D01*
X144299431Y-84475659D01*
X144284772Y-84485357D01*
X144270623Y-84495869D01*
X144257021Y-84507181D01*
X144244003Y-84519278D01*
X144231605Y-84532144D01*
X144192432Y-84565413D01*
X144154617Y-84602460D01*
X144118646Y-84642911D01*
X144085008Y-84686388D01*
X144054192Y-84732516D01*
X144026686Y-84780920D01*
X144002978Y-84831222D01*
X143983557Y-84883048D01*
X143975606Y-84909414D01*
X143968911Y-84936021D01*
X143963531Y-84962820D01*
X143959527Y-84989765D01*
X143956962Y-85016809D01*
X143955896Y-85043904D01*
X143956390Y-85071005D01*
X143958504Y-85098063D01*
X143962301Y-85125032D01*
X143967841Y-85151865D01*
X143975185Y-85178515D01*
X143984394Y-85204935D01*
X143995530Y-85231077D01*
X144008653Y-85256896D01*
X144023824Y-85282343D01*
X144041104Y-85307373D01*
X144051818Y-85319807D01*
X144063274Y-85331358D01*
X144075419Y-85342005D01*
X144088198Y-85351728D01*
X144101557Y-85360510D01*
X144115442Y-85368330D01*
X144129799Y-85375169D01*
X144144573Y-85381008D01*
X144159710Y-85385827D01*
X144175156Y-85389608D01*
X144190857Y-85392330D01*
X144206759Y-85393975D01*
X144222808Y-85394523D01*
X144238949Y-85393955D01*
X144255128Y-85392252D01*
X144271291Y-85389394D01*
X144271291Y-85434373D01*
X144252545Y-85436965D01*
X144233823Y-85438271D01*
X144215183Y-85438312D01*
X144196682Y-85437110D01*
X144178378Y-85434689D01*
X144160331Y-85431069D01*
X144142597Y-85426273D01*
X144125235Y-85420324D01*
X144108304Y-85413242D01*
X144091860Y-85405051D01*
X144075963Y-85395771D01*
X144060671Y-85385426D01*
X144046041Y-85374038D01*
X144032132Y-85361628D01*
X144019002Y-85348218D01*
X144006708Y-85333831D01*
X143987498Y-85307508D01*
X143970509Y-85280664D01*
X143955682Y-85253349D01*
X143942960Y-85225616D01*
X143932285Y-85197517D01*
X143923597Y-85169103D01*
X143916840Y-85140427D01*
X143911954Y-85111540D01*
X143908883Y-85082495D01*
X143907567Y-85053342D01*
X143907949Y-85024134D01*
X143909970Y-84994922D01*
X143913573Y-84965759D01*
X143918698Y-84936696D01*
X143925289Y-84907786D01*
X143933286Y-84879079D01*
X143942633Y-84850628D01*
X143953270Y-84822485D01*
X143965139Y-84794701D01*
X143978183Y-84767329D01*
X143992343Y-84740419D01*
X144007561Y-84714025D01*
X144040939Y-84662989D01*
X144077851Y-84614634D01*
X144117833Y-84569377D01*
X144160420Y-84527631D01*
X144205146Y-84489811D01*
X144205146Y-84489812D01*
X144218956Y-84475728D01*
X144233438Y-84462491D01*
X144248551Y-84450116D01*
X144264256Y-84438620D01*
X144280514Y-84428020D01*
X144297285Y-84418330D01*
X144314529Y-84409568D01*
X144332207Y-84401750D01*
X144350279Y-84394891D01*
X144368706Y-84389009D01*
X144387447Y-84384120D01*
X144406464Y-84380239D01*
X144425717Y-84377384D01*
X144445166Y-84375570D01*
X144464771Y-84374813D01*
X144484493Y-84375130D01*
G36*
X157638041Y-80677166D02*
G01*
X157638041Y-80626895D01*
X157997895Y-80428457D01*
X158021687Y-80428457D01*
X158064020Y-80417874D01*
X158064020Y-80391992D01*
X158280978Y-80272353D01*
X158372218Y-80225058D01*
X158461226Y-80177764D01*
X158643457Y-80079207D01*
X158265103Y-80028936D01*
X158064020Y-79999240D01*
X158064020Y-79973374D01*
X158021687Y-79973374D01*
X158021687Y-79992988D01*
X158064020Y-79999240D01*
X158064020Y-80391992D01*
X158021687Y-80415337D01*
X158021687Y-80428457D01*
X157997895Y-80428457D01*
X158021687Y-80415337D01*
X158021687Y-79992988D01*
X157638041Y-79936331D01*
X157638041Y-79888707D01*
X158696374Y-80047456D01*
X158696374Y-80095082D01*
X157638041Y-80677166D01*
G37*
X157638041Y-80677166D02*
X157638041Y-80626895D01*
X157997895Y-80428457D01*
X158021687Y-80428457D01*
X158064020Y-80417874D01*
X158064020Y-80391992D01*
X158280978Y-80272353D01*
X158372218Y-80225058D01*
X158461226Y-80177764D01*
X158643457Y-80079207D01*
X158265103Y-80028936D01*
X158064020Y-79999240D01*
X158064020Y-79973374D01*
X158021687Y-79973374D01*
X158021687Y-79992988D01*
X158064020Y-79999240D01*
X158064020Y-80391992D01*
X158021687Y-80415337D01*
X158021687Y-80428457D01*
X157997895Y-80428457D01*
X158021687Y-80415337D01*
X158021687Y-79992988D01*
X157638041Y-79936331D01*
X157638041Y-79888707D01*
X158696374Y-80047456D01*
X158696374Y-80095082D01*
X157638041Y-80677166D01*
G36*
X143173271Y-79642645D02*
G01*
X143240163Y-78976295D01*
X143244710Y-78973249D01*
X143242063Y-78957374D01*
X143240163Y-78976295D01*
X142186376Y-79682332D01*
X142157271Y-79682332D01*
X142226064Y-78999707D01*
X142268397Y-78999707D01*
X142205957Y-79616609D01*
X142178439Y-79634707D01*
X142202251Y-79653228D01*
X142205957Y-79616609D01*
X143260584Y-78922978D01*
X143287042Y-78922978D01*
X143282052Y-78973249D01*
X143215605Y-79642645D01*
X143173271Y-79642645D01*
G37*
X143173271Y-79642645D02*
X143240163Y-78976295D01*
X143244710Y-78973249D01*
X143242063Y-78957374D01*
X143240163Y-78976295D01*
X142186376Y-79682332D01*
X142157271Y-79682332D01*
X142226064Y-78999707D01*
X142268397Y-78999707D01*
X142205957Y-79616609D01*
X142178439Y-79634707D01*
X142202251Y-79653228D01*
X142205957Y-79616609D01*
X143260584Y-78922978D01*
X143287042Y-78922978D01*
X143282052Y-78973249D01*
X143215605Y-79642645D01*
X143173271Y-79642645D01*
G36*
X143786014Y-83009613D02*
G01*
X143783239Y-83032737D01*
X143779353Y-83055740D01*
X143774358Y-83078581D01*
X143768252Y-83101219D01*
X143761697Y-83121560D01*
X143747992Y-83116246D01*
X143733227Y-83110956D01*
X143721615Y-83107130D01*
X143719942Y-83112709D01*
X143713020Y-83132499D01*
X143706996Y-83147316D01*
X143702437Y-83145728D01*
X143662123Y-83132238D01*
X143621399Y-83120546D01*
X143580322Y-83110653D01*
X143538951Y-83102559D01*
X143497346Y-83096264D01*
X143455565Y-83091767D01*
X143413666Y-83089069D01*
X143371709Y-83088170D01*
X143329751Y-83089069D01*
X143287853Y-83091767D01*
X143246071Y-83096264D01*
X143245601Y-83096335D01*
X143242392Y-83114308D01*
X143230584Y-83179959D01*
X143217314Y-83244320D01*
X143201215Y-83306069D01*
X143191677Y-83335551D01*
X143180918Y-83363884D01*
X143168769Y-83390903D01*
X143155056Y-83416444D01*
X143139611Y-83440340D01*
X143122261Y-83462426D01*
X143102835Y-83482538D01*
X143081163Y-83500510D01*
X143057074Y-83516176D01*
X143030396Y-83529373D01*
X143024020Y-83532455D01*
X143017520Y-83535172D01*
X143010912Y-83537521D01*
X143004210Y-83539503D01*
X142997430Y-83541117D01*
X142990587Y-83542362D01*
X142983697Y-83543237D01*
X142976774Y-83543742D01*
X142969835Y-83543876D01*
X142962893Y-83543638D01*
X142955965Y-83543028D01*
X142949065Y-83542044D01*
X142942210Y-83540687D01*
X142935413Y-83538955D01*
X142928691Y-83536848D01*
X142922058Y-83534365D01*
X142915571Y-83531524D01*
X142909281Y-83528351D01*
X142903200Y-83524857D01*
X142897337Y-83521053D01*
X142891703Y-83516950D01*
X142886309Y-83512560D01*
X142881164Y-83507894D01*
X142876280Y-83502962D01*
X142871667Y-83497776D01*
X142867335Y-83492346D01*
X142863294Y-83486685D01*
X142859556Y-83480803D01*
X142856130Y-83474712D01*
X142853027Y-83468422D01*
X142850258Y-83461944D01*
X142847833Y-83455290D01*
X142843236Y-83442066D01*
X142839362Y-83428684D01*
X142836209Y-83415173D01*
X142833777Y-83401561D01*
X142832063Y-83387877D01*
X142831065Y-83374148D01*
X142830819Y-83362169D01*
X142875637Y-83362169D01*
X142875792Y-83373352D01*
X142876498Y-83384533D01*
X142877756Y-83395692D01*
X142879571Y-83406809D01*
X142881943Y-83417862D01*
X142884875Y-83428832D01*
X142887102Y-83433612D01*
X142889570Y-83438241D01*
X142892270Y-83442713D01*
X142895194Y-83447020D01*
X142898334Y-83451154D01*
X142901683Y-83455108D01*
X142905230Y-83458874D01*
X142908970Y-83462446D01*
X142912892Y-83465815D01*
X142916990Y-83468975D01*
X142921255Y-83471917D01*
X142925678Y-83474635D01*
X142930252Y-83477120D01*
X142934968Y-83479367D01*
X142939818Y-83481366D01*
X142944794Y-83483111D01*
X142949856Y-83484586D01*
X142954964Y-83485780D01*
X142960107Y-83486696D01*
X142965273Y-83487335D01*
X142970452Y-83487697D01*
X142975632Y-83487784D01*
X142980803Y-83487597D01*
X142985954Y-83487138D01*
X142991073Y-83486408D01*
X142996150Y-83485408D01*
X143001173Y-83484139D01*
X143006132Y-83482603D01*
X143011016Y-83480801D01*
X143015813Y-83478734D01*
X143020513Y-83476404D01*
X143025105Y-83473811D01*
X143048636Y-83461590D01*
X143069737Y-83446866D01*
X143088583Y-83429798D01*
X143105348Y-83410549D01*
X143120205Y-83389281D01*
X143133330Y-83366155D01*
X143144897Y-83341334D01*
X143155081Y-83314979D01*
X143171994Y-83258314D01*
X143185466Y-83197456D01*
X143201689Y-83103102D01*
X143204466Y-83102559D01*
X143245601Y-83096335D01*
X143252740Y-83056349D01*
X143285624Y-83053014D01*
X143329300Y-83050362D01*
X143373031Y-83049478D01*
X143416761Y-83050362D01*
X143460437Y-83053014D01*
X143504004Y-83057433D01*
X143547409Y-83063619D01*
X143590596Y-83071573D01*
X143633512Y-83081295D01*
X143676102Y-83092785D01*
X143718312Y-83106042D01*
X143721615Y-83107130D01*
X143725941Y-83092699D01*
X143731017Y-83072501D01*
X143735171Y-83052145D01*
X143738401Y-83031664D01*
X143740708Y-83011088D01*
X143742093Y-82990450D01*
X143742554Y-82969780D01*
X143742093Y-82949111D01*
X143740708Y-82928472D01*
X143738401Y-82907897D01*
X143735171Y-82887416D01*
X143731017Y-82867060D01*
X143725941Y-82846861D01*
X143719942Y-82826851D01*
X143713020Y-82807061D01*
X143709888Y-82797119D01*
X143706209Y-82787432D01*
X143702000Y-82778020D01*
X143697279Y-82768900D01*
X143692061Y-82760092D01*
X143686365Y-82751613D01*
X143680206Y-82743484D01*
X143673601Y-82735722D01*
X143666568Y-82728346D01*
X143659123Y-82721375D01*
X143651284Y-82714827D01*
X143643066Y-82708722D01*
X143634486Y-82703077D01*
X143625562Y-82697912D01*
X143616311Y-82693246D01*
X143606749Y-82689096D01*
X143596962Y-82685506D01*
X143587045Y-82682505D01*
X143577021Y-82680091D01*
X143566915Y-82678262D01*
X143556754Y-82677015D01*
X143546561Y-82676350D01*
X143536362Y-82676263D01*
X143526182Y-82676754D01*
X143516046Y-82677820D01*
X143505979Y-82679459D01*
X143496007Y-82681670D01*
X143486154Y-82684450D01*
X143476445Y-82687798D01*
X143466906Y-82691711D01*
X143457562Y-82696188D01*
X143448437Y-82701227D01*
X143422480Y-82714183D01*
X143399064Y-82729625D01*
X143378020Y-82747388D01*
X143359176Y-82767306D01*
X143342361Y-82789214D01*
X143327403Y-82812947D01*
X143314133Y-82838340D01*
X143302378Y-82865227D01*
X143291969Y-82893444D01*
X143282733Y-82922825D01*
X143267099Y-82984419D01*
X143254108Y-83048687D01*
X143252740Y-83056349D01*
X143242057Y-83057433D01*
X143208747Y-83062180D01*
X143207667Y-83068337D01*
X143201689Y-83103102D01*
X143163096Y-83110653D01*
X143122019Y-83120546D01*
X143081294Y-83132238D01*
X143040980Y-83145728D01*
X143030138Y-83149102D01*
X143019525Y-83152995D01*
X143009155Y-83157393D01*
X142999046Y-83162284D01*
X142989214Y-83167654D01*
X142979674Y-83173492D01*
X142970443Y-83179783D01*
X142961537Y-83186516D01*
X142952972Y-83193678D01*
X142944763Y-83201256D01*
X142936928Y-83209236D01*
X142929481Y-83217607D01*
X142922440Y-83226355D01*
X142915820Y-83235468D01*
X142909638Y-83244933D01*
X142903909Y-83254737D01*
X142898676Y-83264813D01*
X142893971Y-83275093D01*
X142889797Y-83285555D01*
X142886157Y-83296178D01*
X142883052Y-83306942D01*
X142880485Y-83317828D01*
X142878458Y-83328814D01*
X142876972Y-83339879D01*
X142876032Y-83351005D01*
X142875637Y-83362169D01*
X142830819Y-83362169D01*
X142830783Y-83360404D01*
X142831214Y-83346673D01*
X142832358Y-83332982D01*
X142834211Y-83319360D01*
X142836773Y-83305836D01*
X142840042Y-83292438D01*
X142844016Y-83279195D01*
X142848694Y-83266133D01*
X142854075Y-83253283D01*
X142860155Y-83240672D01*
X142866894Y-83228399D01*
X142874233Y-83216558D01*
X142882153Y-83205167D01*
X142890629Y-83194242D01*
X142899640Y-83183802D01*
X142909164Y-83173865D01*
X142919179Y-83164447D01*
X142929663Y-83155569D01*
X142940593Y-83147246D01*
X142951948Y-83139496D01*
X142963705Y-83132338D01*
X142975842Y-83125789D01*
X142988337Y-83119868D01*
X143001168Y-83114590D01*
X143014313Y-83109976D01*
X143027749Y-83106042D01*
X143069959Y-83092785D01*
X143112549Y-83081295D01*
X143155465Y-83071573D01*
X143198653Y-83063619D01*
X143208747Y-83062180D01*
X143219185Y-83002666D01*
X143232844Y-82937978D01*
X143250036Y-82875570D01*
X143260394Y-82845625D01*
X143272159Y-82816735D01*
X143285505Y-82789062D01*
X143300607Y-82762768D01*
X143317639Y-82738015D01*
X143336775Y-82714963D01*
X143358191Y-82693777D01*
X143382060Y-82674616D01*
X143408556Y-82657643D01*
X143437855Y-82643019D01*
X143449067Y-82637492D01*
X143460508Y-82632638D01*
X143472149Y-82628458D01*
X143483961Y-82624952D01*
X143495915Y-82622122D01*
X143507982Y-82619970D01*
X143520133Y-82618496D01*
X143532338Y-82617700D01*
X143544568Y-82617585D01*
X143556795Y-82618152D01*
X143568988Y-82619401D01*
X143581120Y-82621334D01*
X143593160Y-82623951D01*
X143605080Y-82627254D01*
X143616851Y-82631243D01*
X143628443Y-82635921D01*
X143639750Y-82641250D01*
X143650674Y-82647177D01*
X143661196Y-82653680D01*
X143671296Y-82660737D01*
X143680955Y-82668327D01*
X143690155Y-82676426D01*
X143698877Y-82685014D01*
X143707101Y-82694067D01*
X143714809Y-82703563D01*
X143721982Y-82713481D01*
X143728600Y-82723798D01*
X143734644Y-82734493D01*
X143740096Y-82745542D01*
X143744937Y-82756925D01*
X143749148Y-82768618D01*
X143752708Y-82780600D01*
X143761035Y-82802711D01*
X143768251Y-82825106D01*
X143774357Y-82847744D01*
X143779353Y-82870585D01*
X143783239Y-82893588D01*
X143786014Y-82916712D01*
X143787680Y-82939917D01*
X143788235Y-82963163D01*
X143788077Y-82969780D01*
X143787680Y-82986408D01*
X143786014Y-83009613D01*
G37*
X143786014Y-83009613D02*
X143783239Y-83032737D01*
X143779353Y-83055740D01*
X143774358Y-83078581D01*
X143768252Y-83101219D01*
X143761697Y-83121560D01*
X143747992Y-83116246D01*
X143733227Y-83110956D01*
X143721615Y-83107130D01*
X143719942Y-83112709D01*
X143713020Y-83132499D01*
X143706996Y-83147316D01*
X143702437Y-83145728D01*
X143662123Y-83132238D01*
X143621399Y-83120546D01*
X143580322Y-83110653D01*
X143538951Y-83102559D01*
X143497346Y-83096264D01*
X143455565Y-83091767D01*
X143413666Y-83089069D01*
X143371709Y-83088170D01*
X143329751Y-83089069D01*
X143287853Y-83091767D01*
X143246071Y-83096264D01*
X143245601Y-83096335D01*
X143242392Y-83114308D01*
X143230584Y-83179959D01*
X143217314Y-83244320D01*
X143201215Y-83306069D01*
X143191677Y-83335551D01*
X143180918Y-83363884D01*
X143168769Y-83390903D01*
X143155056Y-83416444D01*
X143139611Y-83440340D01*
X143122261Y-83462426D01*
X143102835Y-83482538D01*
X143081163Y-83500510D01*
X143057074Y-83516176D01*
X143030396Y-83529373D01*
X143024020Y-83532455D01*
X143017520Y-83535172D01*
X143010912Y-83537521D01*
X143004210Y-83539503D01*
X142997430Y-83541117D01*
X142990587Y-83542362D01*
X142983697Y-83543237D01*
X142976774Y-83543742D01*
X142969835Y-83543876D01*
X142962893Y-83543638D01*
X142955965Y-83543028D01*
X142949065Y-83542044D01*
X142942210Y-83540687D01*
X142935413Y-83538955D01*
X142928691Y-83536848D01*
X142922058Y-83534365D01*
X142915571Y-83531524D01*
X142909281Y-83528351D01*
X142903200Y-83524857D01*
X142897337Y-83521053D01*
X142891703Y-83516950D01*
X142886309Y-83512560D01*
X142881164Y-83507894D01*
X142876280Y-83502962D01*
X142871667Y-83497776D01*
X142867335Y-83492346D01*
X142863294Y-83486685D01*
X142859556Y-83480803D01*
X142856130Y-83474712D01*
X142853027Y-83468422D01*
X142850258Y-83461944D01*
X142847833Y-83455290D01*
X142843236Y-83442066D01*
X142839362Y-83428684D01*
X142836209Y-83415173D01*
X142833777Y-83401561D01*
X142832063Y-83387877D01*
X142831065Y-83374148D01*
X142830819Y-83362169D01*
X142875637Y-83362169D01*
X142875792Y-83373352D01*
X142876498Y-83384533D01*
X142877756Y-83395692D01*
X142879571Y-83406809D01*
X142881943Y-83417862D01*
X142884875Y-83428832D01*
X142887102Y-83433612D01*
X142889570Y-83438241D01*
X142892270Y-83442713D01*
X142895194Y-83447020D01*
X142898334Y-83451154D01*
X142901683Y-83455108D01*
X142905230Y-83458874D01*
X142908970Y-83462446D01*
X142912892Y-83465815D01*
X142916990Y-83468975D01*
X142921255Y-83471917D01*
X142925678Y-83474635D01*
X142930252Y-83477120D01*
X142934968Y-83479367D01*
X142939818Y-83481366D01*
X142944794Y-83483111D01*
X142949856Y-83484586D01*
X142954964Y-83485780D01*
X142960107Y-83486696D01*
X142965273Y-83487335D01*
X142970452Y-83487697D01*
X142975632Y-83487784D01*
X142980803Y-83487597D01*
X142985954Y-83487138D01*
X142991073Y-83486408D01*
X142996150Y-83485408D01*
X143001173Y-83484139D01*
X143006132Y-83482603D01*
X143011016Y-83480801D01*
X143015813Y-83478734D01*
X143020513Y-83476404D01*
X143025105Y-83473811D01*
X143048636Y-83461590D01*
X143069737Y-83446866D01*
X143088583Y-83429798D01*
X143105348Y-83410549D01*
X143120205Y-83389281D01*
X143133330Y-83366155D01*
X143144897Y-83341334D01*
X143155081Y-83314979D01*
X143171994Y-83258314D01*
X143185466Y-83197456D01*
X143201689Y-83103102D01*
X143204466Y-83102559D01*
X143245601Y-83096335D01*
X143252740Y-83056349D01*
X143285624Y-83053014D01*
X143329300Y-83050362D01*
X143373031Y-83049478D01*
X143416761Y-83050362D01*
X143460437Y-83053014D01*
X143504004Y-83057433D01*
X143547409Y-83063619D01*
X143590596Y-83071573D01*
X143633512Y-83081295D01*
X143676102Y-83092785D01*
X143718312Y-83106042D01*
X143721615Y-83107130D01*
X143725941Y-83092699D01*
X143731017Y-83072501D01*
X143735171Y-83052145D01*
X143738401Y-83031664D01*
X143740708Y-83011088D01*
X143742093Y-82990450D01*
X143742554Y-82969780D01*
X143742093Y-82949111D01*
X143740708Y-82928472D01*
X143738401Y-82907897D01*
X143735171Y-82887416D01*
X143731017Y-82867060D01*
X143725941Y-82846861D01*
X143719942Y-82826851D01*
X143713020Y-82807061D01*
X143709888Y-82797119D01*
X143706209Y-82787432D01*
X143702000Y-82778020D01*
X143697279Y-82768900D01*
X143692061Y-82760092D01*
X143686365Y-82751613D01*
X143680206Y-82743484D01*
X143673601Y-82735722D01*
X143666568Y-82728346D01*
X143659123Y-82721375D01*
X143651284Y-82714827D01*
X143643066Y-82708722D01*
X143634486Y-82703077D01*
X143625562Y-82697912D01*
X143616311Y-82693246D01*
X143606749Y-82689096D01*
X143596962Y-82685506D01*
X143587045Y-82682505D01*
X143577021Y-82680091D01*
X143566915Y-82678262D01*
X143556754Y-82677015D01*
X143546561Y-82676350D01*
X143536362Y-82676263D01*
X143526182Y-82676754D01*
X143516046Y-82677820D01*
X143505979Y-82679459D01*
X143496007Y-82681670D01*
X143486154Y-82684450D01*
X143476445Y-82687798D01*
X143466906Y-82691711D01*
X143457562Y-82696188D01*
X143448437Y-82701227D01*
X143422480Y-82714183D01*
X143399064Y-82729625D01*
X143378020Y-82747388D01*
X143359176Y-82767306D01*
X143342361Y-82789214D01*
X143327403Y-82812947D01*
X143314133Y-82838340D01*
X143302378Y-82865227D01*
X143291969Y-82893444D01*
X143282733Y-82922825D01*
X143267099Y-82984419D01*
X143254108Y-83048687D01*
X143252740Y-83056349D01*
X143242057Y-83057433D01*
X143208747Y-83062180D01*
X143207667Y-83068337D01*
X143201689Y-83103102D01*
X143163096Y-83110653D01*
X143122019Y-83120546D01*
X143081294Y-83132238D01*
X143040980Y-83145728D01*
X143030138Y-83149102D01*
X143019525Y-83152995D01*
X143009155Y-83157393D01*
X142999046Y-83162284D01*
X142989214Y-83167654D01*
X142979674Y-83173492D01*
X142970443Y-83179783D01*
X142961537Y-83186516D01*
X142952972Y-83193678D01*
X142944763Y-83201256D01*
X142936928Y-83209236D01*
X142929481Y-83217607D01*
X142922440Y-83226355D01*
X142915820Y-83235468D01*
X142909638Y-83244933D01*
X142903909Y-83254737D01*
X142898676Y-83264813D01*
X142893971Y-83275093D01*
X142889797Y-83285555D01*
X142886157Y-83296178D01*
X142883052Y-83306942D01*
X142880485Y-83317828D01*
X142878458Y-83328814D01*
X142876972Y-83339879D01*
X142876032Y-83351005D01*
X142875637Y-83362169D01*
X142830819Y-83362169D01*
X142830783Y-83360404D01*
X142831214Y-83346673D01*
X142832358Y-83332982D01*
X142834211Y-83319360D01*
X142836773Y-83305836D01*
X142840042Y-83292438D01*
X142844016Y-83279195D01*
X142848694Y-83266133D01*
X142854075Y-83253283D01*
X142860155Y-83240672D01*
X142866894Y-83228399D01*
X142874233Y-83216558D01*
X142882153Y-83205167D01*
X142890629Y-83194242D01*
X142899640Y-83183802D01*
X142909164Y-83173865D01*
X142919179Y-83164447D01*
X142929663Y-83155569D01*
X142940593Y-83147246D01*
X142951948Y-83139496D01*
X142963705Y-83132338D01*
X142975842Y-83125789D01*
X142988337Y-83119868D01*
X143001168Y-83114590D01*
X143014313Y-83109976D01*
X143027749Y-83106042D01*
X143069959Y-83092785D01*
X143112549Y-83081295D01*
X143155465Y-83071573D01*
X143198653Y-83063619D01*
X143208747Y-83062180D01*
X143219185Y-83002666D01*
X143232844Y-82937978D01*
X143250036Y-82875570D01*
X143260394Y-82845625D01*
X143272159Y-82816735D01*
X143285505Y-82789062D01*
X143300607Y-82762768D01*
X143317639Y-82738015D01*
X143336775Y-82714963D01*
X143358191Y-82693777D01*
X143382060Y-82674616D01*
X143408556Y-82657643D01*
X143437855Y-82643019D01*
X143449067Y-82637492D01*
X143460508Y-82632638D01*
X143472149Y-82628458D01*
X143483961Y-82624952D01*
X143495915Y-82622122D01*
X143507982Y-82619970D01*
X143520133Y-82618496D01*
X143532338Y-82617700D01*
X143544568Y-82617585D01*
X143556795Y-82618152D01*
X143568988Y-82619401D01*
X143581120Y-82621334D01*
X143593160Y-82623951D01*
X143605080Y-82627254D01*
X143616851Y-82631243D01*
X143628443Y-82635921D01*
X143639750Y-82641250D01*
X143650674Y-82647177D01*
X143661196Y-82653680D01*
X143671296Y-82660737D01*
X143680955Y-82668327D01*
X143690155Y-82676426D01*
X143698877Y-82685014D01*
X143707101Y-82694067D01*
X143714809Y-82703563D01*
X143721982Y-82713481D01*
X143728600Y-82723798D01*
X143734644Y-82734493D01*
X143740096Y-82745542D01*
X143744937Y-82756925D01*
X143749148Y-82768618D01*
X143752708Y-82780600D01*
X143761035Y-82802711D01*
X143768251Y-82825106D01*
X143774357Y-82847744D01*
X143779353Y-82870585D01*
X143783239Y-82893588D01*
X143786014Y-82916712D01*
X143787680Y-82939917D01*
X143788235Y-82963163D01*
X143788077Y-82969780D01*
X143787680Y-82986408D01*
X143786014Y-83009613D01*
G36*
X156682895Y-74657895D02*
G01*
X156656437Y-74694936D01*
X156391853Y-74430353D01*
X155785957Y-75253207D01*
X155783311Y-75210874D01*
X156378624Y-74382728D01*
X156127270Y-74118145D01*
X156153728Y-74081103D01*
X156682895Y-74657895D01*
G37*
X156682895Y-74657895D02*
X156656437Y-74694936D01*
X156391853Y-74430353D01*
X155785957Y-75253207D01*
X155783311Y-75210874D01*
X156378624Y-74382728D01*
X156127270Y-74118145D01*
X156153728Y-74081103D01*
X156682895Y-74657895D01*
G36*
X148332645Y-88045809D02*
G01*
X148689833Y-88146351D01*
X148689833Y-88191331D01*
X147927833Y-87979664D01*
X147927833Y-87932040D01*
X148287666Y-88032582D01*
X148364396Y-87027165D01*
X148409375Y-87027165D01*
X148332645Y-88045809D01*
G37*
X148332645Y-88045809D02*
X148689833Y-88146351D01*
X148689833Y-88191331D01*
X147927833Y-87979664D01*
X147927833Y-87932040D01*
X148287666Y-88032582D01*
X148364396Y-87027165D01*
X148409375Y-87027165D01*
X148332645Y-88045809D01*
G36*
X154595333Y-74194874D02*
G01*
X154777895Y-73718624D01*
X154590179Y-73598694D01*
X154156124Y-73906478D01*
X154108499Y-73877374D01*
X154542666Y-73571942D01*
X154555202Y-73579891D01*
X154571035Y-73588805D01*
X154587395Y-73596915D01*
X154590179Y-73598694D01*
X154592687Y-73596915D01*
X154563582Y-73557228D01*
X154542666Y-73571942D01*
X154539920Y-73570201D01*
X154525213Y-73559761D01*
X154511105Y-73548601D01*
X154497620Y-73536747D01*
X154484783Y-73524226D01*
X154472618Y-73511068D01*
X154461149Y-73497298D01*
X154450400Y-73482945D01*
X154440396Y-73468036D01*
X154431160Y-73452600D01*
X154422717Y-73436662D01*
X154415092Y-73420252D01*
X154408307Y-73403396D01*
X154402388Y-73386122D01*
X154397386Y-73368561D01*
X154393333Y-73350849D01*
X154390225Y-73333022D01*
X154388058Y-73315118D01*
X154386827Y-73297171D01*
X154386536Y-73279655D01*
X154420933Y-73279655D01*
X154421191Y-73293991D01*
X154422376Y-73308298D01*
X154424483Y-73322568D01*
X154427502Y-73336793D01*
X154431427Y-73350964D01*
X154436252Y-73365075D01*
X154441967Y-73379115D01*
X154448567Y-73393077D01*
X154456043Y-73406954D01*
X154464389Y-73420735D01*
X154473598Y-73434414D01*
X154483662Y-73447982D01*
X154494573Y-73461431D01*
X154506325Y-73474753D01*
X154518910Y-73487938D01*
X154532321Y-73500980D01*
X154546551Y-73513870D01*
X154561593Y-73526600D01*
X154577439Y-73539160D01*
X154594081Y-73551544D01*
X154611514Y-73563743D01*
X154629728Y-73575749D01*
X154661220Y-73596915D01*
X154791124Y-73684228D01*
X154968395Y-73237082D01*
X154809645Y-73136541D01*
X154781279Y-73117443D01*
X154754615Y-73099969D01*
X154729493Y-73084317D01*
X154705754Y-73070684D01*
X154694355Y-73064687D01*
X154683241Y-73059268D01*
X154672394Y-73054453D01*
X154661793Y-73050267D01*
X154651420Y-73046733D01*
X154641253Y-73043878D01*
X154631273Y-73041725D01*
X154621460Y-73040299D01*
X154611794Y-73039624D01*
X154602256Y-73039727D01*
X154592826Y-73040631D01*
X154583483Y-73042360D01*
X154574208Y-73044941D01*
X154564981Y-73048397D01*
X154555782Y-73052753D01*
X154546591Y-73058034D01*
X154537389Y-73064264D01*
X154528155Y-73071469D01*
X154518869Y-73079673D01*
X154509513Y-73088900D01*
X154500066Y-73099176D01*
X154490507Y-73110525D01*
X154480818Y-73122972D01*
X154470978Y-73136541D01*
X154461559Y-73150709D01*
X154453140Y-73164931D01*
X154445714Y-73179199D01*
X154439274Y-73193504D01*
X154433813Y-73207838D01*
X154429324Y-73222192D01*
X154425798Y-73236560D01*
X154423229Y-73250932D01*
X154421610Y-73265300D01*
X154420933Y-73279655D01*
X154386536Y-73279655D01*
X154386529Y-73279219D01*
X154387160Y-73261299D01*
X154388715Y-73243446D01*
X154391190Y-73225697D01*
X154394582Y-73208089D01*
X154398885Y-73190658D01*
X154404096Y-73173441D01*
X154410211Y-73156474D01*
X154417225Y-73139793D01*
X154425135Y-73123435D01*
X154433937Y-73107436D01*
X154442013Y-73095436D01*
X154450365Y-73084234D01*
X154458987Y-73073822D01*
X154467878Y-73064194D01*
X154477031Y-73055340D01*
X154486445Y-73047254D01*
X154496114Y-73039928D01*
X154506035Y-73033353D01*
X154516205Y-73027523D01*
X154526618Y-73022429D01*
X154537272Y-73018063D01*
X154548162Y-73014419D01*
X154559285Y-73011487D01*
X154570636Y-73009262D01*
X154582212Y-73007733D01*
X154594009Y-73006895D01*
X154606023Y-73006738D01*
X154618251Y-73007256D01*
X154630687Y-73008441D01*
X154643329Y-73010285D01*
X154656173Y-73012779D01*
X154669214Y-73015917D01*
X154695874Y-73024093D01*
X154723278Y-73034748D01*
X154751395Y-73047823D01*
X154780195Y-73063253D01*
X154809645Y-73080978D01*
X155021312Y-73215916D01*
X155013235Y-73237082D01*
X154637666Y-74221332D01*
X154595333Y-74194874D01*
G37*
X154595333Y-74194874D02*
X154777895Y-73718624D01*
X154590179Y-73598694D01*
X154156124Y-73906478D01*
X154108499Y-73877374D01*
X154542666Y-73571942D01*
X154555202Y-73579891D01*
X154571035Y-73588805D01*
X154587395Y-73596915D01*
X154590179Y-73598694D01*
X154592687Y-73596915D01*
X154563582Y-73557228D01*
X154542666Y-73571942D01*
X154539920Y-73570201D01*
X154525213Y-73559761D01*
X154511105Y-73548601D01*
X154497620Y-73536747D01*
X154484783Y-73524226D01*
X154472618Y-73511068D01*
X154461149Y-73497298D01*
X154450400Y-73482945D01*
X154440396Y-73468036D01*
X154431160Y-73452600D01*
X154422717Y-73436662D01*
X154415092Y-73420252D01*
X154408307Y-73403396D01*
X154402388Y-73386122D01*
X154397386Y-73368561D01*
X154393333Y-73350849D01*
X154390225Y-73333022D01*
X154388058Y-73315118D01*
X154386827Y-73297171D01*
X154386536Y-73279655D01*
X154420933Y-73279655D01*
X154421191Y-73293991D01*
X154422376Y-73308298D01*
X154424483Y-73322568D01*
X154427502Y-73336793D01*
X154431427Y-73350964D01*
X154436252Y-73365075D01*
X154441967Y-73379115D01*
X154448567Y-73393077D01*
X154456043Y-73406954D01*
X154464389Y-73420735D01*
X154473598Y-73434414D01*
X154483662Y-73447982D01*
X154494573Y-73461431D01*
X154506325Y-73474753D01*
X154518910Y-73487938D01*
X154532321Y-73500980D01*
X154546551Y-73513870D01*
X154561593Y-73526600D01*
X154577439Y-73539160D01*
X154594081Y-73551544D01*
X154611514Y-73563743D01*
X154629728Y-73575749D01*
X154661220Y-73596915D01*
X154791124Y-73684228D01*
X154968395Y-73237082D01*
X154809645Y-73136541D01*
X154781279Y-73117443D01*
X154754615Y-73099969D01*
X154729493Y-73084317D01*
X154705754Y-73070684D01*
X154694355Y-73064687D01*
X154683241Y-73059268D01*
X154672394Y-73054453D01*
X154661793Y-73050267D01*
X154651420Y-73046733D01*
X154641253Y-73043878D01*
X154631273Y-73041725D01*
X154621460Y-73040299D01*
X154611794Y-73039624D01*
X154602256Y-73039727D01*
X154592826Y-73040631D01*
X154583483Y-73042360D01*
X154574208Y-73044941D01*
X154564981Y-73048397D01*
X154555782Y-73052753D01*
X154546591Y-73058034D01*
X154537389Y-73064264D01*
X154528155Y-73071469D01*
X154518869Y-73079673D01*
X154509513Y-73088900D01*
X154500066Y-73099176D01*
X154490507Y-73110525D01*
X154480818Y-73122972D01*
X154470978Y-73136541D01*
X154461559Y-73150709D01*
X154453140Y-73164931D01*
X154445714Y-73179199D01*
X154439274Y-73193504D01*
X154433813Y-73207838D01*
X154429324Y-73222192D01*
X154425798Y-73236560D01*
X154423229Y-73250932D01*
X154421610Y-73265300D01*
X154420933Y-73279655D01*
X154386536Y-73279655D01*
X154386529Y-73279219D01*
X154387160Y-73261299D01*
X154388715Y-73243446D01*
X154391190Y-73225697D01*
X154394582Y-73208089D01*
X154398885Y-73190658D01*
X154404096Y-73173441D01*
X154410211Y-73156474D01*
X154417225Y-73139793D01*
X154425135Y-73123435D01*
X154433937Y-73107436D01*
X154442013Y-73095436D01*
X154450365Y-73084234D01*
X154458987Y-73073822D01*
X154467878Y-73064194D01*
X154477031Y-73055340D01*
X154486445Y-73047254D01*
X154496114Y-73039928D01*
X154506035Y-73033353D01*
X154516205Y-73027523D01*
X154526618Y-73022429D01*
X154537272Y-73018063D01*
X154548162Y-73014419D01*
X154559285Y-73011487D01*
X154570636Y-73009262D01*
X154582212Y-73007733D01*
X154594009Y-73006895D01*
X154606023Y-73006738D01*
X154618251Y-73007256D01*
X154630687Y-73008441D01*
X154643329Y-73010285D01*
X154656173Y-73012779D01*
X154669214Y-73015917D01*
X154695874Y-73024093D01*
X154723278Y-73034748D01*
X154751395Y-73047823D01*
X154780195Y-73063253D01*
X154809645Y-73080978D01*
X155021312Y-73215916D01*
X155013235Y-73237082D01*
X154637666Y-74221332D01*
X154595333Y-74194874D01*
G36*
X145114145Y-75196408D02*
G01*
X145080917Y-75226366D01*
X145047441Y-75253022D01*
X145030629Y-75265081D01*
X145013779Y-75276275D01*
X144996897Y-75286594D01*
X144979993Y-75296025D01*
X144963073Y-75304554D01*
X144946145Y-75312170D01*
X144929217Y-75318859D01*
X144912297Y-75324610D01*
X144895392Y-75329409D01*
X144878511Y-75333244D01*
X144861660Y-75336102D01*
X144844849Y-75337971D01*
X144828084Y-75338838D01*
X144811373Y-75338690D01*
X144794724Y-75337516D01*
X144778145Y-75335302D01*
X144761643Y-75332035D01*
X144745227Y-75327704D01*
X144728904Y-75322295D01*
X144712681Y-75315796D01*
X144696567Y-75308195D01*
X144680569Y-75299478D01*
X144664696Y-75289634D01*
X144648954Y-75278649D01*
X144633351Y-75266511D01*
X144617896Y-75253207D01*
X144610236Y-75245830D01*
X144602976Y-75238179D01*
X144596120Y-75230269D01*
X144589669Y-75222113D01*
X144583624Y-75213728D01*
X144577988Y-75205127D01*
X144572763Y-75196325D01*
X144567950Y-75187338D01*
X144559567Y-75168864D01*
X144552856Y-75149824D01*
X144547829Y-75130335D01*
X144544503Y-75110516D01*
X144543041Y-75092338D01*
X144592700Y-75092338D01*
X144593279Y-75103737D01*
X144594475Y-75114936D01*
X144596284Y-75125925D01*
X144598700Y-75136690D01*
X144601716Y-75147220D01*
X144605328Y-75157502D01*
X144609528Y-75167525D01*
X144614311Y-75177276D01*
X144619673Y-75186743D01*
X144625605Y-75195913D01*
X144632104Y-75204776D01*
X144639163Y-75213319D01*
X144646776Y-75221529D01*
X144654937Y-75229395D01*
X144669114Y-75241691D01*
X144683365Y-75252797D01*
X144697689Y-75262729D01*
X144712081Y-75271506D01*
X144726539Y-75279145D01*
X144741060Y-75285664D01*
X144755641Y-75291082D01*
X144770279Y-75295416D01*
X144784971Y-75298685D01*
X144799715Y-75300905D01*
X144814507Y-75302096D01*
X144829345Y-75302274D01*
X144844226Y-75301458D01*
X144859146Y-75299666D01*
X144874103Y-75296916D01*
X144889094Y-75293225D01*
X144904115Y-75288612D01*
X144919165Y-75283095D01*
X144934241Y-75276691D01*
X144949338Y-75269418D01*
X144964455Y-75261295D01*
X144979588Y-75252338D01*
X144994735Y-75242567D01*
X145009892Y-75231999D01*
X145040228Y-75208544D01*
X145070571Y-75182116D01*
X145100899Y-75152859D01*
X145131188Y-75120916D01*
X145279354Y-74967457D01*
X144845438Y-74702874D01*
X144694625Y-74866916D01*
X144683082Y-74879827D01*
X144672262Y-74892758D01*
X144662159Y-74905696D01*
X144652767Y-74918628D01*
X144644080Y-74931543D01*
X144636093Y-74944428D01*
X144628800Y-74957272D01*
X144622195Y-74970062D01*
X144616272Y-74982786D01*
X144611025Y-74995431D01*
X144606449Y-75007987D01*
X144602537Y-75020441D01*
X144599284Y-75032780D01*
X144596685Y-75044993D01*
X144594732Y-75057067D01*
X144593421Y-75068991D01*
X144592746Y-75080752D01*
X144592700Y-75092338D01*
X144543041Y-75092338D01*
X144542892Y-75090484D01*
X144543010Y-75070358D01*
X144544872Y-75050256D01*
X144548493Y-75030295D01*
X144550967Y-75020405D01*
X144553887Y-75010594D01*
X144557254Y-75000877D01*
X144561069Y-74991270D01*
X144565335Y-74981787D01*
X144570053Y-74972442D01*
X144575226Y-74963251D01*
X144580854Y-74954228D01*
X144571083Y-74961967D01*
X144561058Y-74969207D01*
X144550797Y-74975947D01*
X144540317Y-74982188D01*
X144529634Y-74987930D01*
X144518765Y-74993172D01*
X144507728Y-74997916D01*
X144496539Y-75002159D01*
X144485215Y-75005904D01*
X144473773Y-75009149D01*
X144462229Y-75011896D01*
X144450601Y-75014142D01*
X144427160Y-75017138D01*
X144403584Y-75018137D01*
X144380008Y-75017138D01*
X144356566Y-75014142D01*
X144344939Y-75011896D01*
X144333395Y-75009149D01*
X144321953Y-75005904D01*
X144310629Y-75002159D01*
X144299440Y-74997916D01*
X144288402Y-74993172D01*
X144277534Y-74987930D01*
X144266851Y-74982188D01*
X144256370Y-74975947D01*
X144246109Y-74969207D01*
X144236084Y-74961967D01*
X144226313Y-74954228D01*
X144216950Y-74945438D01*
X144208212Y-74936435D01*
X144200106Y-74927219D01*
X144192635Y-74917796D01*
X144185806Y-74908167D01*
X144179624Y-74898336D01*
X144174093Y-74888305D01*
X144169220Y-74878078D01*
X144165010Y-74867656D01*
X144161468Y-74857044D01*
X144158600Y-74846244D01*
X144156410Y-74835259D01*
X144154904Y-74824091D01*
X144154088Y-74812744D01*
X144153966Y-74801221D01*
X144154126Y-74797991D01*
X144182426Y-74797991D01*
X144182715Y-74807447D01*
X144183710Y-74816763D01*
X144185412Y-74825954D01*
X144187816Y-74835032D01*
X144190922Y-74844010D01*
X144194728Y-74852901D01*
X144199231Y-74861718D01*
X144204430Y-74870475D01*
X144210323Y-74879185D01*
X144216907Y-74887860D01*
X144224182Y-74896514D01*
X144232144Y-74905159D01*
X144240793Y-74913810D01*
X144250125Y-74922478D01*
X144259952Y-74930833D01*
X144270082Y-74938527D01*
X144280505Y-74945552D01*
X144291213Y-74951897D01*
X144302198Y-74957555D01*
X144313453Y-74962516D01*
X144324967Y-74966771D01*
X144336735Y-74970310D01*
X144348746Y-74973124D01*
X144360994Y-74975204D01*
X144373469Y-74976541D01*
X144386163Y-74977126D01*
X144399069Y-74976949D01*
X144412178Y-74976001D01*
X144425481Y-74974274D01*
X144438971Y-74971757D01*
X144452640Y-74968442D01*
X144466478Y-74964319D01*
X144480478Y-74959379D01*
X144494632Y-74953613D01*
X144508931Y-74947012D01*
X144523367Y-74939567D01*
X144537932Y-74931268D01*
X144552618Y-74922106D01*
X144567416Y-74912072D01*
X144582318Y-74901157D01*
X144597317Y-74889352D01*
X144612403Y-74876646D01*
X144642804Y-74848500D01*
X144673458Y-74816645D01*
X144811041Y-74684353D01*
X144435332Y-74459457D01*
X144300396Y-74589103D01*
X144275589Y-74617119D01*
X144253743Y-74643689D01*
X144243925Y-74656464D01*
X144234842Y-74668918D01*
X144226491Y-74681062D01*
X144218871Y-74692911D01*
X144211980Y-74704476D01*
X144205815Y-74715772D01*
X144200375Y-74726810D01*
X144195658Y-74737605D01*
X144191662Y-74748170D01*
X144188385Y-74758517D01*
X144185824Y-74768660D01*
X144183979Y-74778611D01*
X144182847Y-74788384D01*
X144182426Y-74797991D01*
X144154126Y-74797991D01*
X144154544Y-74789525D01*
X144155828Y-74777658D01*
X144157823Y-74765623D01*
X144160533Y-74753424D01*
X144163965Y-74741063D01*
X144168123Y-74728543D01*
X144173014Y-74715867D01*
X144178642Y-74703038D01*
X144185013Y-74690058D01*
X144192131Y-74676932D01*
X144200003Y-74663661D01*
X144218029Y-74636697D01*
X144239132Y-74609191D01*
X144263354Y-74581166D01*
X144430042Y-74398603D01*
X144915121Y-74684353D01*
X145350792Y-74940999D01*
X145326538Y-74967457D01*
X145147062Y-75163249D01*
X145114145Y-75196408D01*
G37*
X145114145Y-75196408D02*
X145080917Y-75226366D01*
X145047441Y-75253022D01*
X145030629Y-75265081D01*
X145013779Y-75276275D01*
X144996897Y-75286594D01*
X144979993Y-75296025D01*
X144963073Y-75304554D01*
X144946145Y-75312170D01*
X144929217Y-75318859D01*
X144912297Y-75324610D01*
X144895392Y-75329409D01*
X144878511Y-75333244D01*
X144861660Y-75336102D01*
X144844849Y-75337971D01*
X144828084Y-75338838D01*
X144811373Y-75338690D01*
X144794724Y-75337516D01*
X144778145Y-75335302D01*
X144761643Y-75332035D01*
X144745227Y-75327704D01*
X144728904Y-75322295D01*
X144712681Y-75315796D01*
X144696567Y-75308195D01*
X144680569Y-75299478D01*
X144664696Y-75289634D01*
X144648954Y-75278649D01*
X144633351Y-75266511D01*
X144617896Y-75253207D01*
X144610236Y-75245830D01*
X144602976Y-75238179D01*
X144596120Y-75230269D01*
X144589669Y-75222113D01*
X144583624Y-75213728D01*
X144577988Y-75205127D01*
X144572763Y-75196325D01*
X144567950Y-75187338D01*
X144559567Y-75168864D01*
X144552856Y-75149824D01*
X144547829Y-75130335D01*
X144544503Y-75110516D01*
X144543041Y-75092338D01*
X144592700Y-75092338D01*
X144593279Y-75103737D01*
X144594475Y-75114936D01*
X144596284Y-75125925D01*
X144598700Y-75136690D01*
X144601716Y-75147220D01*
X144605328Y-75157502D01*
X144609528Y-75167525D01*
X144614311Y-75177276D01*
X144619673Y-75186743D01*
X144625605Y-75195913D01*
X144632104Y-75204776D01*
X144639163Y-75213319D01*
X144646776Y-75221529D01*
X144654937Y-75229395D01*
X144669114Y-75241691D01*
X144683365Y-75252797D01*
X144697689Y-75262729D01*
X144712081Y-75271506D01*
X144726539Y-75279145D01*
X144741060Y-75285664D01*
X144755641Y-75291082D01*
X144770279Y-75295416D01*
X144784971Y-75298685D01*
X144799715Y-75300905D01*
X144814507Y-75302096D01*
X144829345Y-75302274D01*
X144844226Y-75301458D01*
X144859146Y-75299666D01*
X144874103Y-75296916D01*
X144889094Y-75293225D01*
X144904115Y-75288612D01*
X144919165Y-75283095D01*
X144934241Y-75276691D01*
X144949338Y-75269418D01*
X144964455Y-75261295D01*
X144979588Y-75252338D01*
X144994735Y-75242567D01*
X145009892Y-75231999D01*
X145040228Y-75208544D01*
X145070571Y-75182116D01*
X145100899Y-75152859D01*
X145131188Y-75120916D01*
X145279354Y-74967457D01*
X144845438Y-74702874D01*
X144694625Y-74866916D01*
X144683082Y-74879827D01*
X144672262Y-74892758D01*
X144662159Y-74905696D01*
X144652767Y-74918628D01*
X144644080Y-74931543D01*
X144636093Y-74944428D01*
X144628800Y-74957272D01*
X144622195Y-74970062D01*
X144616272Y-74982786D01*
X144611025Y-74995431D01*
X144606449Y-75007987D01*
X144602537Y-75020441D01*
X144599284Y-75032780D01*
X144596685Y-75044993D01*
X144594732Y-75057067D01*
X144593421Y-75068991D01*
X144592746Y-75080752D01*
X144592700Y-75092338D01*
X144543041Y-75092338D01*
X144542892Y-75090484D01*
X144543010Y-75070358D01*
X144544872Y-75050256D01*
X144548493Y-75030295D01*
X144550967Y-75020405D01*
X144553887Y-75010594D01*
X144557254Y-75000877D01*
X144561069Y-74991270D01*
X144565335Y-74981787D01*
X144570053Y-74972442D01*
X144575226Y-74963251D01*
X144580854Y-74954228D01*
X144571083Y-74961967D01*
X144561058Y-74969207D01*
X144550797Y-74975947D01*
X144540317Y-74982188D01*
X144529634Y-74987930D01*
X144518765Y-74993172D01*
X144507728Y-74997916D01*
X144496539Y-75002159D01*
X144485215Y-75005904D01*
X144473773Y-75009149D01*
X144462229Y-75011896D01*
X144450601Y-75014142D01*
X144427160Y-75017138D01*
X144403584Y-75018137D01*
X144380008Y-75017138D01*
X144356566Y-75014142D01*
X144344939Y-75011896D01*
X144333395Y-75009149D01*
X144321953Y-75005904D01*
X144310629Y-75002159D01*
X144299440Y-74997916D01*
X144288402Y-74993172D01*
X144277534Y-74987930D01*
X144266851Y-74982188D01*
X144256370Y-74975947D01*
X144246109Y-74969207D01*
X144236084Y-74961967D01*
X144226313Y-74954228D01*
X144216950Y-74945438D01*
X144208212Y-74936435D01*
X144200106Y-74927219D01*
X144192635Y-74917796D01*
X144185806Y-74908167D01*
X144179624Y-74898336D01*
X144174093Y-74888305D01*
X144169220Y-74878078D01*
X144165010Y-74867656D01*
X144161468Y-74857044D01*
X144158600Y-74846244D01*
X144156410Y-74835259D01*
X144154904Y-74824091D01*
X144154088Y-74812744D01*
X144153966Y-74801221D01*
X144154126Y-74797991D01*
X144182426Y-74797991D01*
X144182715Y-74807447D01*
X144183710Y-74816763D01*
X144185412Y-74825954D01*
X144187816Y-74835032D01*
X144190922Y-74844010D01*
X144194728Y-74852901D01*
X144199231Y-74861718D01*
X144204430Y-74870475D01*
X144210323Y-74879185D01*
X144216907Y-74887860D01*
X144224182Y-74896514D01*
X144232144Y-74905159D01*
X144240793Y-74913810D01*
X144250125Y-74922478D01*
X144259952Y-74930833D01*
X144270082Y-74938527D01*
X144280505Y-74945552D01*
X144291213Y-74951897D01*
X144302198Y-74957555D01*
X144313453Y-74962516D01*
X144324967Y-74966771D01*
X144336735Y-74970310D01*
X144348746Y-74973124D01*
X144360994Y-74975204D01*
X144373469Y-74976541D01*
X144386163Y-74977126D01*
X144399069Y-74976949D01*
X144412178Y-74976001D01*
X144425481Y-74974274D01*
X144438971Y-74971757D01*
X144452640Y-74968442D01*
X144466478Y-74964319D01*
X144480478Y-74959379D01*
X144494632Y-74953613D01*
X144508931Y-74947012D01*
X144523367Y-74939567D01*
X144537932Y-74931268D01*
X144552618Y-74922106D01*
X144567416Y-74912072D01*
X144582318Y-74901157D01*
X144597317Y-74889352D01*
X144612403Y-74876646D01*
X144642804Y-74848500D01*
X144673458Y-74816645D01*
X144811041Y-74684353D01*
X144435332Y-74459457D01*
X144300396Y-74589103D01*
X144275589Y-74617119D01*
X144253743Y-74643689D01*
X144243925Y-74656464D01*
X144234842Y-74668918D01*
X144226491Y-74681062D01*
X144218871Y-74692911D01*
X144211980Y-74704476D01*
X144205815Y-74715772D01*
X144200375Y-74726810D01*
X144195658Y-74737605D01*
X144191662Y-74748170D01*
X144188385Y-74758517D01*
X144185824Y-74768660D01*
X144183979Y-74778611D01*
X144182847Y-74788384D01*
X144182426Y-74797991D01*
X144154126Y-74797991D01*
X144154544Y-74789525D01*
X144155828Y-74777658D01*
X144157823Y-74765623D01*
X144160533Y-74753424D01*
X144163965Y-74741063D01*
X144168123Y-74728543D01*
X144173014Y-74715867D01*
X144178642Y-74703038D01*
X144185013Y-74690058D01*
X144192131Y-74676932D01*
X144200003Y-74663661D01*
X144218029Y-74636697D01*
X144239132Y-74609191D01*
X144263354Y-74581166D01*
X144430042Y-74398603D01*
X144915121Y-74684353D01*
X145350792Y-74940999D01*
X145326538Y-74967457D01*
X145147062Y-75163249D01*
X145114145Y-75196408D01*
G36*
X148520498Y-73136541D02*
G01*
X148475520Y-73136541D01*
X148120979Y-72525353D01*
X147983396Y-72260770D01*
X147983396Y-72456561D01*
X147962229Y-73279416D01*
X147914603Y-73297936D01*
X147385437Y-72369249D01*
X147430416Y-72369249D01*
X147779666Y-72983082D01*
X147851765Y-73116366D01*
X147886078Y-73181396D01*
X147919894Y-73247666D01*
X147919894Y-73028061D01*
X147941062Y-72205207D01*
X147988687Y-72186686D01*
X148520498Y-73136541D01*
G37*
X148520498Y-73136541D02*
X148475520Y-73136541D01*
X148120979Y-72525353D01*
X147983396Y-72260770D01*
X147983396Y-72456561D01*
X147962229Y-73279416D01*
X147914603Y-73297936D01*
X147385437Y-72369249D01*
X147430416Y-72369249D01*
X147779666Y-72983082D01*
X147851765Y-73116366D01*
X147886078Y-73181396D01*
X147919894Y-73247666D01*
X147919894Y-73028061D01*
X147941062Y-72205207D01*
X147988687Y-72186686D01*
X148520498Y-73136541D01*
G36*
X157606291Y-83055769D02*
G01*
X158230707Y-82873207D01*
X158209541Y-82926123D01*
X157802082Y-83024019D01*
X157630103Y-83068998D01*
X157741228Y-83174831D01*
X157989937Y-83439415D01*
X157968770Y-83487040D01*
X157590416Y-83098103D01*
X156931603Y-83291248D01*
X156952770Y-83238330D01*
X157365520Y-83124560D01*
X157563957Y-83074290D01*
X157533737Y-83045971D01*
X157498804Y-83012443D01*
X157481508Y-82995509D01*
X157465359Y-82979412D01*
X157451132Y-82964865D01*
X157439603Y-82952581D01*
X157175020Y-82687998D01*
X157193541Y-82640373D01*
X157606291Y-83055769D01*
G37*
X157606291Y-83055769D02*
X158230707Y-82873207D01*
X158209541Y-82926123D01*
X157802082Y-83024019D01*
X157630103Y-83068998D01*
X157741228Y-83174831D01*
X157989937Y-83439415D01*
X157968770Y-83487040D01*
X157590416Y-83098103D01*
X156931603Y-83291248D01*
X156952770Y-83238330D01*
X157365520Y-83124560D01*
X157563957Y-83074290D01*
X157533737Y-83045971D01*
X157498804Y-83012443D01*
X157481508Y-82995509D01*
X157465359Y-82979412D01*
X157451132Y-82964865D01*
X157439603Y-82952581D01*
X157175020Y-82687998D01*
X157193541Y-82640373D01*
X157606291Y-83055769D01*
G36*
X146295354Y-73700103D02*
G01*
X146565229Y-73983207D01*
X146525541Y-74009666D01*
X146260958Y-73729207D01*
X145493667Y-73438166D01*
X145536000Y-73409062D01*
X145956688Y-73562520D01*
X146037592Y-73593774D01*
X146119737Y-73626020D01*
X146194440Y-73656282D01*
X146226288Y-73669738D01*
X146253020Y-73681582D01*
X146237022Y-73626475D01*
X146218294Y-73560205D01*
X146199071Y-73488478D01*
X146189971Y-73452351D01*
X146181583Y-73416999D01*
X146091625Y-73046582D01*
X146131312Y-73022770D01*
X146295354Y-73700103D01*
G37*
X146295354Y-73700103D02*
X146565229Y-73983207D01*
X146525541Y-74009666D01*
X146260958Y-73729207D01*
X145493667Y-73438166D01*
X145536000Y-73409062D01*
X145956688Y-73562520D01*
X146037592Y-73593774D01*
X146119737Y-73626020D01*
X146194440Y-73656282D01*
X146226288Y-73669738D01*
X146253020Y-73681582D01*
X146237022Y-73626475D01*
X146218294Y-73560205D01*
X146199071Y-73488478D01*
X146189971Y-73452351D01*
X146181583Y-73416999D01*
X146091625Y-73046582D01*
X146131312Y-73022770D01*
X146295354Y-73700103D01*
G36*
X147520374Y-73475207D02*
G01*
X146975332Y-73739791D01*
X146948875Y-73708041D01*
X147451583Y-73461978D01*
X146832458Y-72644416D01*
X146874791Y-72623249D01*
X147520374Y-73475207D01*
G37*
X147520374Y-73475207D02*
X146975332Y-73739791D01*
X146948875Y-73708041D01*
X147451583Y-73461978D01*
X146832458Y-72644416D01*
X146874791Y-72623249D01*
X147520374Y-73475207D01*
G36*
X142395396Y-78306499D02*
G01*
X143379645Y-78335603D01*
X143440499Y-78071019D01*
X143485478Y-78071019D01*
X143350541Y-78650457D01*
X143305563Y-78650457D01*
X143369063Y-78385874D01*
X142384812Y-78359415D01*
X142321313Y-78623999D01*
X142278979Y-78623999D01*
X142413917Y-78041915D01*
X142456250Y-78041915D01*
X142395396Y-78306499D01*
G37*
X142395396Y-78306499D02*
X143379645Y-78335603D01*
X143440499Y-78071019D01*
X143485478Y-78071019D01*
X143350541Y-78650457D01*
X143305563Y-78650457D01*
X143369063Y-78385874D01*
X142384812Y-78359415D01*
X142321313Y-78623999D01*
X142278979Y-78623999D01*
X142413917Y-78041915D01*
X142456250Y-78041915D01*
X142395396Y-78306499D01*
G36*
X143228832Y-79904582D02*
G01*
X142435082Y-80084499D01*
X142386589Y-80097397D01*
X142361831Y-80104032D01*
X142336855Y-80110296D01*
X142311756Y-80115815D01*
X142299190Y-80118179D01*
X142286627Y-80120217D01*
X142274079Y-80121884D01*
X142261559Y-80123132D01*
X142249077Y-80123915D01*
X142236646Y-80124186D01*
X142408624Y-80147998D01*
X142937791Y-80222082D01*
X142937791Y-80269707D01*
X142408624Y-80592498D01*
X142361661Y-80620404D01*
X142339791Y-80633101D01*
X142318666Y-80645085D01*
X142298037Y-80656448D01*
X142277656Y-80667285D01*
X142257275Y-80677687D01*
X142236646Y-80687749D01*
X142432437Y-80634832D01*
X143226187Y-80454916D01*
X143226187Y-80502540D01*
X142183728Y-80738020D01*
X142183728Y-80671874D01*
X142712895Y-80335852D01*
X142861063Y-80253831D01*
X142712895Y-80237957D01*
X142157271Y-80155936D01*
X142157271Y-80087144D01*
X143228832Y-79856957D01*
X143228832Y-79904582D01*
G37*
X143228832Y-79904582D02*
X142435082Y-80084499D01*
X142386589Y-80097397D01*
X142361831Y-80104032D01*
X142336855Y-80110296D01*
X142311756Y-80115815D01*
X142299190Y-80118179D01*
X142286627Y-80120217D01*
X142274079Y-80121884D01*
X142261559Y-80123132D01*
X142249077Y-80123915D01*
X142236646Y-80124186D01*
X142408624Y-80147998D01*
X142937791Y-80222082D01*
X142937791Y-80269707D01*
X142408624Y-80592498D01*
X142361661Y-80620404D01*
X142339791Y-80633101D01*
X142318666Y-80645085D01*
X142298037Y-80656448D01*
X142277656Y-80667285D01*
X142257275Y-80677687D01*
X142236646Y-80687749D01*
X142432437Y-80634832D01*
X143226187Y-80454916D01*
X143226187Y-80502540D01*
X142183728Y-80738020D01*
X142183728Y-80671874D01*
X142712895Y-80335852D01*
X142861063Y-80253831D01*
X142712895Y-80237957D01*
X142157271Y-80155936D01*
X142157271Y-80087144D01*
X143228832Y-79856957D01*
X143228832Y-79904582D01*
G36*
X147848458Y-86852540D02*
G01*
X147848458Y-86894873D01*
X147319291Y-86667331D01*
X147231978Y-87159457D01*
X147642084Y-87347312D01*
X147642084Y-87389645D01*
X147205522Y-87204436D01*
X147118208Y-87633061D01*
X147647375Y-87852666D01*
X147647375Y-87894999D01*
X147083812Y-87656873D01*
X147271667Y-86609124D01*
X147848458Y-86852540D01*
G37*
X147848458Y-86852540D02*
X147848458Y-86894873D01*
X147319291Y-86667331D01*
X147231978Y-87159457D01*
X147642084Y-87347312D01*
X147642084Y-87389645D01*
X147205522Y-87204436D01*
X147118208Y-87633061D01*
X147647375Y-87852666D01*
X147647375Y-87894999D01*
X147083812Y-87656873D01*
X147271667Y-86609124D01*
X147848458Y-86852540D01*
G36*
X143762602Y-83121910D02*
G01*
X143777049Y-83127943D01*
X143791327Y-83134342D01*
X143805428Y-83141102D01*
X143819347Y-83148219D01*
X143833077Y-83155691D01*
X143846610Y-83163513D01*
X143859939Y-83171681D01*
X143873059Y-83180192D01*
X143885962Y-83189041D01*
X143898641Y-83198225D01*
X143911090Y-83207741D01*
X143923302Y-83217583D01*
X143935270Y-83227749D01*
X143908813Y-83264790D01*
X143897425Y-83254977D01*
X143885808Y-83245464D01*
X143873966Y-83236253D01*
X143861907Y-83227350D01*
X143849636Y-83218757D01*
X143837160Y-83210478D01*
X143824484Y-83202516D01*
X143811615Y-83194876D01*
X143798559Y-83187559D01*
X143785321Y-83180571D01*
X143771909Y-83173914D01*
X143758328Y-83167593D01*
X143745716Y-83162103D01*
X143752709Y-83145725D01*
X143761036Y-83123614D01*
X143761697Y-83121560D01*
X143762602Y-83121910D01*
G37*
X143762602Y-83121910D02*
X143777049Y-83127943D01*
X143791327Y-83134342D01*
X143805428Y-83141102D01*
X143819347Y-83148219D01*
X143833077Y-83155691D01*
X143846610Y-83163513D01*
X143859939Y-83171681D01*
X143873059Y-83180192D01*
X143885962Y-83189041D01*
X143898641Y-83198225D01*
X143911090Y-83207741D01*
X143923302Y-83217583D01*
X143935270Y-83227749D01*
X143908813Y-83264790D01*
X143897425Y-83254977D01*
X143885808Y-83245464D01*
X143873966Y-83236253D01*
X143861907Y-83227350D01*
X143849636Y-83218757D01*
X143837160Y-83210478D01*
X143824484Y-83202516D01*
X143811615Y-83194876D01*
X143798559Y-83187559D01*
X143785321Y-83180571D01*
X143771909Y-83173914D01*
X143758328Y-83167593D01*
X143745716Y-83162103D01*
X143752709Y-83145725D01*
X143761036Y-83123614D01*
X143761697Y-83121560D01*
X143762602Y-83121910D01*
G36*
X150229708Y-72871957D02*
G01*
X150118584Y-72408936D01*
X149914854Y-72424811D01*
X149890067Y-72426439D01*
X149865820Y-72427353D01*
X149842125Y-72427551D01*
X149818994Y-72427034D01*
X149796442Y-72425799D01*
X149774479Y-72423846D01*
X149753119Y-72421175D01*
X149732374Y-72417783D01*
X149712257Y-72413671D01*
X149692781Y-72408837D01*
X149673958Y-72403280D01*
X149655800Y-72396999D01*
X149638321Y-72389994D01*
X149621532Y-72382262D01*
X149605447Y-72373804D01*
X149590078Y-72364619D01*
X149575438Y-72354704D01*
X149561538Y-72344061D01*
X149548393Y-72332686D01*
X149536014Y-72320580D01*
X149524414Y-72307742D01*
X149513606Y-72294170D01*
X149503602Y-72279863D01*
X149494414Y-72264821D01*
X149486057Y-72249043D01*
X149478541Y-72232527D01*
X149471879Y-72215273D01*
X149466085Y-72197280D01*
X149461171Y-72178547D01*
X149457149Y-72159072D01*
X149454032Y-72138855D01*
X149451833Y-72117895D01*
X149451681Y-72115249D01*
X149496813Y-72115249D01*
X149501276Y-72150718D01*
X149504622Y-72167520D01*
X149508708Y-72183700D01*
X149513535Y-72199255D01*
X149519102Y-72214185D01*
X149525406Y-72228489D01*
X149532448Y-72242166D01*
X149540227Y-72255216D01*
X149548741Y-72267636D01*
X149557989Y-72279427D01*
X149567971Y-72290587D01*
X149578685Y-72301115D01*
X149590131Y-72311011D01*
X149602307Y-72320273D01*
X149615213Y-72328900D01*
X149628848Y-72336892D01*
X149643210Y-72344247D01*
X149658299Y-72350964D01*
X149674114Y-72357043D01*
X149690654Y-72362482D01*
X149707917Y-72367281D01*
X149744611Y-72374954D01*
X149784189Y-72380053D01*
X149826643Y-72382571D01*
X149871964Y-72382500D01*
X149920146Y-72379832D01*
X150102708Y-72363957D01*
X149965124Y-71877124D01*
X149761396Y-71892999D01*
X149728340Y-71896105D01*
X149697612Y-71900487D01*
X149683113Y-71903167D01*
X149669187Y-71906178D01*
X149655829Y-71909526D01*
X149643037Y-71913215D01*
X149630806Y-71917248D01*
X149619134Y-71921631D01*
X149608018Y-71926367D01*
X149597453Y-71931462D01*
X149587436Y-71936919D01*
X149577965Y-71942742D01*
X149569035Y-71948937D01*
X149560644Y-71955507D01*
X149552787Y-71962457D01*
X149545462Y-71969791D01*
X149538665Y-71977513D01*
X149532392Y-71985629D01*
X149526641Y-71994142D01*
X149521408Y-72003056D01*
X149516689Y-72012377D01*
X149512481Y-72022107D01*
X149508781Y-72032253D01*
X149505586Y-72042817D01*
X149502891Y-72053805D01*
X149500694Y-72065221D01*
X149498991Y-72077069D01*
X149497779Y-72089353D01*
X149497054Y-72102078D01*
X149496813Y-72115249D01*
X149451681Y-72115249D01*
X149450948Y-72102515D01*
X149450768Y-72087629D01*
X149451287Y-72073231D01*
X149452495Y-72059320D01*
X149454385Y-72045891D01*
X149456949Y-72032941D01*
X149460180Y-72020467D01*
X149464070Y-72008465D01*
X149468611Y-71996932D01*
X149473796Y-71985865D01*
X149479616Y-71975260D01*
X149486064Y-71965113D01*
X149493132Y-71955423D01*
X149500812Y-71946184D01*
X149509097Y-71937393D01*
X149517979Y-71929048D01*
X149527450Y-71921145D01*
X149537502Y-71913681D01*
X149548128Y-71906651D01*
X149559320Y-71900053D01*
X149571070Y-71893883D01*
X149583370Y-71888138D01*
X149609591Y-71877909D01*
X149637920Y-71869340D01*
X149668296Y-71862401D01*
X149700655Y-71857068D01*
X149734938Y-71853311D01*
X149999520Y-71832145D01*
X150141608Y-72363957D01*
X150277333Y-72871957D01*
X150229708Y-72871957D01*
G37*
X150229708Y-72871957D02*
X150118584Y-72408936D01*
X149914854Y-72424811D01*
X149890067Y-72426439D01*
X149865820Y-72427353D01*
X149842125Y-72427551D01*
X149818994Y-72427034D01*
X149796442Y-72425799D01*
X149774479Y-72423846D01*
X149753119Y-72421175D01*
X149732374Y-72417783D01*
X149712257Y-72413671D01*
X149692781Y-72408837D01*
X149673958Y-72403280D01*
X149655800Y-72396999D01*
X149638321Y-72389994D01*
X149621532Y-72382262D01*
X149605447Y-72373804D01*
X149590078Y-72364619D01*
X149575438Y-72354704D01*
X149561538Y-72344061D01*
X149548393Y-72332686D01*
X149536014Y-72320580D01*
X149524414Y-72307742D01*
X149513606Y-72294170D01*
X149503602Y-72279863D01*
X149494414Y-72264821D01*
X149486057Y-72249043D01*
X149478541Y-72232527D01*
X149471879Y-72215273D01*
X149466085Y-72197280D01*
X149461171Y-72178547D01*
X149457149Y-72159072D01*
X149454032Y-72138855D01*
X149451833Y-72117895D01*
X149451681Y-72115249D01*
X149496813Y-72115249D01*
X149501276Y-72150718D01*
X149504622Y-72167520D01*
X149508708Y-72183700D01*
X149513535Y-72199255D01*
X149519102Y-72214185D01*
X149525406Y-72228489D01*
X149532448Y-72242166D01*
X149540227Y-72255216D01*
X149548741Y-72267636D01*
X149557989Y-72279427D01*
X149567971Y-72290587D01*
X149578685Y-72301115D01*
X149590131Y-72311011D01*
X149602307Y-72320273D01*
X149615213Y-72328900D01*
X149628848Y-72336892D01*
X149643210Y-72344247D01*
X149658299Y-72350964D01*
X149674114Y-72357043D01*
X149690654Y-72362482D01*
X149707917Y-72367281D01*
X149744611Y-72374954D01*
X149784189Y-72380053D01*
X149826643Y-72382571D01*
X149871964Y-72382500D01*
X149920146Y-72379832D01*
X150102708Y-72363957D01*
X149965124Y-71877124D01*
X149761396Y-71892999D01*
X149728340Y-71896105D01*
X149697612Y-71900487D01*
X149683113Y-71903167D01*
X149669187Y-71906178D01*
X149655829Y-71909526D01*
X149643037Y-71913215D01*
X149630806Y-71917248D01*
X149619134Y-71921631D01*
X149608018Y-71926367D01*
X149597453Y-71931462D01*
X149587436Y-71936919D01*
X149577965Y-71942742D01*
X149569035Y-71948937D01*
X149560644Y-71955507D01*
X149552787Y-71962457D01*
X149545462Y-71969791D01*
X149538665Y-71977513D01*
X149532392Y-71985629D01*
X149526641Y-71994142D01*
X149521408Y-72003056D01*
X149516689Y-72012377D01*
X149512481Y-72022107D01*
X149508781Y-72032253D01*
X149505586Y-72042817D01*
X149502891Y-72053805D01*
X149500694Y-72065221D01*
X149498991Y-72077069D01*
X149497779Y-72089353D01*
X149497054Y-72102078D01*
X149496813Y-72115249D01*
X149451681Y-72115249D01*
X149450948Y-72102515D01*
X149450768Y-72087629D01*
X149451287Y-72073231D01*
X149452495Y-72059320D01*
X149454385Y-72045891D01*
X149456949Y-72032941D01*
X149460180Y-72020467D01*
X149464070Y-72008465D01*
X149468611Y-71996932D01*
X149473796Y-71985865D01*
X149479616Y-71975260D01*
X149486064Y-71965113D01*
X149493132Y-71955423D01*
X149500812Y-71946184D01*
X149509097Y-71937393D01*
X149517979Y-71929048D01*
X149527450Y-71921145D01*
X149537502Y-71913681D01*
X149548128Y-71906651D01*
X149559320Y-71900053D01*
X149571070Y-71893883D01*
X149583370Y-71888138D01*
X149609591Y-71877909D01*
X149637920Y-71869340D01*
X149668296Y-71862401D01*
X149700655Y-71857068D01*
X149734938Y-71853311D01*
X149999520Y-71832145D01*
X150141608Y-72363957D01*
X150277333Y-72871957D01*
X150229708Y-72871957D01*
G36*
X155611332Y-86476831D02*
G01*
X155902374Y-86246644D01*
X155939416Y-86275748D01*
X155317645Y-86765227D01*
X155283249Y-86736123D01*
X155574291Y-86505935D01*
X154796416Y-85841832D01*
X154833458Y-85812728D01*
X155611332Y-86476831D01*
G37*
X155611332Y-86476831D02*
X155902374Y-86246644D01*
X155939416Y-86275748D01*
X155317645Y-86765227D01*
X155283249Y-86736123D01*
X155574291Y-86505935D01*
X154796416Y-85841832D01*
X154833458Y-85812728D01*
X155611332Y-86476831D01*
G36*
X146643723Y-86263065D02*
G01*
X146663789Y-86264659D01*
X146683720Y-86267378D01*
X146703466Y-86271213D01*
X146722979Y-86276158D01*
X146742211Y-86282204D01*
X146761113Y-86289342D01*
X146779637Y-86297565D01*
X146797735Y-86306866D01*
X146815357Y-86317235D01*
X146832457Y-86328665D01*
X146848423Y-86338591D01*
X146863866Y-86349194D01*
X146878766Y-86360451D01*
X146893107Y-86372339D01*
X146906869Y-86384838D01*
X146920036Y-86397924D01*
X146932589Y-86411575D01*
X146944511Y-86425769D01*
X146955784Y-86440485D01*
X146966390Y-86455698D01*
X146976311Y-86471389D01*
X146985529Y-86487533D01*
X146994027Y-86504109D01*
X147001787Y-86521095D01*
X147008791Y-86538469D01*
X147015020Y-86556207D01*
X146880083Y-86958374D01*
X146615500Y-86807561D01*
X146615500Y-86767873D01*
X146832458Y-86894873D01*
X146948876Y-86537686D01*
X146944120Y-86522543D01*
X146938634Y-86507725D01*
X146932435Y-86493256D01*
X146925543Y-86479157D01*
X146917975Y-86465451D01*
X146909750Y-86452162D01*
X146900887Y-86439312D01*
X146891404Y-86426923D01*
X146881319Y-86415020D01*
X146870651Y-86403624D01*
X146859417Y-86392759D01*
X146847637Y-86382446D01*
X146835329Y-86372710D01*
X146822510Y-86363573D01*
X146809201Y-86355057D01*
X146795418Y-86347186D01*
X146776683Y-86336911D01*
X146758184Y-86327896D01*
X146739925Y-86320116D01*
X146721908Y-86313545D01*
X146704138Y-86308155D01*
X146686616Y-86303921D01*
X146669348Y-86300817D01*
X146652336Y-86298817D01*
X146635584Y-86297894D01*
X146619095Y-86298023D01*
X146602872Y-86299176D01*
X146586919Y-86301329D01*
X146571239Y-86304454D01*
X146555836Y-86308526D01*
X146540713Y-86313518D01*
X146525874Y-86319405D01*
X146511321Y-86326160D01*
X146497058Y-86333757D01*
X146483089Y-86342170D01*
X146469417Y-86351372D01*
X146456045Y-86361338D01*
X146442977Y-86372041D01*
X146430217Y-86383456D01*
X146417766Y-86395555D01*
X146405630Y-86408314D01*
X146393811Y-86421705D01*
X146382313Y-86435703D01*
X146371139Y-86450281D01*
X146360292Y-86465413D01*
X146349776Y-86481073D01*
X146329751Y-86513874D01*
X146305855Y-86560722D01*
X146284932Y-86610596D01*
X146267226Y-86662928D01*
X146252980Y-86717148D01*
X146242440Y-86772685D01*
X146235849Y-86828971D01*
X146233452Y-86885434D01*
X146233903Y-86913555D01*
X146235493Y-86941506D01*
X146238254Y-86969218D01*
X146242215Y-86996617D01*
X146247409Y-87023634D01*
X146253864Y-87050197D01*
X146261612Y-87076235D01*
X146270683Y-87101677D01*
X146281107Y-87126451D01*
X146292916Y-87150486D01*
X146306139Y-87173711D01*
X146320808Y-87196055D01*
X146336952Y-87217446D01*
X146354602Y-87237814D01*
X146373789Y-87257087D01*
X146394544Y-87275193D01*
X146416896Y-87292063D01*
X146440876Y-87307623D01*
X146455069Y-87315781D01*
X146469670Y-87322852D01*
X146484621Y-87328834D01*
X146499863Y-87333729D01*
X146515339Y-87337536D01*
X146530990Y-87340255D01*
X146546758Y-87341887D01*
X146562584Y-87342431D01*
X146578410Y-87341887D01*
X146594178Y-87340255D01*
X146609829Y-87337536D01*
X146625304Y-87333729D01*
X146640547Y-87328834D01*
X146655498Y-87322852D01*
X146670099Y-87315781D01*
X146684292Y-87307623D01*
X146702811Y-87347312D01*
X146686338Y-87356215D01*
X146669443Y-87363931D01*
X146652185Y-87370461D01*
X146634627Y-87375803D01*
X146616827Y-87379957D01*
X146598846Y-87382925D01*
X146580745Y-87384706D01*
X146562583Y-87385300D01*
X146544421Y-87384706D01*
X146526320Y-87382925D01*
X146508339Y-87379957D01*
X146490539Y-87375803D01*
X146472980Y-87370461D01*
X146455723Y-87363931D01*
X146438827Y-87356215D01*
X146422354Y-87347312D01*
X146394768Y-87330007D01*
X146369041Y-87311378D01*
X146345136Y-87291496D01*
X146323021Y-87270432D01*
X146302662Y-87248258D01*
X146284025Y-87225045D01*
X146267076Y-87200864D01*
X146251780Y-87175787D01*
X146238105Y-87149883D01*
X146226016Y-87123226D01*
X146215479Y-87095885D01*
X146206460Y-87067933D01*
X146198926Y-87039439D01*
X146192842Y-87010477D01*
X146188175Y-86981116D01*
X146184890Y-86951428D01*
X146182333Y-86891356D01*
X146184900Y-86830831D01*
X146192320Y-86770422D01*
X146204320Y-86710699D01*
X146220631Y-86652231D01*
X146240979Y-86595590D01*
X146265096Y-86541343D01*
X146292708Y-86490061D01*
X146300725Y-86471121D01*
X146309763Y-86452779D01*
X146319784Y-86435071D01*
X146330753Y-86418028D01*
X146342634Y-86401685D01*
X146355390Y-86386074D01*
X146368986Y-86371230D01*
X146383385Y-86357184D01*
X146398552Y-86343970D01*
X146414450Y-86331622D01*
X146431043Y-86320173D01*
X146448295Y-86309656D01*
X146466171Y-86300104D01*
X146484633Y-86291551D01*
X146503646Y-86284029D01*
X146523174Y-86277573D01*
X146543041Y-86272249D01*
X146563062Y-86268099D01*
X146583190Y-86265113D01*
X146603374Y-86263284D01*
X146623568Y-86262604D01*
X146643723Y-86263065D01*
G37*
X146643723Y-86263065D02*
X146663789Y-86264659D01*
X146683720Y-86267378D01*
X146703466Y-86271213D01*
X146722979Y-86276158D01*
X146742211Y-86282204D01*
X146761113Y-86289342D01*
X146779637Y-86297565D01*
X146797735Y-86306866D01*
X146815357Y-86317235D01*
X146832457Y-86328665D01*
X146848423Y-86338591D01*
X146863866Y-86349194D01*
X146878766Y-86360451D01*
X146893107Y-86372339D01*
X146906869Y-86384838D01*
X146920036Y-86397924D01*
X146932589Y-86411575D01*
X146944511Y-86425769D01*
X146955784Y-86440485D01*
X146966390Y-86455698D01*
X146976311Y-86471389D01*
X146985529Y-86487533D01*
X146994027Y-86504109D01*
X147001787Y-86521095D01*
X147008791Y-86538469D01*
X147015020Y-86556207D01*
X146880083Y-86958374D01*
X146615500Y-86807561D01*
X146615500Y-86767873D01*
X146832458Y-86894873D01*
X146948876Y-86537686D01*
X146944120Y-86522543D01*
X146938634Y-86507725D01*
X146932435Y-86493256D01*
X146925543Y-86479157D01*
X146917975Y-86465451D01*
X146909750Y-86452162D01*
X146900887Y-86439312D01*
X146891404Y-86426923D01*
X146881319Y-86415020D01*
X146870651Y-86403624D01*
X146859417Y-86392759D01*
X146847637Y-86382446D01*
X146835329Y-86372710D01*
X146822510Y-86363573D01*
X146809201Y-86355057D01*
X146795418Y-86347186D01*
X146776683Y-86336911D01*
X146758184Y-86327896D01*
X146739925Y-86320116D01*
X146721908Y-86313545D01*
X146704138Y-86308155D01*
X146686616Y-86303921D01*
X146669348Y-86300817D01*
X146652336Y-86298817D01*
X146635584Y-86297894D01*
X146619095Y-86298023D01*
X146602872Y-86299176D01*
X146586919Y-86301329D01*
X146571239Y-86304454D01*
X146555836Y-86308526D01*
X146540713Y-86313518D01*
X146525874Y-86319405D01*
X146511321Y-86326160D01*
X146497058Y-86333757D01*
X146483089Y-86342170D01*
X146469417Y-86351372D01*
X146456045Y-86361338D01*
X146442977Y-86372041D01*
X146430217Y-86383456D01*
X146417766Y-86395555D01*
X146405630Y-86408314D01*
X146393811Y-86421705D01*
X146382313Y-86435703D01*
X146371139Y-86450281D01*
X146360292Y-86465413D01*
X146349776Y-86481073D01*
X146329751Y-86513874D01*
X146305855Y-86560722D01*
X146284932Y-86610596D01*
X146267226Y-86662928D01*
X146252980Y-86717148D01*
X146242440Y-86772685D01*
X146235849Y-86828971D01*
X146233452Y-86885434D01*
X146233903Y-86913555D01*
X146235493Y-86941506D01*
X146238254Y-86969218D01*
X146242215Y-86996617D01*
X146247409Y-87023634D01*
X146253864Y-87050197D01*
X146261612Y-87076235D01*
X146270683Y-87101677D01*
X146281107Y-87126451D01*
X146292916Y-87150486D01*
X146306139Y-87173711D01*
X146320808Y-87196055D01*
X146336952Y-87217446D01*
X146354602Y-87237814D01*
X146373789Y-87257087D01*
X146394544Y-87275193D01*
X146416896Y-87292063D01*
X146440876Y-87307623D01*
X146455069Y-87315781D01*
X146469670Y-87322852D01*
X146484621Y-87328834D01*
X146499863Y-87333729D01*
X146515339Y-87337536D01*
X146530990Y-87340255D01*
X146546758Y-87341887D01*
X146562584Y-87342431D01*
X146578410Y-87341887D01*
X146594178Y-87340255D01*
X146609829Y-87337536D01*
X146625304Y-87333729D01*
X146640547Y-87328834D01*
X146655498Y-87322852D01*
X146670099Y-87315781D01*
X146684292Y-87307623D01*
X146702811Y-87347312D01*
X146686338Y-87356215D01*
X146669443Y-87363931D01*
X146652185Y-87370461D01*
X146634627Y-87375803D01*
X146616827Y-87379957D01*
X146598846Y-87382925D01*
X146580745Y-87384706D01*
X146562583Y-87385300D01*
X146544421Y-87384706D01*
X146526320Y-87382925D01*
X146508339Y-87379957D01*
X146490539Y-87375803D01*
X146472980Y-87370461D01*
X146455723Y-87363931D01*
X146438827Y-87356215D01*
X146422354Y-87347312D01*
X146394768Y-87330007D01*
X146369041Y-87311378D01*
X146345136Y-87291496D01*
X146323021Y-87270432D01*
X146302662Y-87248258D01*
X146284025Y-87225045D01*
X146267076Y-87200864D01*
X146251780Y-87175787D01*
X146238105Y-87149883D01*
X146226016Y-87123226D01*
X146215479Y-87095885D01*
X146206460Y-87067933D01*
X146198926Y-87039439D01*
X146192842Y-87010477D01*
X146188175Y-86981116D01*
X146184890Y-86951428D01*
X146182333Y-86891356D01*
X146184900Y-86830831D01*
X146192320Y-86770422D01*
X146204320Y-86710699D01*
X146220631Y-86652231D01*
X146240979Y-86595590D01*
X146265096Y-86541343D01*
X146292708Y-86490061D01*
X146300725Y-86471121D01*
X146309763Y-86452779D01*
X146319784Y-86435071D01*
X146330753Y-86418028D01*
X146342634Y-86401685D01*
X146355390Y-86386074D01*
X146368986Y-86371230D01*
X146383385Y-86357184D01*
X146398552Y-86343970D01*
X146414450Y-86331622D01*
X146431043Y-86320173D01*
X146448295Y-86309656D01*
X146466171Y-86300104D01*
X146484633Y-86291551D01*
X146503646Y-86284029D01*
X146523174Y-86277573D01*
X146543041Y-86272249D01*
X146563062Y-86268099D01*
X146583190Y-86265113D01*
X146603374Y-86263284D01*
X146623568Y-86262604D01*
X146643723Y-86263065D01*
G36*
X158362999Y-77737644D02*
G01*
X157738582Y-78033978D01*
X157717248Y-78044511D01*
X157696892Y-78055265D01*
X157677502Y-78066230D01*
X157659063Y-78077397D01*
X157641562Y-78088753D01*
X157624985Y-78100288D01*
X157609319Y-78111992D01*
X157594550Y-78123854D01*
X157580665Y-78135863D01*
X157567650Y-78148009D01*
X157555491Y-78160280D01*
X157544176Y-78172667D01*
X157533690Y-78185159D01*
X157524019Y-78197744D01*
X157515151Y-78210413D01*
X157507072Y-78223155D01*
X157499768Y-78235959D01*
X157493225Y-78248814D01*
X157487431Y-78261709D01*
X157482371Y-78274635D01*
X157478031Y-78287580D01*
X157474400Y-78300534D01*
X157471461Y-78313486D01*
X157469204Y-78326425D01*
X157467612Y-78339341D01*
X157466674Y-78352223D01*
X157466375Y-78365061D01*
X157466702Y-78377843D01*
X157467642Y-78390560D01*
X157469180Y-78403199D01*
X157471304Y-78415752D01*
X157473999Y-78428207D01*
X157476876Y-78441968D01*
X157480526Y-78455457D01*
X157484929Y-78468645D01*
X157490065Y-78481506D01*
X157495912Y-78494010D01*
X157502450Y-78506132D01*
X157509659Y-78517842D01*
X157517519Y-78529113D01*
X157526008Y-78539919D01*
X157535106Y-78550230D01*
X157544794Y-78560019D01*
X157555049Y-78569259D01*
X157565853Y-78577922D01*
X157577184Y-78585980D01*
X157589021Y-78593405D01*
X157601345Y-78600171D01*
X157614042Y-78606207D01*
X157626990Y-78611462D01*
X157640155Y-78615937D01*
X157653501Y-78619629D01*
X157666995Y-78622540D01*
X157680601Y-78624669D01*
X157694287Y-78626015D01*
X157708017Y-78626578D01*
X157721756Y-78626357D01*
X157735471Y-78625352D01*
X157749126Y-78623562D01*
X157762688Y-78620988D01*
X157776122Y-78617628D01*
X157789394Y-78613482D01*
X157802468Y-78608551D01*
X157815312Y-78602832D01*
X157831127Y-78598970D01*
X157846794Y-78594595D01*
X157862303Y-78589713D01*
X157877639Y-78584328D01*
X157892791Y-78578446D01*
X157907746Y-78572069D01*
X157922494Y-78565203D01*
X157937020Y-78557853D01*
X158508520Y-78293269D01*
X158508520Y-78340894D01*
X157926436Y-78605478D01*
X157911320Y-78612229D01*
X157896072Y-78618661D01*
X157880696Y-78624773D01*
X157865198Y-78630562D01*
X157849582Y-78636027D01*
X157833854Y-78641166D01*
X157818019Y-78645976D01*
X157802082Y-78650457D01*
X157787806Y-78655302D01*
X157773361Y-78659305D01*
X157758782Y-78662470D01*
X157744106Y-78664801D01*
X157729366Y-78666300D01*
X157714598Y-78666971D01*
X157699837Y-78666816D01*
X157685119Y-78665841D01*
X157670477Y-78664047D01*
X157655948Y-78661438D01*
X157641566Y-78658018D01*
X157627367Y-78653789D01*
X157613385Y-78648755D01*
X157599655Y-78642920D01*
X157586214Y-78636286D01*
X157573095Y-78628857D01*
X157560420Y-78620694D01*
X157548299Y-78611876D01*
X157536751Y-78602432D01*
X157525795Y-78592391D01*
X157515451Y-78581784D01*
X157505738Y-78570640D01*
X157496675Y-78558988D01*
X157488282Y-78546857D01*
X157480577Y-78534278D01*
X157473580Y-78521280D01*
X157467310Y-78507893D01*
X157461787Y-78494145D01*
X157457029Y-78480067D01*
X157453056Y-78465688D01*
X157449887Y-78451037D01*
X157447541Y-78436144D01*
X157441303Y-78407170D01*
X157437572Y-78377859D01*
X157436695Y-78363107D01*
X157436501Y-78348307D01*
X157437009Y-78333471D01*
X157438239Y-78318612D01*
X157440209Y-78303741D01*
X157442938Y-78288870D01*
X157446446Y-78274012D01*
X157450750Y-78259179D01*
X157455870Y-78244382D01*
X157461825Y-78229635D01*
X157468633Y-78214948D01*
X157476314Y-78200335D01*
X157484887Y-78185807D01*
X157494369Y-78171376D01*
X157504781Y-78157055D01*
X157516141Y-78142855D01*
X157528468Y-78128789D01*
X157541781Y-78114869D01*
X157556099Y-78101107D01*
X157571440Y-78087515D01*
X157587824Y-78074105D01*
X157605269Y-78060889D01*
X157623795Y-78047880D01*
X157643420Y-78035089D01*
X157664163Y-78022529D01*
X157686044Y-78010211D01*
X157709080Y-77998149D01*
X157733291Y-77986353D01*
X158362999Y-77690019D01*
X158362999Y-77737644D01*
G37*
X158362999Y-77737644D02*
X157738582Y-78033978D01*
X157717248Y-78044511D01*
X157696892Y-78055265D01*
X157677502Y-78066230D01*
X157659063Y-78077397D01*
X157641562Y-78088753D01*
X157624985Y-78100288D01*
X157609319Y-78111992D01*
X157594550Y-78123854D01*
X157580665Y-78135863D01*
X157567650Y-78148009D01*
X157555491Y-78160280D01*
X157544176Y-78172667D01*
X157533690Y-78185159D01*
X157524019Y-78197744D01*
X157515151Y-78210413D01*
X157507072Y-78223155D01*
X157499768Y-78235959D01*
X157493225Y-78248814D01*
X157487431Y-78261709D01*
X157482371Y-78274635D01*
X157478031Y-78287580D01*
X157474400Y-78300534D01*
X157471461Y-78313486D01*
X157469204Y-78326425D01*
X157467612Y-78339341D01*
X157466674Y-78352223D01*
X157466375Y-78365061D01*
X157466702Y-78377843D01*
X157467642Y-78390560D01*
X157469180Y-78403199D01*
X157471304Y-78415752D01*
X157473999Y-78428207D01*
X157476876Y-78441968D01*
X157480526Y-78455457D01*
X157484929Y-78468645D01*
X157490065Y-78481506D01*
X157495912Y-78494010D01*
X157502450Y-78506132D01*
X157509659Y-78517842D01*
X157517519Y-78529113D01*
X157526008Y-78539919D01*
X157535106Y-78550230D01*
X157544794Y-78560019D01*
X157555049Y-78569259D01*
X157565853Y-78577922D01*
X157577184Y-78585980D01*
X157589021Y-78593405D01*
X157601345Y-78600171D01*
X157614042Y-78606207D01*
X157626990Y-78611462D01*
X157640155Y-78615937D01*
X157653501Y-78619629D01*
X157666995Y-78622540D01*
X157680601Y-78624669D01*
X157694287Y-78626015D01*
X157708017Y-78626578D01*
X157721756Y-78626357D01*
X157735471Y-78625352D01*
X157749126Y-78623562D01*
X157762688Y-78620988D01*
X157776122Y-78617628D01*
X157789394Y-78613482D01*
X157802468Y-78608551D01*
X157815312Y-78602832D01*
X157831127Y-78598970D01*
X157846794Y-78594595D01*
X157862303Y-78589713D01*
X157877639Y-78584328D01*
X157892791Y-78578446D01*
X157907746Y-78572069D01*
X157922494Y-78565203D01*
X157937020Y-78557853D01*
X158508520Y-78293269D01*
X158508520Y-78340894D01*
X157926436Y-78605478D01*
X157911320Y-78612229D01*
X157896072Y-78618661D01*
X157880696Y-78624773D01*
X157865198Y-78630562D01*
X157849582Y-78636027D01*
X157833854Y-78641166D01*
X157818019Y-78645976D01*
X157802082Y-78650457D01*
X157787806Y-78655302D01*
X157773361Y-78659305D01*
X157758782Y-78662470D01*
X157744106Y-78664801D01*
X157729366Y-78666300D01*
X157714598Y-78666971D01*
X157699837Y-78666816D01*
X157685119Y-78665841D01*
X157670477Y-78664047D01*
X157655948Y-78661438D01*
X157641566Y-78658018D01*
X157627367Y-78653789D01*
X157613385Y-78648755D01*
X157599655Y-78642920D01*
X157586214Y-78636286D01*
X157573095Y-78628857D01*
X157560420Y-78620694D01*
X157548299Y-78611876D01*
X157536751Y-78602432D01*
X157525795Y-78592391D01*
X157515451Y-78581784D01*
X157505738Y-78570640D01*
X157496675Y-78558988D01*
X157488282Y-78546857D01*
X157480577Y-78534278D01*
X157473580Y-78521280D01*
X157467310Y-78507893D01*
X157461787Y-78494145D01*
X157457029Y-78480067D01*
X157453056Y-78465688D01*
X157449887Y-78451037D01*
X157447541Y-78436144D01*
X157441303Y-78407170D01*
X157437572Y-78377859D01*
X157436695Y-78363107D01*
X157436501Y-78348307D01*
X157437009Y-78333471D01*
X157438239Y-78318612D01*
X157440209Y-78303741D01*
X157442938Y-78288870D01*
X157446446Y-78274012D01*
X157450750Y-78259179D01*
X157455870Y-78244382D01*
X157461825Y-78229635D01*
X157468633Y-78214948D01*
X157476314Y-78200335D01*
X157484887Y-78185807D01*
X157494369Y-78171376D01*
X157504781Y-78157055D01*
X157516141Y-78142855D01*
X157528468Y-78128789D01*
X157541781Y-78114869D01*
X157556099Y-78101107D01*
X157571440Y-78087515D01*
X157587824Y-78074105D01*
X157605269Y-78060889D01*
X157623795Y-78047880D01*
X157643420Y-78035089D01*
X157664163Y-78022529D01*
X157686044Y-78010211D01*
X157709080Y-77998149D01*
X157733291Y-77986353D01*
X158362999Y-77690019D01*
X158362999Y-77737644D01*
G36*
X158598478Y-78761582D02*
G01*
X157918499Y-78981186D01*
X157638041Y-79063207D01*
X157873520Y-79113478D01*
X158667270Y-79306624D01*
X158667270Y-79356895D01*
X157638041Y-79684978D01*
X157638041Y-79637353D01*
X158304791Y-79415103D01*
X158585249Y-79333082D01*
X158373582Y-79285457D01*
X157579833Y-79089666D01*
X157579833Y-79039394D01*
X158598478Y-78713957D01*
X158598478Y-78761582D01*
G37*
X158598478Y-78761582D02*
X157918499Y-78981186D01*
X157638041Y-79063207D01*
X157873520Y-79113478D01*
X158667270Y-79306624D01*
X158667270Y-79356895D01*
X157638041Y-79684978D01*
X157638041Y-79637353D01*
X158304791Y-79415103D01*
X158585249Y-79333082D01*
X158373582Y-79285457D01*
X157579833Y-79089666D01*
X157579833Y-79039394D01*
X158598478Y-78713957D01*
X158598478Y-78761582D01*
%TO.C,REF\u002A\u002A*%
G36*
X150957861Y-77218931D02*
G01*
X151041681Y-77663555D01*
X151660253Y-77918551D01*
X152031293Y-77666246D01*
X152104730Y-77616506D01*
X152202085Y-77551218D01*
X152286373Y-77495454D01*
X152353217Y-77452078D01*
X152398240Y-77423953D01*
X152417064Y-77413942D01*
X152428625Y-77421061D01*
X152463182Y-77450894D01*
X152515480Y-77499852D01*
X152581086Y-77563440D01*
X152655569Y-77637163D01*
X152734499Y-77716525D01*
X152813442Y-77797031D01*
X152887970Y-77874185D01*
X152953649Y-77943493D01*
X153006049Y-78000457D01*
X153040739Y-78040584D01*
X153053287Y-78059377D01*
X153050368Y-78067451D01*
X153030157Y-78103469D01*
X152993249Y-78162744D01*
X152942636Y-78240630D01*
X152881311Y-78332481D01*
X152812265Y-78433650D01*
X152774373Y-78488826D01*
X152709192Y-78584884D01*
X152653309Y-78668717D01*
X152609703Y-78735777D01*
X152581355Y-78781519D01*
X152571243Y-78801396D01*
X152571409Y-78802497D01*
X152580329Y-78827694D01*
X152600792Y-78879147D01*
X152629946Y-78950135D01*
X152664939Y-79033935D01*
X152702918Y-79123828D01*
X152741031Y-79213091D01*
X152776425Y-79295003D01*
X152806248Y-79362843D01*
X152827647Y-79409890D01*
X152837770Y-79429422D01*
X152843760Y-79431155D01*
X152880152Y-79438969D01*
X152945013Y-79451915D01*
X153033151Y-79468979D01*
X153139373Y-79489151D01*
X153258488Y-79511418D01*
X153321269Y-79523223D01*
X153436498Y-79545748D01*
X153537248Y-79566550D01*
X153618012Y-79584435D01*
X153673284Y-79598208D01*
X153697557Y-79606674D01*
X153701917Y-79615066D01*
X153709149Y-79656072D01*
X153714832Y-79724368D01*
X153718968Y-79813529D01*
X153721563Y-79917128D01*
X153722622Y-80028740D01*
X153722147Y-80141938D01*
X153720145Y-80250296D01*
X153716619Y-80347389D01*
X153711573Y-80426790D01*
X153705013Y-80482072D01*
X153696942Y-80506810D01*
X153692044Y-80509600D01*
X153655516Y-80521569D01*
X153592151Y-80537405D01*
X153509272Y-80555374D01*
X153414204Y-80573741D01*
X153382128Y-80579591D01*
X153233979Y-80606798D01*
X153117547Y-80628663D01*
X153028795Y-80646093D01*
X152963689Y-80659996D01*
X152918192Y-80671277D01*
X152888268Y-80680843D01*
X152869880Y-80689601D01*
X152858993Y-80698457D01*
X152857728Y-80699943D01*
X152839924Y-80730931D01*
X152813580Y-80787634D01*
X152781247Y-80863399D01*
X152745479Y-80951574D01*
X152708830Y-81045507D01*
X152673852Y-81138547D01*
X152643099Y-81224041D01*
X152619124Y-81295336D01*
X152604481Y-81345782D01*
X152601722Y-81368726D01*
X152603567Y-81371703D01*
X152622661Y-81400493D01*
X152658570Y-81453595D01*
X152707964Y-81526117D01*
X152767513Y-81613167D01*
X152833889Y-81709854D01*
X152852106Y-81736456D01*
X152916163Y-81831875D01*
X152971523Y-81917212D01*
X153015025Y-81987405D01*
X153043510Y-82037394D01*
X153053818Y-82062116D01*
X153051597Y-82068616D01*
X153028444Y-82100644D01*
X152982763Y-82152945D01*
X152917827Y-82221999D01*
X152836905Y-82304286D01*
X152743271Y-82396286D01*
X152689751Y-82447781D01*
X152605128Y-82527983D01*
X152531061Y-82596678D01*
X152471527Y-82650252D01*
X152430503Y-82685085D01*
X152411967Y-82697563D01*
X152399232Y-82692938D01*
X152360022Y-82671057D01*
X152303081Y-82635273D01*
X152235836Y-82590117D01*
X152188024Y-82557165D01*
X152092571Y-82491727D01*
X151990711Y-82422228D01*
X151897674Y-82359075D01*
X151715418Y-82235800D01*
X151562427Y-82318520D01*
X151526403Y-82337613D01*
X151460889Y-82370272D01*
X151410226Y-82392819D01*
X151383150Y-82401226D01*
X151374289Y-82390430D01*
X151352285Y-82349323D01*
X151319785Y-82281549D01*
X151278596Y-82191409D01*
X151230528Y-82083205D01*
X151177388Y-81961237D01*
X151120985Y-81829808D01*
X151063128Y-81693218D01*
X151005624Y-81555767D01*
X150950283Y-81421758D01*
X150898912Y-81295491D01*
X150853321Y-81181268D01*
X150815318Y-81083390D01*
X150786710Y-81006157D01*
X150769307Y-80953871D01*
X150764917Y-80930833D01*
X150765214Y-80930160D01*
X150785663Y-80908863D01*
X150828436Y-80875508D01*
X150884703Y-80837011D01*
X150902463Y-80825256D01*
X151037600Y-80713735D01*
X151149442Y-80580906D01*
X151235341Y-80432298D01*
X151292648Y-80273440D01*
X151318717Y-80109860D01*
X151310899Y-79947088D01*
X151279230Y-79802315D01*
X151222368Y-79656124D01*
X151139474Y-79525703D01*
X151025717Y-79401813D01*
X150981019Y-79362235D01*
X150836521Y-79264723D01*
X150680424Y-79199050D01*
X150517253Y-79164630D01*
X150351529Y-79160874D01*
X150187778Y-79187194D01*
X150030522Y-79243003D01*
X149884284Y-79327714D01*
X149753590Y-79440737D01*
X149642960Y-79581487D01*
X149621691Y-79616342D01*
X149549396Y-79775655D01*
X149511001Y-79941552D01*
X149505500Y-80109737D01*
X149531887Y-80275913D01*
X149589156Y-80435784D01*
X149676303Y-80585053D01*
X149792322Y-80719423D01*
X149936208Y-80834599D01*
X149940880Y-80837702D01*
X149996550Y-80876933D01*
X150038275Y-80910286D01*
X150057332Y-80930833D01*
X150054928Y-80946941D01*
X150039977Y-80993844D01*
X150013467Y-81066539D01*
X149977206Y-81160725D01*
X149933002Y-81272098D01*
X149882662Y-81396358D01*
X149827993Y-81529202D01*
X149770804Y-81666327D01*
X149712902Y-81803432D01*
X149656096Y-81936215D01*
X149602192Y-82060374D01*
X149552998Y-82171606D01*
X149510323Y-82265609D01*
X149475973Y-82338082D01*
X149451757Y-82384722D01*
X149439483Y-82401226D01*
X149429275Y-82398991D01*
X149389172Y-82382926D01*
X149329904Y-82354759D01*
X149260205Y-82318520D01*
X149107215Y-82235800D01*
X148924959Y-82359075D01*
X148871113Y-82395579D01*
X148770960Y-82463784D01*
X148671111Y-82532098D01*
X148586797Y-82590117D01*
X148540265Y-82621736D01*
X148479786Y-82661020D01*
X148434943Y-82687912D01*
X148413041Y-82697883D01*
X148403631Y-82693650D01*
X148369617Y-82667721D01*
X148317181Y-82622070D01*
X148250887Y-82561186D01*
X148175299Y-82489561D01*
X148094982Y-82411683D01*
X148014499Y-82332045D01*
X147938415Y-82255135D01*
X147871293Y-82185445D01*
X147817698Y-82127464D01*
X147782194Y-82085684D01*
X147769345Y-82064593D01*
X147770086Y-82060581D01*
X147785379Y-82027920D01*
X147818048Y-81971412D01*
X147864936Y-81896163D01*
X147922887Y-81807275D01*
X147988743Y-81709854D01*
X148007213Y-81682982D01*
X148072068Y-81588423D01*
X148129195Y-81504827D01*
X148175264Y-81437084D01*
X148206945Y-81390086D01*
X148220910Y-81368726D01*
X148221254Y-81367811D01*
X148217132Y-81341678D01*
X148201393Y-81288740D01*
X148176590Y-81215647D01*
X148145275Y-81129052D01*
X148110003Y-81035608D01*
X148073326Y-80941965D01*
X148037798Y-80854777D01*
X148005972Y-80780695D01*
X147980402Y-80726371D01*
X147963639Y-80698457D01*
X147961960Y-80696724D01*
X147949958Y-80687956D01*
X147929689Y-80679115D01*
X147897115Y-80669292D01*
X147848202Y-80657583D01*
X147778913Y-80643080D01*
X147685211Y-80624876D01*
X147563062Y-80602066D01*
X147408428Y-80573741D01*
X147376356Y-80567780D01*
X147284479Y-80549352D01*
X147207193Y-80531892D01*
X147151822Y-80517133D01*
X147125691Y-80506810D01*
X147121319Y-80498197D01*
X147114031Y-80456826D01*
X147108255Y-80388241D01*
X147103996Y-80298868D01*
X147101259Y-80195135D01*
X147100048Y-80083465D01*
X147100368Y-79970287D01*
X147102222Y-79862026D01*
X147105616Y-79765108D01*
X147110553Y-79685959D01*
X147117038Y-79631006D01*
X147125075Y-79606674D01*
X147133282Y-79603079D01*
X147174105Y-79591748D01*
X147243110Y-79575722D01*
X147334789Y-79556195D01*
X147443636Y-79534362D01*
X147564144Y-79511418D01*
X147629943Y-79499159D01*
X147742721Y-79477901D01*
X147839793Y-79459287D01*
X147915968Y-79444328D01*
X147966055Y-79434036D01*
X147984862Y-79429422D01*
X147985569Y-79428471D01*
X147997547Y-79404310D01*
X148020380Y-79353694D01*
X148051216Y-79283338D01*
X148087199Y-79199958D01*
X148125477Y-79110270D01*
X148163195Y-79020989D01*
X148197499Y-78938832D01*
X148225535Y-78870513D01*
X148244450Y-78822748D01*
X148251389Y-78802254D01*
X148248328Y-78795043D01*
X148227958Y-78760728D01*
X148191008Y-78702970D01*
X148140446Y-78626299D01*
X148079243Y-78535248D01*
X148010367Y-78434350D01*
X147972580Y-78379093D01*
X147907368Y-78282215D01*
X147851457Y-78197193D01*
X147807827Y-78128662D01*
X147779463Y-78081260D01*
X147769345Y-78059623D01*
X147776376Y-78047887D01*
X147805783Y-78012818D01*
X147854027Y-77959745D01*
X147916679Y-77893164D01*
X147989311Y-77817574D01*
X148067494Y-77737472D01*
X148146800Y-77657354D01*
X148222799Y-77581718D01*
X148291064Y-77515062D01*
X148347166Y-77461882D01*
X148386676Y-77426676D01*
X148405165Y-77413942D01*
X148415429Y-77418893D01*
X148453116Y-77441857D01*
X148513934Y-77480938D01*
X148593499Y-77533272D01*
X148687429Y-77595996D01*
X148791340Y-77666246D01*
X149162380Y-77918551D01*
X149471666Y-77791053D01*
X149780951Y-77663555D01*
X149864772Y-77218931D01*
X149948592Y-76774307D01*
X150874040Y-76774307D01*
X150957861Y-77218931D01*
G37*
D11*
X150957861Y-77218931D02*
X151041681Y-77663555D01*
X151660253Y-77918551D01*
X152031293Y-77666246D01*
X152104730Y-77616506D01*
X152202085Y-77551218D01*
X152286373Y-77495454D01*
X152353217Y-77452078D01*
X152398240Y-77423953D01*
X152417064Y-77413942D01*
X152428625Y-77421061D01*
X152463182Y-77450894D01*
X152515480Y-77499852D01*
X152581086Y-77563440D01*
X152655569Y-77637163D01*
X152734499Y-77716525D01*
X152813442Y-77797031D01*
X152887970Y-77874185D01*
X152953649Y-77943493D01*
X153006049Y-78000457D01*
X153040739Y-78040584D01*
X153053287Y-78059377D01*
X153050368Y-78067451D01*
X153030157Y-78103469D01*
X152993249Y-78162744D01*
X152942636Y-78240630D01*
X152881311Y-78332481D01*
X152812265Y-78433650D01*
X152774373Y-78488826D01*
X152709192Y-78584884D01*
X152653309Y-78668717D01*
X152609703Y-78735777D01*
X152581355Y-78781519D01*
X152571243Y-78801396D01*
X152571409Y-78802497D01*
X152580329Y-78827694D01*
X152600792Y-78879147D01*
X152629946Y-78950135D01*
X152664939Y-79033935D01*
X152702918Y-79123828D01*
X152741031Y-79213091D01*
X152776425Y-79295003D01*
X152806248Y-79362843D01*
X152827647Y-79409890D01*
X152837770Y-79429422D01*
X152843760Y-79431155D01*
X152880152Y-79438969D01*
X152945013Y-79451915D01*
X153033151Y-79468979D01*
X153139373Y-79489151D01*
X153258488Y-79511418D01*
X153321269Y-79523223D01*
X153436498Y-79545748D01*
X153537248Y-79566550D01*
X153618012Y-79584435D01*
X153673284Y-79598208D01*
X153697557Y-79606674D01*
X153701917Y-79615066D01*
X153709149Y-79656072D01*
X153714832Y-79724368D01*
X153718968Y-79813529D01*
X153721563Y-79917128D01*
X153722622Y-80028740D01*
X153722147Y-80141938D01*
X153720145Y-80250296D01*
X153716619Y-80347389D01*
X153711573Y-80426790D01*
X153705013Y-80482072D01*
X153696942Y-80506810D01*
X153692044Y-80509600D01*
X153655516Y-80521569D01*
X153592151Y-80537405D01*
X153509272Y-80555374D01*
X153414204Y-80573741D01*
X153382128Y-80579591D01*
X153233979Y-80606798D01*
X153117547Y-80628663D01*
X153028795Y-80646093D01*
X152963689Y-80659996D01*
X152918192Y-80671277D01*
X152888268Y-80680843D01*
X152869880Y-80689601D01*
X152858993Y-80698457D01*
X152857728Y-80699943D01*
X152839924Y-80730931D01*
X152813580Y-80787634D01*
X152781247Y-80863399D01*
X152745479Y-80951574D01*
X152708830Y-81045507D01*
X152673852Y-81138547D01*
X152643099Y-81224041D01*
X152619124Y-81295336D01*
X152604481Y-81345782D01*
X152601722Y-81368726D01*
X152603567Y-81371703D01*
X152622661Y-81400493D01*
X152658570Y-81453595D01*
X152707964Y-81526117D01*
X152767513Y-81613167D01*
X152833889Y-81709854D01*
X152852106Y-81736456D01*
X152916163Y-81831875D01*
X152971523Y-81917212D01*
X153015025Y-81987405D01*
X153043510Y-82037394D01*
X153053818Y-82062116D01*
X153051597Y-82068616D01*
X153028444Y-82100644D01*
X152982763Y-82152945D01*
X152917827Y-82221999D01*
X152836905Y-82304286D01*
X152743271Y-82396286D01*
X152689751Y-82447781D01*
X152605128Y-82527983D01*
X152531061Y-82596678D01*
X152471527Y-82650252D01*
X152430503Y-82685085D01*
X152411967Y-82697563D01*
X152399232Y-82692938D01*
X152360022Y-82671057D01*
X152303081Y-82635273D01*
X152235836Y-82590117D01*
X152188024Y-82557165D01*
X152092571Y-82491727D01*
X151990711Y-82422228D01*
X151897674Y-82359075D01*
X151715418Y-82235800D01*
X151562427Y-82318520D01*
X151526403Y-82337613D01*
X151460889Y-82370272D01*
X151410226Y-82392819D01*
X151383150Y-82401226D01*
X151374289Y-82390430D01*
X151352285Y-82349323D01*
X151319785Y-82281549D01*
X151278596Y-82191409D01*
X151230528Y-82083205D01*
X151177388Y-81961237D01*
X151120985Y-81829808D01*
X151063128Y-81693218D01*
X151005624Y-81555767D01*
X150950283Y-81421758D01*
X150898912Y-81295491D01*
X150853321Y-81181268D01*
X150815318Y-81083390D01*
X150786710Y-81006157D01*
X150769307Y-80953871D01*
X150764917Y-80930833D01*
X150765214Y-80930160D01*
X150785663Y-80908863D01*
X150828436Y-80875508D01*
X150884703Y-80837011D01*
X150902463Y-80825256D01*
X151037600Y-80713735D01*
X151149442Y-80580906D01*
X151235341Y-80432298D01*
X151292648Y-80273440D01*
X151318717Y-80109860D01*
X151310899Y-79947088D01*
X151279230Y-79802315D01*
X151222368Y-79656124D01*
X151139474Y-79525703D01*
X151025717Y-79401813D01*
X150981019Y-79362235D01*
X150836521Y-79264723D01*
X150680424Y-79199050D01*
X150517253Y-79164630D01*
X150351529Y-79160874D01*
X150187778Y-79187194D01*
X150030522Y-79243003D01*
X149884284Y-79327714D01*
X149753590Y-79440737D01*
X149642960Y-79581487D01*
X149621691Y-79616342D01*
X149549396Y-79775655D01*
X149511001Y-79941552D01*
X149505500Y-80109737D01*
X149531887Y-80275913D01*
X149589156Y-80435784D01*
X149676303Y-80585053D01*
X149792322Y-80719423D01*
X149936208Y-80834599D01*
X149940880Y-80837702D01*
X149996550Y-80876933D01*
X150038275Y-80910286D01*
X150057332Y-80930833D01*
X150054928Y-80946941D01*
X150039977Y-80993844D01*
X150013467Y-81066539D01*
X149977206Y-81160725D01*
X149933002Y-81272098D01*
X149882662Y-81396358D01*
X149827993Y-81529202D01*
X149770804Y-81666327D01*
X149712902Y-81803432D01*
X149656096Y-81936215D01*
X149602192Y-82060374D01*
X149552998Y-82171606D01*
X149510323Y-82265609D01*
X149475973Y-82338082D01*
X149451757Y-82384722D01*
X149439483Y-82401226D01*
X149429275Y-82398991D01*
X149389172Y-82382926D01*
X149329904Y-82354759D01*
X149260205Y-82318520D01*
X149107215Y-82235800D01*
X148924959Y-82359075D01*
X148871113Y-82395579D01*
X148770960Y-82463784D01*
X148671111Y-82532098D01*
X148586797Y-82590117D01*
X148540265Y-82621736D01*
X148479786Y-82661020D01*
X148434943Y-82687912D01*
X148413041Y-82697883D01*
X148403631Y-82693650D01*
X148369617Y-82667721D01*
X148317181Y-82622070D01*
X148250887Y-82561186D01*
X148175299Y-82489561D01*
X148094982Y-82411683D01*
X148014499Y-82332045D01*
X147938415Y-82255135D01*
X147871293Y-82185445D01*
X147817698Y-82127464D01*
X147782194Y-82085684D01*
X147769345Y-82064593D01*
X147770086Y-82060581D01*
X147785379Y-82027920D01*
X147818048Y-81971412D01*
X147864936Y-81896163D01*
X147922887Y-81807275D01*
X147988743Y-81709854D01*
X148007213Y-81682982D01*
X148072068Y-81588423D01*
X148129195Y-81504827D01*
X148175264Y-81437084D01*
X148206945Y-81390086D01*
X148220910Y-81368726D01*
X148221254Y-81367811D01*
X148217132Y-81341678D01*
X148201393Y-81288740D01*
X148176590Y-81215647D01*
X148145275Y-81129052D01*
X148110003Y-81035608D01*
X148073326Y-80941965D01*
X148037798Y-80854777D01*
X148005972Y-80780695D01*
X147980402Y-80726371D01*
X147963639Y-80698457D01*
X147961960Y-80696724D01*
X147949958Y-80687956D01*
X147929689Y-80679115D01*
X147897115Y-80669292D01*
X147848202Y-80657583D01*
X147778913Y-80643080D01*
X147685211Y-80624876D01*
X147563062Y-80602066D01*
X147408428Y-80573741D01*
X147376356Y-80567780D01*
X147284479Y-80549352D01*
X147207193Y-80531892D01*
X147151822Y-80517133D01*
X147125691Y-80506810D01*
X147121319Y-80498197D01*
X147114031Y-80456826D01*
X147108255Y-80388241D01*
X147103996Y-80298868D01*
X147101259Y-80195135D01*
X147100048Y-80083465D01*
X147100368Y-79970287D01*
X147102222Y-79862026D01*
X147105616Y-79765108D01*
X147110553Y-79685959D01*
X147117038Y-79631006D01*
X147125075Y-79606674D01*
X147133282Y-79603079D01*
X147174105Y-79591748D01*
X147243110Y-79575722D01*
X147334789Y-79556195D01*
X147443636Y-79534362D01*
X147564144Y-79511418D01*
X147629943Y-79499159D01*
X147742721Y-79477901D01*
X147839793Y-79459287D01*
X147915968Y-79444328D01*
X147966055Y-79434036D01*
X147984862Y-79429422D01*
X147985569Y-79428471D01*
X147997547Y-79404310D01*
X148020380Y-79353694D01*
X148051216Y-79283338D01*
X148087199Y-79199958D01*
X148125477Y-79110270D01*
X148163195Y-79020989D01*
X148197499Y-78938832D01*
X148225535Y-78870513D01*
X148244450Y-78822748D01*
X148251389Y-78802254D01*
X148248328Y-78795043D01*
X148227958Y-78760728D01*
X148191008Y-78702970D01*
X148140446Y-78626299D01*
X148079243Y-78535248D01*
X148010367Y-78434350D01*
X147972580Y-78379093D01*
X147907368Y-78282215D01*
X147851457Y-78197193D01*
X147807827Y-78128662D01*
X147779463Y-78081260D01*
X147769345Y-78059623D01*
X147776376Y-78047887D01*
X147805783Y-78012818D01*
X147854027Y-77959745D01*
X147916679Y-77893164D01*
X147989311Y-77817574D01*
X148067494Y-77737472D01*
X148146800Y-77657354D01*
X148222799Y-77581718D01*
X148291064Y-77515062D01*
X148347166Y-77461882D01*
X148386676Y-77426676D01*
X148405165Y-77413942D01*
X148415429Y-77418893D01*
X148453116Y-77441857D01*
X148513934Y-77480938D01*
X148593499Y-77533272D01*
X148687429Y-77595996D01*
X148791340Y-77666246D01*
X149162380Y-77918551D01*
X149471666Y-77791053D01*
X149780951Y-77663555D01*
X149864772Y-77218931D01*
X149948592Y-76774307D01*
X150874040Y-76774307D01*
X150957861Y-77218931D01*
%TD*%
M02*
