M48
INCH,TZ
T1C0.0236
T2C0.0256
%
G90
G05
T1
X6496Y-23622
X6496Y-25984
X11024Y-37008
X12598Y-38583
X23622Y-43130
X25984Y-43130
X37008Y-38583
X38583Y-37008
X43110Y-23622
X43110Y-25984
T2
G00X6900Y-23622
M15
G01X7313Y-23622
M16
G05
G00X6900Y-25984
M15
G01X7313Y-25984
M16
G05
G00X11309Y-36723
M15
G01X11601Y-36430
M16
G05
G00X12884Y-38297
M15
G01X13176Y-38005
M16
G05
G00X23622Y-42726
M15
G01X23622Y-42313
M16
G05
G00X25984Y-42726
M15
G01X25984Y-42313
M16
G05
G00X36723Y-38297
M15
G01X36430Y-38005
M16
G05
G00X38297Y-36723
M15
G01X38005Y-36430
M16
G05
G00X42707Y-23622
M15
G01X42293Y-23622
M16
G05
G00X42707Y-25984
M15
G01X42293Y-25984
M16
G05
T0
M30
