%TF.GenerationSoftware,KiCad,Pcbnew,(6.0.1-0)*%
%TF.CreationDate,2022-09-11T14:38:18-04:00*%
%TF.ProjectId,platter,706c6174-7465-4722-9e6b-696361645f70,rev?*%
%TF.SameCoordinates,Original*%
%TF.FileFunction,Copper,L2,Bot*%
%TF.FilePolarity,Positive*%
%FSLAX46Y46*%
G04 Gerber Fmt 4.6, Leading zero omitted, Abs format (unit mm)*
G04 Created by KiCad (PCBNEW (6.0.1-0)) date 2022-09-11 14:38:18*
%MOMM*%
%LPD*%
G01*
G04 APERTURE LIST*
G04 Aperture macros list*
%AMHorizOval*
0 Thick line with rounded ends*
0 $1 width*
0 $2 $3 position (X,Y) of the first rounded end (center of the circle)*
0 $4 $5 position (X,Y) of the second rounded end (center of the circle)*
0 Add line between two ends*
20,1,$1,$2,$3,$4,$5,0*
0 Add two circle primitives to create the rounded ends*
1,1,$1,$2,$3*
1,1,$1,$4,$5*%
%AMRotRect*
0 Rectangle, with rotation*
0 The origin of the aperture is its center*
0 $1 length*
0 $2 width*
0 $3 Rotation angle, in degrees counterclockwise*
0 Add horizontal line*
21,1,$1,$2,0,0,$3*%
G04 Aperture macros list end*
%TA.AperFunction,ComponentPad*%
%ADD10O,2.000000X0.950000*%
%TD*%
%TA.AperFunction,ComponentPad*%
%ADD11R,1.300000X0.900000*%
%TD*%
%TA.AperFunction,ComponentPad*%
%ADD12HorizOval,0.950000X0.371231X0.371231X-0.371231X-0.371231X0*%
%TD*%
%TA.AperFunction,ComponentPad*%
%ADD13RotRect,1.300000X0.900000X45.000000*%
%TD*%
%TA.AperFunction,ComponentPad*%
%ADD14O,0.950000X2.000000*%
%TD*%
%TA.AperFunction,ComponentPad*%
%ADD15R,0.900000X1.300000*%
%TD*%
%TA.AperFunction,ComponentPad*%
%ADD16HorizOval,0.950000X-0.371231X0.371231X0.371231X-0.371231X0*%
%TD*%
%TA.AperFunction,ComponentPad*%
%ADD17RotRect,1.300000X0.900000X135.000000*%
%TD*%
%TA.AperFunction,SMDPad,CuDef*%
%ADD18R,1.000000X1.500000*%
%TD*%
%TA.AperFunction,SMDPad,CuDef*%
%ADD19R,2.510000X1.000000*%
%TD*%
%TA.AperFunction,SMDPad,CuDef*%
%ADD20R,1.000000X2.510000*%
%TD*%
%TA.AperFunction,SMDPad,CuDef*%
%ADD21C,2.000000*%
%TD*%
%TA.AperFunction,Conductor*%
%ADD22C,0.500000*%
%TD*%
G04 APERTURE END LIST*
D10*
%TO.P,J3,*%
%TO.N,*%
X18050000Y-66000000D03*
D11*
%TO.P,J3,1,Pin_1*%
%TO.N,/FX_1*%
X16200000Y-66000000D03*
%TD*%
D10*
%TO.P,J11,*%
%TO.N,*%
X107950000Y-66000000D03*
D11*
%TO.P,J11,1,Pin_1*%
%TO.N,/FX_8*%
X109800000Y-66000000D03*
%TD*%
D12*
%TO.P,J4,*%
%TO.N,*%
X29096016Y-92903984D03*
D13*
%TO.P,J4,1,Pin_1*%
%TO.N,/FX_2*%
X27787868Y-94212132D03*
%TD*%
D12*
%TO.P,J5,*%
%TO.N,*%
X33096016Y-96903984D03*
D13*
%TO.P,J5,1,Pin_1*%
%TO.N,/FX_3*%
X31787868Y-98212132D03*
%TD*%
D14*
%TO.P,J8,*%
%TO.N,*%
X66000000Y-108000000D03*
D15*
%TO.P,J8,1,Pin_1*%
%TO.N,/FX_5*%
X66000000Y-109850000D03*
%TD*%
D10*
%TO.P,J12,*%
%TO.N,*%
X107950000Y-60000000D03*
D11*
%TO.P,J12,1,Pin_1*%
%TO.N,/FX_9*%
X109800000Y-60000000D03*
%TD*%
D16*
%TO.P,J10,*%
%TO.N,*%
X96903984Y-92903984D03*
D17*
%TO.P,J10,1,Pin_1*%
%TO.N,/FX_7*%
X98212132Y-94212132D03*
%TD*%
D16*
%TO.P,J9,*%
%TO.N,*%
X92903984Y-96903984D03*
D17*
%TO.P,J9,1,Pin_1*%
%TO.N,/FX_6*%
X94212132Y-98212132D03*
%TD*%
D10*
%TO.P,J2,*%
%TO.N,*%
X18050000Y-60000000D03*
D11*
%TO.P,J2,1,Pin_1*%
%TO.N,/FX_0*%
X16200000Y-60000000D03*
%TD*%
D14*
%TO.P,J6,*%
%TO.N,*%
X60000000Y-108000000D03*
D15*
%TO.P,J6,1,Pin_1*%
%TO.N,/FX_4*%
X60000000Y-109850000D03*
%TD*%
D18*
%TO.P,SW1,1,A*%
%TO.N,Net-(SW1-Pad1)*%
X52100000Y-22000000D03*
%TO.P,SW1,2,B*%
%TO.N,+BATT*%
X53400000Y-22000000D03*
%TD*%
D19*
%TO.P,U1,1,RST*%
%TO.N,unconnected-(U1-Pad1)*%
X43062500Y-19740000D03*
%TO.P,U1,2,0*%
%TO.N,/FX_0*%
X39752500Y-22280000D03*
%TO.P,U1,3,1*%
%TO.N,/FX_1*%
X43062500Y-24820000D03*
%TO.P,U1,4,2*%
%TO.N,/FX_2*%
X39752500Y-27360000D03*
%TO.P,U1,5,3*%
%TO.N,/FX_3*%
X43062500Y-29900000D03*
%TO.P,U1,6,4*%
%TO.N,/FX_4*%
X39752500Y-32440000D03*
%TO.P,U1,7,5*%
%TO.N,/FX_5*%
X43062500Y-34980000D03*
%TO.P,U1,8,6*%
%TO.N,/FX_6*%
X39752500Y-37520000D03*
%TO.P,U1,9,7*%
%TO.N,/FX_7*%
X43062500Y-40060000D03*
%TO.P,U1,10,8*%
%TO.N,/FX_8*%
X39752500Y-42600000D03*
%TO.P,U1,11,9*%
%TO.N,/FX_9*%
X43062500Y-45140000D03*
%TO.P,U1,12,10*%
%TO.N,/FX_10*%
X39752500Y-47680000D03*
%TO.P,U1,13,ACT*%
%TO.N,unconnected-(U1-Pad13)*%
X43062500Y-50220000D03*
%TO.P,U1,14,GND*%
%TO.N,GND*%
X39752500Y-52760000D03*
%TO.P,U1,15,GND*%
X19372500Y-52760000D03*
%TO.P,U1,16,L*%
%TO.N,unconnected-(U1-Pad16)*%
X22682500Y-50220000D03*
%TO.P,U1,17,R*%
%TO.N,unconnected-(U1-Pad17)*%
X19372500Y-47680000D03*
%TO.P,U1,18,GND*%
%TO.N,GND*%
X22682500Y-45140000D03*
%TO.P,U1,19,CS*%
%TO.N,unconnected-(U1-Pad19)*%
X19372500Y-42600000D03*
%TO.P,U1,20,VOL-*%
%TO.N,unconnected-(U1-Pad20)*%
X22682500Y-40060000D03*
%TO.P,U1,21,VOL+*%
%TO.N,unconnected-(U1-Pad21)*%
X19372500Y-37520000D03*
%TO.P,U1,22,UG*%
%TO.N,unconnected-(U1-Pad22)*%
X22682500Y-34980000D03*
%TO.P,U1,23,RX*%
%TO.N,unconnected-(U1-Pad23)*%
X19372500Y-32440000D03*
%TO.P,U1,24,TX*%
%TO.N,unconnected-(U1-Pad24)*%
X22682500Y-29900000D03*
%TO.P,U1,25,PB*%
%TO.N,unconnected-(U1-Pad25)*%
X19372500Y-27360000D03*
%TO.P,U1,26,BUS*%
%TO.N,+5V*%
X22682500Y-24820000D03*
%TO.P,U1,27,GND*%
%TO.N,GND*%
X19372500Y-22280000D03*
%TO.P,U1,28,VIN*%
%TO.N,Net-(SW1-Pad1)*%
X22682500Y-19740000D03*
%TD*%
D20*
%TO.P,J7,1,Pin_1*%
%TO.N,+5V*%
X59190000Y-47345000D03*
%TO.P,J7,2,Pin_2*%
%TO.N,GND*%
X61730000Y-50655000D03*
%TO.P,J7,3,Pin_3*%
X64270000Y-47345000D03*
%TO.P,J7,4,Pin_4*%
%TO.N,+BATT*%
X66810000Y-50655000D03*
%TD*%
D21*
%TO.P,J1,1,Pin_1*%
%TO.N,GND*%
X63000000Y-22000000D03*
%TD*%
D22*
%TO.N,/FX_0*%
X22000000Y-27750000D02*
X25250000Y-27750000D01*
X39722500Y-22250000D02*
X39752500Y-22280000D01*
X15750000Y-59250000D02*
X15750000Y-32250000D01*
X16500000Y-60000000D02*
X15750000Y-59250000D01*
X30750000Y-22250000D02*
X39722500Y-22250000D01*
X17750000Y-30250000D02*
X19500000Y-30250000D01*
X25250000Y-27750000D02*
X30750000Y-22250000D01*
X19500000Y-30250000D02*
X22000000Y-27750000D01*
X15750000Y-32250000D02*
X17750000Y-30250000D01*
%TO.N,+5V*%
X59190000Y-32190000D02*
X59190000Y-47345000D01*
X22682500Y-24820000D02*
X29752500Y-17750000D01*
X29752500Y-17750000D02*
X44750000Y-17750000D01*
X44750000Y-17750000D02*
X59190000Y-32190000D01*
%TO.N,+BATT*%
X66810000Y-50655000D02*
X66750000Y-50595000D01*
X66750000Y-36250000D02*
X53400000Y-22900000D01*
X53400000Y-22900000D02*
X53400000Y-22000000D01*
X66750000Y-50595000D02*
X66750000Y-36250000D01*
%TO.N,/FX_1*%
X19983261Y-34750000D02*
X22233261Y-32500000D01*
X17000000Y-55250000D02*
X17000000Y-36497119D01*
X17000000Y-36497119D02*
X18747119Y-34750000D01*
X33680000Y-24820000D02*
X43062500Y-24820000D01*
X22233261Y-32500000D02*
X26000000Y-32500000D01*
X26000000Y-32500000D02*
X33680000Y-24820000D01*
X20000000Y-58250000D02*
X17000000Y-55250000D01*
X16500000Y-66000000D02*
X16500000Y-65000000D01*
X20000000Y-61500000D02*
X20000000Y-58250000D01*
X16500000Y-65000000D02*
X20000000Y-61500000D01*
X18747119Y-34750000D02*
X19983261Y-34750000D01*
%TO.N,/FX_2*%
X35140000Y-27360000D02*
X39752500Y-27360000D01*
X25750000Y-36750000D02*
X35140000Y-27360000D01*
X27500000Y-94000000D02*
X25750000Y-92250000D01*
X28000000Y-94000000D02*
X27500000Y-94000000D01*
X25750000Y-92250000D02*
X25750000Y-36750000D01*
%TO.N,/FX_3*%
X27750000Y-37750000D02*
X27750000Y-85250000D01*
X31250000Y-97250000D02*
X32000000Y-98000000D01*
X31250000Y-88750000D02*
X31250000Y-97250000D01*
X27750000Y-85250000D02*
X31250000Y-88750000D01*
X35600000Y-29900000D02*
X27750000Y-37750000D01*
X43062500Y-29900000D02*
X35600000Y-29900000D01*
%TO.N,/FX_4*%
X36560000Y-32440000D02*
X29750000Y-39250000D01*
X29750000Y-84250000D02*
X55050000Y-109550000D01*
X29750000Y-39250000D02*
X29750000Y-84250000D01*
X55050000Y-109550000D02*
X60000000Y-109550000D01*
X39752500Y-32440000D02*
X36560000Y-32440000D01*
%TO.N,/FX_5*%
X37270000Y-34980000D02*
X43062500Y-34980000D01*
X65717532Y-109550000D02*
X31750000Y-75582468D01*
X66000000Y-109550000D02*
X65717532Y-109550000D01*
X31750000Y-75582468D02*
X31750000Y-40500000D01*
X31750000Y-40500000D02*
X37270000Y-34980000D01*
%TO.N,/FX_6*%
X33750000Y-42000000D02*
X33750000Y-65500000D01*
X38230000Y-37520000D02*
X33750000Y-42000000D01*
X66449734Y-98199734D02*
X93800266Y-98199734D01*
X93800266Y-98199734D02*
X94000000Y-98000000D01*
X39752500Y-37520000D02*
X38230000Y-37520000D01*
X33750000Y-65500000D02*
X66449734Y-98199734D01*
%TO.N,/FX_7*%
X38690000Y-40060000D02*
X43062500Y-40060000D01*
X98000000Y-94000000D02*
X97800266Y-94199734D01*
X35750000Y-43000000D02*
X38690000Y-40060000D01*
X70699734Y-94199734D02*
X35750000Y-59250000D01*
X97800266Y-94199734D02*
X70699734Y-94199734D01*
X35750000Y-59250000D02*
X35750000Y-43000000D01*
%TO.N,/FX_8*%
X42750000Y-47750000D02*
X44250000Y-47750000D01*
X109500000Y-65250000D02*
X109500000Y-66000000D01*
X39752500Y-44752500D02*
X42750000Y-47750000D01*
X52500000Y-56000000D02*
X100250000Y-56000000D01*
X39752500Y-42600000D02*
X39752500Y-44752500D01*
X100250000Y-56000000D02*
X109500000Y-65250000D01*
X44250000Y-47750000D02*
X52500000Y-56000000D01*
%TO.N,/FX_9*%
X109500000Y-58750000D02*
X109500000Y-60000000D01*
X105000000Y-54250000D02*
X109500000Y-58750000D01*
X43062500Y-45140000D02*
X44140000Y-45140000D01*
X44140000Y-45140000D02*
X53250000Y-54250000D01*
X53250000Y-54250000D02*
X105000000Y-54250000D01*
%TO.N,Net-(SW1-Pad1)*%
X51000000Y-22000000D02*
X45500000Y-16500000D01*
X45500000Y-16500000D02*
X25922500Y-16500000D01*
X52100000Y-22000000D02*
X51000000Y-22000000D01*
X25922500Y-16500000D02*
X22682500Y-19740000D01*
%TD*%
%TA.AperFunction,Conductor*%
%TO.N,GND*%
G36*
X112434121Y-13528002D02*
G01*
X112480614Y-13581658D01*
X112492000Y-13634000D01*
X112492000Y-112366000D01*
X112471998Y-112434121D01*
X112418342Y-112480614D01*
X112366000Y-112492000D01*
X13634000Y-112492000D01*
X13565879Y-112471998D01*
X13519386Y-112418342D01*
X13508000Y-112366000D01*
X13508000Y-92223349D01*
X24986801Y-92223349D01*
X24987394Y-92230641D01*
X24987394Y-92230644D01*
X24991085Y-92276018D01*
X24991500Y-92286233D01*
X24991500Y-92294293D01*
X24991925Y-92297937D01*
X24994789Y-92322507D01*
X24995222Y-92326882D01*
X25001140Y-92399637D01*
X25003396Y-92406601D01*
X25004587Y-92412560D01*
X25005971Y-92418415D01*
X25006818Y-92425681D01*
X25031735Y-92494327D01*
X25033152Y-92498455D01*
X25055649Y-92567899D01*
X25059445Y-92574154D01*
X25061951Y-92579628D01*
X25064670Y-92585058D01*
X25067167Y-92591937D01*
X25071180Y-92598057D01*
X25071180Y-92598058D01*
X25107186Y-92652976D01*
X25109523Y-92656680D01*
X25147405Y-92719107D01*
X25151121Y-92723315D01*
X25151122Y-92723316D01*
X25154803Y-92727484D01*
X25154776Y-92727508D01*
X25157429Y-92730500D01*
X25160132Y-92733733D01*
X25164144Y-92739852D01*
X25169456Y-92744884D01*
X25220383Y-92793128D01*
X25222825Y-92795506D01*
X26492639Y-94065320D01*
X26526665Y-94127632D01*
X26522044Y-94192237D01*
X26523206Y-94192577D01*
X26521636Y-94197947D01*
X26521600Y-94198447D01*
X26521223Y-94199360D01*
X26520686Y-94201196D01*
X26516971Y-94209367D01*
X26496322Y-94353553D01*
X26516971Y-94497739D01*
X26577258Y-94630335D01*
X26582205Y-94636488D01*
X26582207Y-94636491D01*
X26602995Y-94662345D01*
X26616451Y-94679081D01*
X27320919Y-95383549D01*
X27323581Y-95385689D01*
X27363509Y-95417793D01*
X27363512Y-95417795D01*
X27369665Y-95422742D01*
X27502261Y-95483029D01*
X27511144Y-95484301D01*
X27511147Y-95484302D01*
X27637558Y-95502405D01*
X27646447Y-95503678D01*
X27655336Y-95502405D01*
X27781747Y-95484302D01*
X27781750Y-95484301D01*
X27790633Y-95483029D01*
X27923229Y-95422742D01*
X27929382Y-95417795D01*
X27929385Y-95417793D01*
X27969313Y-95385689D01*
X27971975Y-95383549D01*
X28959285Y-94396239D01*
X28986459Y-94362442D01*
X28993529Y-94353649D01*
X28993531Y-94353646D01*
X28998478Y-94347493D01*
X29045551Y-94243960D01*
X29091954Y-94190227D01*
X29113868Y-94178959D01*
X29179726Y-94152884D01*
X29296038Y-94076771D01*
X29342861Y-94046131D01*
X29342865Y-94046128D01*
X29346913Y-94043479D01*
X29351797Y-94039082D01*
X30197995Y-93192884D01*
X30267858Y-93107224D01*
X30326412Y-93067077D01*
X30397377Y-93064960D01*
X30458221Y-93101545D01*
X30489627Y-93165218D01*
X30491500Y-93186861D01*
X30491500Y-97182930D01*
X30490067Y-97201880D01*
X30486801Y-97223349D01*
X30487394Y-97230641D01*
X30487394Y-97230644D01*
X30491085Y-97276018D01*
X30491500Y-97286233D01*
X30491500Y-97294293D01*
X30491925Y-97297937D01*
X30494789Y-97322507D01*
X30495222Y-97326882D01*
X30501140Y-97399637D01*
X30503396Y-97406601D01*
X30504587Y-97412560D01*
X30505971Y-97418415D01*
X30506818Y-97425681D01*
X30531735Y-97494327D01*
X30533152Y-97498455D01*
X30555649Y-97567899D01*
X30559445Y-97574154D01*
X30561951Y-97579628D01*
X30564670Y-97585058D01*
X30567167Y-97591937D01*
X30571180Y-97598057D01*
X30571180Y-97598058D01*
X30607186Y-97652976D01*
X30609523Y-97656680D01*
X30647405Y-97719107D01*
X30651121Y-97723315D01*
X30651122Y-97723316D01*
X30654803Y-97727484D01*
X30654776Y-97727508D01*
X30657429Y-97730500D01*
X30660132Y-97733733D01*
X30664144Y-97739852D01*
X30669456Y-97744884D01*
X30693656Y-97767809D01*
X30729354Y-97829178D01*
X30726206Y-97900105D01*
X30696098Y-97948377D01*
X30618865Y-98025610D01*
X30618856Y-98025620D01*
X30616451Y-98028025D01*
X30614318Y-98030678D01*
X30614317Y-98030679D01*
X30582207Y-98070615D01*
X30582205Y-98070618D01*
X30577258Y-98076771D01*
X30573990Y-98083959D01*
X30530797Y-98178959D01*
X30516971Y-98209367D01*
X30496322Y-98353553D01*
X30516971Y-98497739D01*
X30577258Y-98630335D01*
X30582205Y-98636488D01*
X30582207Y-98636491D01*
X30602995Y-98662345D01*
X30616451Y-98679081D01*
X31320919Y-99383549D01*
X31323581Y-99385689D01*
X31363509Y-99417793D01*
X31363512Y-99417795D01*
X31369665Y-99422742D01*
X31502261Y-99483029D01*
X31511144Y-99484301D01*
X31511147Y-99484302D01*
X31637558Y-99502405D01*
X31646447Y-99503678D01*
X31655336Y-99502405D01*
X31781747Y-99484302D01*
X31781750Y-99484301D01*
X31790633Y-99483029D01*
X31923229Y-99422742D01*
X31929382Y-99417795D01*
X31929385Y-99417793D01*
X31969313Y-99385689D01*
X31971975Y-99383549D01*
X32959285Y-98396239D01*
X32986459Y-98362442D01*
X32993529Y-98353649D01*
X32993531Y-98353646D01*
X32998478Y-98347493D01*
X33045551Y-98243960D01*
X33091954Y-98190227D01*
X33113868Y-98178959D01*
X33179726Y-98152884D01*
X33296038Y-98076771D01*
X33342861Y-98046131D01*
X33342865Y-98046128D01*
X33346913Y-98043479D01*
X33351797Y-98039082D01*
X34197995Y-97192884D01*
X34224045Y-97160944D01*
X34288523Y-97081887D01*
X34288524Y-97081885D01*
X34292555Y-97076943D01*
X34295507Y-97071295D01*
X34295511Y-97071290D01*
X34382164Y-96905534D01*
X34385122Y-96899876D01*
X34440195Y-96707814D01*
X34448443Y-96600621D01*
X34455035Y-96514960D01*
X34455035Y-96514956D01*
X34455524Y-96508600D01*
X34430482Y-96310372D01*
X34366093Y-96121229D01*
X34264986Y-95948897D01*
X34188940Y-95864439D01*
X34135564Y-95805159D01*
X34135561Y-95805156D01*
X34131291Y-95800414D01*
X33970471Y-95681847D01*
X33789095Y-95598040D01*
X33594571Y-95552415D01*
X33482190Y-95549276D01*
X33401228Y-95547014D01*
X33401225Y-95547014D01*
X33394846Y-95546836D01*
X33198078Y-95581532D01*
X33012306Y-95655083D01*
X32975496Y-95679171D01*
X32849171Y-95761836D01*
X32849167Y-95761839D01*
X32845119Y-95764488D01*
X32840235Y-95768886D01*
X32223595Y-96385526D01*
X32161283Y-96419552D01*
X32090468Y-96414487D01*
X32033632Y-96371940D01*
X32008821Y-96305420D01*
X32008500Y-96296431D01*
X32008500Y-88817063D01*
X32009933Y-88798114D01*
X32012097Y-88783886D01*
X32013198Y-88776651D01*
X32008915Y-88723990D01*
X32008500Y-88713777D01*
X32008500Y-88705707D01*
X32008078Y-88702087D01*
X32008077Y-88702069D01*
X32005208Y-88677461D01*
X32004775Y-88673086D01*
X31999454Y-88607661D01*
X31999453Y-88607658D01*
X31998860Y-88600363D01*
X31996604Y-88593399D01*
X31995413Y-88587440D01*
X31994029Y-88581585D01*
X31993182Y-88574319D01*
X31968265Y-88505673D01*
X31966848Y-88501545D01*
X31946607Y-88439064D01*
X31946606Y-88439062D01*
X31944351Y-88432101D01*
X31940555Y-88425846D01*
X31938049Y-88420372D01*
X31935330Y-88414942D01*
X31932833Y-88408063D01*
X31892809Y-88347016D01*
X31890472Y-88343312D01*
X31855509Y-88285693D01*
X31855505Y-88285688D01*
X31852595Y-88280892D01*
X31845197Y-88272516D01*
X31845223Y-88272493D01*
X31842574Y-88269503D01*
X31839866Y-88266264D01*
X31835856Y-88260148D01*
X31830549Y-88255121D01*
X31830546Y-88255117D01*
X31779617Y-88206872D01*
X31777175Y-88204494D01*
X28545405Y-84972724D01*
X28511379Y-84910412D01*
X28508500Y-84883629D01*
X28508500Y-84223349D01*
X28986801Y-84223349D01*
X28987394Y-84230641D01*
X28987394Y-84230644D01*
X28991085Y-84276018D01*
X28991500Y-84286233D01*
X28991500Y-84294293D01*
X28991925Y-84297937D01*
X28994789Y-84322507D01*
X28995222Y-84326882D01*
X29001140Y-84399637D01*
X29003396Y-84406601D01*
X29004587Y-84412560D01*
X29005971Y-84418415D01*
X29006818Y-84425681D01*
X29031735Y-84494327D01*
X29033152Y-84498455D01*
X29055649Y-84567899D01*
X29059445Y-84574154D01*
X29061951Y-84579628D01*
X29064670Y-84585058D01*
X29067167Y-84591937D01*
X29071180Y-84598057D01*
X29071180Y-84598058D01*
X29107186Y-84652976D01*
X29109523Y-84656680D01*
X29147405Y-84719107D01*
X29151121Y-84723315D01*
X29151122Y-84723316D01*
X29154803Y-84727484D01*
X29154776Y-84727508D01*
X29157429Y-84730500D01*
X29160132Y-84733733D01*
X29164144Y-84739852D01*
X29169456Y-84744884D01*
X29220383Y-84793128D01*
X29222825Y-84795506D01*
X54466230Y-110038911D01*
X54478616Y-110053323D01*
X54487149Y-110064918D01*
X54487154Y-110064923D01*
X54491492Y-110070818D01*
X54497070Y-110075557D01*
X54497073Y-110075560D01*
X54531768Y-110105035D01*
X54539284Y-110111965D01*
X54544979Y-110117660D01*
X54547861Y-110119940D01*
X54567251Y-110135281D01*
X54570655Y-110138072D01*
X54620703Y-110180591D01*
X54626285Y-110185333D01*
X54632801Y-110188661D01*
X54637850Y-110192028D01*
X54642979Y-110195195D01*
X54648716Y-110199734D01*
X54714875Y-110230655D01*
X54718769Y-110232558D01*
X54783808Y-110265769D01*
X54790916Y-110267508D01*
X54796559Y-110269607D01*
X54802322Y-110271524D01*
X54808950Y-110274622D01*
X54816112Y-110276112D01*
X54816113Y-110276112D01*
X54880412Y-110289486D01*
X54884696Y-110290456D01*
X54955610Y-110307808D01*
X54961212Y-110308156D01*
X54961215Y-110308156D01*
X54966764Y-110308500D01*
X54966762Y-110308536D01*
X54970755Y-110308775D01*
X54974947Y-110309149D01*
X54982115Y-110310640D01*
X55059520Y-110308546D01*
X55062928Y-110308500D01*
X58915500Y-110308500D01*
X58983621Y-110328502D01*
X59030114Y-110382158D01*
X59041500Y-110434500D01*
X59041500Y-110548134D01*
X59048255Y-110610316D01*
X59099385Y-110746705D01*
X59186739Y-110863261D01*
X59303295Y-110950615D01*
X59439684Y-111001745D01*
X59501866Y-111008500D01*
X60498134Y-111008500D01*
X60560316Y-111001745D01*
X60696705Y-110950615D01*
X60813261Y-110863261D01*
X60900615Y-110746705D01*
X60951745Y-110610316D01*
X60958500Y-110548134D01*
X60958500Y-109151866D01*
X60951745Y-109089684D01*
X60911822Y-108983189D01*
X60906639Y-108912384D01*
X60914167Y-108888920D01*
X60939762Y-108829774D01*
X60942298Y-108823914D01*
X60983156Y-108628334D01*
X60983500Y-108621771D01*
X60983500Y-107425066D01*
X60968381Y-107276220D01*
X60908631Y-107085560D01*
X60811765Y-106910809D01*
X60681739Y-106759104D01*
X60676700Y-106755195D01*
X60528907Y-106640555D01*
X60528904Y-106640553D01*
X60523863Y-106636643D01*
X60518137Y-106633825D01*
X60518133Y-106633823D01*
X60350318Y-106551248D01*
X60344589Y-106548429D01*
X60225797Y-106517486D01*
X60157420Y-106499675D01*
X60157417Y-106499675D01*
X60151238Y-106498065D01*
X60057744Y-106493165D01*
X59958089Y-106487942D01*
X59958085Y-106487942D01*
X59951708Y-106487608D01*
X59754152Y-106517486D01*
X59566639Y-106586477D01*
X59396828Y-106691765D01*
X59251656Y-106829047D01*
X59137054Y-106992716D01*
X59057702Y-107176086D01*
X59016844Y-107371666D01*
X59016500Y-107378229D01*
X59016500Y-108574934D01*
X59021258Y-108621771D01*
X59024406Y-108652767D01*
X59011390Y-108722560D01*
X58962708Y-108774237D01*
X58899051Y-108791500D01*
X55416371Y-108791500D01*
X55348250Y-108771498D01*
X55327276Y-108754595D01*
X30545405Y-83972724D01*
X30511379Y-83910412D01*
X30508500Y-83883629D01*
X30508500Y-75555817D01*
X30986801Y-75555817D01*
X30987394Y-75563109D01*
X30987394Y-75563112D01*
X30991085Y-75608486D01*
X30991500Y-75618701D01*
X30991500Y-75626761D01*
X30991925Y-75630405D01*
X30994789Y-75654975D01*
X30995222Y-75659350D01*
X31001140Y-75732105D01*
X31003396Y-75739069D01*
X31004587Y-75745028D01*
X31005971Y-75750883D01*
X31006818Y-75758149D01*
X31031735Y-75826795D01*
X31033152Y-75830923D01*
X31055649Y-75900367D01*
X31059445Y-75906622D01*
X31061951Y-75912096D01*
X31064670Y-75917526D01*
X31067167Y-75924405D01*
X31071180Y-75930525D01*
X31071180Y-75930526D01*
X31107186Y-75985444D01*
X31109523Y-75989148D01*
X31147405Y-76051575D01*
X31151121Y-76055783D01*
X31151122Y-76055784D01*
X31154803Y-76059952D01*
X31154776Y-76059976D01*
X31157429Y-76062968D01*
X31160132Y-76066201D01*
X31164144Y-76072320D01*
X31169456Y-76077352D01*
X31220383Y-76125596D01*
X31222825Y-76127974D01*
X65004595Y-109909744D01*
X65038621Y-109972056D01*
X65041500Y-109998839D01*
X65041500Y-110548134D01*
X65048255Y-110610316D01*
X65099385Y-110746705D01*
X65186739Y-110863261D01*
X65303295Y-110950615D01*
X65439684Y-111001745D01*
X65501866Y-111008500D01*
X66498134Y-111008500D01*
X66560316Y-111001745D01*
X66696705Y-110950615D01*
X66813261Y-110863261D01*
X66900615Y-110746705D01*
X66951745Y-110610316D01*
X66958500Y-110548134D01*
X66958500Y-109151866D01*
X66951745Y-109089684D01*
X66911822Y-108983189D01*
X66906639Y-108912384D01*
X66914167Y-108888920D01*
X66939762Y-108829774D01*
X66942298Y-108823914D01*
X66983156Y-108628334D01*
X66983500Y-108621771D01*
X66983500Y-107425066D01*
X66968381Y-107276220D01*
X66908631Y-107085560D01*
X66811765Y-106910809D01*
X66681739Y-106759104D01*
X66676700Y-106755195D01*
X66528907Y-106640555D01*
X66528904Y-106640553D01*
X66523863Y-106636643D01*
X66518137Y-106633825D01*
X66518133Y-106633823D01*
X66350318Y-106551248D01*
X66344589Y-106548429D01*
X66225797Y-106517486D01*
X66157420Y-106499675D01*
X66157417Y-106499675D01*
X66151238Y-106498065D01*
X66057744Y-106493165D01*
X65958089Y-106487942D01*
X65958085Y-106487942D01*
X65951708Y-106487608D01*
X65754152Y-106517486D01*
X65566639Y-106586477D01*
X65396828Y-106691765D01*
X65251656Y-106829047D01*
X65137054Y-106992716D01*
X65057702Y-107176086D01*
X65016844Y-107371666D01*
X65016500Y-107378229D01*
X65016500Y-107472097D01*
X64996498Y-107540218D01*
X64942842Y-107586711D01*
X64872568Y-107596815D01*
X64807988Y-107567321D01*
X64801405Y-107561192D01*
X32545405Y-75305192D01*
X32511379Y-75242880D01*
X32508500Y-75216097D01*
X32508500Y-65473349D01*
X32986801Y-65473349D01*
X32987394Y-65480641D01*
X32987394Y-65480644D01*
X32991085Y-65526018D01*
X32991500Y-65536233D01*
X32991500Y-65544293D01*
X32991925Y-65547937D01*
X32994789Y-65572507D01*
X32995222Y-65576882D01*
X33000486Y-65641595D01*
X33001140Y-65649637D01*
X33003396Y-65656601D01*
X33004587Y-65662560D01*
X33005971Y-65668415D01*
X33006818Y-65675681D01*
X33031735Y-65744327D01*
X33033152Y-65748455D01*
X33055649Y-65817899D01*
X33059445Y-65824154D01*
X33061951Y-65829628D01*
X33064670Y-65835058D01*
X33067167Y-65841937D01*
X33071180Y-65848057D01*
X33071180Y-65848058D01*
X33107186Y-65902976D01*
X33109523Y-65906680D01*
X33147405Y-65969107D01*
X33151121Y-65973315D01*
X33151122Y-65973316D01*
X33154803Y-65977484D01*
X33154776Y-65977508D01*
X33157429Y-65980500D01*
X33160132Y-65983733D01*
X33164144Y-65989852D01*
X33169456Y-65994884D01*
X33220383Y-66043128D01*
X33222825Y-66045506D01*
X65865964Y-98688645D01*
X65878350Y-98703057D01*
X65886883Y-98714652D01*
X65886888Y-98714657D01*
X65891226Y-98720552D01*
X65896804Y-98725291D01*
X65896807Y-98725294D01*
X65931502Y-98754769D01*
X65939018Y-98761699D01*
X65944713Y-98767394D01*
X65947595Y-98769674D01*
X65966985Y-98785015D01*
X65970389Y-98787806D01*
X66020437Y-98830325D01*
X66026019Y-98835067D01*
X66032535Y-98838395D01*
X66037584Y-98841762D01*
X66042713Y-98844929D01*
X66048450Y-98849468D01*
X66114609Y-98880389D01*
X66118503Y-98882292D01*
X66183542Y-98915503D01*
X66190650Y-98917242D01*
X66196293Y-98919341D01*
X66202056Y-98921258D01*
X66208684Y-98924356D01*
X66215846Y-98925846D01*
X66215847Y-98925846D01*
X66280146Y-98939220D01*
X66284430Y-98940190D01*
X66355344Y-98957542D01*
X66360946Y-98957890D01*
X66360949Y-98957890D01*
X66366498Y-98958234D01*
X66366496Y-98958270D01*
X66370489Y-98958509D01*
X66374681Y-98958883D01*
X66381849Y-98960374D01*
X66459254Y-98958280D01*
X66462662Y-98958234D01*
X93550520Y-98958234D01*
X93618641Y-98978236D01*
X93639615Y-98995139D01*
X94028025Y-99383549D01*
X94030687Y-99385689D01*
X94070615Y-99417793D01*
X94070618Y-99417795D01*
X94076771Y-99422742D01*
X94209367Y-99483029D01*
X94218250Y-99484301D01*
X94218253Y-99484302D01*
X94344664Y-99502405D01*
X94353553Y-99503678D01*
X94362442Y-99502405D01*
X94488853Y-99484302D01*
X94488856Y-99484301D01*
X94497739Y-99483029D01*
X94630335Y-99422742D01*
X94636488Y-99417795D01*
X94636491Y-99417793D01*
X94676419Y-99385689D01*
X94679081Y-99383549D01*
X95383549Y-98679081D01*
X95397005Y-98662345D01*
X95417793Y-98636491D01*
X95417795Y-98636488D01*
X95422742Y-98630335D01*
X95483029Y-98497739D01*
X95503678Y-98353553D01*
X95483029Y-98209367D01*
X95469204Y-98178959D01*
X95426010Y-98083959D01*
X95422742Y-98076771D01*
X95417795Y-98070618D01*
X95417793Y-98070615D01*
X95385689Y-98030687D01*
X95383549Y-98028025D01*
X94396239Y-97040715D01*
X94379503Y-97027259D01*
X94353649Y-97006471D01*
X94353646Y-97006469D01*
X94347493Y-97001522D01*
X94243960Y-96954449D01*
X94190227Y-96908046D01*
X94178959Y-96886131D01*
X94152885Y-96820274D01*
X94079293Y-96707814D01*
X94046132Y-96657139D01*
X94046129Y-96657135D01*
X94043480Y-96653087D01*
X94039082Y-96648203D01*
X93192884Y-95802005D01*
X93190416Y-95799992D01*
X93081887Y-95711478D01*
X93081886Y-95711477D01*
X93076943Y-95707446D01*
X92899876Y-95614878D01*
X92707814Y-95559805D01*
X92618546Y-95552936D01*
X92514960Y-95544965D01*
X92514956Y-95544965D01*
X92508600Y-95544476D01*
X92310372Y-95569518D01*
X92304334Y-95571574D01*
X92304332Y-95571574D01*
X92275081Y-95581532D01*
X92121230Y-95633907D01*
X92079171Y-95658583D01*
X91954400Y-95731785D01*
X91954397Y-95731787D01*
X91948897Y-95735014D01*
X91800414Y-95868709D01*
X91681848Y-96029529D01*
X91598040Y-96210905D01*
X91552415Y-96405429D01*
X91546836Y-96605154D01*
X91581532Y-96801922D01*
X91655084Y-96987694D01*
X91658583Y-96993041D01*
X91716723Y-97081887D01*
X91764489Y-97154881D01*
X91768886Y-97159765D01*
X91835260Y-97226139D01*
X91869286Y-97288451D01*
X91864221Y-97359266D01*
X91821674Y-97416102D01*
X91755154Y-97440913D01*
X91746165Y-97441234D01*
X66816105Y-97441234D01*
X66747984Y-97421232D01*
X66727010Y-97404329D01*
X34545405Y-65222724D01*
X34511379Y-65160412D01*
X34508500Y-65133629D01*
X34508500Y-59223349D01*
X34986801Y-59223349D01*
X34987394Y-59230641D01*
X34987394Y-59230644D01*
X34991085Y-59276018D01*
X34991500Y-59286233D01*
X34991500Y-59294293D01*
X34993049Y-59307583D01*
X34994789Y-59322507D01*
X34995222Y-59326882D01*
X35001140Y-59399637D01*
X35003396Y-59406601D01*
X35004587Y-59412560D01*
X35005971Y-59418415D01*
X35006818Y-59425681D01*
X35031735Y-59494327D01*
X35033150Y-59498448D01*
X35055649Y-59567899D01*
X35059445Y-59574154D01*
X35061951Y-59579628D01*
X35064670Y-59585058D01*
X35067167Y-59591937D01*
X35071180Y-59598057D01*
X35071180Y-59598058D01*
X35107186Y-59652976D01*
X35109523Y-59656680D01*
X35147405Y-59719107D01*
X35151121Y-59723315D01*
X35151122Y-59723316D01*
X35154803Y-59727484D01*
X35154776Y-59727508D01*
X35157429Y-59730500D01*
X35160132Y-59733733D01*
X35164144Y-59739852D01*
X35169456Y-59744884D01*
X35220383Y-59793128D01*
X35222825Y-59795506D01*
X70115961Y-94688641D01*
X70128347Y-94703053D01*
X70136883Y-94714651D01*
X70141226Y-94720552D01*
X70146804Y-94725291D01*
X70146807Y-94725294D01*
X70181509Y-94754775D01*
X70189025Y-94761705D01*
X70194714Y-94767394D01*
X70197568Y-94769652D01*
X70197578Y-94769661D01*
X70216976Y-94785008D01*
X70220376Y-94787796D01*
X70270441Y-94830329D01*
X70270445Y-94830332D01*
X70276019Y-94835067D01*
X70282534Y-94838394D01*
X70287571Y-94841753D01*
X70292709Y-94844926D01*
X70298450Y-94849468D01*
X70364609Y-94880389D01*
X70368503Y-94882292D01*
X70433542Y-94915503D01*
X70440651Y-94917242D01*
X70446285Y-94919338D01*
X70452055Y-94921257D01*
X70458684Y-94924356D01*
X70465847Y-94925846D01*
X70465850Y-94925847D01*
X70516564Y-94936395D01*
X70530169Y-94939225D01*
X70534435Y-94940191D01*
X70605344Y-94957542D01*
X70610946Y-94957890D01*
X70610949Y-94957890D01*
X70616498Y-94958234D01*
X70616496Y-94958269D01*
X70620468Y-94958509D01*
X70624689Y-94958886D01*
X70631849Y-94960375D01*
X70709276Y-94958280D01*
X70712684Y-94958234D01*
X97550520Y-94958234D01*
X97618641Y-94978236D01*
X97639615Y-94995139D01*
X98028025Y-95383549D01*
X98030687Y-95385689D01*
X98070615Y-95417793D01*
X98070618Y-95417795D01*
X98076771Y-95422742D01*
X98209367Y-95483029D01*
X98218250Y-95484301D01*
X98218253Y-95484302D01*
X98344664Y-95502405D01*
X98353553Y-95503678D01*
X98362442Y-95502405D01*
X98488853Y-95484302D01*
X98488856Y-95484301D01*
X98497739Y-95483029D01*
X98630335Y-95422742D01*
X98636488Y-95417795D01*
X98636491Y-95417793D01*
X98676419Y-95385689D01*
X98679081Y-95383549D01*
X99383549Y-94679081D01*
X99397005Y-94662345D01*
X99417793Y-94636491D01*
X99417795Y-94636488D01*
X99422742Y-94630335D01*
X99483029Y-94497739D01*
X99503678Y-94353553D01*
X99483029Y-94209367D01*
X99469204Y-94178959D01*
X99426010Y-94083959D01*
X99422742Y-94076771D01*
X99417795Y-94070618D01*
X99417793Y-94070615D01*
X99385689Y-94030687D01*
X99383549Y-94028025D01*
X98396239Y-93040715D01*
X98379503Y-93027259D01*
X98353649Y-93006471D01*
X98353646Y-93006469D01*
X98347493Y-93001522D01*
X98243960Y-92954449D01*
X98190227Y-92908046D01*
X98178959Y-92886131D01*
X98152885Y-92820274D01*
X98092180Y-92727508D01*
X98046132Y-92657139D01*
X98046129Y-92657135D01*
X98043480Y-92653087D01*
X98039082Y-92648203D01*
X97192884Y-91802005D01*
X97190416Y-91799992D01*
X97081887Y-91711478D01*
X97081886Y-91711477D01*
X97076943Y-91707446D01*
X96899876Y-91614878D01*
X96707814Y-91559805D01*
X96618546Y-91552936D01*
X96514960Y-91544965D01*
X96514956Y-91544965D01*
X96508600Y-91544476D01*
X96310372Y-91569518D01*
X96304334Y-91571574D01*
X96304332Y-91571574D01*
X96275081Y-91581532D01*
X96121230Y-91633907D01*
X96079171Y-91658583D01*
X95954400Y-91731785D01*
X95954397Y-91731787D01*
X95948897Y-91735014D01*
X95800414Y-91868709D01*
X95681848Y-92029529D01*
X95598040Y-92210905D01*
X95552415Y-92405429D01*
X95549533Y-92508600D01*
X95547877Y-92567899D01*
X95546836Y-92605154D01*
X95581532Y-92801922D01*
X95655084Y-92987694D01*
X95658583Y-92993041D01*
X95733304Y-93107225D01*
X95764489Y-93154881D01*
X95768886Y-93159765D01*
X95835260Y-93226139D01*
X95869286Y-93288451D01*
X95864221Y-93359266D01*
X95821674Y-93416102D01*
X95755154Y-93440913D01*
X95746165Y-93441234D01*
X71066105Y-93441234D01*
X70997984Y-93421232D01*
X70977010Y-93404329D01*
X40680062Y-63107381D01*
X59573348Y-63107381D01*
X59573630Y-63110711D01*
X59573630Y-63110718D01*
X59603739Y-63466558D01*
X59604022Y-63469902D01*
X59604655Y-63473184D01*
X59604656Y-63473190D01*
X59672308Y-63823856D01*
X59672940Y-63827131D01*
X59779326Y-64175045D01*
X59780634Y-64178115D01*
X59780636Y-64178119D01*
X59915695Y-64494979D01*
X59921981Y-64509727D01*
X59923612Y-64512649D01*
X60061759Y-64760148D01*
X60099300Y-64827406D01*
X60101224Y-64830128D01*
X60101227Y-64830133D01*
X60307352Y-65121773D01*
X60307358Y-65121781D01*
X60309285Y-65124507D01*
X60311497Y-65127022D01*
X60311498Y-65127023D01*
X60544745Y-65392194D01*
X60549572Y-65397682D01*
X60552028Y-65399939D01*
X60585324Y-65430537D01*
X60817455Y-65643855D01*
X60820140Y-65645842D01*
X60820144Y-65645845D01*
X61093432Y-65848058D01*
X61109916Y-65860255D01*
X61423663Y-66044443D01*
X61426709Y-66045820D01*
X61426714Y-66045823D01*
X61752111Y-66192968D01*
X61755161Y-66194347D01*
X61862648Y-66229789D01*
X62097502Y-66307230D01*
X62097512Y-66307233D01*
X62100679Y-66308277D01*
X62103955Y-66308983D01*
X62103954Y-66308983D01*
X62453048Y-66384245D01*
X62453053Y-66384246D01*
X62456324Y-66384951D01*
X62459643Y-66385305D01*
X62459651Y-66385306D01*
X62814767Y-66423151D01*
X62814774Y-66423151D01*
X62818092Y-66423505D01*
X63181908Y-66423505D01*
X63185226Y-66423151D01*
X63185233Y-66423151D01*
X63540349Y-66385306D01*
X63540357Y-66385305D01*
X63543676Y-66384951D01*
X63546947Y-66384246D01*
X63546952Y-66384245D01*
X63896046Y-66308983D01*
X63896045Y-66308983D01*
X63899321Y-66308277D01*
X63902488Y-66307233D01*
X63902498Y-66307230D01*
X64137352Y-66229789D01*
X64244839Y-66194347D01*
X64247889Y-66192968D01*
X64573286Y-66045823D01*
X64573291Y-66045820D01*
X64576337Y-66044443D01*
X64890084Y-65860255D01*
X64906568Y-65848058D01*
X65179856Y-65645845D01*
X65179860Y-65645842D01*
X65182545Y-65643855D01*
X65414676Y-65430537D01*
X65447972Y-65399939D01*
X65450428Y-65397682D01*
X65455256Y-65392194D01*
X65688502Y-65127023D01*
X65688503Y-65127022D01*
X65690715Y-65124507D01*
X65692642Y-65121781D01*
X65692648Y-65121773D01*
X65898773Y-64830133D01*
X65898776Y-64830128D01*
X65900700Y-64827406D01*
X65938242Y-64760148D01*
X66076388Y-64512649D01*
X66078019Y-64509727D01*
X66084306Y-64494979D01*
X66219364Y-64178119D01*
X66219366Y-64178115D01*
X66220674Y-64175045D01*
X66327060Y-63827131D01*
X66327692Y-63823856D01*
X66395344Y-63473190D01*
X66395345Y-63473184D01*
X66395978Y-63469902D01*
X66396261Y-63466558D01*
X66426370Y-63110718D01*
X66426370Y-63110711D01*
X66426652Y-63107381D01*
X66418736Y-62743650D01*
X66372321Y-62382807D01*
X66287927Y-62028914D01*
X66186012Y-61741050D01*
X66167625Y-61689114D01*
X66167623Y-61689109D01*
X66166507Y-61685957D01*
X66157656Y-61667465D01*
X66010866Y-61360807D01*
X66009426Y-61357798D01*
X65913191Y-61201750D01*
X65820210Y-61050978D01*
X65820206Y-61050972D01*
X65818455Y-61048133D01*
X65595744Y-60760449D01*
X65343801Y-60497986D01*
X65215604Y-60390079D01*
X65068010Y-60265844D01*
X65068002Y-60265838D01*
X65065462Y-60263700D01*
X65062707Y-60261841D01*
X65060017Y-60259811D01*
X65060672Y-60258943D01*
X65018249Y-60207720D01*
X65008000Y-60157945D01*
X65008000Y-58008702D01*
X65008002Y-58007932D01*
X65008421Y-57939322D01*
X65008476Y-57930348D01*
X65006010Y-57921719D01*
X65006009Y-57921714D01*
X65000361Y-57901952D01*
X64996783Y-57885191D01*
X64993870Y-57864848D01*
X64993867Y-57864838D01*
X64992595Y-57855955D01*
X64981979Y-57832605D01*
X64975536Y-57815093D01*
X64970954Y-57799063D01*
X64968488Y-57790435D01*
X64952726Y-57765452D01*
X64944596Y-57750386D01*
X64932367Y-57723490D01*
X64915626Y-57704061D01*
X64904521Y-57689053D01*
X64895630Y-57674961D01*
X64890840Y-57667369D01*
X64868703Y-57647818D01*
X64856659Y-57635626D01*
X64843239Y-57620051D01*
X64843237Y-57620050D01*
X64837381Y-57613253D01*
X64829853Y-57608374D01*
X64829850Y-57608371D01*
X64815861Y-57599304D01*
X64800987Y-57588014D01*
X64788502Y-57576988D01*
X64781772Y-57571044D01*
X64773646Y-57567229D01*
X64773645Y-57567228D01*
X64767979Y-57564568D01*
X64755034Y-57558490D01*
X64740065Y-57550176D01*
X64715273Y-57534107D01*
X64690709Y-57526761D01*
X64673264Y-57520099D01*
X64668827Y-57518016D01*
X64650052Y-57509201D01*
X64620870Y-57504657D01*
X64604151Y-57500874D01*
X64584464Y-57494986D01*
X64584461Y-57494985D01*
X64575859Y-57492413D01*
X64566884Y-57492358D01*
X64566883Y-57492358D01*
X64560190Y-57492317D01*
X64541444Y-57492203D01*
X64540672Y-57492170D01*
X64539577Y-57492000D01*
X64508702Y-57492000D01*
X64507932Y-57491998D01*
X64434284Y-57491548D01*
X64434283Y-57491548D01*
X64430348Y-57491524D01*
X64429004Y-57491908D01*
X64427659Y-57492000D01*
X61508702Y-57492000D01*
X61507932Y-57491998D01*
X61507078Y-57491993D01*
X61430348Y-57491524D01*
X61421719Y-57493990D01*
X61421714Y-57493991D01*
X61401952Y-57499639D01*
X61385191Y-57503217D01*
X61364848Y-57506130D01*
X61364838Y-57506133D01*
X61355955Y-57507405D01*
X61332605Y-57518021D01*
X61315093Y-57524464D01*
X61307057Y-57526761D01*
X61290435Y-57531512D01*
X61265452Y-57547274D01*
X61250386Y-57555404D01*
X61223490Y-57567633D01*
X61204061Y-57584374D01*
X61189053Y-57595479D01*
X61167369Y-57609160D01*
X61161427Y-57615888D01*
X61147819Y-57631296D01*
X61135627Y-57643340D01*
X61113253Y-57662619D01*
X61108374Y-57670147D01*
X61108371Y-57670150D01*
X61099304Y-57684139D01*
X61088014Y-57699013D01*
X61071044Y-57718228D01*
X61058490Y-57744966D01*
X61050176Y-57759935D01*
X61034107Y-57784727D01*
X61031535Y-57793327D01*
X61026761Y-57809290D01*
X61020099Y-57826736D01*
X61009201Y-57849948D01*
X61004658Y-57879128D01*
X61000874Y-57895849D01*
X60994986Y-57915536D01*
X60994985Y-57915539D01*
X60992413Y-57924141D01*
X60992358Y-57933116D01*
X60992358Y-57933117D01*
X60992203Y-57958546D01*
X60992170Y-57959328D01*
X60992000Y-57960423D01*
X60992000Y-57991298D01*
X60991998Y-57992068D01*
X60991524Y-58069652D01*
X60991908Y-58070996D01*
X60992000Y-58072341D01*
X60992000Y-60157945D01*
X60971998Y-60226066D01*
X60939553Y-60259246D01*
X60939981Y-60259813D01*
X60937301Y-60261836D01*
X60934538Y-60263700D01*
X60656199Y-60497986D01*
X60404256Y-60760449D01*
X60181545Y-61048133D01*
X60179794Y-61050972D01*
X60179790Y-61050978D01*
X60086809Y-61201750D01*
X59990574Y-61357798D01*
X59989134Y-61360807D01*
X59842345Y-61667465D01*
X59833493Y-61685957D01*
X59832377Y-61689109D01*
X59832375Y-61689114D01*
X59813988Y-61741050D01*
X59712073Y-62028914D01*
X59627679Y-62382807D01*
X59581264Y-62743650D01*
X59573348Y-63107381D01*
X40680062Y-63107381D01*
X36545405Y-58972724D01*
X36511379Y-58910412D01*
X36508500Y-58883629D01*
X36508500Y-53304669D01*
X37989501Y-53304669D01*
X37989871Y-53311490D01*
X37995395Y-53362352D01*
X37999021Y-53377604D01*
X38044176Y-53498054D01*
X38052714Y-53513649D01*
X38129215Y-53615724D01*
X38141776Y-53628285D01*
X38243851Y-53704786D01*
X38259446Y-53713324D01*
X38379894Y-53758478D01*
X38395149Y-53762105D01*
X38446014Y-53767631D01*
X38452828Y-53768000D01*
X39480385Y-53768000D01*
X39495624Y-53763525D01*
X39496829Y-53762135D01*
X39498500Y-53754452D01*
X39498500Y-53749884D01*
X40006500Y-53749884D01*
X40010975Y-53765123D01*
X40012365Y-53766328D01*
X40020048Y-53767999D01*
X41052169Y-53767999D01*
X41058990Y-53767629D01*
X41109852Y-53762105D01*
X41125104Y-53758479D01*
X41245554Y-53713324D01*
X41261149Y-53704786D01*
X41363224Y-53628285D01*
X41375785Y-53615724D01*
X41452286Y-53513649D01*
X41460824Y-53498054D01*
X41505978Y-53377606D01*
X41509605Y-53362351D01*
X41515131Y-53311486D01*
X41515500Y-53304672D01*
X41515500Y-53032115D01*
X41511025Y-53016876D01*
X41509635Y-53015671D01*
X41501952Y-53014000D01*
X40024615Y-53014000D01*
X40009376Y-53018475D01*
X40008171Y-53019865D01*
X40006500Y-53027548D01*
X40006500Y-53749884D01*
X39498500Y-53749884D01*
X39498500Y-53032115D01*
X39494025Y-53016876D01*
X39492635Y-53015671D01*
X39484952Y-53014000D01*
X38007616Y-53014000D01*
X37992377Y-53018475D01*
X37991172Y-53019865D01*
X37989501Y-53027548D01*
X37989501Y-53304669D01*
X36508500Y-53304669D01*
X36508500Y-52487885D01*
X37989500Y-52487885D01*
X37993975Y-52503124D01*
X37995365Y-52504329D01*
X38003048Y-52506000D01*
X39480385Y-52506000D01*
X39495624Y-52501525D01*
X39496829Y-52500135D01*
X39498500Y-52492452D01*
X39498500Y-52487885D01*
X40006500Y-52487885D01*
X40010975Y-52503124D01*
X40012365Y-52504329D01*
X40020048Y-52506000D01*
X41497384Y-52506000D01*
X41512623Y-52501525D01*
X41513828Y-52500135D01*
X41515499Y-52492452D01*
X41515499Y-52215331D01*
X41515129Y-52208510D01*
X41509605Y-52157648D01*
X41505979Y-52142396D01*
X41460824Y-52021946D01*
X41452286Y-52006351D01*
X41375785Y-51904276D01*
X41363224Y-51891715D01*
X41261149Y-51815214D01*
X41245554Y-51806676D01*
X41125106Y-51761522D01*
X41109851Y-51757895D01*
X41058986Y-51752369D01*
X41052172Y-51752000D01*
X40024615Y-51752000D01*
X40009376Y-51756475D01*
X40008171Y-51757865D01*
X40006500Y-51765548D01*
X40006500Y-52487885D01*
X39498500Y-52487885D01*
X39498500Y-51770116D01*
X39494025Y-51754877D01*
X39492635Y-51753672D01*
X39484952Y-51752001D01*
X38452831Y-51752001D01*
X38446010Y-51752371D01*
X38395148Y-51757895D01*
X38379896Y-51761521D01*
X38259446Y-51806676D01*
X38243851Y-51815214D01*
X38141776Y-51891715D01*
X38129215Y-51904276D01*
X38052714Y-52006351D01*
X38044176Y-52021946D01*
X37999022Y-52142394D01*
X37995395Y-52157649D01*
X37989869Y-52208514D01*
X37989500Y-52215328D01*
X37989500Y-52487885D01*
X36508500Y-52487885D01*
X36508500Y-43366371D01*
X36528502Y-43298250D01*
X36545405Y-43277276D01*
X37773905Y-42048776D01*
X37836217Y-42014750D01*
X37907032Y-42019815D01*
X37963868Y-42062362D01*
X37988679Y-42128882D01*
X37989000Y-42137871D01*
X37989000Y-43148134D01*
X37995755Y-43210316D01*
X38046885Y-43346705D01*
X38134239Y-43463261D01*
X38250795Y-43550615D01*
X38387184Y-43601745D01*
X38449366Y-43608500D01*
X38868000Y-43608500D01*
X38936121Y-43628502D01*
X38982614Y-43682158D01*
X38994000Y-43734500D01*
X38994000Y-44685430D01*
X38992567Y-44704380D01*
X38989301Y-44725849D01*
X38989894Y-44733141D01*
X38989894Y-44733144D01*
X38993585Y-44778518D01*
X38994000Y-44788733D01*
X38994000Y-44796793D01*
X38994425Y-44800437D01*
X38997289Y-44825007D01*
X38997722Y-44829382D01*
X39002192Y-44884329D01*
X39003640Y-44902137D01*
X39005896Y-44909101D01*
X39007087Y-44915060D01*
X39008471Y-44920915D01*
X39009318Y-44928181D01*
X39034235Y-44996827D01*
X39035652Y-45000955D01*
X39058149Y-45070399D01*
X39061945Y-45076654D01*
X39064451Y-45082128D01*
X39067170Y-45087558D01*
X39069667Y-45094437D01*
X39073680Y-45100557D01*
X39073680Y-45100558D01*
X39109686Y-45155476D01*
X39112023Y-45159180D01*
X39149905Y-45221607D01*
X39153621Y-45225815D01*
X39153622Y-45225816D01*
X39157303Y-45229984D01*
X39157276Y-45230008D01*
X39159929Y-45233000D01*
X39162632Y-45236233D01*
X39166644Y-45242352D01*
X39171956Y-45247384D01*
X39222883Y-45295628D01*
X39225325Y-45298006D01*
X40383724Y-46456405D01*
X40417750Y-46518717D01*
X40412685Y-46589532D01*
X40370138Y-46646368D01*
X40303618Y-46671179D01*
X40294629Y-46671500D01*
X38449366Y-46671500D01*
X38387184Y-46678255D01*
X38250795Y-46729385D01*
X38134239Y-46816739D01*
X38046885Y-46933295D01*
X37995755Y-47069684D01*
X37989000Y-47131866D01*
X37989000Y-48228134D01*
X37995755Y-48290316D01*
X38046885Y-48426705D01*
X38134239Y-48543261D01*
X38250795Y-48630615D01*
X38387184Y-48681745D01*
X38449366Y-48688500D01*
X41055634Y-48688500D01*
X41117816Y-48681745D01*
X41254205Y-48630615D01*
X41370761Y-48543261D01*
X41458115Y-48426705D01*
X41509245Y-48290316D01*
X41516000Y-48228134D01*
X41516000Y-47892871D01*
X41536002Y-47824750D01*
X41589658Y-47778257D01*
X41659932Y-47768153D01*
X41724512Y-47797647D01*
X41731095Y-47803776D01*
X42166230Y-48238911D01*
X42178616Y-48253323D01*
X42187149Y-48264918D01*
X42187154Y-48264923D01*
X42191492Y-48270818D01*
X42197070Y-48275557D01*
X42197073Y-48275560D01*
X42231768Y-48305035D01*
X42239284Y-48311965D01*
X42244979Y-48317660D01*
X42247861Y-48319940D01*
X42267251Y-48335281D01*
X42270655Y-48338072D01*
X42320703Y-48380591D01*
X42326285Y-48385333D01*
X42332801Y-48388661D01*
X42337850Y-48392028D01*
X42342979Y-48395195D01*
X42348716Y-48399734D01*
X42414875Y-48430655D01*
X42418769Y-48432558D01*
X42483808Y-48465769D01*
X42490916Y-48467508D01*
X42496559Y-48469607D01*
X42502322Y-48471524D01*
X42508950Y-48474622D01*
X42516112Y-48476112D01*
X42516113Y-48476112D01*
X42580412Y-48489486D01*
X42584696Y-48490456D01*
X42655610Y-48507808D01*
X42661212Y-48508156D01*
X42661215Y-48508156D01*
X42666764Y-48508500D01*
X42666762Y-48508536D01*
X42670755Y-48508775D01*
X42674947Y-48509149D01*
X42682115Y-48510640D01*
X42759520Y-48508546D01*
X42762928Y-48508500D01*
X43883629Y-48508500D01*
X43951750Y-48528502D01*
X43972724Y-48545405D01*
X44423724Y-48996405D01*
X44457750Y-49058717D01*
X44452685Y-49129532D01*
X44410138Y-49186368D01*
X44343618Y-49211179D01*
X44334629Y-49211500D01*
X41759366Y-49211500D01*
X41697184Y-49218255D01*
X41560795Y-49269385D01*
X41444239Y-49356739D01*
X41356885Y-49473295D01*
X41305755Y-49609684D01*
X41299000Y-49671866D01*
X41299000Y-50768134D01*
X41305755Y-50830316D01*
X41356885Y-50966705D01*
X41444239Y-51083261D01*
X41560795Y-51170615D01*
X41697184Y-51221745D01*
X41759366Y-51228500D01*
X44365634Y-51228500D01*
X44427816Y-51221745D01*
X44564205Y-51170615D01*
X44680761Y-51083261D01*
X44768115Y-50966705D01*
X44819245Y-50830316D01*
X44826000Y-50768134D01*
X44826000Y-49702871D01*
X44846002Y-49634750D01*
X44899658Y-49588257D01*
X44969932Y-49578153D01*
X45034512Y-49607647D01*
X45041095Y-49613776D01*
X51916230Y-56488911D01*
X51928616Y-56503323D01*
X51937149Y-56514918D01*
X51937154Y-56514923D01*
X51941492Y-56520818D01*
X51947070Y-56525557D01*
X51947073Y-56525560D01*
X51981768Y-56555035D01*
X51989284Y-56561965D01*
X51994979Y-56567660D01*
X51997861Y-56569940D01*
X52017251Y-56585281D01*
X52020655Y-56588072D01*
X52070703Y-56630591D01*
X52076285Y-56635333D01*
X52082801Y-56638661D01*
X52087850Y-56642028D01*
X52092979Y-56645195D01*
X52098716Y-56649734D01*
X52164875Y-56680655D01*
X52168769Y-56682558D01*
X52233808Y-56715769D01*
X52240916Y-56717508D01*
X52246559Y-56719607D01*
X52252322Y-56721524D01*
X52258950Y-56724622D01*
X52266112Y-56726112D01*
X52266113Y-56726112D01*
X52330412Y-56739486D01*
X52334696Y-56740456D01*
X52405610Y-56757808D01*
X52411212Y-56758156D01*
X52411215Y-56758156D01*
X52416764Y-56758500D01*
X52416762Y-56758536D01*
X52420755Y-56758775D01*
X52424947Y-56759149D01*
X52432115Y-56760640D01*
X52509520Y-56758546D01*
X52512928Y-56758500D01*
X99883629Y-56758500D01*
X99951750Y-56778502D01*
X99972724Y-56795405D01*
X107978724Y-64801405D01*
X108012750Y-64863717D01*
X108007685Y-64934532D01*
X107965138Y-64991368D01*
X107898618Y-65016179D01*
X107889629Y-65016500D01*
X107375066Y-65016500D01*
X107361933Y-65017834D01*
X107232566Y-65030974D01*
X107232562Y-65030975D01*
X107226220Y-65031619D01*
X107134898Y-65060238D01*
X107041651Y-65089460D01*
X107041650Y-65089461D01*
X107035560Y-65091369D01*
X107029978Y-65094463D01*
X107029976Y-65094464D01*
X107011382Y-65104771D01*
X106860809Y-65188235D01*
X106709104Y-65318261D01*
X106705197Y-65323298D01*
X106705195Y-65323300D01*
X106590555Y-65471093D01*
X106590553Y-65471096D01*
X106586643Y-65476137D01*
X106583825Y-65481863D01*
X106583823Y-65481867D01*
X106572301Y-65505283D01*
X106498429Y-65655411D01*
X106496820Y-65661589D01*
X106449843Y-65841937D01*
X106448065Y-65848762D01*
X106437608Y-66048292D01*
X106467486Y-66245848D01*
X106536477Y-66433361D01*
X106641765Y-66603172D01*
X106779047Y-66748344D01*
X106942716Y-66862946D01*
X107126086Y-66942298D01*
X107321666Y-66983156D01*
X107326522Y-66983411D01*
X107326561Y-66983413D01*
X107326577Y-66983413D01*
X107328229Y-66983500D01*
X108524934Y-66983500D01*
X108554230Y-66980524D01*
X108667434Y-66969026D01*
X108667438Y-66969025D01*
X108673780Y-66968381D01*
X108679865Y-66966474D01*
X108679870Y-66966473D01*
X108855909Y-66911305D01*
X108926894Y-66910021D01*
X108937816Y-66913556D01*
X109039684Y-66951745D01*
X109101866Y-66958500D01*
X110498134Y-66958500D01*
X110560316Y-66951745D01*
X110696705Y-66900615D01*
X110813261Y-66813261D01*
X110900615Y-66696705D01*
X110951745Y-66560316D01*
X110958500Y-66498134D01*
X110958500Y-65501866D01*
X110951745Y-65439684D01*
X110900615Y-65303295D01*
X110813261Y-65186739D01*
X110696705Y-65099385D01*
X110560316Y-65048255D01*
X110498134Y-65041500D01*
X110321420Y-65041500D01*
X110253299Y-65021498D01*
X110206806Y-64967842D01*
X110201553Y-64954332D01*
X110196606Y-64939062D01*
X110194351Y-64932101D01*
X110190555Y-64925845D01*
X110188049Y-64920372D01*
X110185330Y-64914942D01*
X110182833Y-64908063D01*
X110142809Y-64847016D01*
X110140472Y-64843312D01*
X110105509Y-64785693D01*
X110105505Y-64785688D01*
X110102595Y-64780892D01*
X110095197Y-64772516D01*
X110095223Y-64772493D01*
X110092574Y-64769503D01*
X110089866Y-64766264D01*
X110085856Y-64760148D01*
X110080549Y-64755121D01*
X110080546Y-64755117D01*
X110029617Y-64706872D01*
X110027175Y-64704494D01*
X100833770Y-55511089D01*
X100821384Y-55496677D01*
X100812851Y-55485082D01*
X100812846Y-55485077D01*
X100808508Y-55479182D01*
X100802930Y-55474443D01*
X100802927Y-55474440D01*
X100768232Y-55444965D01*
X100760716Y-55438035D01*
X100755021Y-55432340D01*
X100748880Y-55427482D01*
X100732749Y-55414719D01*
X100729345Y-55411928D01*
X100679297Y-55369409D01*
X100679295Y-55369408D01*
X100673715Y-55364667D01*
X100667199Y-55361339D01*
X100662150Y-55357972D01*
X100657021Y-55354805D01*
X100651284Y-55350266D01*
X100585125Y-55319345D01*
X100581225Y-55317439D01*
X100516192Y-55284231D01*
X100509084Y-55282492D01*
X100503441Y-55280393D01*
X100497678Y-55278476D01*
X100491050Y-55275378D01*
X100419583Y-55260513D01*
X100415299Y-55259543D01*
X100404453Y-55256889D01*
X100343038Y-55221269D01*
X100310631Y-55158100D01*
X100317520Y-55087439D01*
X100361518Y-55031719D01*
X100434401Y-55008500D01*
X104633629Y-55008500D01*
X104701750Y-55028502D01*
X104722724Y-55045405D01*
X108478724Y-58801405D01*
X108512750Y-58863717D01*
X108507685Y-58934532D01*
X108465138Y-58991368D01*
X108398618Y-59016179D01*
X108389629Y-59016500D01*
X107375066Y-59016500D01*
X107361933Y-59017834D01*
X107232566Y-59030974D01*
X107232562Y-59030975D01*
X107226220Y-59031619D01*
X107134898Y-59060238D01*
X107041651Y-59089460D01*
X107041650Y-59089461D01*
X107035560Y-59091369D01*
X107029978Y-59094463D01*
X107029976Y-59094464D01*
X107011382Y-59104771D01*
X106860809Y-59188235D01*
X106855960Y-59192391D01*
X106732817Y-59297937D01*
X106709104Y-59318261D01*
X106705197Y-59323298D01*
X106705195Y-59323300D01*
X106590555Y-59471093D01*
X106590553Y-59471096D01*
X106586643Y-59476137D01*
X106583825Y-59481863D01*
X106583823Y-59481867D01*
X106541490Y-59567899D01*
X106498429Y-59655411D01*
X106479649Y-59727508D01*
X106462557Y-59793128D01*
X106448065Y-59848762D01*
X106437608Y-60048292D01*
X106467486Y-60245848D01*
X106536477Y-60433361D01*
X106641765Y-60603172D01*
X106779047Y-60748344D01*
X106942716Y-60862946D01*
X107126086Y-60942298D01*
X107321666Y-60983156D01*
X107326522Y-60983411D01*
X107326561Y-60983413D01*
X107326577Y-60983413D01*
X107328229Y-60983500D01*
X108524934Y-60983500D01*
X108554230Y-60980524D01*
X108667434Y-60969026D01*
X108667438Y-60969025D01*
X108673780Y-60968381D01*
X108679865Y-60966474D01*
X108679870Y-60966473D01*
X108855909Y-60911305D01*
X108926894Y-60910021D01*
X108937816Y-60913556D01*
X109039684Y-60951745D01*
X109101866Y-60958500D01*
X110498134Y-60958500D01*
X110560316Y-60951745D01*
X110696705Y-60900615D01*
X110813261Y-60813261D01*
X110900615Y-60696705D01*
X110951745Y-60560316D01*
X110958500Y-60498134D01*
X110958500Y-59501866D01*
X110951745Y-59439684D01*
X110900615Y-59303295D01*
X110813261Y-59186739D01*
X110696705Y-59099385D01*
X110560316Y-59048255D01*
X110498134Y-59041500D01*
X110384500Y-59041500D01*
X110316379Y-59021498D01*
X110269886Y-58967842D01*
X110258500Y-58915500D01*
X110258500Y-58817070D01*
X110259933Y-58798120D01*
X110262099Y-58783885D01*
X110262099Y-58783881D01*
X110263199Y-58776651D01*
X110258915Y-58723982D01*
X110258500Y-58713767D01*
X110258500Y-58705707D01*
X110255211Y-58677493D01*
X110254778Y-58673118D01*
X110249454Y-58607661D01*
X110249453Y-58607658D01*
X110248860Y-58600363D01*
X110246604Y-58593399D01*
X110245413Y-58587440D01*
X110244029Y-58581585D01*
X110243182Y-58574319D01*
X110218265Y-58505673D01*
X110216848Y-58501545D01*
X110196607Y-58439064D01*
X110196606Y-58439062D01*
X110194351Y-58432101D01*
X110190555Y-58425846D01*
X110188049Y-58420372D01*
X110185330Y-58414942D01*
X110182833Y-58408063D01*
X110142814Y-58347024D01*
X110140467Y-58343305D01*
X110102595Y-58280893D01*
X110095197Y-58272516D01*
X110095224Y-58272492D01*
X110092571Y-58269500D01*
X110089868Y-58266267D01*
X110085856Y-58260148D01*
X110029617Y-58206872D01*
X110027175Y-58204494D01*
X105583770Y-53761089D01*
X105571384Y-53746677D01*
X105562851Y-53735082D01*
X105562846Y-53735077D01*
X105558508Y-53729182D01*
X105552930Y-53724443D01*
X105552927Y-53724440D01*
X105518232Y-53694965D01*
X105510716Y-53688035D01*
X105505021Y-53682340D01*
X105498880Y-53677482D01*
X105482749Y-53664719D01*
X105479345Y-53661928D01*
X105429297Y-53619409D01*
X105429295Y-53619408D01*
X105423715Y-53614667D01*
X105417199Y-53611339D01*
X105412150Y-53607972D01*
X105407021Y-53604805D01*
X105401284Y-53600266D01*
X105335125Y-53569345D01*
X105331225Y-53567439D01*
X105266192Y-53534231D01*
X105259084Y-53532492D01*
X105253441Y-53530393D01*
X105247678Y-53528476D01*
X105241050Y-53525378D01*
X105169583Y-53510513D01*
X105165299Y-53509543D01*
X105094390Y-53492192D01*
X105088788Y-53491844D01*
X105088785Y-53491844D01*
X105083236Y-53491500D01*
X105083238Y-53491464D01*
X105079245Y-53491225D01*
X105075053Y-53490851D01*
X105067885Y-53489360D01*
X105001675Y-53491151D01*
X104990479Y-53491454D01*
X104987072Y-53491500D01*
X53616371Y-53491500D01*
X53548250Y-53471498D01*
X53527276Y-53454595D01*
X52027350Y-51954669D01*
X60722001Y-51954669D01*
X60722371Y-51961490D01*
X60727895Y-52012352D01*
X60731521Y-52027604D01*
X60776676Y-52148054D01*
X60785214Y-52163649D01*
X60861715Y-52265724D01*
X60874276Y-52278285D01*
X60976351Y-52354786D01*
X60991946Y-52363324D01*
X61112394Y-52408478D01*
X61127649Y-52412105D01*
X61178514Y-52417631D01*
X61185328Y-52418000D01*
X61457885Y-52418000D01*
X61473124Y-52413525D01*
X61474329Y-52412135D01*
X61476000Y-52404452D01*
X61476000Y-52399884D01*
X61984000Y-52399884D01*
X61988475Y-52415123D01*
X61989865Y-52416328D01*
X61997548Y-52417999D01*
X62274669Y-52417999D01*
X62281490Y-52417629D01*
X62332352Y-52412105D01*
X62347604Y-52408479D01*
X62468054Y-52363324D01*
X62483649Y-52354786D01*
X62585724Y-52278285D01*
X62598285Y-52265724D01*
X62674786Y-52163649D01*
X62683324Y-52148054D01*
X62728478Y-52027606D01*
X62732105Y-52012351D01*
X62737631Y-51961486D01*
X62738000Y-51954672D01*
X62738000Y-50927115D01*
X62733525Y-50911876D01*
X62732135Y-50910671D01*
X62724452Y-50909000D01*
X62002115Y-50909000D01*
X61986876Y-50913475D01*
X61985671Y-50914865D01*
X61984000Y-50922548D01*
X61984000Y-52399884D01*
X61476000Y-52399884D01*
X61476000Y-50927115D01*
X61471525Y-50911876D01*
X61470135Y-50910671D01*
X61462452Y-50909000D01*
X60740116Y-50909000D01*
X60724877Y-50913475D01*
X60723672Y-50914865D01*
X60722001Y-50922548D01*
X60722001Y-51954669D01*
X52027350Y-51954669D01*
X50455566Y-50382885D01*
X60722000Y-50382885D01*
X60726475Y-50398124D01*
X60727865Y-50399329D01*
X60735548Y-50401000D01*
X61457885Y-50401000D01*
X61473124Y-50396525D01*
X61474329Y-50395135D01*
X61476000Y-50387452D01*
X61476000Y-50382885D01*
X61984000Y-50382885D01*
X61988475Y-50398124D01*
X61989865Y-50399329D01*
X61997548Y-50401000D01*
X62719884Y-50401000D01*
X62735123Y-50396525D01*
X62736328Y-50395135D01*
X62737999Y-50387452D01*
X62737999Y-49355331D01*
X62737629Y-49348510D01*
X62732105Y-49297648D01*
X62728479Y-49282396D01*
X62683324Y-49161946D01*
X62674786Y-49146351D01*
X62598285Y-49044276D01*
X62585724Y-49031715D01*
X62483649Y-48955214D01*
X62468054Y-48946676D01*
X62347606Y-48901522D01*
X62332351Y-48897895D01*
X62281486Y-48892369D01*
X62274672Y-48892000D01*
X62002115Y-48892000D01*
X61986876Y-48896475D01*
X61985671Y-48897865D01*
X61984000Y-48905548D01*
X61984000Y-50382885D01*
X61476000Y-50382885D01*
X61476000Y-48910116D01*
X61471525Y-48894877D01*
X61470135Y-48893672D01*
X61462452Y-48892001D01*
X61185331Y-48892001D01*
X61178510Y-48892371D01*
X61127648Y-48897895D01*
X61112396Y-48901521D01*
X60991946Y-48946676D01*
X60976351Y-48955214D01*
X60874276Y-49031715D01*
X60861715Y-49044276D01*
X60785214Y-49146351D01*
X60776676Y-49161946D01*
X60731522Y-49282394D01*
X60727895Y-49297649D01*
X60722369Y-49348514D01*
X60722000Y-49355328D01*
X60722000Y-50382885D01*
X50455566Y-50382885D01*
X44862905Y-44790224D01*
X44828879Y-44727912D01*
X44826000Y-44701129D01*
X44826000Y-44591866D01*
X44819245Y-44529684D01*
X44768115Y-44393295D01*
X44680761Y-44276739D01*
X44564205Y-44189385D01*
X44427816Y-44138255D01*
X44365634Y-44131500D01*
X41759366Y-44131500D01*
X41697184Y-44138255D01*
X41560795Y-44189385D01*
X41444239Y-44276739D01*
X41356885Y-44393295D01*
X41305755Y-44529684D01*
X41299000Y-44591866D01*
X41299000Y-44922129D01*
X41278998Y-44990250D01*
X41225342Y-45036743D01*
X41155068Y-45046847D01*
X41090488Y-45017353D01*
X41083905Y-45011224D01*
X40547905Y-44475224D01*
X40513879Y-44412912D01*
X40511000Y-44386129D01*
X40511000Y-43734500D01*
X40531002Y-43666379D01*
X40584658Y-43619886D01*
X40637000Y-43608500D01*
X41055634Y-43608500D01*
X41117816Y-43601745D01*
X41254205Y-43550615D01*
X41370761Y-43463261D01*
X41458115Y-43346705D01*
X41509245Y-43210316D01*
X41516000Y-43148134D01*
X41516000Y-42051866D01*
X41509245Y-41989684D01*
X41458115Y-41853295D01*
X41370761Y-41736739D01*
X41254205Y-41649385D01*
X41117816Y-41598255D01*
X41055634Y-41591500D01*
X38535371Y-41591500D01*
X38467250Y-41571498D01*
X38420757Y-41517842D01*
X38410653Y-41447568D01*
X38440147Y-41382988D01*
X38446276Y-41376405D01*
X38967276Y-40855405D01*
X39029588Y-40821379D01*
X39056371Y-40818500D01*
X41302698Y-40818500D01*
X41370819Y-40838502D01*
X41403524Y-40868935D01*
X41444239Y-40923261D01*
X41560795Y-41010615D01*
X41697184Y-41061745D01*
X41759366Y-41068500D01*
X44365634Y-41068500D01*
X44427816Y-41061745D01*
X44564205Y-41010615D01*
X44680761Y-40923261D01*
X44768115Y-40806705D01*
X44819245Y-40670316D01*
X44826000Y-40608134D01*
X44826000Y-39511866D01*
X44819245Y-39449684D01*
X44768115Y-39313295D01*
X44680761Y-39196739D01*
X44564205Y-39109385D01*
X44427816Y-39058255D01*
X44365634Y-39051500D01*
X41759366Y-39051500D01*
X41697184Y-39058255D01*
X41560795Y-39109385D01*
X41444239Y-39196739D01*
X41438858Y-39203919D01*
X41403524Y-39251065D01*
X41346665Y-39293580D01*
X41302698Y-39301500D01*
X38757070Y-39301500D01*
X38738120Y-39300067D01*
X38723885Y-39297901D01*
X38723881Y-39297901D01*
X38716651Y-39296801D01*
X38709359Y-39297394D01*
X38709356Y-39297394D01*
X38663982Y-39301085D01*
X38653767Y-39301500D01*
X38645707Y-39301500D01*
X38642073Y-39301924D01*
X38642067Y-39301924D01*
X38629042Y-39303443D01*
X38617480Y-39304791D01*
X38613132Y-39305221D01*
X38540364Y-39311140D01*
X38533403Y-39313395D01*
X38527463Y-39314582D01*
X38521588Y-39315971D01*
X38514319Y-39316818D01*
X38445670Y-39341736D01*
X38441542Y-39343153D01*
X38379064Y-39363393D01*
X38379062Y-39363394D01*
X38372101Y-39365649D01*
X38365846Y-39369445D01*
X38360372Y-39371951D01*
X38354942Y-39374670D01*
X38348063Y-39377167D01*
X38341943Y-39381180D01*
X38341942Y-39381180D01*
X38287024Y-39417186D01*
X38283320Y-39419523D01*
X38220893Y-39457405D01*
X38212516Y-39464803D01*
X38212492Y-39464776D01*
X38209500Y-39467429D01*
X38206267Y-39470132D01*
X38200148Y-39474144D01*
X38195116Y-39479456D01*
X38146872Y-39530383D01*
X38144494Y-39532825D01*
X35261089Y-42416230D01*
X35246677Y-42428616D01*
X35235082Y-42437149D01*
X35235077Y-42437154D01*
X35229182Y-42441492D01*
X35224443Y-42447070D01*
X35224440Y-42447073D01*
X35194965Y-42481768D01*
X35188035Y-42489284D01*
X35182340Y-42494979D01*
X35180060Y-42497861D01*
X35164719Y-42517251D01*
X35161928Y-42520655D01*
X35119409Y-42570703D01*
X35114667Y-42576285D01*
X35111339Y-42582801D01*
X35107972Y-42587850D01*
X35104805Y-42592979D01*
X35100266Y-42598716D01*
X35069345Y-42664875D01*
X35067442Y-42668769D01*
X35034231Y-42733808D01*
X35032492Y-42740916D01*
X35030393Y-42746559D01*
X35028476Y-42752322D01*
X35025378Y-42758950D01*
X35023888Y-42766112D01*
X35023888Y-42766113D01*
X35010514Y-42830412D01*
X35009544Y-42834696D01*
X34992192Y-42905610D01*
X34991500Y-42916764D01*
X34991464Y-42916762D01*
X34991225Y-42920755D01*
X34990851Y-42924947D01*
X34989360Y-42932115D01*
X34989558Y-42939432D01*
X34991454Y-43009521D01*
X34991500Y-43012928D01*
X34991500Y-59182930D01*
X34990067Y-59201880D01*
X34986801Y-59223349D01*
X34508500Y-59223349D01*
X34508500Y-42366371D01*
X34528502Y-42298250D01*
X34545405Y-42277276D01*
X38268555Y-38554126D01*
X38330867Y-38520100D01*
X38384166Y-38520614D01*
X38387184Y-38521745D01*
X38449366Y-38528500D01*
X41055634Y-38528500D01*
X41117816Y-38521745D01*
X41254205Y-38470615D01*
X41370761Y-38383261D01*
X41458115Y-38266705D01*
X41509245Y-38130316D01*
X41516000Y-38068134D01*
X41516000Y-36971866D01*
X41509245Y-36909684D01*
X41458115Y-36773295D01*
X41370761Y-36656739D01*
X41254205Y-36569385D01*
X41117816Y-36518255D01*
X41055634Y-36511500D01*
X38449366Y-36511500D01*
X38387184Y-36518255D01*
X38250795Y-36569385D01*
X38134239Y-36656739D01*
X38063007Y-36751784D01*
X38005172Y-36794657D01*
X37985691Y-36801728D01*
X37981533Y-36803156D01*
X37919061Y-36823394D01*
X37919059Y-36823395D01*
X37912101Y-36825649D01*
X37905846Y-36829445D01*
X37900372Y-36831951D01*
X37894942Y-36834670D01*
X37888063Y-36837167D01*
X37881943Y-36841180D01*
X37881942Y-36841180D01*
X37827024Y-36877186D01*
X37823320Y-36879523D01*
X37760893Y-36917405D01*
X37752516Y-36924803D01*
X37752492Y-36924776D01*
X37749500Y-36927429D01*
X37746267Y-36930132D01*
X37740148Y-36934144D01*
X37735116Y-36939456D01*
X37686872Y-36990383D01*
X37684494Y-36992825D01*
X33261089Y-41416230D01*
X33246677Y-41428616D01*
X33235082Y-41437149D01*
X33235077Y-41437154D01*
X33229182Y-41441492D01*
X33224443Y-41447070D01*
X33224440Y-41447073D01*
X33194965Y-41481768D01*
X33188035Y-41489284D01*
X33182340Y-41494979D01*
X33180060Y-41497861D01*
X33164719Y-41517251D01*
X33161928Y-41520655D01*
X33148320Y-41536673D01*
X33114667Y-41576285D01*
X33111339Y-41582801D01*
X33107972Y-41587850D01*
X33104805Y-41592979D01*
X33100266Y-41598716D01*
X33069345Y-41664875D01*
X33067442Y-41668769D01*
X33034231Y-41733808D01*
X33032492Y-41740916D01*
X33030393Y-41746559D01*
X33028476Y-41752322D01*
X33025378Y-41758950D01*
X33023888Y-41766112D01*
X33023888Y-41766113D01*
X33010514Y-41830412D01*
X33009544Y-41834696D01*
X32992192Y-41905610D01*
X32991500Y-41916764D01*
X32991464Y-41916762D01*
X32991225Y-41920755D01*
X32990851Y-41924947D01*
X32989360Y-41932115D01*
X32989558Y-41939432D01*
X32991454Y-42009521D01*
X32991500Y-42012928D01*
X32991500Y-65432930D01*
X32990067Y-65451880D01*
X32986801Y-65473349D01*
X32508500Y-65473349D01*
X32508500Y-40866371D01*
X32528502Y-40798250D01*
X32545405Y-40777276D01*
X37547276Y-35775405D01*
X37609588Y-35741379D01*
X37636371Y-35738500D01*
X41302698Y-35738500D01*
X41370819Y-35758502D01*
X41403524Y-35788935D01*
X41444239Y-35843261D01*
X41560795Y-35930615D01*
X41697184Y-35981745D01*
X41759366Y-35988500D01*
X44365634Y-35988500D01*
X44427816Y-35981745D01*
X44564205Y-35930615D01*
X44680761Y-35843261D01*
X44768115Y-35726705D01*
X44819245Y-35590316D01*
X44826000Y-35528134D01*
X44826000Y-34431866D01*
X44819245Y-34369684D01*
X44768115Y-34233295D01*
X44680761Y-34116739D01*
X44564205Y-34029385D01*
X44427816Y-33978255D01*
X44365634Y-33971500D01*
X41759366Y-33971500D01*
X41697184Y-33978255D01*
X41560795Y-34029385D01*
X41444239Y-34116739D01*
X41438858Y-34123919D01*
X41403524Y-34171065D01*
X41346665Y-34213580D01*
X41302698Y-34221500D01*
X37337070Y-34221500D01*
X37318120Y-34220067D01*
X37303885Y-34217901D01*
X37303881Y-34217901D01*
X37296651Y-34216801D01*
X37289359Y-34217394D01*
X37289356Y-34217394D01*
X37243982Y-34221085D01*
X37233767Y-34221500D01*
X37225707Y-34221500D01*
X37222073Y-34221924D01*
X37222067Y-34221924D01*
X37209042Y-34223443D01*
X37197480Y-34224791D01*
X37193132Y-34225221D01*
X37120364Y-34231140D01*
X37113403Y-34233395D01*
X37107463Y-34234582D01*
X37101588Y-34235971D01*
X37094319Y-34236818D01*
X37025670Y-34261736D01*
X37021542Y-34263153D01*
X36959064Y-34283393D01*
X36959062Y-34283394D01*
X36952101Y-34285649D01*
X36945846Y-34289445D01*
X36940372Y-34291951D01*
X36934942Y-34294670D01*
X36928063Y-34297167D01*
X36921943Y-34301180D01*
X36921942Y-34301180D01*
X36867024Y-34337186D01*
X36863320Y-34339523D01*
X36800893Y-34377405D01*
X36792516Y-34384803D01*
X36792492Y-34384776D01*
X36789500Y-34387429D01*
X36786267Y-34390132D01*
X36780148Y-34394144D01*
X36775116Y-34399456D01*
X36726872Y-34450383D01*
X36724494Y-34452825D01*
X31261089Y-39916230D01*
X31246677Y-39928616D01*
X31235082Y-39937149D01*
X31235077Y-39937154D01*
X31229182Y-39941492D01*
X31224443Y-39947070D01*
X31224440Y-39947073D01*
X31194965Y-39981768D01*
X31188035Y-39989284D01*
X31182340Y-39994979D01*
X31180060Y-39997861D01*
X31164719Y-40017251D01*
X31161928Y-40020655D01*
X31119409Y-40070703D01*
X31114667Y-40076285D01*
X31111339Y-40082801D01*
X31107972Y-40087850D01*
X31104805Y-40092979D01*
X31100266Y-40098716D01*
X31069345Y-40164875D01*
X31067442Y-40168769D01*
X31034231Y-40233808D01*
X31032492Y-40240916D01*
X31030393Y-40246559D01*
X31028476Y-40252322D01*
X31025378Y-40258950D01*
X31023888Y-40266112D01*
X31023888Y-40266113D01*
X31010514Y-40330412D01*
X31009544Y-40334696D01*
X30992192Y-40405610D01*
X30991500Y-40416764D01*
X30991464Y-40416762D01*
X30991225Y-40420755D01*
X30990851Y-40424947D01*
X30989360Y-40432115D01*
X30989558Y-40439432D01*
X30991454Y-40509521D01*
X30991500Y-40512928D01*
X30991500Y-75515398D01*
X30990067Y-75534348D01*
X30986801Y-75555817D01*
X30508500Y-75555817D01*
X30508500Y-39616371D01*
X30528502Y-39548250D01*
X30545405Y-39527276D01*
X36837276Y-33235405D01*
X36899588Y-33201379D01*
X36926371Y-33198500D01*
X37992698Y-33198500D01*
X38060819Y-33218502D01*
X38093524Y-33248935D01*
X38134239Y-33303261D01*
X38250795Y-33390615D01*
X38387184Y-33441745D01*
X38449366Y-33448500D01*
X41055634Y-33448500D01*
X41117816Y-33441745D01*
X41254205Y-33390615D01*
X41370761Y-33303261D01*
X41458115Y-33186705D01*
X41509245Y-33050316D01*
X41516000Y-32988134D01*
X41516000Y-31891866D01*
X41509245Y-31829684D01*
X41458115Y-31693295D01*
X41370761Y-31576739D01*
X41254205Y-31489385D01*
X41117816Y-31438255D01*
X41055634Y-31431500D01*
X38449366Y-31431500D01*
X38387184Y-31438255D01*
X38250795Y-31489385D01*
X38134239Y-31576739D01*
X38128858Y-31583919D01*
X38093524Y-31631065D01*
X38036665Y-31673580D01*
X37992698Y-31681500D01*
X36627063Y-31681500D01*
X36608114Y-31680067D01*
X36607907Y-31680036D01*
X36586651Y-31676802D01*
X36579359Y-31677395D01*
X36579356Y-31677395D01*
X36533991Y-31681085D01*
X36523777Y-31681500D01*
X36515707Y-31681500D01*
X36512087Y-31681922D01*
X36512069Y-31681923D01*
X36487461Y-31684792D01*
X36483100Y-31685224D01*
X36459429Y-31687149D01*
X36417661Y-31690546D01*
X36417658Y-31690547D01*
X36410363Y-31691140D01*
X36403399Y-31693396D01*
X36397440Y-31694587D01*
X36391585Y-31695971D01*
X36384319Y-31696818D01*
X36315673Y-31721735D01*
X36311545Y-31723152D01*
X36249064Y-31743393D01*
X36249062Y-31743394D01*
X36242101Y-31745649D01*
X36235846Y-31749445D01*
X36230372Y-31751951D01*
X36224942Y-31754670D01*
X36218063Y-31757167D01*
X36157016Y-31797191D01*
X36153327Y-31799518D01*
X36143226Y-31805648D01*
X36095693Y-31834491D01*
X36095688Y-31834495D01*
X36090892Y-31837405D01*
X36082516Y-31844803D01*
X36082493Y-31844777D01*
X36079503Y-31847426D01*
X36076264Y-31850134D01*
X36070148Y-31854144D01*
X36065121Y-31859451D01*
X36065117Y-31859454D01*
X36016872Y-31910383D01*
X36014494Y-31912825D01*
X29261089Y-38666230D01*
X29246677Y-38678616D01*
X29235082Y-38687149D01*
X29235077Y-38687154D01*
X29229182Y-38691492D01*
X29224443Y-38697070D01*
X29224440Y-38697073D01*
X29194965Y-38731768D01*
X29188035Y-38739284D01*
X29182340Y-38744979D01*
X29180060Y-38747861D01*
X29164719Y-38767251D01*
X29161928Y-38770655D01*
X29119409Y-38820703D01*
X29114667Y-38826285D01*
X29111339Y-38832801D01*
X29107972Y-38837850D01*
X29104805Y-38842979D01*
X29100266Y-38848716D01*
X29069345Y-38914875D01*
X29067442Y-38918769D01*
X29034231Y-38983808D01*
X29032492Y-38990916D01*
X29030393Y-38996559D01*
X29028476Y-39002322D01*
X29025378Y-39008950D01*
X29023888Y-39016112D01*
X29023888Y-39016113D01*
X29010514Y-39080412D01*
X29009544Y-39084696D01*
X28992192Y-39155610D01*
X28991500Y-39166764D01*
X28991464Y-39166762D01*
X28991225Y-39170755D01*
X28990851Y-39174947D01*
X28989360Y-39182115D01*
X28989558Y-39189432D01*
X28991454Y-39259521D01*
X28991500Y-39262928D01*
X28991500Y-84182930D01*
X28990067Y-84201880D01*
X28986801Y-84223349D01*
X28508500Y-84223349D01*
X28508500Y-38116371D01*
X28528502Y-38048250D01*
X28545405Y-38027276D01*
X35877276Y-30695405D01*
X35939588Y-30661379D01*
X35966371Y-30658500D01*
X41302698Y-30658500D01*
X41370819Y-30678502D01*
X41403524Y-30708935D01*
X41444239Y-30763261D01*
X41560795Y-30850615D01*
X41697184Y-30901745D01*
X41759366Y-30908500D01*
X44365634Y-30908500D01*
X44427816Y-30901745D01*
X44564205Y-30850615D01*
X44680761Y-30763261D01*
X44768115Y-30646705D01*
X44819245Y-30510316D01*
X44826000Y-30448134D01*
X44826000Y-29351866D01*
X44819245Y-29289684D01*
X44768115Y-29153295D01*
X44680761Y-29036739D01*
X44564205Y-28949385D01*
X44427816Y-28898255D01*
X44365634Y-28891500D01*
X41759366Y-28891500D01*
X41697184Y-28898255D01*
X41560795Y-28949385D01*
X41444239Y-29036739D01*
X41438858Y-29043919D01*
X41403524Y-29091065D01*
X41346665Y-29133580D01*
X41302698Y-29141500D01*
X35667063Y-29141500D01*
X35648114Y-29140067D01*
X35647907Y-29140036D01*
X35626651Y-29136802D01*
X35619359Y-29137395D01*
X35619356Y-29137395D01*
X35573991Y-29141085D01*
X35563777Y-29141500D01*
X35555707Y-29141500D01*
X35552087Y-29141922D01*
X35552069Y-29141923D01*
X35527461Y-29144792D01*
X35523100Y-29145224D01*
X35497981Y-29147267D01*
X35457661Y-29150546D01*
X35457658Y-29150547D01*
X35450363Y-29151140D01*
X35443399Y-29153396D01*
X35437440Y-29154587D01*
X35431585Y-29155971D01*
X35424319Y-29156818D01*
X35355673Y-29181735D01*
X35351545Y-29183152D01*
X35289064Y-29203393D01*
X35289062Y-29203394D01*
X35282101Y-29205649D01*
X35275846Y-29209445D01*
X35270372Y-29211951D01*
X35264942Y-29214670D01*
X35258063Y-29217167D01*
X35197016Y-29257191D01*
X35193327Y-29259518D01*
X35173135Y-29271771D01*
X35135693Y-29294491D01*
X35135688Y-29294495D01*
X35130892Y-29297405D01*
X35122516Y-29304803D01*
X35122493Y-29304777D01*
X35119503Y-29307426D01*
X35116264Y-29310134D01*
X35110148Y-29314144D01*
X35105121Y-29319451D01*
X35105117Y-29319454D01*
X35056872Y-29370383D01*
X35054494Y-29372825D01*
X27261089Y-37166230D01*
X27246677Y-37178616D01*
X27235082Y-37187149D01*
X27235077Y-37187154D01*
X27229182Y-37191492D01*
X27224443Y-37197070D01*
X27224440Y-37197073D01*
X27194965Y-37231768D01*
X27188035Y-37239284D01*
X27182340Y-37244979D01*
X27180060Y-37247861D01*
X27164719Y-37267251D01*
X27161928Y-37270655D01*
X27119409Y-37320703D01*
X27114667Y-37326285D01*
X27111339Y-37332801D01*
X27107972Y-37337850D01*
X27104805Y-37342979D01*
X27100266Y-37348716D01*
X27069345Y-37414875D01*
X27067442Y-37418769D01*
X27034231Y-37483808D01*
X27032492Y-37490916D01*
X27030393Y-37496559D01*
X27028476Y-37502322D01*
X27025378Y-37508950D01*
X27023888Y-37516112D01*
X27023888Y-37516113D01*
X27010514Y-37580412D01*
X27009544Y-37584696D01*
X26992192Y-37655610D01*
X26991500Y-37666764D01*
X26991464Y-37666762D01*
X26991225Y-37670755D01*
X26990851Y-37674947D01*
X26989360Y-37682115D01*
X26989558Y-37689432D01*
X26991454Y-37759521D01*
X26991500Y-37762928D01*
X26991500Y-85182930D01*
X26990067Y-85201880D01*
X26986801Y-85223349D01*
X26987394Y-85230641D01*
X26987394Y-85230644D01*
X26991085Y-85276018D01*
X26991500Y-85286233D01*
X26991500Y-85294293D01*
X26991925Y-85297937D01*
X26994789Y-85322507D01*
X26995222Y-85326882D01*
X27001140Y-85399637D01*
X27003396Y-85406601D01*
X27004587Y-85412560D01*
X27005971Y-85418415D01*
X27006818Y-85425681D01*
X27031735Y-85494327D01*
X27033152Y-85498455D01*
X27055649Y-85567899D01*
X27059445Y-85574154D01*
X27061951Y-85579628D01*
X27064670Y-85585058D01*
X27067167Y-85591937D01*
X27071180Y-85598057D01*
X27071180Y-85598058D01*
X27107186Y-85652976D01*
X27109523Y-85656680D01*
X27147405Y-85719107D01*
X27151121Y-85723315D01*
X27151122Y-85723316D01*
X27154803Y-85727484D01*
X27154776Y-85727508D01*
X27157429Y-85730500D01*
X27160132Y-85733733D01*
X27164144Y-85739852D01*
X27169456Y-85744884D01*
X27220383Y-85793128D01*
X27222825Y-85795506D01*
X30454595Y-89027276D01*
X30488621Y-89089588D01*
X30491500Y-89116371D01*
X30491500Y-91873984D01*
X30471498Y-91942105D01*
X30417842Y-91988598D01*
X30347568Y-91998702D01*
X30282988Y-91969208D01*
X30266224Y-91951007D01*
X30264986Y-91948897D01*
X30188940Y-91864439D01*
X30135564Y-91805159D01*
X30135561Y-91805156D01*
X30131291Y-91800414D01*
X29970471Y-91681847D01*
X29789095Y-91598040D01*
X29594571Y-91552415D01*
X29482190Y-91549276D01*
X29401228Y-91547014D01*
X29401225Y-91547014D01*
X29394846Y-91546836D01*
X29198078Y-91581532D01*
X29012306Y-91655083D01*
X28975496Y-91679171D01*
X28849171Y-91761836D01*
X28849167Y-91761839D01*
X28845119Y-91764488D01*
X28840235Y-91768886D01*
X27994037Y-92615084D01*
X27992026Y-92617550D01*
X27992024Y-92617552D01*
X27963043Y-92653087D01*
X27899478Y-92731025D01*
X27896523Y-92736678D01*
X27896522Y-92736679D01*
X27811052Y-92900168D01*
X27761766Y-92951270D01*
X27751541Y-92956494D01*
X27678173Y-92989852D01*
X27607882Y-92999838D01*
X27543351Y-92970237D01*
X27536927Y-92964246D01*
X26545405Y-91972724D01*
X26511379Y-91910412D01*
X26508500Y-91883629D01*
X26508500Y-37116371D01*
X26528502Y-37048250D01*
X26545405Y-37027276D01*
X35417276Y-28155405D01*
X35479588Y-28121379D01*
X35506371Y-28118500D01*
X37992698Y-28118500D01*
X38060819Y-28138502D01*
X38093524Y-28168935D01*
X38134239Y-28223261D01*
X38250795Y-28310615D01*
X38387184Y-28361745D01*
X38449366Y-28368500D01*
X41055634Y-28368500D01*
X41117816Y-28361745D01*
X41254205Y-28310615D01*
X41370761Y-28223261D01*
X41458115Y-28106705D01*
X41509245Y-27970316D01*
X41516000Y-27908134D01*
X41516000Y-26811866D01*
X41509245Y-26749684D01*
X41458115Y-26613295D01*
X41370761Y-26496739D01*
X41254205Y-26409385D01*
X41117816Y-26358255D01*
X41055634Y-26351500D01*
X38449366Y-26351500D01*
X38387184Y-26358255D01*
X38250795Y-26409385D01*
X38134239Y-26496739D01*
X38128858Y-26503919D01*
X38093524Y-26551065D01*
X38036665Y-26593580D01*
X37992698Y-26601500D01*
X35207063Y-26601500D01*
X35188114Y-26600067D01*
X35187907Y-26600036D01*
X35166651Y-26596802D01*
X35159359Y-26597395D01*
X35159356Y-26597395D01*
X35113991Y-26601085D01*
X35103777Y-26601500D01*
X35095707Y-26601500D01*
X35092087Y-26601922D01*
X35092069Y-26601923D01*
X35067461Y-26604792D01*
X35063100Y-26605224D01*
X35037981Y-26607267D01*
X34997661Y-26610546D01*
X34997658Y-26610547D01*
X34990363Y-26611140D01*
X34983399Y-26613396D01*
X34977440Y-26614587D01*
X34971585Y-26615971D01*
X34964319Y-26616818D01*
X34895673Y-26641735D01*
X34891545Y-26643152D01*
X34829064Y-26663393D01*
X34829062Y-26663394D01*
X34822101Y-26665649D01*
X34815846Y-26669445D01*
X34810372Y-26671951D01*
X34804942Y-26674670D01*
X34798063Y-26677167D01*
X34737016Y-26717191D01*
X34733327Y-26719518D01*
X34713135Y-26731771D01*
X34675693Y-26754491D01*
X34675688Y-26754495D01*
X34670892Y-26757405D01*
X34662516Y-26764803D01*
X34662493Y-26764777D01*
X34659503Y-26767426D01*
X34656264Y-26770134D01*
X34650148Y-26774144D01*
X34645121Y-26779451D01*
X34645117Y-26779454D01*
X34596872Y-26830383D01*
X34594494Y-26832825D01*
X25261089Y-36166230D01*
X25246677Y-36178616D01*
X25235082Y-36187149D01*
X25235077Y-36187154D01*
X25229182Y-36191492D01*
X25224443Y-36197070D01*
X25224440Y-36197073D01*
X25194965Y-36231768D01*
X25188035Y-36239284D01*
X25182340Y-36244979D01*
X25180060Y-36247861D01*
X25164719Y-36267251D01*
X25161928Y-36270655D01*
X25119409Y-36320703D01*
X25114667Y-36326285D01*
X25111339Y-36332801D01*
X25107972Y-36337850D01*
X25104805Y-36342979D01*
X25100266Y-36348716D01*
X25069345Y-36414875D01*
X25067442Y-36418769D01*
X25034231Y-36483808D01*
X25032492Y-36490916D01*
X25030393Y-36496559D01*
X25028476Y-36502322D01*
X25025378Y-36508950D01*
X25023888Y-36516112D01*
X25023888Y-36516113D01*
X25010514Y-36580412D01*
X25009544Y-36584696D01*
X24992192Y-36655610D01*
X24991844Y-36661212D01*
X24991844Y-36661215D01*
X24991500Y-36666762D01*
X24991500Y-36666764D01*
X24991464Y-36666762D01*
X24991225Y-36670755D01*
X24990851Y-36674947D01*
X24989360Y-36682115D01*
X24989558Y-36689432D01*
X24991454Y-36759521D01*
X24991500Y-36762928D01*
X24991500Y-92182930D01*
X24990067Y-92201880D01*
X24986801Y-92223349D01*
X13508000Y-92223349D01*
X13508000Y-59223349D01*
X14986801Y-59223349D01*
X14987394Y-59230641D01*
X14987394Y-59230644D01*
X14991085Y-59276018D01*
X14991500Y-59286233D01*
X14991500Y-59294293D01*
X14993049Y-59307583D01*
X14994789Y-59322507D01*
X14995222Y-59326882D01*
X15001140Y-59399637D01*
X15003396Y-59406601D01*
X15004587Y-59412560D01*
X15005971Y-59418415D01*
X15006818Y-59425681D01*
X15031731Y-59494314D01*
X15033150Y-59498448D01*
X15035368Y-59505295D01*
X15041500Y-59544125D01*
X15041500Y-60498134D01*
X15048255Y-60560316D01*
X15099385Y-60696705D01*
X15186739Y-60813261D01*
X15303295Y-60900615D01*
X15439684Y-60951745D01*
X15501866Y-60958500D01*
X16898134Y-60958500D01*
X16960316Y-60951745D01*
X17066811Y-60911822D01*
X17137616Y-60906639D01*
X17161079Y-60914167D01*
X17226086Y-60942298D01*
X17421666Y-60983156D01*
X17426522Y-60983411D01*
X17426561Y-60983413D01*
X17426577Y-60983413D01*
X17428229Y-60983500D01*
X18624934Y-60983500D01*
X18654230Y-60980524D01*
X18767434Y-60969026D01*
X18767438Y-60969025D01*
X18773780Y-60968381D01*
X18914824Y-60924180D01*
X18958349Y-60910540D01*
X18958350Y-60910539D01*
X18964440Y-60908631D01*
X18973215Y-60903767D01*
X19054414Y-60858758D01*
X19123691Y-60843227D01*
X19190368Y-60867615D01*
X19233274Y-60924180D01*
X19241500Y-60968960D01*
X19241500Y-61133629D01*
X19221498Y-61201750D01*
X19204595Y-61222724D01*
X16011089Y-64416230D01*
X15996677Y-64428616D01*
X15985082Y-64437149D01*
X15985077Y-64437154D01*
X15979182Y-64441492D01*
X15974443Y-64447070D01*
X15974440Y-64447073D01*
X15944965Y-64481768D01*
X15938035Y-64489284D01*
X15932340Y-64494979D01*
X15930060Y-64497861D01*
X15914719Y-64517251D01*
X15911928Y-64520655D01*
X15869409Y-64570703D01*
X15864667Y-64576285D01*
X15861339Y-64582801D01*
X15857972Y-64587850D01*
X15854805Y-64592979D01*
X15850266Y-64598716D01*
X15819345Y-64664875D01*
X15817442Y-64668769D01*
X15784231Y-64733808D01*
X15782492Y-64740916D01*
X15780393Y-64746559D01*
X15778476Y-64752322D01*
X15775378Y-64758950D01*
X15773888Y-64766112D01*
X15773888Y-64766113D01*
X15760514Y-64830412D01*
X15759544Y-64834696D01*
X15742192Y-64905610D01*
X15741500Y-64916764D01*
X15741464Y-64916762D01*
X15741225Y-64920759D01*
X15740851Y-64924945D01*
X15740250Y-64927834D01*
X15714713Y-64992778D01*
X15657135Y-65034315D01*
X15615193Y-65041500D01*
X15501866Y-65041500D01*
X15439684Y-65048255D01*
X15303295Y-65099385D01*
X15186739Y-65186739D01*
X15099385Y-65303295D01*
X15048255Y-65439684D01*
X15041500Y-65501866D01*
X15041500Y-66498134D01*
X15048255Y-66560316D01*
X15099385Y-66696705D01*
X15186739Y-66813261D01*
X15303295Y-66900615D01*
X15439684Y-66951745D01*
X15501866Y-66958500D01*
X16898134Y-66958500D01*
X16960316Y-66951745D01*
X17066811Y-66911822D01*
X17137616Y-66906639D01*
X17161079Y-66914167D01*
X17226086Y-66942298D01*
X17421666Y-66983156D01*
X17426522Y-66983411D01*
X17426561Y-66983413D01*
X17426577Y-66983413D01*
X17428229Y-66983500D01*
X18624934Y-66983500D01*
X18654230Y-66980524D01*
X18767434Y-66969026D01*
X18767438Y-66969025D01*
X18773780Y-66968381D01*
X18946775Y-66914167D01*
X18958349Y-66910540D01*
X18958350Y-66910539D01*
X18964440Y-66908631D01*
X18978902Y-66900615D01*
X19053464Y-66859284D01*
X19139191Y-66811765D01*
X19290896Y-66681739D01*
X19294805Y-66676700D01*
X19409445Y-66528907D01*
X19409447Y-66528904D01*
X19413357Y-66523863D01*
X19426018Y-66498134D01*
X19498752Y-66350318D01*
X19501571Y-66344589D01*
X19551935Y-66151238D01*
X19561260Y-65973316D01*
X19562058Y-65958089D01*
X19562058Y-65958085D01*
X19562392Y-65951708D01*
X19532514Y-65754152D01*
X19503643Y-65675681D01*
X19465727Y-65572629D01*
X19465727Y-65572628D01*
X19463523Y-65566639D01*
X19358235Y-65396828D01*
X19220953Y-65251656D01*
X19057284Y-65137054D01*
X18873914Y-65057702D01*
X18678334Y-65016844D01*
X18673478Y-65016589D01*
X18673439Y-65016587D01*
X18673423Y-65016587D01*
X18671771Y-65016500D01*
X17860371Y-65016500D01*
X17792250Y-64996498D01*
X17745757Y-64942842D01*
X17735653Y-64872568D01*
X17765147Y-64807988D01*
X17771276Y-64801405D01*
X20488911Y-62083770D01*
X20503323Y-62071384D01*
X20514918Y-62062851D01*
X20514923Y-62062846D01*
X20520818Y-62058508D01*
X20525557Y-62052930D01*
X20525560Y-62052927D01*
X20555035Y-62018232D01*
X20561965Y-62010716D01*
X20567660Y-62005021D01*
X20585281Y-61982749D01*
X20588072Y-61979345D01*
X20630591Y-61929297D01*
X20630592Y-61929295D01*
X20635333Y-61923715D01*
X20638661Y-61917199D01*
X20642020Y-61912162D01*
X20645194Y-61907023D01*
X20649734Y-61901284D01*
X20680636Y-61835163D01*
X20682569Y-61831209D01*
X20699596Y-61797864D01*
X20715769Y-61766192D01*
X20717510Y-61759076D01*
X20719604Y-61753446D01*
X20721523Y-61747679D01*
X20724621Y-61741050D01*
X20739483Y-61669600D01*
X20740453Y-61665315D01*
X20756473Y-61599844D01*
X20757808Y-61594390D01*
X20758500Y-61583236D01*
X20758536Y-61583238D01*
X20758775Y-61579248D01*
X20759150Y-61575050D01*
X20760640Y-61567885D01*
X20758546Y-61490479D01*
X20758500Y-61487072D01*
X20758500Y-58317070D01*
X20759933Y-58298120D01*
X20762099Y-58283885D01*
X20762099Y-58283881D01*
X20763199Y-58276651D01*
X20761448Y-58255116D01*
X20758915Y-58223982D01*
X20758500Y-58213767D01*
X20758500Y-58205707D01*
X20755209Y-58177480D01*
X20754778Y-58173121D01*
X20749454Y-58107662D01*
X20749453Y-58107659D01*
X20748860Y-58100364D01*
X20746604Y-58093400D01*
X20745417Y-58087461D01*
X20744030Y-58081590D01*
X20743182Y-58074319D01*
X20740686Y-58067443D01*
X20740684Y-58067434D01*
X20718275Y-58005702D01*
X20716865Y-58001598D01*
X20694352Y-57932101D01*
X20690556Y-57925846D01*
X20688057Y-57920387D01*
X20685329Y-57914939D01*
X20682833Y-57908063D01*
X20642805Y-57847010D01*
X20640481Y-57843327D01*
X20605504Y-57785686D01*
X20605501Y-57785682D01*
X20602595Y-57780893D01*
X20598886Y-57776694D01*
X20598883Y-57776689D01*
X20595197Y-57772516D01*
X20595224Y-57772492D01*
X20592571Y-57769500D01*
X20589868Y-57766267D01*
X20585856Y-57760148D01*
X20529617Y-57706872D01*
X20527175Y-57704494D01*
X17795405Y-54972724D01*
X17761379Y-54910412D01*
X17758500Y-54883629D01*
X17758500Y-53849782D01*
X17778502Y-53781661D01*
X17832158Y-53735168D01*
X17902432Y-53725064D01*
X17928730Y-53731800D01*
X17999894Y-53758478D01*
X18015149Y-53762105D01*
X18066014Y-53767631D01*
X18072828Y-53768000D01*
X19100385Y-53768000D01*
X19115624Y-53763525D01*
X19116829Y-53762135D01*
X19118500Y-53754452D01*
X19118500Y-53749884D01*
X19626500Y-53749884D01*
X19630975Y-53765123D01*
X19632365Y-53766328D01*
X19640048Y-53767999D01*
X20672169Y-53767999D01*
X20678990Y-53767629D01*
X20729852Y-53762105D01*
X20745104Y-53758479D01*
X20865554Y-53713324D01*
X20881149Y-53704786D01*
X20983224Y-53628285D01*
X20995785Y-53615724D01*
X21072286Y-53513649D01*
X21080824Y-53498054D01*
X21125978Y-53377606D01*
X21129605Y-53362351D01*
X21135131Y-53311486D01*
X21135500Y-53304672D01*
X21135500Y-53032115D01*
X21131025Y-53016876D01*
X21129635Y-53015671D01*
X21121952Y-53014000D01*
X19644615Y-53014000D01*
X19629376Y-53018475D01*
X19628171Y-53019865D01*
X19626500Y-53027548D01*
X19626500Y-53749884D01*
X19118500Y-53749884D01*
X19118500Y-52487885D01*
X19626500Y-52487885D01*
X19630975Y-52503124D01*
X19632365Y-52504329D01*
X19640048Y-52506000D01*
X21117384Y-52506000D01*
X21132623Y-52501525D01*
X21133828Y-52500135D01*
X21135499Y-52492452D01*
X21135499Y-52215331D01*
X21135129Y-52208510D01*
X21129605Y-52157648D01*
X21125979Y-52142396D01*
X21080824Y-52021946D01*
X21072286Y-52006351D01*
X20995785Y-51904276D01*
X20983224Y-51891715D01*
X20881149Y-51815214D01*
X20865554Y-51806676D01*
X20745106Y-51761522D01*
X20729851Y-51757895D01*
X20678986Y-51752369D01*
X20672172Y-51752000D01*
X19644615Y-51752000D01*
X19629376Y-51756475D01*
X19628171Y-51757865D01*
X19626500Y-51765548D01*
X19626500Y-52487885D01*
X19118500Y-52487885D01*
X19118500Y-51770116D01*
X19114025Y-51754877D01*
X19112635Y-51753672D01*
X19104952Y-51752001D01*
X18072831Y-51752001D01*
X18066010Y-51752371D01*
X18015148Y-51757895D01*
X17999896Y-51761521D01*
X17928730Y-51788200D01*
X17857922Y-51793383D01*
X17795553Y-51759462D01*
X17761424Y-51697207D01*
X17758500Y-51670218D01*
X17758500Y-50768134D01*
X20919000Y-50768134D01*
X20925755Y-50830316D01*
X20976885Y-50966705D01*
X21064239Y-51083261D01*
X21180795Y-51170615D01*
X21317184Y-51221745D01*
X21379366Y-51228500D01*
X23985634Y-51228500D01*
X24047816Y-51221745D01*
X24184205Y-51170615D01*
X24300761Y-51083261D01*
X24388115Y-50966705D01*
X24439245Y-50830316D01*
X24446000Y-50768134D01*
X24446000Y-49671866D01*
X24439245Y-49609684D01*
X24388115Y-49473295D01*
X24300761Y-49356739D01*
X24184205Y-49269385D01*
X24047816Y-49218255D01*
X23985634Y-49211500D01*
X21379366Y-49211500D01*
X21317184Y-49218255D01*
X21180795Y-49269385D01*
X21064239Y-49356739D01*
X20976885Y-49473295D01*
X20925755Y-49609684D01*
X20919000Y-49671866D01*
X20919000Y-50768134D01*
X17758500Y-50768134D01*
X17758500Y-48770316D01*
X17778502Y-48702195D01*
X17832158Y-48655702D01*
X17902432Y-48645598D01*
X17928729Y-48652334D01*
X17999782Y-48678971D01*
X17999788Y-48678973D01*
X18007184Y-48681745D01*
X18069366Y-48688500D01*
X20675634Y-48688500D01*
X20737816Y-48681745D01*
X20874205Y-48630615D01*
X20990761Y-48543261D01*
X21078115Y-48426705D01*
X21129245Y-48290316D01*
X21136000Y-48228134D01*
X21136000Y-47131866D01*
X21129245Y-47069684D01*
X21078115Y-46933295D01*
X20990761Y-46816739D01*
X20874205Y-46729385D01*
X20737816Y-46678255D01*
X20675634Y-46671500D01*
X18069366Y-46671500D01*
X18007184Y-46678255D01*
X17999788Y-46681027D01*
X17999782Y-46681029D01*
X17928729Y-46707666D01*
X17857922Y-46712849D01*
X17795553Y-46678928D01*
X17761424Y-46616673D01*
X17758500Y-46589684D01*
X17758500Y-45684669D01*
X20919501Y-45684669D01*
X20919871Y-45691490D01*
X20925395Y-45742352D01*
X20929021Y-45757604D01*
X20974176Y-45878054D01*
X20982714Y-45893649D01*
X21059215Y-45995724D01*
X21071776Y-46008285D01*
X21173851Y-46084786D01*
X21189446Y-46093324D01*
X21309894Y-46138478D01*
X21325149Y-46142105D01*
X21376014Y-46147631D01*
X21382828Y-46148000D01*
X22410385Y-46148000D01*
X22425624Y-46143525D01*
X22426829Y-46142135D01*
X22428500Y-46134452D01*
X22428500Y-46129884D01*
X22936500Y-46129884D01*
X22940975Y-46145123D01*
X22942365Y-46146328D01*
X22950048Y-46147999D01*
X23982169Y-46147999D01*
X23988990Y-46147629D01*
X24039852Y-46142105D01*
X24055104Y-46138479D01*
X24175554Y-46093324D01*
X24191149Y-46084786D01*
X24293224Y-46008285D01*
X24305785Y-45995724D01*
X24382286Y-45893649D01*
X24390824Y-45878054D01*
X24435978Y-45757606D01*
X24439605Y-45742351D01*
X24445131Y-45691486D01*
X24445500Y-45684672D01*
X24445500Y-45412115D01*
X24441025Y-45396876D01*
X24439635Y-45395671D01*
X24431952Y-45394000D01*
X22954615Y-45394000D01*
X22939376Y-45398475D01*
X22938171Y-45399865D01*
X22936500Y-45407548D01*
X22936500Y-46129884D01*
X22428500Y-46129884D01*
X22428500Y-45412115D01*
X22424025Y-45396876D01*
X22422635Y-45395671D01*
X22414952Y-45394000D01*
X20937616Y-45394000D01*
X20922377Y-45398475D01*
X20921172Y-45399865D01*
X20919501Y-45407548D01*
X20919501Y-45684669D01*
X17758500Y-45684669D01*
X17758500Y-44867885D01*
X20919500Y-44867885D01*
X20923975Y-44883124D01*
X20925365Y-44884329D01*
X20933048Y-44886000D01*
X22410385Y-44886000D01*
X22425624Y-44881525D01*
X22426829Y-44880135D01*
X22428500Y-44872452D01*
X22428500Y-44867885D01*
X22936500Y-44867885D01*
X22940975Y-44883124D01*
X22942365Y-44884329D01*
X22950048Y-44886000D01*
X24427384Y-44886000D01*
X24442623Y-44881525D01*
X24443828Y-44880135D01*
X24445499Y-44872452D01*
X24445499Y-44595331D01*
X24445129Y-44588510D01*
X24439605Y-44537648D01*
X24435979Y-44522396D01*
X24390824Y-44401946D01*
X24382286Y-44386351D01*
X24305785Y-44284276D01*
X24293224Y-44271715D01*
X24191149Y-44195214D01*
X24175554Y-44186676D01*
X24055106Y-44141522D01*
X24039851Y-44137895D01*
X23988986Y-44132369D01*
X23982172Y-44132000D01*
X22954615Y-44132000D01*
X22939376Y-44136475D01*
X22938171Y-44137865D01*
X22936500Y-44145548D01*
X22936500Y-44867885D01*
X22428500Y-44867885D01*
X22428500Y-44150116D01*
X22424025Y-44134877D01*
X22422635Y-44133672D01*
X22414952Y-44132001D01*
X21382831Y-44132001D01*
X21376010Y-44132371D01*
X21325148Y-44137895D01*
X21309896Y-44141521D01*
X21189446Y-44186676D01*
X21173851Y-44195214D01*
X21071776Y-44271715D01*
X21059215Y-44284276D01*
X20982714Y-44386351D01*
X20974176Y-44401946D01*
X20929022Y-44522394D01*
X20925395Y-44537649D01*
X20919869Y-44588514D01*
X20919500Y-44595328D01*
X20919500Y-44867885D01*
X17758500Y-44867885D01*
X17758500Y-43690316D01*
X17778502Y-43622195D01*
X17832158Y-43575702D01*
X17902432Y-43565598D01*
X17928729Y-43572334D01*
X17999782Y-43598971D01*
X17999788Y-43598973D01*
X18007184Y-43601745D01*
X18069366Y-43608500D01*
X20675634Y-43608500D01*
X20737816Y-43601745D01*
X20874205Y-43550615D01*
X20990761Y-43463261D01*
X21078115Y-43346705D01*
X21129245Y-43210316D01*
X21136000Y-43148134D01*
X21136000Y-42051866D01*
X21129245Y-41989684D01*
X21078115Y-41853295D01*
X20990761Y-41736739D01*
X20874205Y-41649385D01*
X20737816Y-41598255D01*
X20675634Y-41591500D01*
X18069366Y-41591500D01*
X18007184Y-41598255D01*
X17999788Y-41601027D01*
X17999782Y-41601029D01*
X17928729Y-41627666D01*
X17857922Y-41632849D01*
X17795553Y-41598928D01*
X17761424Y-41536673D01*
X17758500Y-41509684D01*
X17758500Y-40608134D01*
X20919000Y-40608134D01*
X20925755Y-40670316D01*
X20976885Y-40806705D01*
X21064239Y-40923261D01*
X21180795Y-41010615D01*
X21317184Y-41061745D01*
X21379366Y-41068500D01*
X23985634Y-41068500D01*
X24047816Y-41061745D01*
X24184205Y-41010615D01*
X24300761Y-40923261D01*
X24388115Y-40806705D01*
X24439245Y-40670316D01*
X24446000Y-40608134D01*
X24446000Y-39511866D01*
X24439245Y-39449684D01*
X24388115Y-39313295D01*
X24300761Y-39196739D01*
X24184205Y-39109385D01*
X24047816Y-39058255D01*
X23985634Y-39051500D01*
X21379366Y-39051500D01*
X21317184Y-39058255D01*
X21180795Y-39109385D01*
X21064239Y-39196739D01*
X20976885Y-39313295D01*
X20925755Y-39449684D01*
X20919000Y-39511866D01*
X20919000Y-40608134D01*
X17758500Y-40608134D01*
X17758500Y-38610316D01*
X17778502Y-38542195D01*
X17832158Y-38495702D01*
X17902432Y-38485598D01*
X17928729Y-38492334D01*
X17999782Y-38518971D01*
X17999788Y-38518973D01*
X18007184Y-38521745D01*
X18069366Y-38528500D01*
X20675634Y-38528500D01*
X20737816Y-38521745D01*
X20874205Y-38470615D01*
X20990761Y-38383261D01*
X21078115Y-38266705D01*
X21129245Y-38130316D01*
X21136000Y-38068134D01*
X21136000Y-36971866D01*
X21129245Y-36909684D01*
X21078115Y-36773295D01*
X20990761Y-36656739D01*
X20874205Y-36569385D01*
X20737816Y-36518255D01*
X20675634Y-36511500D01*
X18362490Y-36511500D01*
X18294369Y-36491498D01*
X18247876Y-36437842D01*
X18237772Y-36367568D01*
X18267266Y-36302988D01*
X18273395Y-36296405D01*
X19024395Y-35545405D01*
X19086707Y-35511379D01*
X19113490Y-35508500D01*
X19916191Y-35508500D01*
X19935141Y-35509933D01*
X19949376Y-35512099D01*
X19949380Y-35512099D01*
X19956610Y-35513199D01*
X19963902Y-35512606D01*
X19963905Y-35512606D01*
X20009279Y-35508915D01*
X20019494Y-35508500D01*
X20027554Y-35508500D01*
X20040844Y-35506951D01*
X20055768Y-35505211D01*
X20060143Y-35504778D01*
X20125600Y-35499454D01*
X20125603Y-35499453D01*
X20132898Y-35498860D01*
X20139862Y-35496604D01*
X20145821Y-35495413D01*
X20151676Y-35494029D01*
X20158942Y-35493182D01*
X20227588Y-35468265D01*
X20231716Y-35466848D01*
X20294197Y-35446607D01*
X20294199Y-35446606D01*
X20301160Y-35444351D01*
X20307415Y-35440555D01*
X20312889Y-35438049D01*
X20318319Y-35435330D01*
X20325198Y-35432833D01*
X20386237Y-35392814D01*
X20389941Y-35390477D01*
X20452368Y-35352595D01*
X20460745Y-35345197D01*
X20460769Y-35345224D01*
X20463761Y-35342571D01*
X20466994Y-35339868D01*
X20473113Y-35335856D01*
X20526389Y-35279617D01*
X20528767Y-35277175D01*
X20703905Y-35102037D01*
X20766217Y-35068011D01*
X20837032Y-35073076D01*
X20893868Y-35115623D01*
X20918679Y-35182143D01*
X20919000Y-35191132D01*
X20919000Y-35528134D01*
X20925755Y-35590316D01*
X20976885Y-35726705D01*
X21064239Y-35843261D01*
X21180795Y-35930615D01*
X21317184Y-35981745D01*
X21379366Y-35988500D01*
X23985634Y-35988500D01*
X24047816Y-35981745D01*
X24184205Y-35930615D01*
X24300761Y-35843261D01*
X24388115Y-35726705D01*
X24439245Y-35590316D01*
X24446000Y-35528134D01*
X24446000Y-34431866D01*
X24439245Y-34369684D01*
X24388115Y-34233295D01*
X24300761Y-34116739D01*
X24184205Y-34029385D01*
X24047816Y-33978255D01*
X23985634Y-33971500D01*
X22138632Y-33971500D01*
X22070511Y-33951498D01*
X22024018Y-33897842D01*
X22013914Y-33827568D01*
X22043408Y-33762988D01*
X22049537Y-33756405D01*
X22510537Y-33295405D01*
X22572849Y-33261379D01*
X22599632Y-33258500D01*
X25932930Y-33258500D01*
X25951880Y-33259933D01*
X25966115Y-33262099D01*
X25966119Y-33262099D01*
X25973349Y-33263199D01*
X25980641Y-33262606D01*
X25980644Y-33262606D01*
X26026018Y-33258915D01*
X26036233Y-33258500D01*
X26044293Y-33258500D01*
X26057583Y-33256951D01*
X26072507Y-33255211D01*
X26076882Y-33254778D01*
X26142339Y-33249454D01*
X26142342Y-33249453D01*
X26149637Y-33248860D01*
X26156601Y-33246604D01*
X26162560Y-33245413D01*
X26168415Y-33244029D01*
X26175681Y-33243182D01*
X26244327Y-33218265D01*
X26248455Y-33216848D01*
X26310936Y-33196607D01*
X26310938Y-33196606D01*
X26317899Y-33194351D01*
X26324154Y-33190555D01*
X26329628Y-33188049D01*
X26335058Y-33185330D01*
X26341937Y-33182833D01*
X26348058Y-33178820D01*
X26402976Y-33142814D01*
X26406680Y-33140477D01*
X26469107Y-33102595D01*
X26477484Y-33095197D01*
X26477508Y-33095224D01*
X26480500Y-33092571D01*
X26483733Y-33089868D01*
X26489852Y-33085856D01*
X26543128Y-33029617D01*
X26545506Y-33027175D01*
X33957276Y-25615405D01*
X34019588Y-25581379D01*
X34046371Y-25578500D01*
X41302698Y-25578500D01*
X41370819Y-25598502D01*
X41403524Y-25628935D01*
X41444239Y-25683261D01*
X41560795Y-25770615D01*
X41697184Y-25821745D01*
X41759366Y-25828500D01*
X44365634Y-25828500D01*
X44427816Y-25821745D01*
X44564205Y-25770615D01*
X44680761Y-25683261D01*
X44768115Y-25566705D01*
X44819245Y-25430316D01*
X44826000Y-25368134D01*
X44826000Y-24271866D01*
X44819245Y-24209684D01*
X44768115Y-24073295D01*
X44680761Y-23956739D01*
X44564205Y-23869385D01*
X44427816Y-23818255D01*
X44365634Y-23811500D01*
X41759366Y-23811500D01*
X41697184Y-23818255D01*
X41560795Y-23869385D01*
X41444239Y-23956739D01*
X41438858Y-23963919D01*
X41403524Y-24011065D01*
X41346665Y-24053580D01*
X41302698Y-24061500D01*
X33747069Y-24061500D01*
X33728121Y-24060067D01*
X33720780Y-24058950D01*
X33713883Y-24057901D01*
X33713881Y-24057901D01*
X33706651Y-24056801D01*
X33699359Y-24057394D01*
X33699356Y-24057394D01*
X33653982Y-24061085D01*
X33643767Y-24061500D01*
X33635707Y-24061500D01*
X33622417Y-24063049D01*
X33607493Y-24064789D01*
X33603118Y-24065222D01*
X33537661Y-24070546D01*
X33537658Y-24070547D01*
X33530363Y-24071140D01*
X33523399Y-24073396D01*
X33517440Y-24074587D01*
X33511585Y-24075971D01*
X33504319Y-24076818D01*
X33435673Y-24101735D01*
X33431545Y-24103152D01*
X33369064Y-24123393D01*
X33369062Y-24123394D01*
X33362101Y-24125649D01*
X33355846Y-24129445D01*
X33350372Y-24131951D01*
X33344942Y-24134670D01*
X33338063Y-24137167D01*
X33331943Y-24141180D01*
X33331942Y-24141180D01*
X33277024Y-24177186D01*
X33273320Y-24179523D01*
X33210893Y-24217405D01*
X33202516Y-24224803D01*
X33202492Y-24224776D01*
X33199500Y-24227429D01*
X33196267Y-24230132D01*
X33190148Y-24234144D01*
X33185116Y-24239456D01*
X33136872Y-24290383D01*
X33134494Y-24292825D01*
X25722724Y-31704595D01*
X25660412Y-31738621D01*
X25633629Y-31741500D01*
X22300331Y-31741500D01*
X22281381Y-31740067D01*
X22267146Y-31737901D01*
X22267142Y-31737901D01*
X22259912Y-31736801D01*
X22252620Y-31737394D01*
X22252617Y-31737394D01*
X22207243Y-31741085D01*
X22197028Y-31741500D01*
X22188968Y-31741500D01*
X22185334Y-31741924D01*
X22185328Y-31741924D01*
X22172730Y-31743393D01*
X22160741Y-31744791D01*
X22156393Y-31745221D01*
X22134320Y-31747016D01*
X22090923Y-31750546D01*
X22090920Y-31750547D01*
X22083625Y-31751140D01*
X22076661Y-31753396D01*
X22070722Y-31754583D01*
X22064851Y-31755970D01*
X22057580Y-31756818D01*
X22050704Y-31759314D01*
X22050695Y-31759316D01*
X21988963Y-31781725D01*
X21984859Y-31783135D01*
X21915362Y-31805648D01*
X21909107Y-31809444D01*
X21903648Y-31811943D01*
X21898200Y-31814671D01*
X21891324Y-31817167D01*
X21830271Y-31857195D01*
X21826598Y-31859513D01*
X21764154Y-31897405D01*
X21755778Y-31904802D01*
X21755754Y-31904775D01*
X21752760Y-31907430D01*
X21749529Y-31910132D01*
X21743409Y-31914144D01*
X21715472Y-31943635D01*
X21690133Y-31970383D01*
X21687755Y-31972825D01*
X21351095Y-32309485D01*
X21288783Y-32343511D01*
X21217968Y-32338446D01*
X21161132Y-32295899D01*
X21136321Y-32229379D01*
X21136000Y-32220390D01*
X21136000Y-31891866D01*
X21129245Y-31829684D01*
X21078115Y-31693295D01*
X20990761Y-31576739D01*
X20874205Y-31489385D01*
X20737816Y-31438255D01*
X20675634Y-31431500D01*
X18069366Y-31431500D01*
X18007184Y-31438255D01*
X17955424Y-31457659D01*
X17884616Y-31462842D01*
X17822247Y-31428921D01*
X17788118Y-31366666D01*
X17793065Y-31295842D01*
X17822099Y-31250582D01*
X18027276Y-31045405D01*
X18089588Y-31011379D01*
X18116371Y-31008500D01*
X19432930Y-31008500D01*
X19451880Y-31009933D01*
X19466115Y-31012099D01*
X19466119Y-31012099D01*
X19473349Y-31013199D01*
X19480641Y-31012606D01*
X19480644Y-31012606D01*
X19526018Y-31008915D01*
X19536233Y-31008500D01*
X19544293Y-31008500D01*
X19557583Y-31006951D01*
X19572507Y-31005211D01*
X19576882Y-31004778D01*
X19642339Y-30999454D01*
X19642342Y-30999453D01*
X19649637Y-30998860D01*
X19656601Y-30996604D01*
X19662560Y-30995413D01*
X19668415Y-30994029D01*
X19675681Y-30993182D01*
X19744327Y-30968265D01*
X19748455Y-30966848D01*
X19810936Y-30946607D01*
X19810938Y-30946606D01*
X19817899Y-30944351D01*
X19824154Y-30940555D01*
X19829628Y-30938049D01*
X19835058Y-30935330D01*
X19841937Y-30932833D01*
X19879051Y-30908500D01*
X19902976Y-30892814D01*
X19906680Y-30890477D01*
X19969107Y-30852595D01*
X19977484Y-30845197D01*
X19977508Y-30845224D01*
X19980500Y-30842571D01*
X19983733Y-30839868D01*
X19989852Y-30835856D01*
X20043128Y-30779617D01*
X20045506Y-30777175D01*
X20703905Y-30118776D01*
X20766217Y-30084750D01*
X20837032Y-30089815D01*
X20893868Y-30132362D01*
X20918679Y-30198882D01*
X20919000Y-30207871D01*
X20919000Y-30448134D01*
X20925755Y-30510316D01*
X20976885Y-30646705D01*
X21064239Y-30763261D01*
X21180795Y-30850615D01*
X21317184Y-30901745D01*
X21379366Y-30908500D01*
X23985634Y-30908500D01*
X24047816Y-30901745D01*
X24184205Y-30850615D01*
X24300761Y-30763261D01*
X24388115Y-30646705D01*
X24439245Y-30510316D01*
X24446000Y-30448134D01*
X24446000Y-29351866D01*
X24439245Y-29289684D01*
X24388115Y-29153295D01*
X24300761Y-29036739D01*
X24184205Y-28949385D01*
X24047816Y-28898255D01*
X23985634Y-28891500D01*
X22235371Y-28891500D01*
X22167250Y-28871498D01*
X22120757Y-28817842D01*
X22110653Y-28747568D01*
X22140147Y-28682988D01*
X22146276Y-28676405D01*
X22277276Y-28545405D01*
X22339588Y-28511379D01*
X22366371Y-28508500D01*
X25182930Y-28508500D01*
X25201880Y-28509933D01*
X25216115Y-28512099D01*
X25216119Y-28512099D01*
X25223349Y-28513199D01*
X25230641Y-28512606D01*
X25230644Y-28512606D01*
X25276018Y-28508915D01*
X25286233Y-28508500D01*
X25294293Y-28508500D01*
X25307583Y-28506951D01*
X25322507Y-28505211D01*
X25326882Y-28504778D01*
X25392339Y-28499454D01*
X25392342Y-28499453D01*
X25399637Y-28498860D01*
X25406601Y-28496604D01*
X25412560Y-28495413D01*
X25418415Y-28494029D01*
X25425681Y-28493182D01*
X25494327Y-28468265D01*
X25498455Y-28466848D01*
X25560936Y-28446607D01*
X25560938Y-28446606D01*
X25567899Y-28444351D01*
X25574154Y-28440555D01*
X25579628Y-28438049D01*
X25585058Y-28435330D01*
X25591937Y-28432833D01*
X25652976Y-28392814D01*
X25656680Y-28390477D01*
X25719107Y-28352595D01*
X25727484Y-28345197D01*
X25727508Y-28345224D01*
X25730500Y-28342571D01*
X25733733Y-28339868D01*
X25739852Y-28335856D01*
X25793128Y-28279617D01*
X25795506Y-28277175D01*
X31027276Y-23045405D01*
X31089588Y-23011379D01*
X31116371Y-23008500D01*
X37970214Y-23008500D01*
X38038335Y-23028502D01*
X38071040Y-23058935D01*
X38134239Y-23143261D01*
X38250795Y-23230615D01*
X38387184Y-23281745D01*
X38449366Y-23288500D01*
X41055634Y-23288500D01*
X41117816Y-23281745D01*
X41254205Y-23230615D01*
X41370761Y-23143261D01*
X41458115Y-23026705D01*
X41509245Y-22890316D01*
X41516000Y-22828134D01*
X41516000Y-21731866D01*
X41509245Y-21669684D01*
X41458115Y-21533295D01*
X41370761Y-21416739D01*
X41254205Y-21329385D01*
X41117816Y-21278255D01*
X41055634Y-21271500D01*
X38449366Y-21271500D01*
X38387184Y-21278255D01*
X38250795Y-21329385D01*
X38134239Y-21416739D01*
X38128591Y-21424276D01*
X38116009Y-21441064D01*
X38059150Y-21483580D01*
X38015182Y-21491500D01*
X30817070Y-21491500D01*
X30798120Y-21490067D01*
X30783885Y-21487901D01*
X30783881Y-21487901D01*
X30776651Y-21486801D01*
X30769359Y-21487394D01*
X30769356Y-21487394D01*
X30723982Y-21491085D01*
X30713767Y-21491500D01*
X30705707Y-21491500D01*
X30702073Y-21491924D01*
X30702067Y-21491924D01*
X30689042Y-21493443D01*
X30677480Y-21494791D01*
X30673132Y-21495221D01*
X30651059Y-21497016D01*
X30607662Y-21500546D01*
X30607659Y-21500547D01*
X30600364Y-21501140D01*
X30593400Y-21503396D01*
X30587461Y-21504583D01*
X30581590Y-21505970D01*
X30574319Y-21506818D01*
X30567443Y-21509314D01*
X30567434Y-21509316D01*
X30505702Y-21531725D01*
X30501598Y-21533135D01*
X30432101Y-21555648D01*
X30425846Y-21559444D01*
X30420387Y-21561943D01*
X30414939Y-21564671D01*
X30408063Y-21567167D01*
X30347010Y-21607195D01*
X30343337Y-21609513D01*
X30280893Y-21647405D01*
X30272517Y-21654802D01*
X30272493Y-21654775D01*
X30269499Y-21657430D01*
X30266268Y-21660132D01*
X30260148Y-21664144D01*
X30247355Y-21677649D01*
X30206872Y-21720383D01*
X30204494Y-21722825D01*
X24972724Y-26954595D01*
X24910412Y-26988621D01*
X24883629Y-26991500D01*
X22067070Y-26991500D01*
X22048120Y-26990067D01*
X22033885Y-26987901D01*
X22033881Y-26987901D01*
X22026651Y-26986801D01*
X22019359Y-26987394D01*
X22019356Y-26987394D01*
X21973982Y-26991085D01*
X21963767Y-26991500D01*
X21955707Y-26991500D01*
X21952073Y-26991924D01*
X21952067Y-26991924D01*
X21939042Y-26993443D01*
X21927480Y-26994791D01*
X21923132Y-26995221D01*
X21850364Y-27001140D01*
X21843403Y-27003395D01*
X21837463Y-27004582D01*
X21831588Y-27005971D01*
X21824319Y-27006818D01*
X21755670Y-27031736D01*
X21751542Y-27033153D01*
X21689064Y-27053393D01*
X21689062Y-27053394D01*
X21682101Y-27055649D01*
X21675846Y-27059445D01*
X21670372Y-27061951D01*
X21664942Y-27064670D01*
X21658063Y-27067167D01*
X21651943Y-27071180D01*
X21651942Y-27071180D01*
X21597024Y-27107186D01*
X21593320Y-27109523D01*
X21530893Y-27147405D01*
X21522516Y-27154803D01*
X21522492Y-27154776D01*
X21519500Y-27157429D01*
X21516267Y-27160132D01*
X21510148Y-27164144D01*
X21505116Y-27169456D01*
X21456872Y-27220383D01*
X21454494Y-27222825D01*
X21351095Y-27326224D01*
X21288783Y-27360250D01*
X21217968Y-27355185D01*
X21161132Y-27312638D01*
X21136321Y-27246118D01*
X21136000Y-27237129D01*
X21136000Y-26811866D01*
X21129245Y-26749684D01*
X21078115Y-26613295D01*
X20990761Y-26496739D01*
X20874205Y-26409385D01*
X20737816Y-26358255D01*
X20675634Y-26351500D01*
X18069366Y-26351500D01*
X18007184Y-26358255D01*
X17870795Y-26409385D01*
X17754239Y-26496739D01*
X17666885Y-26613295D01*
X17615755Y-26749684D01*
X17609000Y-26811866D01*
X17609000Y-27908134D01*
X17615755Y-27970316D01*
X17666885Y-28106705D01*
X17754239Y-28223261D01*
X17870795Y-28310615D01*
X18007184Y-28361745D01*
X18069366Y-28368500D01*
X20004629Y-28368500D01*
X20072750Y-28388502D01*
X20119243Y-28442158D01*
X20129347Y-28512432D01*
X20099853Y-28577012D01*
X20093724Y-28583595D01*
X19222724Y-29454595D01*
X19160412Y-29488621D01*
X19133629Y-29491500D01*
X17817069Y-29491500D01*
X17798121Y-29490067D01*
X17790780Y-29488950D01*
X17783883Y-29487901D01*
X17783881Y-29487901D01*
X17776651Y-29486801D01*
X17769359Y-29487394D01*
X17769356Y-29487394D01*
X17723982Y-29491085D01*
X17713767Y-29491500D01*
X17705707Y-29491500D01*
X17692417Y-29493049D01*
X17677493Y-29494789D01*
X17673118Y-29495222D01*
X17607661Y-29500546D01*
X17607658Y-29500547D01*
X17600363Y-29501140D01*
X17593399Y-29503396D01*
X17587440Y-29504587D01*
X17581585Y-29505971D01*
X17574319Y-29506818D01*
X17505673Y-29531735D01*
X17501545Y-29533152D01*
X17439064Y-29553393D01*
X17439062Y-29553394D01*
X17432101Y-29555649D01*
X17425846Y-29559445D01*
X17420372Y-29561951D01*
X17414942Y-29564670D01*
X17408063Y-29567167D01*
X17401943Y-29571180D01*
X17401942Y-29571180D01*
X17347024Y-29607186D01*
X17343320Y-29609523D01*
X17280893Y-29647405D01*
X17272516Y-29654803D01*
X17272492Y-29654776D01*
X17269500Y-29657429D01*
X17266267Y-29660132D01*
X17260148Y-29664144D01*
X17255116Y-29669456D01*
X17206872Y-29720383D01*
X17204494Y-29722825D01*
X15261089Y-31666230D01*
X15246677Y-31678616D01*
X15235082Y-31687149D01*
X15235077Y-31687154D01*
X15229182Y-31691492D01*
X15224443Y-31697070D01*
X15224440Y-31697073D01*
X15194965Y-31731768D01*
X15188035Y-31739284D01*
X15182340Y-31744979D01*
X15180060Y-31747861D01*
X15164719Y-31767251D01*
X15161928Y-31770655D01*
X15126293Y-31812600D01*
X15114667Y-31826285D01*
X15111339Y-31832801D01*
X15107972Y-31837850D01*
X15104805Y-31842979D01*
X15100266Y-31848716D01*
X15069345Y-31914875D01*
X15067442Y-31918769D01*
X15034231Y-31983808D01*
X15032492Y-31990916D01*
X15030393Y-31996559D01*
X15028476Y-32002322D01*
X15025378Y-32008950D01*
X15023888Y-32016112D01*
X15023888Y-32016113D01*
X15010514Y-32080412D01*
X15009544Y-32084696D01*
X14992192Y-32155610D01*
X14991844Y-32161212D01*
X14991844Y-32161215D01*
X14991500Y-32166762D01*
X14991500Y-32166764D01*
X14991464Y-32166762D01*
X14991225Y-32170755D01*
X14990851Y-32174947D01*
X14989360Y-32182115D01*
X14989558Y-32189432D01*
X14991454Y-32259521D01*
X14991500Y-32262928D01*
X14991500Y-59182930D01*
X14990067Y-59201880D01*
X14986801Y-59223349D01*
X13508000Y-59223349D01*
X13508000Y-25368134D01*
X20919000Y-25368134D01*
X20925755Y-25430316D01*
X20976885Y-25566705D01*
X21064239Y-25683261D01*
X21180795Y-25770615D01*
X21317184Y-25821745D01*
X21379366Y-25828500D01*
X23985634Y-25828500D01*
X24047816Y-25821745D01*
X24184205Y-25770615D01*
X24300761Y-25683261D01*
X24388115Y-25566705D01*
X24439245Y-25430316D01*
X24446000Y-25368134D01*
X24446000Y-24271866D01*
X24439245Y-24209684D01*
X24441059Y-24209487D01*
X24444238Y-24148505D01*
X24474027Y-24101154D01*
X30029776Y-18545405D01*
X30092088Y-18511379D01*
X30118871Y-18508500D01*
X41615004Y-18508500D01*
X41683125Y-18528502D01*
X41729618Y-18582158D01*
X41739722Y-18652432D01*
X41710228Y-18717012D01*
X41659233Y-18752482D01*
X41569205Y-18786232D01*
X41569204Y-18786233D01*
X41560795Y-18789385D01*
X41444239Y-18876739D01*
X41356885Y-18993295D01*
X41305755Y-19129684D01*
X41299000Y-19191866D01*
X41299000Y-20288134D01*
X41305755Y-20350316D01*
X41356885Y-20486705D01*
X41444239Y-20603261D01*
X41560795Y-20690615D01*
X41697184Y-20741745D01*
X41759366Y-20748500D01*
X44365634Y-20748500D01*
X44427816Y-20741745D01*
X44564205Y-20690615D01*
X44680761Y-20603261D01*
X44768115Y-20486705D01*
X44819245Y-20350316D01*
X44826000Y-20288134D01*
X44826000Y-19202871D01*
X44846002Y-19134750D01*
X44899658Y-19088257D01*
X44969932Y-19078153D01*
X45034512Y-19107647D01*
X45041095Y-19113776D01*
X58394595Y-32467276D01*
X58428621Y-32529588D01*
X58431500Y-32556371D01*
X58431500Y-45585198D01*
X58411498Y-45653319D01*
X58381065Y-45686024D01*
X58326739Y-45726739D01*
X58239385Y-45843295D01*
X58188255Y-45979684D01*
X58181500Y-46041866D01*
X58181500Y-48648134D01*
X58188255Y-48710316D01*
X58239385Y-48846705D01*
X58326739Y-48963261D01*
X58443295Y-49050615D01*
X58579684Y-49101745D01*
X58641866Y-49108500D01*
X59738134Y-49108500D01*
X59800316Y-49101745D01*
X59936705Y-49050615D01*
X60053261Y-48963261D01*
X60140615Y-48846705D01*
X60191745Y-48710316D01*
X60198500Y-48648134D01*
X60198500Y-48644669D01*
X63262001Y-48644669D01*
X63262371Y-48651490D01*
X63267895Y-48702352D01*
X63271521Y-48717604D01*
X63316676Y-48838054D01*
X63325214Y-48853649D01*
X63401715Y-48955724D01*
X63414276Y-48968285D01*
X63516351Y-49044786D01*
X63531946Y-49053324D01*
X63652394Y-49098478D01*
X63667649Y-49102105D01*
X63718514Y-49107631D01*
X63725328Y-49108000D01*
X63997885Y-49108000D01*
X64013124Y-49103525D01*
X64014329Y-49102135D01*
X64016000Y-49094452D01*
X64016000Y-49089884D01*
X64524000Y-49089884D01*
X64528475Y-49105123D01*
X64529865Y-49106328D01*
X64537548Y-49107999D01*
X64814669Y-49107999D01*
X64821490Y-49107629D01*
X64872352Y-49102105D01*
X64887604Y-49098479D01*
X65008054Y-49053324D01*
X65023649Y-49044786D01*
X65125724Y-48968285D01*
X65138285Y-48955724D01*
X65214786Y-48853649D01*
X65223324Y-48838054D01*
X65268478Y-48717606D01*
X65272105Y-48702351D01*
X65277631Y-48651486D01*
X65278000Y-48644672D01*
X65278000Y-47617115D01*
X65273525Y-47601876D01*
X65272135Y-47600671D01*
X65264452Y-47599000D01*
X64542115Y-47599000D01*
X64526876Y-47603475D01*
X64525671Y-47604865D01*
X64524000Y-47612548D01*
X64524000Y-49089884D01*
X64016000Y-49089884D01*
X64016000Y-47617115D01*
X64011525Y-47601876D01*
X64010135Y-47600671D01*
X64002452Y-47599000D01*
X63280116Y-47599000D01*
X63264877Y-47603475D01*
X63263672Y-47604865D01*
X63262001Y-47612548D01*
X63262001Y-48644669D01*
X60198500Y-48644669D01*
X60198500Y-47072885D01*
X63262000Y-47072885D01*
X63266475Y-47088124D01*
X63267865Y-47089329D01*
X63275548Y-47091000D01*
X63997885Y-47091000D01*
X64013124Y-47086525D01*
X64014329Y-47085135D01*
X64016000Y-47077452D01*
X64016000Y-47072885D01*
X64524000Y-47072885D01*
X64528475Y-47088124D01*
X64529865Y-47089329D01*
X64537548Y-47091000D01*
X65259884Y-47091000D01*
X65275123Y-47086525D01*
X65276328Y-47085135D01*
X65277999Y-47077452D01*
X65277999Y-46045331D01*
X65277629Y-46038510D01*
X65272105Y-45987648D01*
X65268479Y-45972396D01*
X65223324Y-45851946D01*
X65214786Y-45836351D01*
X65138285Y-45734276D01*
X65125724Y-45721715D01*
X65023649Y-45645214D01*
X65008054Y-45636676D01*
X64887606Y-45591522D01*
X64872351Y-45587895D01*
X64821486Y-45582369D01*
X64814672Y-45582000D01*
X64542115Y-45582000D01*
X64526876Y-45586475D01*
X64525671Y-45587865D01*
X64524000Y-45595548D01*
X64524000Y-47072885D01*
X64016000Y-47072885D01*
X64016000Y-45600116D01*
X64011525Y-45584877D01*
X64010135Y-45583672D01*
X64002452Y-45582001D01*
X63725331Y-45582001D01*
X63718510Y-45582371D01*
X63667648Y-45587895D01*
X63652396Y-45591521D01*
X63531946Y-45636676D01*
X63516351Y-45645214D01*
X63414276Y-45721715D01*
X63401715Y-45734276D01*
X63325214Y-45836351D01*
X63316676Y-45851946D01*
X63271522Y-45972394D01*
X63267895Y-45987649D01*
X63262369Y-46038514D01*
X63262000Y-46045328D01*
X63262000Y-47072885D01*
X60198500Y-47072885D01*
X60198500Y-46041866D01*
X60191745Y-45979684D01*
X60140615Y-45843295D01*
X60053261Y-45726739D01*
X59998935Y-45686024D01*
X59956420Y-45629165D01*
X59948500Y-45585198D01*
X59948500Y-32257070D01*
X59949933Y-32238120D01*
X59952099Y-32223885D01*
X59952099Y-32223881D01*
X59953199Y-32216651D01*
X59948915Y-32163982D01*
X59948500Y-32153767D01*
X59948500Y-32145707D01*
X59945209Y-32117480D01*
X59944778Y-32113121D01*
X59942466Y-32084701D01*
X59938860Y-32040364D01*
X59936605Y-32033403D01*
X59935418Y-32027463D01*
X59934029Y-32021588D01*
X59933182Y-32014319D01*
X59908264Y-31945670D01*
X59906847Y-31941542D01*
X59886607Y-31879064D01*
X59886606Y-31879062D01*
X59884351Y-31872101D01*
X59880555Y-31865846D01*
X59878049Y-31860372D01*
X59875330Y-31854942D01*
X59872833Y-31848063D01*
X59849582Y-31812600D01*
X59832814Y-31787024D01*
X59830467Y-31783305D01*
X59830376Y-31783155D01*
X59792595Y-31720893D01*
X59785197Y-31712516D01*
X59785224Y-31712492D01*
X59782571Y-31709500D01*
X59779868Y-31706267D01*
X59775856Y-31700148D01*
X59719617Y-31646872D01*
X59717175Y-31644494D01*
X51546276Y-23473595D01*
X51512250Y-23411283D01*
X51517315Y-23340468D01*
X51559862Y-23283632D01*
X51626382Y-23258821D01*
X51635371Y-23258500D01*
X52648134Y-23258500D01*
X52651520Y-23258132D01*
X52652188Y-23258096D01*
X52721291Y-23274383D01*
X52766724Y-23318546D01*
X52794491Y-23364306D01*
X52794495Y-23364311D01*
X52797405Y-23369107D01*
X52801121Y-23373315D01*
X52801122Y-23373316D01*
X52804803Y-23377484D01*
X52804776Y-23377508D01*
X52807429Y-23380500D01*
X52810132Y-23383733D01*
X52814144Y-23389852D01*
X52819456Y-23394884D01*
X52870383Y-23443128D01*
X52872825Y-23445506D01*
X65954595Y-36527276D01*
X65988621Y-36589588D01*
X65991500Y-36616371D01*
X65991500Y-48941586D01*
X65971498Y-49009707D01*
X65954598Y-49030679D01*
X65953920Y-49031357D01*
X65946739Y-49036739D01*
X65859385Y-49153295D01*
X65808255Y-49289684D01*
X65801500Y-49351866D01*
X65801500Y-51958134D01*
X65808255Y-52020316D01*
X65859385Y-52156705D01*
X65946739Y-52273261D01*
X66063295Y-52360615D01*
X66199684Y-52411745D01*
X66261866Y-52418500D01*
X67358134Y-52418500D01*
X67420316Y-52411745D01*
X67556705Y-52360615D01*
X67673261Y-52273261D01*
X67760615Y-52156705D01*
X67811745Y-52020316D01*
X67818500Y-51958134D01*
X67818500Y-49351866D01*
X67811745Y-49289684D01*
X67760615Y-49153295D01*
X67673261Y-49036739D01*
X67665175Y-49030679D01*
X67558935Y-48951056D01*
X67516420Y-48894197D01*
X67508500Y-48850230D01*
X67508500Y-36317070D01*
X67509933Y-36298120D01*
X67512099Y-36283885D01*
X67512099Y-36283881D01*
X67513199Y-36276651D01*
X67512576Y-36268982D01*
X67508915Y-36223982D01*
X67508500Y-36213767D01*
X67508500Y-36205707D01*
X67508075Y-36202061D01*
X67505211Y-36177493D01*
X67504778Y-36173118D01*
X67499454Y-36107661D01*
X67499453Y-36107658D01*
X67498860Y-36100363D01*
X67496604Y-36093399D01*
X67495413Y-36087440D01*
X67494029Y-36081585D01*
X67493182Y-36074319D01*
X67468265Y-36005673D01*
X67466848Y-36001545D01*
X67446607Y-35939064D01*
X67446606Y-35939062D01*
X67444351Y-35932101D01*
X67440555Y-35925846D01*
X67438049Y-35920372D01*
X67435330Y-35914942D01*
X67432833Y-35908063D01*
X67392814Y-35847024D01*
X67390467Y-35843305D01*
X67352595Y-35780893D01*
X67345197Y-35772516D01*
X67345224Y-35772492D01*
X67342571Y-35769500D01*
X67339868Y-35766267D01*
X67335856Y-35760148D01*
X67279617Y-35706872D01*
X67277175Y-35704494D01*
X54805351Y-23232670D01*
X62132160Y-23232670D01*
X62137887Y-23240320D01*
X62309042Y-23345205D01*
X62317837Y-23349687D01*
X62527988Y-23436734D01*
X62537373Y-23439783D01*
X62758554Y-23492885D01*
X62768301Y-23494428D01*
X62995070Y-23512275D01*
X63004930Y-23512275D01*
X63231699Y-23494428D01*
X63241446Y-23492885D01*
X63462627Y-23439783D01*
X63472012Y-23436734D01*
X63682163Y-23349687D01*
X63690958Y-23345205D01*
X63858445Y-23242568D01*
X63867907Y-23232110D01*
X63864124Y-23223334D01*
X63012812Y-22372022D01*
X62998868Y-22364408D01*
X62997035Y-22364539D01*
X62990420Y-22368790D01*
X62138920Y-23220290D01*
X62132160Y-23232670D01*
X54805351Y-23232670D01*
X54445405Y-22872724D01*
X54411379Y-22810412D01*
X54408500Y-22783629D01*
X54408500Y-22004930D01*
X61487725Y-22004930D01*
X61505572Y-22231699D01*
X61507115Y-22241446D01*
X61560217Y-22462627D01*
X61563266Y-22472012D01*
X61650313Y-22682163D01*
X61654795Y-22690958D01*
X61757432Y-22858445D01*
X61767890Y-22867907D01*
X61776666Y-22864124D01*
X62627978Y-22012812D01*
X62634356Y-22001132D01*
X63364408Y-22001132D01*
X63364539Y-22002965D01*
X63368790Y-22009580D01*
X64220290Y-22861080D01*
X64232670Y-22867840D01*
X64240320Y-22862113D01*
X64345205Y-22690958D01*
X64349687Y-22682163D01*
X64436734Y-22472012D01*
X64439783Y-22462627D01*
X64492885Y-22241446D01*
X64494428Y-22231699D01*
X64512275Y-22004930D01*
X64512275Y-21995070D01*
X64494428Y-21768301D01*
X64492885Y-21758554D01*
X64439783Y-21537373D01*
X64436734Y-21527988D01*
X64349687Y-21317837D01*
X64345205Y-21309042D01*
X64242568Y-21141555D01*
X64232110Y-21132093D01*
X64223334Y-21135876D01*
X63372022Y-21987188D01*
X63364408Y-22001132D01*
X62634356Y-22001132D01*
X62635592Y-21998868D01*
X62635461Y-21997035D01*
X62631210Y-21990420D01*
X61779710Y-21138920D01*
X61767330Y-21132160D01*
X61759680Y-21137887D01*
X61654795Y-21309042D01*
X61650313Y-21317837D01*
X61563266Y-21527988D01*
X61560217Y-21537373D01*
X61507115Y-21758554D01*
X61505572Y-21768301D01*
X61487725Y-21995070D01*
X61487725Y-22004930D01*
X54408500Y-22004930D01*
X54408500Y-21201866D01*
X54401745Y-21139684D01*
X54350615Y-21003295D01*
X54263261Y-20886739D01*
X54146705Y-20799385D01*
X54062692Y-20767890D01*
X62132093Y-20767890D01*
X62135876Y-20776666D01*
X62987188Y-21627978D01*
X63001132Y-21635592D01*
X63002965Y-21635461D01*
X63009580Y-21631210D01*
X63861080Y-20779710D01*
X63867840Y-20767330D01*
X63862113Y-20759680D01*
X63690958Y-20654795D01*
X63682163Y-20650313D01*
X63472012Y-20563266D01*
X63462627Y-20560217D01*
X63241446Y-20507115D01*
X63231699Y-20505572D01*
X63004930Y-20487725D01*
X62995070Y-20487725D01*
X62768301Y-20505572D01*
X62758554Y-20507115D01*
X62537373Y-20560217D01*
X62527988Y-20563266D01*
X62317837Y-20650313D01*
X62309042Y-20654795D01*
X62141555Y-20757432D01*
X62132093Y-20767890D01*
X54062692Y-20767890D01*
X54010316Y-20748255D01*
X53948134Y-20741500D01*
X52851866Y-20741500D01*
X52789684Y-20748255D01*
X52782285Y-20751029D01*
X52779146Y-20751775D01*
X52720854Y-20751775D01*
X52717715Y-20751029D01*
X52710316Y-20748255D01*
X52648134Y-20741500D01*
X51551866Y-20741500D01*
X51489684Y-20748255D01*
X51353295Y-20799385D01*
X51236739Y-20886739D01*
X51231358Y-20893919D01*
X51231356Y-20893921D01*
X51205093Y-20928963D01*
X51148234Y-20971478D01*
X51077415Y-20976502D01*
X51015173Y-20942492D01*
X46083770Y-16011089D01*
X46071384Y-15996677D01*
X46062851Y-15985082D01*
X46062846Y-15985077D01*
X46058508Y-15979182D01*
X46052930Y-15974443D01*
X46052927Y-15974440D01*
X46018232Y-15944965D01*
X46010716Y-15938035D01*
X46005021Y-15932340D01*
X45988736Y-15919456D01*
X45982749Y-15914719D01*
X45979345Y-15911928D01*
X45929297Y-15869409D01*
X45929295Y-15869408D01*
X45923715Y-15864667D01*
X45917199Y-15861339D01*
X45912150Y-15857972D01*
X45907021Y-15854805D01*
X45901284Y-15850266D01*
X45835125Y-15819345D01*
X45831225Y-15817439D01*
X45766192Y-15784231D01*
X45759084Y-15782492D01*
X45753441Y-15780393D01*
X45747678Y-15778476D01*
X45741050Y-15775378D01*
X45669583Y-15760513D01*
X45665299Y-15759543D01*
X45594390Y-15742192D01*
X45588788Y-15741844D01*
X45588785Y-15741844D01*
X45583236Y-15741500D01*
X45583238Y-15741464D01*
X45579245Y-15741225D01*
X45575053Y-15740851D01*
X45567885Y-15739360D01*
X45504120Y-15741085D01*
X45490479Y-15741454D01*
X45487072Y-15741500D01*
X25989570Y-15741500D01*
X25970620Y-15740067D01*
X25956385Y-15737901D01*
X25956381Y-15737901D01*
X25949151Y-15736801D01*
X25941859Y-15737394D01*
X25941856Y-15737394D01*
X25896482Y-15741085D01*
X25886267Y-15741500D01*
X25878207Y-15741500D01*
X25874573Y-15741924D01*
X25874567Y-15741924D01*
X25861542Y-15743443D01*
X25849980Y-15744791D01*
X25845632Y-15745221D01*
X25772864Y-15751140D01*
X25765903Y-15753395D01*
X25759963Y-15754582D01*
X25754088Y-15755971D01*
X25746819Y-15756818D01*
X25678170Y-15781736D01*
X25674042Y-15783153D01*
X25611564Y-15803393D01*
X25611562Y-15803394D01*
X25604601Y-15805649D01*
X25598346Y-15809445D01*
X25592872Y-15811951D01*
X25587442Y-15814670D01*
X25580563Y-15817167D01*
X25574443Y-15821180D01*
X25574442Y-15821180D01*
X25519524Y-15857186D01*
X25515820Y-15859523D01*
X25453393Y-15897405D01*
X25445016Y-15904803D01*
X25444992Y-15904776D01*
X25442000Y-15907429D01*
X25438767Y-15910132D01*
X25432648Y-15914144D01*
X25403451Y-15944965D01*
X25379372Y-15970383D01*
X25376994Y-15972825D01*
X22655224Y-18694595D01*
X22592912Y-18728621D01*
X22566129Y-18731500D01*
X21379366Y-18731500D01*
X21317184Y-18738255D01*
X21180795Y-18789385D01*
X21064239Y-18876739D01*
X20976885Y-18993295D01*
X20925755Y-19129684D01*
X20919000Y-19191866D01*
X20919000Y-20288134D01*
X20925755Y-20350316D01*
X20976885Y-20486705D01*
X21064239Y-20603261D01*
X21180795Y-20690615D01*
X21317184Y-20741745D01*
X21379366Y-20748500D01*
X23985634Y-20748500D01*
X24047816Y-20741745D01*
X24184205Y-20690615D01*
X24300761Y-20603261D01*
X24388115Y-20486705D01*
X24439245Y-20350316D01*
X24446000Y-20288134D01*
X24446000Y-19191866D01*
X24439245Y-19129684D01*
X24441059Y-19129487D01*
X24444238Y-19068505D01*
X24474027Y-19021154D01*
X26199776Y-17295405D01*
X26262088Y-17261379D01*
X26288871Y-17258500D01*
X28867129Y-17258500D01*
X28935250Y-17278502D01*
X28981743Y-17332158D01*
X28991847Y-17402432D01*
X28962353Y-17467012D01*
X28956224Y-17473595D01*
X22655224Y-23774595D01*
X22592912Y-23808621D01*
X22566129Y-23811500D01*
X21379366Y-23811500D01*
X21317184Y-23818255D01*
X21180795Y-23869385D01*
X21064239Y-23956739D01*
X20976885Y-24073295D01*
X20925755Y-24209684D01*
X20919000Y-24271866D01*
X20919000Y-25368134D01*
X13508000Y-25368134D01*
X13508000Y-22824669D01*
X17609501Y-22824669D01*
X17609871Y-22831490D01*
X17615395Y-22882352D01*
X17619021Y-22897604D01*
X17664176Y-23018054D01*
X17672714Y-23033649D01*
X17749215Y-23135724D01*
X17761776Y-23148285D01*
X17863851Y-23224786D01*
X17879446Y-23233324D01*
X17999894Y-23278478D01*
X18015149Y-23282105D01*
X18066014Y-23287631D01*
X18072828Y-23288000D01*
X19100385Y-23288000D01*
X19115624Y-23283525D01*
X19116829Y-23282135D01*
X19118500Y-23274452D01*
X19118500Y-23269884D01*
X19626500Y-23269884D01*
X19630975Y-23285123D01*
X19632365Y-23286328D01*
X19640048Y-23287999D01*
X20672169Y-23287999D01*
X20678990Y-23287629D01*
X20729852Y-23282105D01*
X20745104Y-23278479D01*
X20865554Y-23233324D01*
X20881149Y-23224786D01*
X20983224Y-23148285D01*
X20995785Y-23135724D01*
X21072286Y-23033649D01*
X21080824Y-23018054D01*
X21125978Y-22897606D01*
X21129605Y-22882351D01*
X21135131Y-22831486D01*
X21135500Y-22824672D01*
X21135500Y-22552115D01*
X21131025Y-22536876D01*
X21129635Y-22535671D01*
X21121952Y-22534000D01*
X19644615Y-22534000D01*
X19629376Y-22538475D01*
X19628171Y-22539865D01*
X19626500Y-22547548D01*
X19626500Y-23269884D01*
X19118500Y-23269884D01*
X19118500Y-22552115D01*
X19114025Y-22536876D01*
X19112635Y-22535671D01*
X19104952Y-22534000D01*
X17627616Y-22534000D01*
X17612377Y-22538475D01*
X17611172Y-22539865D01*
X17609501Y-22547548D01*
X17609501Y-22824669D01*
X13508000Y-22824669D01*
X13508000Y-22007885D01*
X17609500Y-22007885D01*
X17613975Y-22023124D01*
X17615365Y-22024329D01*
X17623048Y-22026000D01*
X19100385Y-22026000D01*
X19115624Y-22021525D01*
X19116829Y-22020135D01*
X19118500Y-22012452D01*
X19118500Y-22007885D01*
X19626500Y-22007885D01*
X19630975Y-22023124D01*
X19632365Y-22024329D01*
X19640048Y-22026000D01*
X21117384Y-22026000D01*
X21132623Y-22021525D01*
X21133828Y-22020135D01*
X21135499Y-22012452D01*
X21135499Y-21735331D01*
X21135129Y-21728510D01*
X21129605Y-21677648D01*
X21125979Y-21662396D01*
X21080824Y-21541946D01*
X21072286Y-21526351D01*
X20995785Y-21424276D01*
X20983224Y-21411715D01*
X20881149Y-21335214D01*
X20865554Y-21326676D01*
X20745106Y-21281522D01*
X20729851Y-21277895D01*
X20678986Y-21272369D01*
X20672172Y-21272000D01*
X19644615Y-21272000D01*
X19629376Y-21276475D01*
X19628171Y-21277865D01*
X19626500Y-21285548D01*
X19626500Y-22007885D01*
X19118500Y-22007885D01*
X19118500Y-21290116D01*
X19114025Y-21274877D01*
X19112635Y-21273672D01*
X19104952Y-21272001D01*
X18072831Y-21272001D01*
X18066010Y-21272371D01*
X18015148Y-21277895D01*
X17999896Y-21281521D01*
X17879446Y-21326676D01*
X17863851Y-21335214D01*
X17761776Y-21411715D01*
X17749215Y-21424276D01*
X17672714Y-21526351D01*
X17664176Y-21541946D01*
X17619022Y-21662394D01*
X17615395Y-21677649D01*
X17609869Y-21728514D01*
X17609500Y-21735328D01*
X17609500Y-22007885D01*
X13508000Y-22007885D01*
X13508000Y-13634000D01*
X13528002Y-13565879D01*
X13581658Y-13519386D01*
X13634000Y-13508000D01*
X112366000Y-13508000D01*
X112434121Y-13528002D01*
G37*
%TD.AperFunction*%
%TD*%
M02*
