<svg xmlns="http://www.w3.org/2000/svg" viewBox="0 0 62.51 61.9"><g id="Layer_2" data-name="Layer 2"><g id="Layer_1-2" data-name="Layer 1"><path d="M23.32,61.53l-.16,0,.43-2.37.24-1.33h0l-1.07,1.08L20.81,60.8l-.18,0,3.19-3.2.2.06Z"/><path d="M21.1,58.23c-.47,1.08-1.62,2.1-2.7,1.63-.73-.31-.88-1.08-.52-1.89.47-1.08,1.62-2.11,2.7-1.63C21.31,56.65,21.46,57.41,21.1,58.23ZM18.05,58c-.33.75-.24,1.42.42,1.7,1,.43,2-.58,2.46-1.54.33-.75.24-1.42-.42-1.71C19.54,56.05,18.47,57.06,18.05,58Z"/><path d="M15.4,58.22l-.15-.09,2.6-2.87L16,54.17l.11-.11,2,1.17Z"/><path d="M11.8,55.53l1.1.87-.13.11-2.35-1.85.14-.11,1.1.87,2.94-2.51.14.11Z"/><path d="M8.68,52.9l-.12-.13L11,49.61l.13.12L9.64,51.62c-.28.36-.59.74-.86,1.1l0,0,1.49-.43,2.65-.72.14.14Zm2.57-.77-1.18-1.2.12-.11,1.21,1.23Z"/><path d="M6.9,50.89l-.1-.14,1.76-1.64,1-.93h0L8,48.4l-2.69.4-.12-.14L9.67,48l.12.16Z"/><path d="M7.09,46.92c-1,.59-2.56.73-3.15-.29-.39-.69-.06-1.39.7-1.83,1-.59,2.56-.73,3.15.29A1.31,1.31,0,0,1,7.09,46.92Zm-2.34-2c-.7.41-1,1-.67,1.62.53.92,2,.74,2.9.22.7-.41,1-1,.67-1.62C7.12,44.24,5.66,44.42,4.75,44.94Z"/><path d="M4.18,42.65,2.75,44.12l-.08-.18.94-1,.42-.4v0l-.65-.17L1.84,42l-.08-.2,2.36.69,1.56-1.57.07.18-1,1c-.1.11-.34.34-.47.46v0l.75.19,1.56.43.08.2Z"/><path d="M.42,36.46l0-.26,2-.65.54-.15v0l-.6-.22L.11,34.24l0-.25,4,.24,0,.18-3.06-.19c-.25,0-.51,0-.76-.07v0c.22.07.43.15.7.26l2.15.88,0,.18-1.95.6-.64.2v0l.75,0,3.07.18,0,.18Z"/><path d="M0,31.3v-.18l4-.6v.18l-2.37.35L.2,31.24v0c.48.26.9.49,1.37.73L4,33.31v.19Zm2.39,1.22,0-1.68h.16l0,1.72Z"/><path d="M.11,28.51l0-.19,3-.73L4,27.4v0l-1.06-.31L.37,26.26l0-.18,3.85,1.23,0,.19-3,.74-.8.18v0l1.06.31L4,29.57l0,.18Z"/><path d="M3.38,25.84a3,3,0,0,1-.47-.17l-2.2-1,0-.18,2.16,1a1.88,1.88,0,0,0,.46.17A.91.91,0,0,0,4.62,25c.12-.5-.12-1.07-1-1.49L1.26,22.39l0-.18,2.38,1.12c1,.47,1.23,1.12,1.08,1.7A1,1,0,0,1,3.38,25.84Z"/><path d="M2,20.41l.82-2.12.13.09-.75,2,1.45.92.64-1.63.13.09-.63,1.62,1.68,1.07-.06.17Z"/><path d="M4,16.06,4,15.9l3.75,1.4-.09.16L5.46,16.6l-1.3-.51v0c.29.46.55.86.84,1.3l1.47,2.33-.09.17Zm1.49,2.23.8-1.48.14.08L5.56,18.4Z"/><path d="M7.14,15.55c-.94-.67-1.65-2.09-.91-3.11a1,1,0,0,1,1-.42v.18a.84.84,0,0,0-.85.34c-.68.93,0,2.25.86,2.84.65.47,1.36.56,1.83-.1a1.43,1.43,0,0,0,.25-1h.16a1.55,1.55,0,0,1-.29,1.13A1.33,1.33,0,0,1,7.14,15.55Z"/><path d="M8.71,9.89l-1,1-.1-.14,2-2.18.1.14-.95,1,2.25,3.13L11,13Z"/><path d="M12.07,10.35a2.91,2.91,0,0,1-.28-.41L10.63,7.8l.14-.11,1.14,2.09a1.52,1.52,0,0,0,.27.42.91.91,0,0,0,1.4.19c.39-.33.53-.93.06-1.8L12.41,6.32l.14-.11L13.8,8.52c.52,1,.32,1.62-.14,2A1,1,0,0,1,12.07,10.35Z"/><path d="M13.89,5.3l.8-.51c.6-.38,1.1-.4,1.42.1a1.31,1.31,0,0,1-.58,1.85l-.72.46L15.5,9l-.16.1Zm1.48,1.36c.75-.48,1-1.09.6-1.66s-.69-.4-1.28,0l-.6.38.67,1.69Zm.25-.07L17.34,7.8l-.18.11L15.51,6.74Z"/><path d="M17.49,3.22l2.1-1,0,.15-1.93.91.4,1.61,1.61-.77,0,.16-1.61.76.45,1.85,2-.93,0,.15-2.14,1Z"/><path d="M20.88,1.79l.67-.22a1.44,1.44,0,0,1,2,1,2.18,2.18,0,0,1-1.34,3l-.89.28ZM22.2,5.36A2,2,0,0,0,23.4,2.6a1.29,1.29,0,0,0-1.81-.88l-.53.17.43,3.7Z"/><path d="M28.12,2.68C28.06,1.5,28.63.07,29.8,0c.79,0,1.27.57,1.32,1.45.06,1.18-.51,2.61-1.68,2.68C28.65,4.17,28.17,3.56,28.12,2.68Zm2.82-1.19C30.89.67,30.51.12,29.8.16c-1.06.06-1.56,1.44-1.5,2.48.05.82.43,1.37,1.14,1.33C30.5,3.91,31,2.53,30.94,1.49Z"/><path d="M32.87.07l1,.08c.71.06,1.12.37,1.07,1-.07.86-.74,1.24-1.75,1.16l-.77-.06L32,4l-.18,0Zm.3,2.07c1,.08,1.54-.26,1.6-1,0-.54-.31-.79-1-.84L33,.24l-.52,1.84Z"/><path d="M36.83.53,39.1,1,39,1.13,36.94.71l-.63,1.53,1.75.35L38,2.73l-1.75-.34-.74,1.76,2.16.42-.07.15-2.32-.46Z"/><path d="M40.47,1.41l.18.07.08,3.11,0,.83h0c.17-.34.34-.65.53-1l1.32-2.32.17,0-2,3.51-.18-.07-.08-3.11V1.69h0c-.17.34-.34.64-.52,1L38.63,5l-.17,0Z"/><path d="M44.68,3.06l.16.08L42.5,6.23l1.9.93-.1.12-2.06-1Z"/><path d="M46.87,7.13l.62-2.56.15.09-.34,1.4c-.08.35-.2.76-.27,1h0c.24-.11.73-.3,1.12-.45l1.59-.58.16.11L47,7.24,46,8.3l-.15-.1Z"/><path d="M53.92,9.77l.63.69c.52.57.53,1.06.14,1.41a1.05,1.05,0,0,1-1.34,0l0,0A.88.88,0,0,1,53.21,13c-.62.56-1.34.36-2-.34l-.77-.84ZM51.27,12.5c.61.67,1.23.93,1.8.41.34-.31.33-.85-.15-1.37l-.57-.62-1.64,1ZM53,11.35c.62.68,1.21.75,1.6.4s.34-.68-.19-1.26L53.9,10l-1.42.85Z"/><path d="M54.74,14.68l1.53-2.15.1.15-.83,1.17c-.21.29-.47.63-.63.84h1.23l1.69.05.11.16-3.12-.08-1.36.6-.1-.15Z"/><path d="M57.76,20c1.09-.41,2.64-.22,3.1,1a1,1,0,0,1-.2,1.05l-.14-.1a.86.86,0,0,0,.19-.9c-.41-1.13-1.9-1.28-2.86-.93-.73.27-1.22.81-.91,1.64a1.16,1.16,0,0,0,.6.69l1.34-.21-.33-.89.16,0,.39,1.06-1.59.24a1.58,1.58,0,0,1-.73-.83A1.35,1.35,0,0,1,57.76,20Z"/><path d="M57.66,23.65l.23,1,3.72-.11-.23-1h.16l.51,2.2h-.16l-.24-1-3.72.1.24,1H58l-.51-2.19Z"/><path d="M58.41,27l.26,2.59-.16,0-.27-2.72h.1l4.09,2.69-.09.07-.25-2.47.16,0,.26,2.58-.11,0-4-2.68Z"/><path d="M62.51,31.27v.26l-2.1.31-.56.06v0l.56.31,2,1.27v.25l-3.94-.89v-.18l3,.68.74.2v0c-.21-.1-.4-.21-.65-.36l-2-1.22v-.18l2-.28.65-.09v0c-.25,0-.51-.09-.75-.15l-3-.68v-.18Z"/><path d="M59.89,34.19c1.16.18,2.45,1,2.27,2.2-.12.78-.81,1.12-1.69,1-1.16-.18-2.46-1-2.28-2.19C58.31,34.4,59,34.06,59.89,34.19Zm.58,3c.81.12,1.43-.14,1.54-.85.16-1-1.1-1.82-2.13-2-.81-.13-1.43.13-1.54.84C58.18,36.27,59.44,37,60.47,37.2Z"/><path d="M57.67,40.93c1.24.54.56,2.7,1.56,3.14a.37.37,0,0,0,.53-.17.86.86,0,0,0-.59-1.07,3.7,3.7,0,0,0-2.5,0,2.26,2.26,0,0,0-.78.45l-.1-.14a2.3,2.3,0,0,1,.82-.46,4.09,4.09,0,0,1,2.61,0A1,1,0,0,1,59.9,44a.49.49,0,0,1-.69.28c-1.13-.48-.48-2.66-1.58-3.13a.68.68,0,0,0-1,.4,1.75,1.75,0,0,0,0,1.23,4.51,4.51,0,0,0,.93,1.46l-.08.17a5.48,5.48,0,0,1-1-1.58,1.84,1.84,0,0,1,0-1.38A.83.83,0,0,1,57.67,40.93Z"/><path d="M54.77,47.91c.92.72,1.57,2.14.75,3.19a1.05,1.05,0,0,1-1,.38l0-.17a.88.88,0,0,0,.87-.31c.74-1,.08-2.3-.72-2.93a1.22,1.22,0,0,0-1.87.08,1.24,1.24,0,0,0-.28.88l.89,1,.58-.75.1.13-.69.89-1-1.23A1.53,1.53,0,0,1,52.7,48,1.36,1.36,0,0,1,54.77,47.91Z"/><path d="M53,53.76l-.12.13-3.18-2.43.13-.12,1.89,1.47c.36.27.74.58,1.1.86l0,0c-.15-.53-.28-1-.43-1.49l-.73-2.66.13-.13Zm-.78-2.56L51,52.38l-.11-.12,1.22-1.21Z"/><path d="M50.91,55.6l-.56.43a1.43,1.43,0,0,1-2.22-.24,2.16,2.16,0,0,1,.25-3.25l.75-.57Zm-2.44-2.93a2,2,0,0,0-.21,3,1.29,1.29,0,0,0,2,.23l.44-.34-1.64-3.34Z"/><path d="M46.88,55.47c.59,1,.66,2.57-.49,3.24a1.05,1.05,0,0,1-1.06,0l.07-.15a.87.87,0,0,0,.92,0c1-.6.93-2.09.42-3-.39-.68-1-1.07-1.76-.63a1.19,1.19,0,0,0-.58.72L44.84,57l.82-.48,0,.15-1,.57-.51-1.52a1.56,1.56,0,0,1,.69-.86A1.35,1.35,0,0,1,46.88,55.47Z"/><path d="M43.89,59.88l-2.13.9,0-.16,2-.83-.33-1.62-1.65.7,0-.16L43.33,58,43,56.14l-2,.86,0-.16,2.18-.92Z"/><path d="M39.34,61.3l1.36-.38v.18l-2.88.8v-.17l1.35-.38-.29-3.85.17,0Z"/></g></g></svg>