%TF.GenerationSoftware,KiCad,Pcbnew,(6.0.6)*%
%TF.CreationDate,2022-09-18T12:13:00-04:00*%
%TF.ProjectId,tier2,74696572-322e-46b6-9963-61645f706362,rev?*%
%TF.SameCoordinates,Original*%
%TF.FileFunction,Copper,L1,Top*%
%TF.FilePolarity,Positive*%
%FSLAX46Y46*%
G04 Gerber Fmt 4.6, Leading zero omitted, Abs format (unit mm)*
G04 Created by KiCad (PCBNEW (6.0.6)) date 2022-09-18 12:13:00*
%MOMM*%
%LPD*%
G01*
G04 APERTURE LIST*
G04 APERTURE END LIST*
%TA.AperFunction,NonConductor*%
G36*
X120106940Y-60247274D02*
G01*
X120118086Y-60251484D01*
X140279484Y-68977787D01*
X162501228Y-78595854D01*
X162555798Y-78641268D01*
X162577153Y-78708977D01*
X162574559Y-78737043D01*
X160931659Y-86668898D01*
X155359407Y-113571514D01*
X155100006Y-114823890D01*
X155066603Y-114886538D01*
X155004633Y-114921182D01*
X154976625Y-114924334D01*
X108793872Y-114924334D01*
X108725751Y-114904332D01*
X108679258Y-114850676D01*
X108674827Y-114839616D01*
X108235078Y-113571514D01*
X108234010Y-113568297D01*
X107801725Y-112204244D01*
X107800745Y-112201000D01*
X107466326Y-111038012D01*
X107466268Y-111037808D01*
X107401578Y-110811408D01*
X107400743Y-110808342D01*
X107129162Y-109758315D01*
X107129088Y-109758027D01*
X107038917Y-109405976D01*
X107038187Y-109402971D01*
X106810754Y-108414692D01*
X106810669Y-108414320D01*
X106714685Y-107991389D01*
X106714054Y-107988448D01*
X106522062Y-107037860D01*
X106429049Y-106568394D01*
X106428518Y-106565538D01*
X106267475Y-105640629D01*
X106267381Y-105640086D01*
X106182275Y-105138329D01*
X106181832Y-105135525D01*
X106048892Y-104228227D01*
X106048802Y-104227598D01*
X105974514Y-103702127D01*
X105974158Y-103699396D01*
X105867642Y-102805387D01*
X105867559Y-102804671D01*
X105805918Y-102260864D01*
X105805645Y-102258209D01*
X105724388Y-101374407D01*
X105724317Y-101373605D01*
X105676607Y-100815611D01*
X105676413Y-100813034D01*
X105619613Y-99937453D01*
X105619559Y-99936565D01*
X105586673Y-99367451D01*
X105586553Y-99364954D01*
X105553634Y-98496299D01*
X105553601Y-98495325D01*
X105536174Y-97917424D01*
X105536125Y-97915009D01*
X105526656Y-97052424D01*
X105526648Y-97051365D01*
X105525145Y-96466743D01*
X105525161Y-96464413D01*
X105538817Y-95606975D01*
X105538840Y-95605831D01*
X105553582Y-95016395D01*
X105553659Y-95014150D01*
X105590193Y-94161606D01*
X105590251Y-94160379D01*
X105621451Y-93567518D01*
X105621583Y-93565361D01*
X105680815Y-92717291D01*
X105680914Y-92715981D01*
X105728697Y-92121116D01*
X105728880Y-92119049D01*
X105810637Y-91275602D01*
X105810779Y-91274211D01*
X105875224Y-90678300D01*
X105875454Y-90676321D01*
X105979643Y-89837206D01*
X105979835Y-89835736D01*
X106060898Y-89240273D01*
X106061169Y-89238386D01*
X106094990Y-89015263D01*
X106187714Y-88403543D01*
X106187924Y-88402215D01*
X106285585Y-87807930D01*
X106285893Y-87806135D01*
X106434664Y-86976026D01*
X106434966Y-86974401D01*
X106549118Y-86382290D01*
X106549415Y-86380804D01*
X106720428Y-85555166D01*
X106720792Y-85553468D01*
X106851174Y-84964961D01*
X106851542Y-84963350D01*
X107044763Y-84142347D01*
X107045160Y-84140712D01*
X107113214Y-83869212D01*
X107191613Y-83556446D01*
X107192004Y-83554928D01*
X107407405Y-82738787D01*
X107407905Y-82736947D01*
X107570095Y-82158067D01*
X107570504Y-82156642D01*
X107808164Y-81345281D01*
X107808739Y-81343374D01*
X107986261Y-80771014D01*
X107986682Y-80769681D01*
X108246702Y-79963080D01*
X108247355Y-79961109D01*
X108439819Y-79396124D01*
X108440249Y-79394883D01*
X108722754Y-78593066D01*
X108723490Y-78591035D01*
X108930322Y-78034627D01*
X108930756Y-78033477D01*
X109235875Y-77236546D01*
X109236696Y-77234456D01*
X109457305Y-76687644D01*
X109457738Y-76686585D01*
X109785792Y-75894267D01*
X109786703Y-75892122D01*
X110020295Y-75356209D01*
X110020723Y-75355240D01*
X110372047Y-74567375D01*
X110373051Y-74565179D01*
X110618604Y-74041721D01*
X110619022Y-74040840D01*
X110994267Y-73256745D01*
X110995368Y-73254501D01*
X111251595Y-72745294D01*
X111251998Y-72744501D01*
X111651961Y-71963434D01*
X111653109Y-71961249D01*
X111792761Y-71701789D01*
X111918505Y-71468171D01*
X111918888Y-71467464D01*
X112344554Y-70688583D01*
X112345859Y-70686254D01*
X112618465Y-70211622D01*
X112618826Y-70210998D01*
X113071677Y-69432874D01*
X113073088Y-69430509D01*
X113349983Y-68977787D01*
X113350316Y-68977246D01*
X113832722Y-68197376D01*
X113834242Y-68194979D01*
X114111518Y-67768514D01*
X114111820Y-67768053D01*
X114627157Y-66982967D01*
X114628789Y-66980541D01*
X114900287Y-66587138D01*
X115454385Y-65790566D01*
X115456132Y-65788117D01*
X115711976Y-65438429D01*
X116056046Y-64971129D01*
X116313763Y-64621111D01*
X116315628Y-64618643D01*
X116537859Y-64331839D01*
X116538041Y-64331605D01*
X117204650Y-63475472D01*
X117206633Y-63472989D01*
X117355579Y-63291339D01*
X117355625Y-63291376D01*
X117355713Y-63291176D01*
X118124907Y-62356298D01*
X118127095Y-62353709D01*
X119065652Y-61273568D01*
X119067910Y-61271040D01*
X119975184Y-60281946D01*
X120035971Y-60245266D01*
X120106940Y-60247274D01*
G37*
%TD.AperFunction*%
M02*
