%TF.GenerationSoftware,KiCad,Pcbnew,(6.0.1-0)*%
%TF.CreationDate,2022-09-11T15:05:22-04:00*%
%TF.ProjectId,record,7265636f-7264-42e6-9b69-6361645f7063,rev?*%
%TF.SameCoordinates,Original*%
%TF.FileFunction,Copper,L2,Bot*%
%TF.FilePolarity,Positive*%
%FSLAX46Y46*%
G04 Gerber Fmt 4.6, Leading zero omitted, Abs format (unit mm)*
G04 Created by KiCad (PCBNEW (6.0.1-0)) date 2022-09-11 15:05:22*
%MOMM*%
%LPD*%
G01*
G04 APERTURE LIST*
G04 Aperture macros list*
%AMFreePoly0*
4,1,22,0.500000,-0.750000,0.000000,-0.750000,0.000000,-0.745033,-0.079941,-0.743568,-0.215256,-0.701293,-0.333266,-0.622738,-0.424486,-0.514219,-0.481581,-0.384460,-0.499164,-0.250000,-0.500000,-0.250000,-0.500000,0.250000,-0.499164,0.250000,-0.499963,0.256109,-0.478152,0.396186,-0.417904,0.524511,-0.324060,0.630769,-0.204165,0.706417,-0.067858,0.745374,0.000000,0.744959,0.000000,0.750000,
0.500000,0.750000,0.500000,-0.750000,0.500000,-0.750000,$1*%
%AMFreePoly1*
4,1,20,0.000000,0.744959,0.073905,0.744508,0.209726,0.703889,0.328688,0.626782,0.421226,0.519385,0.479903,0.390333,0.500000,0.250000,0.500000,-0.250000,0.499851,-0.262216,0.476331,-0.402017,0.414519,-0.529596,0.319384,-0.634700,0.198574,-0.708877,0.061801,-0.746166,0.000000,-0.745033,0.000000,-0.750000,-0.500000,-0.750000,-0.500000,0.750000,0.000000,0.750000,0.000000,0.744959,
0.000000,0.744959,$1*%
G04 Aperture macros list end*
%TA.AperFunction,ComponentPad*%
%ADD10C,2.000000*%
%TD*%
%TA.AperFunction,SMDPad,CuDef*%
%ADD11FreePoly0,270.000000*%
%TD*%
%TA.AperFunction,SMDPad,CuDef*%
%ADD12FreePoly1,270.000000*%
%TD*%
%TA.AperFunction,ViaPad*%
%ADD13C,0.800000*%
%TD*%
%TA.AperFunction,Conductor*%
%ADD14C,0.250000*%
%TD*%
G04 APERTURE END LIST*
%TO.C,JP10*%
G36*
X58800000Y-57000000D02*
G01*
X58200000Y-57000000D01*
X58200000Y-56500000D01*
X58800000Y-56500000D01*
X58800000Y-57000000D01*
G37*
%TO.C,JP3*%
G36*
X37800000Y-57000000D02*
G01*
X37200000Y-57000000D01*
X37200000Y-56500000D01*
X37800000Y-56500000D01*
X37800000Y-57000000D01*
G37*
%TO.C,JP2*%
G36*
X34800000Y-57000000D02*
G01*
X34200000Y-57000000D01*
X34200000Y-56500000D01*
X34800000Y-56500000D01*
X34800000Y-57000000D01*
G37*
%TO.C,JP8*%
G36*
X52800000Y-57000000D02*
G01*
X52200000Y-57000000D01*
X52200000Y-56500000D01*
X52800000Y-56500000D01*
X52800000Y-57000000D01*
G37*
%TO.C,JP5*%
G36*
X43800000Y-57000000D02*
G01*
X43200000Y-57000000D01*
X43200000Y-56500000D01*
X43800000Y-56500000D01*
X43800000Y-57000000D01*
G37*
%TO.C,JP9*%
G36*
X55800000Y-57000000D02*
G01*
X55200000Y-57000000D01*
X55200000Y-56500000D01*
X55800000Y-56500000D01*
X55800000Y-57000000D01*
G37*
%TO.C,JP6*%
G36*
X46800000Y-57000000D02*
G01*
X46200000Y-57000000D01*
X46200000Y-56500000D01*
X46800000Y-56500000D01*
X46800000Y-57000000D01*
G37*
%TO.C,JP4*%
G36*
X40800000Y-57000000D02*
G01*
X40200000Y-57000000D01*
X40200000Y-56500000D01*
X40800000Y-56500000D01*
X40800000Y-57000000D01*
G37*
%TO.C,JP7*%
G36*
X49800000Y-57000000D02*
G01*
X49200000Y-57000000D01*
X49200000Y-56500000D01*
X49800000Y-56500000D01*
X49800000Y-57000000D01*
G37*
%TO.C,JP1*%
G36*
X31800000Y-57000000D02*
G01*
X31200000Y-57000000D01*
X31200000Y-56500000D01*
X31800000Y-56500000D01*
X31800000Y-57000000D01*
G37*
%TD*%
D10*
%TO.P,J3,1,Pin_1*%
%TO.N,Net-(J3-Pad1)*%
X300000Y-48000000D03*
%TD*%
%TO.P,J6,1,Pin_1*%
%TO.N,Net-(J6-Pad1)*%
X42000000Y-89700000D03*
%TD*%
%TO.P,J10,1,Pin_1*%
%TO.N,Net-(J10-Pad1)*%
X89700000Y-48000000D03*
%TD*%
%TO.P,J2,1,Pin_1*%
%TO.N,Net-(J2-Pad1)*%
X300000Y-42000000D03*
%TD*%
%TO.P,J4,1,Pin_1*%
%TO.N,Net-(J4-Pad1)*%
X11400000Y-74600000D03*
%TD*%
%TO.P,J11,1,Pin_1*%
%TO.N,Net-(J11-Pad1)*%
X89700000Y-42000000D03*
%TD*%
%TO.P,J7,1,Pin_1*%
%TO.N,Net-(J7-Pad1)*%
X48000000Y-89700000D03*
%TD*%
%TO.P,J8,1,Pin_1*%
%TO.N,Net-(J8-Pad1)*%
X74600000Y-78600000D03*
%TD*%
%TO.P,J5,1,Pin_1*%
%TO.N,Net-(J5-Pad1)*%
X15400000Y-78600000D03*
%TD*%
%TO.P,J9,1,Pin_1*%
%TO.N,Net-(J9-Pad1)*%
X78600000Y-74600000D03*
%TD*%
D11*
%TO.P,JP10,1,A*%
%TO.N,Net-(J1-Pad1)*%
X58500000Y-56100000D03*
D12*
%TO.P,JP10,2,B*%
%TO.N,Net-(J11-Pad1)*%
X58500000Y-57400000D03*
%TD*%
D11*
%TO.P,JP3,1,A*%
%TO.N,Net-(J1-Pad1)*%
X37500000Y-56100000D03*
D12*
%TO.P,JP3,2,B*%
%TO.N,Net-(J4-Pad1)*%
X37500000Y-57400000D03*
%TD*%
D11*
%TO.P,JP2,1,A*%
%TO.N,Net-(J1-Pad1)*%
X34500000Y-56100000D03*
D12*
%TO.P,JP2,2,B*%
%TO.N,Net-(J3-Pad1)*%
X34500000Y-57400000D03*
%TD*%
D11*
%TO.P,JP8,1,A*%
%TO.N,Net-(J1-Pad1)*%
X52500000Y-56100000D03*
D12*
%TO.P,JP8,2,B*%
%TO.N,Net-(J9-Pad1)*%
X52500000Y-57400000D03*
%TD*%
D11*
%TO.P,JP5,1,A*%
%TO.N,Net-(J1-Pad1)*%
X43500000Y-56100000D03*
D12*
%TO.P,JP5,2,B*%
%TO.N,Net-(J6-Pad1)*%
X43500000Y-57400000D03*
%TD*%
D11*
%TO.P,JP9,1,A*%
%TO.N,Net-(J1-Pad1)*%
X55500000Y-56100000D03*
D12*
%TO.P,JP9,2,B*%
%TO.N,Net-(J10-Pad1)*%
X55500000Y-57400000D03*
%TD*%
D11*
%TO.P,JP6,1,A*%
%TO.N,Net-(J1-Pad1)*%
X46500000Y-56100000D03*
D12*
%TO.P,JP6,2,B*%
%TO.N,Net-(J7-Pad1)*%
X46500000Y-57400000D03*
%TD*%
D11*
%TO.P,JP4,1,A*%
%TO.N,Net-(J1-Pad1)*%
X40500000Y-56100000D03*
D12*
%TO.P,JP4,2,B*%
%TO.N,Net-(J5-Pad1)*%
X40500000Y-57400000D03*
%TD*%
D11*
%TO.P,JP7,1,A*%
%TO.N,Net-(J1-Pad1)*%
X49500000Y-56100000D03*
D12*
%TO.P,JP7,2,B*%
%TO.N,Net-(J8-Pad1)*%
X49500000Y-57400000D03*
%TD*%
D11*
%TO.P,JP1,1,A*%
%TO.N,Net-(J1-Pad1)*%
X31500000Y-56100000D03*
D12*
%TO.P,JP1,2,B*%
%TO.N,Net-(J2-Pad1)*%
X31500000Y-57400000D03*
%TD*%
D13*
%TO.N,Net-(J1-Pad1)*%
X73687147Y-44244807D03*
%TD*%
D14*
%TO.N,Net-(J1-Pad1)*%
X61831954Y-56100000D02*
X73687147Y-44244807D01*
X58500000Y-56100000D02*
X61831954Y-56100000D01*
X58500000Y-56100000D02*
X55500000Y-56100000D01*
X46500000Y-56100000D02*
X43500000Y-56100000D01*
X31500000Y-56100000D02*
X34500000Y-56100000D01*
X49500000Y-56100000D02*
X46500000Y-56100000D01*
X52500000Y-56100000D02*
X49500000Y-56100000D01*
X34500000Y-56100000D02*
X37500000Y-56100000D01*
X43500000Y-56100000D02*
X40500000Y-56100000D01*
X55500000Y-56100000D02*
X52500000Y-56100000D01*
X37500000Y-56100000D02*
X40500000Y-56100000D01*
%TO.N,Net-(J2-Pad1)*%
X15700000Y-57400000D02*
X31500000Y-57400000D01*
X300000Y-42000000D02*
X15700000Y-57400000D01*
%TO.N,Net-(J3-Pad1)*%
X300000Y-48000000D02*
X11200000Y-58900000D01*
X11200000Y-58900000D02*
X33000000Y-58900000D01*
X33000000Y-58900000D02*
X34500000Y-57400000D01*
%TO.N,Net-(J4-Pad1)*%
X11400000Y-74600000D02*
X20300000Y-74600000D01*
X20300000Y-74600000D02*
X37500000Y-57400000D01*
%TO.N,Net-(J5-Pad1)*%
X19300000Y-78600000D02*
X40500000Y-57400000D01*
X15400000Y-78600000D02*
X19300000Y-78600000D01*
%TO.N,Net-(J6-Pad1)*%
X42000000Y-89700000D02*
X43500000Y-88200000D01*
X43500000Y-88200000D02*
X43500000Y-57400000D01*
%TO.N,Net-(J7-Pad1)*%
X46500000Y-88200000D02*
X48000000Y-89700000D01*
X46500000Y-57400000D02*
X46500000Y-88200000D01*
%TO.N,Net-(J8-Pad1)*%
X74600000Y-78600000D02*
X70700000Y-78600000D01*
X70700000Y-78600000D02*
X49500000Y-57400000D01*
%TO.N,Net-(J9-Pad1)*%
X78600000Y-74600000D02*
X69700000Y-74600000D01*
X69700000Y-74600000D02*
X52500000Y-57400000D01*
%TO.N,Net-(J10-Pad1)*%
X57000000Y-58900000D02*
X55500000Y-57400000D01*
X78800000Y-58900000D02*
X57000000Y-58900000D01*
X89700000Y-48000000D02*
X78800000Y-58900000D01*
%TO.N,Net-(J11-Pad1)*%
X89700000Y-42000000D02*
X74300000Y-57400000D01*
X74300000Y-57400000D02*
X58500000Y-57400000D01*
%TD*%
%TA.AperFunction,NonConductor*%
G36*
X45517165Y-515855D02*
G01*
X46240433Y-525323D01*
X46244120Y-525425D01*
X47124916Y-563112D01*
X47559265Y-581696D01*
X47562997Y-581911D01*
X48219436Y-629541D01*
X48875888Y-677171D01*
X48879581Y-677494D01*
X49893489Y-781377D01*
X50189049Y-811660D01*
X50192761Y-812096D01*
X50670727Y-875446D01*
X51497688Y-985051D01*
X51501342Y-985591D01*
X52800595Y-1197188D01*
X52804259Y-1197842D01*
X52942967Y-1224678D01*
X54096622Y-1447881D01*
X54100281Y-1448646D01*
X55384605Y-1736904D01*
X55388240Y-1737776D01*
X55964795Y-1885273D01*
X56663526Y-2064027D01*
X56667085Y-2064993D01*
X57932132Y-2428935D01*
X57935708Y-2430022D01*
X59189395Y-2831330D01*
X59192902Y-2832511D01*
X60080775Y-3146052D01*
X60434071Y-3270814D01*
X60437577Y-3272110D01*
X61665272Y-3747069D01*
X61668738Y-3748470D01*
X62881749Y-4259619D01*
X62885172Y-4261122D01*
X64082467Y-4808023D01*
X64085844Y-4809626D01*
X65266427Y-5391825D01*
X65269755Y-5393528D01*
X66432533Y-6010487D01*
X66435809Y-6012288D01*
X67579765Y-6663466D01*
X67582985Y-6665362D01*
X68707142Y-7350206D01*
X68710268Y-7352174D01*
X69132716Y-7627039D01*
X69813648Y-8070087D01*
X69816731Y-8072159D01*
X70898343Y-8822500D01*
X70901311Y-8824626D01*
X71960120Y-9606674D01*
X71963083Y-9608930D01*
X72083195Y-9703280D01*
X72998265Y-10422077D01*
X73001170Y-10424430D01*
X74011715Y-11267879D01*
X74014549Y-11270317D01*
X74999660Y-12143404D01*
X75002421Y-12145924D01*
X75961191Y-13047845D01*
X75963876Y-13050447D01*
X76895467Y-13980413D01*
X76898073Y-13983093D01*
X77801650Y-14940270D01*
X77804166Y-14943015D01*
X78678995Y-15926628D01*
X78681432Y-15929453D01*
X79526677Y-16938564D01*
X79528981Y-16941398D01*
X80155900Y-17736641D01*
X80343933Y-17975160D01*
X80346204Y-17978130D01*
X81130116Y-19035595D01*
X81132297Y-19038631D01*
X81219150Y-19163364D01*
X81671844Y-19813492D01*
X81884461Y-20118839D01*
X81886552Y-20121938D01*
X82606377Y-21224046D01*
X82608374Y-21227206D01*
X83295160Y-22350137D01*
X83297063Y-22353355D01*
X83950237Y-23496172D01*
X83952044Y-23499445D01*
X84571024Y-24661131D01*
X84572733Y-24664455D01*
X85157005Y-25844046D01*
X85158607Y-25847407D01*
X85452661Y-26488196D01*
X85707599Y-27043747D01*
X85709097Y-27047142D01*
X85967061Y-27656345D01*
X86222390Y-28259325D01*
X86223796Y-28262789D01*
X86700874Y-29489593D01*
X86702172Y-29493082D01*
X87107266Y-30633866D01*
X87142650Y-30733512D01*
X87143849Y-30737053D01*
X87547338Y-31990018D01*
X87548427Y-31993581D01*
X87591465Y-32142202D01*
X87914573Y-33257980D01*
X87915559Y-33261586D01*
X88244022Y-34536244D01*
X88244901Y-34539877D01*
X88535408Y-35823735D01*
X88536179Y-35827393D01*
X88788472Y-37119310D01*
X88789134Y-37122989D01*
X89002988Y-38421808D01*
X89003541Y-38425506D01*
X89178775Y-39730139D01*
X89179217Y-39733851D01*
X89254303Y-40454292D01*
X89241470Y-40524119D01*
X89192923Y-40575923D01*
X89177200Y-40583762D01*
X89017611Y-40649865D01*
X89017607Y-40649867D01*
X89013037Y-40651760D01*
X89008817Y-40654346D01*
X88814798Y-40773241D01*
X88814792Y-40773245D01*
X88810584Y-40775824D01*
X88630031Y-40930031D01*
X88475824Y-41110584D01*
X88473245Y-41114792D01*
X88473241Y-41114798D01*
X88354346Y-41308817D01*
X88351760Y-41313037D01*
X88260895Y-41532406D01*
X88205465Y-41763289D01*
X88186835Y-42000000D01*
X88205465Y-42236711D01*
X88206619Y-42241518D01*
X88206620Y-42241524D01*
X88259060Y-42459951D01*
X88255513Y-42530859D01*
X88225637Y-42578459D01*
X81135380Y-49668715D01*
X74074500Y-56729595D01*
X74012188Y-56763621D01*
X73985405Y-56766500D01*
X62370521Y-56766500D01*
X62302400Y-56746498D01*
X62255907Y-56692842D01*
X62245803Y-56622568D01*
X62273436Y-56560185D01*
X62297252Y-56531396D01*
X62305242Y-56522616D01*
X73637647Y-45190212D01*
X73699959Y-45156186D01*
X73726742Y-45153307D01*
X73782634Y-45153307D01*
X73789086Y-45151935D01*
X73789091Y-45151935D01*
X73876034Y-45133454D01*
X73969435Y-45113601D01*
X73975466Y-45110916D01*
X74137869Y-45038610D01*
X74137871Y-45038609D01*
X74143899Y-45035925D01*
X74298400Y-44923673D01*
X74426187Y-44781751D01*
X74521674Y-44616363D01*
X74580689Y-44434735D01*
X74600651Y-44244807D01*
X74598054Y-44220100D01*
X74581379Y-44061442D01*
X74581379Y-44061440D01*
X74580689Y-44054879D01*
X74521674Y-43873251D01*
X74426187Y-43707863D01*
X74409306Y-43689114D01*
X74302822Y-43570852D01*
X74302821Y-43570851D01*
X74298400Y-43565941D01*
X74143899Y-43453689D01*
X74137871Y-43451005D01*
X74137869Y-43451004D01*
X73975466Y-43378698D01*
X73975465Y-43378698D01*
X73969435Y-43376013D01*
X73870375Y-43354957D01*
X73789091Y-43337679D01*
X73789086Y-43337679D01*
X73782634Y-43336307D01*
X73591660Y-43336307D01*
X73585208Y-43337679D01*
X73585203Y-43337679D01*
X73503919Y-43354957D01*
X73404859Y-43376013D01*
X73398829Y-43378698D01*
X73398828Y-43378698D01*
X73236425Y-43451004D01*
X73236423Y-43451005D01*
X73230395Y-43453689D01*
X73075894Y-43565941D01*
X73071473Y-43570851D01*
X73071472Y-43570852D01*
X72964989Y-43689114D01*
X72948107Y-43707863D01*
X72852620Y-43873251D01*
X72793605Y-44054879D01*
X72792915Y-44061440D01*
X72792915Y-44061442D01*
X72776240Y-44220100D01*
X72749227Y-44285757D01*
X72740025Y-44296025D01*
X61606454Y-55429595D01*
X61544142Y-55463621D01*
X61517359Y-55466500D01*
X59600168Y-55466500D01*
X59532047Y-55446498D01*
X59504215Y-55422164D01*
X59477663Y-55390966D01*
X59474754Y-55387548D01*
X59367403Y-55292740D01*
X59341204Y-55275530D01*
X59249414Y-55215236D01*
X59245666Y-55212774D01*
X59241609Y-55210869D01*
X59241605Y-55210867D01*
X59132809Y-55159787D01*
X59116021Y-55151905D01*
X59111738Y-55150596D01*
X59111734Y-55150594D01*
X58981011Y-55110628D01*
X58976723Y-55109317D01*
X58972300Y-55108628D01*
X58972294Y-55108627D01*
X58912432Y-55099307D01*
X58835205Y-55087283D01*
X58830738Y-55087228D01*
X58830733Y-55087228D01*
X58757169Y-55086329D01*
X58689562Y-55085503D01*
X58685277Y-55086063D01*
X58678240Y-55086271D01*
X58288953Y-55086271D01*
X58288953Y-55086273D01*
X58285986Y-55086682D01*
X58189562Y-55085504D01*
X58185120Y-55086085D01*
X58185117Y-55086085D01*
X58051998Y-55103492D01*
X58051996Y-55103492D01*
X58047548Y-55104074D01*
X57907252Y-55143245D01*
X57776159Y-55200928D01*
X57701045Y-55247683D01*
X57656306Y-55275530D01*
X57656302Y-55275533D01*
X57652504Y-55277897D01*
X57542869Y-55370054D01*
X57524172Y-55390966D01*
X57494204Y-55424483D01*
X57433888Y-55461933D01*
X57400274Y-55466500D01*
X56600168Y-55466500D01*
X56532047Y-55446498D01*
X56504215Y-55422164D01*
X56477663Y-55390966D01*
X56474754Y-55387548D01*
X56367403Y-55292740D01*
X56341204Y-55275530D01*
X56249414Y-55215236D01*
X56245666Y-55212774D01*
X56241609Y-55210869D01*
X56241605Y-55210867D01*
X56132809Y-55159787D01*
X56116021Y-55151905D01*
X56111738Y-55150596D01*
X56111734Y-55150594D01*
X55981011Y-55110628D01*
X55976723Y-55109317D01*
X55972300Y-55108628D01*
X55972294Y-55108627D01*
X55912432Y-55099307D01*
X55835205Y-55087283D01*
X55830738Y-55087228D01*
X55830733Y-55087228D01*
X55757169Y-55086329D01*
X55689562Y-55085503D01*
X55685277Y-55086063D01*
X55678240Y-55086271D01*
X55288953Y-55086271D01*
X55288953Y-55086273D01*
X55285986Y-55086682D01*
X55189562Y-55085504D01*
X55185120Y-55086085D01*
X55185117Y-55086085D01*
X55051998Y-55103492D01*
X55051996Y-55103492D01*
X55047548Y-55104074D01*
X54907252Y-55143245D01*
X54776159Y-55200928D01*
X54701045Y-55247683D01*
X54656306Y-55275530D01*
X54656302Y-55275533D01*
X54652504Y-55277897D01*
X54542869Y-55370054D01*
X54524172Y-55390966D01*
X54494204Y-55424483D01*
X54433888Y-55461933D01*
X54400274Y-55466500D01*
X53600168Y-55466500D01*
X53532047Y-55446498D01*
X53504215Y-55422164D01*
X53477663Y-55390966D01*
X53474754Y-55387548D01*
X53367403Y-55292740D01*
X53341204Y-55275530D01*
X53249414Y-55215236D01*
X53245666Y-55212774D01*
X53241609Y-55210869D01*
X53241605Y-55210867D01*
X53132809Y-55159787D01*
X53116021Y-55151905D01*
X53111738Y-55150596D01*
X53111734Y-55150594D01*
X52981011Y-55110628D01*
X52976723Y-55109317D01*
X52972300Y-55108628D01*
X52972294Y-55108627D01*
X52912432Y-55099307D01*
X52835205Y-55087283D01*
X52830738Y-55087228D01*
X52830733Y-55087228D01*
X52757169Y-55086329D01*
X52689562Y-55085503D01*
X52685277Y-55086063D01*
X52678240Y-55086271D01*
X52288953Y-55086271D01*
X52288953Y-55086273D01*
X52285986Y-55086682D01*
X52189562Y-55085504D01*
X52185120Y-55086085D01*
X52185117Y-55086085D01*
X52051998Y-55103492D01*
X52051996Y-55103492D01*
X52047548Y-55104074D01*
X51907252Y-55143245D01*
X51776159Y-55200928D01*
X51701045Y-55247683D01*
X51656306Y-55275530D01*
X51656302Y-55275533D01*
X51652504Y-55277897D01*
X51542869Y-55370054D01*
X51524172Y-55390966D01*
X51494204Y-55424483D01*
X51433888Y-55461933D01*
X51400274Y-55466500D01*
X50600168Y-55466500D01*
X50532047Y-55446498D01*
X50504215Y-55422164D01*
X50477663Y-55390966D01*
X50474754Y-55387548D01*
X50367403Y-55292740D01*
X50341204Y-55275530D01*
X50249414Y-55215236D01*
X50245666Y-55212774D01*
X50241609Y-55210869D01*
X50241605Y-55210867D01*
X50132809Y-55159787D01*
X50116021Y-55151905D01*
X50111738Y-55150596D01*
X50111734Y-55150594D01*
X49981011Y-55110628D01*
X49976723Y-55109317D01*
X49972300Y-55108628D01*
X49972294Y-55108627D01*
X49912432Y-55099307D01*
X49835205Y-55087283D01*
X49830738Y-55087228D01*
X49830733Y-55087228D01*
X49757169Y-55086329D01*
X49689562Y-55085503D01*
X49685277Y-55086063D01*
X49678240Y-55086271D01*
X49288953Y-55086271D01*
X49288953Y-55086273D01*
X49285986Y-55086682D01*
X49189562Y-55085504D01*
X49185120Y-55086085D01*
X49185117Y-55086085D01*
X49051998Y-55103492D01*
X49051996Y-55103492D01*
X49047548Y-55104074D01*
X48907252Y-55143245D01*
X48776159Y-55200928D01*
X48701045Y-55247683D01*
X48656306Y-55275530D01*
X48656302Y-55275533D01*
X48652504Y-55277897D01*
X48542869Y-55370054D01*
X48524172Y-55390966D01*
X48494204Y-55424483D01*
X48433888Y-55461933D01*
X48400274Y-55466500D01*
X47600168Y-55466500D01*
X47532047Y-55446498D01*
X47504215Y-55422164D01*
X47477663Y-55390966D01*
X47474754Y-55387548D01*
X47367403Y-55292740D01*
X47341204Y-55275530D01*
X47249414Y-55215236D01*
X47245666Y-55212774D01*
X47241609Y-55210869D01*
X47241605Y-55210867D01*
X47132809Y-55159787D01*
X47116021Y-55151905D01*
X47111738Y-55150596D01*
X47111734Y-55150594D01*
X46981011Y-55110628D01*
X46976723Y-55109317D01*
X46972300Y-55108628D01*
X46972294Y-55108627D01*
X46912432Y-55099307D01*
X46835205Y-55087283D01*
X46830738Y-55087228D01*
X46830733Y-55087228D01*
X46757169Y-55086329D01*
X46689562Y-55085503D01*
X46685277Y-55086063D01*
X46678240Y-55086271D01*
X46288953Y-55086271D01*
X46288953Y-55086273D01*
X46285986Y-55086682D01*
X46189562Y-55085504D01*
X46185120Y-55086085D01*
X46185117Y-55086085D01*
X46051998Y-55103492D01*
X46051996Y-55103492D01*
X46047548Y-55104074D01*
X45907252Y-55143245D01*
X45776159Y-55200928D01*
X45701045Y-55247683D01*
X45656306Y-55275530D01*
X45656302Y-55275533D01*
X45652504Y-55277897D01*
X45542869Y-55370054D01*
X45524172Y-55390966D01*
X45494204Y-55424483D01*
X45433888Y-55461933D01*
X45400274Y-55466500D01*
X44600168Y-55466500D01*
X44532047Y-55446498D01*
X44504215Y-55422164D01*
X44477663Y-55390966D01*
X44474754Y-55387548D01*
X44367403Y-55292740D01*
X44341204Y-55275530D01*
X44249414Y-55215236D01*
X44245666Y-55212774D01*
X44241609Y-55210869D01*
X44241605Y-55210867D01*
X44132809Y-55159787D01*
X44116021Y-55151905D01*
X44111738Y-55150596D01*
X44111734Y-55150594D01*
X43981011Y-55110628D01*
X43976723Y-55109317D01*
X43972300Y-55108628D01*
X43972294Y-55108627D01*
X43912432Y-55099307D01*
X43835205Y-55087283D01*
X43830738Y-55087228D01*
X43830733Y-55087228D01*
X43757169Y-55086329D01*
X43689562Y-55085503D01*
X43685277Y-55086063D01*
X43678240Y-55086271D01*
X43288953Y-55086271D01*
X43288953Y-55086273D01*
X43285986Y-55086682D01*
X43189562Y-55085504D01*
X43185120Y-55086085D01*
X43185117Y-55086085D01*
X43051998Y-55103492D01*
X43051996Y-55103492D01*
X43047548Y-55104074D01*
X42907252Y-55143245D01*
X42776159Y-55200928D01*
X42701045Y-55247683D01*
X42656306Y-55275530D01*
X42656302Y-55275533D01*
X42652504Y-55277897D01*
X42542869Y-55370054D01*
X42524172Y-55390966D01*
X42494204Y-55424483D01*
X42433888Y-55461933D01*
X42400274Y-55466500D01*
X41600168Y-55466500D01*
X41532047Y-55446498D01*
X41504215Y-55422164D01*
X41477663Y-55390966D01*
X41474754Y-55387548D01*
X41367403Y-55292740D01*
X41341204Y-55275530D01*
X41249414Y-55215236D01*
X41245666Y-55212774D01*
X41241609Y-55210869D01*
X41241605Y-55210867D01*
X41132809Y-55159787D01*
X41116021Y-55151905D01*
X41111738Y-55150596D01*
X41111734Y-55150594D01*
X40981011Y-55110628D01*
X40976723Y-55109317D01*
X40972300Y-55108628D01*
X40972294Y-55108627D01*
X40912432Y-55099307D01*
X40835205Y-55087283D01*
X40830738Y-55087228D01*
X40830733Y-55087228D01*
X40757169Y-55086329D01*
X40689562Y-55085503D01*
X40685277Y-55086063D01*
X40678240Y-55086271D01*
X40288953Y-55086271D01*
X40288953Y-55086273D01*
X40285986Y-55086682D01*
X40189562Y-55085504D01*
X40185120Y-55086085D01*
X40185117Y-55086085D01*
X40051998Y-55103492D01*
X40051996Y-55103492D01*
X40047548Y-55104074D01*
X39907252Y-55143245D01*
X39776159Y-55200928D01*
X39701045Y-55247683D01*
X39656306Y-55275530D01*
X39656302Y-55275533D01*
X39652504Y-55277897D01*
X39542869Y-55370054D01*
X39524172Y-55390966D01*
X39494204Y-55424483D01*
X39433888Y-55461933D01*
X39400274Y-55466500D01*
X38600168Y-55466500D01*
X38532047Y-55446498D01*
X38504215Y-55422164D01*
X38477663Y-55390966D01*
X38474754Y-55387548D01*
X38367403Y-55292740D01*
X38341204Y-55275530D01*
X38249414Y-55215236D01*
X38245666Y-55212774D01*
X38241609Y-55210869D01*
X38241605Y-55210867D01*
X38132809Y-55159787D01*
X38116021Y-55151905D01*
X38111738Y-55150596D01*
X38111734Y-55150594D01*
X37981011Y-55110628D01*
X37976723Y-55109317D01*
X37972300Y-55108628D01*
X37972294Y-55108627D01*
X37912432Y-55099307D01*
X37835205Y-55087283D01*
X37830738Y-55087228D01*
X37830733Y-55087228D01*
X37757169Y-55086329D01*
X37689562Y-55085503D01*
X37685277Y-55086063D01*
X37678240Y-55086271D01*
X37288953Y-55086271D01*
X37288953Y-55086273D01*
X37285986Y-55086682D01*
X37189562Y-55085504D01*
X37185120Y-55086085D01*
X37185117Y-55086085D01*
X37051998Y-55103492D01*
X37051996Y-55103492D01*
X37047548Y-55104074D01*
X36907252Y-55143245D01*
X36776159Y-55200928D01*
X36701045Y-55247683D01*
X36656306Y-55275530D01*
X36656302Y-55275533D01*
X36652504Y-55277897D01*
X36542869Y-55370054D01*
X36524172Y-55390966D01*
X36494204Y-55424483D01*
X36433888Y-55461933D01*
X36400274Y-55466500D01*
X35600168Y-55466500D01*
X35532047Y-55446498D01*
X35504215Y-55422164D01*
X35477663Y-55390966D01*
X35474754Y-55387548D01*
X35367403Y-55292740D01*
X35341204Y-55275530D01*
X35249414Y-55215236D01*
X35245666Y-55212774D01*
X35241609Y-55210869D01*
X35241605Y-55210867D01*
X35132809Y-55159787D01*
X35116021Y-55151905D01*
X35111738Y-55150596D01*
X35111734Y-55150594D01*
X34981011Y-55110628D01*
X34976723Y-55109317D01*
X34972300Y-55108628D01*
X34972294Y-55108627D01*
X34912432Y-55099307D01*
X34835205Y-55087283D01*
X34830738Y-55087228D01*
X34830733Y-55087228D01*
X34757169Y-55086329D01*
X34689562Y-55085503D01*
X34685277Y-55086063D01*
X34678240Y-55086271D01*
X34288953Y-55086271D01*
X34288953Y-55086273D01*
X34285986Y-55086682D01*
X34189562Y-55085504D01*
X34185120Y-55086085D01*
X34185117Y-55086085D01*
X34051998Y-55103492D01*
X34051996Y-55103492D01*
X34047548Y-55104074D01*
X33907252Y-55143245D01*
X33776159Y-55200928D01*
X33701045Y-55247683D01*
X33656306Y-55275530D01*
X33656302Y-55275533D01*
X33652504Y-55277897D01*
X33542869Y-55370054D01*
X33524172Y-55390966D01*
X33494204Y-55424483D01*
X33433888Y-55461933D01*
X33400274Y-55466500D01*
X32600168Y-55466500D01*
X32532047Y-55446498D01*
X32504215Y-55422164D01*
X32477663Y-55390966D01*
X32474754Y-55387548D01*
X32367403Y-55292740D01*
X32341204Y-55275530D01*
X32249414Y-55215236D01*
X32245666Y-55212774D01*
X32241609Y-55210869D01*
X32241605Y-55210867D01*
X32132809Y-55159787D01*
X32116021Y-55151905D01*
X32111738Y-55150596D01*
X32111734Y-55150594D01*
X31981011Y-55110628D01*
X31976723Y-55109317D01*
X31972300Y-55108628D01*
X31972294Y-55108627D01*
X31912432Y-55099307D01*
X31835205Y-55087283D01*
X31830738Y-55087228D01*
X31830733Y-55087228D01*
X31757169Y-55086329D01*
X31689562Y-55085503D01*
X31685277Y-55086063D01*
X31678240Y-55086271D01*
X31288953Y-55086271D01*
X31288953Y-55086273D01*
X31285986Y-55086682D01*
X31189562Y-55085504D01*
X31185120Y-55086085D01*
X31185117Y-55086085D01*
X31051998Y-55103492D01*
X31051996Y-55103492D01*
X31047548Y-55104074D01*
X30907252Y-55143245D01*
X30776159Y-55200928D01*
X30701045Y-55247683D01*
X30656306Y-55275530D01*
X30656302Y-55275533D01*
X30652504Y-55277897D01*
X30542869Y-55370054D01*
X30445782Y-55478639D01*
X30366419Y-55597864D01*
X30303711Y-55729333D01*
X30261001Y-55866039D01*
X30237713Y-56009821D01*
X30235088Y-56153020D01*
X30235641Y-56157465D01*
X30235878Y-56161944D01*
X30235751Y-56161951D01*
X30236271Y-56170339D01*
X30236271Y-56600000D01*
X30236432Y-56602248D01*
X30238525Y-56631510D01*
X30223434Y-56700884D01*
X30173232Y-56751087D01*
X30112846Y-56766500D01*
X16014594Y-56766500D01*
X15946473Y-56746498D01*
X15925499Y-56729595D01*
X4303286Y-45107381D01*
X41573348Y-45107381D01*
X41573630Y-45110711D01*
X41573630Y-45110718D01*
X41603739Y-45466558D01*
X41604022Y-45469902D01*
X41604655Y-45473184D01*
X41604656Y-45473190D01*
X41635962Y-45635461D01*
X41672940Y-45827131D01*
X41673915Y-45830319D01*
X41728177Y-46007771D01*
X41779326Y-46175045D01*
X41780634Y-46178115D01*
X41780636Y-46178119D01*
X41908301Y-46477632D01*
X41921981Y-46509727D01*
X41923612Y-46512649D01*
X42072301Y-46779035D01*
X42099300Y-46827406D01*
X42101224Y-46830128D01*
X42101227Y-46830133D01*
X42307352Y-47121773D01*
X42307358Y-47121781D01*
X42309285Y-47124507D01*
X42311497Y-47127022D01*
X42311498Y-47127023D01*
X42475118Y-47313037D01*
X42549572Y-47397682D01*
X42552028Y-47399939D01*
X42585324Y-47430537D01*
X42817455Y-47643855D01*
X43109916Y-47860255D01*
X43423663Y-48044443D01*
X43426709Y-48045820D01*
X43426714Y-48045823D01*
X43752111Y-48192968D01*
X43755161Y-48194347D01*
X43862648Y-48229789D01*
X44097502Y-48307230D01*
X44097512Y-48307233D01*
X44100679Y-48308277D01*
X44103955Y-48308983D01*
X44103954Y-48308983D01*
X44453048Y-48384245D01*
X44453053Y-48384246D01*
X44456324Y-48384951D01*
X44459643Y-48385305D01*
X44459651Y-48385306D01*
X44814767Y-48423151D01*
X44814774Y-48423151D01*
X44818092Y-48423505D01*
X45181908Y-48423505D01*
X45185226Y-48423151D01*
X45185233Y-48423151D01*
X45540349Y-48385306D01*
X45540357Y-48385305D01*
X45543676Y-48384951D01*
X45546947Y-48384246D01*
X45546952Y-48384245D01*
X45896046Y-48308983D01*
X45896045Y-48308983D01*
X45899321Y-48308277D01*
X45902488Y-48307233D01*
X45902498Y-48307230D01*
X46137352Y-48229789D01*
X46244839Y-48194347D01*
X46247889Y-48192968D01*
X46573286Y-48045823D01*
X46573291Y-48045820D01*
X46576337Y-48044443D01*
X46890084Y-47860255D01*
X47182545Y-47643855D01*
X47414676Y-47430537D01*
X47447972Y-47399939D01*
X47450428Y-47397682D01*
X47524883Y-47313037D01*
X47688502Y-47127023D01*
X47688503Y-47127022D01*
X47690715Y-47124507D01*
X47692642Y-47121781D01*
X47692648Y-47121773D01*
X47898773Y-46830133D01*
X47898776Y-46830128D01*
X47900700Y-46827406D01*
X47927700Y-46779035D01*
X48076388Y-46512649D01*
X48078019Y-46509727D01*
X48091700Y-46477632D01*
X48219364Y-46178119D01*
X48219366Y-46178115D01*
X48220674Y-46175045D01*
X48271824Y-46007771D01*
X48326085Y-45830319D01*
X48327060Y-45827131D01*
X48364038Y-45635461D01*
X48395344Y-45473190D01*
X48395345Y-45473184D01*
X48395978Y-45469902D01*
X48396261Y-45466558D01*
X48426370Y-45110718D01*
X48426370Y-45110711D01*
X48426652Y-45107381D01*
X48418736Y-44743650D01*
X48403100Y-44622086D01*
X48372749Y-44386134D01*
X48372749Y-44386133D01*
X48372321Y-44382807D01*
X48287927Y-44028914D01*
X48166507Y-43685957D01*
X48164592Y-43681955D01*
X48049224Y-43440940D01*
X48009426Y-43357798D01*
X47997019Y-43337679D01*
X47820210Y-43050978D01*
X47820206Y-43050972D01*
X47818455Y-43048133D01*
X47595744Y-42760449D01*
X47343801Y-42497986D01*
X47215604Y-42390079D01*
X47068010Y-42265844D01*
X47068002Y-42265838D01*
X47065462Y-42263700D01*
X47062707Y-42261841D01*
X47060017Y-42259811D01*
X47060672Y-42258943D01*
X47018249Y-42207720D01*
X47008000Y-42157945D01*
X47008000Y-40008702D01*
X47008002Y-40007932D01*
X47008421Y-39939322D01*
X47008476Y-39930348D01*
X47006010Y-39921719D01*
X47006009Y-39921714D01*
X47000361Y-39901952D01*
X46996783Y-39885191D01*
X46993870Y-39864848D01*
X46993867Y-39864838D01*
X46992595Y-39855955D01*
X46981979Y-39832605D01*
X46975536Y-39815093D01*
X46970954Y-39799063D01*
X46968488Y-39790435D01*
X46952726Y-39765452D01*
X46944596Y-39750386D01*
X46932367Y-39723490D01*
X46915626Y-39704061D01*
X46904521Y-39689053D01*
X46895630Y-39674961D01*
X46890840Y-39667369D01*
X46868703Y-39647818D01*
X46856659Y-39635626D01*
X46843239Y-39620051D01*
X46843237Y-39620050D01*
X46837381Y-39613253D01*
X46829853Y-39608374D01*
X46829850Y-39608371D01*
X46815861Y-39599304D01*
X46800987Y-39588014D01*
X46788502Y-39576988D01*
X46781772Y-39571044D01*
X46773646Y-39567229D01*
X46773645Y-39567228D01*
X46767979Y-39564568D01*
X46755034Y-39558490D01*
X46740065Y-39550176D01*
X46715273Y-39534107D01*
X46690709Y-39526761D01*
X46673264Y-39520099D01*
X46668827Y-39518016D01*
X46650052Y-39509201D01*
X46620870Y-39504657D01*
X46604151Y-39500874D01*
X46584464Y-39494986D01*
X46584461Y-39494985D01*
X46575859Y-39492413D01*
X46566884Y-39492358D01*
X46566883Y-39492358D01*
X46560190Y-39492317D01*
X46541444Y-39492203D01*
X46540672Y-39492170D01*
X46539577Y-39492000D01*
X46508702Y-39492000D01*
X46507932Y-39491998D01*
X46434284Y-39491548D01*
X46434283Y-39491548D01*
X46430348Y-39491524D01*
X46429004Y-39491908D01*
X46427659Y-39492000D01*
X43508702Y-39492000D01*
X43507932Y-39491998D01*
X43507078Y-39491993D01*
X43430348Y-39491524D01*
X43421719Y-39493990D01*
X43421714Y-39493991D01*
X43401952Y-39499639D01*
X43385191Y-39503217D01*
X43364848Y-39506130D01*
X43364838Y-39506133D01*
X43355955Y-39507405D01*
X43332605Y-39518021D01*
X43315093Y-39524464D01*
X43307057Y-39526761D01*
X43290435Y-39531512D01*
X43265452Y-39547274D01*
X43250386Y-39555404D01*
X43223490Y-39567633D01*
X43204061Y-39584374D01*
X43189053Y-39595479D01*
X43167369Y-39609160D01*
X43161427Y-39615888D01*
X43147819Y-39631296D01*
X43135627Y-39643340D01*
X43113253Y-39662619D01*
X43108374Y-39670147D01*
X43108371Y-39670150D01*
X43099304Y-39684139D01*
X43088014Y-39699013D01*
X43071044Y-39718228D01*
X43058490Y-39744966D01*
X43050176Y-39759935D01*
X43034107Y-39784727D01*
X43031535Y-39793327D01*
X43026761Y-39809290D01*
X43020099Y-39826736D01*
X43009201Y-39849948D01*
X43004658Y-39879128D01*
X43000874Y-39895849D01*
X42994986Y-39915536D01*
X42994985Y-39915539D01*
X42992413Y-39924141D01*
X42992358Y-39933116D01*
X42992358Y-39933117D01*
X42992203Y-39958546D01*
X42992170Y-39959328D01*
X42992000Y-39960423D01*
X42992000Y-39991298D01*
X42991998Y-39992068D01*
X42991524Y-40069652D01*
X42991908Y-40070996D01*
X42992000Y-40072341D01*
X42992000Y-42157945D01*
X42971998Y-42226066D01*
X42939553Y-42259246D01*
X42939981Y-42259813D01*
X42937301Y-42261836D01*
X42934538Y-42263700D01*
X42656199Y-42497986D01*
X42404256Y-42760449D01*
X42181545Y-43048133D01*
X42179794Y-43050972D01*
X42179790Y-43050978D01*
X42002981Y-43337679D01*
X41990574Y-43357798D01*
X41950776Y-43440940D01*
X41835409Y-43681955D01*
X41833493Y-43685957D01*
X41712073Y-44028914D01*
X41627679Y-44382807D01*
X41627251Y-44386133D01*
X41627251Y-44386134D01*
X41596901Y-44622086D01*
X41581264Y-44743650D01*
X41573348Y-45107381D01*
X4303286Y-45107381D01*
X1774364Y-42578459D01*
X1740338Y-42516147D01*
X1740940Y-42459950D01*
X1793380Y-42241524D01*
X1793381Y-42241518D01*
X1794535Y-42236711D01*
X1813165Y-42000000D01*
X1794535Y-41763289D01*
X1739105Y-41532406D01*
X1648240Y-41313037D01*
X1645654Y-41308817D01*
X1526759Y-41114798D01*
X1526755Y-41114792D01*
X1524176Y-41110584D01*
X1369969Y-40930031D01*
X1189416Y-40775824D01*
X1185208Y-40773245D01*
X1185202Y-40773241D01*
X991183Y-40654346D01*
X986963Y-40651760D01*
X982393Y-40649867D01*
X982389Y-40649865D01*
X822762Y-40583746D01*
X767481Y-40539198D01*
X745060Y-40471834D01*
X745614Y-40454713D01*
X802673Y-39888063D01*
X803103Y-39884350D01*
X973774Y-38579178D01*
X974313Y-38575479D01*
X1183634Y-37275899D01*
X1184283Y-37272217D01*
X1397493Y-36159813D01*
X1432076Y-35979379D01*
X1432831Y-35975736D01*
X1530428Y-35537316D01*
X1718854Y-34690877D01*
X1719714Y-34687267D01*
X1757147Y-34539877D01*
X2043736Y-33411428D01*
X2044705Y-33407837D01*
X2087535Y-33257980D01*
X2406427Y-32142194D01*
X2407505Y-32138624D01*
X2454222Y-31991798D01*
X2806623Y-30884243D01*
X2807787Y-30880764D01*
X3243953Y-29638745D01*
X3245243Y-29635239D01*
X3718043Y-28406759D01*
X3719438Y-28403290D01*
X4228462Y-27189404D01*
X4229958Y-27185979D01*
X4774789Y-25987688D01*
X4776387Y-25984308D01*
X5356511Y-24802739D01*
X5358208Y-24799408D01*
X5431268Y-24661131D01*
X5973137Y-23635554D01*
X5974932Y-23632275D01*
X6624127Y-22487160D01*
X6626019Y-22483936D01*
X7308886Y-21358604D01*
X7310873Y-21355437D01*
X7395033Y-21225595D01*
X8026808Y-20250886D01*
X8028887Y-20247779D01*
X8777316Y-19164892D01*
X8779487Y-19161849D01*
X9169581Y-18631770D01*
X9559679Y-18101687D01*
X9561936Y-18098713D01*
X10373266Y-17062125D01*
X10375614Y-17059216D01*
X11217300Y-16047198D01*
X11219733Y-16044359D01*
X11323709Y-15926628D01*
X12091115Y-15057706D01*
X12093593Y-15054983D01*
X12993861Y-14094618D01*
X12996457Y-14091930D01*
X13924779Y-13158734D01*
X13927454Y-13156123D01*
X14883088Y-12250843D01*
X14885840Y-12248313D01*
X15867876Y-11371813D01*
X15870702Y-11369365D01*
X16197922Y-11094308D01*
X16878319Y-10522374D01*
X16881213Y-10520014D01*
X17913544Y-9703265D01*
X17916468Y-9701021D01*
X18972558Y-8915269D01*
X18975590Y-8913082D01*
X20054521Y-8159009D01*
X20057617Y-8156913D01*
X20865808Y-7627039D01*
X21158445Y-7435178D01*
X21161566Y-7433197D01*
X22283345Y-6744422D01*
X22286527Y-6742533D01*
X22830022Y-6430640D01*
X23428244Y-6087342D01*
X23431514Y-6085530D01*
X24592092Y-5464537D01*
X24595413Y-5462822D01*
X25773983Y-4876492D01*
X25777355Y-4874877D01*
X26229969Y-4666219D01*
X26972755Y-4323790D01*
X26976129Y-4322295D01*
X27726476Y-4003018D01*
X28187400Y-3806893D01*
X28190861Y-3805481D01*
X29416842Y-3326258D01*
X29420344Y-3324949D01*
X30659978Y-2882316D01*
X30663516Y-2881111D01*
X31915795Y-2475428D01*
X31919369Y-2474329D01*
X32071380Y-2430022D01*
X32472363Y-2313146D01*
X33183073Y-2105993D01*
X33186677Y-2105000D01*
X33918120Y-1915155D01*
X34460826Y-1774297D01*
X34464405Y-1773424D01*
X35747757Y-1480676D01*
X35751383Y-1479904D01*
X37042911Y-1225346D01*
X37046589Y-1224678D01*
X37413633Y-1163585D01*
X38345050Y-1008554D01*
X38348712Y-1008001D01*
X38909743Y-931648D01*
X39653023Y-830492D01*
X39656734Y-830043D01*
X40965710Y-691309D01*
X40969433Y-690970D01*
X41710234Y-634619D01*
X42281988Y-591127D01*
X42285684Y-590901D01*
X43600607Y-530040D01*
X43604304Y-529924D01*
X44262410Y-519011D01*
X44920496Y-508099D01*
X44924234Y-508093D01*
X45517165Y-515855D01*
G37*
%TD.AperFunction*%
%TA.AperFunction,NonConductor*%
G36*
X89240049Y-43440940D02*
G01*
X89254824Y-43444487D01*
X89371922Y-43472600D01*
X89433491Y-43507952D01*
X89466174Y-43570979D01*
X89468383Y-43589512D01*
X89472334Y-43678217D01*
X89472444Y-43681934D01*
X89480893Y-44251372D01*
X89491975Y-44998342D01*
X89491981Y-45001640D01*
X89480567Y-46007771D01*
X89480487Y-46011033D01*
X89474214Y-46178119D01*
X89465497Y-46410309D01*
X89442954Y-46477632D01*
X89387591Y-46522079D01*
X89369001Y-46528100D01*
X89237227Y-46559737D01*
X89237220Y-46559739D01*
X89232406Y-46560895D01*
X89227835Y-46562788D01*
X89227833Y-46562789D01*
X89017611Y-46649865D01*
X89017607Y-46649867D01*
X89013037Y-46651760D01*
X89008817Y-46654346D01*
X88814798Y-46773241D01*
X88814792Y-46773245D01*
X88810584Y-46775824D01*
X88630031Y-46930031D01*
X88475824Y-47110584D01*
X88473245Y-47114792D01*
X88473241Y-47114798D01*
X88465750Y-47127023D01*
X88351760Y-47313037D01*
X88349867Y-47317607D01*
X88349865Y-47317611D01*
X88262789Y-47527833D01*
X88260895Y-47532406D01*
X88259740Y-47537218D01*
X88234139Y-47643855D01*
X88205465Y-47763289D01*
X88186835Y-48000000D01*
X88205465Y-48236711D01*
X88206619Y-48241518D01*
X88206620Y-48241524D01*
X88259060Y-48459951D01*
X88255513Y-48530859D01*
X88225636Y-48578460D01*
X78574500Y-58229595D01*
X78512188Y-58263621D01*
X78485405Y-58266500D01*
X74486197Y-58266500D01*
X74418076Y-58246498D01*
X74371583Y-58192842D01*
X74361479Y-58122568D01*
X74390973Y-58057988D01*
X74453822Y-58019102D01*
X74458797Y-58018474D01*
X74466168Y-58015555D01*
X74466170Y-58015555D01*
X74499912Y-58002196D01*
X74511142Y-57998351D01*
X74545983Y-57988229D01*
X74545984Y-57988229D01*
X74553593Y-57986018D01*
X74560412Y-57981985D01*
X74560417Y-57981983D01*
X74571028Y-57975707D01*
X74588776Y-57967012D01*
X74607617Y-57959552D01*
X74643387Y-57933564D01*
X74653307Y-57927048D01*
X74684535Y-57908580D01*
X74684538Y-57908578D01*
X74691362Y-57904542D01*
X74705683Y-57890221D01*
X74720717Y-57877380D01*
X74726290Y-57873331D01*
X74737107Y-57865472D01*
X74765298Y-57831395D01*
X74773288Y-57822616D01*
X89121541Y-43474364D01*
X89183853Y-43440338D01*
X89240049Y-43440940D01*
G37*
%TD.AperFunction*%
%TA.AperFunction,NonConductor*%
G36*
X33182920Y-56753502D02*
G01*
X33229413Y-56807158D01*
X33239516Y-56877432D01*
X33236271Y-56900000D01*
X33236271Y-57387322D01*
X33236250Y-57389630D01*
X33235088Y-57453020D01*
X33235641Y-57457459D01*
X33246556Y-57545082D01*
X33253093Y-57597565D01*
X33254269Y-57601877D01*
X33254271Y-57601889D01*
X33266732Y-57647595D01*
X33265352Y-57718578D01*
X33234264Y-57769831D01*
X32774500Y-58229595D01*
X32712188Y-58263621D01*
X32685405Y-58266500D01*
X32616412Y-58266500D01*
X32548291Y-58246498D01*
X32501798Y-58192842D01*
X32491694Y-58122568D01*
X32521463Y-58057671D01*
X32540628Y-58035702D01*
X32561750Y-58011489D01*
X32567774Y-58002196D01*
X32628452Y-57908580D01*
X32639650Y-57891304D01*
X32651667Y-57865296D01*
X32698868Y-57763145D01*
X32698869Y-57763143D01*
X32700748Y-57759076D01*
X32734088Y-57647592D01*
X32740499Y-57626156D01*
X32740501Y-57626148D01*
X32741784Y-57621858D01*
X32744770Y-57601881D01*
X32762650Y-57482235D01*
X32762650Y-57482232D01*
X32763312Y-57477804D01*
X32764187Y-57334583D01*
X32763852Y-57332139D01*
X32763729Y-57328344D01*
X32763729Y-56900000D01*
X32761475Y-56868489D01*
X32776566Y-56799116D01*
X32826768Y-56748913D01*
X32887154Y-56733500D01*
X33114799Y-56733500D01*
X33182920Y-56753502D01*
G37*
%TD.AperFunction*%
%TA.AperFunction,NonConductor*%
G36*
X830859Y-43444487D02*
G01*
X878460Y-43474364D01*
X15196348Y-57792253D01*
X15203888Y-57800539D01*
X15208000Y-57807018D01*
X15213777Y-57812443D01*
X15257651Y-57853643D01*
X15260493Y-57856398D01*
X15280230Y-57876135D01*
X15283427Y-57878615D01*
X15292447Y-57886318D01*
X15324679Y-57916586D01*
X15331625Y-57920405D01*
X15331628Y-57920407D01*
X15342434Y-57926348D01*
X15358953Y-57937199D01*
X15374959Y-57949614D01*
X15382228Y-57952759D01*
X15382232Y-57952762D01*
X15415537Y-57967174D01*
X15426187Y-57972391D01*
X15464940Y-57993695D01*
X15472615Y-57995666D01*
X15472616Y-57995666D01*
X15484562Y-57998733D01*
X15503267Y-58005137D01*
X15521855Y-58013181D01*
X15529680Y-58014421D01*
X15529689Y-58014423D01*
X15539974Y-58016052D01*
X15604127Y-58046465D01*
X15641653Y-58106733D01*
X15640638Y-58177723D01*
X15601405Y-58236894D01*
X15536409Y-58265461D01*
X15520262Y-58266500D01*
X11514594Y-58266500D01*
X11446473Y-58246498D01*
X11425499Y-58229595D01*
X1774364Y-48578459D01*
X1740338Y-48516147D01*
X1740940Y-48459950D01*
X1793380Y-48241524D01*
X1793381Y-48241518D01*
X1794535Y-48236711D01*
X1813165Y-48000000D01*
X1794535Y-47763289D01*
X1765862Y-47643855D01*
X1740260Y-47537218D01*
X1739105Y-47532406D01*
X1737211Y-47527833D01*
X1650135Y-47317611D01*
X1650133Y-47317607D01*
X1648240Y-47313037D01*
X1534250Y-47127023D01*
X1526759Y-47114798D01*
X1526755Y-47114792D01*
X1524176Y-47110584D01*
X1369969Y-46930031D01*
X1189416Y-46775824D01*
X1185208Y-46773245D01*
X1185202Y-46773241D01*
X991183Y-46654346D01*
X986963Y-46651760D01*
X982393Y-46649867D01*
X982389Y-46649865D01*
X772167Y-46562789D01*
X772165Y-46562788D01*
X767594Y-46560895D01*
X627777Y-46527328D01*
X566210Y-46491977D01*
X533527Y-46428951D01*
X531214Y-46407119D01*
X531032Y-46397157D01*
X508305Y-45157158D01*
X508292Y-45153435D01*
X508294Y-45153307D01*
X517347Y-44355339D01*
X523225Y-43837199D01*
X523323Y-43833462D01*
X533333Y-43589536D01*
X556111Y-43522292D01*
X611628Y-43478039D01*
X629808Y-43472185D01*
X739958Y-43445740D01*
X759951Y-43440940D01*
X830859Y-43444487D01*
G37*
%TD.AperFunction*%
%TA.AperFunction,NonConductor*%
G36*
X57182920Y-56753502D02*
G01*
X57229413Y-56807158D01*
X57239516Y-56877432D01*
X57236271Y-56900000D01*
X57236271Y-57387322D01*
X57236250Y-57389630D01*
X57235088Y-57453020D01*
X57235641Y-57457459D01*
X57246556Y-57545082D01*
X57253093Y-57597565D01*
X57290766Y-57735745D01*
X57292548Y-57739862D01*
X57292549Y-57739866D01*
X57341785Y-57853643D01*
X57348612Y-57869420D01*
X57423552Y-57991472D01*
X57426415Y-57994920D01*
X57426416Y-57994922D01*
X57480458Y-58060016D01*
X57508581Y-58125204D01*
X57496996Y-58195249D01*
X57449382Y-58247912D01*
X57383513Y-58266500D01*
X57314595Y-58266500D01*
X57246474Y-58246498D01*
X57225500Y-58229595D01*
X56766397Y-57770492D01*
X56732371Y-57708180D01*
X56734774Y-57645297D01*
X56741784Y-57621858D01*
X56744770Y-57601881D01*
X56762650Y-57482235D01*
X56762650Y-57482232D01*
X56763312Y-57477804D01*
X56764187Y-57334583D01*
X56763852Y-57332139D01*
X56763729Y-57328344D01*
X56763729Y-56900000D01*
X56761475Y-56868489D01*
X56776566Y-56799116D01*
X56826768Y-56748913D01*
X56887154Y-56733500D01*
X57114799Y-56733500D01*
X57182920Y-56753502D01*
G37*
%TD.AperFunction*%
%TA.AperFunction,NonConductor*%
G36*
X955871Y-49554613D02*
G01*
X973130Y-49569034D01*
X10696348Y-59292253D01*
X10703888Y-59300539D01*
X10708000Y-59307018D01*
X10713777Y-59312443D01*
X10757651Y-59353643D01*
X10760493Y-59356398D01*
X10780230Y-59376135D01*
X10783427Y-59378615D01*
X10792447Y-59386318D01*
X10824679Y-59416586D01*
X10831625Y-59420405D01*
X10831628Y-59420407D01*
X10842434Y-59426348D01*
X10858953Y-59437199D01*
X10874959Y-59449614D01*
X10882228Y-59452759D01*
X10882232Y-59452762D01*
X10915537Y-59467174D01*
X10926186Y-59472390D01*
X10964940Y-59493695D01*
X10972615Y-59495666D01*
X10972616Y-59495666D01*
X10984562Y-59498733D01*
X11003266Y-59505137D01*
X11003269Y-59505138D01*
X11021855Y-59513181D01*
X11029678Y-59514420D01*
X11029688Y-59514423D01*
X11065524Y-59520099D01*
X11077144Y-59522505D01*
X11108959Y-59530673D01*
X11119970Y-59533500D01*
X11140224Y-59533500D01*
X11159934Y-59535051D01*
X11179943Y-59538220D01*
X11187835Y-59537474D01*
X11206580Y-59535702D01*
X11223962Y-59534059D01*
X11235819Y-59533500D01*
X32921233Y-59533500D01*
X32932416Y-59534027D01*
X32939909Y-59535702D01*
X32947835Y-59535453D01*
X32947836Y-59535453D01*
X33007986Y-59533562D01*
X33011945Y-59533500D01*
X33039856Y-59533500D01*
X33043791Y-59533003D01*
X33043856Y-59532995D01*
X33055693Y-59532062D01*
X33087951Y-59531048D01*
X33091970Y-59530922D01*
X33099889Y-59530673D01*
X33119343Y-59525021D01*
X33138700Y-59521013D01*
X33150930Y-59519468D01*
X33150931Y-59519468D01*
X33158797Y-59518474D01*
X33166168Y-59515555D01*
X33166170Y-59515555D01*
X33199912Y-59502196D01*
X33211142Y-59498351D01*
X33245983Y-59488229D01*
X33245984Y-59488229D01*
X33253593Y-59486018D01*
X33260412Y-59481985D01*
X33260417Y-59481983D01*
X33271028Y-59475707D01*
X33288776Y-59467012D01*
X33307617Y-59459552D01*
X33327987Y-59444753D01*
X33343387Y-59433564D01*
X33353307Y-59427048D01*
X33384535Y-59408580D01*
X33384538Y-59408578D01*
X33391362Y-59404542D01*
X33405683Y-59390221D01*
X33420717Y-59377380D01*
X33422432Y-59376134D01*
X33437107Y-59365472D01*
X33465298Y-59331395D01*
X33473288Y-59322616D01*
X34345270Y-58450634D01*
X34407582Y-58416608D01*
X34434365Y-58413729D01*
X34670519Y-58413729D01*
X34681778Y-58414233D01*
X34731373Y-58418682D01*
X34733795Y-58418712D01*
X34733802Y-58418712D01*
X34737116Y-58418752D01*
X34743715Y-58418833D01*
X34780007Y-58416471D01*
X34820408Y-58413841D01*
X34820418Y-58413840D01*
X34822829Y-58413683D01*
X34840202Y-58411195D01*
X34960161Y-58394016D01*
X34960167Y-58394015D01*
X34964606Y-58393379D01*
X34968911Y-58392120D01*
X34968916Y-58392119D01*
X35100108Y-58353755D01*
X35104410Y-58352497D01*
X35234789Y-58293217D01*
X35238562Y-58290804D01*
X35238568Y-58290801D01*
X35353721Y-58217157D01*
X35353722Y-58217156D01*
X35357497Y-58214742D01*
X35465998Y-58121252D01*
X35561750Y-58011489D01*
X35567774Y-58002196D01*
X35628452Y-57908580D01*
X35639650Y-57891304D01*
X35651667Y-57865296D01*
X35698868Y-57763145D01*
X35698869Y-57763143D01*
X35700748Y-57759076D01*
X35734088Y-57647592D01*
X35740499Y-57626156D01*
X35740501Y-57626148D01*
X35741784Y-57621858D01*
X35744770Y-57601881D01*
X35762650Y-57482235D01*
X35762650Y-57482232D01*
X35763312Y-57477804D01*
X35764187Y-57334583D01*
X35763852Y-57332139D01*
X35763729Y-57328344D01*
X35763729Y-56900000D01*
X35761475Y-56868489D01*
X35776566Y-56799116D01*
X35826768Y-56748913D01*
X35887154Y-56733500D01*
X36114799Y-56733500D01*
X36182920Y-56753502D01*
X36229413Y-56807158D01*
X36239516Y-56877432D01*
X36236271Y-56900000D01*
X36236271Y-57387322D01*
X36236250Y-57389630D01*
X36235088Y-57453020D01*
X36235641Y-57457459D01*
X36246556Y-57545082D01*
X36253093Y-57597565D01*
X36254269Y-57601877D01*
X36254271Y-57601889D01*
X36266732Y-57647595D01*
X36265352Y-57718578D01*
X36234264Y-57769831D01*
X20074500Y-73929595D01*
X20012188Y-73963621D01*
X19985405Y-73966500D01*
X12851566Y-73966500D01*
X12783445Y-73946498D01*
X12744133Y-73906335D01*
X12626759Y-73714798D01*
X12626755Y-73714792D01*
X12624176Y-73710584D01*
X12469969Y-73530031D01*
X12289416Y-73375824D01*
X12285208Y-73373245D01*
X12285202Y-73373241D01*
X12091183Y-73254346D01*
X12086963Y-73251760D01*
X12082393Y-73249867D01*
X12082389Y-73249865D01*
X11872167Y-73162789D01*
X11872165Y-73162788D01*
X11867594Y-73160895D01*
X11787391Y-73141640D01*
X11641524Y-73106620D01*
X11641518Y-73106619D01*
X11636711Y-73105465D01*
X11400000Y-73086835D01*
X11163289Y-73105465D01*
X11158482Y-73106619D01*
X11158476Y-73106620D01*
X11012609Y-73141640D01*
X10932406Y-73160895D01*
X10927839Y-73162787D01*
X10927832Y-73162789D01*
X10737002Y-73241833D01*
X10666412Y-73249422D01*
X10602925Y-73217642D01*
X10592475Y-73206668D01*
X10590230Y-73204006D01*
X10571503Y-73181807D01*
X10569140Y-73178920D01*
X10496024Y-73086835D01*
X9750611Y-72148042D01*
X9748330Y-72145080D01*
X8960747Y-71090379D01*
X8958555Y-71087351D01*
X8693869Y-70710041D01*
X8202587Y-70009719D01*
X8200498Y-70006645D01*
X7476861Y-68907103D01*
X7474852Y-68903950D01*
X6784135Y-67783399D01*
X6782221Y-67780188D01*
X6125054Y-66639644D01*
X6123236Y-66636377D01*
X5675928Y-65803897D01*
X5500196Y-65476842D01*
X5498505Y-65473582D01*
X5094738Y-64665517D01*
X4910118Y-64296034D01*
X4908497Y-64292666D01*
X4355315Y-63098210D01*
X4353795Y-63094795D01*
X3836308Y-61884492D01*
X3834889Y-61881033D01*
X3353520Y-60655873D01*
X3352205Y-60652373D01*
X2907402Y-59413493D01*
X2906191Y-59409957D01*
X2498340Y-58158438D01*
X2497234Y-58154867D01*
X2465432Y-58046465D01*
X2126669Y-56891724D01*
X2125688Y-56888189D01*
X1857367Y-55861760D01*
X1792762Y-55614620D01*
X1791871Y-55610990D01*
X1496889Y-54328178D01*
X1496105Y-54324522D01*
X1239304Y-53033496D01*
X1238629Y-53029819D01*
X1020238Y-51731726D01*
X1019673Y-51728031D01*
X839894Y-50424078D01*
X839438Y-50420368D01*
X802040Y-50073285D01*
X758760Y-49671627D01*
X771349Y-49601756D01*
X819715Y-49549782D01*
X888502Y-49532208D01*
X955871Y-49554613D01*
G37*
%TD.AperFunction*%
%TA.AperFunction,NonConductor*%
G36*
X89161598Y-49538473D02*
G01*
X89218434Y-49581020D01*
X89243245Y-49647540D01*
X89242975Y-49668715D01*
X89214905Y-49957592D01*
X89214489Y-49961307D01*
X89048368Y-51267133D01*
X89047844Y-51270814D01*
X88975837Y-51728031D01*
X88843061Y-52571103D01*
X88842429Y-52574763D01*
X88721852Y-53215967D01*
X88599151Y-53868465D01*
X88598405Y-53872128D01*
X88316878Y-55157937D01*
X88316025Y-55161577D01*
X88065677Y-56161951D01*
X87996454Y-56438559D01*
X87995497Y-56442153D01*
X87868695Y-56891758D01*
X87638194Y-57709053D01*
X87637126Y-57712635D01*
X87242405Y-58968347D01*
X87241232Y-58971896D01*
X86809413Y-60215405D01*
X86808134Y-60218918D01*
X86339637Y-61449012D01*
X86338262Y-61452469D01*
X85833453Y-62668185D01*
X85831968Y-62671616D01*
X85291330Y-63871786D01*
X85289744Y-63875171D01*
X84713754Y-65058746D01*
X84712069Y-65062083D01*
X84101193Y-66228102D01*
X84099409Y-66231387D01*
X83454223Y-67378746D01*
X83452342Y-67381977D01*
X82773422Y-68509661D01*
X82771447Y-68512835D01*
X82059342Y-69619926D01*
X82057273Y-69623040D01*
X81312655Y-70708494D01*
X81310495Y-70711545D01*
X80533983Y-71774459D01*
X80531733Y-71777444D01*
X79724069Y-72816804D01*
X79721732Y-72819722D01*
X79404389Y-73204006D01*
X79345590Y-73243795D01*
X79274613Y-73245479D01*
X79259016Y-73240184D01*
X79072167Y-73162789D01*
X79072165Y-73162788D01*
X79067594Y-73160895D01*
X78987391Y-73141640D01*
X78841524Y-73106620D01*
X78841518Y-73106619D01*
X78836711Y-73105465D01*
X78600000Y-73086835D01*
X78363289Y-73105465D01*
X78358482Y-73106619D01*
X78358476Y-73106620D01*
X78212609Y-73141640D01*
X78132406Y-73160895D01*
X78127835Y-73162788D01*
X78127833Y-73162789D01*
X77917611Y-73249865D01*
X77917607Y-73249867D01*
X77913037Y-73251760D01*
X77908817Y-73254346D01*
X77714798Y-73373241D01*
X77714792Y-73373245D01*
X77710584Y-73375824D01*
X77530031Y-73530031D01*
X77375824Y-73710584D01*
X77373245Y-73714792D01*
X77373241Y-73714798D01*
X77255867Y-73906335D01*
X77203219Y-73953966D01*
X77148434Y-73966500D01*
X70014595Y-73966500D01*
X69946474Y-73946498D01*
X69925500Y-73929595D01*
X53766397Y-57770492D01*
X53732371Y-57708180D01*
X53734774Y-57645297D01*
X53741784Y-57621858D01*
X53744770Y-57601881D01*
X53762650Y-57482235D01*
X53762650Y-57482232D01*
X53763312Y-57477804D01*
X53764187Y-57334583D01*
X53763852Y-57332139D01*
X53763729Y-57328344D01*
X53763729Y-56900000D01*
X53761475Y-56868489D01*
X53776566Y-56799116D01*
X53826768Y-56748913D01*
X53887154Y-56733500D01*
X54114799Y-56733500D01*
X54182920Y-56753502D01*
X54229413Y-56807158D01*
X54239516Y-56877432D01*
X54236271Y-56900000D01*
X54236271Y-57387322D01*
X54236250Y-57389630D01*
X54235088Y-57453020D01*
X54235641Y-57457459D01*
X54246556Y-57545082D01*
X54253093Y-57597565D01*
X54290766Y-57735745D01*
X54292548Y-57739862D01*
X54292549Y-57739866D01*
X54341785Y-57853643D01*
X54348612Y-57869420D01*
X54423552Y-57991472D01*
X54426415Y-57994920D01*
X54426416Y-57994922D01*
X54462363Y-58038220D01*
X54516592Y-58103540D01*
X54622776Y-58199654D01*
X54626492Y-58202161D01*
X54626494Y-58202162D01*
X54739817Y-58278599D01*
X54739822Y-58278602D01*
X54743536Y-58281107D01*
X54747573Y-58283063D01*
X54747575Y-58283064D01*
X54763551Y-58290804D01*
X54872428Y-58343554D01*
X55011188Y-58387838D01*
X55152426Y-58411600D01*
X55231373Y-58418682D01*
X55233795Y-58418712D01*
X55233802Y-58418712D01*
X55237116Y-58418752D01*
X55243715Y-58418833D01*
X55318035Y-58413995D01*
X55326221Y-58413729D01*
X55565635Y-58413729D01*
X55633756Y-58433731D01*
X55654730Y-58450634D01*
X56496343Y-59292247D01*
X56503887Y-59300537D01*
X56508000Y-59307018D01*
X56513777Y-59312443D01*
X56557667Y-59353658D01*
X56560494Y-59356398D01*
X56580230Y-59376134D01*
X56583420Y-59378608D01*
X56592447Y-59386318D01*
X56624679Y-59416586D01*
X56635858Y-59422732D01*
X56642432Y-59426346D01*
X56658956Y-59437199D01*
X56674959Y-59449613D01*
X56715539Y-59467174D01*
X56726173Y-59472383D01*
X56764940Y-59493695D01*
X56772617Y-59495666D01*
X56772622Y-59495668D01*
X56784558Y-59498732D01*
X56803266Y-59505137D01*
X56821855Y-59513181D01*
X56829680Y-59514420D01*
X56829682Y-59514421D01*
X56865519Y-59520097D01*
X56877140Y-59522504D01*
X56908959Y-59530673D01*
X56919970Y-59533500D01*
X56940231Y-59533500D01*
X56959940Y-59535051D01*
X56979943Y-59538219D01*
X56987835Y-59537473D01*
X56993062Y-59536979D01*
X57023954Y-59534059D01*
X57035811Y-59533500D01*
X78721233Y-59533500D01*
X78732416Y-59534027D01*
X78739909Y-59535702D01*
X78747835Y-59535453D01*
X78747836Y-59535453D01*
X78807986Y-59533562D01*
X78811945Y-59533500D01*
X78839856Y-59533500D01*
X78843791Y-59533003D01*
X78843856Y-59532995D01*
X78855693Y-59532062D01*
X78887951Y-59531048D01*
X78891970Y-59530922D01*
X78899889Y-59530673D01*
X78919343Y-59525021D01*
X78938700Y-59521013D01*
X78950930Y-59519468D01*
X78950931Y-59519468D01*
X78958797Y-59518474D01*
X78966168Y-59515555D01*
X78966170Y-59515555D01*
X78999912Y-59502196D01*
X79011142Y-59498351D01*
X79045983Y-59488229D01*
X79045984Y-59488229D01*
X79053593Y-59486018D01*
X79060412Y-59481985D01*
X79060417Y-59481983D01*
X79071028Y-59475707D01*
X79088776Y-59467012D01*
X79107617Y-59459552D01*
X79127987Y-59444753D01*
X79143387Y-59433564D01*
X79153307Y-59427048D01*
X79184535Y-59408580D01*
X79184538Y-59408578D01*
X79191362Y-59404542D01*
X79205683Y-59390221D01*
X79220717Y-59377380D01*
X79222432Y-59376134D01*
X79237107Y-59365472D01*
X79265298Y-59331395D01*
X79273288Y-59322616D01*
X89028471Y-49567434D01*
X89090783Y-49533408D01*
X89161598Y-49538473D01*
G37*
%TD.AperFunction*%
%TA.AperFunction,NonConductor*%
G36*
X39182920Y-56753502D02*
G01*
X39229413Y-56807158D01*
X39239516Y-56877432D01*
X39236271Y-56900000D01*
X39236271Y-57387322D01*
X39236250Y-57389630D01*
X39235088Y-57453020D01*
X39235641Y-57457459D01*
X39246556Y-57545082D01*
X39253093Y-57597565D01*
X39266733Y-57647595D01*
X39265354Y-57718575D01*
X39234265Y-57769831D01*
X19074500Y-77929595D01*
X19012188Y-77963621D01*
X18985405Y-77966500D01*
X16851566Y-77966500D01*
X16783445Y-77946498D01*
X16744133Y-77906335D01*
X16626759Y-77714798D01*
X16626755Y-77714792D01*
X16624176Y-77710584D01*
X16469969Y-77530031D01*
X16289416Y-77375824D01*
X16285208Y-77373245D01*
X16285202Y-77373241D01*
X16091183Y-77254346D01*
X16086963Y-77251760D01*
X16082393Y-77249867D01*
X16082389Y-77249865D01*
X15872167Y-77162789D01*
X15872165Y-77162788D01*
X15867594Y-77160895D01*
X15787391Y-77141640D01*
X15641524Y-77106620D01*
X15641518Y-77106619D01*
X15636711Y-77105465D01*
X15400000Y-77086835D01*
X15163289Y-77105465D01*
X15158482Y-77106619D01*
X15158476Y-77106620D01*
X15012609Y-77141640D01*
X14932406Y-77160895D01*
X14927835Y-77162788D01*
X14927833Y-77162789D01*
X14717611Y-77249865D01*
X14717607Y-77249867D01*
X14713037Y-77251760D01*
X14708818Y-77254345D01*
X14708807Y-77254351D01*
X14579065Y-77333858D01*
X14510532Y-77352397D01*
X14442855Y-77330941D01*
X14427218Y-77318502D01*
X14358545Y-77254351D01*
X14150510Y-77060016D01*
X14147829Y-77057435D01*
X13212999Y-76130726D01*
X13210384Y-76128055D01*
X12682659Y-75572920D01*
X12650221Y-75509767D01*
X12657076Y-75439102D01*
X12666548Y-75420273D01*
X12744134Y-75293665D01*
X12796781Y-75246034D01*
X12851566Y-75233500D01*
X20221233Y-75233500D01*
X20232416Y-75234027D01*
X20239909Y-75235702D01*
X20247835Y-75235453D01*
X20247836Y-75235453D01*
X20307986Y-75233562D01*
X20311945Y-75233500D01*
X20339856Y-75233500D01*
X20343791Y-75233003D01*
X20343856Y-75232995D01*
X20355693Y-75232062D01*
X20387951Y-75231048D01*
X20391970Y-75230922D01*
X20399889Y-75230673D01*
X20419343Y-75225021D01*
X20438700Y-75221013D01*
X20450930Y-75219468D01*
X20450931Y-75219468D01*
X20458797Y-75218474D01*
X20466168Y-75215555D01*
X20466170Y-75215555D01*
X20499912Y-75202196D01*
X20511142Y-75198351D01*
X20545983Y-75188229D01*
X20545984Y-75188229D01*
X20553593Y-75186018D01*
X20560412Y-75181985D01*
X20560417Y-75181983D01*
X20571028Y-75175707D01*
X20588776Y-75167012D01*
X20607617Y-75159552D01*
X20627987Y-75144753D01*
X20643387Y-75133564D01*
X20653307Y-75127048D01*
X20684535Y-75108580D01*
X20684538Y-75108578D01*
X20691362Y-75104542D01*
X20705683Y-75090221D01*
X20720717Y-75077380D01*
X20722432Y-75076134D01*
X20737107Y-75065472D01*
X20765298Y-75031395D01*
X20773288Y-75022616D01*
X37345270Y-58450634D01*
X37407582Y-58416608D01*
X37434365Y-58413729D01*
X37670519Y-58413729D01*
X37681778Y-58414233D01*
X37731373Y-58418682D01*
X37733795Y-58418712D01*
X37733802Y-58418712D01*
X37737116Y-58418752D01*
X37743715Y-58418833D01*
X37780007Y-58416471D01*
X37820408Y-58413841D01*
X37820418Y-58413840D01*
X37822829Y-58413683D01*
X37840202Y-58411195D01*
X37960161Y-58394016D01*
X37960167Y-58394015D01*
X37964606Y-58393379D01*
X37968911Y-58392120D01*
X37968916Y-58392119D01*
X38100108Y-58353755D01*
X38104410Y-58352497D01*
X38234789Y-58293217D01*
X38238562Y-58290804D01*
X38238568Y-58290801D01*
X38353721Y-58217157D01*
X38353722Y-58217156D01*
X38357497Y-58214742D01*
X38465998Y-58121252D01*
X38561750Y-58011489D01*
X38567774Y-58002196D01*
X38628452Y-57908580D01*
X38639650Y-57891304D01*
X38651667Y-57865296D01*
X38698868Y-57763145D01*
X38698869Y-57763143D01*
X38700748Y-57759076D01*
X38734088Y-57647592D01*
X38740499Y-57626156D01*
X38740501Y-57626148D01*
X38741784Y-57621858D01*
X38744770Y-57601881D01*
X38762650Y-57482235D01*
X38762650Y-57482232D01*
X38763312Y-57477804D01*
X38764187Y-57334583D01*
X38763852Y-57332139D01*
X38763729Y-57328344D01*
X38763729Y-56900000D01*
X38761475Y-56868489D01*
X38776566Y-56799116D01*
X38826768Y-56748913D01*
X38887154Y-56733500D01*
X39114799Y-56733500D01*
X39182920Y-56753502D01*
G37*
%TD.AperFunction*%
%TA.AperFunction,NonConductor*%
G36*
X51182920Y-56753502D02*
G01*
X51229413Y-56807158D01*
X51239516Y-56877432D01*
X51236271Y-56900000D01*
X51236271Y-57387322D01*
X51236250Y-57389630D01*
X51235088Y-57453020D01*
X51235641Y-57457459D01*
X51246556Y-57545082D01*
X51253093Y-57597565D01*
X51290766Y-57735745D01*
X51292548Y-57739862D01*
X51292549Y-57739866D01*
X51341785Y-57853643D01*
X51348612Y-57869420D01*
X51423552Y-57991472D01*
X51426415Y-57994920D01*
X51426416Y-57994922D01*
X51462363Y-58038220D01*
X51516592Y-58103540D01*
X51622776Y-58199654D01*
X51626492Y-58202161D01*
X51626494Y-58202162D01*
X51739817Y-58278599D01*
X51739822Y-58278602D01*
X51743536Y-58281107D01*
X51747573Y-58283063D01*
X51747575Y-58283064D01*
X51763551Y-58290804D01*
X51872428Y-58343554D01*
X52011188Y-58387838D01*
X52152426Y-58411600D01*
X52231373Y-58418682D01*
X52233795Y-58418712D01*
X52233802Y-58418712D01*
X52237116Y-58418752D01*
X52243715Y-58418833D01*
X52318035Y-58413995D01*
X52326221Y-58413729D01*
X52565635Y-58413729D01*
X52633756Y-58433731D01*
X52654730Y-58450634D01*
X69196343Y-74992247D01*
X69203887Y-75000537D01*
X69208000Y-75007018D01*
X69213777Y-75012443D01*
X69257667Y-75053658D01*
X69260509Y-75056413D01*
X69280230Y-75076134D01*
X69283425Y-75078612D01*
X69292447Y-75086318D01*
X69324679Y-75116586D01*
X69331628Y-75120406D01*
X69342432Y-75126346D01*
X69358956Y-75137199D01*
X69374959Y-75149613D01*
X69415543Y-75167176D01*
X69426173Y-75172383D01*
X69464940Y-75193695D01*
X69472617Y-75195666D01*
X69472622Y-75195668D01*
X69484558Y-75198732D01*
X69503266Y-75205137D01*
X69521855Y-75213181D01*
X69529683Y-75214421D01*
X69529690Y-75214423D01*
X69565524Y-75220099D01*
X69577144Y-75222505D01*
X69608959Y-75230673D01*
X69619970Y-75233500D01*
X69640224Y-75233500D01*
X69659934Y-75235051D01*
X69679943Y-75238220D01*
X69687835Y-75237474D01*
X69706580Y-75235702D01*
X69723962Y-75234059D01*
X69735819Y-75233500D01*
X77148434Y-75233500D01*
X77216555Y-75253502D01*
X77255867Y-75293665D01*
X77334160Y-75421428D01*
X77352698Y-75489962D01*
X77331241Y-75557639D01*
X77318959Y-75573107D01*
X77113813Y-75793484D01*
X77111268Y-75796138D01*
X76783382Y-76128055D01*
X76186171Y-76732607D01*
X76183505Y-76735227D01*
X75573306Y-77317328D01*
X75510209Y-77349875D01*
X75439532Y-77343144D01*
X75420499Y-77333591D01*
X75291183Y-77254346D01*
X75286963Y-77251760D01*
X75282393Y-77249867D01*
X75282389Y-77249865D01*
X75072167Y-77162789D01*
X75072165Y-77162788D01*
X75067594Y-77160895D01*
X74987391Y-77141640D01*
X74841524Y-77106620D01*
X74841518Y-77106619D01*
X74836711Y-77105465D01*
X74600000Y-77086835D01*
X74363289Y-77105465D01*
X74358482Y-77106619D01*
X74358476Y-77106620D01*
X74212609Y-77141640D01*
X74132406Y-77160895D01*
X74127835Y-77162788D01*
X74127833Y-77162789D01*
X73917611Y-77249865D01*
X73917607Y-77249867D01*
X73913037Y-77251760D01*
X73908817Y-77254346D01*
X73714798Y-77373241D01*
X73714792Y-77373245D01*
X73710584Y-77375824D01*
X73530031Y-77530031D01*
X73375824Y-77710584D01*
X73373245Y-77714792D01*
X73373241Y-77714798D01*
X73255867Y-77906335D01*
X73203219Y-77953966D01*
X73148434Y-77966500D01*
X71014594Y-77966500D01*
X70946473Y-77946498D01*
X70925499Y-77929595D01*
X50766397Y-57770492D01*
X50732371Y-57708180D01*
X50734774Y-57645297D01*
X50741784Y-57621858D01*
X50744770Y-57601881D01*
X50762650Y-57482235D01*
X50762650Y-57482232D01*
X50763312Y-57477804D01*
X50764187Y-57334583D01*
X50763852Y-57332139D01*
X50763729Y-57328344D01*
X50763729Y-56900000D01*
X50761475Y-56868489D01*
X50776566Y-56799116D01*
X50826768Y-56748913D01*
X50887154Y-56733500D01*
X51114799Y-56733500D01*
X51182920Y-56753502D01*
G37*
%TD.AperFunction*%
%TA.AperFunction,NonConductor*%
G36*
X48182920Y-56753502D02*
G01*
X48229413Y-56807158D01*
X48239516Y-56877432D01*
X48236271Y-56900000D01*
X48236271Y-57387322D01*
X48236250Y-57389630D01*
X48235088Y-57453020D01*
X48235641Y-57457459D01*
X48246556Y-57545082D01*
X48253093Y-57597565D01*
X48290766Y-57735745D01*
X48292548Y-57739862D01*
X48292549Y-57739866D01*
X48341785Y-57853643D01*
X48348612Y-57869420D01*
X48423552Y-57991472D01*
X48426415Y-57994920D01*
X48426416Y-57994922D01*
X48462363Y-58038220D01*
X48516592Y-58103540D01*
X48622776Y-58199654D01*
X48626492Y-58202161D01*
X48626494Y-58202162D01*
X48739817Y-58278599D01*
X48739822Y-58278602D01*
X48743536Y-58281107D01*
X48747573Y-58283063D01*
X48747575Y-58283064D01*
X48763551Y-58290804D01*
X48872428Y-58343554D01*
X49011188Y-58387838D01*
X49152426Y-58411600D01*
X49231373Y-58418682D01*
X49233795Y-58418712D01*
X49233802Y-58418712D01*
X49237116Y-58418752D01*
X49243715Y-58418833D01*
X49318035Y-58413995D01*
X49326221Y-58413729D01*
X49565635Y-58413729D01*
X49633756Y-58433731D01*
X49654730Y-58450634D01*
X70196343Y-78992247D01*
X70203887Y-79000537D01*
X70208000Y-79007018D01*
X70213777Y-79012443D01*
X70257667Y-79053658D01*
X70260509Y-79056413D01*
X70280231Y-79076135D01*
X70283355Y-79078558D01*
X70283359Y-79078562D01*
X70283424Y-79078612D01*
X70292445Y-79086317D01*
X70324679Y-79116586D01*
X70331627Y-79120405D01*
X70331629Y-79120407D01*
X70342432Y-79126346D01*
X70358959Y-79137202D01*
X70368698Y-79144757D01*
X70368700Y-79144758D01*
X70374960Y-79149614D01*
X70415540Y-79167174D01*
X70426188Y-79172391D01*
X70450976Y-79186018D01*
X70464940Y-79193695D01*
X70472616Y-79195666D01*
X70472619Y-79195667D01*
X70484562Y-79198733D01*
X70503267Y-79205137D01*
X70521855Y-79213181D01*
X70529678Y-79214420D01*
X70529688Y-79214423D01*
X70565524Y-79220099D01*
X70577144Y-79222505D01*
X70608959Y-79230673D01*
X70619970Y-79233500D01*
X70640224Y-79233500D01*
X70659934Y-79235051D01*
X70679943Y-79238220D01*
X70687835Y-79237474D01*
X70706580Y-79235702D01*
X70723962Y-79234059D01*
X70735819Y-79233500D01*
X73064553Y-79233500D01*
X73132674Y-79253502D01*
X73179167Y-79307158D01*
X73189271Y-79377432D01*
X73159777Y-79442012D01*
X73143076Y-79458040D01*
X72209519Y-80201955D01*
X72206561Y-80204241D01*
X71153257Y-80993648D01*
X71150241Y-80995840D01*
X70073877Y-81753726D01*
X70070841Y-81755795D01*
X68972526Y-82481377D01*
X68969431Y-82483357D01*
X68570296Y-82730349D01*
X67850068Y-83176039D01*
X67846860Y-83177959D01*
X66707480Y-83837107D01*
X66704217Y-83838931D01*
X65545759Y-84464001D01*
X65542443Y-84465727D01*
X64365968Y-85056147D01*
X64362602Y-85057774D01*
X63169154Y-85613020D01*
X63165742Y-85614547D01*
X61956255Y-86134184D01*
X61952840Y-86135590D01*
X61512566Y-86309463D01*
X60728559Y-86619082D01*
X60725062Y-86620404D01*
X59486940Y-87067376D01*
X59483413Y-87068591D01*
X59027779Y-87217955D01*
X58232560Y-87478641D01*
X58228991Y-87479752D01*
X56966592Y-87852494D01*
X56962991Y-87853500D01*
X56259786Y-88038639D01*
X55690017Y-88188646D01*
X55686416Y-88189538D01*
X54990121Y-88350930D01*
X54404083Y-88486766D01*
X54400429Y-88487556D01*
X53109846Y-88746611D01*
X53106170Y-88747292D01*
X51808493Y-88967943D01*
X51804803Y-88968514D01*
X50501120Y-89150576D01*
X50497420Y-89151036D01*
X50332108Y-89169141D01*
X49546745Y-89255152D01*
X49476852Y-89242685D01*
X49424794Y-89194410D01*
X49416619Y-89178119D01*
X49350135Y-89017611D01*
X49350133Y-89017607D01*
X49348240Y-89013037D01*
X49320606Y-88967943D01*
X49226759Y-88814798D01*
X49226755Y-88814792D01*
X49224176Y-88810584D01*
X49078049Y-88639491D01*
X49073177Y-88633787D01*
X49069969Y-88630031D01*
X48889416Y-88475824D01*
X48885208Y-88473245D01*
X48885202Y-88473241D01*
X48691183Y-88354346D01*
X48686963Y-88351760D01*
X48682393Y-88349867D01*
X48682389Y-88349865D01*
X48472167Y-88262789D01*
X48472165Y-88262788D01*
X48467594Y-88260895D01*
X48387391Y-88241640D01*
X48241524Y-88206620D01*
X48241518Y-88206619D01*
X48236711Y-88205465D01*
X48000000Y-88186835D01*
X47763289Y-88205465D01*
X47758482Y-88206619D01*
X47758476Y-88206620D01*
X47603649Y-88243791D01*
X47540049Y-88259060D01*
X47469142Y-88255513D01*
X47421541Y-88225636D01*
X47170405Y-87974500D01*
X47136379Y-87912188D01*
X47133500Y-87885405D01*
X47133500Y-58420394D01*
X47153502Y-58352273D01*
X47207348Y-58305694D01*
X47230710Y-58295072D01*
X47230714Y-58295070D01*
X47234789Y-58293217D01*
X47281067Y-58263621D01*
X47353721Y-58217157D01*
X47353722Y-58217156D01*
X47357497Y-58214742D01*
X47465998Y-58121252D01*
X47561750Y-58011489D01*
X47567774Y-58002196D01*
X47628452Y-57908580D01*
X47639650Y-57891304D01*
X47651667Y-57865296D01*
X47698868Y-57763145D01*
X47698869Y-57763143D01*
X47700748Y-57759076D01*
X47734088Y-57647592D01*
X47740499Y-57626156D01*
X47740501Y-57626148D01*
X47741784Y-57621858D01*
X47744770Y-57601881D01*
X47762650Y-57482235D01*
X47762650Y-57482232D01*
X47763312Y-57477804D01*
X47764187Y-57334583D01*
X47763852Y-57332139D01*
X47763729Y-57328344D01*
X47763729Y-56900000D01*
X47761475Y-56868489D01*
X47776566Y-56799116D01*
X47826768Y-56748913D01*
X47887154Y-56733500D01*
X48114799Y-56733500D01*
X48182920Y-56753502D01*
G37*
%TD.AperFunction*%
%TA.AperFunction,NonConductor*%
G36*
X42182920Y-56753502D02*
G01*
X42229413Y-56807158D01*
X42239516Y-56877432D01*
X42236271Y-56900000D01*
X42236271Y-57387322D01*
X42236250Y-57389630D01*
X42235088Y-57453020D01*
X42235641Y-57457459D01*
X42246556Y-57545082D01*
X42253093Y-57597565D01*
X42290766Y-57735745D01*
X42292548Y-57739862D01*
X42292549Y-57739866D01*
X42341785Y-57853643D01*
X42348612Y-57869420D01*
X42423552Y-57991472D01*
X42426415Y-57994920D01*
X42426416Y-57994922D01*
X42462363Y-58038220D01*
X42516592Y-58103540D01*
X42622776Y-58199654D01*
X42626492Y-58202161D01*
X42626494Y-58202162D01*
X42739817Y-58278599D01*
X42739822Y-58278602D01*
X42743536Y-58281107D01*
X42795441Y-58306254D01*
X42848021Y-58353955D01*
X42866500Y-58419645D01*
X42866500Y-87885405D01*
X42846498Y-87953526D01*
X42829595Y-87974500D01*
X42578459Y-88225636D01*
X42516147Y-88259662D01*
X42459951Y-88259060D01*
X42396351Y-88243791D01*
X42241524Y-88206620D01*
X42241518Y-88206619D01*
X42236711Y-88205465D01*
X42000000Y-88186835D01*
X41763289Y-88205465D01*
X41758482Y-88206619D01*
X41758476Y-88206620D01*
X41612609Y-88241640D01*
X41532406Y-88260895D01*
X41527835Y-88262788D01*
X41527833Y-88262789D01*
X41317611Y-88349865D01*
X41317607Y-88349867D01*
X41313037Y-88351760D01*
X41308817Y-88354346D01*
X41114798Y-88473241D01*
X41114792Y-88473245D01*
X41110584Y-88475824D01*
X40930031Y-88630031D01*
X40926823Y-88633787D01*
X40921951Y-88639491D01*
X40775824Y-88810584D01*
X40773245Y-88814792D01*
X40773241Y-88814798D01*
X40679394Y-88967943D01*
X40651760Y-89013037D01*
X40594684Y-89150833D01*
X40583658Y-89177452D01*
X40539110Y-89232733D01*
X40471747Y-89255154D01*
X40454844Y-89254622D01*
X40446219Y-89253769D01*
X39965195Y-89206180D01*
X39961547Y-89205765D01*
X38655958Y-89037357D01*
X38652302Y-89036829D01*
X37795513Y-88900361D01*
X37352402Y-88829782D01*
X37348719Y-88829140D01*
X36363855Y-88642158D01*
X36055459Y-88583607D01*
X36051814Y-88582859D01*
X34766447Y-88299076D01*
X34762814Y-88298217D01*
X34690675Y-88280030D01*
X33486394Y-87976418D01*
X33482840Y-87975466D01*
X32216540Y-87615945D01*
X32213009Y-87614885D01*
X30957919Y-87217954D01*
X30954376Y-87216775D01*
X29711683Y-86782806D01*
X29708172Y-86781522D01*
X29511997Y-86706414D01*
X28478795Y-86310839D01*
X28475390Y-86309476D01*
X27750037Y-86006799D01*
X27260568Y-85802551D01*
X27257140Y-85801060D01*
X26057957Y-85258347D01*
X26054575Y-85256756D01*
X24871926Y-84678663D01*
X24868617Y-84676984D01*
X23703687Y-84064085D01*
X23700471Y-84062332D01*
X22554161Y-83415101D01*
X22550966Y-83413233D01*
X21424430Y-82732322D01*
X21421272Y-82730349D01*
X20315420Y-82016309D01*
X20312325Y-82014245D01*
X19935485Y-81754765D01*
X19228137Y-81267709D01*
X19225101Y-81265551D01*
X18857270Y-80995846D01*
X18163556Y-80487194D01*
X18160628Y-80484980D01*
X17122619Y-79675456D01*
X17119706Y-79673114D01*
X16898047Y-79489416D01*
X16858346Y-79456514D01*
X16818660Y-79397646D01*
X16817100Y-79326667D01*
X16854162Y-79266112D01*
X16918079Y-79235207D01*
X16938747Y-79233500D01*
X19221233Y-79233500D01*
X19232416Y-79234027D01*
X19239909Y-79235702D01*
X19247835Y-79235453D01*
X19247836Y-79235453D01*
X19307986Y-79233562D01*
X19311945Y-79233500D01*
X19339856Y-79233500D01*
X19343791Y-79233003D01*
X19343856Y-79232995D01*
X19355693Y-79232062D01*
X19387951Y-79231048D01*
X19391970Y-79230922D01*
X19399889Y-79230673D01*
X19419343Y-79225021D01*
X19438700Y-79221013D01*
X19450930Y-79219468D01*
X19450931Y-79219468D01*
X19458797Y-79218474D01*
X19466168Y-79215555D01*
X19466170Y-79215555D01*
X19499912Y-79202196D01*
X19511142Y-79198351D01*
X19545983Y-79188229D01*
X19545984Y-79188229D01*
X19553593Y-79186018D01*
X19560412Y-79181985D01*
X19560417Y-79181983D01*
X19571028Y-79175707D01*
X19588776Y-79167012D01*
X19607617Y-79159552D01*
X19643387Y-79133564D01*
X19653307Y-79127048D01*
X19684535Y-79108580D01*
X19684538Y-79108578D01*
X19691362Y-79104542D01*
X19705683Y-79090221D01*
X19720717Y-79077380D01*
X19722431Y-79076135D01*
X19737107Y-79065472D01*
X19765298Y-79031395D01*
X19773288Y-79022616D01*
X40345270Y-58450634D01*
X40407582Y-58416608D01*
X40434365Y-58413729D01*
X40670519Y-58413729D01*
X40681778Y-58414233D01*
X40731373Y-58418682D01*
X40733795Y-58418712D01*
X40733802Y-58418712D01*
X40737116Y-58418752D01*
X40743715Y-58418833D01*
X40780007Y-58416471D01*
X40820408Y-58413841D01*
X40820418Y-58413840D01*
X40822829Y-58413683D01*
X40840202Y-58411195D01*
X40960161Y-58394016D01*
X40960167Y-58394015D01*
X40964606Y-58393379D01*
X40968911Y-58392120D01*
X40968916Y-58392119D01*
X41100108Y-58353755D01*
X41104410Y-58352497D01*
X41234789Y-58293217D01*
X41238562Y-58290804D01*
X41238568Y-58290801D01*
X41353721Y-58217157D01*
X41353722Y-58217156D01*
X41357497Y-58214742D01*
X41465998Y-58121252D01*
X41561750Y-58011489D01*
X41567774Y-58002196D01*
X41628452Y-57908580D01*
X41639650Y-57891304D01*
X41651667Y-57865296D01*
X41698868Y-57763145D01*
X41698869Y-57763143D01*
X41700748Y-57759076D01*
X41734088Y-57647592D01*
X41740499Y-57626156D01*
X41740501Y-57626148D01*
X41741784Y-57621858D01*
X41744770Y-57601881D01*
X41762650Y-57482235D01*
X41762650Y-57482232D01*
X41763312Y-57477804D01*
X41764187Y-57334583D01*
X41763852Y-57332139D01*
X41763729Y-57328344D01*
X41763729Y-56900000D01*
X41761475Y-56868489D01*
X41776566Y-56799116D01*
X41826768Y-56748913D01*
X41887154Y-56733500D01*
X42114799Y-56733500D01*
X42182920Y-56753502D01*
G37*
%TD.AperFunction*%
%TA.AperFunction,NonConductor*%
G36*
X45182920Y-56753502D02*
G01*
X45229413Y-56807158D01*
X45239516Y-56877432D01*
X45236271Y-56900000D01*
X45236271Y-57387322D01*
X45236250Y-57389630D01*
X45235088Y-57453020D01*
X45235641Y-57457459D01*
X45246556Y-57545082D01*
X45253093Y-57597565D01*
X45290766Y-57735745D01*
X45292548Y-57739862D01*
X45292549Y-57739866D01*
X45341785Y-57853643D01*
X45348612Y-57869420D01*
X45423552Y-57991472D01*
X45426415Y-57994920D01*
X45426416Y-57994922D01*
X45462363Y-58038220D01*
X45516592Y-58103540D01*
X45622776Y-58199654D01*
X45626492Y-58202161D01*
X45626494Y-58202162D01*
X45739817Y-58278599D01*
X45739822Y-58278602D01*
X45743536Y-58281107D01*
X45795441Y-58306254D01*
X45848021Y-58353955D01*
X45866500Y-58419645D01*
X45866500Y-88121233D01*
X45865973Y-88132416D01*
X45864298Y-88139909D01*
X45864547Y-88147835D01*
X45864547Y-88147836D01*
X45866438Y-88207986D01*
X45866500Y-88211945D01*
X45866500Y-88239856D01*
X45866997Y-88243790D01*
X45866997Y-88243791D01*
X45867005Y-88243856D01*
X45867938Y-88255693D01*
X45869327Y-88299889D01*
X45874978Y-88319339D01*
X45878987Y-88338700D01*
X45880398Y-88349865D01*
X45881526Y-88358797D01*
X45884445Y-88366168D01*
X45884445Y-88366170D01*
X45897804Y-88399912D01*
X45901649Y-88411142D01*
X45913982Y-88453593D01*
X45918015Y-88460412D01*
X45918017Y-88460417D01*
X45924293Y-88471028D01*
X45932988Y-88488776D01*
X45940448Y-88507617D01*
X45945110Y-88514033D01*
X45945110Y-88514034D01*
X45966436Y-88543387D01*
X45972952Y-88553307D01*
X45990873Y-88583609D01*
X45995458Y-88591362D01*
X46009779Y-88605683D01*
X46022619Y-88620716D01*
X46034528Y-88637107D01*
X46063717Y-88661254D01*
X46068605Y-88665298D01*
X46077384Y-88673288D01*
X46525636Y-89121540D01*
X46559662Y-89183852D01*
X46559060Y-89240049D01*
X46527562Y-89371250D01*
X46492210Y-89432819D01*
X46429184Y-89465502D01*
X46407572Y-89467811D01*
X46188127Y-89472216D01*
X45234800Y-89491353D01*
X45231079Y-89491372D01*
X44372704Y-89483132D01*
X43914846Y-89478737D01*
X43911108Y-89478646D01*
X43854709Y-89476430D01*
X43589595Y-89466014D01*
X43522313Y-89443353D01*
X43477963Y-89387913D01*
X43472024Y-89369525D01*
X43440940Y-89240049D01*
X43444487Y-89169141D01*
X43474364Y-89121540D01*
X43892247Y-88703657D01*
X43900537Y-88696113D01*
X43907018Y-88692000D01*
X43953659Y-88642332D01*
X43956413Y-88639491D01*
X43976134Y-88619770D01*
X43978612Y-88616575D01*
X43986318Y-88607553D01*
X44011158Y-88581101D01*
X44016586Y-88575321D01*
X44026346Y-88557568D01*
X44037199Y-88541045D01*
X44044753Y-88531306D01*
X44049613Y-88525041D01*
X44067176Y-88484457D01*
X44072383Y-88473827D01*
X44093695Y-88435060D01*
X44095666Y-88427383D01*
X44095668Y-88427378D01*
X44098732Y-88415442D01*
X44105138Y-88396730D01*
X44110034Y-88385417D01*
X44113181Y-88378145D01*
X44116246Y-88358797D01*
X44120097Y-88334481D01*
X44122504Y-88322860D01*
X44131528Y-88287711D01*
X44131528Y-88287710D01*
X44133500Y-88280030D01*
X44133500Y-88259769D01*
X44135051Y-88240058D01*
X44136979Y-88227885D01*
X44138219Y-88220057D01*
X44134059Y-88176046D01*
X44133500Y-88164189D01*
X44133500Y-58420394D01*
X44153502Y-58352273D01*
X44207348Y-58305694D01*
X44230710Y-58295072D01*
X44230714Y-58295070D01*
X44234789Y-58293217D01*
X44281067Y-58263621D01*
X44353721Y-58217157D01*
X44353722Y-58217156D01*
X44357497Y-58214742D01*
X44465998Y-58121252D01*
X44561750Y-58011489D01*
X44567774Y-58002196D01*
X44628452Y-57908580D01*
X44639650Y-57891304D01*
X44651667Y-57865296D01*
X44698868Y-57763145D01*
X44698869Y-57763143D01*
X44700748Y-57759076D01*
X44734088Y-57647592D01*
X44740499Y-57626156D01*
X44740501Y-57626148D01*
X44741784Y-57621858D01*
X44744770Y-57601881D01*
X44762650Y-57482235D01*
X44762650Y-57482232D01*
X44763312Y-57477804D01*
X44764187Y-57334583D01*
X44763852Y-57332139D01*
X44763729Y-57328344D01*
X44763729Y-56900000D01*
X44761475Y-56868489D01*
X44776566Y-56799116D01*
X44826768Y-56748913D01*
X44887154Y-56733500D01*
X45114799Y-56733500D01*
X45182920Y-56753502D01*
G37*
%TD.AperFunction*%
M02*
