%TF.GenerationSoftware,KiCad,Pcbnew,(6.0.1-0)*%
%TF.CreationDate,2022-09-11T15:05:22-04:00*%
%TF.ProjectId,record,7265636f-7264-42e6-9b69-6361645f7063,rev?*%
%TF.SameCoordinates,Original*%
%TF.FileFunction,Legend,Bot*%
%TF.FilePolarity,Positive*%
%FSLAX46Y46*%
G04 Gerber Fmt 4.6, Leading zero omitted, Abs format (unit mm)*
G04 Created by KiCad (PCBNEW (6.0.1-0)) date 2022-09-11 15:05:22*
%MOMM*%
%LPD*%
G01*
G04 APERTURE LIST*
%ADD10C,0.150000*%
%ADD11C,0.120000*%
G04 APERTURE END LIST*
D10*
X50214285Y-34647380D02*
X49880952Y-35647380D01*
X49547619Y-34647380D01*
X49071428Y-35647380D02*
X49166666Y-35599761D01*
X49214285Y-35552142D01*
X49261904Y-35456904D01*
X49261904Y-35171190D01*
X49214285Y-35075952D01*
X49166666Y-35028333D01*
X49071428Y-34980714D01*
X48928571Y-34980714D01*
X48833333Y-35028333D01*
X48785714Y-35075952D01*
X48738095Y-35171190D01*
X48738095Y-35456904D01*
X48785714Y-35552142D01*
X48833333Y-35599761D01*
X48928571Y-35647380D01*
X49071428Y-35647380D01*
X48166666Y-35647380D02*
X48261904Y-35599761D01*
X48309523Y-35504523D01*
X48309523Y-34647380D01*
X47928571Y-34980714D02*
X47547619Y-34980714D01*
X47785714Y-34647380D02*
X47785714Y-35504523D01*
X47738095Y-35599761D01*
X47642857Y-35647380D01*
X47547619Y-35647380D01*
X46785714Y-35647380D02*
X46785714Y-35123571D01*
X46833333Y-35028333D01*
X46928571Y-34980714D01*
X47119047Y-34980714D01*
X47214285Y-35028333D01*
X46785714Y-35599761D02*
X46880952Y-35647380D01*
X47119047Y-35647380D01*
X47214285Y-35599761D01*
X47261904Y-35504523D01*
X47261904Y-35409285D01*
X47214285Y-35314047D01*
X47119047Y-35266428D01*
X46880952Y-35266428D01*
X46785714Y-35218809D01*
X46452380Y-34647380D02*
X46119047Y-35647380D01*
X45785714Y-34647380D01*
X45309523Y-35647380D02*
X45404761Y-35599761D01*
X45452380Y-35552142D01*
X45500000Y-35456904D01*
X45500000Y-35171190D01*
X45452380Y-35075952D01*
X45404761Y-35028333D01*
X45309523Y-34980714D01*
X45166666Y-34980714D01*
X45071428Y-35028333D01*
X45023809Y-35075952D01*
X44976190Y-35171190D01*
X44976190Y-35456904D01*
X45023809Y-35552142D01*
X45071428Y-35599761D01*
X45166666Y-35647380D01*
X45309523Y-35647380D01*
X44642857Y-35647380D02*
X44119047Y-34980714D01*
X44642857Y-34980714D02*
X44119047Y-35647380D01*
X43119047Y-34647380D02*
X42785714Y-35647380D01*
X42452380Y-34647380D01*
X42119047Y-35647380D02*
X42119047Y-34980714D01*
X42119047Y-34647380D02*
X42166666Y-34695000D01*
X42119047Y-34742619D01*
X42071428Y-34695000D01*
X42119047Y-34647380D01*
X42119047Y-34742619D01*
X41642857Y-34980714D02*
X41642857Y-35647380D01*
X41642857Y-35075952D02*
X41595238Y-35028333D01*
X41500000Y-34980714D01*
X41357142Y-34980714D01*
X41261904Y-35028333D01*
X41214285Y-35123571D01*
X41214285Y-35647380D01*
X40833333Y-34980714D02*
X40595238Y-35647380D01*
X40357142Y-34980714D02*
X40595238Y-35647380D01*
X40690476Y-35885476D01*
X40738095Y-35933095D01*
X40833333Y-35980714D01*
X39833333Y-35647380D02*
X39928571Y-35599761D01*
X39976190Y-35504523D01*
X39976190Y-34647380D01*
X46523809Y-37257380D02*
X46857142Y-36781190D01*
X47095238Y-37257380D02*
X47095238Y-36257380D01*
X46714285Y-36257380D01*
X46619047Y-36305000D01*
X46571428Y-36352619D01*
X46523809Y-36447857D01*
X46523809Y-36590714D01*
X46571428Y-36685952D01*
X46619047Y-36733571D01*
X46714285Y-36781190D01*
X47095238Y-36781190D01*
X46095238Y-36733571D02*
X45761904Y-36733571D01*
X45619047Y-37257380D02*
X46095238Y-37257380D01*
X46095238Y-36257380D01*
X45619047Y-36257380D01*
X45333333Y-36257380D02*
X45000000Y-37257380D01*
X44666666Y-36257380D01*
X44142857Y-36257380D02*
X44047619Y-36257380D01*
X43952380Y-36305000D01*
X43904761Y-36352619D01*
X43857142Y-36447857D01*
X43809523Y-36638333D01*
X43809523Y-36876428D01*
X43857142Y-37066904D01*
X43904761Y-37162142D01*
X43952380Y-37209761D01*
X44047619Y-37257380D01*
X44142857Y-37257380D01*
X44238095Y-37209761D01*
X44285714Y-37162142D01*
X44333333Y-37066904D01*
X44380952Y-36876428D01*
X44380952Y-36638333D01*
X44333333Y-36447857D01*
X44285714Y-36352619D01*
X44238095Y-36305000D01*
X44142857Y-36257380D01*
X43190476Y-36257380D02*
X43095238Y-36257380D01*
X43000000Y-36305000D01*
X42952380Y-36352619D01*
X42904761Y-36447857D01*
X42857142Y-36638333D01*
X42857142Y-36876428D01*
X42904761Y-37066904D01*
X42952380Y-37162142D01*
X43000000Y-37209761D01*
X43095238Y-37257380D01*
X43190476Y-37257380D01*
X43285714Y-37209761D01*
X43333333Y-37162142D01*
X43380952Y-37066904D01*
X43428571Y-36876428D01*
X43428571Y-36638333D01*
X43380952Y-36447857D01*
X43333333Y-36352619D01*
X43285714Y-36305000D01*
X43190476Y-36257380D01*
X52428571Y-51809523D02*
X52428571Y-51476190D01*
X52952380Y-51476190D02*
X51952380Y-51476190D01*
X51952380Y-51952380D01*
X51952380Y-52238095D02*
X52952380Y-52904761D01*
X51952380Y-52904761D02*
X52952380Y-52238095D01*
X53047619Y-53047619D02*
X53047619Y-53809523D01*
X51952380Y-53952380D02*
X51952380Y-54619047D01*
X52952380Y-54190476D01*
X46428571Y-51809523D02*
X46428571Y-51476190D01*
X46952380Y-51476190D02*
X45952380Y-51476190D01*
X45952380Y-51952380D01*
X45952380Y-52238095D02*
X46952380Y-52904761D01*
X45952380Y-52904761D02*
X46952380Y-52238095D01*
X47047619Y-53047619D02*
X47047619Y-53809523D01*
X45952380Y-54523809D02*
X45952380Y-54047619D01*
X46428571Y-54000000D01*
X46380952Y-54047619D01*
X46333333Y-54142857D01*
X46333333Y-54380952D01*
X46380952Y-54476190D01*
X46428571Y-54523809D01*
X46523809Y-54571428D01*
X46761904Y-54571428D01*
X46857142Y-54523809D01*
X46904761Y-54476190D01*
X46952380Y-54380952D01*
X46952380Y-54142857D01*
X46904761Y-54047619D01*
X46857142Y-54000000D01*
X31428571Y-51809523D02*
X31428571Y-51476190D01*
X31952380Y-51476190D02*
X30952380Y-51476190D01*
X30952380Y-51952380D01*
X30952380Y-52238095D02*
X31952380Y-52904761D01*
X30952380Y-52904761D02*
X31952380Y-52238095D01*
X32047619Y-53047619D02*
X32047619Y-53809523D01*
X30952380Y-54238095D02*
X30952380Y-54333333D01*
X31000000Y-54428571D01*
X31047619Y-54476190D01*
X31142857Y-54523809D01*
X31333333Y-54571428D01*
X31571428Y-54571428D01*
X31761904Y-54523809D01*
X31857142Y-54476190D01*
X31904761Y-54428571D01*
X31952380Y-54333333D01*
X31952380Y-54238095D01*
X31904761Y-54142857D01*
X31857142Y-54095238D01*
X31761904Y-54047619D01*
X31571428Y-54000000D01*
X31333333Y-54000000D01*
X31142857Y-54047619D01*
X31047619Y-54095238D01*
X31000000Y-54142857D01*
X30952380Y-54238095D01*
X49428571Y-51809523D02*
X49428571Y-51476190D01*
X49952380Y-51476190D02*
X48952380Y-51476190D01*
X48952380Y-51952380D01*
X48952380Y-52238095D02*
X49952380Y-52904761D01*
X48952380Y-52904761D02*
X49952380Y-52238095D01*
X50047619Y-53047619D02*
X50047619Y-53809523D01*
X48952380Y-54476190D02*
X48952380Y-54285714D01*
X49000000Y-54190476D01*
X49047619Y-54142857D01*
X49190476Y-54047619D01*
X49380952Y-54000000D01*
X49761904Y-54000000D01*
X49857142Y-54047619D01*
X49904761Y-54095238D01*
X49952380Y-54190476D01*
X49952380Y-54380952D01*
X49904761Y-54476190D01*
X49857142Y-54523809D01*
X49761904Y-54571428D01*
X49523809Y-54571428D01*
X49428571Y-54523809D01*
X49380952Y-54476190D01*
X49333333Y-54380952D01*
X49333333Y-54190476D01*
X49380952Y-54095238D01*
X49428571Y-54047619D01*
X49523809Y-54000000D01*
X43428571Y-51809523D02*
X43428571Y-51476190D01*
X43952380Y-51476190D02*
X42952380Y-51476190D01*
X42952380Y-51952380D01*
X42952380Y-52238095D02*
X43952380Y-52904761D01*
X42952380Y-52904761D02*
X43952380Y-52238095D01*
X44047619Y-53047619D02*
X44047619Y-53809523D01*
X43285714Y-54476190D02*
X43952380Y-54476190D01*
X42904761Y-54238095D02*
X43619047Y-54000000D01*
X43619047Y-54619047D01*
X34428571Y-51809523D02*
X34428571Y-51476190D01*
X34952380Y-51476190D02*
X33952380Y-51476190D01*
X33952380Y-51952380D01*
X33952380Y-52238095D02*
X34952380Y-52904761D01*
X33952380Y-52904761D02*
X34952380Y-52238095D01*
X35047619Y-53047619D02*
X35047619Y-53809523D01*
X34952380Y-54571428D02*
X34952380Y-54000000D01*
X34952380Y-54285714D02*
X33952380Y-54285714D01*
X34095238Y-54190476D01*
X34190476Y-54095238D01*
X34238095Y-54000000D01*
X40428571Y-51809523D02*
X40428571Y-51476190D01*
X40952380Y-51476190D02*
X39952380Y-51476190D01*
X39952380Y-51952380D01*
X39952380Y-52238095D02*
X40952380Y-52904761D01*
X39952380Y-52904761D02*
X40952380Y-52238095D01*
X41047619Y-53047619D02*
X41047619Y-53809523D01*
X39952380Y-53952380D02*
X39952380Y-54571428D01*
X40333333Y-54238095D01*
X40333333Y-54380952D01*
X40380952Y-54476190D01*
X40428571Y-54523809D01*
X40523809Y-54571428D01*
X40761904Y-54571428D01*
X40857142Y-54523809D01*
X40904761Y-54476190D01*
X40952380Y-54380952D01*
X40952380Y-54095238D01*
X40904761Y-54000000D01*
X40857142Y-53952380D01*
X37428571Y-51809523D02*
X37428571Y-51476190D01*
X37952380Y-51476190D02*
X36952380Y-51476190D01*
X36952380Y-51952380D01*
X36952380Y-52238095D02*
X37952380Y-52904761D01*
X36952380Y-52904761D02*
X37952380Y-52238095D01*
X38047619Y-53047619D02*
X38047619Y-53809523D01*
X37047619Y-54000000D02*
X37000000Y-54047619D01*
X36952380Y-54142857D01*
X36952380Y-54380952D01*
X37000000Y-54476190D01*
X37047619Y-54523809D01*
X37142857Y-54571428D01*
X37238095Y-54571428D01*
X37380952Y-54523809D01*
X37952380Y-53952380D01*
X37952380Y-54571428D01*
X58428571Y-51809523D02*
X58428571Y-51476190D01*
X58952380Y-51476190D02*
X57952380Y-51476190D01*
X57952380Y-51952380D01*
X57952380Y-52238095D02*
X58952380Y-52904761D01*
X57952380Y-52904761D02*
X58952380Y-52238095D01*
X59047619Y-53047619D02*
X59047619Y-53809523D01*
X58952380Y-54095238D02*
X58952380Y-54285714D01*
X58904761Y-54380952D01*
X58857142Y-54428571D01*
X58714285Y-54523809D01*
X58523809Y-54571428D01*
X58142857Y-54571428D01*
X58047619Y-54523809D01*
X58000000Y-54476190D01*
X57952380Y-54380952D01*
X57952380Y-54190476D01*
X58000000Y-54095238D01*
X58047619Y-54047619D01*
X58142857Y-54000000D01*
X58380952Y-54000000D01*
X58476190Y-54047619D01*
X58523809Y-54095238D01*
X58571428Y-54190476D01*
X58571428Y-54380952D01*
X58523809Y-54476190D01*
X58476190Y-54523809D01*
X58380952Y-54571428D01*
X55428571Y-51809523D02*
X55428571Y-51476190D01*
X55952380Y-51476190D02*
X54952380Y-51476190D01*
X54952380Y-51952380D01*
X54952380Y-52238095D02*
X55952380Y-52904761D01*
X54952380Y-52904761D02*
X55952380Y-52238095D01*
X56047619Y-53047619D02*
X56047619Y-53809523D01*
X55380952Y-54190476D02*
X55333333Y-54095238D01*
X55285714Y-54047619D01*
X55190476Y-54000000D01*
X55142857Y-54000000D01*
X55047619Y-54047619D01*
X55000000Y-54095238D01*
X54952380Y-54190476D01*
X54952380Y-54380952D01*
X55000000Y-54476190D01*
X55047619Y-54523809D01*
X55142857Y-54571428D01*
X55190476Y-54571428D01*
X55285714Y-54523809D01*
X55333333Y-54476190D01*
X55380952Y-54380952D01*
X55380952Y-54190476D01*
X55428571Y-54095238D01*
X55476190Y-54047619D01*
X55571428Y-54000000D01*
X55761904Y-54000000D01*
X55857142Y-54047619D01*
X55904761Y-54095238D01*
X55952380Y-54190476D01*
X55952380Y-54380952D01*
X55904761Y-54476190D01*
X55857142Y-54523809D01*
X55761904Y-54571428D01*
X55571428Y-54571428D01*
X55476190Y-54523809D01*
X55428571Y-54476190D01*
X55380952Y-54380952D01*
D11*
%TO.C,JP10*%
X57500000Y-56050000D02*
X57500000Y-57450000D01*
X58800000Y-55350000D02*
X58200000Y-55350000D01*
X59500000Y-57450000D02*
X59500000Y-56050000D01*
X58200000Y-58150000D02*
X58800000Y-58150000D01*
X58200000Y-55350000D02*
G75*
G03*
X57500000Y-56050000I-1J-699999D01*
G01*
X58800000Y-58150000D02*
G75*
G03*
X59500000Y-57450000I1J699999D01*
G01*
X59500000Y-56050000D02*
G75*
G03*
X58800000Y-55350000I-699999J1D01*
G01*
X57500000Y-57450000D02*
G75*
G03*
X58200000Y-58150000I699999J-1D01*
G01*
%TO.C,JP3*%
X37200000Y-58150000D02*
X37800000Y-58150000D01*
X37800000Y-55350000D02*
X37200000Y-55350000D01*
X36500000Y-56050000D02*
X36500000Y-57450000D01*
X38500000Y-57450000D02*
X38500000Y-56050000D01*
X37800000Y-58150000D02*
G75*
G03*
X38500000Y-57450000I1J699999D01*
G01*
X38500000Y-56050000D02*
G75*
G03*
X37800000Y-55350000I-699999J1D01*
G01*
X37200000Y-55350000D02*
G75*
G03*
X36500000Y-56050000I-1J-699999D01*
G01*
X36500000Y-57450000D02*
G75*
G03*
X37200000Y-58150000I699999J-1D01*
G01*
%TO.C,JP2*%
X33500000Y-56050000D02*
X33500000Y-57450000D01*
X34200000Y-58150000D02*
X34800000Y-58150000D01*
X35500000Y-57450000D02*
X35500000Y-56050000D01*
X34800000Y-55350000D02*
X34200000Y-55350000D01*
X33500000Y-57450000D02*
G75*
G03*
X34200000Y-58150000I699999J-1D01*
G01*
X35500000Y-56050000D02*
G75*
G03*
X34800000Y-55350000I-699999J1D01*
G01*
X34200000Y-55350000D02*
G75*
G03*
X33500000Y-56050000I-1J-699999D01*
G01*
X34800000Y-58150000D02*
G75*
G03*
X35500000Y-57450000I1J699999D01*
G01*
%TO.C,JP8*%
X52200000Y-58150000D02*
X52800000Y-58150000D01*
X52800000Y-55350000D02*
X52200000Y-55350000D01*
X51500000Y-56050000D02*
X51500000Y-57450000D01*
X53500000Y-57450000D02*
X53500000Y-56050000D01*
X52200000Y-55350000D02*
G75*
G03*
X51500000Y-56050000I-1J-699999D01*
G01*
X52800000Y-58150000D02*
G75*
G03*
X53500000Y-57450000I1J699999D01*
G01*
X53500000Y-56050000D02*
G75*
G03*
X52800000Y-55350000I-699999J1D01*
G01*
X51500000Y-57450000D02*
G75*
G03*
X52200000Y-58150000I699999J-1D01*
G01*
%TO.C,JP5*%
X43200000Y-58150000D02*
X43800000Y-58150000D01*
X43800000Y-55350000D02*
X43200000Y-55350000D01*
X44500000Y-57450000D02*
X44500000Y-56050000D01*
X42500000Y-56050000D02*
X42500000Y-57450000D01*
X44500000Y-56050000D02*
G75*
G03*
X43800000Y-55350000I-699999J1D01*
G01*
X43200000Y-55350000D02*
G75*
G03*
X42500000Y-56050000I-1J-699999D01*
G01*
X43800000Y-58150000D02*
G75*
G03*
X44500000Y-57450000I1J699999D01*
G01*
X42500000Y-57450000D02*
G75*
G03*
X43200000Y-58150000I699999J-1D01*
G01*
%TO.C,JP9*%
X54500000Y-56050000D02*
X54500000Y-57450000D01*
X56500000Y-57450000D02*
X56500000Y-56050000D01*
X55800000Y-55350000D02*
X55200000Y-55350000D01*
X55200000Y-58150000D02*
X55800000Y-58150000D01*
X55200000Y-55350000D02*
G75*
G03*
X54500000Y-56050000I-1J-699999D01*
G01*
X54500000Y-57450000D02*
G75*
G03*
X55200000Y-58150000I699999J-1D01*
G01*
X56500000Y-56050000D02*
G75*
G03*
X55800000Y-55350000I-699999J1D01*
G01*
X55800000Y-58150000D02*
G75*
G03*
X56500000Y-57450000I1J699999D01*
G01*
%TO.C,JP6*%
X45500000Y-56050000D02*
X45500000Y-57450000D01*
X46800000Y-55350000D02*
X46200000Y-55350000D01*
X47500000Y-57450000D02*
X47500000Y-56050000D01*
X46200000Y-58150000D02*
X46800000Y-58150000D01*
X46800000Y-58150000D02*
G75*
G03*
X47500000Y-57450000I1J699999D01*
G01*
X45500000Y-57450000D02*
G75*
G03*
X46200000Y-58150000I699999J-1D01*
G01*
X46200000Y-55350000D02*
G75*
G03*
X45500000Y-56050000I-1J-699999D01*
G01*
X47500000Y-56050000D02*
G75*
G03*
X46800000Y-55350000I-699999J1D01*
G01*
%TO.C,JP4*%
X41500000Y-57450000D02*
X41500000Y-56050000D01*
X40800000Y-55350000D02*
X40200000Y-55350000D01*
X40200000Y-58150000D02*
X40800000Y-58150000D01*
X39500000Y-56050000D02*
X39500000Y-57450000D01*
X39500000Y-57450000D02*
G75*
G03*
X40200000Y-58150000I699999J-1D01*
G01*
X40200000Y-55350000D02*
G75*
G03*
X39500000Y-56050000I-1J-699999D01*
G01*
X41500000Y-56050000D02*
G75*
G03*
X40800000Y-55350000I-699999J1D01*
G01*
X40800000Y-58150000D02*
G75*
G03*
X41500000Y-57450000I1J699999D01*
G01*
%TO.C,JP7*%
X49200000Y-58150000D02*
X49800000Y-58150000D01*
X49800000Y-55350000D02*
X49200000Y-55350000D01*
X50500000Y-57450000D02*
X50500000Y-56050000D01*
X48500000Y-56050000D02*
X48500000Y-57450000D01*
X50500000Y-56050000D02*
G75*
G03*
X49800000Y-55350000I-699999J1D01*
G01*
X49800000Y-58150000D02*
G75*
G03*
X50500000Y-57450000I1J699999D01*
G01*
X48500000Y-57450000D02*
G75*
G03*
X49200000Y-58150000I699999J-1D01*
G01*
X49200000Y-55350000D02*
G75*
G03*
X48500000Y-56050000I-1J-699999D01*
G01*
%TO.C,JP1*%
X32500000Y-57450000D02*
X32500000Y-56050000D01*
X30500000Y-56050000D02*
X30500000Y-57450000D01*
X31200000Y-58150000D02*
X31800000Y-58150000D01*
X31800000Y-55350000D02*
X31200000Y-55350000D01*
X30500000Y-57450000D02*
G75*
G03*
X31200000Y-58150000I699999J-1D01*
G01*
X31200000Y-55350000D02*
G75*
G03*
X30500000Y-56050000I-1J-699999D01*
G01*
X31800000Y-58150000D02*
G75*
G03*
X32500000Y-57450000I1J699999D01*
G01*
X32500000Y-56050000D02*
G75*
G03*
X31800000Y-55350000I-699999J1D01*
G01*
%TD*%
M02*
