%TF.GenerationSoftware,KiCad,Pcbnew,(6.0.1-0)*%
%TF.CreationDate,2022-09-11T15:05:22-04:00*%
%TF.ProjectId,record,7265636f-7264-42e6-9b69-6361645f7063,rev?*%
%TF.SameCoordinates,Original*%
%TF.FileFunction,Copper,L1,Top*%
%TF.FilePolarity,Positive*%
%FSLAX46Y46*%
G04 Gerber Fmt 4.6, Leading zero omitted, Abs format (unit mm)*
G04 Created by KiCad (PCBNEW (6.0.1-0)) date 2022-09-11 15:05:22*
%MOMM*%
%LPD*%
G01*
G04 APERTURE LIST*
%TA.AperFunction,NonConductor*%
%ADD10C,0.200000*%
%TD*%
%TA.AperFunction,SMDPad,CuDef*%
%ADD11C,4.000000*%
%TD*%
%TA.AperFunction,ComponentPad*%
%ADD12C,2.000000*%
%TD*%
%TA.AperFunction,ViaPad*%
%ADD13C,0.800000*%
%TD*%
%TA.AperFunction,Conductor*%
%ADD14C,0.250000*%
%TD*%
G04 APERTURE END LIST*
D10*
X45000000Y-18000000D02*
G75*
G03*
X44000685Y-18018500I14J-27000000D01*
G01*
X45000000Y-19000001D02*
G75*
G03*
X44000739Y-19019211I14J-25999999D01*
G01*
X45000000Y-20000001D02*
G75*
G03*
X44000799Y-20019978I13J-24999999D01*
G01*
X45000000Y-21000001D02*
G75*
G03*
X44000867Y-21020807I-14J-23999999D01*
G01*
X76004031Y-45000000D02*
G75*
G03*
X75999999Y-44500000I-31004018J0D01*
G01*
X77000000Y-45000000D02*
G75*
G03*
X77000000Y-44000000I-15999995J500000D01*
G01*
X73000000Y-45000000D02*
G75*
G03*
X73000000Y-44000000I-13999994J500001D01*
G01*
X76647789Y-40265291D02*
G75*
G03*
X77000000Y-45000000I-31647803J-4734709D01*
G01*
X75550708Y-39741271D02*
G75*
G03*
X76000000Y-45000000I-30550722J-5258729D01*
G01*
X74535916Y-39743608D02*
G75*
G03*
X75000000Y-45000000I-29535930J-5256392D01*
G01*
X73578343Y-40072699D02*
G75*
G03*
X74000000Y-45000000I-28578329J-4927301D01*
G01*
X72697697Y-40896637D02*
G75*
G03*
X73000000Y-45000000I-27697684J-4103363D01*
G01*
X44000685Y-18018500D02*
G75*
G03*
X45000000Y-18000000I999329J-26981500D01*
G01*
X44000739Y-19019210D02*
G75*
G03*
X45000000Y-19000000I999275J-25980790D01*
G01*
X44000799Y-20019977D02*
G75*
G03*
X45000000Y-20000000I999215J-24980023D01*
G01*
X44000867Y-21020806D02*
G75*
G03*
X45000000Y-21000000I999119J-23979194D01*
G01*
X44000386Y-9013881D02*
G75*
G03*
X45000000Y-9000000I999620J-35986119D01*
G01*
X45000000Y-22000051D02*
G75*
G03*
X44000944Y-22021708I11J-23055002D01*
G01*
X43973348Y-7013871D02*
G75*
G03*
X45000000Y-7000000I1026647J-37986129D01*
G01*
X45000000Y-12000000D02*
G75*
G03*
X44000459Y-12015141I-62J-32996088D01*
G01*
X45000000Y-6000000D02*
G75*
G03*
X44000329Y-6012814I-99J-38992804D01*
G01*
X44001031Y-23022692D02*
G75*
G03*
X45000000Y-23000000I998966J-21977308D01*
G01*
X44000283Y-3011900D02*
G75*
G03*
X45000000Y-3000000I999729J-41988100D01*
G01*
X44001248Y-25024953D02*
G75*
G03*
X45000000Y-25000000I998748J-19975047D01*
G01*
X45000000Y-8000020D02*
G75*
G03*
X44000365Y-8013506I-97J-37047988D01*
G01*
X44000432Y-11014696D02*
G75*
G03*
X45000000Y-11000000I999556J-33985304D01*
G01*
X45000000Y-3000016D02*
G75*
G03*
X44000283Y-3011900I-18J-42053992D01*
G01*
X45000000Y-17000000D02*
G75*
G03*
X44000637Y-17017840I-40J-27997914D01*
G01*
X44000329Y-6012814D02*
G75*
G03*
X45000000Y-6000000I999664J-38987186D01*
G01*
X45000000Y-10000023D02*
G75*
G03*
X44000408Y-10014278I9J-35054575D01*
G01*
X44001132Y-24023769D02*
G75*
G03*
X45000000Y-24000000I998866J-20976231D01*
G01*
X45000000Y-5000000D02*
G75*
G03*
X44000312Y-5012494I61J-40005335D01*
G01*
X45000000Y-11000000D02*
G75*
G03*
X44000432Y-11014696I-27J-33998987D01*
G01*
X44000270Y-2011623D02*
G75*
G03*
X45000000Y-2000000I999721J-42988377D01*
G01*
X45000000Y-25000068D02*
G75*
G03*
X44001248Y-25024953I-17J-20054054D01*
G01*
X45000000Y-2000015D02*
G75*
G03*
X44000270Y-2011624I112J-43062205D01*
G01*
X44000459Y-12015141D02*
G75*
G03*
X45000000Y-12000000I999538J-32984859D01*
G01*
X44000312Y-5012494D02*
G75*
G03*
X45000000Y-5000000I999682J-39987506D01*
G01*
X44000944Y-22021708D02*
G75*
G03*
X45000000Y-22000000I999048J-22978292D01*
G01*
X44000365Y-8013506D02*
G75*
G03*
X45000000Y-8000000I999631J-36986494D01*
G01*
X44000408Y-10014277D02*
G75*
G03*
X45000000Y-10000000I999593J-34985723D01*
G01*
X45000000Y-7000000D02*
G75*
G03*
X43973348Y-7013871I13J-38001370D01*
G01*
X45000000Y-23000000D02*
G75*
G03*
X44001031Y-23022692I24J-22001203D01*
G01*
X45000000Y-13000001D02*
G75*
G03*
X44000488Y-13015615I33J-32001248D01*
G01*
X45000000Y-4000001D02*
G75*
G03*
X44000297Y-4012191I63J-41004108D01*
G01*
X44000297Y-4012190D02*
G75*
G03*
X45000000Y-4000000I999716J-40987810D01*
G01*
X45000000Y-24000000D02*
G75*
G03*
X44001132Y-24023769I-7J-20999800D01*
G01*
X45000000Y-9000001D02*
G75*
G03*
X44000386Y-9013882I84J-36005669D01*
G01*
D11*
%TO.P,J1,1,Pin_1*%
%TO.N,Net-(J1-Pad1)*%
X75000000Y-42250000D03*
%TD*%
D12*
%TO.P,J3,1,Pin_1*%
%TO.N,Net-(J3-Pad1)*%
X300000Y-48000000D03*
%TD*%
%TO.P,J6,1,Pin_1*%
%TO.N,Net-(J6-Pad1)*%
X42000000Y-89700000D03*
%TD*%
%TO.P,J10,1,Pin_1*%
%TO.N,Net-(J10-Pad1)*%
X89700000Y-48000000D03*
%TD*%
%TO.P,J2,1,Pin_1*%
%TO.N,Net-(J2-Pad1)*%
X300000Y-42000000D03*
%TD*%
%TO.P,J4,1,Pin_1*%
%TO.N,Net-(J4-Pad1)*%
X11400000Y-74600000D03*
%TD*%
%TO.P,J11,1,Pin_1*%
%TO.N,Net-(J11-Pad1)*%
X89700000Y-42000000D03*
%TD*%
%TO.P,J7,1,Pin_1*%
%TO.N,Net-(J7-Pad1)*%
X48000000Y-89700000D03*
%TD*%
%TO.P,J8,1,Pin_1*%
%TO.N,Net-(J8-Pad1)*%
X74600000Y-78600000D03*
%TD*%
%TO.P,J5,1,Pin_1*%
%TO.N,Net-(J5-Pad1)*%
X15400000Y-78600000D03*
%TD*%
%TO.P,J9,1,Pin_1*%
%TO.N,Net-(J9-Pad1)*%
X78600000Y-74600000D03*
%TD*%
D13*
%TO.N,Net-(J1-Pad1)*%
X73687147Y-44244807D03*
%TD*%
D14*
%TO.N,Net-(J1-Pad1)*%
X73687147Y-44244807D02*
X75000000Y-42931954D01*
X75000000Y-42931954D02*
X75000000Y-42250000D01*
%TD*%
M02*
